G04 EAGLE Gerber RS-274X export*
G75*
%MOMM*%
%FSLAX34Y34*%
%LPD*%
%INTop Copper*%
%IPPOS*%
%AMOC8*
5,1,8,0,0,1.08239X$1,22.5*%
G01*
%ADD10R,0.300000X0.600000*%
%ADD11R,0.600000X0.300000*%
%ADD12R,3.300000X3.300000*%
%ADD13R,0.435000X0.435000*%
%ADD14R,1.200000X0.550000*%
%ADD15R,1.000000X1.100000*%
%ADD16R,1.100000X1.000000*%
%ADD17R,0.900000X0.850000*%
%ADD18R,0.711200X1.422400*%
%ADD19R,1.422400X0.711200*%
%ADD20C,0.247500*%
%ADD21C,0.147500*%
%ADD22R,0.850000X0.900000*%
%ADD23C,0.270000*%
%ADD24R,12.700000X1.270000*%
%ADD25R,12.065000X1.270000*%
%ADD26C,0.656400*%
%ADD27C,0.254000*%
%ADD28C,0.406400*%
%ADD29C,0.200000*%

G36*
X253316Y24572D02*
X253316Y24572D01*
X253425Y24571D01*
X253456Y24579D01*
X253488Y24581D01*
X253591Y24617D01*
X253696Y24646D01*
X253724Y24663D01*
X253754Y24674D01*
X253827Y24727D01*
X253936Y24794D01*
X253969Y24830D01*
X254003Y24855D01*
X294165Y65017D01*
X319751Y65017D01*
X319846Y65030D01*
X319942Y65035D01*
X319985Y65050D01*
X320030Y65057D01*
X320117Y65096D01*
X320208Y65128D01*
X320243Y65153D01*
X320287Y65173D01*
X320384Y65256D01*
X320457Y65309D01*
X341691Y86543D01*
X341748Y86619D01*
X341813Y86691D01*
X341833Y86732D01*
X341860Y86768D01*
X341894Y86858D01*
X341936Y86945D01*
X341942Y86987D01*
X341959Y87032D01*
X341969Y87160D01*
X341983Y87249D01*
X341983Y118702D01*
X341975Y118763D01*
X341975Y118801D01*
X341975Y118803D01*
X341975Y118830D01*
X341954Y118905D01*
X341943Y118981D01*
X341917Y119040D01*
X341900Y119102D01*
X341859Y119168D01*
X341827Y119238D01*
X341785Y119287D01*
X341752Y119342D01*
X341694Y119394D01*
X341644Y119452D01*
X341590Y119488D01*
X341542Y119531D01*
X341473Y119564D01*
X341408Y119607D01*
X341346Y119626D01*
X341289Y119654D01*
X341219Y119665D01*
X341138Y119689D01*
X341053Y119690D01*
X340984Y119701D01*
X339219Y119701D01*
X336701Y122219D01*
X336701Y125784D01*
X336748Y125847D01*
X336813Y125918D01*
X336833Y125959D01*
X336860Y125996D01*
X336894Y126086D01*
X336936Y126172D01*
X336942Y126214D01*
X336959Y126259D01*
X336969Y126387D01*
X336983Y126477D01*
X336983Y129033D01*
X336974Y129097D01*
X336975Y129161D01*
X336954Y129236D01*
X336943Y129312D01*
X336917Y129371D01*
X336900Y129433D01*
X336859Y129499D01*
X336827Y129569D01*
X336785Y129618D01*
X336752Y129673D01*
X336694Y129725D01*
X336644Y129784D01*
X336590Y129819D01*
X336542Y129862D01*
X336473Y129896D01*
X336408Y129938D01*
X336346Y129957D01*
X336289Y129985D01*
X336219Y129996D01*
X336138Y130021D01*
X336053Y130022D01*
X335984Y130033D01*
X335182Y130033D01*
X334586Y130628D01*
X334586Y145238D01*
X334577Y145302D01*
X334578Y145366D01*
X334557Y145441D01*
X334546Y145517D01*
X334520Y145576D01*
X334503Y145638D01*
X334462Y145704D01*
X334430Y145774D01*
X334388Y145823D01*
X334354Y145878D01*
X334297Y145930D01*
X334247Y145988D01*
X334193Y146024D01*
X334145Y146067D01*
X334076Y146100D01*
X334011Y146143D01*
X333949Y146162D01*
X333891Y146190D01*
X333822Y146201D01*
X333741Y146225D01*
X333656Y146226D01*
X333587Y146237D01*
X332031Y146237D01*
X331967Y146228D01*
X331903Y146229D01*
X331828Y146208D01*
X331752Y146197D01*
X331693Y146171D01*
X331631Y146154D01*
X331565Y146113D01*
X331495Y146081D01*
X331446Y146039D01*
X331391Y146006D01*
X331339Y145948D01*
X331280Y145898D01*
X331245Y145844D01*
X331202Y145796D01*
X331168Y145727D01*
X331126Y145662D01*
X331107Y145600D01*
X331079Y145543D01*
X331068Y145473D01*
X331043Y145392D01*
X331042Y145307D01*
X331031Y145238D01*
X331031Y130628D01*
X330436Y130033D01*
X322482Y130033D01*
X321886Y130628D01*
X321886Y145238D01*
X321877Y145302D01*
X321878Y145366D01*
X321857Y145441D01*
X321846Y145517D01*
X321820Y145576D01*
X321803Y145638D01*
X321762Y145704D01*
X321730Y145774D01*
X321688Y145823D01*
X321654Y145878D01*
X321597Y145930D01*
X321547Y145988D01*
X321493Y146024D01*
X321445Y146067D01*
X321376Y146100D01*
X321311Y146143D01*
X321249Y146162D01*
X321191Y146190D01*
X321122Y146201D01*
X321041Y146225D01*
X320956Y146226D01*
X320887Y146237D01*
X319331Y146237D01*
X319267Y146228D01*
X319203Y146229D01*
X319128Y146208D01*
X319052Y146197D01*
X318993Y146171D01*
X318931Y146154D01*
X318865Y146113D01*
X318795Y146081D01*
X318746Y146039D01*
X318691Y146006D01*
X318639Y145948D01*
X318580Y145898D01*
X318545Y145844D01*
X318502Y145796D01*
X318468Y145727D01*
X318426Y145662D01*
X318407Y145600D01*
X318379Y145543D01*
X318368Y145473D01*
X318343Y145392D01*
X318342Y145307D01*
X318331Y145238D01*
X318331Y130628D01*
X317736Y130033D01*
X316775Y130033D01*
X316711Y130023D01*
X316647Y130024D01*
X316572Y130004D01*
X316496Y129993D01*
X316437Y129966D01*
X316375Y129949D01*
X316309Y129908D01*
X316239Y129876D01*
X316190Y129835D01*
X316135Y129801D01*
X316083Y129743D01*
X316024Y129693D01*
X315989Y129639D01*
X315946Y129592D01*
X315912Y129522D01*
X315870Y129457D01*
X315851Y129396D01*
X315823Y129338D01*
X315812Y129268D01*
X315787Y129187D01*
X315786Y129103D01*
X315775Y129033D01*
X315775Y124718D01*
X315789Y124623D01*
X315794Y124527D01*
X315809Y124484D01*
X315815Y124439D01*
X315855Y124351D01*
X315886Y124260D01*
X315912Y124226D01*
X315932Y124182D01*
X316015Y124084D01*
X316068Y124011D01*
X318299Y121781D01*
X318299Y118219D01*
X315781Y115701D01*
X312219Y115701D01*
X309701Y118219D01*
X309701Y121781D01*
X311449Y123529D01*
X311507Y123605D01*
X311571Y123677D01*
X311591Y123718D01*
X311619Y123754D01*
X311653Y123844D01*
X311694Y123931D01*
X311701Y123973D01*
X311718Y124018D01*
X311728Y124146D01*
X311742Y124235D01*
X311742Y129033D01*
X311733Y129097D01*
X311734Y129161D01*
X311713Y129236D01*
X311702Y129312D01*
X311676Y129371D01*
X311659Y129433D01*
X311618Y129499D01*
X311586Y129569D01*
X311544Y129618D01*
X311510Y129673D01*
X311453Y129725D01*
X311403Y129784D01*
X311349Y129819D01*
X311301Y129862D01*
X311232Y129896D01*
X311167Y129938D01*
X311105Y129957D01*
X311047Y129985D01*
X310978Y129996D01*
X310897Y130021D01*
X310812Y130022D01*
X310743Y130033D01*
X309782Y130033D01*
X309186Y130628D01*
X309186Y145238D01*
X309177Y145302D01*
X309178Y145366D01*
X309157Y145441D01*
X309146Y145517D01*
X309120Y145576D01*
X309103Y145638D01*
X309062Y145704D01*
X309030Y145774D01*
X308988Y145823D01*
X308954Y145878D01*
X308897Y145930D01*
X308847Y145988D01*
X308793Y146024D01*
X308745Y146067D01*
X308676Y146100D01*
X308611Y146143D01*
X308549Y146162D01*
X308491Y146190D01*
X308422Y146201D01*
X308341Y146225D01*
X308256Y146226D01*
X308187Y146237D01*
X306631Y146237D01*
X306567Y146228D01*
X306503Y146229D01*
X306428Y146208D01*
X306352Y146197D01*
X306293Y146171D01*
X306231Y146154D01*
X306165Y146113D01*
X306095Y146081D01*
X306046Y146039D01*
X305991Y146006D01*
X305939Y145948D01*
X305880Y145898D01*
X305845Y145844D01*
X305802Y145796D01*
X305768Y145727D01*
X305726Y145662D01*
X305707Y145600D01*
X305679Y145543D01*
X305668Y145473D01*
X305643Y145392D01*
X305642Y145307D01*
X305631Y145238D01*
X305631Y130628D01*
X305036Y130033D01*
X297082Y130033D01*
X296486Y130628D01*
X296486Y145238D01*
X296477Y145302D01*
X296478Y145366D01*
X296457Y145441D01*
X296446Y145517D01*
X296420Y145576D01*
X296403Y145638D01*
X296362Y145704D01*
X296330Y145774D01*
X296288Y145823D01*
X296254Y145878D01*
X296197Y145930D01*
X296147Y145988D01*
X296093Y146024D01*
X296045Y146067D01*
X295976Y146100D01*
X295911Y146143D01*
X295849Y146162D01*
X295791Y146190D01*
X295722Y146201D01*
X295641Y146225D01*
X295556Y146226D01*
X295487Y146237D01*
X293931Y146237D01*
X293867Y146228D01*
X293803Y146229D01*
X293728Y146208D01*
X293652Y146197D01*
X293593Y146171D01*
X293531Y146154D01*
X293465Y146113D01*
X293395Y146081D01*
X293346Y146039D01*
X293291Y146006D01*
X293239Y145948D01*
X293180Y145898D01*
X293145Y145844D01*
X293102Y145796D01*
X293068Y145727D01*
X293026Y145662D01*
X293007Y145600D01*
X292979Y145543D01*
X292968Y145473D01*
X292943Y145392D01*
X292942Y145307D01*
X292931Y145238D01*
X292931Y130628D01*
X292336Y130033D01*
X284382Y130033D01*
X283786Y130628D01*
X283786Y145238D01*
X283777Y145302D01*
X283778Y145366D01*
X283757Y145441D01*
X283746Y145517D01*
X283720Y145576D01*
X283703Y145638D01*
X283662Y145704D01*
X283630Y145774D01*
X283588Y145823D01*
X283554Y145878D01*
X283497Y145930D01*
X283447Y145988D01*
X283393Y146024D01*
X283345Y146067D01*
X283276Y146100D01*
X283211Y146143D01*
X283149Y146162D01*
X283091Y146190D01*
X283022Y146201D01*
X282941Y146225D01*
X282856Y146226D01*
X282787Y146237D01*
X281231Y146237D01*
X281167Y146228D01*
X281103Y146229D01*
X281028Y146208D01*
X280952Y146197D01*
X280893Y146171D01*
X280831Y146154D01*
X280765Y146113D01*
X280695Y146081D01*
X280646Y146039D01*
X280591Y146006D01*
X280539Y145948D01*
X280480Y145898D01*
X280445Y145844D01*
X280402Y145796D01*
X280368Y145727D01*
X280326Y145662D01*
X280307Y145600D01*
X280279Y145543D01*
X280268Y145473D01*
X280243Y145392D01*
X280242Y145307D01*
X280231Y145238D01*
X280231Y130628D01*
X279548Y129945D01*
X279509Y129893D01*
X279463Y129848D01*
X279425Y129781D01*
X279379Y129719D01*
X279356Y129659D01*
X279324Y129603D01*
X279306Y129528D01*
X279279Y129455D01*
X279274Y129391D01*
X279259Y129328D01*
X279263Y129251D01*
X279257Y129174D01*
X279270Y129111D01*
X279274Y129047D01*
X279299Y128974D01*
X279315Y128898D01*
X279345Y128841D01*
X279366Y128780D01*
X279408Y128724D01*
X279447Y128649D01*
X279507Y128588D01*
X279548Y128531D01*
X280299Y127781D01*
X280299Y124219D01*
X277781Y121701D01*
X274219Y121701D01*
X271701Y124219D01*
X271701Y127781D01*
X272247Y128327D01*
X272267Y128352D01*
X272291Y128373D01*
X272351Y128465D01*
X272417Y128552D01*
X272428Y128582D01*
X272446Y128609D01*
X272478Y128714D01*
X272516Y128816D01*
X272519Y128848D01*
X272528Y128879D01*
X272530Y128988D01*
X272538Y129097D01*
X272531Y129129D01*
X272532Y129161D01*
X272503Y129266D01*
X272480Y129373D01*
X272465Y129402D01*
X272457Y129433D01*
X272399Y129526D01*
X272348Y129622D01*
X272325Y129646D01*
X272308Y129673D01*
X272228Y129746D01*
X272151Y129824D01*
X272123Y129840D01*
X272099Y129862D01*
X272001Y129909D01*
X271906Y129963D01*
X271874Y129971D01*
X271845Y129985D01*
X271756Y129999D01*
X271703Y130012D01*
X271086Y130628D01*
X271086Y145238D01*
X271077Y145302D01*
X271078Y145366D01*
X271057Y145441D01*
X271046Y145517D01*
X271020Y145576D01*
X271003Y145638D01*
X270962Y145704D01*
X270930Y145774D01*
X270888Y145823D01*
X270854Y145878D01*
X270797Y145930D01*
X270747Y145988D01*
X270693Y146024D01*
X270645Y146067D01*
X270576Y146100D01*
X270511Y146143D01*
X270449Y146162D01*
X270391Y146190D01*
X270322Y146201D01*
X270241Y146225D01*
X270156Y146226D01*
X270087Y146237D01*
X268531Y146237D01*
X268467Y146228D01*
X268403Y146229D01*
X268328Y146208D01*
X268252Y146197D01*
X268193Y146171D01*
X268131Y146154D01*
X268065Y146113D01*
X267995Y146081D01*
X267946Y146039D01*
X267891Y146006D01*
X267839Y145948D01*
X267780Y145898D01*
X267745Y145844D01*
X267702Y145796D01*
X267668Y145727D01*
X267626Y145662D01*
X267607Y145600D01*
X267579Y145543D01*
X267568Y145473D01*
X267543Y145392D01*
X267542Y145307D01*
X267531Y145238D01*
X267531Y130628D01*
X266936Y130033D01*
X265975Y130033D01*
X265911Y130023D01*
X265847Y130024D01*
X265772Y130004D01*
X265696Y129993D01*
X265637Y129966D01*
X265575Y129949D01*
X265509Y129908D01*
X265439Y129876D01*
X265390Y129835D01*
X265335Y129801D01*
X265283Y129743D01*
X265224Y129693D01*
X265189Y129639D01*
X265146Y129592D01*
X265112Y129522D01*
X265070Y129457D01*
X265051Y129396D01*
X265023Y129338D01*
X265012Y129268D01*
X264987Y129187D01*
X264986Y129103D01*
X264975Y129033D01*
X264975Y127123D01*
X261835Y123983D01*
X236249Y123983D01*
X236154Y123970D01*
X236058Y123965D01*
X236015Y123950D01*
X235970Y123943D01*
X235883Y123904D01*
X235792Y123872D01*
X235757Y123847D01*
X235713Y123827D01*
X235616Y123744D01*
X235543Y123691D01*
X234309Y122457D01*
X234252Y122381D01*
X234187Y122309D01*
X234167Y122268D01*
X234140Y122232D01*
X234106Y122142D01*
X234064Y122055D01*
X234058Y122013D01*
X234041Y121968D01*
X234031Y121840D01*
X234017Y121751D01*
X234017Y81857D01*
X234026Y81794D01*
X234025Y81729D01*
X234046Y81655D01*
X234057Y81578D01*
X234083Y81520D01*
X234100Y81458D01*
X234141Y81392D01*
X234173Y81321D01*
X234215Y81272D01*
X234248Y81218D01*
X234306Y81166D01*
X234356Y81107D01*
X234410Y81072D01*
X234458Y81029D01*
X234527Y80995D01*
X234592Y80952D01*
X234654Y80934D01*
X234711Y80906D01*
X234781Y80895D01*
X234862Y80870D01*
X234947Y80869D01*
X235016Y80858D01*
X235041Y80858D01*
X235102Y80867D01*
X235144Y80866D01*
X235145Y80867D01*
X235169Y80866D01*
X235243Y80887D01*
X235320Y80898D01*
X235378Y80924D01*
X235440Y80941D01*
X235506Y80982D01*
X235577Y81014D01*
X235626Y81056D01*
X235680Y81090D01*
X235732Y81147D01*
X235791Y81197D01*
X235826Y81251D01*
X235869Y81299D01*
X235903Y81368D01*
X235946Y81433D01*
X235964Y81495D01*
X235992Y81553D01*
X236003Y81622D01*
X236028Y81703D01*
X236029Y81788D01*
X236040Y81857D01*
X236040Y82818D01*
X236636Y83414D01*
X251702Y83414D01*
X252297Y82818D01*
X252297Y74864D01*
X251702Y74269D01*
X236602Y74269D01*
X236600Y74269D01*
X236513Y74335D01*
X236483Y74346D01*
X236456Y74364D01*
X236351Y74396D01*
X236249Y74434D01*
X236217Y74437D01*
X236186Y74446D01*
X236077Y74448D01*
X235968Y74456D01*
X235936Y74450D01*
X235904Y74450D01*
X235799Y74421D01*
X235692Y74399D01*
X235663Y74383D01*
X235632Y74375D01*
X235539Y74317D01*
X235443Y74266D01*
X235420Y74244D01*
X235392Y74227D01*
X235319Y74146D01*
X235241Y74069D01*
X235225Y74041D01*
X235203Y74017D01*
X235156Y73919D01*
X235102Y73824D01*
X235094Y73793D01*
X235080Y73764D01*
X235066Y73674D01*
X235037Y73550D01*
X235039Y73501D01*
X235033Y73459D01*
X235033Y71523D01*
X235037Y71492D01*
X235035Y71459D01*
X235057Y71352D01*
X235073Y71244D01*
X235086Y71215D01*
X235092Y71183D01*
X235144Y71087D01*
X235189Y70987D01*
X235210Y70963D01*
X235225Y70934D01*
X235301Y70856D01*
X235372Y70773D01*
X235399Y70755D01*
X235422Y70732D01*
X235517Y70679D01*
X235608Y70619D01*
X235639Y70609D01*
X235667Y70593D01*
X235774Y70568D01*
X235878Y70536D01*
X235910Y70536D01*
X235942Y70528D01*
X236051Y70534D01*
X236160Y70532D01*
X236191Y70541D01*
X236223Y70543D01*
X236326Y70578D01*
X236432Y70608D01*
X236459Y70625D01*
X236490Y70635D01*
X236563Y70689D01*
X236604Y70714D01*
X251702Y70714D01*
X252297Y70118D01*
X252297Y62164D01*
X251702Y61569D01*
X236602Y61569D01*
X236600Y61569D01*
X236513Y61635D01*
X236483Y61646D01*
X236456Y61664D01*
X236351Y61696D01*
X236249Y61734D01*
X236217Y61737D01*
X236186Y61746D01*
X236077Y61748D01*
X235968Y61756D01*
X235936Y61750D01*
X235904Y61750D01*
X235799Y61721D01*
X235692Y61699D01*
X235663Y61683D01*
X235632Y61675D01*
X235539Y61617D01*
X235443Y61566D01*
X235420Y61544D01*
X235392Y61527D01*
X235319Y61446D01*
X235241Y61369D01*
X235225Y61341D01*
X235203Y61317D01*
X235156Y61219D01*
X235102Y61124D01*
X235094Y61093D01*
X235080Y61064D01*
X235066Y60974D01*
X235037Y60850D01*
X235039Y60801D01*
X235033Y60759D01*
X235033Y58823D01*
X235037Y58792D01*
X235035Y58759D01*
X235057Y58652D01*
X235073Y58544D01*
X235086Y58515D01*
X235092Y58483D01*
X235144Y58387D01*
X235189Y58287D01*
X235210Y58263D01*
X235225Y58234D01*
X235301Y58156D01*
X235372Y58073D01*
X235399Y58055D01*
X235422Y58032D01*
X235517Y57979D01*
X235608Y57919D01*
X235639Y57909D01*
X235667Y57893D01*
X235774Y57868D01*
X235878Y57836D01*
X235910Y57836D01*
X235942Y57828D01*
X236051Y57834D01*
X236160Y57832D01*
X236191Y57841D01*
X236223Y57843D01*
X236326Y57878D01*
X236432Y57908D01*
X236459Y57925D01*
X236490Y57935D01*
X236563Y57989D01*
X236604Y58014D01*
X251702Y58014D01*
X252297Y57418D01*
X252297Y49464D01*
X251702Y48869D01*
X236602Y48869D01*
X236600Y48869D01*
X236513Y48935D01*
X236483Y48946D01*
X236456Y48964D01*
X236351Y48996D01*
X236249Y49034D01*
X236217Y49037D01*
X236186Y49046D01*
X236077Y49048D01*
X235968Y49056D01*
X235936Y49050D01*
X235904Y49050D01*
X235799Y49021D01*
X235692Y48999D01*
X235663Y48983D01*
X235632Y48975D01*
X235539Y48917D01*
X235443Y48866D01*
X235420Y48844D01*
X235392Y48827D01*
X235319Y48746D01*
X235241Y48669D01*
X235225Y48641D01*
X235203Y48617D01*
X235156Y48519D01*
X235102Y48424D01*
X235094Y48393D01*
X235080Y48364D01*
X235066Y48274D01*
X235037Y48150D01*
X235039Y48101D01*
X235033Y48059D01*
X235033Y46123D01*
X235037Y46092D01*
X235035Y46059D01*
X235057Y45952D01*
X235073Y45844D01*
X235086Y45815D01*
X235092Y45783D01*
X235144Y45687D01*
X235189Y45587D01*
X235210Y45563D01*
X235225Y45534D01*
X235301Y45456D01*
X235372Y45373D01*
X235399Y45355D01*
X235422Y45332D01*
X235517Y45279D01*
X235608Y45219D01*
X235639Y45209D01*
X235667Y45193D01*
X235774Y45168D01*
X235878Y45136D01*
X235910Y45136D01*
X235942Y45128D01*
X236051Y45134D01*
X236160Y45132D01*
X236191Y45141D01*
X236223Y45143D01*
X236326Y45178D01*
X236432Y45208D01*
X236459Y45225D01*
X236490Y45235D01*
X236563Y45289D01*
X236604Y45314D01*
X251702Y45314D01*
X252297Y44718D01*
X252297Y36764D01*
X251702Y36169D01*
X236602Y36169D01*
X236600Y36169D01*
X236513Y36235D01*
X236483Y36246D01*
X236456Y36264D01*
X236351Y36296D01*
X236249Y36334D01*
X236217Y36337D01*
X236186Y36346D01*
X236077Y36348D01*
X235968Y36356D01*
X235936Y36350D01*
X235904Y36350D01*
X235799Y36321D01*
X235692Y36299D01*
X235663Y36283D01*
X235632Y36275D01*
X235539Y36217D01*
X235443Y36166D01*
X235420Y36144D01*
X235392Y36127D01*
X235319Y36046D01*
X235241Y35969D01*
X235225Y35941D01*
X235203Y35917D01*
X235156Y35819D01*
X235102Y35724D01*
X235094Y35693D01*
X235080Y35664D01*
X235066Y35574D01*
X235037Y35450D01*
X235039Y35401D01*
X235033Y35359D01*
X235033Y33423D01*
X235037Y33392D01*
X235035Y33359D01*
X235057Y33252D01*
X235073Y33144D01*
X235086Y33115D01*
X235092Y33083D01*
X235144Y32987D01*
X235189Y32887D01*
X235210Y32863D01*
X235225Y32834D01*
X235301Y32756D01*
X235372Y32673D01*
X235399Y32655D01*
X235422Y32632D01*
X235517Y32579D01*
X235608Y32519D01*
X235639Y32509D01*
X235667Y32493D01*
X235774Y32468D01*
X235878Y32436D01*
X235910Y32436D01*
X235942Y32428D01*
X236051Y32434D01*
X236160Y32432D01*
X236191Y32441D01*
X236223Y32443D01*
X236326Y32478D01*
X236432Y32508D01*
X236459Y32525D01*
X236490Y32535D01*
X236563Y32589D01*
X236604Y32614D01*
X251702Y32614D01*
X252297Y32018D01*
X252297Y25562D01*
X252302Y25530D01*
X252300Y25498D01*
X252322Y25391D01*
X252337Y25283D01*
X252351Y25253D01*
X252357Y25222D01*
X252409Y25125D01*
X252454Y25026D01*
X252474Y25001D01*
X252490Y24973D01*
X252566Y24894D01*
X252637Y24812D01*
X252664Y24794D01*
X252686Y24771D01*
X252781Y24717D01*
X252873Y24657D01*
X252904Y24648D01*
X252932Y24632D01*
X253038Y24607D01*
X253143Y24575D01*
X253175Y24574D01*
X253206Y24567D01*
X253316Y24572D01*
G37*
G36*
X221220Y-231D02*
X221220Y-231D01*
X221263Y-234D01*
X221359Y-211D01*
X221457Y-197D01*
X221496Y-180D01*
X221538Y-170D01*
X221624Y-122D01*
X221714Y-81D01*
X221747Y-53D01*
X221784Y-32D01*
X221853Y38D01*
X221928Y102D01*
X221952Y138D01*
X221982Y169D01*
X222029Y255D01*
X222083Y338D01*
X222095Y379D01*
X222116Y417D01*
X222136Y513D01*
X222165Y608D01*
X222166Y651D01*
X222175Y693D01*
X222167Y791D01*
X222169Y890D01*
X222157Y931D01*
X222154Y974D01*
X222123Y1054D01*
X222094Y1162D01*
X222062Y1213D01*
X222043Y1262D01*
X221704Y1848D01*
X221439Y2838D01*
X221439Y3651D01*
X226330Y3651D01*
X226393Y3660D01*
X226458Y3659D01*
X226532Y3680D01*
X226609Y3691D01*
X226667Y3717D01*
X226729Y3734D01*
X226795Y3775D01*
X226866Y3807D01*
X226915Y3848D01*
X226969Y3882D01*
X227021Y3940D01*
X227080Y3990D01*
X227115Y4044D01*
X227158Y4092D01*
X227192Y4161D01*
X227235Y4226D01*
X227253Y4288D01*
X227281Y4345D01*
X227288Y4388D01*
X227309Y4391D01*
X227368Y4417D01*
X227430Y4434D01*
X227496Y4475D01*
X227566Y4507D01*
X227615Y4549D01*
X227670Y4583D01*
X227722Y4640D01*
X227780Y4690D01*
X227816Y4744D01*
X227859Y4792D01*
X227892Y4861D01*
X227935Y4926D01*
X227954Y4988D01*
X227982Y5046D01*
X227993Y5115D01*
X228017Y5196D01*
X228018Y5281D01*
X228029Y5350D01*
X228029Y10541D01*
X228542Y10541D01*
X229532Y10276D01*
X230419Y9763D01*
X231143Y9039D01*
X231176Y8982D01*
X231209Y8940D01*
X231234Y8893D01*
X231296Y8829D01*
X231350Y8760D01*
X231394Y8729D01*
X231431Y8691D01*
X231508Y8647D01*
X231579Y8596D01*
X231630Y8578D01*
X231677Y8552D01*
X231762Y8531D01*
X231845Y8502D01*
X231899Y8499D01*
X231951Y8487D01*
X232039Y8491D01*
X232127Y8486D01*
X232179Y8498D01*
X232233Y8501D01*
X232316Y8530D01*
X232402Y8550D01*
X232448Y8576D01*
X232499Y8593D01*
X232562Y8640D01*
X232648Y8687D01*
X232698Y8739D01*
X232748Y8775D01*
X232990Y9017D01*
X237650Y9017D01*
X238587Y8080D01*
X238639Y8041D01*
X238684Y7995D01*
X238751Y7957D01*
X238813Y7910D01*
X238873Y7888D01*
X238929Y7856D01*
X239004Y7838D01*
X239077Y7811D01*
X239141Y7806D01*
X239203Y7791D01*
X239281Y7795D01*
X239358Y7789D01*
X239421Y7802D01*
X239485Y7806D01*
X239558Y7831D01*
X239634Y7847D01*
X239691Y7877D01*
X239751Y7898D01*
X239808Y7939D01*
X239883Y7979D01*
X239944Y8038D01*
X240000Y8080D01*
X241219Y9299D01*
X244781Y9299D01*
X247299Y6781D01*
X247299Y3219D01*
X245548Y1469D01*
X245529Y1443D01*
X245504Y1422D01*
X245499Y1415D01*
X245444Y1330D01*
X245379Y1243D01*
X245367Y1213D01*
X245350Y1186D01*
X245318Y1081D01*
X245279Y979D01*
X245277Y947D01*
X245267Y916D01*
X245266Y807D01*
X245257Y698D01*
X245264Y666D01*
X245263Y634D01*
X245293Y529D01*
X245315Y422D01*
X245330Y393D01*
X245339Y362D01*
X245396Y269D01*
X245447Y173D01*
X245470Y150D01*
X245487Y122D01*
X245568Y49D01*
X245644Y-29D01*
X245672Y-45D01*
X245696Y-67D01*
X245794Y-114D01*
X245889Y-168D01*
X245921Y-176D01*
X245950Y-190D01*
X246039Y-204D01*
X246164Y-233D01*
X246212Y-231D01*
X246254Y-237D01*
X257387Y-237D01*
X257450Y-228D01*
X257515Y-229D01*
X257589Y-208D01*
X257666Y-197D01*
X257724Y-171D01*
X257786Y-154D01*
X257852Y-113D01*
X257923Y-81D01*
X257972Y-40D01*
X258026Y-6D01*
X258078Y52D01*
X258137Y102D01*
X258172Y156D01*
X258215Y204D01*
X258249Y273D01*
X258292Y338D01*
X258310Y400D01*
X258338Y457D01*
X258349Y527D01*
X258374Y608D01*
X258375Y693D01*
X258386Y762D01*
X258386Y15724D01*
X258982Y16320D01*
X266936Y16320D01*
X267531Y15724D01*
X267531Y762D01*
X267541Y698D01*
X267540Y634D01*
X267547Y608D01*
X267560Y559D01*
X267571Y483D01*
X267598Y424D01*
X267615Y362D01*
X267656Y296D01*
X267688Y226D01*
X267729Y177D01*
X267763Y122D01*
X267821Y70D01*
X267871Y12D01*
X267925Y-24D01*
X267972Y-67D01*
X268042Y-100D01*
X268107Y-143D01*
X268168Y-162D01*
X268226Y-190D01*
X268296Y-201D01*
X268377Y-225D01*
X268461Y-226D01*
X268531Y-237D01*
X270087Y-237D01*
X270150Y-228D01*
X270215Y-229D01*
X270289Y-208D01*
X270366Y-197D01*
X270424Y-171D01*
X270486Y-154D01*
X270552Y-113D01*
X270623Y-81D01*
X270672Y-40D01*
X270726Y-6D01*
X270778Y52D01*
X270837Y102D01*
X270872Y156D01*
X270915Y204D01*
X270949Y273D01*
X270992Y338D01*
X271010Y400D01*
X271038Y457D01*
X271049Y527D01*
X271074Y608D01*
X271075Y693D01*
X271086Y762D01*
X271086Y15724D01*
X271682Y16320D01*
X271952Y16320D01*
X272016Y16329D01*
X272080Y16328D01*
X272155Y16349D01*
X272231Y16360D01*
X272290Y16386D01*
X272352Y16403D01*
X272418Y16444D01*
X272488Y16476D01*
X272537Y16518D01*
X272592Y16552D01*
X272644Y16609D01*
X272702Y16659D01*
X272738Y16713D01*
X272781Y16761D01*
X272814Y16830D01*
X272857Y16895D01*
X272876Y16957D01*
X272904Y17015D01*
X272915Y17084D01*
X272939Y17165D01*
X272940Y17250D01*
X272951Y17319D01*
X272951Y17555D01*
X272938Y17650D01*
X272933Y17747D01*
X272918Y17790D01*
X272911Y17835D01*
X272872Y17922D01*
X272840Y18013D01*
X272815Y18047D01*
X272795Y18092D01*
X272712Y18189D01*
X272659Y18262D01*
X271701Y19219D01*
X271701Y22781D01*
X274219Y25299D01*
X277781Y25299D01*
X280299Y22781D01*
X280299Y19219D01*
X279341Y18262D01*
X279284Y18185D01*
X279219Y18114D01*
X279199Y18073D01*
X279172Y18036D01*
X279138Y17946D01*
X279096Y17860D01*
X279090Y17818D01*
X279073Y17773D01*
X279063Y17645D01*
X279049Y17555D01*
X279049Y17319D01*
X279058Y17256D01*
X279057Y17191D01*
X279068Y17152D01*
X279069Y17128D01*
X279081Y17094D01*
X279089Y17040D01*
X279115Y16982D01*
X279132Y16920D01*
X279153Y16885D01*
X279161Y16862D01*
X279182Y16834D01*
X279205Y16783D01*
X279247Y16734D01*
X279280Y16680D01*
X279322Y16642D01*
X279343Y16613D01*
X280231Y15724D01*
X280231Y762D01*
X280241Y698D01*
X280240Y634D01*
X280247Y608D01*
X280260Y559D01*
X280271Y483D01*
X280298Y424D01*
X280315Y362D01*
X280356Y296D01*
X280388Y226D01*
X280429Y177D01*
X280463Y122D01*
X280521Y70D01*
X280571Y12D01*
X280625Y-24D01*
X280672Y-67D01*
X280742Y-100D01*
X280807Y-143D01*
X280868Y-162D01*
X280926Y-190D01*
X280996Y-201D01*
X281077Y-225D01*
X281161Y-226D01*
X281231Y-237D01*
X281263Y-237D01*
X281324Y-229D01*
X281359Y-229D01*
X281360Y-229D01*
X281391Y-229D01*
X281465Y-208D01*
X281542Y-197D01*
X281600Y-171D01*
X281662Y-154D01*
X281728Y-113D01*
X281799Y-81D01*
X281848Y-40D01*
X281902Y-6D01*
X281954Y52D01*
X282013Y102D01*
X282048Y156D01*
X282091Y204D01*
X282125Y273D01*
X282168Y338D01*
X282186Y400D01*
X282214Y457D01*
X282225Y527D01*
X282250Y608D01*
X282251Y693D01*
X282262Y762D01*
X282262Y6414D01*
X287581Y6414D01*
X287644Y6423D01*
X287708Y6422D01*
X287783Y6443D01*
X287860Y6454D01*
X287918Y6480D01*
X287980Y6497D01*
X288046Y6538D01*
X288117Y6570D01*
X288165Y6612D01*
X288220Y6646D01*
X288272Y6703D01*
X288331Y6753D01*
X288357Y6793D01*
X288369Y6774D01*
X288427Y6722D01*
X288477Y6663D01*
X288531Y6628D01*
X288579Y6585D01*
X288648Y6551D01*
X288713Y6508D01*
X288775Y6490D01*
X288832Y6462D01*
X288902Y6451D01*
X288983Y6426D01*
X289068Y6425D01*
X289137Y6414D01*
X294455Y6414D01*
X294455Y762D01*
X294465Y698D01*
X294464Y634D01*
X294471Y608D01*
X294484Y559D01*
X294495Y483D01*
X294522Y424D01*
X294539Y362D01*
X294580Y296D01*
X294612Y226D01*
X294653Y177D01*
X294687Y122D01*
X294745Y70D01*
X294795Y12D01*
X294849Y-24D01*
X294896Y-67D01*
X294966Y-100D01*
X295031Y-143D01*
X295092Y-162D01*
X295150Y-190D01*
X295220Y-201D01*
X295301Y-225D01*
X295385Y-226D01*
X295455Y-237D01*
X295487Y-237D01*
X295548Y-229D01*
X295583Y-229D01*
X295584Y-229D01*
X295615Y-229D01*
X295689Y-208D01*
X295766Y-197D01*
X295824Y-171D01*
X295886Y-154D01*
X295952Y-113D01*
X296023Y-81D01*
X296072Y-40D01*
X296126Y-6D01*
X296178Y52D01*
X296237Y102D01*
X296272Y156D01*
X296315Y204D01*
X296349Y273D01*
X296392Y338D01*
X296410Y400D01*
X296438Y457D01*
X296449Y527D01*
X296474Y608D01*
X296475Y693D01*
X296486Y762D01*
X296486Y15724D01*
X297082Y16320D01*
X305036Y16320D01*
X305631Y15724D01*
X305631Y762D01*
X305641Y698D01*
X305640Y634D01*
X305647Y608D01*
X305660Y559D01*
X305671Y483D01*
X305698Y424D01*
X305715Y362D01*
X305756Y296D01*
X305788Y226D01*
X305829Y177D01*
X305863Y122D01*
X305921Y70D01*
X305971Y12D01*
X306025Y-24D01*
X306072Y-67D01*
X306142Y-100D01*
X306207Y-143D01*
X306268Y-162D01*
X306326Y-190D01*
X306396Y-201D01*
X306477Y-225D01*
X306561Y-226D01*
X306631Y-237D01*
X308187Y-237D01*
X308250Y-228D01*
X308315Y-229D01*
X308389Y-208D01*
X308466Y-197D01*
X308524Y-171D01*
X308586Y-154D01*
X308652Y-113D01*
X308723Y-81D01*
X308772Y-40D01*
X308826Y-6D01*
X308878Y52D01*
X308937Y102D01*
X308972Y156D01*
X309015Y204D01*
X309049Y273D01*
X309092Y338D01*
X309110Y400D01*
X309138Y457D01*
X309149Y527D01*
X309174Y608D01*
X309175Y693D01*
X309186Y762D01*
X309186Y15724D01*
X309782Y16320D01*
X317736Y16320D01*
X318331Y15724D01*
X318331Y762D01*
X318341Y698D01*
X318340Y634D01*
X318347Y608D01*
X318360Y559D01*
X318371Y483D01*
X318398Y424D01*
X318415Y362D01*
X318456Y296D01*
X318488Y226D01*
X318529Y177D01*
X318563Y122D01*
X318621Y70D01*
X318671Y12D01*
X318725Y-24D01*
X318772Y-67D01*
X318842Y-100D01*
X318907Y-143D01*
X318968Y-162D01*
X319026Y-190D01*
X319096Y-201D01*
X319177Y-225D01*
X319261Y-226D01*
X319331Y-237D01*
X320887Y-237D01*
X320950Y-228D01*
X321015Y-229D01*
X321089Y-208D01*
X321166Y-197D01*
X321224Y-171D01*
X321286Y-154D01*
X321352Y-113D01*
X321423Y-81D01*
X321472Y-40D01*
X321526Y-6D01*
X321578Y52D01*
X321637Y102D01*
X321672Y156D01*
X321715Y204D01*
X321749Y273D01*
X321792Y338D01*
X321810Y400D01*
X321838Y457D01*
X321849Y527D01*
X321874Y608D01*
X321875Y693D01*
X321886Y762D01*
X321886Y15724D01*
X322482Y16320D01*
X330436Y16320D01*
X331031Y15724D01*
X331031Y762D01*
X331041Y698D01*
X331040Y634D01*
X331047Y608D01*
X331060Y559D01*
X331071Y483D01*
X331098Y424D01*
X331115Y362D01*
X331156Y296D01*
X331188Y226D01*
X331229Y177D01*
X331263Y122D01*
X331321Y70D01*
X331371Y12D01*
X331425Y-24D01*
X331472Y-67D01*
X331542Y-100D01*
X331607Y-143D01*
X331668Y-162D01*
X331726Y-190D01*
X331796Y-201D01*
X331877Y-225D01*
X331961Y-226D01*
X332031Y-237D01*
X333587Y-237D01*
X333650Y-228D01*
X333715Y-229D01*
X333789Y-208D01*
X333866Y-197D01*
X333924Y-171D01*
X333986Y-154D01*
X334052Y-113D01*
X334123Y-81D01*
X334172Y-40D01*
X334226Y-6D01*
X334278Y52D01*
X334337Y102D01*
X334372Y156D01*
X334415Y204D01*
X334449Y273D01*
X334492Y338D01*
X334510Y400D01*
X334538Y457D01*
X334549Y527D01*
X334574Y608D01*
X334575Y693D01*
X334586Y762D01*
X334586Y15724D01*
X335182Y16320D01*
X343136Y16320D01*
X343731Y15724D01*
X343731Y762D01*
X343741Y698D01*
X343740Y634D01*
X343747Y608D01*
X343760Y559D01*
X343771Y483D01*
X343798Y424D01*
X343815Y362D01*
X343856Y296D01*
X343888Y226D01*
X343929Y177D01*
X343963Y122D01*
X344021Y70D01*
X344071Y12D01*
X344125Y-24D01*
X344172Y-67D01*
X344242Y-100D01*
X344307Y-143D01*
X344368Y-162D01*
X344426Y-190D01*
X344496Y-201D01*
X344577Y-225D01*
X344661Y-226D01*
X344731Y-237D01*
X346287Y-237D01*
X346350Y-228D01*
X346415Y-229D01*
X346489Y-208D01*
X346566Y-197D01*
X346624Y-171D01*
X346686Y-154D01*
X346752Y-113D01*
X346823Y-81D01*
X346872Y-40D01*
X346926Y-6D01*
X346978Y52D01*
X347037Y102D01*
X347072Y156D01*
X347115Y204D01*
X347149Y273D01*
X347192Y338D01*
X347210Y400D01*
X347238Y457D01*
X347249Y527D01*
X347274Y608D01*
X347275Y693D01*
X347286Y762D01*
X347286Y15724D01*
X347882Y16320D01*
X348188Y16320D01*
X348220Y16325D01*
X348252Y16322D01*
X348359Y16344D01*
X348468Y16360D01*
X348497Y16373D01*
X348528Y16380D01*
X348625Y16431D01*
X348724Y16476D01*
X348749Y16497D01*
X348777Y16512D01*
X348856Y16588D01*
X348939Y16659D01*
X348956Y16686D01*
X348979Y16709D01*
X349033Y16804D01*
X349093Y16895D01*
X349103Y16926D01*
X349119Y16954D01*
X349144Y17061D01*
X349176Y17165D01*
X349176Y17197D01*
X349183Y17229D01*
X349178Y17338D01*
X349179Y17447D01*
X349171Y17478D01*
X349169Y17510D01*
X349133Y17613D01*
X349104Y17719D01*
X349087Y17746D01*
X349077Y17777D01*
X349023Y17850D01*
X348956Y17959D01*
X348920Y17991D01*
X348895Y18026D01*
X347701Y19219D01*
X347701Y22781D01*
X350219Y25299D01*
X353781Y25299D01*
X356299Y22781D01*
X356299Y19219D01*
X355105Y18026D01*
X355086Y18000D01*
X355061Y17979D01*
X355001Y17887D01*
X354936Y17800D01*
X354925Y17770D01*
X354907Y17743D01*
X354875Y17638D01*
X354836Y17536D01*
X354834Y17504D01*
X354824Y17473D01*
X354823Y17364D01*
X354815Y17255D01*
X354821Y17224D01*
X354821Y17191D01*
X354850Y17086D01*
X354872Y16979D01*
X354887Y16951D01*
X354896Y16920D01*
X354953Y16827D01*
X355005Y16730D01*
X355027Y16707D01*
X355044Y16680D01*
X355125Y16606D01*
X355201Y16528D01*
X355229Y16512D01*
X355253Y16491D01*
X355352Y16443D01*
X355447Y16389D01*
X355478Y16382D01*
X355507Y16368D01*
X355596Y16354D01*
X355721Y16324D01*
X355770Y16327D01*
X355812Y16320D01*
X355836Y16320D01*
X356431Y15724D01*
X356431Y762D01*
X356441Y698D01*
X356440Y634D01*
X356447Y608D01*
X356460Y559D01*
X356471Y483D01*
X356498Y424D01*
X356515Y362D01*
X356556Y296D01*
X356588Y226D01*
X356629Y177D01*
X356663Y122D01*
X356721Y70D01*
X356771Y12D01*
X356825Y-24D01*
X356872Y-67D01*
X356942Y-100D01*
X357007Y-143D01*
X357068Y-162D01*
X357126Y-190D01*
X357196Y-201D01*
X357277Y-225D01*
X357361Y-226D01*
X357431Y-237D01*
X357463Y-237D01*
X357524Y-229D01*
X357559Y-229D01*
X357560Y-229D01*
X357591Y-229D01*
X357665Y-208D01*
X357742Y-197D01*
X357800Y-171D01*
X357862Y-154D01*
X357928Y-113D01*
X357999Y-81D01*
X358048Y-40D01*
X358102Y-6D01*
X358154Y52D01*
X358213Y102D01*
X358248Y156D01*
X358291Y204D01*
X358325Y273D01*
X358368Y338D01*
X358386Y400D01*
X358414Y457D01*
X358425Y527D01*
X358450Y608D01*
X358451Y693D01*
X358462Y762D01*
X358462Y6414D01*
X363781Y6414D01*
X363844Y6423D01*
X363908Y6422D01*
X363983Y6443D01*
X364060Y6454D01*
X364118Y6480D01*
X364180Y6497D01*
X364246Y6538D01*
X364317Y6570D01*
X364365Y6612D01*
X364420Y6646D01*
X364472Y6703D01*
X364531Y6753D01*
X364566Y6807D01*
X364609Y6855D01*
X364643Y6924D01*
X364685Y6989D01*
X364704Y7051D01*
X364732Y7109D01*
X364743Y7178D01*
X364768Y7259D01*
X364769Y7344D01*
X364780Y7413D01*
X364780Y7970D01*
X365337Y7970D01*
X365400Y7979D01*
X365465Y7978D01*
X365539Y7999D01*
X365616Y8010D01*
X365674Y8036D01*
X365736Y8054D01*
X365802Y8094D01*
X365873Y8126D01*
X365922Y8168D01*
X365976Y8202D01*
X366028Y8259D01*
X366087Y8310D01*
X366122Y8363D01*
X366165Y8411D01*
X366199Y8481D01*
X366242Y8546D01*
X366260Y8607D01*
X366288Y8665D01*
X366299Y8734D01*
X366324Y8815D01*
X366325Y8900D01*
X366336Y8969D01*
X366336Y17844D01*
X368238Y17844D01*
X368302Y17853D01*
X368366Y17852D01*
X368441Y17873D01*
X368517Y17884D01*
X368576Y17910D01*
X368638Y17927D01*
X368704Y17968D01*
X368774Y18000D01*
X368823Y18042D01*
X368878Y18076D01*
X368930Y18133D01*
X368988Y18183D01*
X369024Y18237D01*
X369067Y18285D01*
X369100Y18354D01*
X369143Y18419D01*
X369162Y18481D01*
X369190Y18539D01*
X369201Y18608D01*
X369225Y18689D01*
X369226Y18774D01*
X369237Y18843D01*
X369237Y127509D01*
X369228Y127573D01*
X369229Y127637D01*
X369208Y127712D01*
X369197Y127788D01*
X369171Y127847D01*
X369154Y127909D01*
X369113Y127975D01*
X369081Y128045D01*
X369040Y128094D01*
X369006Y128149D01*
X368948Y128201D01*
X368898Y128260D01*
X368844Y128295D01*
X368796Y128338D01*
X368727Y128372D01*
X368662Y128414D01*
X368600Y128433D01*
X368543Y128461D01*
X368473Y128472D01*
X368392Y128497D01*
X368307Y128498D01*
X368238Y128509D01*
X366336Y128509D01*
X366336Y137383D01*
X366327Y137447D01*
X366328Y137511D01*
X366307Y137586D01*
X366296Y137662D01*
X366270Y137721D01*
X366253Y137783D01*
X366212Y137849D01*
X366180Y137919D01*
X366138Y137968D01*
X366104Y138023D01*
X366047Y138075D01*
X365997Y138133D01*
X365943Y138169D01*
X365895Y138212D01*
X365826Y138245D01*
X365761Y138288D01*
X365699Y138307D01*
X365641Y138335D01*
X365572Y138346D01*
X365491Y138370D01*
X365406Y138371D01*
X365337Y138382D01*
X364780Y138382D01*
X364780Y138939D01*
X364771Y139003D01*
X364772Y139067D01*
X364751Y139142D01*
X364740Y139218D01*
X364714Y139277D01*
X364696Y139339D01*
X364656Y139405D01*
X364624Y139475D01*
X364582Y139524D01*
X364548Y139579D01*
X364491Y139631D01*
X364440Y139690D01*
X364387Y139725D01*
X364339Y139768D01*
X364269Y139802D01*
X364204Y139844D01*
X364143Y139863D01*
X364085Y139891D01*
X364016Y139902D01*
X363935Y139927D01*
X363850Y139928D01*
X363781Y139939D01*
X358462Y139939D01*
X358462Y145238D01*
X358453Y145302D01*
X358454Y145366D01*
X358433Y145441D01*
X358422Y145517D01*
X358396Y145576D01*
X358379Y145638D01*
X358338Y145704D01*
X358306Y145774D01*
X358264Y145823D01*
X358230Y145878D01*
X358173Y145930D01*
X358123Y145988D01*
X358069Y146024D01*
X358021Y146067D01*
X357951Y146100D01*
X357887Y146143D01*
X357825Y146162D01*
X357767Y146190D01*
X357698Y146201D01*
X357617Y146225D01*
X357532Y146226D01*
X357463Y146237D01*
X357431Y146237D01*
X357370Y146229D01*
X357335Y146229D01*
X357333Y146229D01*
X357303Y146229D01*
X357228Y146208D01*
X357152Y146197D01*
X357093Y146171D01*
X357031Y146154D01*
X356965Y146113D01*
X356895Y146081D01*
X356846Y146039D01*
X356791Y146006D01*
X356739Y145948D01*
X356680Y145898D01*
X356645Y145844D01*
X356602Y145796D01*
X356568Y145727D01*
X356526Y145662D01*
X356507Y145600D01*
X356479Y145543D01*
X356468Y145473D01*
X356443Y145392D01*
X356442Y145307D01*
X356431Y145238D01*
X356431Y130628D01*
X355836Y130033D01*
X355016Y130033D01*
X354952Y130023D01*
X354888Y130024D01*
X354813Y130004D01*
X354737Y129993D01*
X354678Y129966D01*
X354616Y129949D01*
X354550Y129908D01*
X354480Y129876D01*
X354431Y129835D01*
X354376Y129801D01*
X354324Y129743D01*
X354266Y129693D01*
X354230Y129639D01*
X354187Y129592D01*
X354154Y129522D01*
X354111Y129457D01*
X354092Y129396D01*
X354064Y129338D01*
X354053Y129268D01*
X354029Y129187D01*
X354028Y129103D01*
X354017Y129033D01*
X354017Y126477D01*
X354030Y126382D01*
X354035Y126285D01*
X354050Y126242D01*
X354057Y126197D01*
X354096Y126110D01*
X354128Y126019D01*
X354153Y125985D01*
X354173Y125940D01*
X354256Y125843D01*
X354299Y125785D01*
X354299Y122219D01*
X351781Y119701D01*
X350191Y119701D01*
X350127Y119692D01*
X350063Y119693D01*
X349988Y119672D01*
X349912Y119661D01*
X349853Y119635D01*
X349791Y119618D01*
X349725Y119577D01*
X349655Y119545D01*
X349606Y119503D01*
X349551Y119470D01*
X349499Y119412D01*
X349440Y119362D01*
X349405Y119308D01*
X349362Y119260D01*
X349328Y119191D01*
X349286Y119126D01*
X349267Y119064D01*
X349239Y119007D01*
X349228Y118937D01*
X349203Y118856D01*
X349202Y118771D01*
X349191Y118702D01*
X349191Y84074D01*
X347718Y82600D01*
X347717Y82600D01*
X323085Y57967D01*
X297499Y57967D01*
X297404Y57954D01*
X297307Y57949D01*
X297264Y57934D01*
X297219Y57927D01*
X297132Y57888D01*
X297041Y57856D01*
X297007Y57831D01*
X296962Y57811D01*
X296865Y57728D01*
X296792Y57675D01*
X251085Y11967D01*
X232915Y11967D01*
X230688Y14195D01*
X230611Y14252D01*
X230540Y14317D01*
X230499Y14337D01*
X230462Y14364D01*
X230372Y14398D01*
X230286Y14440D01*
X230244Y14446D01*
X230199Y14463D01*
X230071Y14473D01*
X229981Y14487D01*
X222112Y14487D01*
X222048Y14478D01*
X221984Y14479D01*
X221909Y14458D01*
X221833Y14447D01*
X221774Y14421D01*
X221712Y14404D01*
X221646Y14363D01*
X221576Y14331D01*
X221527Y14290D01*
X221472Y14256D01*
X221420Y14198D01*
X221361Y14148D01*
X221326Y14094D01*
X221283Y14046D01*
X221249Y13977D01*
X221207Y13912D01*
X221188Y13850D01*
X221160Y13793D01*
X221149Y13723D01*
X221125Y13642D01*
X221124Y13557D01*
X221113Y13488D01*
X221113Y10347D01*
X221117Y10315D01*
X221115Y10283D01*
X221137Y10176D01*
X221152Y10068D01*
X221166Y10039D01*
X221172Y10007D01*
X221224Y9911D01*
X221269Y9811D01*
X221290Y9787D01*
X221305Y9758D01*
X221381Y9680D01*
X221452Y9597D01*
X221479Y9579D01*
X221502Y9556D01*
X221596Y9502D01*
X221688Y9442D01*
X221719Y9433D01*
X221747Y9417D01*
X221853Y9392D01*
X221958Y9360D01*
X221990Y9360D01*
X222021Y9352D01*
X222131Y9358D01*
X222240Y9356D01*
X222271Y9365D01*
X222303Y9367D01*
X222406Y9402D01*
X222512Y9432D01*
X222539Y9449D01*
X222570Y9459D01*
X222643Y9512D01*
X222752Y9580D01*
X222784Y9616D01*
X222819Y9641D01*
X222941Y9763D01*
X223828Y10276D01*
X224818Y10541D01*
X225331Y10541D01*
X225331Y6349D01*
X221439Y6349D01*
X221439Y7162D01*
X221591Y7729D01*
X221598Y7783D01*
X221613Y7834D01*
X221614Y7922D01*
X221625Y8009D01*
X221616Y8062D01*
X221617Y8116D01*
X221594Y8201D01*
X221579Y8288D01*
X221556Y8336D01*
X221542Y8388D01*
X221496Y8463D01*
X221458Y8542D01*
X221422Y8582D01*
X221394Y8628D01*
X221328Y8687D01*
X221270Y8752D01*
X221224Y8781D01*
X221184Y8817D01*
X221105Y8855D01*
X221030Y8902D01*
X220979Y8916D01*
X220931Y8940D01*
X220853Y8952D01*
X220759Y8978D01*
X220687Y8978D01*
X220626Y8987D01*
X213520Y8987D01*
X213435Y8975D01*
X213349Y8973D01*
X213296Y8955D01*
X213240Y8947D01*
X213162Y8912D01*
X213081Y8886D01*
X213034Y8854D01*
X212983Y8831D01*
X212918Y8776D01*
X212848Y8728D01*
X212815Y8687D01*
X212769Y8648D01*
X212708Y8554D01*
X212654Y8488D01*
X212629Y8444D01*
X212156Y7971D01*
X212112Y7946D01*
X212045Y7893D01*
X211972Y7848D01*
X211935Y7806D01*
X211891Y7772D01*
X211841Y7702D01*
X211783Y7639D01*
X211759Y7588D01*
X211726Y7543D01*
X211698Y7462D01*
X211660Y7385D01*
X211652Y7333D01*
X211632Y7277D01*
X211626Y7165D01*
X211613Y7080D01*
X211613Y762D01*
X211622Y698D01*
X211621Y634D01*
X211628Y608D01*
X211642Y559D01*
X211652Y483D01*
X211679Y424D01*
X211696Y362D01*
X211737Y296D01*
X211769Y226D01*
X211810Y177D01*
X211844Y122D01*
X211902Y70D01*
X211952Y12D01*
X212006Y-24D01*
X212054Y-67D01*
X212123Y-100D01*
X212188Y-143D01*
X212250Y-162D01*
X212307Y-190D01*
X212377Y-201D01*
X212458Y-225D01*
X212542Y-226D01*
X212612Y-237D01*
X221178Y-237D01*
X221220Y-231D01*
G37*
G36*
X226350Y33534D02*
X226350Y33534D01*
X226446Y33539D01*
X226489Y33554D01*
X226534Y33561D01*
X226621Y33600D01*
X226712Y33632D01*
X226747Y33657D01*
X226791Y33677D01*
X226888Y33760D01*
X226961Y33813D01*
X227691Y34543D01*
X227748Y34619D01*
X227813Y34691D01*
X227833Y34732D01*
X227860Y34768D01*
X227894Y34858D01*
X227936Y34945D01*
X227942Y34987D01*
X227959Y35032D01*
X227969Y35160D01*
X227983Y35249D01*
X227983Y78069D01*
X229691Y79776D01*
X229748Y79853D01*
X229813Y79924D01*
X229833Y79965D01*
X229860Y80002D01*
X229894Y80092D01*
X229936Y80178D01*
X229942Y80220D01*
X229959Y80265D01*
X229969Y80393D01*
X229983Y80483D01*
X229983Y123835D01*
X234165Y128017D01*
X259751Y128017D01*
X259845Y128030D01*
X259941Y128035D01*
X259984Y128050D01*
X260030Y128057D01*
X260117Y128096D01*
X260208Y128127D01*
X260242Y128153D01*
X260287Y128173D01*
X260383Y128255D01*
X260457Y128309D01*
X260474Y128326D01*
X260488Y128345D01*
X260501Y128356D01*
X260505Y128362D01*
X260518Y128373D01*
X260578Y128465D01*
X260643Y128551D01*
X260655Y128582D01*
X260673Y128609D01*
X260705Y128713D01*
X260743Y128815D01*
X260746Y128848D01*
X260755Y128879D01*
X260757Y128988D01*
X260765Y129096D01*
X260759Y129128D01*
X260759Y129161D01*
X260730Y129266D01*
X260708Y129373D01*
X260693Y129401D01*
X260684Y129433D01*
X260627Y129526D01*
X260576Y129622D01*
X260553Y129645D01*
X260536Y129673D01*
X260455Y129746D01*
X260379Y129824D01*
X260351Y129840D01*
X260326Y129862D01*
X260228Y129909D01*
X260134Y129963D01*
X260102Y129971D01*
X260073Y129985D01*
X259983Y129999D01*
X259859Y130028D01*
X259811Y130026D01*
X259768Y130033D01*
X258982Y130033D01*
X258386Y130628D01*
X258386Y145238D01*
X258377Y145302D01*
X258378Y145366D01*
X258357Y145441D01*
X258346Y145517D01*
X258320Y145576D01*
X258303Y145638D01*
X258262Y145704D01*
X258230Y145774D01*
X258188Y145823D01*
X258154Y145878D01*
X258097Y145930D01*
X258047Y145988D01*
X257993Y146024D01*
X257945Y146067D01*
X257876Y146100D01*
X257811Y146143D01*
X257749Y146162D01*
X257691Y146190D01*
X257622Y146201D01*
X257541Y146225D01*
X257456Y146226D01*
X257387Y146237D01*
X209822Y146237D01*
X209759Y146228D01*
X209694Y146229D01*
X209620Y146208D01*
X209543Y146197D01*
X209485Y146171D01*
X209423Y146154D01*
X209357Y146113D01*
X209286Y146081D01*
X209237Y146039D01*
X209183Y146006D01*
X209131Y145948D01*
X209072Y145898D01*
X209037Y145844D01*
X208994Y145796D01*
X208960Y145727D01*
X208917Y145662D01*
X208899Y145600D01*
X208871Y145543D01*
X208860Y145473D01*
X208835Y145392D01*
X208834Y145307D01*
X208823Y145238D01*
X208823Y134523D01*
X208013Y133712D01*
X207974Y133661D01*
X207928Y133616D01*
X207890Y133549D01*
X207843Y133487D01*
X207821Y133426D01*
X207789Y133371D01*
X207771Y133295D01*
X207744Y133223D01*
X207739Y133159D01*
X207724Y133096D01*
X207728Y133019D01*
X207722Y132942D01*
X207735Y132879D01*
X207738Y132814D01*
X207764Y132741D01*
X207780Y132665D01*
X207810Y132609D01*
X207831Y132548D01*
X207872Y132491D01*
X207912Y132416D01*
X207971Y132356D01*
X208013Y132299D01*
X209518Y130793D01*
X209518Y130272D01*
X209528Y130209D01*
X209527Y130144D01*
X209547Y130070D01*
X209558Y129993D01*
X209585Y129935D01*
X209602Y129873D01*
X209643Y129807D01*
X209675Y129736D01*
X209716Y129687D01*
X209750Y129633D01*
X209808Y129581D01*
X209858Y129522D01*
X209912Y129487D01*
X209959Y129444D01*
X210029Y129410D01*
X210094Y129367D01*
X210155Y129349D01*
X210213Y129321D01*
X210283Y129310D01*
X210364Y129285D01*
X210448Y129284D01*
X210518Y129273D01*
X212891Y129273D01*
X213486Y128677D01*
X213486Y122335D01*
X212891Y121740D01*
X211048Y121740D01*
X210984Y121730D01*
X210920Y121731D01*
X210845Y121711D01*
X210769Y121700D01*
X210710Y121673D01*
X210648Y121656D01*
X210582Y121615D01*
X210512Y121583D01*
X210463Y121542D01*
X210408Y121508D01*
X210356Y121450D01*
X210298Y121400D01*
X210262Y121346D01*
X210219Y121299D01*
X210186Y121229D01*
X210143Y121164D01*
X210124Y121103D01*
X210096Y121045D01*
X210085Y120975D01*
X210061Y120894D01*
X210060Y120810D01*
X210049Y120740D01*
X210049Y120445D01*
X210062Y120350D01*
X210067Y120253D01*
X210082Y120210D01*
X210089Y120165D01*
X210128Y120078D01*
X210160Y119987D01*
X210185Y119953D01*
X210205Y119908D01*
X210288Y119811D01*
X210341Y119738D01*
X211299Y118781D01*
X211299Y115219D01*
X208781Y112701D01*
X205219Y112701D01*
X202701Y115219D01*
X202701Y118781D01*
X203659Y119738D01*
X203716Y119815D01*
X203781Y119886D01*
X203801Y119927D01*
X203828Y119964D01*
X203862Y120054D01*
X203904Y120140D01*
X203910Y120182D01*
X203927Y120227D01*
X203937Y120355D01*
X203951Y120445D01*
X203951Y120740D01*
X203943Y120798D01*
X203943Y120800D01*
X203942Y120802D01*
X203942Y120804D01*
X203943Y120868D01*
X203922Y120943D01*
X203911Y121019D01*
X203885Y121078D01*
X203868Y121140D01*
X203827Y121206D01*
X203795Y121276D01*
X203753Y121325D01*
X203720Y121380D01*
X203662Y121432D01*
X203612Y121491D01*
X203558Y121526D01*
X203510Y121569D01*
X203441Y121603D01*
X203376Y121645D01*
X203314Y121664D01*
X203257Y121692D01*
X203187Y121703D01*
X203106Y121728D01*
X203021Y121729D01*
X202952Y121740D01*
X200049Y121740D01*
X199453Y122335D01*
X199453Y128677D01*
X200052Y129276D01*
X200067Y129275D01*
X200174Y129297D01*
X200282Y129313D01*
X200312Y129326D01*
X200343Y129333D01*
X200440Y129384D01*
X200539Y129429D01*
X200564Y129450D01*
X200592Y129465D01*
X200670Y129541D01*
X200754Y129612D01*
X200771Y129639D01*
X200794Y129662D01*
X200848Y129757D01*
X200908Y129848D01*
X200917Y129879D01*
X200933Y129907D01*
X200958Y130014D01*
X200990Y130118D01*
X200991Y130150D01*
X200998Y130182D01*
X200993Y130291D01*
X200994Y130400D01*
X200986Y130431D01*
X200984Y130463D01*
X200948Y130566D01*
X200919Y130672D01*
X200902Y130699D01*
X200891Y130730D01*
X200838Y130803D01*
X200771Y130912D01*
X200735Y130944D01*
X200710Y130979D01*
X199258Y132431D01*
X199258Y132928D01*
X199248Y132991D01*
X199249Y133056D01*
X199229Y133130D01*
X199218Y133207D01*
X199191Y133265D01*
X199174Y133327D01*
X199133Y133393D01*
X199101Y133464D01*
X199060Y133513D01*
X199026Y133567D01*
X198968Y133619D01*
X198918Y133678D01*
X198864Y133713D01*
X198817Y133756D01*
X198747Y133790D01*
X198682Y133833D01*
X198621Y133851D01*
X198563Y133879D01*
X198493Y133890D01*
X198412Y133915D01*
X198328Y133916D01*
X198258Y133927D01*
X196385Y133927D01*
X195790Y134523D01*
X195790Y145238D01*
X195780Y145302D01*
X195781Y145366D01*
X195761Y145441D01*
X195750Y145517D01*
X195723Y145576D01*
X195706Y145638D01*
X195665Y145704D01*
X195633Y145774D01*
X195592Y145823D01*
X195558Y145878D01*
X195500Y145930D01*
X195450Y145988D01*
X195396Y146024D01*
X195349Y146067D01*
X195279Y146100D01*
X195214Y146143D01*
X195153Y146162D01*
X195095Y146190D01*
X195025Y146201D01*
X194944Y146225D01*
X194860Y146226D01*
X194790Y146237D01*
X194346Y146237D01*
X194283Y146228D01*
X194218Y146229D01*
X194144Y146208D01*
X194067Y146197D01*
X194009Y146171D01*
X193947Y146154D01*
X193881Y146113D01*
X193810Y146081D01*
X193761Y146039D01*
X193707Y146006D01*
X193655Y145948D01*
X193596Y145898D01*
X193561Y145844D01*
X193518Y145796D01*
X193484Y145727D01*
X193441Y145662D01*
X193423Y145600D01*
X193395Y145543D01*
X193384Y145473D01*
X193359Y145392D01*
X193358Y145307D01*
X193347Y145238D01*
X193347Y141943D01*
X186306Y141943D01*
X186243Y141934D01*
X186178Y141935D01*
X186104Y141914D01*
X186027Y141903D01*
X185969Y141877D01*
X185907Y141860D01*
X185841Y141819D01*
X185770Y141787D01*
X185721Y141745D01*
X185667Y141711D01*
X185615Y141654D01*
X185556Y141603D01*
X185521Y141550D01*
X185478Y141502D01*
X185444Y141432D01*
X185401Y141368D01*
X185383Y141306D01*
X185355Y141248D01*
X185344Y141179D01*
X185319Y141098D01*
X185318Y141013D01*
X185307Y140944D01*
X185307Y139943D01*
X185305Y139943D01*
X185305Y140944D01*
X185296Y141007D01*
X185297Y141072D01*
X185277Y141146D01*
X185266Y141223D01*
X185239Y141281D01*
X185222Y141343D01*
X185181Y141409D01*
X185149Y141480D01*
X185108Y141529D01*
X185074Y141583D01*
X185016Y141635D01*
X184966Y141694D01*
X184912Y141729D01*
X184865Y141772D01*
X184795Y141806D01*
X184730Y141849D01*
X184668Y141867D01*
X184611Y141895D01*
X184541Y141906D01*
X184460Y141931D01*
X184376Y141932D01*
X184306Y141943D01*
X177266Y141943D01*
X177266Y145238D01*
X177256Y145302D01*
X177257Y145366D01*
X177237Y145441D01*
X177226Y145517D01*
X177199Y145576D01*
X177182Y145638D01*
X177141Y145704D01*
X177109Y145774D01*
X177068Y145823D01*
X177034Y145878D01*
X176976Y145930D01*
X176926Y145988D01*
X176872Y146024D01*
X176825Y146067D01*
X176755Y146100D01*
X176690Y146143D01*
X176629Y146162D01*
X176571Y146190D01*
X176501Y146201D01*
X176420Y146225D01*
X176336Y146226D01*
X176266Y146237D01*
X158558Y146237D01*
X158463Y146224D01*
X158367Y146219D01*
X158324Y146204D01*
X158279Y146197D01*
X158192Y146158D01*
X158101Y146126D01*
X158066Y146101D01*
X158022Y146081D01*
X157925Y145998D01*
X157852Y145945D01*
X144487Y132580D01*
X144430Y132503D01*
X144365Y132432D01*
X144345Y132391D01*
X144318Y132355D01*
X144284Y132264D01*
X144242Y132178D01*
X144236Y132136D01*
X144218Y132091D01*
X144208Y131963D01*
X144195Y131874D01*
X144195Y86911D01*
X144204Y86847D01*
X144203Y86783D01*
X144223Y86708D01*
X144234Y86632D01*
X144261Y86573D01*
X144278Y86511D01*
X144319Y86445D01*
X144351Y86375D01*
X144392Y86326D01*
X144426Y86271D01*
X144484Y86219D01*
X144534Y86161D01*
X144588Y86125D01*
X144635Y86082D01*
X144705Y86049D01*
X144770Y86006D01*
X144831Y85987D01*
X144889Y85959D01*
X144959Y85948D01*
X145040Y85924D01*
X145124Y85923D01*
X145194Y85912D01*
X145702Y85912D01*
X145766Y85921D01*
X145830Y85920D01*
X145905Y85941D01*
X145981Y85952D01*
X146040Y85978D01*
X146102Y85995D01*
X146168Y86036D01*
X146238Y86068D01*
X146287Y86110D01*
X146342Y86143D01*
X146394Y86201D01*
X146452Y86251D01*
X146488Y86305D01*
X146531Y86353D01*
X146564Y86422D01*
X146607Y86487D01*
X146626Y86549D01*
X146654Y86606D01*
X146665Y86676D01*
X146689Y86757D01*
X146690Y86842D01*
X146701Y86911D01*
X146701Y88781D01*
X149219Y91299D01*
X152781Y91299D01*
X154477Y89602D01*
X154503Y89583D01*
X154524Y89558D01*
X154616Y89498D01*
X154703Y89433D01*
X154733Y89421D01*
X154760Y89404D01*
X154865Y89372D01*
X154967Y89333D01*
X154999Y89331D01*
X155030Y89321D01*
X155139Y89320D01*
X155248Y89311D01*
X155280Y89318D01*
X155312Y89317D01*
X155417Y89347D01*
X155524Y89369D01*
X155553Y89384D01*
X155584Y89393D01*
X155677Y89450D01*
X155773Y89501D01*
X155796Y89524D01*
X155824Y89541D01*
X155897Y89622D01*
X155975Y89698D01*
X155991Y89726D01*
X156013Y89750D01*
X156060Y89848D01*
X156114Y89943D01*
X156122Y89975D01*
X156136Y90004D01*
X156150Y90093D01*
X156179Y90218D01*
X156177Y90266D01*
X156183Y90308D01*
X156183Y93489D01*
X157211Y94517D01*
X163089Y94517D01*
X164117Y93489D01*
X164117Y81016D01*
X164126Y80952D01*
X164125Y80888D01*
X164146Y80813D01*
X164157Y80737D01*
X164183Y80678D01*
X164200Y80616D01*
X164241Y80550D01*
X164273Y80480D01*
X164315Y80431D01*
X164348Y80376D01*
X164406Y80324D01*
X164456Y80266D01*
X164510Y80230D01*
X164558Y80187D01*
X164627Y80154D01*
X164692Y80111D01*
X164754Y80092D01*
X164811Y80064D01*
X164881Y80053D01*
X164962Y80029D01*
X165047Y80028D01*
X165116Y80017D01*
X169046Y80017D01*
X169099Y80024D01*
X169152Y80022D01*
X169238Y80044D01*
X169325Y80057D01*
X169374Y80079D01*
X169426Y80092D01*
X169502Y80137D01*
X169582Y80173D01*
X169622Y80208D01*
X169669Y80235D01*
X169729Y80299D01*
X169796Y80356D01*
X169825Y80401D01*
X169862Y80440D01*
X169902Y80518D01*
X169950Y80592D01*
X169966Y80643D01*
X169991Y80691D01*
X170007Y80778D01*
X170033Y80862D01*
X170034Y80915D01*
X170044Y80968D01*
X170035Y81046D01*
X170037Y81144D01*
X170017Y81214D01*
X170011Y81275D01*
X169859Y81840D01*
X169859Y85301D01*
X176350Y85301D01*
X176414Y85310D01*
X176478Y85309D01*
X176552Y85330D01*
X176629Y85341D01*
X176688Y85367D01*
X176750Y85384D01*
X176816Y85425D01*
X176886Y85457D01*
X176935Y85499D01*
X176990Y85532D01*
X177041Y85590D01*
X177100Y85640D01*
X177136Y85694D01*
X177179Y85742D01*
X177212Y85811D01*
X177255Y85876D01*
X177274Y85938D01*
X177302Y85995D01*
X177312Y86065D01*
X177337Y86146D01*
X177338Y86231D01*
X177349Y86300D01*
X177349Y87301D01*
X177351Y87301D01*
X177351Y86300D01*
X177360Y86236D01*
X177359Y86172D01*
X177380Y86097D01*
X177391Y86021D01*
X177417Y85962D01*
X177434Y85900D01*
X177475Y85834D01*
X177507Y85764D01*
X177549Y85715D01*
X177582Y85660D01*
X177640Y85608D01*
X177690Y85550D01*
X177744Y85514D01*
X177792Y85471D01*
X177861Y85438D01*
X177926Y85395D01*
X177988Y85376D01*
X178046Y85348D01*
X178115Y85338D01*
X178196Y85313D01*
X178281Y85312D01*
X178350Y85301D01*
X184841Y85301D01*
X184841Y83779D01*
X184845Y83747D01*
X184843Y83715D01*
X184865Y83608D01*
X184881Y83500D01*
X184894Y83470D01*
X184900Y83439D01*
X184952Y83343D01*
X184997Y83243D01*
X185018Y83218D01*
X185033Y83190D01*
X185109Y83112D01*
X185180Y83029D01*
X185207Y83011D01*
X185230Y82988D01*
X185325Y82934D01*
X185416Y82874D01*
X185447Y82865D01*
X185475Y82849D01*
X185582Y82824D01*
X185686Y82792D01*
X185718Y82791D01*
X185749Y82784D01*
X185859Y82789D01*
X185968Y82788D01*
X185999Y82797D01*
X186031Y82798D01*
X186134Y82834D01*
X186240Y82863D01*
X186267Y82880D01*
X186298Y82891D01*
X186371Y82944D01*
X186480Y83011D01*
X186512Y83047D01*
X186547Y83073D01*
X192641Y89167D01*
X192698Y89243D01*
X192763Y89315D01*
X192783Y89356D01*
X192810Y89392D01*
X192844Y89482D01*
X192886Y89569D01*
X192892Y89611D01*
X192909Y89656D01*
X192919Y89784D01*
X192933Y89873D01*
X192933Y98171D01*
X193529Y98767D01*
X202871Y98767D01*
X203293Y98344D01*
X203345Y98306D01*
X203390Y98260D01*
X203457Y98222D01*
X203519Y98175D01*
X203579Y98152D01*
X203635Y98121D01*
X203710Y98103D01*
X203783Y98076D01*
X203847Y98071D01*
X203910Y98056D01*
X203987Y98060D01*
X204064Y98054D01*
X204127Y98067D01*
X204191Y98070D01*
X204264Y98096D01*
X204340Y98111D01*
X204397Y98142D01*
X204458Y98163D01*
X204514Y98204D01*
X204589Y98244D01*
X204650Y98303D01*
X204707Y98344D01*
X205129Y98767D01*
X212051Y98767D01*
X212146Y98780D01*
X212242Y98785D01*
X212285Y98800D01*
X212330Y98807D01*
X212417Y98846D01*
X212508Y98878D01*
X212543Y98903D01*
X212587Y98923D01*
X212684Y99006D01*
X212757Y99059D01*
X214409Y100711D01*
X214466Y100787D01*
X214531Y100859D01*
X214551Y100900D01*
X214578Y100936D01*
X214612Y101026D01*
X214654Y101113D01*
X214660Y101155D01*
X214677Y101200D01*
X214687Y101328D01*
X214701Y101417D01*
X214701Y102006D01*
X214780Y102033D01*
X214885Y102062D01*
X214913Y102079D01*
X214943Y102090D01*
X215016Y102143D01*
X215125Y102211D01*
X215158Y102247D01*
X215192Y102272D01*
X217219Y104299D01*
X220781Y104299D01*
X223299Y101781D01*
X223299Y98219D01*
X220781Y95701D01*
X217219Y95701D01*
X216868Y96053D01*
X216816Y96091D01*
X216772Y96137D01*
X216704Y96176D01*
X216642Y96222D01*
X216582Y96245D01*
X216526Y96276D01*
X216451Y96294D01*
X216378Y96322D01*
X216314Y96326D01*
X216252Y96341D01*
X216174Y96337D01*
X216097Y96343D01*
X216034Y96330D01*
X215970Y96327D01*
X215897Y96301D01*
X215821Y96286D01*
X215764Y96256D01*
X215704Y96234D01*
X215647Y96193D01*
X215572Y96153D01*
X215511Y96094D01*
X215455Y96053D01*
X215359Y95957D01*
X215302Y95880D01*
X215237Y95809D01*
X215217Y95768D01*
X215190Y95732D01*
X215156Y95642D01*
X215114Y95555D01*
X215108Y95513D01*
X215091Y95468D01*
X215081Y95340D01*
X215067Y95251D01*
X215067Y88329D01*
X214471Y87733D01*
X205129Y87733D01*
X204707Y88156D01*
X204655Y88194D01*
X204610Y88240D01*
X204543Y88278D01*
X204481Y88325D01*
X204421Y88347D01*
X204365Y88379D01*
X204290Y88397D01*
X204217Y88424D01*
X204153Y88429D01*
X204091Y88444D01*
X204013Y88440D01*
X203936Y88446D01*
X203873Y88433D01*
X203809Y88430D01*
X203736Y88404D01*
X203660Y88389D01*
X203603Y88358D01*
X203542Y88337D01*
X203486Y88296D01*
X203411Y88256D01*
X203350Y88197D01*
X203293Y88156D01*
X202871Y87733D01*
X197325Y87733D01*
X197230Y87720D01*
X197134Y87715D01*
X197091Y87700D01*
X197046Y87693D01*
X196959Y87654D01*
X196868Y87622D01*
X196833Y87597D01*
X196789Y87577D01*
X196692Y87494D01*
X196619Y87441D01*
X195901Y86723D01*
X195881Y86697D01*
X195857Y86676D01*
X195797Y86584D01*
X195731Y86497D01*
X195720Y86467D01*
X195702Y86440D01*
X195670Y86335D01*
X195632Y86233D01*
X195629Y86201D01*
X195620Y86170D01*
X195619Y86061D01*
X195610Y85952D01*
X195617Y85920D01*
X195616Y85888D01*
X195645Y85783D01*
X195668Y85676D01*
X195683Y85647D01*
X195691Y85616D01*
X195749Y85523D01*
X195800Y85427D01*
X195823Y85404D01*
X195840Y85376D01*
X195921Y85303D01*
X195997Y85225D01*
X196025Y85209D01*
X196049Y85187D01*
X196147Y85140D01*
X196242Y85086D01*
X196274Y85078D01*
X196303Y85064D01*
X196392Y85050D01*
X196517Y85021D01*
X196565Y85023D01*
X196607Y85017D01*
X202871Y85017D01*
X203293Y84594D01*
X203345Y84556D01*
X203390Y84510D01*
X203457Y84472D01*
X203519Y84425D01*
X203579Y84402D01*
X203635Y84371D01*
X203710Y84353D01*
X203783Y84326D01*
X203847Y84321D01*
X203910Y84306D01*
X203987Y84310D01*
X204064Y84304D01*
X204127Y84317D01*
X204191Y84320D01*
X204264Y84346D01*
X204340Y84361D01*
X204397Y84392D01*
X204458Y84413D01*
X204514Y84454D01*
X204589Y84494D01*
X204650Y84553D01*
X204707Y84594D01*
X205129Y85017D01*
X214471Y85017D01*
X215067Y84421D01*
X215067Y82516D01*
X215076Y82452D01*
X215075Y82388D01*
X215096Y82313D01*
X215107Y82237D01*
X215133Y82178D01*
X215150Y82116D01*
X215191Y82050D01*
X215223Y81980D01*
X215265Y81931D01*
X215298Y81876D01*
X215356Y81824D01*
X215406Y81766D01*
X215460Y81730D01*
X215508Y81687D01*
X215577Y81654D01*
X215642Y81611D01*
X215704Y81592D01*
X215761Y81564D01*
X215831Y81553D01*
X215912Y81529D01*
X215997Y81528D01*
X216066Y81517D01*
X218335Y81517D01*
X223315Y76537D01*
X223315Y61970D01*
X221841Y60496D01*
X215295Y53951D01*
X215276Y53925D01*
X215251Y53904D01*
X215191Y53812D01*
X215126Y53725D01*
X215115Y53695D01*
X215097Y53668D01*
X215065Y53563D01*
X215026Y53461D01*
X215024Y53429D01*
X215015Y53398D01*
X215013Y53289D01*
X215005Y53180D01*
X215011Y53148D01*
X215011Y53116D01*
X215040Y53011D01*
X215062Y52904D01*
X215077Y52875D01*
X215086Y52844D01*
X215143Y52751D01*
X215195Y52655D01*
X215217Y52632D01*
X215234Y52604D01*
X215315Y52531D01*
X215391Y52453D01*
X215419Y52437D01*
X215443Y52415D01*
X215542Y52368D01*
X215637Y52314D01*
X215668Y52306D01*
X215697Y52292D01*
X215786Y52278D01*
X215911Y52249D01*
X215960Y52251D01*
X216002Y52245D01*
X217630Y52245D01*
X218277Y52072D01*
X218856Y51737D01*
X219329Y51264D01*
X219664Y50685D01*
X219837Y50039D01*
X219837Y48616D01*
X215209Y48616D01*
X215145Y48607D01*
X215081Y48608D01*
X215006Y48587D01*
X214929Y48576D01*
X214871Y48550D01*
X214809Y48532D01*
X214743Y48492D01*
X214672Y48460D01*
X214624Y48418D01*
X214569Y48384D01*
X214517Y48327D01*
X214458Y48276D01*
X214423Y48223D01*
X214380Y48175D01*
X214346Y48105D01*
X214304Y48040D01*
X214285Y47979D01*
X214257Y47921D01*
X214246Y47852D01*
X214221Y47771D01*
X214220Y47686D01*
X214209Y47617D01*
X214209Y47441D01*
X214218Y47378D01*
X214218Y47314D01*
X214238Y47239D01*
X214249Y47162D01*
X214276Y47104D01*
X214293Y47042D01*
X214334Y46976D01*
X214365Y46905D01*
X214407Y46857D01*
X214441Y46802D01*
X214498Y46750D01*
X214549Y46691D01*
X214603Y46656D01*
X214650Y46613D01*
X214720Y46579D01*
X214785Y46537D01*
X214846Y46518D01*
X214904Y46490D01*
X214973Y46479D01*
X215055Y46454D01*
X215139Y46453D01*
X215209Y46442D01*
X219837Y46442D01*
X219837Y45020D01*
X219846Y44956D01*
X219845Y44892D01*
X219866Y44817D01*
X219876Y44741D01*
X219903Y44682D01*
X219920Y44620D01*
X219961Y44554D01*
X219993Y44484D01*
X220034Y44435D01*
X220068Y44380D01*
X220126Y44328D01*
X220176Y44270D01*
X220230Y44234D01*
X220278Y44191D01*
X220347Y44158D01*
X220412Y44115D01*
X220427Y44110D01*
X221113Y43425D01*
X221113Y39540D01*
X221071Y39485D01*
X221048Y39425D01*
X221017Y39369D01*
X220999Y39294D01*
X220972Y39221D01*
X220967Y39157D01*
X220952Y39094D01*
X220956Y39017D01*
X220950Y38940D01*
X220963Y38877D01*
X220966Y38813D01*
X220992Y38740D01*
X221007Y38664D01*
X221038Y38607D01*
X221059Y38546D01*
X221100Y38490D01*
X221113Y38466D01*
X221113Y34520D01*
X221122Y34456D01*
X221121Y34392D01*
X221142Y34317D01*
X221152Y34241D01*
X221179Y34182D01*
X221196Y34120D01*
X221237Y34054D01*
X221269Y33984D01*
X221310Y33935D01*
X221344Y33880D01*
X221402Y33828D01*
X221452Y33770D01*
X221506Y33734D01*
X221554Y33691D01*
X221623Y33658D01*
X221688Y33615D01*
X221750Y33596D01*
X221807Y33568D01*
X221877Y33557D01*
X221958Y33533D01*
X222042Y33532D01*
X222112Y33521D01*
X226255Y33521D01*
X226350Y33534D01*
G37*
%LPC*%
G36*
X174047Y102740D02*
X174047Y102740D01*
X173451Y103335D01*
X173451Y109724D01*
X173481Y109763D01*
X173499Y109813D01*
X173527Y109859D01*
X173549Y109945D01*
X173580Y110027D01*
X173584Y110081D01*
X173598Y110132D01*
X173595Y110220D01*
X173602Y110308D01*
X173591Y110361D01*
X173589Y110414D01*
X173562Y110498D01*
X173544Y110584D01*
X173519Y110632D01*
X173503Y110683D01*
X173453Y110756D01*
X173412Y110833D01*
X173374Y110872D01*
X173344Y110916D01*
X173283Y110965D01*
X173215Y111035D01*
X173152Y111071D01*
X173104Y111110D01*
X172908Y111223D01*
X172534Y111597D01*
X172508Y111616D01*
X172487Y111641D01*
X172396Y111701D01*
X172309Y111766D01*
X172278Y111777D01*
X172251Y111795D01*
X172147Y111827D01*
X172045Y111866D01*
X172012Y111868D01*
X171982Y111878D01*
X171872Y111879D01*
X171763Y111887D01*
X171732Y111881D01*
X171700Y111881D01*
X171594Y111852D01*
X171487Y111830D01*
X171459Y111815D01*
X171428Y111806D01*
X171335Y111749D01*
X171238Y111697D01*
X171215Y111675D01*
X171188Y111658D01*
X171114Y111577D01*
X171036Y111501D01*
X171020Y111473D01*
X170999Y111449D01*
X170951Y111350D01*
X170897Y111255D01*
X170890Y111224D01*
X170876Y111195D01*
X170862Y111105D01*
X170832Y110981D01*
X170835Y110932D01*
X170828Y110890D01*
X170828Y110187D01*
X165287Y110187D01*
X165287Y116228D01*
X168622Y116228D01*
X169268Y116055D01*
X169848Y115721D01*
X170321Y115248D01*
X170388Y115132D01*
X170440Y115064D01*
X170485Y114992D01*
X170527Y114954D01*
X170562Y114910D01*
X170631Y114860D01*
X170695Y114803D01*
X170745Y114778D01*
X170791Y114745D01*
X170871Y114717D01*
X170948Y114680D01*
X171000Y114671D01*
X171057Y114651D01*
X171168Y114645D01*
X171253Y114632D01*
X180093Y114632D01*
X180156Y114641D01*
X180220Y114640D01*
X180295Y114661D01*
X180372Y114672D01*
X180430Y114698D01*
X180492Y114715D01*
X180558Y114756D01*
X180629Y114788D01*
X180677Y114830D01*
X180732Y114864D01*
X180784Y114921D01*
X180843Y114971D01*
X180878Y115025D01*
X180921Y115073D01*
X180955Y115142D01*
X180997Y115207D01*
X181016Y115269D01*
X181044Y115327D01*
X181055Y115396D01*
X181080Y115477D01*
X181081Y115562D01*
X181092Y115631D01*
X181092Y116381D01*
X181083Y116445D01*
X181084Y116509D01*
X181063Y116584D01*
X181052Y116660D01*
X181026Y116719D01*
X181008Y116781D01*
X180968Y116847D01*
X180936Y116917D01*
X180894Y116966D01*
X180860Y117021D01*
X180803Y117073D01*
X180752Y117132D01*
X180699Y117167D01*
X180651Y117210D01*
X180581Y117244D01*
X180516Y117286D01*
X180455Y117305D01*
X180397Y117333D01*
X180328Y117344D01*
X180247Y117369D01*
X180162Y117370D01*
X180093Y117381D01*
X171927Y117381D01*
X171927Y119091D01*
X172100Y119737D01*
X172435Y120316D01*
X172551Y120433D01*
X172571Y120459D01*
X172595Y120480D01*
X172655Y120571D01*
X172721Y120658D01*
X172732Y120689D01*
X172750Y120716D01*
X172782Y120820D01*
X172820Y120922D01*
X172823Y120955D01*
X172832Y120985D01*
X172833Y121095D01*
X172842Y121204D01*
X172835Y121235D01*
X172836Y121267D01*
X172807Y121373D01*
X172784Y121480D01*
X172769Y121508D01*
X172761Y121539D01*
X172703Y121632D01*
X172652Y121729D01*
X172629Y121752D01*
X172612Y121779D01*
X172531Y121852D01*
X172455Y121931D01*
X172427Y121947D01*
X172403Y121968D01*
X172305Y122016D01*
X172210Y122070D01*
X172178Y122077D01*
X172149Y122091D01*
X172060Y122105D01*
X171935Y122135D01*
X171887Y122132D01*
X171845Y122139D01*
X170303Y122139D01*
X170240Y122130D01*
X170176Y122131D01*
X170101Y122110D01*
X170024Y122099D01*
X169966Y122073D01*
X169904Y122055D01*
X169838Y122015D01*
X169767Y121983D01*
X169719Y121941D01*
X169664Y121907D01*
X169612Y121850D01*
X169553Y121799D01*
X169518Y121746D01*
X169475Y121698D01*
X169441Y121628D01*
X169399Y121563D01*
X169380Y121502D01*
X169352Y121444D01*
X169341Y121375D01*
X169316Y121294D01*
X169315Y121209D01*
X169304Y121140D01*
X169304Y119266D01*
X168709Y118671D01*
X157866Y118671D01*
X157271Y119266D01*
X157271Y131109D01*
X157866Y131704D01*
X168709Y131704D01*
X169304Y131109D01*
X169304Y129235D01*
X169313Y129172D01*
X169312Y129108D01*
X169333Y129033D01*
X169344Y128956D01*
X169370Y128898D01*
X169388Y128836D01*
X169428Y128770D01*
X169460Y128699D01*
X169502Y128651D01*
X169536Y128596D01*
X169593Y128544D01*
X169644Y128485D01*
X169697Y128450D01*
X169745Y128407D01*
X169815Y128373D01*
X169880Y128331D01*
X169941Y128312D01*
X169999Y128284D01*
X170068Y128273D01*
X170149Y128248D01*
X170234Y128247D01*
X170303Y128236D01*
X172596Y128236D01*
X172691Y128250D01*
X172787Y128255D01*
X172830Y128270D01*
X172875Y128276D01*
X172963Y128316D01*
X173054Y128347D01*
X173088Y128372D01*
X173132Y128392D01*
X173229Y128476D01*
X173303Y128529D01*
X174047Y129273D01*
X186889Y129273D01*
X187314Y128848D01*
X187391Y128790D01*
X187462Y128726D01*
X187503Y128706D01*
X187540Y128678D01*
X187630Y128644D01*
X187716Y128603D01*
X187758Y128596D01*
X187804Y128579D01*
X187931Y128569D01*
X188021Y128555D01*
X190757Y128555D01*
X195049Y124263D01*
X195049Y119445D01*
X195062Y119350D01*
X195067Y119253D01*
X195082Y119210D01*
X195089Y119165D01*
X195128Y119078D01*
X195160Y118987D01*
X195185Y118953D01*
X195205Y118908D01*
X195288Y118811D01*
X195341Y118738D01*
X196299Y117781D01*
X196299Y114219D01*
X195341Y113262D01*
X195284Y113185D01*
X195219Y113114D01*
X195199Y113073D01*
X195172Y113036D01*
X195138Y112946D01*
X195096Y112860D01*
X195090Y112818D01*
X195073Y112773D01*
X195063Y112645D01*
X195049Y112555D01*
X195049Y107737D01*
X190769Y103458D01*
X188021Y103458D01*
X187926Y103444D01*
X187830Y103439D01*
X187787Y103424D01*
X187742Y103418D01*
X187654Y103378D01*
X187563Y103347D01*
X187529Y103321D01*
X187485Y103301D01*
X187387Y103218D01*
X187314Y103165D01*
X186889Y102740D01*
X174047Y102740D01*
G37*
%LPD*%
G36*
X180874Y53530D02*
X180874Y53530D01*
X180938Y53529D01*
X181013Y53550D01*
X181089Y53561D01*
X181148Y53587D01*
X181210Y53604D01*
X181276Y53645D01*
X181346Y53677D01*
X181395Y53719D01*
X181450Y53752D01*
X181502Y53810D01*
X181560Y53860D01*
X181596Y53914D01*
X181639Y53962D01*
X181672Y54031D01*
X181715Y54096D01*
X181734Y54158D01*
X181762Y54215D01*
X181772Y54285D01*
X181791Y54345D01*
X192671Y65225D01*
X192728Y65301D01*
X192793Y65373D01*
X192813Y65414D01*
X192840Y65450D01*
X192874Y65540D01*
X192916Y65626D01*
X192922Y65669D01*
X192939Y65714D01*
X192949Y65842D01*
X192963Y65931D01*
X192963Y68630D01*
X194350Y70017D01*
X199010Y70017D01*
X199252Y69775D01*
X199295Y69743D01*
X199331Y69704D01*
X199407Y69659D01*
X199477Y69606D01*
X199528Y69587D01*
X199574Y69560D01*
X199659Y69537D01*
X199741Y69506D01*
X199795Y69502D01*
X199847Y69489D01*
X199935Y69491D01*
X200022Y69485D01*
X200075Y69495D01*
X200129Y69497D01*
X200212Y69524D01*
X200299Y69542D01*
X200346Y69567D01*
X200397Y69584D01*
X200470Y69633D01*
X200548Y69675D01*
X200586Y69712D01*
X200630Y69742D01*
X200680Y69803D01*
X200750Y69871D01*
X200785Y69934D01*
X200824Y69982D01*
X200857Y70039D01*
X201581Y70763D01*
X202468Y71276D01*
X203458Y71541D01*
X203971Y71541D01*
X203971Y66350D01*
X203980Y66287D01*
X203979Y66222D01*
X204000Y66148D01*
X204011Y66071D01*
X204037Y66013D01*
X204054Y65951D01*
X204095Y65885D01*
X204127Y65814D01*
X204168Y65765D01*
X204202Y65711D01*
X204260Y65659D01*
X204310Y65600D01*
X204364Y65565D01*
X204412Y65522D01*
X204481Y65488D01*
X204546Y65445D01*
X204608Y65427D01*
X204665Y65399D01*
X204735Y65388D01*
X204816Y65363D01*
X204901Y65362D01*
X204970Y65351D01*
X205670Y65351D01*
X205734Y65360D01*
X205798Y65359D01*
X205873Y65380D01*
X205949Y65391D01*
X206008Y65417D01*
X206070Y65434D01*
X206136Y65475D01*
X206206Y65507D01*
X206255Y65549D01*
X206310Y65583D01*
X206362Y65640D01*
X206420Y65690D01*
X206456Y65744D01*
X206499Y65792D01*
X206532Y65861D01*
X206575Y65926D01*
X206594Y65988D01*
X206622Y66046D01*
X206633Y66115D01*
X206657Y66196D01*
X206658Y66281D01*
X206669Y66350D01*
X206669Y71541D01*
X207182Y71541D01*
X208172Y71276D01*
X209059Y70763D01*
X209783Y70039D01*
X210296Y69152D01*
X210561Y68162D01*
X210561Y68052D01*
X210565Y68021D01*
X210563Y67988D01*
X210585Y67881D01*
X210601Y67773D01*
X210614Y67744D01*
X210620Y67712D01*
X210672Y67616D01*
X210717Y67516D01*
X210738Y67492D01*
X210753Y67463D01*
X210829Y67385D01*
X210900Y67302D01*
X210927Y67284D01*
X210950Y67261D01*
X211045Y67207D01*
X211136Y67148D01*
X211167Y67138D01*
X211195Y67122D01*
X211301Y67097D01*
X211406Y67065D01*
X211438Y67065D01*
X211469Y67057D01*
X211579Y67063D01*
X211688Y67061D01*
X211719Y67070D01*
X211751Y67072D01*
X211854Y67107D01*
X211960Y67137D01*
X211987Y67154D01*
X212018Y67164D01*
X212091Y67217D01*
X212200Y67285D01*
X212232Y67321D01*
X212267Y67346D01*
X214219Y69299D01*
X217880Y69299D01*
X217963Y69274D01*
X218065Y69235D01*
X218097Y69233D01*
X218128Y69223D01*
X218237Y69222D01*
X218346Y69213D01*
X218378Y69220D01*
X218410Y69219D01*
X218515Y69249D01*
X218622Y69271D01*
X218650Y69286D01*
X218682Y69295D01*
X218775Y69352D01*
X218871Y69403D01*
X218894Y69426D01*
X218922Y69443D01*
X218995Y69524D01*
X219073Y69600D01*
X219089Y69628D01*
X219111Y69652D01*
X219158Y69750D01*
X219212Y69845D01*
X219220Y69877D01*
X219234Y69906D01*
X219248Y69995D01*
X219277Y70120D01*
X219275Y70168D01*
X219281Y70210D01*
X219281Y74453D01*
X219268Y74548D01*
X219263Y74644D01*
X219248Y74687D01*
X219241Y74732D01*
X219202Y74819D01*
X219170Y74910D01*
X219145Y74945D01*
X219125Y74989D01*
X219042Y75086D01*
X218989Y75159D01*
X216957Y77191D01*
X216881Y77248D01*
X216809Y77313D01*
X216768Y77333D01*
X216732Y77360D01*
X216642Y77394D01*
X216555Y77436D01*
X216513Y77442D01*
X216468Y77459D01*
X216340Y77469D01*
X216251Y77483D01*
X216066Y77483D01*
X216002Y77474D01*
X215938Y77475D01*
X215863Y77454D01*
X215787Y77443D01*
X215728Y77417D01*
X215666Y77400D01*
X215600Y77359D01*
X215530Y77327D01*
X215481Y77285D01*
X215426Y77252D01*
X215374Y77194D01*
X215316Y77144D01*
X215280Y77090D01*
X215237Y77042D01*
X215204Y76973D01*
X215161Y76908D01*
X215142Y76846D01*
X215114Y76789D01*
X215103Y76719D01*
X215079Y76638D01*
X215078Y76553D01*
X215067Y76484D01*
X215067Y74579D01*
X214471Y73983D01*
X205129Y73983D01*
X204707Y74406D01*
X204655Y74444D01*
X204610Y74490D01*
X204543Y74528D01*
X204481Y74575D01*
X204421Y74597D01*
X204365Y74629D01*
X204290Y74647D01*
X204217Y74674D01*
X204153Y74679D01*
X204091Y74694D01*
X204013Y74690D01*
X203936Y74696D01*
X203873Y74683D01*
X203809Y74680D01*
X203736Y74654D01*
X203660Y74639D01*
X203603Y74608D01*
X203542Y74587D01*
X203486Y74546D01*
X203411Y74506D01*
X203350Y74447D01*
X203293Y74406D01*
X202871Y73983D01*
X193529Y73983D01*
X192933Y74579D01*
X192933Y76484D01*
X192924Y76548D01*
X192925Y76612D01*
X192904Y76687D01*
X192893Y76763D01*
X192867Y76822D01*
X192850Y76884D01*
X192809Y76950D01*
X192777Y77020D01*
X192735Y77069D01*
X192702Y77124D01*
X192644Y77176D01*
X192594Y77234D01*
X192540Y77270D01*
X192492Y77313D01*
X192423Y77346D01*
X192358Y77389D01*
X192296Y77408D01*
X192239Y77436D01*
X192169Y77447D01*
X192088Y77471D01*
X192003Y77472D01*
X191934Y77483D01*
X191341Y77483D01*
X191246Y77470D01*
X191150Y77465D01*
X191106Y77450D01*
X191061Y77443D01*
X190974Y77404D01*
X190883Y77372D01*
X190849Y77347D01*
X190805Y77327D01*
X190707Y77244D01*
X190634Y77191D01*
X186411Y72967D01*
X184316Y72967D01*
X184252Y72958D01*
X184188Y72959D01*
X184113Y72938D01*
X184037Y72927D01*
X183978Y72901D01*
X183916Y72884D01*
X183850Y72843D01*
X183780Y72811D01*
X183731Y72769D01*
X183676Y72736D01*
X183624Y72678D01*
X183566Y72628D01*
X183530Y72574D01*
X183487Y72526D01*
X183454Y72457D01*
X183411Y72392D01*
X183392Y72330D01*
X183364Y72273D01*
X183353Y72203D01*
X183329Y72122D01*
X183328Y72037D01*
X183317Y71968D01*
X183317Y60011D01*
X182181Y58875D01*
X182174Y58872D01*
X182139Y58847D01*
X182095Y58827D01*
X181998Y58744D01*
X181925Y58691D01*
X178461Y55227D01*
X178441Y55201D01*
X178417Y55180D01*
X178357Y55088D01*
X178291Y55001D01*
X178280Y54971D01*
X178262Y54944D01*
X178230Y54839D01*
X178192Y54737D01*
X178189Y54705D01*
X178180Y54674D01*
X178178Y54565D01*
X178170Y54456D01*
X178176Y54424D01*
X178176Y54392D01*
X178205Y54287D01*
X178228Y54180D01*
X178243Y54151D01*
X178251Y54120D01*
X178309Y54027D01*
X178360Y53931D01*
X178382Y53908D01*
X178399Y53880D01*
X178480Y53807D01*
X178557Y53729D01*
X178585Y53713D01*
X178609Y53691D01*
X178707Y53644D01*
X178802Y53590D01*
X178834Y53582D01*
X178862Y53568D01*
X178952Y53554D01*
X179077Y53525D01*
X179125Y53527D01*
X179167Y53521D01*
X180810Y53521D01*
X180874Y53530D01*
G37*
%LPC*%
G36*
X236636Y112369D02*
X236636Y112369D01*
X236040Y112964D01*
X236040Y120918D01*
X236636Y121514D01*
X251702Y121514D01*
X252297Y120918D01*
X252297Y120789D01*
X252302Y120757D01*
X252300Y120725D01*
X252322Y120618D01*
X252337Y120510D01*
X252351Y120481D01*
X252357Y120449D01*
X252408Y120353D01*
X252454Y120253D01*
X252475Y120229D01*
X252490Y120200D01*
X252566Y120122D01*
X252637Y120039D01*
X252664Y120021D01*
X252686Y119998D01*
X252781Y119944D01*
X252873Y119884D01*
X252904Y119875D01*
X252932Y119859D01*
X253038Y119834D01*
X253143Y119802D01*
X253175Y119801D01*
X253206Y119794D01*
X253315Y119800D01*
X253425Y119798D01*
X253456Y119807D01*
X253488Y119808D01*
X253591Y119844D01*
X253696Y119873D01*
X253724Y119890D01*
X253754Y119901D01*
X253827Y119954D01*
X253936Y120022D01*
X253969Y120058D01*
X254003Y120083D01*
X255219Y121299D01*
X258781Y121299D01*
X261299Y118781D01*
X261299Y115219D01*
X258781Y112701D01*
X255219Y112701D01*
X254003Y113917D01*
X253978Y113937D01*
X253957Y113961D01*
X253865Y114021D01*
X253778Y114087D01*
X253748Y114098D01*
X253721Y114116D01*
X253616Y114148D01*
X253514Y114186D01*
X253482Y114189D01*
X253451Y114198D01*
X253342Y114200D01*
X253233Y114208D01*
X253201Y114201D01*
X253169Y114202D01*
X253064Y114173D01*
X252957Y114150D01*
X252928Y114135D01*
X252897Y114127D01*
X252804Y114069D01*
X252708Y114018D01*
X252684Y113995D01*
X252657Y113978D01*
X252584Y113898D01*
X252506Y113821D01*
X252490Y113793D01*
X252468Y113769D01*
X252420Y113671D01*
X252367Y113576D01*
X252359Y113544D01*
X252345Y113515D01*
X252331Y113426D01*
X252302Y113301D01*
X252304Y113253D01*
X252297Y113211D01*
X252297Y112964D01*
X251702Y112369D01*
X236636Y112369D01*
G37*
%LPD*%
%LPC*%
G36*
X236636Y99669D02*
X236636Y99669D01*
X236040Y100264D01*
X236040Y108218D01*
X236636Y108814D01*
X251702Y108814D01*
X252297Y108218D01*
X252297Y107789D01*
X252302Y107757D01*
X252300Y107725D01*
X252322Y107618D01*
X252337Y107510D01*
X252351Y107481D01*
X252357Y107449D01*
X252408Y107353D01*
X252454Y107253D01*
X252475Y107229D01*
X252490Y107200D01*
X252566Y107122D01*
X252637Y107039D01*
X252664Y107021D01*
X252686Y106998D01*
X252781Y106944D01*
X252873Y106884D01*
X252904Y106875D01*
X252932Y106859D01*
X253038Y106834D01*
X253143Y106802D01*
X253175Y106801D01*
X253206Y106794D01*
X253315Y106800D01*
X253425Y106798D01*
X253456Y106807D01*
X253488Y106808D01*
X253591Y106844D01*
X253696Y106873D01*
X253724Y106890D01*
X253754Y106901D01*
X253827Y106954D01*
X253936Y107022D01*
X253969Y107058D01*
X254003Y107083D01*
X255219Y108299D01*
X258781Y108299D01*
X261299Y105781D01*
X261299Y102219D01*
X258781Y99701D01*
X255219Y99701D01*
X254003Y100917D01*
X253978Y100937D01*
X253957Y100961D01*
X253865Y101021D01*
X253778Y101087D01*
X253748Y101098D01*
X253721Y101116D01*
X253616Y101148D01*
X253514Y101186D01*
X253482Y101189D01*
X253451Y101198D01*
X253342Y101200D01*
X253233Y101208D01*
X253201Y101201D01*
X253169Y101202D01*
X253064Y101173D01*
X252957Y101150D01*
X252928Y101135D01*
X252897Y101127D01*
X252804Y101069D01*
X252708Y101018D01*
X252684Y100995D01*
X252657Y100978D01*
X252584Y100898D01*
X252506Y100821D01*
X252490Y100793D01*
X252468Y100769D01*
X252420Y100671D01*
X252367Y100576D01*
X252359Y100544D01*
X252345Y100515D01*
X252331Y100426D01*
X252302Y100301D01*
X252303Y100270D01*
X251702Y99669D01*
X236636Y99669D01*
G37*
%LPD*%
G36*
X173734Y57300D02*
X173734Y57300D01*
X173830Y57305D01*
X173873Y57320D01*
X173918Y57327D01*
X174006Y57366D01*
X174096Y57398D01*
X174131Y57423D01*
X174175Y57443D01*
X174272Y57526D01*
X174345Y57579D01*
X175374Y58607D01*
X175412Y58659D01*
X175458Y58704D01*
X175496Y58771D01*
X175543Y58833D01*
X175566Y58893D01*
X175597Y58949D01*
X175615Y59024D01*
X175642Y59097D01*
X175647Y59161D01*
X175662Y59224D01*
X175658Y59301D01*
X175664Y59378D01*
X175651Y59441D01*
X175648Y59505D01*
X175622Y59578D01*
X175607Y59654D01*
X175576Y59711D01*
X175555Y59772D01*
X175514Y59828D01*
X175474Y59903D01*
X175415Y59964D01*
X175383Y60007D01*
X175383Y71968D01*
X175374Y72032D01*
X175375Y72096D01*
X175354Y72171D01*
X175343Y72247D01*
X175317Y72306D01*
X175300Y72368D01*
X175259Y72434D01*
X175227Y72504D01*
X175185Y72553D01*
X175152Y72608D01*
X175094Y72660D01*
X175044Y72718D01*
X174990Y72754D01*
X174942Y72797D01*
X174873Y72830D01*
X174808Y72873D01*
X174746Y72892D01*
X174689Y72920D01*
X174619Y72931D01*
X174538Y72955D01*
X174453Y72956D01*
X174384Y72967D01*
X165116Y72967D01*
X165052Y72958D01*
X164988Y72959D01*
X164913Y72938D01*
X164837Y72927D01*
X164778Y72901D01*
X164716Y72884D01*
X164650Y72843D01*
X164580Y72811D01*
X164531Y72769D01*
X164476Y72736D01*
X164424Y72678D01*
X164366Y72628D01*
X164330Y72574D01*
X164287Y72526D01*
X164254Y72457D01*
X164211Y72392D01*
X164192Y72330D01*
X164164Y72273D01*
X164153Y72203D01*
X164129Y72122D01*
X164128Y72037D01*
X164117Y71968D01*
X164117Y60011D01*
X163098Y58993D01*
X163079Y58967D01*
X163055Y58946D01*
X162995Y58854D01*
X162929Y58767D01*
X162918Y58737D01*
X162900Y58710D01*
X162868Y58605D01*
X162830Y58503D01*
X162827Y58471D01*
X162818Y58440D01*
X162816Y58331D01*
X162808Y58222D01*
X162814Y58190D01*
X162814Y58158D01*
X162843Y58053D01*
X162865Y57946D01*
X162881Y57917D01*
X162889Y57886D01*
X162947Y57793D01*
X162998Y57697D01*
X163020Y57674D01*
X163037Y57646D01*
X163118Y57573D01*
X163195Y57495D01*
X163223Y57479D01*
X163247Y57457D01*
X163345Y57410D01*
X163440Y57356D01*
X163471Y57348D01*
X163500Y57334D01*
X163590Y57320D01*
X163714Y57291D01*
X163763Y57293D01*
X163805Y57287D01*
X173639Y57287D01*
X173734Y57300D01*
G37*
%LPC*%
G36*
X236636Y86969D02*
X236636Y86969D01*
X236040Y87564D01*
X236040Y95518D01*
X236636Y96114D01*
X251702Y96114D01*
X252297Y95518D01*
X252297Y87564D01*
X251702Y86969D01*
X236636Y86969D01*
G37*
%LPD*%
%LPC*%
G36*
X200049Y102740D02*
X200049Y102740D01*
X199453Y103335D01*
X199453Y109677D01*
X200049Y110273D01*
X212891Y110273D01*
X213486Y109677D01*
X213486Y103110D01*
X213408Y103083D01*
X213302Y103053D01*
X213275Y103036D01*
X213244Y103026D01*
X213171Y102972D01*
X213062Y102905D01*
X213030Y102869D01*
X212995Y102844D01*
X212891Y102740D01*
X200049Y102740D01*
G37*
%LPD*%
%LPC*%
G36*
X179349Y89299D02*
X179349Y89299D01*
X179349Y96041D01*
X181560Y96041D01*
X182521Y95783D01*
X183382Y95286D01*
X184086Y94582D01*
X184583Y93721D01*
X184841Y92760D01*
X184841Y89299D01*
X179349Y89299D01*
G37*
%LPD*%
%LPC*%
G36*
X169859Y89299D02*
X169859Y89299D01*
X169859Y92760D01*
X170117Y93721D01*
X170614Y94582D01*
X171318Y95286D01*
X172179Y95783D01*
X173140Y96041D01*
X175351Y96041D01*
X175351Y89299D01*
X169859Y89299D01*
G37*
%LPD*%
%LPC*%
G36*
X290136Y9969D02*
X290136Y9969D01*
X290136Y17844D01*
X292249Y17844D01*
X292895Y17671D01*
X293475Y17336D01*
X293948Y16863D01*
X294282Y16284D01*
X294455Y15638D01*
X294455Y9969D01*
X290136Y9969D01*
G37*
%LPD*%
%LPC*%
G36*
X358462Y9969D02*
X358462Y9969D01*
X358462Y15638D01*
X358635Y16284D01*
X358970Y16863D01*
X359443Y17336D01*
X360022Y17671D01*
X360668Y17844D01*
X362781Y17844D01*
X362781Y9969D01*
X358462Y9969D01*
G37*
%LPD*%
%LPC*%
G36*
X282262Y9969D02*
X282262Y9969D01*
X282262Y15638D01*
X282435Y16284D01*
X282770Y16863D01*
X283243Y17336D01*
X283822Y17671D01*
X284468Y17844D01*
X286581Y17844D01*
X286581Y9969D01*
X282262Y9969D01*
G37*
%LPD*%
%LPC*%
G36*
X360668Y128509D02*
X360668Y128509D01*
X360022Y128682D01*
X359443Y129016D01*
X358970Y129489D01*
X358635Y130069D01*
X358462Y130715D01*
X358462Y136384D01*
X362781Y136384D01*
X362781Y128509D01*
X360668Y128509D01*
G37*
%LPD*%
%LPC*%
G36*
X165287Y100147D02*
X165287Y100147D01*
X165287Y106188D01*
X170828Y106188D01*
X170828Y102353D01*
X170655Y101707D01*
X170321Y101127D01*
X169848Y100654D01*
X169268Y100320D01*
X168622Y100147D01*
X165287Y100147D01*
G37*
%LPD*%
%LPC*%
G36*
X187305Y132403D02*
X187305Y132403D01*
X187305Y137945D01*
X193347Y137945D01*
X193347Y134609D01*
X193174Y133963D01*
X192839Y133384D01*
X192366Y132911D01*
X191787Y132576D01*
X191141Y132403D01*
X187305Y132403D01*
G37*
%LPD*%
%LPC*%
G36*
X155747Y110187D02*
X155747Y110187D01*
X155747Y114022D01*
X155920Y114668D01*
X156254Y115248D01*
X156727Y115721D01*
X157307Y116055D01*
X157953Y116228D01*
X161288Y116228D01*
X161288Y110187D01*
X155747Y110187D01*
G37*
%LPD*%
%LPC*%
G36*
X179472Y132403D02*
X179472Y132403D01*
X178826Y132576D01*
X178246Y132911D01*
X177773Y133384D01*
X177439Y133963D01*
X177266Y134609D01*
X177266Y137945D01*
X183307Y137945D01*
X183307Y132403D01*
X179472Y132403D01*
G37*
%LPD*%
%LPC*%
G36*
X157953Y100147D02*
X157953Y100147D01*
X157307Y100320D01*
X156727Y100654D01*
X156254Y101127D01*
X155920Y101707D01*
X155747Y102353D01*
X155747Y106188D01*
X161288Y106188D01*
X161288Y100147D01*
X157953Y100147D01*
G37*
%LPD*%
%LPC*%
G36*
X163287Y108187D02*
X163287Y108187D01*
X163287Y108188D01*
X163288Y108188D01*
X163288Y108187D01*
X163287Y108187D01*
G37*
%LPD*%
D10*
X209096Y49504D03*
X204096Y49504D03*
X199096Y49504D03*
X194096Y49504D03*
X189096Y49504D03*
X184096Y49504D03*
X179096Y49504D03*
D11*
X171096Y41504D03*
X171096Y36504D03*
X171096Y31504D03*
X171096Y26504D03*
X171096Y21504D03*
X171096Y16504D03*
X171096Y11504D03*
D10*
X179096Y3504D03*
X184096Y3504D03*
X189096Y3504D03*
X194096Y3504D03*
X199096Y3504D03*
X204096Y3504D03*
X209096Y3504D03*
D11*
X217096Y11504D03*
X217096Y16504D03*
X217096Y21504D03*
X217096Y26504D03*
X217096Y31504D03*
X217096Y36504D03*
X217096Y41504D03*
D12*
X194096Y26504D03*
D13*
X215121Y47529D03*
D14*
X180468Y125506D03*
X180468Y116006D03*
X180468Y106506D03*
X206470Y106506D03*
X206470Y125506D03*
D15*
X163288Y108188D03*
X163288Y125188D03*
D16*
X185306Y139944D03*
X202306Y139944D03*
D17*
X158469Y33026D03*
X158469Y44626D03*
D18*
X262959Y8191D03*
X275659Y8191D03*
X288359Y8191D03*
X301059Y8191D03*
X313759Y8191D03*
X326459Y8191D03*
X339159Y8191D03*
X351859Y8191D03*
D19*
X244169Y28041D03*
X244169Y40741D03*
X244169Y53441D03*
X244169Y66141D03*
X244169Y78841D03*
X244169Y91541D03*
X244169Y104241D03*
D18*
X262959Y138161D03*
X275659Y138161D03*
X288359Y138161D03*
X301059Y138161D03*
X313759Y138161D03*
X326459Y138161D03*
X339159Y138161D03*
X351859Y138161D03*
D19*
X244169Y116941D03*
D18*
X364559Y138161D03*
X364559Y8191D03*
D20*
X173637Y82337D02*
X173637Y92263D01*
X181063Y92263D01*
X181063Y82337D01*
X173637Y82337D01*
X173637Y84688D02*
X181063Y84688D01*
X181063Y87039D02*
X173637Y87039D01*
X173637Y89390D02*
X181063Y89390D01*
X181063Y91741D02*
X173637Y91741D01*
D21*
X157937Y92763D02*
X157937Y81837D01*
X157937Y92763D02*
X162363Y92763D01*
X162363Y81837D01*
X157937Y81837D01*
X157937Y83238D02*
X162363Y83238D01*
X162363Y84639D02*
X157937Y84639D01*
X157937Y86040D02*
X162363Y86040D01*
X162363Y87441D02*
X157937Y87441D01*
X157937Y88842D02*
X162363Y88842D01*
X162363Y90243D02*
X157937Y90243D01*
X157937Y91644D02*
X162363Y91644D01*
X157937Y71663D02*
X157937Y60737D01*
X157937Y71663D02*
X162363Y71663D01*
X162363Y60737D01*
X157937Y60737D01*
X157937Y62138D02*
X162363Y62138D01*
X162363Y63539D02*
X157937Y63539D01*
X157937Y64940D02*
X162363Y64940D01*
X162363Y66341D02*
X157937Y66341D01*
X157937Y67742D02*
X162363Y67742D01*
X162363Y69143D02*
X157937Y69143D01*
X157937Y70544D02*
X162363Y70544D01*
X177137Y71663D02*
X177137Y60737D01*
X177137Y71663D02*
X181563Y71663D01*
X181563Y60737D01*
X177137Y60737D01*
X177137Y62138D02*
X181563Y62138D01*
X181563Y63539D02*
X177137Y63539D01*
X177137Y64940D02*
X181563Y64940D01*
X181563Y66341D02*
X177137Y66341D01*
X177137Y67742D02*
X181563Y67742D01*
X181563Y69143D02*
X177137Y69143D01*
X177137Y70544D02*
X181563Y70544D01*
D22*
X209800Y79500D03*
X198200Y79500D03*
X209800Y93250D03*
X198200Y93250D03*
D23*
X203970Y67650D02*
X206670Y67650D01*
X206670Y64350D01*
X203970Y64350D01*
X203970Y67650D01*
X203970Y66915D02*
X206670Y66915D01*
X198030Y67650D02*
X195330Y67650D01*
X198030Y67650D02*
X198030Y64350D01*
X195330Y64350D01*
X195330Y67650D01*
X195330Y66915D02*
X198030Y66915D01*
X233970Y6650D02*
X236670Y6650D01*
X236670Y3350D01*
X233970Y3350D01*
X233970Y6650D01*
X233970Y5915D02*
X236670Y5915D01*
X228030Y6650D02*
X225330Y6650D01*
X228030Y6650D02*
X228030Y3350D01*
X225330Y3350D01*
X225330Y6650D01*
X225330Y5915D02*
X228030Y5915D01*
D24*
X76500Y35000D03*
D25*
X79675Y62305D03*
X79675Y83895D03*
D24*
X76500Y111200D03*
D26*
X190387Y71350D03*
X260000Y43000D03*
X260000Y55000D03*
X260000Y67000D03*
X365000Y94000D03*
X365000Y83000D03*
X365000Y72000D03*
X365000Y61000D03*
X365000Y50000D03*
X365000Y39000D03*
X260000Y78000D03*
X260000Y90000D03*
D27*
X199096Y49504D02*
X199096Y36000D01*
X199096Y31504D01*
X194096Y26504D01*
X203592Y36000D02*
X215121Y47529D01*
X203592Y36000D02*
X199096Y36000D01*
D26*
X323000Y22000D03*
X168387Y96350D03*
X303422Y21637D03*
X252000Y5000D03*
X217000Y5000D03*
X251000Y139000D03*
X169387Y63350D03*
D28*
X147800Y111200D02*
X76500Y111200D01*
X147800Y111200D02*
X152000Y107000D01*
X162100Y107000D01*
X163288Y108188D01*
D26*
X224000Y112000D03*
X224000Y131000D03*
X235000Y139000D03*
D28*
X180149Y125188D02*
X163288Y125188D01*
X180149Y125188D02*
X180468Y125506D01*
X189494Y125506D01*
X192000Y123000D01*
X192000Y116000D01*
X192000Y109000D01*
X189506Y106506D02*
X180468Y106506D01*
X189506Y106506D02*
X192000Y109000D01*
D27*
X171096Y41504D02*
X168496Y41504D01*
X166000Y44000D01*
X166000Y54000D01*
X179350Y59350D02*
X179350Y66200D01*
X166000Y54000D02*
X165000Y55000D01*
X150000Y55000D01*
X165000Y55000D02*
X175000Y55000D01*
X179350Y59350D01*
D26*
X150000Y55000D03*
D27*
X143000Y35000D02*
X76500Y35000D01*
X143000Y35000D02*
X146000Y38000D01*
X146000Y51000D02*
X150000Y55000D01*
X146000Y51000D02*
X146000Y38000D01*
D26*
X192000Y116000D03*
D29*
X160150Y66200D02*
X159750Y65800D01*
X185575Y74984D02*
X190091Y79500D01*
X198200Y79500D01*
X160000Y74984D02*
X153751Y74984D01*
X160000Y74984D02*
X185575Y74984D01*
X159750Y65800D02*
X159275Y66275D01*
X160000Y67000D01*
X144840Y83895D02*
X79675Y83895D01*
X144840Y83895D02*
X153751Y74984D01*
X160000Y74984D02*
X160000Y67000D01*
X198576Y92874D02*
X199200Y92874D01*
X198576Y92874D02*
X198200Y93250D01*
X199200Y92874D02*
X184326Y78000D01*
X160000Y78000D01*
X155000Y78000D01*
X160150Y78150D02*
X160150Y87300D01*
X160150Y78150D02*
X160000Y78000D01*
X155000Y78000D02*
X151000Y82000D01*
X151000Y87000D01*
D26*
X151000Y87000D03*
D29*
X147305Y62305D02*
X79675Y62305D01*
X147305Y62305D02*
X151000Y66000D01*
D26*
X151000Y66000D03*
D29*
X217096Y31504D02*
X227504Y31504D01*
X230000Y34000D01*
X230000Y77233D01*
X232000Y79233D02*
X232000Y123000D01*
X232000Y79233D02*
X230000Y77233D01*
X232000Y123000D02*
X235000Y126000D01*
X262959Y127959D02*
X262959Y138161D01*
X261000Y126000D02*
X235000Y126000D01*
X261000Y126000D02*
X262959Y127959D01*
X235873Y78841D02*
X233016Y75984D01*
X235873Y78841D02*
X244169Y78841D01*
X233016Y75984D02*
X233016Y31751D01*
X227769Y26504D02*
X217096Y26504D01*
X227769Y26504D02*
X233016Y31751D01*
D28*
X206470Y125506D02*
X206470Y129530D01*
X202306Y133694D02*
X202306Y139944D01*
X202306Y133694D02*
X206470Y129530D01*
X206470Y125506D02*
X207000Y124976D01*
X207000Y117000D01*
D26*
X207000Y117000D03*
X276000Y21000D03*
D28*
X276000Y8533D01*
X275659Y8191D01*
D26*
X172000Y49000D03*
D27*
X179096Y49504D02*
X184096Y49504D01*
X172504Y49504D02*
X172000Y49000D01*
X172504Y49504D02*
X179096Y49504D01*
X184096Y49504D02*
X184096Y53416D01*
X196680Y66000D01*
X158469Y33026D02*
X157016Y31574D01*
X157016Y20196D01*
X163219Y13994D01*
X163391Y13994D01*
D26*
X163391Y13994D03*
D29*
X235320Y5000D02*
X243000Y5000D01*
D26*
X243000Y5000D03*
D29*
X231231Y16504D02*
X217096Y16504D01*
X233751Y13984D02*
X250249Y13984D01*
X296249Y59984D01*
X322249Y59984D01*
X347175Y84909D01*
X347175Y121175D02*
X350000Y124000D01*
X352000Y126000D01*
X352000Y138020D01*
X351859Y138161D01*
X231231Y16504D02*
X233751Y13984D01*
X347175Y84909D02*
X347175Y121175D01*
D26*
X350000Y124000D03*
D29*
X230496Y21504D02*
X217096Y21504D01*
X230496Y21504D02*
X235000Y17000D01*
X249000Y17000D01*
X295000Y63000D02*
X321000Y63000D01*
X295000Y63000D02*
X249000Y17000D01*
X344000Y121000D02*
X341000Y124000D01*
X339000Y126000D01*
X339000Y138003D01*
X339159Y138161D01*
X344000Y86000D02*
X321000Y63000D01*
X344000Y86000D02*
X344000Y121000D01*
D26*
X341000Y124000D03*
D29*
X313759Y120000D02*
X313759Y138161D01*
X313759Y120000D02*
X314000Y120000D01*
D26*
X314000Y120000D03*
D29*
X275659Y126341D02*
X275659Y138161D01*
X275659Y126341D02*
X276000Y126000D01*
D26*
X276000Y126000D03*
D29*
X351859Y20859D02*
X351859Y8191D01*
X351859Y20859D02*
X352000Y21000D01*
D26*
X352000Y21000D03*
D29*
X256941Y116941D02*
X244169Y116941D01*
X256941Y116941D02*
X257000Y117000D01*
D26*
X257000Y117000D03*
D29*
X256759Y104241D02*
X244169Y104241D01*
X256759Y104241D02*
X257000Y104000D01*
D26*
X257000Y104000D03*
D29*
X194096Y53096D02*
X194096Y49504D01*
X194096Y53096D02*
X196000Y55000D01*
X213493Y55000D01*
X221298Y62805D01*
X217500Y79500D02*
X209800Y79500D01*
X221298Y75702D02*
X221298Y62805D01*
X221298Y75702D02*
X217500Y79500D01*
X216000Y65000D02*
X209016Y58016D01*
X216550Y100000D02*
X219000Y100000D01*
X216550Y100000D02*
X209800Y93250D01*
D26*
X219000Y100000D03*
X216000Y65000D03*
D29*
X189096Y52603D02*
X189096Y49504D01*
X189096Y52603D02*
X194509Y58016D01*
X209016Y58016D01*
X171096Y36504D02*
X167008Y36504D01*
X158886Y44626D02*
X158469Y44626D01*
X158886Y44626D02*
X167008Y36504D01*
X165504Y26504D02*
X171096Y26504D01*
X165504Y26504D02*
X163000Y24000D01*
D26*
X163000Y24000D03*
M02*
