G04 EAGLE Gerber RS-274X export*
G75*
%MOMM*%
%FSLAX34Y34*%
%LPD*%
%INBottom Copper*%
%IPPOS*%
%AMOC8*
5,1,8,0,0,1.08239X$1,22.5*%
G01*
%ADD10C,1.000000*%
%ADD11C,0.656400*%
%ADD12C,0.254000*%
%ADD13C,0.406400*%
%ADD14C,0.200000*%

G36*
X306947Y7380D02*
X306947Y7380D01*
X307056Y7391D01*
X307086Y7403D01*
X307118Y7408D01*
X307217Y7455D01*
X307318Y7495D01*
X307343Y7515D01*
X307373Y7529D01*
X307454Y7602D01*
X307540Y7669D01*
X307559Y7695D01*
X307583Y7716D01*
X307630Y7794D01*
X307705Y7897D01*
X307722Y7943D01*
X307744Y7980D01*
X308149Y8958D01*
X309842Y10651D01*
X310616Y10972D01*
X310624Y10976D01*
X310634Y10979D01*
X310747Y11049D01*
X310859Y11115D01*
X310866Y11122D01*
X310874Y11127D01*
X310962Y11225D01*
X311052Y11321D01*
X311056Y11329D01*
X311063Y11336D01*
X311120Y11454D01*
X311180Y11572D01*
X311182Y11582D01*
X311186Y11590D01*
X311198Y11666D01*
X311232Y11849D01*
X311230Y11873D01*
X311233Y11895D01*
X311233Y96501D01*
X311220Y96596D01*
X311215Y96692D01*
X311200Y96735D01*
X311193Y96780D01*
X311154Y96867D01*
X311122Y96958D01*
X311097Y96993D01*
X311077Y97037D01*
X310994Y97134D01*
X310941Y97207D01*
X301457Y106691D01*
X301381Y106748D01*
X301309Y106813D01*
X301268Y106833D01*
X301232Y106860D01*
X301142Y106894D01*
X301055Y106936D01*
X301013Y106942D01*
X300968Y106959D01*
X300840Y106969D01*
X300751Y106983D01*
X264249Y106983D01*
X264154Y106970D01*
X264058Y106965D01*
X264015Y106950D01*
X263970Y106943D01*
X263883Y106904D01*
X263792Y106872D01*
X263757Y106847D01*
X263713Y106827D01*
X263616Y106744D01*
X263543Y106691D01*
X261591Y104739D01*
X261534Y104663D01*
X261469Y104591D01*
X261449Y104550D01*
X261422Y104514D01*
X261388Y104424D01*
X261346Y104337D01*
X261340Y104295D01*
X261323Y104250D01*
X261313Y104122D01*
X261299Y104033D01*
X261299Y102219D01*
X258781Y99701D01*
X255219Y99701D01*
X252701Y102219D01*
X252701Y105781D01*
X255219Y108299D01*
X259033Y108299D01*
X259128Y108312D01*
X259224Y108317D01*
X259267Y108332D01*
X259312Y108339D01*
X259399Y108378D01*
X259490Y108410D01*
X259525Y108435D01*
X259569Y108455D01*
X259666Y108538D01*
X259739Y108591D01*
X260941Y109793D01*
X260980Y109845D01*
X261026Y109890D01*
X261064Y109957D01*
X261111Y110019D01*
X261133Y110079D01*
X261165Y110135D01*
X261183Y110210D01*
X261210Y110283D01*
X261215Y110347D01*
X261230Y110410D01*
X261226Y110487D01*
X261232Y110564D01*
X261219Y110627D01*
X261216Y110691D01*
X261190Y110764D01*
X261174Y110840D01*
X261144Y110897D01*
X261123Y110958D01*
X261082Y111014D01*
X261042Y111089D01*
X260983Y111150D01*
X260941Y111207D01*
X260522Y111626D01*
X259739Y112409D01*
X259663Y112466D01*
X259591Y112531D01*
X259550Y112551D01*
X259514Y112578D01*
X259424Y112612D01*
X259337Y112654D01*
X259295Y112660D01*
X259250Y112677D01*
X259122Y112687D01*
X259033Y112701D01*
X255219Y112701D01*
X252701Y115219D01*
X252701Y118781D01*
X255219Y121299D01*
X258781Y121299D01*
X261299Y118781D01*
X261299Y116967D01*
X261312Y116872D01*
X261317Y116776D01*
X261332Y116733D01*
X261339Y116688D01*
X261378Y116601D01*
X261410Y116510D01*
X261435Y116475D01*
X261455Y116431D01*
X261538Y116334D01*
X261591Y116261D01*
X263374Y114478D01*
X263451Y114421D01*
X263522Y114356D01*
X263563Y114336D01*
X263599Y114309D01*
X263689Y114275D01*
X263776Y114233D01*
X263818Y114227D01*
X263863Y114209D01*
X263991Y114200D01*
X264080Y114186D01*
X303932Y114186D01*
X315559Y102558D01*
X315585Y102539D01*
X315606Y102514D01*
X315698Y102454D01*
X315785Y102389D01*
X315815Y102377D01*
X315842Y102360D01*
X315947Y102328D01*
X316049Y102289D01*
X316081Y102287D01*
X316112Y102277D01*
X316221Y102276D01*
X316330Y102267D01*
X316362Y102274D01*
X316394Y102273D01*
X316499Y102303D01*
X316606Y102325D01*
X316635Y102340D01*
X316666Y102349D01*
X316759Y102406D01*
X316855Y102457D01*
X316878Y102480D01*
X316906Y102497D01*
X316979Y102578D01*
X317057Y102654D01*
X317073Y102682D01*
X317095Y102706D01*
X317142Y102804D01*
X317196Y102900D01*
X317204Y102931D01*
X317218Y102960D01*
X317232Y103049D01*
X317261Y103174D01*
X317259Y103222D01*
X317265Y103265D01*
X317265Y114774D01*
X317261Y114805D01*
X317263Y114838D01*
X317241Y114945D01*
X317225Y115053D01*
X317212Y115082D01*
X317206Y115114D01*
X317154Y115210D01*
X317109Y115310D01*
X317088Y115334D01*
X317073Y115363D01*
X316997Y115441D01*
X316926Y115524D01*
X316899Y115542D01*
X316876Y115565D01*
X316781Y115619D01*
X316690Y115678D01*
X316659Y115688D01*
X316631Y115704D01*
X316525Y115729D01*
X316420Y115761D01*
X316388Y115761D01*
X316356Y115769D01*
X316247Y115763D01*
X316138Y115765D01*
X316107Y115756D01*
X316075Y115754D01*
X315972Y115719D01*
X315909Y115701D01*
X312219Y115701D01*
X309701Y118219D01*
X309701Y121781D01*
X310198Y122277D01*
X310217Y122303D01*
X310242Y122324D01*
X310302Y122416D01*
X310367Y122503D01*
X310379Y122533D01*
X310396Y122560D01*
X310428Y122665D01*
X310467Y122767D01*
X310469Y122799D01*
X310479Y122830D01*
X310480Y122939D01*
X310489Y123048D01*
X310482Y123080D01*
X310483Y123112D01*
X310453Y123217D01*
X310431Y123324D01*
X310416Y123353D01*
X310407Y123384D01*
X310350Y123477D01*
X310299Y123573D01*
X310276Y123596D01*
X310259Y123624D01*
X310178Y123697D01*
X310102Y123775D01*
X310074Y123791D01*
X310050Y123813D01*
X309952Y123860D01*
X309857Y123914D01*
X309825Y123922D01*
X309796Y123936D01*
X309707Y123950D01*
X309582Y123979D01*
X309534Y123977D01*
X309492Y123983D01*
X280477Y123983D01*
X280382Y123970D01*
X280285Y123965D01*
X280242Y123950D01*
X280197Y123943D01*
X280110Y123904D01*
X280019Y123872D01*
X279985Y123847D01*
X279940Y123827D01*
X279843Y123744D01*
X279770Y123691D01*
X277781Y121701D01*
X274219Y121701D01*
X271701Y124219D01*
X271701Y127781D01*
X274219Y130299D01*
X277781Y130299D01*
X279770Y128309D01*
X279847Y128252D01*
X279918Y128187D01*
X279959Y128167D01*
X279996Y128140D01*
X280086Y128106D01*
X280172Y128064D01*
X280214Y128058D01*
X280259Y128041D01*
X280387Y128031D01*
X280477Y128017D01*
X317133Y128017D01*
X324315Y120835D01*
X324315Y36951D01*
X324328Y36856D01*
X324333Y36760D01*
X324348Y36717D01*
X324355Y36672D01*
X324394Y36585D01*
X324426Y36494D01*
X324451Y36459D01*
X324471Y36415D01*
X324554Y36318D01*
X324607Y36245D01*
X326043Y34809D01*
X326119Y34752D01*
X326191Y34687D01*
X326232Y34667D01*
X326268Y34640D01*
X326358Y34606D01*
X326445Y34564D01*
X326487Y34558D01*
X326532Y34541D01*
X326660Y34531D01*
X326749Y34517D01*
X356335Y34517D01*
X364117Y26735D01*
X364117Y12666D01*
X364126Y12602D01*
X364125Y12538D01*
X364146Y12463D01*
X364157Y12387D01*
X364183Y12328D01*
X364200Y12266D01*
X364241Y12200D01*
X364273Y12130D01*
X364315Y12081D01*
X364348Y12026D01*
X364406Y11974D01*
X364456Y11916D01*
X364510Y11880D01*
X364558Y11837D01*
X364627Y11804D01*
X364692Y11761D01*
X364754Y11742D01*
X364811Y11714D01*
X364881Y11703D01*
X364962Y11679D01*
X365047Y11678D01*
X365116Y11667D01*
X365297Y11667D01*
X367508Y10751D01*
X367531Y10728D01*
X367557Y10708D01*
X367578Y10684D01*
X367670Y10624D01*
X367757Y10558D01*
X367787Y10547D01*
X367814Y10529D01*
X367919Y10497D01*
X368021Y10459D01*
X368053Y10456D01*
X368084Y10447D01*
X368193Y10445D01*
X368302Y10437D01*
X368334Y10443D01*
X368366Y10443D01*
X368471Y10472D01*
X368578Y10494D01*
X368607Y10510D01*
X368638Y10518D01*
X368731Y10576D01*
X368827Y10627D01*
X368850Y10649D01*
X368878Y10666D01*
X368951Y10747D01*
X369029Y10824D01*
X369045Y10852D01*
X369067Y10876D01*
X369114Y10974D01*
X369168Y11069D01*
X369176Y11100D01*
X369190Y11129D01*
X369204Y11219D01*
X369233Y11343D01*
X369231Y11392D01*
X369237Y11434D01*
X369237Y145238D01*
X369228Y145302D01*
X369229Y145366D01*
X369208Y145441D01*
X369197Y145517D01*
X369171Y145576D01*
X369154Y145638D01*
X369113Y145704D01*
X369081Y145774D01*
X369039Y145823D01*
X369006Y145878D01*
X368948Y145930D01*
X368898Y145988D01*
X368844Y146024D01*
X368796Y146067D01*
X368727Y146100D01*
X368662Y146143D01*
X368600Y146162D01*
X368543Y146190D01*
X368473Y146201D01*
X368392Y146225D01*
X368307Y146226D01*
X368238Y146237D01*
X248254Y146237D01*
X248223Y146233D01*
X248190Y146235D01*
X248083Y146213D01*
X247975Y146197D01*
X247946Y146184D01*
X247914Y146178D01*
X247818Y146126D01*
X247718Y146081D01*
X247694Y146060D01*
X247665Y146045D01*
X247587Y145969D01*
X247504Y145898D01*
X247486Y145871D01*
X247463Y145848D01*
X247409Y145753D01*
X247350Y145662D01*
X247340Y145631D01*
X247324Y145603D01*
X247299Y145497D01*
X247267Y145392D01*
X247267Y145360D01*
X247259Y145329D01*
X247265Y145219D01*
X247263Y145110D01*
X247272Y145079D01*
X247274Y145047D01*
X247309Y144944D01*
X247339Y144838D01*
X247356Y144811D01*
X247366Y144780D01*
X247419Y144707D01*
X247487Y144598D01*
X247523Y144566D01*
X247548Y144531D01*
X248770Y143309D01*
X248847Y143252D01*
X248918Y143187D01*
X248959Y143167D01*
X248996Y143140D01*
X249086Y143106D01*
X249172Y143064D01*
X249214Y143058D01*
X249259Y143041D01*
X249387Y143031D01*
X249477Y143017D01*
X249835Y143017D01*
X251309Y141543D01*
X252543Y140309D01*
X252620Y140252D01*
X252691Y140187D01*
X252732Y140167D01*
X252768Y140140D01*
X252858Y140106D01*
X252945Y140064D01*
X252987Y140058D01*
X253032Y140041D01*
X253160Y140031D01*
X253249Y140017D01*
X339835Y140017D01*
X351261Y128591D01*
X351337Y128534D01*
X351409Y128469D01*
X351450Y128449D01*
X351486Y128422D01*
X351576Y128388D01*
X351663Y128346D01*
X351705Y128340D01*
X351750Y128323D01*
X351757Y128322D01*
X354299Y125781D01*
X354299Y122219D01*
X351781Y119701D01*
X348219Y119701D01*
X346207Y121714D01*
X346155Y121753D01*
X346110Y121799D01*
X346043Y121837D01*
X345981Y121883D01*
X345921Y121906D01*
X345865Y121938D01*
X345790Y121956D01*
X345717Y121983D01*
X345653Y121988D01*
X345590Y122003D01*
X345513Y121999D01*
X345436Y122005D01*
X345373Y121992D01*
X345309Y121988D01*
X345236Y121963D01*
X345160Y121947D01*
X345103Y121917D01*
X345042Y121896D01*
X344986Y121854D01*
X344911Y121815D01*
X344850Y121755D01*
X344793Y121714D01*
X342781Y119701D01*
X339219Y119701D01*
X336701Y122219D01*
X336701Y125781D01*
X338691Y127770D01*
X338748Y127847D01*
X338813Y127918D01*
X338833Y127959D01*
X338860Y127995D01*
X338894Y128085D01*
X338936Y128172D01*
X338942Y128214D01*
X338959Y128259D01*
X338969Y128387D01*
X338983Y128476D01*
X338983Y129751D01*
X338970Y129846D01*
X338965Y129942D01*
X338950Y129985D01*
X338943Y130030D01*
X338904Y130117D01*
X338872Y130208D01*
X338847Y130243D01*
X338827Y130287D01*
X338744Y130384D01*
X338691Y130457D01*
X336473Y132675D01*
X336397Y132732D01*
X336325Y132797D01*
X336284Y132817D01*
X336248Y132844D01*
X336158Y132878D01*
X336071Y132920D01*
X336029Y132926D01*
X335984Y132943D01*
X335856Y132953D01*
X335767Y132967D01*
X253233Y132967D01*
X253138Y132954D01*
X253042Y132949D01*
X252999Y132934D01*
X252954Y132927D01*
X252867Y132888D01*
X252776Y132856D01*
X252741Y132831D01*
X252697Y132811D01*
X252600Y132728D01*
X252527Y132675D01*
X249835Y129983D01*
X249477Y129983D01*
X249382Y129970D01*
X249285Y129965D01*
X249242Y129950D01*
X249197Y129943D01*
X249110Y129904D01*
X249019Y129872D01*
X248985Y129847D01*
X248940Y129827D01*
X248843Y129744D01*
X248770Y129691D01*
X246781Y127701D01*
X243219Y127701D01*
X240701Y130219D01*
X240701Y133781D01*
X242714Y135793D01*
X242753Y135845D01*
X242799Y135890D01*
X242837Y135957D01*
X242883Y136019D01*
X242906Y136079D01*
X242938Y136135D01*
X242956Y136210D01*
X242983Y136283D01*
X242988Y136347D01*
X243003Y136409D01*
X242999Y136487D01*
X243005Y136564D01*
X242992Y136627D01*
X242988Y136691D01*
X242963Y136764D01*
X242947Y136840D01*
X242917Y136897D01*
X242896Y136958D01*
X242854Y137014D01*
X242815Y137089D01*
X242755Y137150D01*
X242714Y137207D01*
X240701Y139219D01*
X240701Y142781D01*
X242452Y144531D01*
X242471Y144557D01*
X242496Y144578D01*
X242556Y144670D01*
X242621Y144757D01*
X242633Y144787D01*
X242650Y144814D01*
X242682Y144919D01*
X242721Y145021D01*
X242723Y145053D01*
X242733Y145084D01*
X242734Y145193D01*
X242743Y145302D01*
X242736Y145334D01*
X242737Y145366D01*
X242707Y145471D01*
X242685Y145578D01*
X242670Y145607D01*
X242661Y145638D01*
X242604Y145731D01*
X242553Y145827D01*
X242530Y145850D01*
X242513Y145878D01*
X242432Y145951D01*
X242356Y146029D01*
X242328Y146045D01*
X242304Y146067D01*
X242206Y146114D01*
X242111Y146168D01*
X242079Y146176D01*
X242050Y146190D01*
X241961Y146204D01*
X241836Y146233D01*
X241788Y146231D01*
X241746Y146237D01*
X159762Y146237D01*
X159698Y146228D01*
X159634Y146229D01*
X159559Y146208D01*
X159483Y146197D01*
X159424Y146171D01*
X159362Y146154D01*
X159296Y146113D01*
X159226Y146081D01*
X159177Y146039D01*
X159122Y146006D01*
X159070Y145948D01*
X159012Y145898D01*
X158976Y145844D01*
X158933Y145796D01*
X158900Y145727D01*
X158857Y145662D01*
X158838Y145600D01*
X158810Y145543D01*
X158799Y145473D01*
X158775Y145392D01*
X158774Y145307D01*
X158770Y145286D01*
X155906Y138372D01*
X153912Y136378D01*
X153871Y136323D01*
X153868Y136321D01*
X153861Y136310D01*
X153855Y136301D01*
X153790Y136229D01*
X153770Y136189D01*
X153743Y136152D01*
X153722Y136098D01*
X153714Y136085D01*
X153704Y136051D01*
X153667Y135976D01*
X153661Y135934D01*
X153643Y135888D01*
X153640Y135842D01*
X153631Y135815D01*
X153631Y135742D01*
X153620Y135671D01*
X153620Y36266D01*
X153624Y36234D01*
X153622Y36202D01*
X153644Y36095D01*
X153659Y35987D01*
X153673Y35957D01*
X153679Y35926D01*
X153731Y35829D01*
X153776Y35730D01*
X153796Y35705D01*
X153812Y35677D01*
X153888Y35598D01*
X153959Y35515D01*
X153986Y35498D01*
X154008Y35475D01*
X154103Y35421D01*
X154195Y35361D01*
X154226Y35351D01*
X154254Y35336D01*
X154360Y35310D01*
X154465Y35279D01*
X154497Y35278D01*
X154528Y35271D01*
X154638Y35276D01*
X154747Y35275D01*
X154778Y35283D01*
X154810Y35285D01*
X154913Y35321D01*
X155018Y35350D01*
X155046Y35367D01*
X155076Y35378D01*
X155149Y35431D01*
X155258Y35498D01*
X155291Y35534D01*
X155325Y35559D01*
X167409Y47643D01*
X167466Y47719D01*
X167531Y47791D01*
X167551Y47832D01*
X167578Y47868D01*
X167612Y47958D01*
X167654Y48045D01*
X167660Y48087D01*
X167677Y48132D01*
X167687Y48260D01*
X167701Y48349D01*
X167701Y50781D01*
X169214Y52293D01*
X169253Y52345D01*
X169299Y52390D01*
X169337Y52457D01*
X169383Y52519D01*
X169406Y52579D01*
X169438Y52635D01*
X169456Y52710D01*
X169483Y52783D01*
X169488Y52847D01*
X169503Y52910D01*
X169499Y52987D01*
X169505Y53064D01*
X169492Y53127D01*
X169488Y53191D01*
X169463Y53264D01*
X169447Y53340D01*
X169417Y53397D01*
X169396Y53458D01*
X169354Y53514D01*
X169315Y53589D01*
X169255Y53650D01*
X169214Y53707D01*
X166701Y56219D01*
X166701Y59781D01*
X169219Y62299D01*
X171651Y62299D01*
X171746Y62312D01*
X171842Y62317D01*
X171885Y62332D01*
X171930Y62339D01*
X172018Y62378D01*
X172108Y62410D01*
X172143Y62435D01*
X172187Y62455D01*
X172284Y62538D01*
X172357Y62591D01*
X178421Y68655D01*
X178478Y68731D01*
X178543Y68803D01*
X178563Y68844D01*
X178590Y68880D01*
X178624Y68970D01*
X178666Y69057D01*
X178672Y69099D01*
X178689Y69144D01*
X178699Y69272D01*
X178713Y69361D01*
X178713Y87714D01*
X178704Y87776D01*
X178705Y87825D01*
X178705Y87842D01*
X178684Y87917D01*
X178673Y87993D01*
X178647Y88052D01*
X178630Y88114D01*
X178589Y88180D01*
X178557Y88250D01*
X178515Y88299D01*
X178482Y88354D01*
X178424Y88406D01*
X178374Y88464D01*
X178320Y88500D01*
X178272Y88543D01*
X178203Y88576D01*
X178138Y88619D01*
X178076Y88638D01*
X178019Y88666D01*
X177949Y88677D01*
X177868Y88701D01*
X177783Y88702D01*
X177714Y88713D01*
X175207Y88713D01*
X175112Y88700D01*
X175015Y88695D01*
X174972Y88680D01*
X174927Y88673D01*
X174840Y88634D01*
X174749Y88602D01*
X174715Y88577D01*
X174670Y88557D01*
X174573Y88474D01*
X174500Y88421D01*
X172781Y86701D01*
X169219Y86701D01*
X166701Y89219D01*
X166701Y92781D01*
X169219Y95299D01*
X172781Y95299D01*
X174500Y93579D01*
X174577Y93522D01*
X174648Y93457D01*
X174689Y93437D01*
X174726Y93410D01*
X174816Y93376D01*
X174902Y93334D01*
X174944Y93328D01*
X174989Y93311D01*
X175117Y93301D01*
X175207Y93287D01*
X177714Y93287D01*
X177778Y93296D01*
X177842Y93295D01*
X177917Y93316D01*
X177993Y93327D01*
X178052Y93353D01*
X178114Y93370D01*
X178180Y93411D01*
X178250Y93443D01*
X178299Y93485D01*
X178354Y93518D01*
X178406Y93576D01*
X178464Y93626D01*
X178500Y93680D01*
X178543Y93728D01*
X178576Y93797D01*
X178619Y93862D01*
X178638Y93924D01*
X178666Y93981D01*
X178677Y94051D01*
X178701Y94132D01*
X178702Y94217D01*
X178713Y94286D01*
X178713Y108947D01*
X188109Y118343D01*
X188160Y118366D01*
X188251Y118398D01*
X188286Y118423D01*
X188330Y118443D01*
X188427Y118526D01*
X188500Y118579D01*
X190219Y120299D01*
X193781Y120299D01*
X196299Y117781D01*
X196299Y114219D01*
X193781Y111701D01*
X190219Y111701D01*
X189784Y112137D01*
X189732Y112175D01*
X189688Y112221D01*
X189620Y112260D01*
X189558Y112306D01*
X189498Y112329D01*
X189442Y112360D01*
X189367Y112378D01*
X189294Y112406D01*
X189230Y112411D01*
X189168Y112425D01*
X189090Y112421D01*
X189013Y112427D01*
X188950Y112414D01*
X188886Y112411D01*
X188813Y112386D01*
X188737Y112370D01*
X188680Y112340D01*
X188620Y112319D01*
X188563Y112277D01*
X188488Y112237D01*
X188427Y112178D01*
X188371Y112137D01*
X183579Y107345D01*
X183522Y107269D01*
X183457Y107197D01*
X183437Y107156D01*
X183410Y107120D01*
X183376Y107030D01*
X183334Y106943D01*
X183328Y106901D01*
X183311Y106856D01*
X183301Y106728D01*
X183287Y106639D01*
X183287Y67053D01*
X175591Y59357D01*
X175534Y59281D01*
X175469Y59209D01*
X175449Y59168D01*
X175422Y59132D01*
X175388Y59042D01*
X175346Y58955D01*
X175340Y58913D01*
X175323Y58868D01*
X175313Y58740D01*
X175299Y58651D01*
X175299Y58023D01*
X175303Y57991D01*
X175301Y57959D01*
X175323Y57852D01*
X175339Y57743D01*
X175352Y57714D01*
X175358Y57683D01*
X175410Y57586D01*
X175455Y57487D01*
X175476Y57462D01*
X175491Y57434D01*
X175567Y57355D01*
X175638Y57272D01*
X175665Y57255D01*
X175688Y57231D01*
X175783Y57178D01*
X175874Y57118D01*
X175905Y57108D01*
X175933Y57092D01*
X176039Y57067D01*
X176144Y57035D01*
X176176Y57035D01*
X176207Y57028D01*
X176317Y57033D01*
X176426Y57032D01*
X176457Y57040D01*
X176489Y57042D01*
X176592Y57078D01*
X176698Y57107D01*
X176725Y57124D01*
X176756Y57134D01*
X176829Y57188D01*
X176938Y57255D01*
X176970Y57291D01*
X177005Y57316D01*
X179737Y60049D01*
X202952Y60049D01*
X203016Y60058D01*
X203080Y60057D01*
X203155Y60078D01*
X203231Y60089D01*
X203290Y60115D01*
X203352Y60132D01*
X203418Y60173D01*
X203488Y60205D01*
X203537Y60247D01*
X203592Y60280D01*
X203644Y60338D01*
X203702Y60388D01*
X203738Y60442D01*
X203781Y60490D01*
X203814Y60559D01*
X203857Y60624D01*
X203876Y60686D01*
X203904Y60743D01*
X203915Y60813D01*
X203939Y60894D01*
X203940Y60979D01*
X203951Y61048D01*
X203951Y113555D01*
X203938Y113650D01*
X203933Y113747D01*
X203918Y113790D01*
X203911Y113835D01*
X203872Y113922D01*
X203840Y114013D01*
X203815Y114047D01*
X203795Y114092D01*
X203712Y114189D01*
X203659Y114262D01*
X202701Y115219D01*
X202701Y118781D01*
X205219Y121299D01*
X208781Y121299D01*
X211299Y118781D01*
X211299Y115219D01*
X210341Y114262D01*
X210284Y114185D01*
X210219Y114114D01*
X210199Y114073D01*
X210172Y114036D01*
X210138Y113946D01*
X210096Y113860D01*
X210090Y113818D01*
X210073Y113773D01*
X210063Y113645D01*
X210049Y113555D01*
X210049Y58977D01*
X210062Y58882D01*
X210067Y58786D01*
X210082Y58742D01*
X210089Y58698D01*
X210128Y58610D01*
X210160Y58519D01*
X210185Y58485D01*
X210205Y58441D01*
X210288Y58343D01*
X210341Y58270D01*
X244170Y24441D01*
X244247Y24384D01*
X244318Y24319D01*
X244359Y24299D01*
X244396Y24272D01*
X244486Y24238D01*
X244572Y24196D01*
X244614Y24190D01*
X244660Y24173D01*
X244787Y24163D01*
X244877Y24149D01*
X272655Y24149D01*
X272750Y24162D01*
X272847Y24167D01*
X272890Y24182D01*
X272935Y24189D01*
X273022Y24228D01*
X273113Y24260D01*
X273147Y24285D01*
X273192Y24305D01*
X273289Y24388D01*
X273362Y24441D01*
X274219Y25299D01*
X277781Y25299D01*
X278738Y24341D01*
X278815Y24284D01*
X278886Y24219D01*
X278927Y24199D01*
X278964Y24172D01*
X279054Y24138D01*
X279140Y24096D01*
X279182Y24090D01*
X279227Y24073D01*
X279355Y24063D01*
X279445Y24049D01*
X292263Y24049D01*
X303399Y12913D01*
X303399Y11524D01*
X303412Y11429D01*
X303417Y11333D01*
X303432Y11290D01*
X303439Y11245D01*
X303478Y11157D01*
X303510Y11066D01*
X303535Y11032D01*
X303555Y10988D01*
X303638Y10891D01*
X303691Y10817D01*
X305451Y9058D01*
X305898Y7980D01*
X305914Y7952D01*
X305924Y7921D01*
X305986Y7831D01*
X306041Y7737D01*
X306065Y7715D01*
X306083Y7688D01*
X306167Y7619D01*
X306247Y7544D01*
X306276Y7529D01*
X306300Y7509D01*
X306401Y7466D01*
X306498Y7416D01*
X306530Y7410D01*
X306560Y7397D01*
X306668Y7384D01*
X306775Y7364D01*
X306808Y7367D01*
X306839Y7363D01*
X306947Y7380D01*
G37*
G36*
X280920Y-227D02*
X280920Y-227D01*
X280995Y-226D01*
X281059Y-207D01*
X281124Y-197D01*
X281193Y-166D01*
X281265Y-145D01*
X281321Y-109D01*
X281381Y-81D01*
X281439Y-32D01*
X281502Y9D01*
X281545Y59D01*
X281596Y102D01*
X281637Y165D01*
X281686Y223D01*
X281714Y283D01*
X281750Y338D01*
X281772Y410D01*
X281803Y479D01*
X281813Y545D01*
X281832Y608D01*
X281833Y683D01*
X281844Y758D01*
X281835Y824D01*
X281836Y890D01*
X281816Y963D01*
X281806Y1037D01*
X281780Y1093D01*
X281761Y1162D01*
X281709Y1246D01*
X281676Y1317D01*
X281167Y2078D01*
X280599Y3451D01*
X280559Y3651D01*
X286850Y3651D01*
X286914Y3660D01*
X286978Y3659D01*
X287052Y3680D01*
X287129Y3691D01*
X287188Y3717D01*
X287250Y3734D01*
X287316Y3775D01*
X287386Y3807D01*
X287435Y3849D01*
X287490Y3882D01*
X287541Y3940D01*
X287600Y3990D01*
X287636Y4044D01*
X287679Y4092D01*
X287712Y4161D01*
X287755Y4226D01*
X287774Y4288D01*
X287802Y4345D01*
X287812Y4415D01*
X287837Y4496D01*
X287838Y4581D01*
X287849Y4650D01*
X287849Y5651D01*
X288850Y5651D01*
X288914Y5660D01*
X288978Y5659D01*
X289053Y5680D01*
X289129Y5691D01*
X289188Y5717D01*
X289250Y5734D01*
X289316Y5775D01*
X289386Y5807D01*
X289435Y5849D01*
X289490Y5882D01*
X289542Y5940D01*
X289600Y5990D01*
X289636Y6044D01*
X289679Y6092D01*
X289712Y6161D01*
X289755Y6226D01*
X289774Y6288D01*
X289802Y6346D01*
X289812Y6415D01*
X289837Y6496D01*
X289838Y6581D01*
X289849Y6650D01*
X289849Y12941D01*
X290050Y12901D01*
X291422Y12333D01*
X292657Y11507D01*
X293707Y10457D01*
X294209Y9706D01*
X294223Y9691D01*
X294232Y9673D01*
X294317Y9586D01*
X294397Y9496D01*
X294415Y9485D01*
X294429Y9470D01*
X294534Y9411D01*
X294636Y9347D01*
X294656Y9342D01*
X294675Y9331D01*
X294792Y9304D01*
X294908Y9271D01*
X294929Y9271D01*
X294949Y9266D01*
X295070Y9273D01*
X295190Y9274D01*
X295210Y9280D01*
X295231Y9281D01*
X295345Y9320D01*
X295460Y9355D01*
X295477Y9366D01*
X295497Y9373D01*
X295571Y9427D01*
X295696Y9509D01*
X295720Y9536D01*
X295746Y9555D01*
X296233Y10042D01*
X296272Y10093D01*
X296318Y10138D01*
X296356Y10206D01*
X296402Y10268D01*
X296425Y10328D01*
X296457Y10384D01*
X296475Y10459D01*
X296502Y10532D01*
X296507Y10595D01*
X296522Y10658D01*
X296518Y10736D01*
X296524Y10813D01*
X296512Y10871D01*
X296512Y10882D01*
X296510Y10889D01*
X296507Y10940D01*
X296482Y11013D01*
X296466Y11089D01*
X296442Y11134D01*
X296437Y11154D01*
X296428Y11168D01*
X296415Y11206D01*
X296374Y11263D01*
X296334Y11338D01*
X296305Y11367D01*
X296288Y11394D01*
X296257Y11423D01*
X296233Y11455D01*
X290030Y17659D01*
X289953Y17716D01*
X289882Y17781D01*
X289841Y17801D01*
X289804Y17828D01*
X289714Y17862D01*
X289628Y17904D01*
X289586Y17910D01*
X289540Y17927D01*
X289413Y17937D01*
X289323Y17951D01*
X279445Y17951D01*
X279350Y17938D01*
X279253Y17933D01*
X279210Y17918D01*
X279165Y17911D01*
X279078Y17872D01*
X278987Y17840D01*
X278953Y17815D01*
X278908Y17795D01*
X278811Y17712D01*
X278738Y17659D01*
X277781Y16701D01*
X274219Y16701D01*
X273162Y17759D01*
X273085Y17816D01*
X273014Y17881D01*
X272973Y17901D01*
X272936Y17928D01*
X272846Y17962D01*
X272760Y18004D01*
X272718Y18010D01*
X272673Y18027D01*
X272545Y18037D01*
X272455Y18051D01*
X241937Y18051D01*
X206330Y53659D01*
X206253Y53716D01*
X206182Y53781D01*
X206141Y53801D01*
X206104Y53828D01*
X206014Y53862D01*
X205928Y53904D01*
X205886Y53910D01*
X205840Y53927D01*
X205713Y53937D01*
X205623Y53951D01*
X182677Y53951D01*
X182582Y53938D01*
X182486Y53933D01*
X182442Y53918D01*
X182398Y53911D01*
X182310Y53872D01*
X182219Y53840D01*
X182185Y53815D01*
X182141Y53795D01*
X182043Y53712D01*
X181970Y53659D01*
X176591Y48280D01*
X176534Y48203D01*
X176469Y48132D01*
X176449Y48091D01*
X176422Y48054D01*
X176388Y47964D01*
X176346Y47878D01*
X176340Y47836D01*
X176323Y47790D01*
X176313Y47663D01*
X176299Y47573D01*
X176299Y47219D01*
X173781Y44701D01*
X171349Y44701D01*
X171254Y44688D01*
X171158Y44683D01*
X171115Y44668D01*
X171070Y44661D01*
X170982Y44622D01*
X170892Y44590D01*
X170857Y44565D01*
X170813Y44545D01*
X170716Y44462D01*
X170643Y44409D01*
X159011Y32777D01*
X158954Y32701D01*
X158889Y32629D01*
X158869Y32588D01*
X158842Y32552D01*
X158808Y32462D01*
X158766Y32375D01*
X158760Y32333D01*
X158743Y32288D01*
X158733Y32160D01*
X158719Y32071D01*
X158719Y23210D01*
X158723Y23178D01*
X158721Y23146D01*
X158743Y23039D01*
X158759Y22931D01*
X158772Y22902D01*
X158778Y22870D01*
X158830Y22774D01*
X158875Y22674D01*
X158896Y22650D01*
X158911Y22621D01*
X158987Y22543D01*
X159058Y22460D01*
X159085Y22442D01*
X159108Y22419D01*
X159203Y22365D01*
X159294Y22306D01*
X159325Y22296D01*
X159353Y22280D01*
X159460Y22255D01*
X159564Y22223D01*
X159596Y22223D01*
X159628Y22215D01*
X159737Y22221D01*
X159846Y22219D01*
X159877Y22228D01*
X159909Y22230D01*
X160012Y22265D01*
X160118Y22295D01*
X160124Y22299D01*
X163781Y22299D01*
X165770Y20309D01*
X165847Y20252D01*
X165918Y20187D01*
X165959Y20167D01*
X165996Y20140D01*
X166086Y20106D01*
X166172Y20064D01*
X166214Y20058D01*
X166259Y20041D01*
X166387Y20031D01*
X166477Y20017D01*
X221835Y20017D01*
X231543Y10309D01*
X231619Y10252D01*
X231691Y10187D01*
X231732Y10167D01*
X231768Y10140D01*
X231858Y10106D01*
X231945Y10064D01*
X231987Y10058D01*
X232032Y10041D01*
X232160Y10031D01*
X232249Y10017D01*
X245523Y10017D01*
X245618Y10030D01*
X245715Y10035D01*
X245758Y10050D01*
X245803Y10057D01*
X245890Y10096D01*
X245981Y10128D01*
X246015Y10153D01*
X246060Y10173D01*
X246157Y10256D01*
X246230Y10309D01*
X248219Y12299D01*
X251781Y12299D01*
X254299Y9781D01*
X254299Y6219D01*
X251781Y3701D01*
X248219Y3701D01*
X246230Y5691D01*
X246153Y5748D01*
X246082Y5813D01*
X246041Y5833D01*
X246004Y5860D01*
X245914Y5894D01*
X245828Y5936D01*
X245786Y5942D01*
X245741Y5959D01*
X245613Y5969D01*
X245523Y5983D01*
X230165Y5983D01*
X220457Y15691D01*
X220381Y15748D01*
X220309Y15813D01*
X220268Y15833D01*
X220232Y15860D01*
X220142Y15894D01*
X220055Y15936D01*
X220013Y15942D01*
X219968Y15959D01*
X219840Y15969D01*
X219751Y15983D01*
X166477Y15983D01*
X166382Y15970D01*
X166285Y15965D01*
X166242Y15950D01*
X166197Y15943D01*
X166110Y15904D01*
X166019Y15872D01*
X165985Y15847D01*
X165940Y15827D01*
X165843Y15744D01*
X165770Y15691D01*
X163786Y13707D01*
X163747Y13655D01*
X163701Y13610D01*
X163663Y13543D01*
X163617Y13481D01*
X163594Y13421D01*
X163562Y13365D01*
X163544Y13290D01*
X163517Y13217D01*
X163512Y13153D01*
X163497Y13091D01*
X163501Y13013D01*
X163495Y12936D01*
X163508Y12873D01*
X163512Y12809D01*
X163537Y12736D01*
X163553Y12660D01*
X163583Y12603D01*
X163604Y12542D01*
X163646Y12486D01*
X163685Y12411D01*
X163745Y12350D01*
X163786Y12293D01*
X165299Y10781D01*
X165299Y7219D01*
X162781Y4701D01*
X159219Y4701D01*
X159185Y4735D01*
X159116Y4787D01*
X159053Y4847D01*
X159004Y4872D01*
X158960Y4905D01*
X158879Y4935D01*
X158801Y4975D01*
X158747Y4985D01*
X158696Y5004D01*
X158609Y5011D01*
X158524Y5027D01*
X158469Y5022D01*
X158415Y5026D01*
X158330Y5008D01*
X158243Y5000D01*
X158192Y4980D01*
X158139Y4968D01*
X158062Y4927D01*
X157981Y4895D01*
X157938Y4862D01*
X157890Y4836D01*
X157828Y4775D01*
X157759Y4722D01*
X157727Y4677D01*
X157688Y4639D01*
X157645Y4564D01*
X157594Y4493D01*
X157576Y4441D01*
X157549Y4394D01*
X157529Y4309D01*
X157500Y4227D01*
X157496Y4173D01*
X157484Y4119D01*
X157488Y4033D01*
X157483Y3946D01*
X157495Y3896D01*
X157498Y3838D01*
X157535Y3730D01*
X157556Y3646D01*
X158769Y716D01*
X158772Y698D01*
X158771Y634D01*
X158778Y608D01*
X158792Y559D01*
X158803Y483D01*
X158829Y424D01*
X158846Y362D01*
X158887Y296D01*
X158919Y226D01*
X158961Y177D01*
X158994Y122D01*
X159052Y70D01*
X159102Y12D01*
X159156Y-24D01*
X159204Y-67D01*
X159273Y-100D01*
X159338Y-143D01*
X159400Y-162D01*
X159457Y-190D01*
X159527Y-201D01*
X159608Y-225D01*
X159693Y-226D01*
X159762Y-237D01*
X280845Y-237D01*
X280920Y-227D01*
G37*
%LPC*%
G36*
X280559Y7649D02*
X280559Y7649D01*
X280599Y7850D01*
X281167Y9222D01*
X281993Y10457D01*
X283043Y11507D01*
X284278Y12333D01*
X285650Y12901D01*
X285851Y12941D01*
X285851Y7649D01*
X280559Y7649D01*
G37*
%LPD*%
D10*
X287850Y5650D03*
X300350Y5650D03*
X313250Y5550D03*
X325950Y5650D03*
X338650Y5750D03*
X351300Y5650D03*
X364100Y5650D03*
D11*
X190387Y71350D03*
X259900Y43600D03*
X259600Y54900D03*
X260000Y67000D03*
X365000Y94000D03*
X365000Y83000D03*
X365000Y72000D03*
X365000Y61000D03*
X365000Y50000D03*
X365000Y39000D03*
X260000Y78000D03*
X260000Y90000D03*
X221000Y56600D03*
X216400Y4400D03*
X188500Y98600D03*
X173700Y98600D03*
X224000Y68400D03*
X159000Y51400D03*
X192000Y116000D03*
D12*
X181000Y91000D02*
X181000Y68000D01*
X181000Y91000D02*
X181000Y108000D01*
X189000Y116000D01*
X192000Y116000D01*
D11*
X171000Y91000D03*
D12*
X181000Y91000D01*
X181000Y68000D02*
X171000Y58000D01*
D11*
X171000Y58000D03*
X207000Y117000D03*
X276000Y21000D03*
D13*
X207000Y57300D02*
X207000Y117000D01*
X207000Y57300D02*
X207000Y57000D01*
X275900Y21100D02*
X276000Y21000D01*
X275900Y21100D02*
X243200Y21100D01*
X207000Y57300D01*
X276000Y21000D02*
X291000Y21000D01*
X300350Y11650D02*
X300350Y5650D01*
X300350Y11650D02*
X291000Y21000D01*
D11*
X172000Y49000D03*
D13*
X181000Y57000D02*
X207000Y57000D01*
X181000Y57000D02*
X173000Y49000D01*
X172000Y49000D01*
D11*
X161000Y9000D03*
D12*
X161000Y9126D01*
X156432Y13694D01*
X156432Y33432D01*
X172000Y49000D01*
D11*
X350000Y124000D03*
X245000Y141000D03*
D14*
X252000Y138000D02*
X339000Y138000D01*
X252000Y138000D02*
X249000Y141000D01*
X245000Y141000D01*
X350000Y127000D02*
X350000Y124000D01*
X350000Y127000D02*
X339000Y138000D01*
D11*
X341000Y124000D03*
X245000Y132000D03*
D14*
X249000Y132000D01*
X251984Y134984D01*
X341000Y131000D02*
X341000Y124000D01*
X337016Y134984D02*
X251984Y134984D01*
X337016Y134984D02*
X341000Y131000D01*
D11*
X314000Y120000D03*
D14*
X315531Y120000D02*
X319282Y116249D01*
X315531Y120000D02*
X314000Y120000D01*
X319282Y116249D02*
X319282Y34453D01*
X324251Y29484D01*
X351300Y5650D02*
X359084Y13434D01*
X354251Y29484D02*
X324251Y29484D01*
X354251Y29484D02*
X359084Y24651D01*
X359084Y13434D01*
X322298Y35702D02*
X322298Y120000D01*
X355500Y32500D02*
X362100Y25900D01*
X325500Y32500D02*
X322298Y35702D01*
X325500Y32500D02*
X355500Y32500D01*
X362100Y25900D02*
X362100Y7650D01*
X364100Y5650D01*
D11*
X276000Y126000D03*
D14*
X316298Y126000D01*
X322298Y120000D01*
D11*
X352000Y21000D03*
D14*
X338650Y18650D02*
X338650Y5750D01*
X338650Y18650D02*
X341000Y21000D01*
X352000Y21000D01*
D11*
X257000Y117000D03*
D14*
X303096Y112169D02*
X316266Y98999D01*
X262831Y112169D02*
X258000Y117000D01*
X257000Y117000D01*
X262831Y112169D02*
X303096Y112169D01*
X316266Y15334D02*
X325950Y5650D01*
X316266Y15334D02*
X316266Y98999D01*
D11*
X257000Y104000D03*
D14*
X313250Y97750D02*
X313250Y5550D01*
X313250Y97750D02*
X302000Y109000D01*
X263000Y109000D01*
X258000Y104000D01*
X257000Y104000D01*
D11*
X162000Y18000D03*
X250000Y8000D03*
D14*
X221000Y18000D02*
X162000Y18000D01*
X231000Y8000D02*
X250000Y8000D01*
X231000Y8000D02*
X221000Y18000D01*
M02*
