G04 EAGLE Gerber RS-274X export*
G75*
%MOMM*%
%FSLAX34Y34*%
%LPD*%
%IN*%
%IPPOS*%
%AMOC8*
5,1,8,0,0,1.08239X$1,22.5*%
G01*
%ADD10C,0.254000*%


D10*
X7000Y15000D02*
X7008Y14826D01*
X7030Y14653D01*
X7068Y14482D01*
X7121Y14316D01*
X7187Y14155D01*
X7268Y14000D01*
X7362Y13853D01*
X7468Y13714D01*
X7586Y13586D01*
X7714Y13468D01*
X7853Y13362D01*
X8000Y13268D01*
X8155Y13187D01*
X8316Y13121D01*
X8482Y13068D01*
X8653Y13030D01*
X8826Y13008D01*
X9000Y13000D01*
X140000Y13000D01*
X141395Y12939D01*
X142778Y12757D01*
X144141Y12455D01*
X145472Y12035D01*
X146762Y11501D01*
X148000Y10856D01*
X149177Y10106D01*
X150285Y9257D01*
X151314Y8314D01*
X152257Y7285D01*
X153106Y6177D01*
X153856Y5000D01*
X154501Y3762D01*
X155035Y2472D01*
X155455Y1141D01*
X155757Y-222D01*
X155939Y-1606D01*
X156000Y-3000D01*
X372000Y-3000D01*
X372000Y149000D01*
X156000Y149000D01*
X155939Y147606D01*
X155757Y146222D01*
X155455Y144859D01*
X155035Y143528D01*
X154501Y142238D01*
X153856Y141000D01*
X153106Y139823D01*
X152257Y138715D01*
X151314Y137686D01*
X150285Y136743D01*
X149177Y135894D01*
X148000Y135144D01*
X146762Y134499D01*
X145472Y133965D01*
X144141Y133545D01*
X142778Y133243D01*
X141395Y133061D01*
X140000Y133000D01*
X9000Y133000D01*
X8826Y132992D01*
X8653Y132970D01*
X8482Y132932D01*
X8316Y132879D01*
X8155Y132813D01*
X8000Y132732D01*
X7853Y132638D01*
X7714Y132532D01*
X7586Y132414D01*
X7468Y132286D01*
X7362Y132147D01*
X7268Y132000D01*
X7187Y131845D01*
X7121Y131684D01*
X7068Y131518D01*
X7030Y131347D01*
X7008Y131174D01*
X7000Y131000D01*
X7000Y15000D01*
M02*
