G04 EAGLE Gerber RS-274X export*
G75*
%MOMM*%
%FSLAX34Y34*%
%LPD*%
%INSilkscreen Top*%
%IPPOS*%
%AMOC8*
5,1,8,0,0,1.08239X$1,22.5*%
G01*
%ADD10C,0.076200*%
%ADD11C,0.127000*%
%ADD12C,0.203200*%
%ADD13C,0.254000*%
%ADD14C,0.152400*%
%ADD15C,0.200000*%
%ADD16C,0.025400*%


D10*
X270201Y120704D02*
X270201Y113394D01*
X270199Y113305D01*
X270193Y113217D01*
X270184Y113129D01*
X270171Y113041D01*
X270154Y112954D01*
X270134Y112868D01*
X270109Y112783D01*
X270082Y112698D01*
X270050Y112615D01*
X270016Y112534D01*
X269977Y112454D01*
X269936Y112376D01*
X269891Y112299D01*
X269843Y112225D01*
X269792Y112152D01*
X269738Y112082D01*
X269680Y112015D01*
X269620Y111949D01*
X269558Y111887D01*
X269492Y111827D01*
X269425Y111769D01*
X269355Y111715D01*
X269282Y111664D01*
X269208Y111616D01*
X269131Y111571D01*
X269053Y111530D01*
X268973Y111491D01*
X268892Y111457D01*
X268809Y111425D01*
X268724Y111398D01*
X268639Y111373D01*
X268553Y111353D01*
X268466Y111336D01*
X268378Y111323D01*
X268290Y111314D01*
X268202Y111308D01*
X268113Y111306D01*
X267069Y111306D01*
X274715Y111306D02*
X274715Y120704D01*
X274715Y111306D02*
X278892Y111306D01*
X284380Y111306D02*
X286469Y111306D01*
X284380Y111306D02*
X284291Y111308D01*
X284203Y111314D01*
X284115Y111323D01*
X284027Y111336D01*
X283940Y111353D01*
X283854Y111373D01*
X283769Y111398D01*
X283684Y111425D01*
X283601Y111457D01*
X283520Y111491D01*
X283440Y111530D01*
X283362Y111571D01*
X283285Y111616D01*
X283211Y111664D01*
X283138Y111715D01*
X283068Y111769D01*
X283001Y111827D01*
X282935Y111887D01*
X282873Y111949D01*
X282813Y112015D01*
X282755Y112082D01*
X282701Y112152D01*
X282650Y112225D01*
X282602Y112299D01*
X282557Y112376D01*
X282516Y112454D01*
X282477Y112534D01*
X282443Y112615D01*
X282411Y112698D01*
X282384Y112783D01*
X282359Y112868D01*
X282339Y112954D01*
X282322Y113041D01*
X282309Y113129D01*
X282300Y113217D01*
X282294Y113305D01*
X282292Y113394D01*
X282292Y118616D01*
X282294Y118707D01*
X282300Y118798D01*
X282310Y118889D01*
X282324Y118979D01*
X282341Y119068D01*
X282363Y119156D01*
X282389Y119244D01*
X282418Y119330D01*
X282451Y119415D01*
X282488Y119498D01*
X282528Y119580D01*
X282572Y119660D01*
X282619Y119738D01*
X282670Y119814D01*
X282723Y119887D01*
X282780Y119958D01*
X282841Y120027D01*
X282904Y120092D01*
X282969Y120155D01*
X283038Y120215D01*
X283109Y120273D01*
X283182Y120326D01*
X283258Y120377D01*
X283336Y120424D01*
X283416Y120468D01*
X283498Y120508D01*
X283581Y120545D01*
X283666Y120578D01*
X283752Y120607D01*
X283840Y120633D01*
X283928Y120655D01*
X284017Y120672D01*
X284107Y120686D01*
X284198Y120696D01*
X284289Y120702D01*
X284380Y120704D01*
X286469Y120704D01*
X292147Y120704D02*
X292147Y113394D01*
X292146Y113394D02*
X292144Y113305D01*
X292138Y113217D01*
X292129Y113129D01*
X292116Y113041D01*
X292099Y112954D01*
X292079Y112868D01*
X292054Y112783D01*
X292027Y112698D01*
X291995Y112615D01*
X291961Y112534D01*
X291922Y112454D01*
X291881Y112376D01*
X291836Y112299D01*
X291788Y112225D01*
X291737Y112152D01*
X291683Y112082D01*
X291625Y112015D01*
X291565Y111949D01*
X291503Y111887D01*
X291437Y111827D01*
X291370Y111769D01*
X291300Y111715D01*
X291227Y111664D01*
X291153Y111616D01*
X291076Y111571D01*
X290998Y111530D01*
X290918Y111491D01*
X290837Y111457D01*
X290754Y111425D01*
X290669Y111398D01*
X290584Y111373D01*
X290498Y111353D01*
X290411Y111336D01*
X290323Y111323D01*
X290235Y111314D01*
X290147Y111308D01*
X290058Y111306D01*
X289014Y111306D01*
X296661Y111306D02*
X296661Y120704D01*
X296661Y111306D02*
X300837Y111306D01*
X306326Y111306D02*
X308414Y111306D01*
X306326Y111306D02*
X306237Y111308D01*
X306149Y111314D01*
X306061Y111323D01*
X305973Y111336D01*
X305886Y111353D01*
X305800Y111373D01*
X305715Y111398D01*
X305630Y111425D01*
X305547Y111457D01*
X305466Y111491D01*
X305386Y111530D01*
X305308Y111571D01*
X305231Y111616D01*
X305157Y111664D01*
X305084Y111715D01*
X305014Y111769D01*
X304947Y111827D01*
X304881Y111887D01*
X304819Y111949D01*
X304759Y112015D01*
X304701Y112082D01*
X304647Y112152D01*
X304596Y112225D01*
X304548Y112299D01*
X304503Y112376D01*
X304462Y112454D01*
X304423Y112534D01*
X304389Y112615D01*
X304357Y112698D01*
X304330Y112783D01*
X304305Y112868D01*
X304285Y112954D01*
X304268Y113041D01*
X304255Y113129D01*
X304246Y113217D01*
X304240Y113305D01*
X304238Y113394D01*
X304237Y113394D02*
X304237Y118616D01*
X304238Y118616D02*
X304240Y118707D01*
X304246Y118798D01*
X304256Y118889D01*
X304270Y118979D01*
X304287Y119068D01*
X304309Y119156D01*
X304335Y119244D01*
X304364Y119330D01*
X304397Y119415D01*
X304434Y119498D01*
X304474Y119580D01*
X304518Y119660D01*
X304565Y119738D01*
X304616Y119814D01*
X304669Y119887D01*
X304726Y119958D01*
X304787Y120027D01*
X304850Y120092D01*
X304915Y120155D01*
X304984Y120215D01*
X305055Y120273D01*
X305128Y120326D01*
X305204Y120377D01*
X305282Y120424D01*
X305362Y120468D01*
X305444Y120508D01*
X305527Y120545D01*
X305612Y120578D01*
X305698Y120607D01*
X305786Y120633D01*
X305874Y120655D01*
X305963Y120672D01*
X306053Y120686D01*
X306144Y120696D01*
X306235Y120702D01*
X306326Y120704D01*
X308414Y120704D01*
X314092Y120704D02*
X314092Y113394D01*
X314090Y113305D01*
X314084Y113217D01*
X314075Y113129D01*
X314062Y113041D01*
X314045Y112954D01*
X314025Y112868D01*
X314000Y112783D01*
X313973Y112698D01*
X313941Y112615D01*
X313907Y112534D01*
X313868Y112454D01*
X313827Y112376D01*
X313782Y112299D01*
X313734Y112225D01*
X313683Y112152D01*
X313629Y112082D01*
X313571Y112015D01*
X313511Y111949D01*
X313449Y111887D01*
X313383Y111827D01*
X313316Y111769D01*
X313246Y111715D01*
X313173Y111664D01*
X313099Y111616D01*
X313022Y111571D01*
X312944Y111530D01*
X312864Y111491D01*
X312783Y111457D01*
X312700Y111425D01*
X312615Y111398D01*
X312530Y111373D01*
X312444Y111353D01*
X312357Y111336D01*
X312269Y111323D01*
X312181Y111314D01*
X312093Y111308D01*
X312004Y111306D01*
X310959Y111306D01*
X318606Y111306D02*
X318606Y120704D01*
X318606Y111306D02*
X322783Y111306D01*
X328271Y111306D02*
X330360Y111306D01*
X328271Y111306D02*
X328182Y111308D01*
X328094Y111314D01*
X328006Y111323D01*
X327918Y111336D01*
X327831Y111353D01*
X327745Y111373D01*
X327660Y111398D01*
X327575Y111425D01*
X327492Y111457D01*
X327411Y111491D01*
X327331Y111530D01*
X327253Y111571D01*
X327176Y111616D01*
X327102Y111664D01*
X327029Y111715D01*
X326959Y111769D01*
X326892Y111827D01*
X326826Y111887D01*
X326764Y111949D01*
X326704Y112015D01*
X326646Y112082D01*
X326592Y112152D01*
X326541Y112225D01*
X326493Y112299D01*
X326448Y112376D01*
X326407Y112454D01*
X326368Y112534D01*
X326334Y112615D01*
X326302Y112698D01*
X326275Y112783D01*
X326250Y112868D01*
X326230Y112954D01*
X326213Y113041D01*
X326200Y113129D01*
X326191Y113217D01*
X326185Y113305D01*
X326183Y113394D01*
X326183Y118616D01*
X326185Y118707D01*
X326191Y118798D01*
X326201Y118889D01*
X326215Y118979D01*
X326232Y119068D01*
X326254Y119156D01*
X326280Y119244D01*
X326309Y119330D01*
X326342Y119415D01*
X326379Y119498D01*
X326419Y119580D01*
X326463Y119660D01*
X326510Y119738D01*
X326561Y119814D01*
X326614Y119887D01*
X326671Y119958D01*
X326732Y120027D01*
X326795Y120092D01*
X326860Y120155D01*
X326929Y120215D01*
X327000Y120273D01*
X327073Y120326D01*
X327149Y120377D01*
X327227Y120424D01*
X327307Y120468D01*
X327389Y120508D01*
X327472Y120545D01*
X327557Y120578D01*
X327643Y120607D01*
X327731Y120633D01*
X327819Y120655D01*
X327908Y120672D01*
X327998Y120686D01*
X328089Y120696D01*
X328180Y120702D01*
X328271Y120704D01*
X330360Y120704D01*
X336038Y120704D02*
X336038Y113394D01*
X336037Y113394D02*
X336035Y113305D01*
X336029Y113217D01*
X336020Y113129D01*
X336007Y113041D01*
X335990Y112954D01*
X335970Y112868D01*
X335945Y112783D01*
X335918Y112698D01*
X335886Y112615D01*
X335852Y112534D01*
X335813Y112454D01*
X335772Y112376D01*
X335727Y112299D01*
X335679Y112225D01*
X335628Y112152D01*
X335574Y112082D01*
X335516Y112015D01*
X335456Y111949D01*
X335394Y111887D01*
X335328Y111827D01*
X335261Y111769D01*
X335191Y111715D01*
X335118Y111664D01*
X335044Y111616D01*
X334967Y111571D01*
X334889Y111530D01*
X334809Y111491D01*
X334728Y111457D01*
X334645Y111425D01*
X334560Y111398D01*
X334475Y111373D01*
X334389Y111353D01*
X334302Y111336D01*
X334214Y111323D01*
X334126Y111314D01*
X334038Y111308D01*
X333949Y111306D01*
X332905Y111306D01*
X340552Y111306D02*
X340552Y120704D01*
X340552Y111306D02*
X344728Y111306D01*
X350217Y111306D02*
X352305Y111306D01*
X350217Y111306D02*
X350128Y111308D01*
X350040Y111314D01*
X349952Y111323D01*
X349864Y111336D01*
X349777Y111353D01*
X349691Y111373D01*
X349606Y111398D01*
X349521Y111425D01*
X349438Y111457D01*
X349357Y111491D01*
X349277Y111530D01*
X349199Y111571D01*
X349122Y111616D01*
X349048Y111664D01*
X348975Y111715D01*
X348905Y111769D01*
X348838Y111827D01*
X348772Y111887D01*
X348710Y111949D01*
X348650Y112015D01*
X348592Y112082D01*
X348538Y112152D01*
X348487Y112225D01*
X348439Y112299D01*
X348394Y112376D01*
X348353Y112454D01*
X348314Y112534D01*
X348280Y112615D01*
X348248Y112698D01*
X348221Y112783D01*
X348196Y112868D01*
X348176Y112954D01*
X348159Y113041D01*
X348146Y113129D01*
X348137Y113217D01*
X348131Y113305D01*
X348129Y113394D01*
X348128Y113394D02*
X348128Y118616D01*
X348129Y118616D02*
X348131Y118707D01*
X348137Y118798D01*
X348147Y118889D01*
X348161Y118979D01*
X348178Y119068D01*
X348200Y119156D01*
X348226Y119244D01*
X348255Y119330D01*
X348288Y119415D01*
X348325Y119498D01*
X348365Y119580D01*
X348409Y119660D01*
X348456Y119738D01*
X348507Y119814D01*
X348560Y119887D01*
X348617Y119958D01*
X348678Y120027D01*
X348741Y120092D01*
X348806Y120155D01*
X348875Y120215D01*
X348946Y120273D01*
X349019Y120326D01*
X349095Y120377D01*
X349173Y120424D01*
X349253Y120468D01*
X349335Y120508D01*
X349418Y120545D01*
X349503Y120578D01*
X349589Y120607D01*
X349677Y120633D01*
X349765Y120655D01*
X349854Y120672D01*
X349944Y120686D01*
X350035Y120696D01*
X350126Y120702D01*
X350217Y120704D01*
X352305Y120704D01*
D11*
X218346Y137330D02*
X216822Y137330D01*
X216745Y137332D01*
X216668Y137338D01*
X216591Y137348D01*
X216515Y137361D01*
X216440Y137379D01*
X216366Y137400D01*
X216293Y137425D01*
X216221Y137454D01*
X216151Y137486D01*
X216082Y137521D01*
X216016Y137561D01*
X215951Y137603D01*
X215889Y137649D01*
X215829Y137698D01*
X215772Y137749D01*
X215717Y137804D01*
X215666Y137861D01*
X215617Y137921D01*
X215571Y137983D01*
X215529Y138048D01*
X215489Y138114D01*
X215454Y138183D01*
X215422Y138253D01*
X215393Y138325D01*
X215368Y138398D01*
X215347Y138472D01*
X215329Y138547D01*
X215316Y138623D01*
X215306Y138700D01*
X215300Y138777D01*
X215298Y138854D01*
X215298Y142664D01*
X215300Y142741D01*
X215306Y142818D01*
X215316Y142895D01*
X215329Y142971D01*
X215347Y143046D01*
X215368Y143120D01*
X215393Y143193D01*
X215422Y143265D01*
X215454Y143335D01*
X215489Y143404D01*
X215529Y143470D01*
X215571Y143535D01*
X215617Y143597D01*
X215666Y143657D01*
X215717Y143714D01*
X215772Y143769D01*
X215829Y143820D01*
X215889Y143869D01*
X215951Y143915D01*
X216016Y143957D01*
X216082Y143997D01*
X216151Y144032D01*
X216221Y144064D01*
X216293Y144093D01*
X216366Y144118D01*
X216440Y144139D01*
X216515Y144157D01*
X216591Y144170D01*
X216668Y144180D01*
X216745Y144186D01*
X216822Y144188D01*
X218346Y144188D01*
X222949Y144188D02*
X221425Y138854D01*
X225235Y138854D01*
X224092Y140378D02*
X224092Y137330D01*
X165926Y135671D02*
X164402Y135671D01*
X164325Y135673D01*
X164248Y135679D01*
X164171Y135689D01*
X164095Y135702D01*
X164020Y135720D01*
X163946Y135741D01*
X163873Y135766D01*
X163801Y135795D01*
X163731Y135827D01*
X163662Y135862D01*
X163596Y135902D01*
X163531Y135944D01*
X163469Y135990D01*
X163409Y136039D01*
X163352Y136090D01*
X163297Y136145D01*
X163246Y136202D01*
X163197Y136262D01*
X163151Y136324D01*
X163109Y136389D01*
X163069Y136455D01*
X163034Y136524D01*
X163002Y136594D01*
X162973Y136666D01*
X162948Y136739D01*
X162927Y136813D01*
X162909Y136888D01*
X162896Y136964D01*
X162886Y137041D01*
X162880Y137118D01*
X162878Y137195D01*
X162878Y141005D01*
X162880Y141082D01*
X162886Y141159D01*
X162896Y141236D01*
X162909Y141312D01*
X162927Y141387D01*
X162948Y141461D01*
X162973Y141534D01*
X163002Y141606D01*
X163034Y141676D01*
X163069Y141745D01*
X163109Y141811D01*
X163151Y141876D01*
X163197Y141938D01*
X163246Y141998D01*
X163297Y142055D01*
X163352Y142110D01*
X163409Y142161D01*
X163469Y142210D01*
X163531Y142256D01*
X163596Y142298D01*
X163662Y142338D01*
X163731Y142373D01*
X163801Y142405D01*
X163873Y142434D01*
X163946Y142459D01*
X164020Y142480D01*
X164095Y142498D01*
X164171Y142511D01*
X164248Y142521D01*
X164325Y142527D01*
X164402Y142529D01*
X165926Y142529D01*
X169005Y135671D02*
X170910Y135671D01*
X170995Y135673D01*
X171081Y135679D01*
X171166Y135688D01*
X171250Y135702D01*
X171334Y135719D01*
X171417Y135740D01*
X171499Y135764D01*
X171579Y135792D01*
X171659Y135824D01*
X171737Y135860D01*
X171813Y135898D01*
X171887Y135941D01*
X171959Y135986D01*
X172030Y136035D01*
X172098Y136087D01*
X172163Y136141D01*
X172226Y136199D01*
X172287Y136260D01*
X172345Y136323D01*
X172399Y136388D01*
X172451Y136456D01*
X172500Y136527D01*
X172545Y136599D01*
X172588Y136673D01*
X172626Y136749D01*
X172662Y136827D01*
X172694Y136907D01*
X172722Y136987D01*
X172746Y137069D01*
X172767Y137152D01*
X172784Y137236D01*
X172798Y137320D01*
X172807Y137405D01*
X172813Y137491D01*
X172815Y137576D01*
X172813Y137661D01*
X172807Y137747D01*
X172798Y137832D01*
X172784Y137916D01*
X172767Y138000D01*
X172746Y138083D01*
X172722Y138165D01*
X172694Y138245D01*
X172662Y138325D01*
X172626Y138403D01*
X172588Y138479D01*
X172545Y138553D01*
X172500Y138625D01*
X172451Y138696D01*
X172399Y138764D01*
X172345Y138829D01*
X172287Y138892D01*
X172226Y138953D01*
X172163Y139011D01*
X172098Y139065D01*
X172030Y139117D01*
X171959Y139166D01*
X171887Y139211D01*
X171813Y139254D01*
X171737Y139292D01*
X171659Y139328D01*
X171579Y139360D01*
X171499Y139388D01*
X171417Y139412D01*
X171334Y139433D01*
X171250Y139450D01*
X171166Y139464D01*
X171081Y139473D01*
X170995Y139479D01*
X170910Y139481D01*
X171291Y142529D02*
X169005Y142529D01*
X171291Y142529D02*
X171368Y142527D01*
X171445Y142521D01*
X171522Y142511D01*
X171598Y142498D01*
X171673Y142480D01*
X171747Y142459D01*
X171820Y142434D01*
X171892Y142405D01*
X171962Y142373D01*
X172031Y142338D01*
X172097Y142298D01*
X172162Y142256D01*
X172224Y142210D01*
X172284Y142161D01*
X172341Y142110D01*
X172396Y142055D01*
X172447Y141998D01*
X172496Y141938D01*
X172542Y141876D01*
X172584Y141811D01*
X172624Y141745D01*
X172659Y141676D01*
X172691Y141606D01*
X172720Y141534D01*
X172745Y141461D01*
X172766Y141387D01*
X172784Y141312D01*
X172797Y141236D01*
X172807Y141159D01*
X172813Y141082D01*
X172815Y141005D01*
X172813Y140928D01*
X172807Y140851D01*
X172797Y140774D01*
X172784Y140698D01*
X172766Y140623D01*
X172745Y140549D01*
X172720Y140476D01*
X172691Y140404D01*
X172659Y140334D01*
X172624Y140265D01*
X172584Y140199D01*
X172542Y140134D01*
X172496Y140072D01*
X172447Y140012D01*
X172396Y139955D01*
X172341Y139900D01*
X172284Y139849D01*
X172224Y139800D01*
X172162Y139754D01*
X172097Y139712D01*
X172031Y139672D01*
X171962Y139637D01*
X171892Y139605D01*
X171820Y139576D01*
X171747Y139551D01*
X171673Y139530D01*
X171598Y139512D01*
X171522Y139499D01*
X171445Y139489D01*
X171368Y139483D01*
X171291Y139481D01*
X169767Y139481D01*
D10*
X267369Y23206D02*
X271545Y23206D01*
X267369Y23206D02*
X267369Y32604D01*
X271545Y32604D01*
X270501Y28427D02*
X267369Y28427D01*
X274971Y30516D02*
X277582Y32604D01*
X277582Y23206D01*
X280192Y23206D02*
X274971Y23206D01*
X284115Y27905D02*
X284117Y28090D01*
X284124Y28275D01*
X284135Y28459D01*
X284150Y28643D01*
X284170Y28827D01*
X284194Y29011D01*
X284223Y29193D01*
X284256Y29375D01*
X284293Y29556D01*
X284335Y29736D01*
X284381Y29916D01*
X284431Y30094D01*
X284485Y30270D01*
X284544Y30446D01*
X284606Y30620D01*
X284673Y30792D01*
X284744Y30963D01*
X284819Y31132D01*
X284898Y31299D01*
X284897Y31299D02*
X284927Y31379D01*
X284960Y31458D01*
X284997Y31535D01*
X285037Y31611D01*
X285080Y31685D01*
X285126Y31757D01*
X285176Y31826D01*
X285228Y31894D01*
X285284Y31959D01*
X285342Y32022D01*
X285404Y32081D01*
X285467Y32139D01*
X285534Y32193D01*
X285602Y32244D01*
X285673Y32292D01*
X285746Y32337D01*
X285820Y32379D01*
X285897Y32417D01*
X285975Y32452D01*
X286054Y32484D01*
X286135Y32512D01*
X286217Y32536D01*
X286301Y32557D01*
X286384Y32574D01*
X286469Y32587D01*
X286554Y32596D01*
X286639Y32602D01*
X286725Y32604D01*
X286811Y32602D01*
X286896Y32596D01*
X286981Y32587D01*
X287066Y32574D01*
X287149Y32557D01*
X287233Y32536D01*
X287315Y32512D01*
X287396Y32484D01*
X287475Y32452D01*
X287553Y32417D01*
X287630Y32379D01*
X287704Y32337D01*
X287777Y32292D01*
X287848Y32244D01*
X287916Y32193D01*
X287983Y32139D01*
X288046Y32081D01*
X288108Y32022D01*
X288166Y31959D01*
X288222Y31894D01*
X288274Y31826D01*
X288324Y31757D01*
X288370Y31685D01*
X288413Y31611D01*
X288453Y31535D01*
X288490Y31458D01*
X288523Y31379D01*
X288553Y31299D01*
X288632Y31132D01*
X288707Y30963D01*
X288778Y30792D01*
X288845Y30620D01*
X288907Y30446D01*
X288966Y30270D01*
X289020Y30094D01*
X289070Y29916D01*
X289116Y29736D01*
X289158Y29556D01*
X289195Y29375D01*
X289228Y29193D01*
X289257Y29011D01*
X289281Y28827D01*
X289301Y28643D01*
X289316Y28459D01*
X289327Y28275D01*
X289334Y28090D01*
X289336Y27905D01*
X284115Y27905D02*
X284117Y27720D01*
X284124Y27535D01*
X284135Y27351D01*
X284150Y27167D01*
X284170Y26983D01*
X284194Y26799D01*
X284223Y26617D01*
X284256Y26435D01*
X284293Y26254D01*
X284335Y26074D01*
X284381Y25894D01*
X284431Y25716D01*
X284485Y25540D01*
X284544Y25364D01*
X284606Y25190D01*
X284673Y25018D01*
X284744Y24847D01*
X284819Y24678D01*
X284898Y24511D01*
X284897Y24511D02*
X284927Y24431D01*
X284960Y24352D01*
X284997Y24275D01*
X285037Y24199D01*
X285080Y24125D01*
X285126Y24053D01*
X285176Y23984D01*
X285229Y23916D01*
X285284Y23851D01*
X285343Y23788D01*
X285404Y23729D01*
X285467Y23671D01*
X285534Y23617D01*
X285602Y23566D01*
X285673Y23518D01*
X285746Y23473D01*
X285820Y23431D01*
X285897Y23393D01*
X285975Y23358D01*
X286054Y23326D01*
X286135Y23298D01*
X286217Y23274D01*
X286301Y23253D01*
X286384Y23236D01*
X286469Y23223D01*
X286554Y23214D01*
X286639Y23208D01*
X286725Y23206D01*
X288553Y24511D02*
X288632Y24678D01*
X288707Y24847D01*
X288778Y25018D01*
X288845Y25190D01*
X288907Y25364D01*
X288966Y25540D01*
X289020Y25716D01*
X289070Y25894D01*
X289116Y26074D01*
X289158Y26254D01*
X289195Y26435D01*
X289228Y26617D01*
X289257Y26799D01*
X289281Y26983D01*
X289301Y27167D01*
X289316Y27351D01*
X289327Y27535D01*
X289334Y27720D01*
X289336Y27905D01*
X288553Y24511D02*
X288523Y24431D01*
X288490Y24352D01*
X288453Y24275D01*
X288413Y24199D01*
X288370Y24125D01*
X288324Y24053D01*
X288274Y23984D01*
X288222Y23916D01*
X288166Y23851D01*
X288108Y23788D01*
X288046Y23729D01*
X287983Y23671D01*
X287916Y23617D01*
X287848Y23566D01*
X287777Y23518D01*
X287704Y23473D01*
X287630Y23431D01*
X287553Y23393D01*
X287475Y23358D01*
X287396Y23326D01*
X287315Y23298D01*
X287233Y23274D01*
X287149Y23253D01*
X287066Y23236D01*
X286981Y23223D01*
X286896Y23214D01*
X286811Y23208D01*
X286725Y23206D01*
X284637Y25294D02*
X288814Y30516D01*
X293259Y25294D02*
X295347Y32604D01*
X293259Y25294D02*
X298480Y25294D01*
X296914Y27383D02*
X296914Y23206D01*
X302490Y26861D02*
X308756Y26861D01*
X313202Y28427D02*
X315813Y28427D01*
X315813Y28428D02*
X315914Y28426D01*
X316015Y28420D01*
X316116Y28410D01*
X316216Y28397D01*
X316316Y28379D01*
X316415Y28358D01*
X316513Y28332D01*
X316610Y28303D01*
X316706Y28271D01*
X316800Y28234D01*
X316893Y28194D01*
X316985Y28150D01*
X317074Y28103D01*
X317162Y28052D01*
X317248Y27998D01*
X317331Y27941D01*
X317413Y27881D01*
X317491Y27817D01*
X317568Y27751D01*
X317641Y27681D01*
X317712Y27609D01*
X317780Y27534D01*
X317845Y27456D01*
X317907Y27376D01*
X317966Y27294D01*
X318022Y27209D01*
X318074Y27122D01*
X318123Y27034D01*
X318169Y26943D01*
X318210Y26851D01*
X318249Y26757D01*
X318283Y26662D01*
X318314Y26566D01*
X318341Y26468D01*
X318365Y26370D01*
X318384Y26270D01*
X318400Y26170D01*
X318412Y26070D01*
X318420Y25969D01*
X318424Y25868D01*
X318424Y25766D01*
X318420Y25665D01*
X318412Y25564D01*
X318400Y25464D01*
X318384Y25364D01*
X318365Y25264D01*
X318341Y25166D01*
X318314Y25068D01*
X318283Y24972D01*
X318249Y24877D01*
X318210Y24783D01*
X318169Y24691D01*
X318123Y24600D01*
X318074Y24511D01*
X318022Y24425D01*
X317966Y24340D01*
X317907Y24258D01*
X317845Y24178D01*
X317780Y24100D01*
X317712Y24025D01*
X317641Y23953D01*
X317568Y23883D01*
X317491Y23817D01*
X317413Y23753D01*
X317331Y23693D01*
X317248Y23636D01*
X317162Y23582D01*
X317074Y23531D01*
X316985Y23484D01*
X316893Y23440D01*
X316800Y23400D01*
X316706Y23363D01*
X316610Y23331D01*
X316513Y23302D01*
X316415Y23276D01*
X316316Y23255D01*
X316216Y23237D01*
X316116Y23224D01*
X316015Y23214D01*
X315914Y23208D01*
X315813Y23206D01*
X313202Y23206D01*
X313202Y32604D01*
X315813Y32604D01*
X315903Y32602D01*
X315992Y32596D01*
X316082Y32587D01*
X316171Y32573D01*
X316259Y32556D01*
X316346Y32535D01*
X316433Y32510D01*
X316518Y32481D01*
X316602Y32449D01*
X316684Y32414D01*
X316765Y32374D01*
X316844Y32332D01*
X316921Y32286D01*
X316996Y32236D01*
X317069Y32184D01*
X317140Y32128D01*
X317208Y32070D01*
X317273Y32008D01*
X317336Y31944D01*
X317396Y31877D01*
X317453Y31808D01*
X317507Y31736D01*
X317558Y31662D01*
X317606Y31586D01*
X317650Y31508D01*
X317691Y31428D01*
X317729Y31346D01*
X317763Y31263D01*
X317793Y31178D01*
X317820Y31092D01*
X317843Y31006D01*
X317862Y30918D01*
X317877Y30829D01*
X317889Y30740D01*
X317897Y30651D01*
X317901Y30561D01*
X317901Y30471D01*
X317897Y30381D01*
X317889Y30292D01*
X317877Y30203D01*
X317862Y30114D01*
X317843Y30026D01*
X317820Y29940D01*
X317793Y29854D01*
X317763Y29769D01*
X317729Y29686D01*
X317691Y29604D01*
X317650Y29524D01*
X317606Y29446D01*
X317558Y29370D01*
X317507Y29296D01*
X317453Y29224D01*
X317396Y29155D01*
X317336Y29088D01*
X317273Y29024D01*
X317208Y28962D01*
X317140Y28904D01*
X317069Y28848D01*
X316996Y28796D01*
X316921Y28746D01*
X316844Y28700D01*
X316765Y28658D01*
X316684Y28618D01*
X316602Y28583D01*
X316518Y28551D01*
X316433Y28522D01*
X316346Y28497D01*
X316259Y28476D01*
X316171Y28459D01*
X316082Y28445D01*
X315992Y28436D01*
X315903Y28430D01*
X315813Y28428D01*
X323911Y32604D02*
X323911Y23206D01*
X321300Y32604D02*
X326522Y32604D01*
X329835Y30516D02*
X332445Y32604D01*
X332445Y23206D01*
X329835Y23206D02*
X335056Y23206D01*
X338979Y30516D02*
X341589Y32604D01*
X341589Y23206D01*
X338979Y23206D02*
X344200Y23206D01*
X352082Y28427D02*
X353649Y28427D01*
X353649Y23206D01*
X350516Y23206D01*
X350427Y23208D01*
X350339Y23214D01*
X350251Y23223D01*
X350163Y23236D01*
X350076Y23253D01*
X349990Y23273D01*
X349905Y23298D01*
X349820Y23325D01*
X349737Y23357D01*
X349656Y23391D01*
X349576Y23430D01*
X349498Y23471D01*
X349421Y23516D01*
X349347Y23564D01*
X349274Y23615D01*
X349204Y23669D01*
X349137Y23727D01*
X349071Y23787D01*
X349009Y23849D01*
X348949Y23915D01*
X348891Y23982D01*
X348837Y24052D01*
X348786Y24125D01*
X348738Y24199D01*
X348693Y24276D01*
X348652Y24354D01*
X348613Y24434D01*
X348579Y24515D01*
X348547Y24598D01*
X348520Y24683D01*
X348495Y24768D01*
X348475Y24854D01*
X348458Y24941D01*
X348445Y25029D01*
X348436Y25117D01*
X348430Y25205D01*
X348428Y25294D01*
X348428Y30516D01*
X348430Y30607D01*
X348436Y30698D01*
X348446Y30789D01*
X348460Y30879D01*
X348477Y30968D01*
X348499Y31056D01*
X348525Y31144D01*
X348554Y31230D01*
X348587Y31315D01*
X348624Y31398D01*
X348664Y31480D01*
X348708Y31560D01*
X348755Y31638D01*
X348806Y31714D01*
X348859Y31787D01*
X348916Y31858D01*
X348977Y31927D01*
X349040Y31992D01*
X349105Y32055D01*
X349174Y32115D01*
X349245Y32173D01*
X349318Y32226D01*
X349394Y32277D01*
X349472Y32324D01*
X349552Y32368D01*
X349634Y32408D01*
X349717Y32445D01*
X349802Y32478D01*
X349888Y32507D01*
X349976Y32533D01*
X350064Y32555D01*
X350153Y32572D01*
X350243Y32586D01*
X350334Y32596D01*
X350425Y32602D01*
X350516Y32604D01*
X353649Y32604D01*
D12*
X214679Y54711D02*
X214679Y55388D01*
X215356Y55388D01*
X215356Y54711D01*
X214679Y54711D01*
X197763Y103306D02*
X189175Y103306D01*
X189175Y128706D02*
X197763Y128706D01*
X200557Y118690D02*
X200557Y113322D01*
D13*
X183309Y132008D03*
D11*
X168368Y133198D02*
X158208Y133198D01*
X210316Y134864D02*
X210316Y145024D01*
D14*
X151996Y53701D02*
X151996Y47097D01*
X151996Y53701D02*
X153830Y53701D01*
X153915Y53699D01*
X153999Y53693D01*
X154083Y53683D01*
X154167Y53670D01*
X154250Y53652D01*
X154332Y53631D01*
X154413Y53606D01*
X154493Y53577D01*
X154571Y53545D01*
X154647Y53509D01*
X154722Y53469D01*
X154795Y53426D01*
X154866Y53380D01*
X154935Y53331D01*
X155002Y53278D01*
X155066Y53222D01*
X155127Y53164D01*
X155185Y53103D01*
X155241Y53039D01*
X155294Y52972D01*
X155343Y52903D01*
X155389Y52832D01*
X155432Y52759D01*
X155472Y52684D01*
X155508Y52608D01*
X155540Y52530D01*
X155569Y52450D01*
X155594Y52369D01*
X155615Y52287D01*
X155633Y52204D01*
X155646Y52120D01*
X155656Y52036D01*
X155662Y51952D01*
X155664Y51867D01*
X155662Y51782D01*
X155656Y51698D01*
X155646Y51614D01*
X155633Y51530D01*
X155615Y51447D01*
X155594Y51365D01*
X155569Y51284D01*
X155540Y51204D01*
X155508Y51126D01*
X155472Y51050D01*
X155432Y50975D01*
X155389Y50902D01*
X155343Y50831D01*
X155294Y50762D01*
X155241Y50695D01*
X155185Y50631D01*
X155127Y50570D01*
X155066Y50512D01*
X155002Y50456D01*
X154935Y50403D01*
X154866Y50354D01*
X154795Y50308D01*
X154722Y50265D01*
X154647Y50225D01*
X154571Y50189D01*
X154493Y50157D01*
X154413Y50128D01*
X154332Y50103D01*
X154250Y50082D01*
X154167Y50064D01*
X154083Y50051D01*
X153999Y50041D01*
X153915Y50035D01*
X153830Y50033D01*
X151996Y50033D01*
X154197Y50033D02*
X155665Y47097D01*
X161250Y53701D02*
X161329Y53699D01*
X161407Y53694D01*
X161485Y53684D01*
X161562Y53671D01*
X161639Y53654D01*
X161715Y53634D01*
X161790Y53610D01*
X161864Y53583D01*
X161936Y53552D01*
X162007Y53517D01*
X162076Y53480D01*
X162143Y53439D01*
X162208Y53395D01*
X162271Y53348D01*
X162331Y53298D01*
X162389Y53245D01*
X162445Y53189D01*
X162498Y53131D01*
X162548Y53071D01*
X162595Y53008D01*
X162639Y52943D01*
X162680Y52876D01*
X162717Y52807D01*
X162752Y52736D01*
X162783Y52664D01*
X162810Y52590D01*
X162834Y52515D01*
X162854Y52439D01*
X162871Y52362D01*
X162884Y52285D01*
X162894Y52207D01*
X162899Y52129D01*
X162901Y52050D01*
X161250Y53701D02*
X161161Y53699D01*
X161072Y53694D01*
X160984Y53684D01*
X160896Y53671D01*
X160809Y53655D01*
X160722Y53634D01*
X160637Y53610D01*
X160552Y53583D01*
X160469Y53552D01*
X160387Y53517D01*
X160306Y53479D01*
X160227Y53438D01*
X160151Y53394D01*
X160075Y53346D01*
X160002Y53295D01*
X159932Y53242D01*
X159863Y53185D01*
X159797Y53125D01*
X159734Y53063D01*
X159673Y52998D01*
X159615Y52931D01*
X159560Y52861D01*
X159507Y52789D01*
X159458Y52715D01*
X159412Y52639D01*
X159370Y52561D01*
X159330Y52481D01*
X159294Y52400D01*
X159261Y52317D01*
X159232Y52233D01*
X162351Y50766D02*
X162407Y50822D01*
X162461Y50881D01*
X162512Y50942D01*
X162561Y51006D01*
X162606Y51071D01*
X162649Y51139D01*
X162688Y51208D01*
X162725Y51279D01*
X162758Y51352D01*
X162787Y51426D01*
X162814Y51501D01*
X162837Y51577D01*
X162856Y51655D01*
X162872Y51733D01*
X162885Y51811D01*
X162894Y51891D01*
X162899Y51970D01*
X162901Y52050D01*
X162351Y50766D02*
X159232Y47097D01*
X162901Y47097D01*
D11*
X244169Y8191D02*
X434799Y8191D01*
X434799Y138161D01*
X244169Y138161D01*
X399879Y23271D02*
X429879Y23271D01*
X429879Y33271D01*
X403679Y33271D01*
X403679Y59971D01*
X403779Y59771D02*
X429879Y59771D01*
X429879Y83501D01*
X403779Y83501D01*
X403779Y110581D01*
X429879Y110581D01*
X429879Y123181D01*
X387279Y123181D01*
X387279Y95661D01*
X370679Y81161D01*
X244169Y138161D02*
X244169Y8191D01*
X156000Y73250D02*
X156000Y86250D01*
X187500Y86250D02*
X187500Y73250D01*
D15*
X162750Y57750D02*
X162752Y57813D01*
X162758Y57875D01*
X162768Y57937D01*
X162781Y57999D01*
X162799Y58059D01*
X162820Y58118D01*
X162845Y58176D01*
X162874Y58232D01*
X162906Y58286D01*
X162941Y58338D01*
X162979Y58387D01*
X163021Y58435D01*
X163065Y58479D01*
X163113Y58521D01*
X163162Y58559D01*
X163214Y58594D01*
X163268Y58626D01*
X163324Y58655D01*
X163382Y58680D01*
X163441Y58701D01*
X163501Y58719D01*
X163563Y58732D01*
X163625Y58742D01*
X163687Y58748D01*
X163750Y58750D01*
X163813Y58748D01*
X163875Y58742D01*
X163937Y58732D01*
X163999Y58719D01*
X164059Y58701D01*
X164118Y58680D01*
X164176Y58655D01*
X164232Y58626D01*
X164286Y58594D01*
X164338Y58559D01*
X164387Y58521D01*
X164435Y58479D01*
X164479Y58435D01*
X164521Y58387D01*
X164559Y58338D01*
X164594Y58286D01*
X164626Y58232D01*
X164655Y58176D01*
X164680Y58118D01*
X164701Y58059D01*
X164719Y57999D01*
X164732Y57937D01*
X164742Y57875D01*
X164748Y57813D01*
X164750Y57750D01*
X164748Y57687D01*
X164742Y57625D01*
X164732Y57563D01*
X164719Y57501D01*
X164701Y57441D01*
X164680Y57382D01*
X164655Y57324D01*
X164626Y57268D01*
X164594Y57214D01*
X164559Y57162D01*
X164521Y57113D01*
X164479Y57065D01*
X164435Y57021D01*
X164387Y56979D01*
X164338Y56941D01*
X164286Y56906D01*
X164232Y56874D01*
X164176Y56845D01*
X164118Y56820D01*
X164059Y56799D01*
X163999Y56781D01*
X163937Y56768D01*
X163875Y56758D01*
X163813Y56752D01*
X163750Y56750D01*
X163687Y56752D01*
X163625Y56758D01*
X163563Y56768D01*
X163501Y56781D01*
X163441Y56799D01*
X163382Y56820D01*
X163324Y56845D01*
X163268Y56874D01*
X163214Y56906D01*
X163162Y56941D01*
X163113Y56979D01*
X163065Y57021D01*
X163021Y57065D01*
X162979Y57113D01*
X162941Y57162D01*
X162906Y57214D01*
X162874Y57268D01*
X162845Y57324D01*
X162820Y57382D01*
X162799Y57441D01*
X162781Y57501D01*
X162768Y57563D01*
X162758Y57625D01*
X162752Y57687D01*
X162750Y57750D01*
D10*
X168603Y76631D02*
X175969Y76631D01*
X168603Y76631D02*
X168603Y78677D01*
X168605Y78766D01*
X168611Y78855D01*
X168621Y78944D01*
X168634Y79032D01*
X168651Y79120D01*
X168673Y79207D01*
X168698Y79292D01*
X168726Y79377D01*
X168759Y79460D01*
X168795Y79542D01*
X168834Y79622D01*
X168877Y79700D01*
X168923Y79776D01*
X168973Y79851D01*
X169026Y79923D01*
X169082Y79992D01*
X169141Y80059D01*
X169202Y80124D01*
X169267Y80185D01*
X169334Y80244D01*
X169403Y80300D01*
X169475Y80353D01*
X169550Y80403D01*
X169626Y80449D01*
X169704Y80492D01*
X169784Y80531D01*
X169866Y80567D01*
X169949Y80600D01*
X170034Y80628D01*
X170119Y80653D01*
X170206Y80675D01*
X170294Y80692D01*
X170382Y80705D01*
X170471Y80715D01*
X170560Y80721D01*
X170649Y80723D01*
X173923Y80723D01*
X174012Y80721D01*
X174101Y80715D01*
X174190Y80705D01*
X174278Y80692D01*
X174366Y80675D01*
X174453Y80653D01*
X174538Y80628D01*
X174623Y80600D01*
X174706Y80567D01*
X174788Y80531D01*
X174868Y80492D01*
X174946Y80449D01*
X175022Y80403D01*
X175097Y80353D01*
X175169Y80300D01*
X175238Y80244D01*
X175305Y80185D01*
X175370Y80124D01*
X175431Y80059D01*
X175490Y79992D01*
X175546Y79923D01*
X175599Y79851D01*
X175649Y79776D01*
X175695Y79700D01*
X175738Y79622D01*
X175777Y79542D01*
X175813Y79460D01*
X175846Y79377D01*
X175874Y79292D01*
X175899Y79207D01*
X175921Y79120D01*
X175938Y79032D01*
X175951Y78944D01*
X175961Y78855D01*
X175967Y78766D01*
X175969Y78677D01*
X175969Y76631D01*
X174332Y84190D02*
X168603Y85827D01*
X174332Y84190D02*
X174332Y88282D01*
X172695Y87055D02*
X175969Y87055D01*
D14*
X217797Y89442D02*
X217797Y96046D01*
X219632Y96046D01*
X219717Y96044D01*
X219801Y96038D01*
X219885Y96028D01*
X219969Y96015D01*
X220052Y95997D01*
X220134Y95976D01*
X220215Y95951D01*
X220295Y95922D01*
X220373Y95890D01*
X220449Y95854D01*
X220524Y95814D01*
X220597Y95771D01*
X220668Y95725D01*
X220737Y95676D01*
X220804Y95623D01*
X220868Y95567D01*
X220929Y95509D01*
X220987Y95448D01*
X221043Y95384D01*
X221096Y95317D01*
X221145Y95248D01*
X221191Y95177D01*
X221234Y95104D01*
X221274Y95029D01*
X221310Y94953D01*
X221342Y94875D01*
X221371Y94795D01*
X221396Y94714D01*
X221417Y94632D01*
X221435Y94549D01*
X221448Y94465D01*
X221458Y94381D01*
X221464Y94297D01*
X221466Y94212D01*
X221464Y94127D01*
X221458Y94043D01*
X221448Y93959D01*
X221435Y93875D01*
X221417Y93792D01*
X221396Y93710D01*
X221371Y93629D01*
X221342Y93549D01*
X221310Y93471D01*
X221274Y93395D01*
X221234Y93320D01*
X221191Y93247D01*
X221145Y93176D01*
X221096Y93107D01*
X221043Y93040D01*
X220987Y92976D01*
X220929Y92915D01*
X220868Y92857D01*
X220804Y92801D01*
X220737Y92748D01*
X220668Y92699D01*
X220597Y92653D01*
X220524Y92610D01*
X220449Y92570D01*
X220373Y92534D01*
X220295Y92502D01*
X220215Y92473D01*
X220134Y92448D01*
X220052Y92427D01*
X219969Y92409D01*
X219885Y92396D01*
X219801Y92386D01*
X219717Y92380D01*
X219632Y92378D01*
X219632Y92377D02*
X217797Y92377D01*
X219999Y92377D02*
X221466Y89442D01*
X225034Y89442D02*
X226868Y89442D01*
X226953Y89444D01*
X227037Y89450D01*
X227121Y89460D01*
X227205Y89473D01*
X227288Y89491D01*
X227370Y89512D01*
X227451Y89537D01*
X227531Y89566D01*
X227609Y89598D01*
X227685Y89634D01*
X227760Y89674D01*
X227833Y89717D01*
X227904Y89763D01*
X227973Y89812D01*
X228040Y89865D01*
X228104Y89921D01*
X228165Y89979D01*
X228223Y90040D01*
X228279Y90104D01*
X228332Y90171D01*
X228381Y90240D01*
X228427Y90311D01*
X228470Y90384D01*
X228510Y90459D01*
X228546Y90535D01*
X228578Y90613D01*
X228607Y90693D01*
X228632Y90774D01*
X228653Y90856D01*
X228671Y90939D01*
X228684Y91023D01*
X228694Y91107D01*
X228700Y91191D01*
X228702Y91276D01*
X228700Y91361D01*
X228694Y91445D01*
X228684Y91529D01*
X228671Y91613D01*
X228653Y91696D01*
X228632Y91778D01*
X228607Y91859D01*
X228578Y91939D01*
X228546Y92017D01*
X228510Y92093D01*
X228470Y92168D01*
X228427Y92241D01*
X228381Y92312D01*
X228332Y92381D01*
X228279Y92448D01*
X228223Y92512D01*
X228165Y92573D01*
X228104Y92631D01*
X228040Y92687D01*
X227973Y92740D01*
X227904Y92789D01*
X227833Y92835D01*
X227760Y92878D01*
X227685Y92918D01*
X227609Y92954D01*
X227531Y92986D01*
X227451Y93015D01*
X227370Y93040D01*
X227288Y93061D01*
X227205Y93079D01*
X227121Y93092D01*
X227037Y93102D01*
X226953Y93108D01*
X226868Y93110D01*
X227235Y96046D02*
X225034Y96046D01*
X227235Y96046D02*
X227311Y96044D01*
X227386Y96038D01*
X227461Y96029D01*
X227535Y96015D01*
X227609Y95998D01*
X227681Y95976D01*
X227753Y95952D01*
X227823Y95923D01*
X227891Y95891D01*
X227958Y95856D01*
X228023Y95817D01*
X228086Y95774D01*
X228146Y95729D01*
X228204Y95681D01*
X228260Y95629D01*
X228312Y95575D01*
X228362Y95518D01*
X228409Y95459D01*
X228453Y95398D01*
X228494Y95334D01*
X228531Y95268D01*
X228565Y95200D01*
X228595Y95131D01*
X228622Y95060D01*
X228645Y94988D01*
X228664Y94915D01*
X228679Y94841D01*
X228691Y94766D01*
X228699Y94691D01*
X228703Y94616D01*
X228703Y94540D01*
X228699Y94465D01*
X228691Y94390D01*
X228679Y94315D01*
X228664Y94241D01*
X228645Y94168D01*
X228622Y94096D01*
X228595Y94025D01*
X228565Y93956D01*
X228531Y93888D01*
X228494Y93822D01*
X228453Y93758D01*
X228409Y93697D01*
X228362Y93638D01*
X228312Y93581D01*
X228260Y93527D01*
X228204Y93475D01*
X228146Y93427D01*
X228086Y93382D01*
X228023Y93339D01*
X227958Y93300D01*
X227891Y93265D01*
X227823Y93233D01*
X227753Y93204D01*
X227681Y93180D01*
X227609Y93158D01*
X227535Y93141D01*
X227461Y93127D01*
X227386Y93118D01*
X227311Y93112D01*
X227235Y93110D01*
X227235Y93111D02*
X225768Y93111D01*
X217697Y82446D02*
X217697Y75842D01*
X217697Y82446D02*
X219532Y82446D01*
X219617Y82444D01*
X219701Y82438D01*
X219785Y82428D01*
X219869Y82415D01*
X219952Y82397D01*
X220034Y82376D01*
X220115Y82351D01*
X220195Y82322D01*
X220273Y82290D01*
X220349Y82254D01*
X220424Y82214D01*
X220497Y82171D01*
X220568Y82125D01*
X220637Y82076D01*
X220704Y82023D01*
X220768Y81967D01*
X220829Y81909D01*
X220887Y81848D01*
X220943Y81784D01*
X220996Y81717D01*
X221045Y81648D01*
X221091Y81577D01*
X221134Y81504D01*
X221174Y81429D01*
X221210Y81353D01*
X221242Y81275D01*
X221271Y81195D01*
X221296Y81114D01*
X221317Y81032D01*
X221335Y80949D01*
X221348Y80865D01*
X221358Y80781D01*
X221364Y80697D01*
X221366Y80612D01*
X221364Y80527D01*
X221358Y80443D01*
X221348Y80359D01*
X221335Y80275D01*
X221317Y80192D01*
X221296Y80110D01*
X221271Y80029D01*
X221242Y79949D01*
X221210Y79871D01*
X221174Y79795D01*
X221134Y79720D01*
X221091Y79647D01*
X221045Y79576D01*
X220996Y79507D01*
X220943Y79440D01*
X220887Y79376D01*
X220829Y79315D01*
X220768Y79257D01*
X220704Y79201D01*
X220637Y79148D01*
X220568Y79099D01*
X220497Y79053D01*
X220424Y79010D01*
X220349Y78970D01*
X220273Y78934D01*
X220195Y78902D01*
X220115Y78873D01*
X220034Y78848D01*
X219952Y78827D01*
X219869Y78809D01*
X219785Y78796D01*
X219701Y78786D01*
X219617Y78780D01*
X219532Y78778D01*
X219532Y78777D02*
X217697Y78777D01*
X219899Y78777D02*
X221366Y75842D01*
X224934Y77310D02*
X226401Y82446D01*
X224934Y77310D02*
X228603Y77310D01*
X227502Y78777D02*
X227502Y75842D01*
D10*
X214155Y62081D02*
X212518Y62081D01*
X212440Y62083D01*
X212362Y62088D01*
X212285Y62098D01*
X212208Y62111D01*
X212132Y62127D01*
X212057Y62147D01*
X211983Y62171D01*
X211910Y62198D01*
X211838Y62229D01*
X211768Y62263D01*
X211700Y62300D01*
X211633Y62341D01*
X211568Y62385D01*
X211506Y62431D01*
X211446Y62481D01*
X211388Y62533D01*
X211333Y62588D01*
X211281Y62646D01*
X211231Y62706D01*
X211185Y62768D01*
X211141Y62833D01*
X211100Y62900D01*
X211063Y62968D01*
X211029Y63038D01*
X210998Y63110D01*
X210971Y63183D01*
X210947Y63257D01*
X210927Y63332D01*
X210911Y63408D01*
X210898Y63485D01*
X210888Y63562D01*
X210883Y63640D01*
X210881Y63718D01*
X210881Y67810D01*
X210883Y67890D01*
X210889Y67970D01*
X210899Y68050D01*
X210912Y68129D01*
X210930Y68208D01*
X210951Y68285D01*
X210977Y68361D01*
X211006Y68436D01*
X211038Y68510D01*
X211074Y68582D01*
X211114Y68652D01*
X211157Y68719D01*
X211203Y68785D01*
X211253Y68848D01*
X211305Y68909D01*
X211360Y68968D01*
X211419Y69023D01*
X211479Y69075D01*
X211543Y69125D01*
X211609Y69171D01*
X211676Y69214D01*
X211746Y69254D01*
X211818Y69290D01*
X211892Y69322D01*
X211966Y69351D01*
X212043Y69377D01*
X212120Y69398D01*
X212199Y69416D01*
X212278Y69429D01*
X212358Y69439D01*
X212438Y69445D01*
X212518Y69447D01*
X214155Y69447D01*
X217000Y67810D02*
X219046Y69447D01*
X219046Y62081D01*
X217000Y62081D02*
X221092Y62081D01*
X228545Y10953D02*
X230181Y10953D01*
X228545Y10953D02*
X228467Y10955D01*
X228389Y10960D01*
X228312Y10970D01*
X228235Y10983D01*
X228159Y10999D01*
X228084Y11019D01*
X228010Y11043D01*
X227937Y11070D01*
X227865Y11101D01*
X227795Y11135D01*
X227727Y11172D01*
X227660Y11213D01*
X227595Y11257D01*
X227533Y11303D01*
X227473Y11353D01*
X227415Y11405D01*
X227360Y11460D01*
X227308Y11518D01*
X227258Y11578D01*
X227212Y11640D01*
X227168Y11705D01*
X227127Y11772D01*
X227090Y11840D01*
X227056Y11910D01*
X227025Y11982D01*
X226998Y12055D01*
X226974Y12129D01*
X226954Y12204D01*
X226938Y12280D01*
X226925Y12357D01*
X226915Y12434D01*
X226910Y12512D01*
X226908Y12590D01*
X226908Y16682D01*
X226910Y16762D01*
X226916Y16842D01*
X226926Y16922D01*
X226939Y17001D01*
X226957Y17080D01*
X226978Y17157D01*
X227004Y17233D01*
X227033Y17308D01*
X227065Y17382D01*
X227101Y17454D01*
X227141Y17524D01*
X227184Y17591D01*
X227230Y17657D01*
X227280Y17720D01*
X227332Y17781D01*
X227387Y17840D01*
X227446Y17895D01*
X227506Y17947D01*
X227570Y17997D01*
X227636Y18043D01*
X227703Y18086D01*
X227773Y18126D01*
X227845Y18162D01*
X227919Y18194D01*
X227993Y18223D01*
X228070Y18249D01*
X228147Y18270D01*
X228226Y18288D01*
X228305Y18301D01*
X228385Y18311D01*
X228465Y18317D01*
X228545Y18319D01*
X230181Y18319D01*
X235278Y18320D02*
X235363Y18318D01*
X235448Y18312D01*
X235532Y18302D01*
X235616Y18289D01*
X235700Y18271D01*
X235782Y18250D01*
X235863Y18225D01*
X235943Y18196D01*
X236022Y18163D01*
X236099Y18127D01*
X236174Y18087D01*
X236248Y18044D01*
X236319Y17998D01*
X236388Y17948D01*
X236455Y17895D01*
X236519Y17839D01*
X236580Y17780D01*
X236639Y17719D01*
X236695Y17655D01*
X236748Y17588D01*
X236798Y17519D01*
X236844Y17448D01*
X236887Y17374D01*
X236927Y17299D01*
X236963Y17222D01*
X236996Y17143D01*
X237025Y17063D01*
X237050Y16982D01*
X237071Y16900D01*
X237089Y16816D01*
X237102Y16732D01*
X237112Y16648D01*
X237118Y16563D01*
X237120Y16478D01*
X235278Y18319D02*
X235182Y18317D01*
X235086Y18311D01*
X234991Y18301D01*
X234896Y18288D01*
X234801Y18270D01*
X234708Y18249D01*
X234615Y18224D01*
X234524Y18195D01*
X234433Y18163D01*
X234344Y18127D01*
X234257Y18087D01*
X234171Y18044D01*
X234087Y17998D01*
X234005Y17948D01*
X233925Y17894D01*
X233848Y17838D01*
X233773Y17778D01*
X233700Y17716D01*
X233630Y17650D01*
X233562Y17582D01*
X233497Y17511D01*
X233436Y17438D01*
X233377Y17362D01*
X233321Y17283D01*
X233269Y17203D01*
X233220Y17120D01*
X233174Y17036D01*
X233132Y16950D01*
X233094Y16862D01*
X233059Y16773D01*
X233027Y16682D01*
X236505Y15046D02*
X236565Y15105D01*
X236622Y15167D01*
X236677Y15231D01*
X236728Y15298D01*
X236777Y15367D01*
X236823Y15437D01*
X236866Y15510D01*
X236906Y15584D01*
X236942Y15660D01*
X236975Y15738D01*
X237005Y15817D01*
X237032Y15897D01*
X237055Y15978D01*
X237074Y16060D01*
X237090Y16142D01*
X237103Y16226D01*
X237112Y16310D01*
X237117Y16394D01*
X237119Y16478D01*
X236505Y15045D02*
X233027Y10953D01*
X237119Y10953D01*
D16*
X140000Y12775D02*
X6650Y12775D01*
X6650Y133425D01*
X140000Y133425D01*
M02*
