G04 EAGLE Gerber RS-274X export*
G75*
%MOMM*%
%FSLAX34Y34*%
%LPD*%
%INSilkscreen Bottom*%
%IPPOS*%
%AMOC8*
5,1,8,0,0,1.08239X$1,22.5*%
G01*
%ADD10C,0.127000*%


D10*
X287980Y17311D02*
X287980Y18454D01*
X284170Y18454D01*
X284170Y16168D01*
X284172Y16091D01*
X284178Y16014D01*
X284188Y15937D01*
X284201Y15861D01*
X284219Y15786D01*
X284240Y15712D01*
X284265Y15639D01*
X284294Y15567D01*
X284326Y15497D01*
X284361Y15428D01*
X284401Y15362D01*
X284443Y15297D01*
X284489Y15235D01*
X284538Y15175D01*
X284589Y15118D01*
X284644Y15063D01*
X284701Y15012D01*
X284761Y14963D01*
X284823Y14917D01*
X284888Y14875D01*
X284954Y14835D01*
X285023Y14800D01*
X285093Y14768D01*
X285165Y14739D01*
X285238Y14714D01*
X285312Y14693D01*
X285387Y14675D01*
X285463Y14662D01*
X285540Y14652D01*
X285617Y14646D01*
X285694Y14644D01*
X289504Y14644D01*
X289581Y14646D01*
X289658Y14652D01*
X289735Y14662D01*
X289811Y14675D01*
X289886Y14693D01*
X289960Y14714D01*
X290033Y14739D01*
X290105Y14768D01*
X290175Y14800D01*
X290244Y14835D01*
X290310Y14875D01*
X290375Y14917D01*
X290437Y14963D01*
X290497Y15012D01*
X290554Y15063D01*
X290609Y15118D01*
X290660Y15175D01*
X290709Y15235D01*
X290755Y15297D01*
X290797Y15362D01*
X290837Y15428D01*
X290872Y15497D01*
X290904Y15567D01*
X290933Y15639D01*
X290958Y15712D01*
X290979Y15786D01*
X290997Y15861D01*
X291010Y15937D01*
X291020Y16014D01*
X291026Y16091D01*
X291028Y16168D01*
X291028Y18454D01*
X291028Y22447D02*
X284170Y22447D01*
X284170Y26257D02*
X291028Y22447D01*
X291028Y26257D02*
X284170Y26257D01*
X284170Y30250D02*
X291028Y30250D01*
X291028Y32155D01*
X291026Y32240D01*
X291020Y32326D01*
X291011Y32411D01*
X290997Y32495D01*
X290980Y32579D01*
X290959Y32662D01*
X290935Y32744D01*
X290907Y32824D01*
X290875Y32904D01*
X290839Y32982D01*
X290801Y33058D01*
X290758Y33132D01*
X290713Y33204D01*
X290664Y33275D01*
X290612Y33343D01*
X290558Y33408D01*
X290500Y33471D01*
X290439Y33532D01*
X290376Y33590D01*
X290311Y33644D01*
X290243Y33696D01*
X290172Y33745D01*
X290100Y33790D01*
X290026Y33833D01*
X289950Y33871D01*
X289872Y33907D01*
X289792Y33939D01*
X289712Y33967D01*
X289630Y33991D01*
X289547Y34012D01*
X289463Y34029D01*
X289379Y34043D01*
X289294Y34052D01*
X289208Y34058D01*
X289123Y34060D01*
X286075Y34060D01*
X285990Y34058D01*
X285904Y34052D01*
X285819Y34043D01*
X285735Y34029D01*
X285651Y34012D01*
X285568Y33991D01*
X285486Y33967D01*
X285406Y33939D01*
X285326Y33907D01*
X285248Y33871D01*
X285172Y33833D01*
X285098Y33790D01*
X285026Y33745D01*
X284955Y33696D01*
X284887Y33644D01*
X284822Y33590D01*
X284759Y33532D01*
X284698Y33471D01*
X284640Y33408D01*
X284586Y33343D01*
X284534Y33275D01*
X284485Y33204D01*
X284440Y33132D01*
X284397Y33058D01*
X284359Y32982D01*
X284323Y32904D01*
X284291Y32824D01*
X284263Y32744D01*
X284239Y32662D01*
X284218Y32579D01*
X284201Y32495D01*
X284187Y32411D01*
X284178Y32326D01*
X284172Y32240D01*
X284170Y32155D01*
X284170Y30250D01*
X296170Y17525D02*
X296170Y15620D01*
X296170Y17525D02*
X296172Y17610D01*
X296178Y17696D01*
X296187Y17781D01*
X296201Y17865D01*
X296218Y17949D01*
X296239Y18032D01*
X296263Y18114D01*
X296291Y18194D01*
X296323Y18274D01*
X296359Y18352D01*
X296397Y18428D01*
X296440Y18502D01*
X296485Y18574D01*
X296534Y18645D01*
X296586Y18713D01*
X296640Y18778D01*
X296698Y18841D01*
X296759Y18902D01*
X296822Y18960D01*
X296887Y19014D01*
X296955Y19066D01*
X297026Y19115D01*
X297098Y19160D01*
X297172Y19203D01*
X297248Y19241D01*
X297326Y19277D01*
X297406Y19309D01*
X297486Y19337D01*
X297568Y19361D01*
X297651Y19382D01*
X297735Y19399D01*
X297819Y19413D01*
X297904Y19422D01*
X297990Y19428D01*
X298075Y19430D01*
X298160Y19428D01*
X298246Y19422D01*
X298331Y19413D01*
X298415Y19399D01*
X298499Y19382D01*
X298582Y19361D01*
X298664Y19337D01*
X298744Y19309D01*
X298824Y19277D01*
X298902Y19241D01*
X298978Y19203D01*
X299052Y19160D01*
X299124Y19115D01*
X299195Y19066D01*
X299263Y19014D01*
X299328Y18960D01*
X299391Y18902D01*
X299452Y18841D01*
X299510Y18778D01*
X299564Y18713D01*
X299616Y18645D01*
X299665Y18574D01*
X299710Y18502D01*
X299753Y18428D01*
X299791Y18352D01*
X299827Y18274D01*
X299859Y18194D01*
X299887Y18114D01*
X299911Y18032D01*
X299932Y17949D01*
X299949Y17865D01*
X299963Y17781D01*
X299972Y17696D01*
X299978Y17610D01*
X299980Y17525D01*
X303028Y17906D02*
X303028Y15620D01*
X303028Y17906D02*
X303026Y17983D01*
X303020Y18060D01*
X303010Y18137D01*
X302997Y18213D01*
X302979Y18288D01*
X302958Y18362D01*
X302933Y18435D01*
X302904Y18507D01*
X302872Y18577D01*
X302837Y18646D01*
X302797Y18712D01*
X302755Y18777D01*
X302709Y18839D01*
X302660Y18899D01*
X302609Y18956D01*
X302554Y19011D01*
X302497Y19062D01*
X302437Y19111D01*
X302375Y19157D01*
X302310Y19199D01*
X302244Y19239D01*
X302175Y19274D01*
X302105Y19306D01*
X302033Y19335D01*
X301960Y19360D01*
X301886Y19381D01*
X301811Y19399D01*
X301735Y19412D01*
X301658Y19422D01*
X301581Y19428D01*
X301504Y19430D01*
X301427Y19428D01*
X301350Y19422D01*
X301273Y19412D01*
X301197Y19399D01*
X301122Y19381D01*
X301048Y19360D01*
X300975Y19335D01*
X300903Y19306D01*
X300833Y19274D01*
X300764Y19239D01*
X300698Y19199D01*
X300633Y19157D01*
X300571Y19111D01*
X300511Y19062D01*
X300454Y19011D01*
X300399Y18956D01*
X300348Y18899D01*
X300299Y18839D01*
X300253Y18777D01*
X300211Y18712D01*
X300171Y18646D01*
X300136Y18577D01*
X300104Y18507D01*
X300075Y18435D01*
X300050Y18362D01*
X300029Y18288D01*
X300011Y18213D01*
X299998Y18137D01*
X299988Y18060D01*
X299982Y17983D01*
X299980Y17906D01*
X299980Y16382D01*
X303028Y22554D02*
X296170Y24840D01*
X303028Y27126D01*
X296170Y30250D02*
X296170Y32155D01*
X296172Y32240D01*
X296178Y32326D01*
X296187Y32411D01*
X296201Y32495D01*
X296218Y32579D01*
X296239Y32662D01*
X296263Y32744D01*
X296291Y32824D01*
X296323Y32904D01*
X296359Y32982D01*
X296397Y33058D01*
X296440Y33132D01*
X296485Y33204D01*
X296534Y33275D01*
X296586Y33343D01*
X296640Y33408D01*
X296698Y33471D01*
X296759Y33532D01*
X296822Y33590D01*
X296887Y33644D01*
X296955Y33696D01*
X297026Y33745D01*
X297098Y33790D01*
X297172Y33833D01*
X297248Y33871D01*
X297326Y33907D01*
X297406Y33939D01*
X297486Y33967D01*
X297568Y33991D01*
X297651Y34012D01*
X297735Y34029D01*
X297819Y34043D01*
X297904Y34052D01*
X297990Y34058D01*
X298075Y34060D01*
X298160Y34058D01*
X298246Y34052D01*
X298331Y34043D01*
X298415Y34029D01*
X298499Y34012D01*
X298582Y33991D01*
X298664Y33967D01*
X298744Y33939D01*
X298824Y33907D01*
X298902Y33871D01*
X298978Y33833D01*
X299052Y33790D01*
X299124Y33745D01*
X299195Y33696D01*
X299263Y33644D01*
X299328Y33590D01*
X299391Y33532D01*
X299452Y33471D01*
X299510Y33408D01*
X299564Y33343D01*
X299616Y33275D01*
X299665Y33204D01*
X299710Y33132D01*
X299753Y33058D01*
X299791Y32982D01*
X299827Y32904D01*
X299859Y32824D01*
X299887Y32744D01*
X299911Y32662D01*
X299932Y32579D01*
X299949Y32495D01*
X299963Y32411D01*
X299972Y32326D01*
X299978Y32240D01*
X299980Y32155D01*
X303028Y32536D02*
X303028Y30250D01*
X303028Y32536D02*
X303026Y32613D01*
X303020Y32690D01*
X303010Y32767D01*
X302997Y32843D01*
X302979Y32918D01*
X302958Y32992D01*
X302933Y33065D01*
X302904Y33137D01*
X302872Y33207D01*
X302837Y33276D01*
X302797Y33342D01*
X302755Y33407D01*
X302709Y33469D01*
X302660Y33529D01*
X302609Y33586D01*
X302554Y33641D01*
X302497Y33692D01*
X302437Y33741D01*
X302375Y33787D01*
X302310Y33829D01*
X302244Y33869D01*
X302175Y33904D01*
X302105Y33936D01*
X302033Y33965D01*
X301960Y33990D01*
X301886Y34011D01*
X301811Y34029D01*
X301735Y34042D01*
X301658Y34052D01*
X301581Y34058D01*
X301504Y34060D01*
X301427Y34058D01*
X301350Y34052D01*
X301273Y34042D01*
X301197Y34029D01*
X301122Y34011D01*
X301048Y33990D01*
X300975Y33965D01*
X300903Y33936D01*
X300833Y33904D01*
X300764Y33869D01*
X300698Y33829D01*
X300633Y33787D01*
X300571Y33741D01*
X300511Y33692D01*
X300454Y33641D01*
X300399Y33586D01*
X300348Y33529D01*
X300299Y33469D01*
X300253Y33407D01*
X300211Y33342D01*
X300171Y33276D01*
X300136Y33207D01*
X300104Y33137D01*
X300075Y33065D01*
X300050Y32992D01*
X300029Y32918D01*
X300011Y32843D01*
X299998Y32767D01*
X299988Y32690D01*
X299982Y32613D01*
X299980Y32536D01*
X299980Y31012D01*
X311694Y17935D02*
X311617Y17933D01*
X311540Y17927D01*
X311463Y17917D01*
X311387Y17904D01*
X311312Y17886D01*
X311238Y17865D01*
X311165Y17840D01*
X311093Y17811D01*
X311023Y17779D01*
X310954Y17744D01*
X310888Y17704D01*
X310823Y17662D01*
X310761Y17616D01*
X310701Y17567D01*
X310644Y17516D01*
X310589Y17461D01*
X310538Y17404D01*
X310489Y17344D01*
X310443Y17282D01*
X310401Y17217D01*
X310361Y17151D01*
X310326Y17082D01*
X310294Y17012D01*
X310265Y16940D01*
X310240Y16867D01*
X310219Y16793D01*
X310201Y16718D01*
X310188Y16642D01*
X310178Y16565D01*
X310172Y16488D01*
X310170Y16411D01*
X310172Y16301D01*
X310178Y16190D01*
X310187Y16080D01*
X310200Y15970D01*
X310217Y15861D01*
X310238Y15753D01*
X310262Y15645D01*
X310291Y15538D01*
X310322Y15432D01*
X310358Y15328D01*
X310397Y15224D01*
X310439Y15122D01*
X310485Y15022D01*
X310535Y14923D01*
X310587Y14826D01*
X310644Y14730D01*
X310703Y14637D01*
X310765Y14546D01*
X310831Y14457D01*
X310899Y14370D01*
X310971Y14286D01*
X311045Y14204D01*
X311122Y14125D01*
X315504Y14316D02*
X315581Y14318D01*
X315658Y14324D01*
X315735Y14334D01*
X315811Y14347D01*
X315886Y14365D01*
X315960Y14386D01*
X316033Y14411D01*
X316105Y14440D01*
X316175Y14472D01*
X316244Y14507D01*
X316310Y14547D01*
X316375Y14589D01*
X316437Y14635D01*
X316497Y14684D01*
X316554Y14735D01*
X316609Y14790D01*
X316660Y14847D01*
X316709Y14907D01*
X316755Y14969D01*
X316797Y15034D01*
X316837Y15100D01*
X316872Y15169D01*
X316904Y15239D01*
X316933Y15311D01*
X316958Y15384D01*
X316979Y15458D01*
X316997Y15533D01*
X317010Y15609D01*
X317020Y15686D01*
X317026Y15763D01*
X317028Y15840D01*
X317026Y15942D01*
X317021Y16044D01*
X317012Y16146D01*
X316999Y16247D01*
X316982Y16348D01*
X316963Y16448D01*
X316939Y16548D01*
X316912Y16646D01*
X316881Y16744D01*
X316847Y16840D01*
X316810Y16935D01*
X316769Y17029D01*
X316725Y17121D01*
X316677Y17211D01*
X316627Y17300D01*
X316573Y17387D01*
X316516Y17472D01*
X316456Y17555D01*
X314170Y15077D02*
X314211Y15012D01*
X314254Y14949D01*
X314301Y14889D01*
X314351Y14830D01*
X314403Y14775D01*
X314458Y14722D01*
X314516Y14671D01*
X314576Y14624D01*
X314639Y14580D01*
X314703Y14538D01*
X314769Y14500D01*
X314838Y14466D01*
X314908Y14435D01*
X314979Y14407D01*
X315051Y14383D01*
X315125Y14362D01*
X315200Y14345D01*
X315275Y14332D01*
X315351Y14323D01*
X315427Y14317D01*
X315504Y14315D01*
X313028Y17173D02*
X312987Y17238D01*
X312944Y17301D01*
X312897Y17361D01*
X312847Y17420D01*
X312795Y17475D01*
X312740Y17528D01*
X312682Y17579D01*
X312622Y17626D01*
X312559Y17670D01*
X312495Y17712D01*
X312429Y17750D01*
X312360Y17784D01*
X312290Y17815D01*
X312219Y17843D01*
X312147Y17867D01*
X312073Y17888D01*
X311998Y17905D01*
X311923Y17918D01*
X311847Y17927D01*
X311771Y17933D01*
X311694Y17935D01*
X313027Y17173D02*
X314170Y15078D01*
X317028Y21029D02*
X310170Y22553D01*
X314742Y24077D01*
X310170Y25601D01*
X317028Y27125D01*
X310170Y31955D02*
X310170Y33479D01*
X310170Y31955D02*
X310172Y31878D01*
X310178Y31801D01*
X310188Y31724D01*
X310201Y31648D01*
X310219Y31573D01*
X310240Y31499D01*
X310265Y31426D01*
X310294Y31354D01*
X310326Y31284D01*
X310361Y31215D01*
X310401Y31149D01*
X310443Y31084D01*
X310489Y31022D01*
X310538Y30962D01*
X310589Y30905D01*
X310644Y30850D01*
X310701Y30799D01*
X310761Y30750D01*
X310823Y30704D01*
X310888Y30662D01*
X310954Y30622D01*
X311023Y30587D01*
X311093Y30555D01*
X311165Y30526D01*
X311238Y30501D01*
X311312Y30480D01*
X311387Y30462D01*
X311463Y30449D01*
X311540Y30439D01*
X311617Y30433D01*
X311694Y30431D01*
X315504Y30431D01*
X315581Y30433D01*
X315658Y30439D01*
X315735Y30449D01*
X315811Y30462D01*
X315886Y30480D01*
X315960Y30501D01*
X316033Y30526D01*
X316105Y30555D01*
X316175Y30587D01*
X316244Y30622D01*
X316310Y30662D01*
X316375Y30704D01*
X316437Y30750D01*
X316497Y30799D01*
X316554Y30850D01*
X316609Y30905D01*
X316660Y30962D01*
X316709Y31022D01*
X316755Y31084D01*
X316797Y31149D01*
X316837Y31215D01*
X316872Y31284D01*
X316904Y31354D01*
X316933Y31426D01*
X316958Y31499D01*
X316979Y31573D01*
X316997Y31648D01*
X317010Y31724D01*
X317020Y31801D01*
X317026Y31878D01*
X317028Y31955D01*
X317028Y33479D01*
X317790Y39256D02*
X309408Y36208D01*
X310170Y43828D02*
X317028Y43828D01*
X317028Y41923D02*
X317028Y45733D01*
X310170Y50243D02*
X310170Y51767D01*
X310170Y50243D02*
X310172Y50166D01*
X310178Y50089D01*
X310188Y50012D01*
X310201Y49936D01*
X310219Y49861D01*
X310240Y49787D01*
X310265Y49714D01*
X310294Y49642D01*
X310326Y49572D01*
X310361Y49503D01*
X310401Y49437D01*
X310443Y49372D01*
X310489Y49310D01*
X310538Y49250D01*
X310589Y49193D01*
X310644Y49138D01*
X310701Y49087D01*
X310761Y49038D01*
X310823Y48992D01*
X310888Y48950D01*
X310954Y48910D01*
X311023Y48875D01*
X311093Y48843D01*
X311165Y48814D01*
X311238Y48789D01*
X311312Y48768D01*
X311387Y48750D01*
X311463Y48737D01*
X311540Y48727D01*
X311617Y48721D01*
X311694Y48719D01*
X315504Y48719D01*
X315581Y48721D01*
X315658Y48727D01*
X315735Y48737D01*
X315811Y48750D01*
X315886Y48768D01*
X315960Y48789D01*
X316033Y48814D01*
X316105Y48843D01*
X316175Y48875D01*
X316244Y48910D01*
X316310Y48950D01*
X316375Y48992D01*
X316437Y49038D01*
X316497Y49087D01*
X316554Y49138D01*
X316609Y49193D01*
X316660Y49250D01*
X316709Y49310D01*
X316755Y49372D01*
X316797Y49437D01*
X316837Y49503D01*
X316872Y49572D01*
X316904Y49642D01*
X316933Y49714D01*
X316958Y49787D01*
X316979Y49861D01*
X316997Y49936D01*
X317010Y50012D01*
X317020Y50089D01*
X317026Y50166D01*
X317028Y50243D01*
X317028Y51767D01*
X317028Y55250D02*
X310170Y55250D01*
X312837Y55250D02*
X317028Y59060D01*
X314361Y56774D02*
X310170Y59060D01*
X324694Y17194D02*
X324617Y17192D01*
X324540Y17186D01*
X324463Y17176D01*
X324387Y17163D01*
X324312Y17145D01*
X324238Y17124D01*
X324165Y17099D01*
X324093Y17070D01*
X324023Y17038D01*
X323954Y17003D01*
X323888Y16963D01*
X323823Y16921D01*
X323761Y16875D01*
X323701Y16826D01*
X323644Y16775D01*
X323589Y16720D01*
X323538Y16663D01*
X323489Y16603D01*
X323443Y16541D01*
X323401Y16476D01*
X323361Y16410D01*
X323326Y16341D01*
X323294Y16271D01*
X323265Y16199D01*
X323240Y16126D01*
X323219Y16052D01*
X323201Y15977D01*
X323188Y15901D01*
X323178Y15824D01*
X323172Y15747D01*
X323170Y15670D01*
X323172Y15560D01*
X323178Y15449D01*
X323187Y15339D01*
X323200Y15229D01*
X323217Y15120D01*
X323238Y15012D01*
X323262Y14904D01*
X323291Y14797D01*
X323322Y14691D01*
X323358Y14587D01*
X323397Y14483D01*
X323439Y14381D01*
X323485Y14281D01*
X323535Y14182D01*
X323587Y14085D01*
X323644Y13989D01*
X323703Y13896D01*
X323765Y13805D01*
X323831Y13716D01*
X323899Y13629D01*
X323971Y13545D01*
X324045Y13463D01*
X324122Y13384D01*
X328504Y13574D02*
X328581Y13576D01*
X328658Y13582D01*
X328735Y13592D01*
X328811Y13605D01*
X328886Y13623D01*
X328960Y13644D01*
X329033Y13669D01*
X329105Y13698D01*
X329175Y13730D01*
X329244Y13765D01*
X329310Y13805D01*
X329375Y13847D01*
X329437Y13893D01*
X329497Y13942D01*
X329554Y13993D01*
X329609Y14048D01*
X329660Y14105D01*
X329709Y14165D01*
X329755Y14227D01*
X329797Y14292D01*
X329837Y14358D01*
X329872Y14427D01*
X329904Y14497D01*
X329933Y14569D01*
X329958Y14642D01*
X329979Y14716D01*
X329997Y14791D01*
X330010Y14867D01*
X330020Y14944D01*
X330026Y15021D01*
X330028Y15098D01*
X330026Y15200D01*
X330021Y15302D01*
X330012Y15404D01*
X329999Y15505D01*
X329982Y15606D01*
X329963Y15706D01*
X329939Y15806D01*
X329912Y15904D01*
X329881Y16002D01*
X329847Y16098D01*
X329810Y16193D01*
X329769Y16287D01*
X329725Y16379D01*
X329677Y16469D01*
X329627Y16558D01*
X329573Y16645D01*
X329516Y16730D01*
X329456Y16813D01*
X327170Y14336D02*
X327211Y14271D01*
X327254Y14208D01*
X327301Y14148D01*
X327351Y14089D01*
X327403Y14034D01*
X327458Y13981D01*
X327516Y13930D01*
X327576Y13883D01*
X327639Y13839D01*
X327703Y13797D01*
X327769Y13759D01*
X327838Y13725D01*
X327908Y13694D01*
X327979Y13666D01*
X328051Y13642D01*
X328125Y13621D01*
X328200Y13604D01*
X328275Y13591D01*
X328351Y13582D01*
X328427Y13576D01*
X328504Y13574D01*
X326028Y16432D02*
X325987Y16497D01*
X325944Y16560D01*
X325897Y16620D01*
X325847Y16679D01*
X325795Y16734D01*
X325740Y16787D01*
X325682Y16838D01*
X325622Y16885D01*
X325559Y16929D01*
X325495Y16971D01*
X325429Y17009D01*
X325360Y17043D01*
X325290Y17074D01*
X325219Y17102D01*
X325147Y17126D01*
X325073Y17147D01*
X324998Y17164D01*
X324923Y17177D01*
X324847Y17186D01*
X324771Y17192D01*
X324694Y17194D01*
X326027Y16432D02*
X327170Y14336D01*
X330028Y20287D02*
X323170Y21811D01*
X327742Y23335D01*
X323170Y24859D01*
X330028Y26383D01*
X330028Y29965D02*
X323170Y29965D01*
X330028Y29965D02*
X330028Y31870D01*
X330026Y31955D01*
X330020Y32041D01*
X330011Y32126D01*
X329997Y32210D01*
X329980Y32294D01*
X329959Y32377D01*
X329935Y32459D01*
X329907Y32539D01*
X329875Y32619D01*
X329839Y32697D01*
X329801Y32773D01*
X329758Y32847D01*
X329713Y32919D01*
X329664Y32990D01*
X329612Y33058D01*
X329558Y33123D01*
X329500Y33186D01*
X329439Y33247D01*
X329376Y33305D01*
X329311Y33359D01*
X329243Y33411D01*
X329172Y33460D01*
X329100Y33505D01*
X329026Y33548D01*
X328950Y33586D01*
X328872Y33622D01*
X328792Y33654D01*
X328712Y33682D01*
X328630Y33706D01*
X328547Y33727D01*
X328463Y33744D01*
X328379Y33758D01*
X328294Y33767D01*
X328208Y33773D01*
X328123Y33775D01*
X325075Y33775D01*
X324990Y33773D01*
X324904Y33767D01*
X324819Y33758D01*
X324735Y33744D01*
X324651Y33727D01*
X324568Y33706D01*
X324486Y33682D01*
X324406Y33654D01*
X324326Y33622D01*
X324248Y33586D01*
X324172Y33548D01*
X324098Y33505D01*
X324026Y33460D01*
X323955Y33411D01*
X323887Y33359D01*
X323822Y33305D01*
X323759Y33247D01*
X323698Y33186D01*
X323640Y33123D01*
X323586Y33058D01*
X323534Y32990D01*
X323485Y32919D01*
X323440Y32847D01*
X323397Y32773D01*
X323359Y32697D01*
X323323Y32619D01*
X323291Y32539D01*
X323263Y32459D01*
X323239Y32377D01*
X323218Y32294D01*
X323201Y32210D01*
X323187Y32126D01*
X323178Y32041D01*
X323172Y31955D01*
X323170Y31870D01*
X323170Y29965D01*
X322408Y37173D02*
X330790Y40221D01*
X330028Y44793D02*
X323170Y44793D01*
X330028Y42888D02*
X330028Y46698D01*
X330028Y50066D02*
X323170Y50066D01*
X326218Y52352D02*
X330028Y50066D01*
X326218Y52352D02*
X330028Y54638D01*
X323170Y54638D01*
X323170Y60536D02*
X323172Y60613D01*
X323178Y60690D01*
X323188Y60767D01*
X323201Y60843D01*
X323219Y60918D01*
X323240Y60992D01*
X323265Y61065D01*
X323294Y61137D01*
X323326Y61207D01*
X323361Y61276D01*
X323401Y61342D01*
X323443Y61407D01*
X323489Y61469D01*
X323538Y61529D01*
X323589Y61586D01*
X323644Y61641D01*
X323701Y61692D01*
X323761Y61741D01*
X323823Y61787D01*
X323888Y61829D01*
X323954Y61869D01*
X324023Y61904D01*
X324093Y61936D01*
X324165Y61965D01*
X324238Y61990D01*
X324312Y62011D01*
X324387Y62029D01*
X324463Y62042D01*
X324540Y62052D01*
X324617Y62058D01*
X324694Y62060D01*
X323170Y60536D02*
X323172Y60426D01*
X323178Y60315D01*
X323187Y60205D01*
X323200Y60095D01*
X323217Y59986D01*
X323238Y59878D01*
X323262Y59770D01*
X323291Y59663D01*
X323322Y59557D01*
X323358Y59453D01*
X323397Y59349D01*
X323439Y59247D01*
X323485Y59147D01*
X323535Y59048D01*
X323587Y58951D01*
X323644Y58855D01*
X323703Y58762D01*
X323765Y58671D01*
X323831Y58582D01*
X323899Y58495D01*
X323971Y58411D01*
X324045Y58329D01*
X324122Y58250D01*
X328504Y58441D02*
X328581Y58443D01*
X328658Y58449D01*
X328735Y58459D01*
X328811Y58472D01*
X328886Y58490D01*
X328960Y58511D01*
X329033Y58536D01*
X329105Y58565D01*
X329175Y58597D01*
X329244Y58632D01*
X329310Y58672D01*
X329375Y58714D01*
X329437Y58760D01*
X329497Y58809D01*
X329554Y58860D01*
X329609Y58915D01*
X329660Y58972D01*
X329709Y59032D01*
X329755Y59094D01*
X329797Y59159D01*
X329837Y59225D01*
X329872Y59294D01*
X329904Y59364D01*
X329933Y59436D01*
X329958Y59509D01*
X329979Y59583D01*
X329997Y59658D01*
X330010Y59734D01*
X330020Y59811D01*
X330026Y59888D01*
X330028Y59965D01*
X330026Y60067D01*
X330021Y60169D01*
X330012Y60271D01*
X329999Y60372D01*
X329982Y60473D01*
X329963Y60573D01*
X329939Y60673D01*
X329912Y60771D01*
X329881Y60869D01*
X329847Y60965D01*
X329810Y61060D01*
X329769Y61154D01*
X329725Y61246D01*
X329677Y61336D01*
X329627Y61425D01*
X329573Y61512D01*
X329516Y61597D01*
X329456Y61680D01*
X327170Y59202D02*
X327211Y59137D01*
X327254Y59074D01*
X327301Y59014D01*
X327351Y58955D01*
X327403Y58900D01*
X327458Y58847D01*
X327516Y58796D01*
X327576Y58749D01*
X327639Y58705D01*
X327703Y58663D01*
X327769Y58625D01*
X327838Y58591D01*
X327908Y58560D01*
X327979Y58532D01*
X328051Y58508D01*
X328125Y58487D01*
X328200Y58470D01*
X328275Y58457D01*
X328351Y58448D01*
X328427Y58442D01*
X328504Y58440D01*
X326028Y61298D02*
X325987Y61363D01*
X325944Y61426D01*
X325897Y61486D01*
X325847Y61545D01*
X325795Y61600D01*
X325740Y61653D01*
X325682Y61704D01*
X325622Y61751D01*
X325559Y61795D01*
X325495Y61837D01*
X325429Y61875D01*
X325360Y61909D01*
X325290Y61940D01*
X325219Y61968D01*
X325147Y61992D01*
X325073Y62013D01*
X324998Y62030D01*
X324923Y62043D01*
X324847Y62052D01*
X324771Y62058D01*
X324694Y62060D01*
X326027Y61298D02*
X327170Y59203D01*
X347170Y15525D02*
X354028Y15525D01*
X354028Y13620D02*
X354028Y17430D01*
X354028Y20691D02*
X347170Y20691D01*
X354028Y20691D02*
X354028Y22596D01*
X354026Y22681D01*
X354020Y22767D01*
X354011Y22852D01*
X353997Y22936D01*
X353980Y23020D01*
X353959Y23103D01*
X353935Y23185D01*
X353907Y23265D01*
X353875Y23345D01*
X353839Y23423D01*
X353801Y23499D01*
X353758Y23573D01*
X353713Y23645D01*
X353664Y23716D01*
X353612Y23784D01*
X353558Y23849D01*
X353500Y23912D01*
X353439Y23973D01*
X353376Y24031D01*
X353311Y24085D01*
X353243Y24137D01*
X353172Y24186D01*
X353100Y24231D01*
X353026Y24274D01*
X352950Y24312D01*
X352872Y24348D01*
X352792Y24380D01*
X352712Y24408D01*
X352630Y24432D01*
X352547Y24453D01*
X352463Y24470D01*
X352379Y24484D01*
X352294Y24493D01*
X352208Y24499D01*
X352123Y24501D01*
X349075Y24501D01*
X348990Y24499D01*
X348904Y24493D01*
X348819Y24484D01*
X348735Y24470D01*
X348651Y24453D01*
X348568Y24432D01*
X348486Y24408D01*
X348406Y24380D01*
X348326Y24348D01*
X348248Y24312D01*
X348172Y24274D01*
X348098Y24231D01*
X348026Y24186D01*
X347955Y24137D01*
X347887Y24085D01*
X347822Y24031D01*
X347759Y23973D01*
X347698Y23912D01*
X347640Y23849D01*
X347586Y23784D01*
X347534Y23716D01*
X347485Y23645D01*
X347440Y23573D01*
X347397Y23499D01*
X347359Y23423D01*
X347323Y23345D01*
X347291Y23265D01*
X347263Y23185D01*
X347239Y23103D01*
X347218Y23020D01*
X347201Y22936D01*
X347187Y22852D01*
X347178Y22767D01*
X347172Y22681D01*
X347170Y22596D01*
X347170Y20691D01*
X349075Y28250D02*
X352123Y28250D01*
X352208Y28252D01*
X352294Y28258D01*
X352379Y28267D01*
X352463Y28281D01*
X352547Y28298D01*
X352630Y28319D01*
X352712Y28343D01*
X352792Y28371D01*
X352872Y28403D01*
X352950Y28439D01*
X353026Y28477D01*
X353100Y28520D01*
X353172Y28565D01*
X353243Y28614D01*
X353311Y28666D01*
X353376Y28720D01*
X353439Y28778D01*
X353500Y28839D01*
X353558Y28902D01*
X353612Y28967D01*
X353664Y29035D01*
X353713Y29106D01*
X353758Y29178D01*
X353801Y29252D01*
X353839Y29328D01*
X353875Y29406D01*
X353907Y29486D01*
X353935Y29566D01*
X353959Y29648D01*
X353980Y29731D01*
X353997Y29815D01*
X354011Y29899D01*
X354020Y29984D01*
X354026Y30070D01*
X354028Y30155D01*
X354026Y30240D01*
X354020Y30326D01*
X354011Y30411D01*
X353997Y30495D01*
X353980Y30579D01*
X353959Y30662D01*
X353935Y30744D01*
X353907Y30824D01*
X353875Y30904D01*
X353839Y30982D01*
X353801Y31058D01*
X353758Y31132D01*
X353713Y31204D01*
X353664Y31275D01*
X353612Y31343D01*
X353558Y31408D01*
X353500Y31471D01*
X353439Y31532D01*
X353376Y31590D01*
X353311Y31644D01*
X353243Y31696D01*
X353172Y31745D01*
X353100Y31790D01*
X353026Y31833D01*
X352950Y31871D01*
X352872Y31907D01*
X352792Y31939D01*
X352712Y31967D01*
X352630Y31991D01*
X352547Y32012D01*
X352463Y32029D01*
X352379Y32043D01*
X352294Y32052D01*
X352208Y32058D01*
X352123Y32060D01*
X349075Y32060D01*
X348990Y32058D01*
X348904Y32052D01*
X348819Y32043D01*
X348735Y32029D01*
X348651Y32012D01*
X348568Y31991D01*
X348486Y31967D01*
X348406Y31939D01*
X348326Y31907D01*
X348248Y31871D01*
X348172Y31833D01*
X348098Y31790D01*
X348026Y31745D01*
X347955Y31696D01*
X347887Y31644D01*
X347822Y31590D01*
X347759Y31532D01*
X347698Y31471D01*
X347640Y31408D01*
X347586Y31343D01*
X347534Y31275D01*
X347485Y31204D01*
X347440Y31132D01*
X347397Y31058D01*
X347359Y30982D01*
X347323Y30904D01*
X347291Y30824D01*
X347263Y30744D01*
X347239Y30662D01*
X347218Y30579D01*
X347201Y30495D01*
X347187Y30411D01*
X347178Y30326D01*
X347172Y30240D01*
X347170Y30155D01*
X347172Y30070D01*
X347178Y29984D01*
X347187Y29899D01*
X347201Y29815D01*
X347218Y29731D01*
X347239Y29648D01*
X347263Y29566D01*
X347291Y29486D01*
X347323Y29406D01*
X347359Y29328D01*
X347397Y29252D01*
X347440Y29178D01*
X347485Y29106D01*
X347534Y29035D01*
X347586Y28967D01*
X347640Y28902D01*
X347698Y28839D01*
X347759Y28778D01*
X347822Y28720D01*
X347887Y28666D01*
X347955Y28614D01*
X348026Y28565D01*
X348098Y28520D01*
X348172Y28477D01*
X348248Y28439D01*
X348326Y28403D01*
X348406Y28371D01*
X348486Y28343D01*
X348568Y28319D01*
X348651Y28298D01*
X348735Y28281D01*
X348819Y28267D01*
X348904Y28258D01*
X348990Y28252D01*
X349075Y28250D01*
X342028Y14665D02*
X335170Y14665D01*
X342028Y14665D02*
X342028Y16570D01*
X342026Y16655D01*
X342020Y16741D01*
X342011Y16826D01*
X341997Y16910D01*
X341980Y16994D01*
X341959Y17077D01*
X341935Y17159D01*
X341907Y17239D01*
X341875Y17319D01*
X341839Y17397D01*
X341801Y17473D01*
X341758Y17547D01*
X341713Y17619D01*
X341664Y17690D01*
X341612Y17758D01*
X341558Y17823D01*
X341500Y17886D01*
X341439Y17947D01*
X341376Y18005D01*
X341311Y18059D01*
X341243Y18111D01*
X341172Y18160D01*
X341100Y18205D01*
X341026Y18248D01*
X340950Y18286D01*
X340872Y18322D01*
X340792Y18354D01*
X340712Y18382D01*
X340630Y18406D01*
X340547Y18427D01*
X340463Y18444D01*
X340379Y18458D01*
X340294Y18467D01*
X340208Y18473D01*
X340123Y18475D01*
X340038Y18473D01*
X339952Y18467D01*
X339867Y18458D01*
X339783Y18444D01*
X339699Y18427D01*
X339616Y18406D01*
X339534Y18382D01*
X339454Y18354D01*
X339374Y18322D01*
X339296Y18286D01*
X339220Y18248D01*
X339146Y18205D01*
X339074Y18160D01*
X339003Y18111D01*
X338935Y18059D01*
X338870Y18005D01*
X338807Y17947D01*
X338746Y17886D01*
X338688Y17823D01*
X338634Y17758D01*
X338582Y17690D01*
X338533Y17619D01*
X338488Y17547D01*
X338445Y17473D01*
X338407Y17397D01*
X338371Y17319D01*
X338339Y17239D01*
X338311Y17159D01*
X338287Y17077D01*
X338266Y16994D01*
X338249Y16910D01*
X338235Y16826D01*
X338226Y16741D01*
X338220Y16655D01*
X338218Y16570D01*
X338218Y14665D01*
X338218Y16951D02*
X335170Y18475D01*
X335170Y23952D02*
X335172Y24029D01*
X335178Y24106D01*
X335188Y24183D01*
X335201Y24259D01*
X335219Y24334D01*
X335240Y24408D01*
X335265Y24481D01*
X335294Y24553D01*
X335326Y24623D01*
X335361Y24692D01*
X335401Y24758D01*
X335443Y24823D01*
X335489Y24885D01*
X335538Y24945D01*
X335589Y25002D01*
X335644Y25057D01*
X335701Y25108D01*
X335761Y25157D01*
X335823Y25203D01*
X335888Y25245D01*
X335954Y25285D01*
X336023Y25320D01*
X336093Y25352D01*
X336165Y25381D01*
X336238Y25406D01*
X336312Y25427D01*
X336387Y25445D01*
X336463Y25458D01*
X336540Y25468D01*
X336617Y25474D01*
X336694Y25476D01*
X335170Y23952D02*
X335172Y23842D01*
X335178Y23731D01*
X335187Y23621D01*
X335200Y23511D01*
X335217Y23402D01*
X335238Y23294D01*
X335262Y23186D01*
X335291Y23079D01*
X335322Y22973D01*
X335358Y22869D01*
X335397Y22765D01*
X335439Y22663D01*
X335485Y22563D01*
X335535Y22464D01*
X335587Y22367D01*
X335644Y22271D01*
X335703Y22178D01*
X335765Y22087D01*
X335831Y21998D01*
X335899Y21911D01*
X335971Y21827D01*
X336045Y21745D01*
X336122Y21666D01*
X340504Y21857D02*
X340581Y21859D01*
X340658Y21865D01*
X340735Y21875D01*
X340811Y21888D01*
X340886Y21906D01*
X340960Y21927D01*
X341033Y21952D01*
X341105Y21981D01*
X341175Y22013D01*
X341244Y22048D01*
X341310Y22088D01*
X341375Y22130D01*
X341437Y22176D01*
X341497Y22225D01*
X341554Y22276D01*
X341609Y22331D01*
X341660Y22388D01*
X341709Y22448D01*
X341755Y22510D01*
X341797Y22575D01*
X341837Y22641D01*
X341872Y22710D01*
X341904Y22780D01*
X341933Y22852D01*
X341958Y22925D01*
X341979Y22999D01*
X341997Y23074D01*
X342010Y23150D01*
X342020Y23227D01*
X342026Y23304D01*
X342028Y23381D01*
X342026Y23483D01*
X342021Y23585D01*
X342012Y23687D01*
X341999Y23788D01*
X341982Y23889D01*
X341963Y23989D01*
X341939Y24089D01*
X341912Y24187D01*
X341881Y24285D01*
X341847Y24381D01*
X341810Y24476D01*
X341769Y24570D01*
X341725Y24662D01*
X341677Y24752D01*
X341627Y24841D01*
X341573Y24928D01*
X341516Y25013D01*
X341456Y25096D01*
X339170Y22619D02*
X339211Y22554D01*
X339254Y22491D01*
X339301Y22431D01*
X339351Y22372D01*
X339403Y22317D01*
X339458Y22264D01*
X339516Y22213D01*
X339576Y22166D01*
X339639Y22122D01*
X339703Y22080D01*
X339769Y22042D01*
X339838Y22008D01*
X339908Y21977D01*
X339979Y21949D01*
X340051Y21925D01*
X340125Y21904D01*
X340200Y21887D01*
X340275Y21874D01*
X340351Y21865D01*
X340427Y21859D01*
X340504Y21857D01*
X338028Y24715D02*
X337987Y24780D01*
X337944Y24843D01*
X337897Y24903D01*
X337847Y24962D01*
X337795Y25017D01*
X337740Y25070D01*
X337682Y25121D01*
X337622Y25168D01*
X337559Y25212D01*
X337495Y25254D01*
X337429Y25292D01*
X337360Y25326D01*
X337290Y25357D01*
X337219Y25385D01*
X337147Y25409D01*
X337073Y25430D01*
X336998Y25447D01*
X336923Y25460D01*
X336847Y25469D01*
X336771Y25475D01*
X336694Y25477D01*
X338027Y24714D02*
X339170Y22619D01*
X342028Y30155D02*
X335170Y30155D01*
X342028Y28250D02*
X342028Y32060D01*
X360170Y16131D02*
X367028Y16131D01*
X367028Y14226D02*
X367028Y18036D01*
X367028Y21297D02*
X360170Y21297D01*
X367028Y21297D02*
X367028Y23202D01*
X367026Y23287D01*
X367020Y23373D01*
X367011Y23458D01*
X366997Y23542D01*
X366980Y23626D01*
X366959Y23709D01*
X366935Y23791D01*
X366907Y23871D01*
X366875Y23951D01*
X366839Y24029D01*
X366801Y24105D01*
X366758Y24179D01*
X366713Y24251D01*
X366664Y24322D01*
X366612Y24390D01*
X366558Y24455D01*
X366500Y24518D01*
X366439Y24579D01*
X366376Y24637D01*
X366311Y24691D01*
X366243Y24743D01*
X366172Y24792D01*
X366100Y24837D01*
X366026Y24880D01*
X365950Y24918D01*
X365872Y24954D01*
X365792Y24986D01*
X365712Y25014D01*
X365630Y25038D01*
X365547Y25059D01*
X365463Y25076D01*
X365379Y25090D01*
X365294Y25099D01*
X365208Y25105D01*
X365123Y25107D01*
X362075Y25107D01*
X361990Y25105D01*
X361904Y25099D01*
X361819Y25090D01*
X361735Y25076D01*
X361651Y25059D01*
X361568Y25038D01*
X361486Y25014D01*
X361406Y24986D01*
X361326Y24954D01*
X361248Y24918D01*
X361172Y24880D01*
X361098Y24837D01*
X361026Y24792D01*
X360955Y24743D01*
X360887Y24691D01*
X360822Y24637D01*
X360759Y24579D01*
X360698Y24518D01*
X360640Y24455D01*
X360586Y24390D01*
X360534Y24322D01*
X360485Y24251D01*
X360440Y24179D01*
X360397Y24105D01*
X360359Y24029D01*
X360323Y23951D01*
X360291Y23871D01*
X360263Y23791D01*
X360239Y23709D01*
X360218Y23626D01*
X360201Y23542D01*
X360187Y23458D01*
X360178Y23373D01*
X360172Y23287D01*
X360170Y23202D01*
X360170Y21297D01*
X360170Y29298D02*
X367028Y29298D01*
X360170Y28536D02*
X360170Y30060D01*
X367028Y30060D02*
X367028Y28536D01*
M02*
