G04 EAGLE Gerber RS-274X export*
G75*
%MOMM*%
%FSLAX34Y34*%
%LPD*%
%INSoldermask Top*%
%IPPOS*%
%AMOC8*
5,1,8,0,0,1.08239X$1,22.5*%
G01*
%ADD10R,0.300000X0.600000*%
%ADD11R,0.600000X0.300000*%
%ADD12R,0.500000X0.500000*%
%ADD13R,1.301600X0.651600*%
%ADD14R,1.101600X1.201600*%
%ADD15R,1.201600X1.101600*%
%ADD16R,1.001600X0.951600*%
%ADD17R,0.812800X1.524000*%
%ADD18R,1.524000X0.812800*%
%ADD19C,0.349309*%
%ADD20C,0.248975*%
%ADD21R,0.951600X1.001600*%
%ADD22C,0.372125*%
%ADD23R,12.801600X1.371600*%
%ADD24R,12.166600X1.371600*%


D10*
X209096Y49504D03*
X204096Y49504D03*
X199096Y49504D03*
X194096Y49504D03*
X189096Y49504D03*
X184096Y49504D03*
X179096Y49504D03*
D11*
X171096Y41504D03*
X171096Y36504D03*
X171096Y31504D03*
X171096Y26504D03*
X171096Y21504D03*
X171096Y16504D03*
X171096Y11504D03*
D10*
X179096Y3504D03*
X184096Y3504D03*
X189096Y3504D03*
X194096Y3504D03*
X199096Y3504D03*
X204096Y3504D03*
X209096Y3504D03*
D11*
X217096Y11504D03*
X217096Y16504D03*
X217096Y21504D03*
X217096Y26504D03*
X217096Y31504D03*
X217096Y36504D03*
X217096Y41504D03*
D12*
X215121Y47529D03*
D10*
X206596Y36504D03*
X206596Y26504D03*
X206596Y16504D03*
X201596Y36504D03*
X201596Y26504D03*
X201596Y16504D03*
X196596Y36504D03*
X196596Y26504D03*
X196596Y16504D03*
X191596Y36504D03*
X191596Y26504D03*
X191596Y16504D03*
X186596Y36504D03*
X186596Y26504D03*
X186596Y16504D03*
X181596Y36504D03*
X181596Y26504D03*
X181596Y16504D03*
D13*
X180468Y125506D03*
X180468Y116006D03*
X180468Y106506D03*
X206470Y106506D03*
X206470Y125506D03*
D14*
X163288Y108188D03*
X163288Y125188D03*
D15*
X185306Y139944D03*
X202306Y139944D03*
D16*
X158469Y33026D03*
X158469Y44626D03*
D17*
X262959Y8191D03*
X275659Y8191D03*
X288359Y8191D03*
X301059Y8191D03*
X313759Y8191D03*
X326459Y8191D03*
X339159Y8191D03*
X351859Y8191D03*
D18*
X244169Y28041D03*
X244169Y40741D03*
X244169Y53441D03*
X244169Y66141D03*
X244169Y78841D03*
X244169Y91541D03*
X244169Y104241D03*
D17*
X262959Y138161D03*
X275659Y138161D03*
X288359Y138161D03*
X301059Y138161D03*
X313759Y138161D03*
X326459Y138161D03*
X339159Y138161D03*
X351859Y138161D03*
D18*
X244169Y116941D03*
D17*
X364559Y138161D03*
X364559Y8191D03*
D19*
X173638Y82338D02*
X173638Y92262D01*
X181062Y92262D01*
X181062Y82338D01*
X173638Y82338D01*
X173638Y85656D02*
X181062Y85656D01*
X181062Y88974D02*
X173638Y88974D01*
D20*
X157937Y92763D02*
X157937Y81837D01*
X157937Y92763D02*
X162363Y92763D01*
X162363Y81837D01*
X157937Y81837D01*
X157937Y84202D02*
X162363Y84202D01*
X162363Y86567D02*
X157937Y86567D01*
X157937Y88932D02*
X162363Y88932D01*
X162363Y91297D02*
X157937Y91297D01*
X157937Y71663D02*
X157937Y60737D01*
X157937Y71663D02*
X162363Y71663D01*
X162363Y60737D01*
X157937Y60737D01*
X157937Y63102D02*
X162363Y63102D01*
X162363Y65467D02*
X157937Y65467D01*
X157937Y67832D02*
X162363Y67832D01*
X162363Y70197D02*
X157937Y70197D01*
X177137Y71663D02*
X177137Y60737D01*
X177137Y71663D02*
X181563Y71663D01*
X181563Y60737D01*
X177137Y60737D01*
X177137Y63102D02*
X181563Y63102D01*
X181563Y65467D02*
X177137Y65467D01*
X177137Y67832D02*
X181563Y67832D01*
X181563Y70197D02*
X177137Y70197D01*
D21*
X209800Y79500D03*
X198200Y79500D03*
X209800Y93250D03*
X198200Y93250D03*
D22*
X203972Y67648D02*
X206668Y67648D01*
X206668Y64352D01*
X203972Y64352D01*
X203972Y67648D01*
X198028Y67648D02*
X195332Y67648D01*
X198028Y67648D02*
X198028Y64352D01*
X195332Y64352D01*
X195332Y67648D01*
X233972Y6648D02*
X236668Y6648D01*
X236668Y3352D01*
X233972Y3352D01*
X233972Y6648D01*
X228028Y6648D02*
X225332Y6648D01*
X228028Y6648D02*
X228028Y3352D01*
X225332Y3352D01*
X225332Y6648D01*
D23*
X76500Y35000D03*
D24*
X79675Y62305D03*
X79675Y83895D03*
D23*
X76500Y111200D03*
M02*
