M48
;GenerationSoftware,Autodesk,EAGLE,9.6.2*%
;CreationDate,2024-02-13T04:34:32Z*%
FMAT,2
ICI,OFF
METRIC,TZ,000.000
T1C0.250
%
G90
M71
T1
X19039Y7135
X26000Y4300
X26000Y5500
X26000Y6700
X36500Y9400
X36500Y8300
X36500Y7200
X36500Y6100
X36500Y5000
X36500Y3900
X26000Y7800
X26000Y9000
X32300Y2200
X30342Y2164
X25200Y500
X21700Y500
X25100Y13900
X22400Y11200
X22400Y13100
X23500Y13900
X15000Y5500
X19200Y11600
X17100Y9100
X20700Y11700
X27600Y2100
X17200Y4900
X16239Y799
X24300Y500
X35000Y12400
X34100Y12400
X31400Y12000
X27600Y12600
X35200Y2100
X25700Y11700
X25700Y10400
X16300Y1800
M30