M48
;GenerationSoftware,Autodesk,EAGLE,9.6.2*%
;CreationDate,2024-02-13T09:09:18Z*%
FMAT,2
ICI,OFF
METRIC,TZ,000.000
T1C0.250
%
G90
M71
T1
X19039Y7135
X25990Y4360
X25960Y5490
X26000Y6700
X36500Y9400
X36500Y8300
X36500Y7200
X36500Y6100
X36500Y5000
X36500Y3900
X26000Y7800
X26000Y9000
X22100Y5660
X21640Y440
X18850Y9860
X17370Y9860
X22400Y6840
X15900Y5140
X19200Y11600
X17100Y9100
X17100Y5800
X20700Y11700
X27600Y2100
X17200Y4900
X16100Y900
X35000Y12400
X24500Y14100
X34100Y12400
X24500Y13200
X31400Y12000
X27600Y12600
X35200Y2100
X25700Y11700
X25700Y10400
X16200Y1800
X25000Y800
M30