G04 EAGLE Gerber RS-274X export*
G75*
%MOMM*%
%FSLAX34Y34*%
%LPD*%
%INBottom Copper*%
%IPPOS*%
%AMOC8*
5,1,8,0,0,1.08239X$1,22.5*%
G01*
%ADD10R,0.711200X1.422400*%
%ADD11R,1.422400X0.711200*%
%ADD12R,0.850000X0.900000*%
%ADD13R,0.900000X0.850000*%
%ADD14R,2.500000X0.800000*%
%ADD15C,1.778000*%
%ADD16C,0.656400*%
%ADD17C,0.406400*%
%ADD18C,0.200000*%
%ADD19C,0.254000*%
%ADD20C,0.706400*%

G36*
X293450Y26572D02*
X293450Y26572D01*
X293515Y26571D01*
X293589Y26592D01*
X293666Y26603D01*
X293724Y26629D01*
X293786Y26646D01*
X293852Y26687D01*
X293923Y26719D01*
X293972Y26761D01*
X294026Y26794D01*
X294078Y26852D01*
X294137Y26902D01*
X294172Y26956D01*
X294215Y27004D01*
X294249Y27073D01*
X294292Y27138D01*
X294310Y27200D01*
X294338Y27257D01*
X294349Y27327D01*
X294374Y27408D01*
X294375Y27493D01*
X294386Y27562D01*
X294386Y41834D01*
X294982Y42430D01*
X295943Y42430D01*
X296006Y42439D01*
X296071Y42438D01*
X296145Y42459D01*
X296222Y42470D01*
X296280Y42496D01*
X296342Y42513D01*
X296408Y42554D01*
X296479Y42586D01*
X296528Y42628D01*
X296582Y42662D01*
X296634Y42719D01*
X296693Y42769D01*
X296728Y42823D01*
X296771Y42871D01*
X296805Y42940D01*
X296848Y43005D01*
X296866Y43067D01*
X296894Y43125D01*
X296905Y43194D01*
X296930Y43275D01*
X296931Y43360D01*
X296942Y43429D01*
X296942Y48794D01*
X301328Y53180D01*
X301366Y53231D01*
X301412Y53276D01*
X301450Y53343D01*
X301497Y53405D01*
X301520Y53466D01*
X301551Y53521D01*
X301569Y53597D01*
X301597Y53669D01*
X301601Y53733D01*
X301616Y53796D01*
X301612Y53873D01*
X301618Y53950D01*
X301605Y54013D01*
X301602Y54078D01*
X301576Y54151D01*
X301561Y54227D01*
X301531Y54283D01*
X301509Y54344D01*
X301468Y54401D01*
X301428Y54475D01*
X301369Y54536D01*
X301328Y54593D01*
X299701Y56219D01*
X299701Y57437D01*
X299697Y57469D01*
X299699Y57501D01*
X299677Y57608D01*
X299661Y57716D01*
X299648Y57745D01*
X299642Y57777D01*
X299590Y57873D01*
X299545Y57973D01*
X299524Y57997D01*
X299509Y58026D01*
X299433Y58104D01*
X299362Y58187D01*
X299335Y58205D01*
X299312Y58228D01*
X299217Y58282D01*
X299126Y58342D01*
X299095Y58351D01*
X299067Y58367D01*
X298960Y58392D01*
X298856Y58424D01*
X298824Y58425D01*
X298793Y58432D01*
X298683Y58426D01*
X298574Y58428D01*
X298543Y58419D01*
X298511Y58418D01*
X298408Y58382D01*
X298302Y58353D01*
X298275Y58336D01*
X298244Y58325D01*
X298171Y58272D01*
X298062Y58204D01*
X298030Y58168D01*
X297995Y58143D01*
X293357Y53505D01*
X289297Y53505D01*
X289233Y53495D01*
X289169Y53496D01*
X289094Y53476D01*
X289018Y53465D01*
X288959Y53438D01*
X288897Y53421D01*
X288831Y53380D01*
X288761Y53348D01*
X288712Y53307D01*
X288657Y53273D01*
X288605Y53215D01*
X288546Y53165D01*
X288511Y53111D01*
X288468Y53064D01*
X288434Y52994D01*
X288392Y52929D01*
X288373Y52868D01*
X288345Y52810D01*
X288334Y52740D01*
X288309Y52659D01*
X288308Y52575D01*
X288297Y52505D01*
X288297Y51544D01*
X287702Y50949D01*
X272636Y50949D01*
X272040Y51544D01*
X272040Y59498D01*
X272636Y60094D01*
X287702Y60094D01*
X288297Y59498D01*
X288297Y58537D01*
X288307Y58474D01*
X288306Y58411D01*
X288306Y58409D01*
X288326Y58335D01*
X288337Y58258D01*
X288364Y58200D01*
X288381Y58138D01*
X288422Y58072D01*
X288454Y58001D01*
X288495Y57952D01*
X288529Y57898D01*
X288587Y57846D01*
X288637Y57787D01*
X288691Y57752D01*
X288738Y57709D01*
X288808Y57675D01*
X288873Y57632D01*
X288934Y57614D01*
X288992Y57586D01*
X289062Y57575D01*
X289143Y57550D01*
X289227Y57549D01*
X289297Y57538D01*
X291272Y57538D01*
X291367Y57552D01*
X291463Y57556D01*
X291506Y57571D01*
X291551Y57578D01*
X291639Y57617D01*
X291730Y57649D01*
X291764Y57674D01*
X291808Y57694D01*
X291905Y57777D01*
X291979Y57831D01*
X298647Y64499D01*
X298666Y64524D01*
X298690Y64545D01*
X298750Y64637D01*
X298816Y64724D01*
X298827Y64754D01*
X298845Y64781D01*
X298877Y64886D01*
X298915Y64988D01*
X298918Y65020D01*
X298927Y65051D01*
X298929Y65160D01*
X298937Y65269D01*
X298931Y65301D01*
X298931Y65333D01*
X298902Y65439D01*
X298880Y65545D01*
X298865Y65574D01*
X298856Y65605D01*
X298798Y65698D01*
X298747Y65794D01*
X298725Y65818D01*
X298708Y65845D01*
X298627Y65918D01*
X298550Y65996D01*
X298522Y66012D01*
X298498Y66034D01*
X298400Y66082D01*
X298305Y66135D01*
X298274Y66143D01*
X298245Y66157D01*
X298155Y66171D01*
X298031Y66200D01*
X297982Y66198D01*
X297940Y66205D01*
X289297Y66205D01*
X289233Y66195D01*
X289169Y66196D01*
X289094Y66176D01*
X289018Y66165D01*
X288959Y66138D01*
X288897Y66121D01*
X288831Y66080D01*
X288761Y66048D01*
X288712Y66007D01*
X288657Y65973D01*
X288605Y65915D01*
X288546Y65865D01*
X288511Y65811D01*
X288468Y65764D01*
X288434Y65694D01*
X288392Y65629D01*
X288373Y65568D01*
X288345Y65510D01*
X288334Y65440D01*
X288309Y65359D01*
X288308Y65275D01*
X288297Y65205D01*
X288297Y64244D01*
X287702Y63649D01*
X272636Y63649D01*
X272040Y64244D01*
X272040Y72198D01*
X272636Y72794D01*
X287702Y72794D01*
X288297Y72198D01*
X288297Y71237D01*
X288307Y71174D01*
X288306Y71109D01*
X288326Y71035D01*
X288337Y70958D01*
X288364Y70900D01*
X288381Y70838D01*
X288422Y70772D01*
X288454Y70701D01*
X288495Y70652D01*
X288529Y70598D01*
X288587Y70546D01*
X288637Y70487D01*
X288691Y70452D01*
X288738Y70409D01*
X288808Y70375D01*
X288873Y70332D01*
X288934Y70314D01*
X288992Y70286D01*
X289062Y70275D01*
X289143Y70250D01*
X289227Y70249D01*
X289297Y70238D01*
X320972Y70238D01*
X321067Y70252D01*
X321163Y70256D01*
X321206Y70271D01*
X321251Y70278D01*
X321339Y70317D01*
X321430Y70349D01*
X321464Y70374D01*
X321508Y70394D01*
X321605Y70477D01*
X321679Y70531D01*
X347691Y96543D01*
X347748Y96619D01*
X347813Y96691D01*
X347833Y96732D01*
X347860Y96768D01*
X347894Y96858D01*
X347936Y96945D01*
X347942Y96987D01*
X347959Y97032D01*
X347969Y97160D01*
X347983Y97249D01*
X347983Y147523D01*
X347975Y147583D01*
X347975Y147600D01*
X347970Y147619D01*
X347965Y147715D01*
X347950Y147758D01*
X347943Y147803D01*
X347904Y147890D01*
X347872Y147981D01*
X347847Y148015D01*
X347827Y148060D01*
X347744Y148157D01*
X347691Y148230D01*
X345701Y150219D01*
X345701Y153781D01*
X346357Y154437D01*
X346377Y154462D01*
X346401Y154483D01*
X346461Y154575D01*
X346527Y154662D01*
X346538Y154692D01*
X346556Y154719D01*
X346588Y154824D01*
X346626Y154926D01*
X346629Y154958D01*
X346638Y154989D01*
X346640Y155098D01*
X346648Y155207D01*
X346641Y155239D01*
X346642Y155271D01*
X346613Y155376D01*
X346590Y155483D01*
X346575Y155512D01*
X346567Y155543D01*
X346509Y155636D01*
X346458Y155732D01*
X346435Y155756D01*
X346418Y155783D01*
X346338Y155856D01*
X346261Y155934D01*
X346233Y155950D01*
X346209Y155972D01*
X346111Y156019D01*
X346016Y156073D01*
X345984Y156081D01*
X345955Y156095D01*
X345866Y156109D01*
X345799Y156125D01*
X345186Y156738D01*
X345186Y170438D01*
X345177Y170502D01*
X345178Y170566D01*
X345157Y170641D01*
X345146Y170717D01*
X345120Y170776D01*
X345103Y170838D01*
X345062Y170904D01*
X345030Y170974D01*
X344988Y171023D01*
X344954Y171078D01*
X344897Y171130D01*
X344847Y171188D01*
X344793Y171224D01*
X344745Y171267D01*
X344676Y171300D01*
X344611Y171343D01*
X344549Y171362D01*
X344491Y171390D01*
X344422Y171401D01*
X344341Y171425D01*
X344256Y171426D01*
X344187Y171437D01*
X342631Y171437D01*
X342567Y171428D01*
X342503Y171429D01*
X342428Y171408D01*
X342352Y171397D01*
X342293Y171371D01*
X342231Y171354D01*
X342165Y171313D01*
X342095Y171281D01*
X342046Y171239D01*
X341991Y171206D01*
X341939Y171148D01*
X341880Y171098D01*
X341845Y171044D01*
X341802Y170996D01*
X341768Y170927D01*
X341726Y170862D01*
X341707Y170800D01*
X341679Y170743D01*
X341668Y170673D01*
X341643Y170592D01*
X341642Y170507D01*
X341631Y170438D01*
X341631Y156738D01*
X341036Y156143D01*
X333082Y156143D01*
X332486Y156738D01*
X332486Y170438D01*
X332477Y170502D01*
X332478Y170566D01*
X332457Y170641D01*
X332446Y170717D01*
X332420Y170776D01*
X332403Y170838D01*
X332362Y170904D01*
X332330Y170974D01*
X332288Y171023D01*
X332254Y171078D01*
X332197Y171130D01*
X332147Y171188D01*
X332093Y171224D01*
X332045Y171267D01*
X331976Y171300D01*
X331911Y171343D01*
X331849Y171362D01*
X331791Y171390D01*
X331722Y171401D01*
X331641Y171425D01*
X331556Y171426D01*
X331487Y171437D01*
X331455Y171437D01*
X331394Y171429D01*
X331359Y171429D01*
X331357Y171429D01*
X331327Y171429D01*
X331252Y171408D01*
X331176Y171397D01*
X331117Y171371D01*
X331055Y171354D01*
X330989Y171313D01*
X330919Y171281D01*
X330870Y171239D01*
X330815Y171206D01*
X330763Y171148D01*
X330704Y171098D01*
X330669Y171044D01*
X330626Y170996D01*
X330592Y170927D01*
X330550Y170862D01*
X330531Y170800D01*
X330503Y170743D01*
X330492Y170673D01*
X330467Y170592D01*
X330466Y170507D01*
X330455Y170438D01*
X330455Y166049D01*
X325137Y166049D01*
X325073Y166039D01*
X325009Y166040D01*
X324934Y166020D01*
X324858Y166009D01*
X324799Y165982D01*
X324737Y165965D01*
X324671Y165924D01*
X324601Y165892D01*
X324552Y165851D01*
X324497Y165817D01*
X324445Y165759D01*
X324387Y165709D01*
X324360Y165669D01*
X324348Y165689D01*
X324291Y165741D01*
X324240Y165800D01*
X324187Y165835D01*
X324139Y165878D01*
X324069Y165912D01*
X324004Y165954D01*
X323943Y165973D01*
X323885Y166001D01*
X323816Y166012D01*
X323735Y166037D01*
X323650Y166038D01*
X323581Y166049D01*
X318262Y166049D01*
X318262Y170438D01*
X318253Y170502D01*
X318254Y170566D01*
X318233Y170641D01*
X318222Y170717D01*
X318196Y170776D01*
X318179Y170838D01*
X318138Y170904D01*
X318106Y170974D01*
X318064Y171023D01*
X318030Y171078D01*
X317973Y171130D01*
X317923Y171188D01*
X317869Y171224D01*
X317821Y171267D01*
X317751Y171300D01*
X317687Y171343D01*
X317625Y171362D01*
X317567Y171390D01*
X317498Y171401D01*
X317417Y171425D01*
X317332Y171426D01*
X317263Y171437D01*
X317231Y171437D01*
X317170Y171429D01*
X317135Y171429D01*
X317133Y171429D01*
X317103Y171429D01*
X317028Y171408D01*
X316952Y171397D01*
X316893Y171371D01*
X316831Y171354D01*
X316765Y171313D01*
X316695Y171281D01*
X316646Y171239D01*
X316591Y171206D01*
X316539Y171148D01*
X316480Y171098D01*
X316445Y171044D01*
X316402Y170996D01*
X316368Y170927D01*
X316326Y170862D01*
X316307Y170800D01*
X316279Y170743D01*
X316268Y170673D01*
X316243Y170592D01*
X316242Y170507D01*
X316231Y170438D01*
X316231Y156738D01*
X315343Y155850D01*
X315327Y155828D01*
X315298Y155803D01*
X315262Y155749D01*
X315219Y155702D01*
X315196Y155654D01*
X315174Y155624D01*
X315165Y155601D01*
X315143Y155567D01*
X315124Y155506D01*
X315096Y155448D01*
X315088Y155398D01*
X315074Y155360D01*
X315073Y155336D01*
X315061Y155297D01*
X315060Y155213D01*
X315049Y155143D01*
X315049Y154445D01*
X315058Y154383D01*
X315057Y154339D01*
X315064Y154313D01*
X315067Y154253D01*
X315082Y154210D01*
X315089Y154165D01*
X315128Y154078D01*
X315160Y153987D01*
X315185Y153953D01*
X315205Y153908D01*
X315288Y153811D01*
X315341Y153738D01*
X316299Y152781D01*
X316299Y149219D01*
X313781Y146701D01*
X310219Y146701D01*
X307701Y149219D01*
X307701Y152781D01*
X308659Y153738D01*
X308716Y153815D01*
X308781Y153886D01*
X308801Y153927D01*
X308828Y153964D01*
X308862Y154054D01*
X308904Y154140D01*
X308910Y154182D01*
X308927Y154227D01*
X308932Y154289D01*
X308939Y154313D01*
X308940Y154373D01*
X308951Y154445D01*
X308951Y155143D01*
X308942Y155207D01*
X308943Y155271D01*
X308922Y155346D01*
X308911Y155422D01*
X308885Y155481D01*
X308868Y155543D01*
X308827Y155609D01*
X308795Y155679D01*
X308753Y155728D01*
X308720Y155783D01*
X308662Y155835D01*
X308612Y155894D01*
X308558Y155929D01*
X308510Y155972D01*
X308441Y156006D01*
X308376Y156048D01*
X308314Y156067D01*
X308257Y156095D01*
X308187Y156106D01*
X308106Y156131D01*
X308021Y156132D01*
X307952Y156143D01*
X307682Y156143D01*
X307086Y156738D01*
X307086Y170438D01*
X307077Y170502D01*
X307078Y170566D01*
X307057Y170641D01*
X307046Y170717D01*
X307020Y170776D01*
X307003Y170838D01*
X306962Y170904D01*
X306930Y170974D01*
X306888Y171023D01*
X306854Y171078D01*
X306797Y171130D01*
X306747Y171188D01*
X306693Y171224D01*
X306645Y171267D01*
X306576Y171300D01*
X306511Y171343D01*
X306449Y171362D01*
X306391Y171390D01*
X306322Y171401D01*
X306241Y171425D01*
X306156Y171426D01*
X306087Y171437D01*
X304531Y171437D01*
X304467Y171428D01*
X304403Y171429D01*
X304328Y171408D01*
X304252Y171397D01*
X304193Y171371D01*
X304131Y171354D01*
X304065Y171313D01*
X303995Y171281D01*
X303946Y171239D01*
X303891Y171206D01*
X303839Y171148D01*
X303780Y171098D01*
X303745Y171044D01*
X303702Y170996D01*
X303668Y170927D01*
X303626Y170862D01*
X303607Y170800D01*
X303579Y170743D01*
X303568Y170673D01*
X303543Y170592D01*
X303542Y170507D01*
X303531Y170438D01*
X303531Y156738D01*
X302936Y156143D01*
X294982Y156143D01*
X294386Y156738D01*
X294386Y170438D01*
X294377Y170502D01*
X294378Y170566D01*
X294357Y170641D01*
X294346Y170717D01*
X294320Y170776D01*
X294303Y170838D01*
X294262Y170904D01*
X294230Y170974D01*
X294188Y171023D01*
X294154Y171078D01*
X294097Y171130D01*
X294047Y171188D01*
X293993Y171224D01*
X293945Y171267D01*
X293876Y171300D01*
X293811Y171343D01*
X293749Y171362D01*
X293691Y171390D01*
X293622Y171401D01*
X293541Y171425D01*
X293456Y171426D01*
X293387Y171437D01*
X172481Y171437D01*
X172348Y171418D01*
X172214Y171401D01*
X172209Y171398D01*
X172202Y171397D01*
X172080Y171342D01*
X171956Y171288D01*
X171951Y171284D01*
X171945Y171281D01*
X171844Y171194D01*
X171739Y171107D01*
X171736Y171102D01*
X171731Y171098D01*
X171576Y170862D01*
X171574Y170855D01*
X171571Y170850D01*
X171136Y169888D01*
X171134Y169880D01*
X171129Y169873D01*
X171095Y169745D01*
X171058Y169618D01*
X171058Y169609D01*
X171055Y169600D01*
X171058Y169468D01*
X171058Y169336D01*
X171060Y169327D01*
X171060Y169318D01*
X171100Y169192D01*
X171137Y169065D01*
X171141Y169057D01*
X171144Y169049D01*
X171217Y168938D01*
X171288Y168827D01*
X171295Y168821D01*
X171299Y168814D01*
X171400Y168728D01*
X171500Y168641D01*
X171508Y168637D01*
X171515Y168631D01*
X171635Y168577D01*
X171755Y168521D01*
X171764Y168520D01*
X171772Y168516D01*
X171904Y168498D01*
X172034Y168478D01*
X172043Y168479D01*
X172051Y168478D01*
X172126Y168490D01*
X172314Y168514D01*
X172335Y168523D01*
X172356Y168527D01*
X172733Y168649D01*
X174510Y168931D01*
X182301Y168931D01*
X182301Y163834D01*
X182302Y163825D01*
X182301Y163815D01*
X182322Y163685D01*
X182341Y163555D01*
X182344Y163546D01*
X182346Y163537D01*
X182403Y163417D01*
X182457Y163298D01*
X182463Y163291D01*
X182467Y163282D01*
X182555Y163183D01*
X182640Y163084D01*
X182648Y163078D01*
X182654Y163071D01*
X182720Y163031D01*
X182876Y162929D01*
X182899Y162922D01*
X182918Y162911D01*
X183778Y162555D01*
X183819Y162524D01*
X183879Y162501D01*
X183935Y162469D01*
X184011Y162451D01*
X184083Y162424D01*
X184147Y162419D01*
X184210Y162404D01*
X184287Y162408D01*
X184364Y162402D01*
X184427Y162415D01*
X184492Y162419D01*
X184565Y162444D01*
X184640Y162460D01*
X184697Y162490D01*
X184758Y162511D01*
X184811Y162550D01*
X185682Y162911D01*
X185690Y162916D01*
X185700Y162918D01*
X185812Y162988D01*
X185925Y163054D01*
X185932Y163061D01*
X185940Y163066D01*
X186028Y163164D01*
X186118Y163260D01*
X186122Y163269D01*
X186129Y163276D01*
X186186Y163394D01*
X186246Y163512D01*
X186248Y163521D01*
X186252Y163529D01*
X186263Y163605D01*
X186298Y163789D01*
X186296Y163813D01*
X186299Y163834D01*
X186299Y168931D01*
X194090Y168931D01*
X195867Y168649D01*
X197578Y168093D01*
X199181Y167276D01*
X200637Y166219D01*
X201909Y164947D01*
X202966Y163491D01*
X203783Y161888D01*
X204339Y160177D01*
X204447Y159499D01*
X199300Y159499D01*
X199236Y159490D01*
X199172Y159491D01*
X199097Y159470D01*
X199021Y159459D01*
X198962Y159433D01*
X198900Y159416D01*
X198834Y159375D01*
X198764Y159343D01*
X198715Y159301D01*
X198660Y159268D01*
X198608Y159210D01*
X198550Y159160D01*
X198514Y159106D01*
X198471Y159058D01*
X198438Y158989D01*
X198395Y158924D01*
X198376Y158862D01*
X198348Y158805D01*
X198337Y158735D01*
X198313Y158654D01*
X198312Y158569D01*
X198301Y158500D01*
X198301Y156500D01*
X198310Y156436D01*
X198309Y156372D01*
X198330Y156297D01*
X198341Y156221D01*
X198367Y156162D01*
X198384Y156100D01*
X198425Y156034D01*
X198457Y155964D01*
X198499Y155915D01*
X198532Y155860D01*
X198590Y155808D01*
X198640Y155750D01*
X198694Y155714D01*
X198742Y155671D01*
X198811Y155638D01*
X198876Y155595D01*
X198938Y155576D01*
X198995Y155548D01*
X199065Y155537D01*
X199146Y155513D01*
X199231Y155512D01*
X199300Y155501D01*
X204447Y155501D01*
X204339Y154823D01*
X203783Y153112D01*
X202966Y151509D01*
X201909Y150053D01*
X200637Y148781D01*
X199181Y147724D01*
X197578Y146907D01*
X195867Y146351D01*
X194090Y146069D01*
X186299Y146069D01*
X186299Y151166D01*
X186298Y151175D01*
X186299Y151185D01*
X186278Y151315D01*
X186259Y151445D01*
X186256Y151454D01*
X186254Y151463D01*
X186197Y151582D01*
X186143Y151702D01*
X186137Y151709D01*
X186133Y151718D01*
X186045Y151816D01*
X185960Y151916D01*
X185952Y151922D01*
X185946Y151929D01*
X185880Y151969D01*
X185724Y152071D01*
X185701Y152078D01*
X185682Y152089D01*
X184823Y152445D01*
X184781Y152476D01*
X184721Y152499D01*
X184665Y152531D01*
X184590Y152549D01*
X184518Y152576D01*
X184453Y152581D01*
X184391Y152596D01*
X184313Y152592D01*
X184236Y152598D01*
X184173Y152585D01*
X184109Y152581D01*
X184036Y152556D01*
X183960Y152540D01*
X183903Y152510D01*
X183842Y152489D01*
X183790Y152450D01*
X182918Y152089D01*
X182909Y152084D01*
X182900Y152082D01*
X182788Y152012D01*
X182675Y151945D01*
X182668Y151939D01*
X182660Y151934D01*
X182572Y151836D01*
X182482Y151740D01*
X182478Y151731D01*
X182471Y151724D01*
X182414Y151606D01*
X182354Y151488D01*
X182352Y151479D01*
X182348Y151471D01*
X182336Y151395D01*
X182302Y151211D01*
X182304Y151187D01*
X182301Y151166D01*
X182301Y146069D01*
X174510Y146069D01*
X172733Y146351D01*
X171022Y146907D01*
X169419Y147724D01*
X167963Y148781D01*
X166691Y150053D01*
X165634Y151509D01*
X164817Y153112D01*
X164261Y154823D01*
X164153Y155501D01*
X169300Y155501D01*
X169364Y155510D01*
X169428Y155509D01*
X169503Y155530D01*
X169579Y155541D01*
X169638Y155567D01*
X169700Y155584D01*
X169766Y155625D01*
X169836Y155657D01*
X169885Y155699D01*
X169940Y155732D01*
X169992Y155790D01*
X170050Y155840D01*
X170086Y155894D01*
X170129Y155942D01*
X170162Y156011D01*
X170205Y156076D01*
X170224Y156138D01*
X170252Y156195D01*
X170263Y156265D01*
X170287Y156346D01*
X170288Y156431D01*
X170299Y156500D01*
X170299Y158500D01*
X170291Y158560D01*
X170291Y158592D01*
X170291Y158593D01*
X170291Y158628D01*
X170270Y158703D01*
X170259Y158779D01*
X170233Y158838D01*
X170216Y158900D01*
X170175Y158966D01*
X170143Y159036D01*
X170101Y159085D01*
X170068Y159140D01*
X170010Y159192D01*
X169960Y159250D01*
X169906Y159286D01*
X169858Y159329D01*
X169789Y159362D01*
X169724Y159405D01*
X169662Y159424D01*
X169605Y159452D01*
X169535Y159462D01*
X169454Y159487D01*
X169369Y159488D01*
X169300Y159499D01*
X164153Y159499D01*
X164154Y159502D01*
X164155Y159543D01*
X164163Y159582D01*
X164157Y159683D01*
X164158Y159784D01*
X164148Y159823D01*
X164145Y159863D01*
X164111Y159959D01*
X164084Y160056D01*
X164063Y160091D01*
X164049Y160128D01*
X163989Y160210D01*
X163936Y160297D01*
X163906Y160324D01*
X163883Y160356D01*
X163802Y160418D01*
X163727Y160486D01*
X163691Y160504D01*
X163659Y160528D01*
X163565Y160565D01*
X163474Y160610D01*
X163434Y160617D01*
X163397Y160631D01*
X163296Y160640D01*
X163196Y160658D01*
X163156Y160653D01*
X163116Y160657D01*
X163031Y160639D01*
X162915Y160626D01*
X162863Y160604D01*
X162814Y160594D01*
X158968Y159142D01*
X157794Y159179D01*
X157714Y159170D01*
X157634Y159171D01*
X157575Y159155D01*
X157513Y159148D01*
X157439Y159117D01*
X157362Y159096D01*
X157310Y159064D01*
X157253Y159040D01*
X157191Y158990D01*
X157122Y158948D01*
X157081Y158902D01*
X157033Y158864D01*
X156987Y158798D01*
X156933Y158739D01*
X156906Y158683D01*
X156871Y158633D01*
X156845Y158557D01*
X156810Y158485D01*
X156802Y158429D01*
X156780Y158366D01*
X156775Y158261D01*
X156763Y158180D01*
X156763Y39788D01*
X156774Y39709D01*
X156776Y39629D01*
X156794Y39570D01*
X156803Y39509D01*
X156836Y39436D01*
X156859Y39359D01*
X156893Y39308D01*
X156919Y39252D01*
X156971Y39191D01*
X157015Y39124D01*
X157062Y39084D01*
X157102Y39038D01*
X157169Y38994D01*
X157230Y38942D01*
X157286Y38917D01*
X157338Y38883D01*
X157415Y38860D01*
X157488Y38827D01*
X157544Y38820D01*
X157608Y38801D01*
X157712Y38799D01*
X157794Y38789D01*
X159968Y38858D01*
X162750Y37808D01*
X162790Y37799D01*
X162826Y37783D01*
X162927Y37769D01*
X163026Y37747D01*
X163066Y37749D01*
X163106Y37743D01*
X163206Y37758D01*
X163307Y37764D01*
X163345Y37778D01*
X163385Y37784D01*
X163477Y37826D01*
X163572Y37860D01*
X163605Y37884D01*
X163641Y37901D01*
X163718Y37967D01*
X163800Y38027D01*
X163825Y38058D01*
X163855Y38085D01*
X163911Y38170D01*
X163973Y38250D01*
X163987Y38287D01*
X164009Y38321D01*
X164039Y38418D01*
X164071Y38501D01*
X169300Y38501D01*
X169364Y38510D01*
X169428Y38509D01*
X169503Y38530D01*
X169579Y38541D01*
X169638Y38567D01*
X169700Y38584D01*
X169766Y38625D01*
X169836Y38657D01*
X169885Y38699D01*
X169940Y38732D01*
X169992Y38790D01*
X170050Y38840D01*
X170086Y38894D01*
X170129Y38942D01*
X170162Y39011D01*
X170205Y39076D01*
X170224Y39138D01*
X170252Y39195D01*
X170263Y39265D01*
X170287Y39346D01*
X170288Y39431D01*
X170299Y39500D01*
X170299Y41500D01*
X170290Y41564D01*
X170291Y41628D01*
X170270Y41703D01*
X170259Y41779D01*
X170233Y41838D01*
X170216Y41900D01*
X170175Y41966D01*
X170143Y42036D01*
X170101Y42085D01*
X170068Y42140D01*
X170010Y42192D01*
X169960Y42250D01*
X169906Y42286D01*
X169858Y42329D01*
X169789Y42362D01*
X169724Y42405D01*
X169662Y42424D01*
X169605Y42452D01*
X169535Y42462D01*
X169454Y42487D01*
X169369Y42488D01*
X169300Y42499D01*
X164153Y42499D01*
X164261Y43177D01*
X164817Y44888D01*
X165634Y46491D01*
X166691Y47947D01*
X167963Y49219D01*
X169419Y50276D01*
X171022Y51093D01*
X172733Y51649D01*
X174510Y51931D01*
X182301Y51931D01*
X182301Y46834D01*
X182302Y46825D01*
X182301Y46815D01*
X182322Y46685D01*
X182341Y46555D01*
X182344Y46546D01*
X182346Y46537D01*
X182403Y46417D01*
X182457Y46298D01*
X182463Y46291D01*
X182467Y46282D01*
X182555Y46183D01*
X182640Y46084D01*
X182648Y46078D01*
X182654Y46071D01*
X182720Y46031D01*
X182876Y45929D01*
X182899Y45922D01*
X182918Y45911D01*
X183778Y45555D01*
X183819Y45524D01*
X183879Y45501D01*
X183935Y45469D01*
X184011Y45451D01*
X184083Y45424D01*
X184147Y45419D01*
X184210Y45404D01*
X184287Y45408D01*
X184364Y45402D01*
X184427Y45415D01*
X184492Y45419D01*
X184565Y45444D01*
X184640Y45460D01*
X184697Y45490D01*
X184758Y45511D01*
X184811Y45550D01*
X185682Y45911D01*
X185690Y45916D01*
X185700Y45918D01*
X185812Y45988D01*
X185925Y46054D01*
X185932Y46061D01*
X185940Y46066D01*
X186028Y46164D01*
X186118Y46260D01*
X186122Y46269D01*
X186129Y46276D01*
X186186Y46394D01*
X186246Y46512D01*
X186248Y46521D01*
X186252Y46529D01*
X186263Y46605D01*
X186298Y46789D01*
X186296Y46813D01*
X186299Y46834D01*
X186299Y51931D01*
X194090Y51931D01*
X195867Y51649D01*
X197578Y51093D01*
X199181Y50276D01*
X200637Y49219D01*
X201909Y47947D01*
X202966Y46491D01*
X203783Y44888D01*
X204339Y43177D01*
X204447Y42499D01*
X199300Y42499D01*
X199236Y42490D01*
X199172Y42491D01*
X199097Y42470D01*
X199021Y42459D01*
X198962Y42433D01*
X198900Y42416D01*
X198834Y42375D01*
X198764Y42343D01*
X198715Y42301D01*
X198660Y42268D01*
X198608Y42210D01*
X198550Y42160D01*
X198514Y42106D01*
X198471Y42058D01*
X198438Y41989D01*
X198395Y41924D01*
X198376Y41862D01*
X198348Y41805D01*
X198337Y41735D01*
X198313Y41654D01*
X198312Y41569D01*
X198301Y41500D01*
X198301Y39500D01*
X198309Y39441D01*
X198309Y39425D01*
X198310Y39423D01*
X198309Y39372D01*
X198330Y39297D01*
X198341Y39221D01*
X198367Y39162D01*
X198384Y39100D01*
X198425Y39034D01*
X198457Y38964D01*
X198499Y38915D01*
X198532Y38860D01*
X198590Y38808D01*
X198640Y38750D01*
X198694Y38714D01*
X198742Y38671D01*
X198811Y38638D01*
X198876Y38595D01*
X198938Y38576D01*
X198995Y38548D01*
X199065Y38537D01*
X199146Y38513D01*
X199231Y38512D01*
X199300Y38501D01*
X204447Y38501D01*
X204339Y37823D01*
X203783Y36112D01*
X202966Y34509D01*
X201909Y33053D01*
X200637Y31781D01*
X199181Y30724D01*
X197578Y29907D01*
X195867Y29351D01*
X194090Y29069D01*
X186299Y29069D01*
X186299Y34166D01*
X186298Y34175D01*
X186299Y34185D01*
X186278Y34315D01*
X186259Y34445D01*
X186256Y34454D01*
X186254Y34463D01*
X186197Y34582D01*
X186143Y34702D01*
X186137Y34709D01*
X186133Y34718D01*
X186045Y34816D01*
X185960Y34916D01*
X185952Y34922D01*
X185946Y34929D01*
X185880Y34969D01*
X185724Y35071D01*
X185701Y35078D01*
X185682Y35089D01*
X184823Y35445D01*
X184781Y35476D01*
X184721Y35499D01*
X184665Y35531D01*
X184590Y35549D01*
X184518Y35576D01*
X184453Y35581D01*
X184391Y35596D01*
X184313Y35592D01*
X184236Y35598D01*
X184173Y35585D01*
X184109Y35581D01*
X184036Y35556D01*
X183960Y35540D01*
X183903Y35510D01*
X183842Y35489D01*
X183790Y35450D01*
X182918Y35089D01*
X182909Y35084D01*
X182900Y35082D01*
X182788Y35012D01*
X182675Y34945D01*
X182668Y34939D01*
X182660Y34934D01*
X182572Y34836D01*
X182482Y34740D01*
X182478Y34731D01*
X182471Y34724D01*
X182414Y34605D01*
X182354Y34488D01*
X182352Y34479D01*
X182348Y34471D01*
X182336Y34395D01*
X182302Y34211D01*
X182304Y34187D01*
X182301Y34166D01*
X182301Y29069D01*
X174510Y29069D01*
X173317Y29258D01*
X173245Y29259D01*
X173174Y29270D01*
X173105Y29262D01*
X173035Y29263D01*
X172966Y29244D01*
X172895Y29234D01*
X172831Y29207D01*
X172763Y29188D01*
X172702Y29150D01*
X172636Y29122D01*
X172582Y29077D01*
X172523Y29040D01*
X172475Y28987D01*
X172419Y28941D01*
X172380Y28883D01*
X172333Y28832D01*
X172302Y28767D01*
X172262Y28707D01*
X172240Y28641D01*
X172210Y28578D01*
X172197Y28507D01*
X172176Y28439D01*
X172174Y28369D01*
X172162Y28300D01*
X172170Y28229D01*
X172168Y28157D01*
X172185Y28095D01*
X172194Y28020D01*
X172230Y27933D01*
X172250Y27860D01*
X172571Y27150D01*
X172643Y27037D01*
X172714Y26922D01*
X172718Y26918D01*
X172722Y26912D01*
X172823Y26823D01*
X172923Y26733D01*
X172929Y26730D01*
X172934Y26726D01*
X173056Y26669D01*
X173177Y26610D01*
X173183Y26609D01*
X173189Y26606D01*
X173468Y26563D01*
X173475Y26564D01*
X173481Y26563D01*
X293387Y26563D01*
X293450Y26572D01*
G37*
G36*
X356950Y26572D02*
X356950Y26572D01*
X357015Y26571D01*
X357089Y26592D01*
X357166Y26603D01*
X357224Y26629D01*
X357286Y26646D01*
X357352Y26687D01*
X357423Y26719D01*
X357472Y26761D01*
X357526Y26794D01*
X357578Y26852D01*
X357637Y26902D01*
X357672Y26956D01*
X357715Y27004D01*
X357749Y27073D01*
X357792Y27138D01*
X357810Y27200D01*
X357838Y27257D01*
X357849Y27327D01*
X357874Y27408D01*
X357875Y27493D01*
X357886Y27562D01*
X357886Y41834D01*
X358482Y42430D01*
X366436Y42430D01*
X367031Y41834D01*
X367031Y27562D01*
X367041Y27498D01*
X367040Y27434D01*
X367060Y27359D01*
X367071Y27283D01*
X367098Y27224D01*
X367115Y27162D01*
X367156Y27096D01*
X367188Y27026D01*
X367229Y26977D01*
X367263Y26922D01*
X367321Y26870D01*
X367371Y26812D01*
X367425Y26776D01*
X367472Y26733D01*
X367542Y26700D01*
X367607Y26657D01*
X367668Y26638D01*
X367726Y26610D01*
X367796Y26599D01*
X367877Y26575D01*
X367961Y26574D01*
X368031Y26563D01*
X369587Y26563D01*
X369650Y26572D01*
X369715Y26571D01*
X369789Y26592D01*
X369866Y26603D01*
X369924Y26629D01*
X369986Y26646D01*
X370052Y26687D01*
X370123Y26719D01*
X370172Y26761D01*
X370226Y26794D01*
X370278Y26852D01*
X370337Y26902D01*
X370372Y26956D01*
X370415Y27004D01*
X370449Y27073D01*
X370492Y27138D01*
X370510Y27200D01*
X370538Y27257D01*
X370549Y27327D01*
X370574Y27408D01*
X370575Y27493D01*
X370586Y27562D01*
X370586Y41834D01*
X371130Y42378D01*
X371168Y42429D01*
X371214Y42474D01*
X371252Y42542D01*
X371299Y42603D01*
X371322Y42664D01*
X371353Y42720D01*
X371371Y42795D01*
X371398Y42867D01*
X371403Y42931D01*
X371418Y42994D01*
X371414Y43071D01*
X371420Y43149D01*
X371407Y43212D01*
X371404Y43276D01*
X371378Y43349D01*
X371363Y43425D01*
X371332Y43481D01*
X371311Y43542D01*
X371270Y43599D01*
X371230Y43674D01*
X371171Y43734D01*
X371130Y43791D01*
X370701Y44219D01*
X370701Y47781D01*
X373219Y50299D01*
X376781Y50299D01*
X379299Y47781D01*
X379299Y44219D01*
X379029Y43950D01*
X378991Y43898D01*
X378945Y43854D01*
X378906Y43786D01*
X378860Y43724D01*
X378837Y43664D01*
X378806Y43608D01*
X378788Y43533D01*
X378760Y43460D01*
X378755Y43396D01*
X378741Y43334D01*
X378745Y43256D01*
X378739Y43179D01*
X378752Y43116D01*
X378755Y43052D01*
X378780Y42979D01*
X378796Y42903D01*
X378826Y42846D01*
X378847Y42786D01*
X378889Y42729D01*
X378929Y42654D01*
X378988Y42593D01*
X379029Y42537D01*
X379731Y41834D01*
X379731Y27562D01*
X379741Y27498D01*
X379740Y27434D01*
X379760Y27359D01*
X379771Y27283D01*
X379798Y27224D01*
X379815Y27162D01*
X379856Y27096D01*
X379888Y27026D01*
X379929Y26977D01*
X379963Y26922D01*
X380021Y26870D01*
X380071Y26812D01*
X380125Y26776D01*
X380172Y26733D01*
X380242Y26700D01*
X380307Y26657D01*
X380368Y26638D01*
X380426Y26610D01*
X380496Y26599D01*
X380577Y26575D01*
X380661Y26574D01*
X380731Y26563D01*
X382287Y26563D01*
X382350Y26572D01*
X382415Y26571D01*
X382489Y26592D01*
X382566Y26603D01*
X382624Y26629D01*
X382686Y26646D01*
X382752Y26687D01*
X382823Y26719D01*
X382872Y26761D01*
X382926Y26794D01*
X382978Y26852D01*
X383037Y26902D01*
X383072Y26956D01*
X383115Y27004D01*
X383149Y27073D01*
X383192Y27138D01*
X383210Y27200D01*
X383238Y27257D01*
X383249Y27327D01*
X383274Y27408D01*
X383275Y27493D01*
X383286Y27562D01*
X383286Y41834D01*
X383980Y42528D01*
X384018Y42579D01*
X384064Y42624D01*
X384102Y42692D01*
X384149Y42753D01*
X384172Y42814D01*
X384203Y42870D01*
X384221Y42945D01*
X384248Y43017D01*
X384253Y43081D01*
X384268Y43144D01*
X384264Y43221D01*
X384270Y43299D01*
X384257Y43362D01*
X384254Y43426D01*
X384228Y43499D01*
X384213Y43575D01*
X384182Y43631D01*
X384161Y43692D01*
X384120Y43749D01*
X384080Y43824D01*
X384021Y43884D01*
X383980Y43941D01*
X383701Y44219D01*
X383701Y47781D01*
X386219Y50299D01*
X389781Y50299D01*
X392299Y47781D01*
X392299Y44219D01*
X391879Y43800D01*
X391841Y43748D01*
X391795Y43704D01*
X391756Y43636D01*
X391710Y43574D01*
X391687Y43514D01*
X391656Y43458D01*
X391638Y43383D01*
X391610Y43310D01*
X391605Y43246D01*
X391591Y43184D01*
X391595Y43106D01*
X391589Y43029D01*
X391602Y42966D01*
X391605Y42902D01*
X391630Y42829D01*
X391646Y42753D01*
X391676Y42696D01*
X391697Y42636D01*
X391739Y42579D01*
X391779Y42504D01*
X391838Y42443D01*
X391879Y42387D01*
X392431Y41834D01*
X392431Y27562D01*
X392441Y27498D01*
X392440Y27434D01*
X392460Y27359D01*
X392471Y27283D01*
X392498Y27224D01*
X392515Y27162D01*
X392556Y27096D01*
X392588Y27026D01*
X392629Y26977D01*
X392663Y26922D01*
X392721Y26870D01*
X392771Y26812D01*
X392825Y26776D01*
X392872Y26733D01*
X392942Y26700D01*
X393007Y26657D01*
X393068Y26638D01*
X393126Y26610D01*
X393196Y26599D01*
X393277Y26575D01*
X393361Y26574D01*
X393431Y26563D01*
X393463Y26563D01*
X393524Y26571D01*
X393559Y26571D01*
X393560Y26571D01*
X393591Y26571D01*
X393665Y26592D01*
X393742Y26603D01*
X393800Y26629D01*
X393862Y26646D01*
X393928Y26687D01*
X393999Y26719D01*
X394048Y26761D01*
X394102Y26794D01*
X394154Y26852D01*
X394213Y26902D01*
X394248Y26956D01*
X394291Y27004D01*
X394325Y27073D01*
X394368Y27138D01*
X394386Y27200D01*
X394414Y27257D01*
X394425Y27327D01*
X394450Y27408D01*
X394451Y27493D01*
X394462Y27562D01*
X394462Y32524D01*
X399781Y32524D01*
X399844Y32533D01*
X399908Y32532D01*
X399983Y32553D01*
X400060Y32564D01*
X400118Y32590D01*
X400180Y32607D01*
X400246Y32648D01*
X400317Y32680D01*
X400365Y32722D01*
X400420Y32756D01*
X400472Y32813D01*
X400531Y32863D01*
X400566Y32917D01*
X400609Y32965D01*
X400643Y33034D01*
X400685Y33099D01*
X400704Y33161D01*
X400732Y33219D01*
X400743Y33288D01*
X400768Y33369D01*
X400769Y33454D01*
X400780Y33523D01*
X400780Y34080D01*
X401337Y34080D01*
X401400Y34089D01*
X401465Y34088D01*
X401539Y34109D01*
X401616Y34120D01*
X401674Y34146D01*
X401736Y34164D01*
X401802Y34204D01*
X401873Y34236D01*
X401922Y34278D01*
X401976Y34312D01*
X402028Y34369D01*
X402087Y34420D01*
X402122Y34473D01*
X402165Y34521D01*
X402199Y34591D01*
X402242Y34656D01*
X402260Y34717D01*
X402288Y34775D01*
X402299Y34844D01*
X402324Y34925D01*
X402325Y35010D01*
X402336Y35079D01*
X402336Y43954D01*
X404449Y43954D01*
X405095Y43781D01*
X405675Y43446D01*
X406148Y42973D01*
X406373Y42584D01*
X406386Y42567D01*
X406395Y42547D01*
X406473Y42456D01*
X406547Y42362D01*
X406564Y42350D01*
X406578Y42333D01*
X406679Y42267D01*
X406776Y42198D01*
X406796Y42190D01*
X406814Y42179D01*
X406929Y42144D01*
X407042Y42104D01*
X407063Y42103D01*
X407084Y42096D01*
X407204Y42095D01*
X407323Y42088D01*
X407344Y42093D01*
X407366Y42092D01*
X407481Y42124D01*
X407598Y42151D01*
X407617Y42162D01*
X407638Y42168D01*
X407740Y42231D01*
X407844Y42289D01*
X407859Y42305D01*
X407878Y42316D01*
X407958Y42405D01*
X408042Y42490D01*
X408052Y42509D01*
X408067Y42525D01*
X408119Y42633D01*
X408176Y42738D01*
X408180Y42760D01*
X408190Y42779D01*
X408204Y42869D01*
X408235Y43014D01*
X408232Y43051D01*
X408237Y43084D01*
X408237Y155489D01*
X408234Y155510D01*
X408236Y155532D01*
X408229Y155572D01*
X408229Y155594D01*
X408216Y155641D01*
X408214Y155650D01*
X408197Y155768D01*
X408189Y155788D01*
X408185Y155809D01*
X408130Y155916D01*
X408081Y156025D01*
X408067Y156041D01*
X408058Y156061D01*
X407976Y156149D01*
X407898Y156239D01*
X407880Y156251D01*
X407865Y156267D01*
X407762Y156328D01*
X407662Y156394D01*
X407641Y156400D01*
X407623Y156411D01*
X407507Y156441D01*
X407392Y156476D01*
X407371Y156477D01*
X407350Y156482D01*
X407230Y156478D01*
X407110Y156480D01*
X407089Y156474D01*
X407068Y156474D01*
X406954Y156437D01*
X406838Y156405D01*
X406820Y156393D01*
X406799Y156387D01*
X406700Y156320D01*
X406598Y156257D01*
X406584Y156241D01*
X406566Y156229D01*
X406509Y156157D01*
X406500Y156148D01*
X406474Y156126D01*
X406459Y156102D01*
X406409Y156047D01*
X406393Y156014D01*
X406373Y155989D01*
X406148Y155599D01*
X405675Y155126D01*
X405095Y154792D01*
X404449Y154619D01*
X402336Y154619D01*
X402336Y163493D01*
X402327Y163554D01*
X402328Y163588D01*
X402327Y163589D01*
X402328Y163621D01*
X402307Y163696D01*
X402296Y163772D01*
X402270Y163831D01*
X402253Y163893D01*
X402212Y163959D01*
X402180Y164029D01*
X402138Y164078D01*
X402104Y164133D01*
X402047Y164185D01*
X401997Y164243D01*
X401943Y164279D01*
X401895Y164322D01*
X401826Y164355D01*
X401761Y164398D01*
X401699Y164417D01*
X401641Y164445D01*
X401572Y164456D01*
X401491Y164480D01*
X401406Y164481D01*
X401337Y164492D01*
X400780Y164492D01*
X400780Y165049D01*
X400771Y165113D01*
X400772Y165177D01*
X400751Y165252D01*
X400740Y165328D01*
X400714Y165387D01*
X400696Y165449D01*
X400656Y165515D01*
X400624Y165585D01*
X400582Y165634D01*
X400548Y165689D01*
X400491Y165741D01*
X400440Y165800D01*
X400387Y165835D01*
X400339Y165878D01*
X400269Y165912D01*
X400204Y165954D01*
X400143Y165973D01*
X400085Y166001D01*
X400016Y166012D01*
X399935Y166037D01*
X399850Y166038D01*
X399781Y166049D01*
X394462Y166049D01*
X394462Y170438D01*
X394453Y170502D01*
X394454Y170566D01*
X394433Y170641D01*
X394422Y170717D01*
X394396Y170776D01*
X394379Y170838D01*
X394338Y170904D01*
X394306Y170974D01*
X394264Y171023D01*
X394230Y171078D01*
X394173Y171130D01*
X394123Y171188D01*
X394069Y171224D01*
X394021Y171267D01*
X393951Y171300D01*
X393887Y171343D01*
X393825Y171362D01*
X393767Y171390D01*
X393698Y171401D01*
X393617Y171425D01*
X393532Y171426D01*
X393463Y171437D01*
X393431Y171437D01*
X393370Y171429D01*
X393335Y171429D01*
X393333Y171429D01*
X393303Y171429D01*
X393228Y171408D01*
X393152Y171397D01*
X393093Y171371D01*
X393031Y171354D01*
X392965Y171313D01*
X392895Y171281D01*
X392846Y171239D01*
X392791Y171206D01*
X392739Y171148D01*
X392680Y171098D01*
X392645Y171044D01*
X392602Y170996D01*
X392568Y170927D01*
X392526Y170862D01*
X392507Y170800D01*
X392479Y170743D01*
X392468Y170673D01*
X392443Y170592D01*
X392442Y170507D01*
X392431Y170438D01*
X392431Y156738D01*
X391836Y156143D01*
X391016Y156143D01*
X390952Y156133D01*
X390888Y156134D01*
X390813Y156114D01*
X390737Y156103D01*
X390678Y156076D01*
X390616Y156059D01*
X390550Y156018D01*
X390480Y155986D01*
X390431Y155945D01*
X390376Y155911D01*
X390324Y155853D01*
X390266Y155803D01*
X390230Y155749D01*
X390187Y155702D01*
X390154Y155632D01*
X390111Y155567D01*
X390092Y155506D01*
X390064Y155448D01*
X390053Y155378D01*
X390029Y155297D01*
X390028Y155213D01*
X390021Y155169D01*
X389107Y154255D01*
X389087Y154229D01*
X389063Y154208D01*
X389003Y154116D01*
X388937Y154029D01*
X388926Y153999D01*
X388908Y153972D01*
X388876Y153867D01*
X388838Y153765D01*
X388835Y153733D01*
X388826Y153702D01*
X388824Y153593D01*
X388816Y153484D01*
X388823Y153452D01*
X388822Y153420D01*
X388851Y153315D01*
X388874Y153208D01*
X388889Y153179D01*
X388897Y153148D01*
X388955Y153055D01*
X389006Y152959D01*
X389029Y152936D01*
X389046Y152908D01*
X389126Y152835D01*
X389203Y152757D01*
X389231Y152741D01*
X389255Y152719D01*
X389353Y152672D01*
X389448Y152618D01*
X389480Y152610D01*
X389509Y152596D01*
X389598Y152582D01*
X389723Y152553D01*
X389771Y152555D01*
X389813Y152549D01*
X389884Y152549D01*
X392549Y149884D01*
X392549Y146116D01*
X391139Y144707D01*
X391120Y144681D01*
X391096Y144660D01*
X391036Y144568D01*
X390970Y144481D01*
X390959Y144451D01*
X390941Y144424D01*
X390909Y144319D01*
X390871Y144217D01*
X390868Y144185D01*
X390859Y144154D01*
X390857Y144045D01*
X390849Y143936D01*
X390855Y143904D01*
X390855Y143872D01*
X390884Y143767D01*
X390906Y143660D01*
X390922Y143631D01*
X390930Y143600D01*
X390988Y143507D01*
X391039Y143411D01*
X391061Y143388D01*
X391078Y143360D01*
X391159Y143287D01*
X391236Y143209D01*
X391264Y143193D01*
X391288Y143171D01*
X391386Y143124D01*
X391481Y143070D01*
X391512Y143062D01*
X391541Y143048D01*
X391631Y143034D01*
X391755Y143005D01*
X391804Y143007D01*
X391846Y143001D01*
X393000Y143001D01*
X393095Y143014D01*
X393191Y143019D01*
X393234Y143034D01*
X393279Y143041D01*
X393367Y143080D01*
X393458Y143112D01*
X393492Y143137D01*
X393536Y143157D01*
X393634Y143240D01*
X393707Y143293D01*
X396159Y145745D01*
X396216Y145822D01*
X396281Y145894D01*
X396301Y145935D01*
X396328Y145971D01*
X396362Y146061D01*
X396404Y146147D01*
X396410Y146189D01*
X396427Y146235D01*
X396432Y146295D01*
X396439Y146319D01*
X396440Y146381D01*
X396451Y146452D01*
X396451Y149884D01*
X399116Y152549D01*
X402884Y152549D01*
X405549Y149884D01*
X405549Y146116D01*
X402884Y143451D01*
X399983Y143451D01*
X399888Y143438D01*
X399791Y143433D01*
X399748Y143418D01*
X399703Y143411D01*
X399616Y143372D01*
X399525Y143340D01*
X399491Y143315D01*
X399446Y143295D01*
X399349Y143212D01*
X399276Y143159D01*
X395085Y138967D01*
X365531Y138967D01*
X365436Y138954D01*
X365339Y138949D01*
X365296Y138934D01*
X365251Y138927D01*
X365164Y138888D01*
X365073Y138856D01*
X365039Y138831D01*
X364994Y138811D01*
X364897Y138728D01*
X364824Y138675D01*
X361357Y135208D01*
X361300Y135131D01*
X361235Y135060D01*
X361215Y135019D01*
X361188Y134982D01*
X361159Y134906D01*
X361159Y134905D01*
X361154Y134892D01*
X361112Y134806D01*
X361106Y134764D01*
X361089Y134719D01*
X361084Y134660D01*
X361077Y134636D01*
X361076Y134573D01*
X361065Y134501D01*
X361065Y91213D01*
X352068Y82216D01*
X352052Y82195D01*
X352036Y82181D01*
X352004Y82132D01*
X351946Y82068D01*
X351926Y82027D01*
X351899Y81990D01*
X351882Y81945D01*
X351865Y81900D01*
X351823Y81814D01*
X351816Y81772D01*
X351799Y81727D01*
X351789Y81599D01*
X351775Y81509D01*
X351775Y43429D01*
X351785Y43366D01*
X351784Y43301D01*
X351804Y43227D01*
X351815Y43150D01*
X351842Y43092D01*
X351859Y43030D01*
X351900Y42964D01*
X351932Y42893D01*
X351973Y42844D01*
X352007Y42790D01*
X352065Y42738D01*
X352115Y42679D01*
X352169Y42644D01*
X352216Y42601D01*
X352286Y42567D01*
X352351Y42524D01*
X352412Y42506D01*
X352470Y42478D01*
X352540Y42467D01*
X352621Y42442D01*
X352705Y42441D01*
X352775Y42430D01*
X353736Y42430D01*
X354331Y41834D01*
X354331Y27562D01*
X354341Y27498D01*
X354340Y27434D01*
X354360Y27359D01*
X354371Y27283D01*
X354398Y27224D01*
X354415Y27162D01*
X354456Y27096D01*
X354488Y27026D01*
X354529Y26977D01*
X354563Y26922D01*
X354621Y26870D01*
X354671Y26812D01*
X354725Y26776D01*
X354772Y26733D01*
X354842Y26700D01*
X354907Y26657D01*
X354968Y26638D01*
X355026Y26610D01*
X355096Y26599D01*
X355177Y26575D01*
X355261Y26574D01*
X355331Y26563D01*
X356887Y26563D01*
X356950Y26572D01*
G37*
%LPC*%
G36*
X234219Y28701D02*
X234219Y28701D01*
X231995Y30926D01*
X231961Y30951D01*
X231932Y30983D01*
X231848Y31036D01*
X231770Y31095D01*
X231729Y31110D01*
X231693Y31133D01*
X231598Y31160D01*
X231506Y31194D01*
X231463Y31198D01*
X231422Y31209D01*
X231323Y31209D01*
X231225Y31216D01*
X231182Y31207D01*
X231140Y31207D01*
X231045Y31179D01*
X230948Y31159D01*
X230911Y31138D01*
X230869Y31126D01*
X230786Y31072D01*
X230699Y31026D01*
X230669Y30996D01*
X230633Y30973D01*
X230568Y30898D01*
X230497Y30829D01*
X230476Y30792D01*
X230448Y30759D01*
X230413Y30681D01*
X230358Y30584D01*
X230344Y30525D01*
X230323Y30478D01*
X230268Y30269D01*
X229933Y29690D01*
X229460Y29217D01*
X228881Y28882D01*
X228235Y28709D01*
X225399Y28709D01*
X225399Y33501D01*
X230702Y33501D01*
X230766Y33510D01*
X230830Y33509D01*
X230905Y33530D01*
X230981Y33541D01*
X231040Y33567D01*
X231102Y33584D01*
X231168Y33625D01*
X231238Y33657D01*
X231287Y33699D01*
X231342Y33732D01*
X231394Y33790D01*
X231452Y33840D01*
X231488Y33894D01*
X231531Y33942D01*
X231564Y34011D01*
X231607Y34076D01*
X231626Y34138D01*
X231654Y34195D01*
X231665Y34265D01*
X231689Y34346D01*
X231690Y34431D01*
X231701Y34500D01*
X231701Y34781D01*
X234219Y37299D01*
X236651Y37299D01*
X236746Y37312D01*
X236842Y37317D01*
X236885Y37332D01*
X236930Y37339D01*
X237018Y37378D01*
X237108Y37410D01*
X237143Y37435D01*
X237187Y37455D01*
X237284Y37538D01*
X237357Y37591D01*
X241421Y41655D01*
X241478Y41731D01*
X241543Y41803D01*
X241563Y41844D01*
X241590Y41880D01*
X241624Y41970D01*
X241666Y42057D01*
X241672Y42099D01*
X241689Y42144D01*
X241699Y42272D01*
X241713Y42361D01*
X241713Y71793D01*
X241700Y71888D01*
X241695Y71985D01*
X241680Y72028D01*
X241673Y72073D01*
X241634Y72160D01*
X241602Y72251D01*
X241577Y72285D01*
X241557Y72330D01*
X241474Y72427D01*
X241421Y72500D01*
X239701Y74219D01*
X239701Y77781D01*
X242219Y80299D01*
X245781Y80299D01*
X245977Y80102D01*
X246003Y80083D01*
X246024Y80058D01*
X246116Y79998D01*
X246203Y79933D01*
X246233Y79921D01*
X246260Y79904D01*
X246365Y79872D01*
X246467Y79833D01*
X246499Y79831D01*
X246530Y79821D01*
X246639Y79820D01*
X246748Y79811D01*
X246780Y79818D01*
X246812Y79817D01*
X246917Y79847D01*
X247024Y79869D01*
X247053Y79884D01*
X247084Y79893D01*
X247177Y79950D01*
X247273Y80001D01*
X247296Y80024D01*
X247324Y80041D01*
X247397Y80122D01*
X247475Y80198D01*
X247491Y80226D01*
X247513Y80250D01*
X247560Y80349D01*
X247614Y80443D01*
X247622Y80475D01*
X247636Y80504D01*
X247650Y80593D01*
X247679Y80718D01*
X247677Y80766D01*
X247683Y80808D01*
X247683Y89884D01*
X247674Y89948D01*
X247675Y90012D01*
X247654Y90087D01*
X247643Y90163D01*
X247617Y90222D01*
X247600Y90284D01*
X247559Y90350D01*
X247527Y90420D01*
X247485Y90469D01*
X247452Y90524D01*
X247394Y90576D01*
X247344Y90634D01*
X247290Y90670D01*
X247242Y90713D01*
X247173Y90746D01*
X247108Y90789D01*
X247046Y90808D01*
X246989Y90836D01*
X246919Y90847D01*
X246838Y90871D01*
X246753Y90872D01*
X246684Y90883D01*
X245029Y90883D01*
X244607Y91306D01*
X244555Y91344D01*
X244510Y91390D01*
X244443Y91428D01*
X244381Y91475D01*
X244321Y91497D01*
X244265Y91529D01*
X244190Y91547D01*
X244117Y91574D01*
X244053Y91579D01*
X243991Y91594D01*
X243913Y91590D01*
X243836Y91596D01*
X243773Y91583D01*
X243709Y91580D01*
X243636Y91554D01*
X243560Y91539D01*
X243503Y91508D01*
X243442Y91487D01*
X243386Y91446D01*
X243311Y91406D01*
X243250Y91347D01*
X243193Y91306D01*
X242771Y90883D01*
X233429Y90883D01*
X233089Y91223D01*
X233037Y91262D01*
X232992Y91308D01*
X232964Y91324D01*
X232943Y91343D01*
X232904Y91362D01*
X232863Y91393D01*
X232803Y91415D01*
X232747Y91447D01*
X232711Y91456D01*
X232689Y91466D01*
X232653Y91472D01*
X232599Y91492D01*
X232535Y91497D01*
X232473Y91512D01*
X232415Y91509D01*
X232384Y91514D01*
X232380Y91514D01*
X232359Y91511D01*
X232318Y91514D01*
X232255Y91501D01*
X232191Y91498D01*
X232139Y91480D01*
X232101Y91474D01*
X232078Y91464D01*
X232042Y91456D01*
X231985Y91426D01*
X231925Y91405D01*
X231886Y91377D01*
X231844Y91358D01*
X231822Y91340D01*
X231793Y91324D01*
X231732Y91265D01*
X231676Y91223D01*
X227165Y86713D01*
X227016Y86713D01*
X226952Y86704D01*
X226888Y86705D01*
X226813Y86684D01*
X226737Y86673D01*
X226678Y86647D01*
X226616Y86630D01*
X226550Y86589D01*
X226480Y86557D01*
X226431Y86515D01*
X226376Y86482D01*
X226324Y86424D01*
X226266Y86374D01*
X226230Y86320D01*
X226187Y86272D01*
X226154Y86203D01*
X226111Y86138D01*
X226092Y86076D01*
X226064Y86019D01*
X226053Y85949D01*
X226029Y85868D01*
X226028Y85783D01*
X226017Y85714D01*
X226017Y84309D01*
X225421Y83713D01*
X217578Y83713D01*
X217547Y83709D01*
X217514Y83711D01*
X217407Y83689D01*
X217299Y83673D01*
X217270Y83660D01*
X217238Y83654D01*
X217142Y83602D01*
X217042Y83557D01*
X217018Y83536D01*
X216989Y83521D01*
X216911Y83445D01*
X216828Y83374D01*
X216810Y83347D01*
X216787Y83324D01*
X216734Y83230D01*
X216674Y83138D01*
X216664Y83107D01*
X216648Y83079D01*
X216623Y82973D01*
X216591Y82868D01*
X216591Y82836D01*
X216583Y82805D01*
X216589Y82695D01*
X216587Y82586D01*
X216596Y82555D01*
X216598Y82523D01*
X216633Y82420D01*
X216663Y82314D01*
X216680Y82287D01*
X216690Y82256D01*
X216743Y82183D01*
X216811Y82074D01*
X216847Y82042D01*
X216872Y82007D01*
X217099Y81781D01*
X217099Y78219D01*
X214581Y75701D01*
X211019Y75701D01*
X208501Y78219D01*
X208501Y81781D01*
X208728Y82007D01*
X208747Y82033D01*
X208772Y82054D01*
X208832Y82146D01*
X208897Y82233D01*
X208909Y82263D01*
X208926Y82290D01*
X208958Y82395D01*
X208997Y82497D01*
X208999Y82529D01*
X209009Y82560D01*
X209010Y82669D01*
X209019Y82778D01*
X209012Y82810D01*
X209013Y82842D01*
X208983Y82947D01*
X208961Y83054D01*
X208946Y83083D01*
X208937Y83114D01*
X208880Y83207D01*
X208829Y83303D01*
X208806Y83326D01*
X208789Y83354D01*
X208708Y83427D01*
X208632Y83505D01*
X208604Y83521D01*
X208580Y83543D01*
X208481Y83590D01*
X208387Y83644D01*
X208355Y83652D01*
X208326Y83666D01*
X208237Y83680D01*
X208112Y83709D01*
X208064Y83707D01*
X208022Y83713D01*
X199579Y83713D01*
X198983Y84309D01*
X198983Y93151D01*
X199579Y93747D01*
X225421Y93747D01*
X226251Y92917D01*
X226303Y92878D01*
X226348Y92832D01*
X226415Y92794D01*
X226477Y92747D01*
X226537Y92725D01*
X226593Y92693D01*
X226668Y92675D01*
X226741Y92648D01*
X226805Y92643D01*
X226867Y92628D01*
X226945Y92632D01*
X227022Y92626D01*
X227085Y92639D01*
X227149Y92642D01*
X227222Y92668D01*
X227298Y92684D01*
X227355Y92714D01*
X227415Y92735D01*
X227472Y92776D01*
X227547Y92816D01*
X227608Y92875D01*
X227664Y92917D01*
X232541Y97793D01*
X232580Y97845D01*
X232584Y97849D01*
X232596Y97866D01*
X232598Y97870D01*
X232663Y97941D01*
X232683Y97982D01*
X232710Y98018D01*
X232730Y98071D01*
X232739Y98085D01*
X232750Y98121D01*
X232786Y98195D01*
X232792Y98237D01*
X232809Y98282D01*
X232813Y98327D01*
X232821Y98355D01*
X232822Y98429D01*
X232833Y98499D01*
X232833Y101321D01*
X233429Y101917D01*
X242771Y101917D01*
X243193Y101494D01*
X243245Y101456D01*
X243290Y101410D01*
X243357Y101372D01*
X243419Y101325D01*
X243479Y101302D01*
X243535Y101271D01*
X243610Y101253D01*
X243683Y101226D01*
X243747Y101221D01*
X243810Y101206D01*
X243887Y101210D01*
X243964Y101204D01*
X244027Y101217D01*
X244091Y101220D01*
X244164Y101246D01*
X244240Y101261D01*
X244297Y101292D01*
X244358Y101313D01*
X244414Y101354D01*
X244489Y101394D01*
X244550Y101453D01*
X244607Y101494D01*
X245029Y101917D01*
X254371Y101917D01*
X254967Y101321D01*
X254967Y91458D01*
X254971Y91427D01*
X254969Y91394D01*
X254991Y91287D01*
X255007Y91179D01*
X255020Y91150D01*
X255026Y91118D01*
X255078Y91022D01*
X255123Y90922D01*
X255144Y90898D01*
X255159Y90869D01*
X255235Y90791D01*
X255306Y90708D01*
X255333Y90690D01*
X255356Y90667D01*
X255451Y90613D01*
X255542Y90554D01*
X255573Y90544D01*
X255601Y90528D01*
X255708Y90503D01*
X255812Y90471D01*
X255844Y90471D01*
X255876Y90463D01*
X255985Y90469D01*
X256094Y90467D01*
X256125Y90476D01*
X256157Y90478D01*
X256260Y90513D01*
X256366Y90543D01*
X256393Y90560D01*
X256424Y90570D01*
X256497Y90623D01*
X256606Y90691D01*
X256613Y90699D01*
X256984Y90699D01*
X257048Y90708D01*
X257112Y90707D01*
X257187Y90728D01*
X257263Y90739D01*
X257322Y90765D01*
X257384Y90782D01*
X257450Y90823D01*
X257520Y90855D01*
X257569Y90897D01*
X257624Y90930D01*
X257676Y90988D01*
X257734Y91038D01*
X257770Y91092D01*
X257813Y91140D01*
X257846Y91209D01*
X257889Y91274D01*
X257908Y91336D01*
X257936Y91393D01*
X257947Y91463D01*
X257971Y91544D01*
X257972Y91629D01*
X257983Y91698D01*
X257983Y106751D01*
X257970Y106846D01*
X257965Y106942D01*
X257950Y106985D01*
X257943Y107030D01*
X257904Y107117D01*
X257872Y107208D01*
X257847Y107243D01*
X257827Y107287D01*
X257744Y107384D01*
X257691Y107457D01*
X256907Y108241D01*
X256831Y108298D01*
X256759Y108363D01*
X256718Y108383D01*
X256682Y108410D01*
X256592Y108444D01*
X256505Y108486D01*
X256463Y108492D01*
X256418Y108509D01*
X256290Y108519D01*
X256201Y108533D01*
X255866Y108533D01*
X255802Y108524D01*
X255738Y108525D01*
X255663Y108504D01*
X255587Y108493D01*
X255528Y108467D01*
X255466Y108450D01*
X255400Y108409D01*
X255330Y108377D01*
X255281Y108335D01*
X255226Y108302D01*
X255174Y108244D01*
X255116Y108194D01*
X255080Y108140D01*
X255037Y108092D01*
X255004Y108023D01*
X254961Y107958D01*
X254942Y107896D01*
X254914Y107839D01*
X254903Y107769D01*
X254879Y107688D01*
X254878Y107603D01*
X254867Y107534D01*
X254867Y105629D01*
X254271Y105033D01*
X244929Y105033D01*
X244507Y105456D01*
X244455Y105494D01*
X244410Y105540D01*
X244343Y105578D01*
X244281Y105625D01*
X244221Y105647D01*
X244165Y105679D01*
X244090Y105697D01*
X244017Y105724D01*
X243953Y105729D01*
X243891Y105744D01*
X243813Y105740D01*
X243736Y105746D01*
X243673Y105733D01*
X243609Y105730D01*
X243536Y105704D01*
X243460Y105689D01*
X243403Y105658D01*
X243342Y105637D01*
X243286Y105596D01*
X243211Y105556D01*
X243150Y105497D01*
X243093Y105456D01*
X242671Y105033D01*
X233329Y105033D01*
X232733Y105629D01*
X232733Y106254D01*
X232724Y106318D01*
X232725Y106382D01*
X232704Y106457D01*
X232693Y106533D01*
X232667Y106592D01*
X232650Y106654D01*
X232609Y106720D01*
X232577Y106790D01*
X232535Y106839D01*
X232502Y106894D01*
X232444Y106946D01*
X232394Y107004D01*
X232340Y107040D01*
X232292Y107083D01*
X232223Y107116D01*
X232158Y107159D01*
X232096Y107178D01*
X232039Y107206D01*
X231969Y107217D01*
X231888Y107241D01*
X231803Y107242D01*
X231734Y107253D01*
X227016Y107253D01*
X226952Y107244D01*
X226888Y107245D01*
X226813Y107224D01*
X226737Y107213D01*
X226678Y107187D01*
X226616Y107170D01*
X226550Y107129D01*
X226480Y107097D01*
X226431Y107055D01*
X226376Y107022D01*
X226324Y106964D01*
X226266Y106914D01*
X226230Y106860D01*
X226187Y106812D01*
X226154Y106743D01*
X226111Y106678D01*
X226092Y106616D01*
X226064Y106559D01*
X226053Y106489D01*
X226029Y106408D01*
X226028Y106323D01*
X226017Y106254D01*
X226017Y104849D01*
X225421Y104253D01*
X199579Y104253D01*
X198983Y104849D01*
X198983Y113691D01*
X199579Y114287D01*
X207622Y114287D01*
X207654Y114291D01*
X207686Y114289D01*
X207793Y114311D01*
X207901Y114327D01*
X207930Y114340D01*
X207962Y114346D01*
X208058Y114398D01*
X208158Y114443D01*
X208182Y114464D01*
X208211Y114479D01*
X208289Y114555D01*
X208372Y114626D01*
X208390Y114653D01*
X208413Y114676D01*
X208466Y114770D01*
X208526Y114862D01*
X208536Y114893D01*
X208552Y114921D01*
X208577Y115027D01*
X208609Y115132D01*
X208609Y115164D01*
X208617Y115196D01*
X208611Y115305D01*
X208613Y115414D01*
X208604Y115445D01*
X208602Y115477D01*
X208567Y115580D01*
X208537Y115686D01*
X208520Y115713D01*
X208510Y115744D01*
X208501Y115755D01*
X208501Y119381D01*
X211019Y121899D01*
X214581Y121899D01*
X217099Y119381D01*
X217099Y115757D01*
X217091Y115737D01*
X217074Y115710D01*
X217042Y115605D01*
X217003Y115503D01*
X217001Y115471D01*
X216991Y115440D01*
X216990Y115331D01*
X216981Y115222D01*
X216988Y115190D01*
X216987Y115158D01*
X217017Y115053D01*
X217039Y114946D01*
X217054Y114917D01*
X217063Y114886D01*
X217120Y114793D01*
X217171Y114697D01*
X217194Y114674D01*
X217211Y114646D01*
X217292Y114573D01*
X217368Y114495D01*
X217396Y114479D01*
X217420Y114457D01*
X217518Y114410D01*
X217613Y114356D01*
X217645Y114348D01*
X217674Y114334D01*
X217763Y114320D01*
X217888Y114291D01*
X217936Y114293D01*
X217978Y114287D01*
X225421Y114287D01*
X226017Y113691D01*
X226017Y112286D01*
X226026Y112222D01*
X226025Y112158D01*
X226046Y112083D01*
X226057Y112007D01*
X226083Y111948D01*
X226100Y111886D01*
X226141Y111820D01*
X226173Y111750D01*
X226215Y111701D01*
X226248Y111646D01*
X226306Y111594D01*
X226356Y111536D01*
X226410Y111500D01*
X226458Y111457D01*
X226527Y111424D01*
X226592Y111381D01*
X226654Y111362D01*
X226711Y111334D01*
X226781Y111323D01*
X226862Y111299D01*
X226947Y111298D01*
X227016Y111287D01*
X231734Y111287D01*
X231798Y111296D01*
X231862Y111295D01*
X231937Y111316D01*
X232013Y111327D01*
X232072Y111353D01*
X232134Y111370D01*
X232200Y111411D01*
X232270Y111443D01*
X232319Y111485D01*
X232374Y111518D01*
X232426Y111576D01*
X232484Y111626D01*
X232520Y111680D01*
X232563Y111728D01*
X232596Y111797D01*
X232639Y111862D01*
X232658Y111924D01*
X232686Y111981D01*
X232697Y112051D01*
X232721Y112132D01*
X232722Y112217D01*
X232733Y112286D01*
X232733Y115471D01*
X233329Y116067D01*
X242671Y116067D01*
X243093Y115644D01*
X243145Y115606D01*
X243190Y115560D01*
X243257Y115522D01*
X243319Y115475D01*
X243379Y115452D01*
X243435Y115421D01*
X243510Y115403D01*
X243583Y115376D01*
X243647Y115371D01*
X243710Y115356D01*
X243787Y115360D01*
X243864Y115354D01*
X243927Y115367D01*
X243991Y115370D01*
X244064Y115396D01*
X244140Y115411D01*
X244197Y115442D01*
X244258Y115463D01*
X244314Y115504D01*
X244389Y115544D01*
X244450Y115603D01*
X244507Y115644D01*
X244929Y116067D01*
X254271Y116067D01*
X254867Y115471D01*
X254867Y113566D01*
X254876Y113502D01*
X254875Y113438D01*
X254896Y113363D01*
X254907Y113287D01*
X254933Y113228D01*
X254950Y113166D01*
X254991Y113100D01*
X255023Y113030D01*
X255065Y112981D01*
X255098Y112926D01*
X255156Y112874D01*
X255206Y112816D01*
X255260Y112780D01*
X255308Y112737D01*
X255377Y112704D01*
X255442Y112661D01*
X255504Y112642D01*
X255561Y112614D01*
X255631Y112603D01*
X255712Y112579D01*
X255797Y112578D01*
X255866Y112567D01*
X258285Y112567D01*
X262017Y108835D01*
X262017Y89277D01*
X262030Y89182D01*
X262035Y89085D01*
X262050Y89042D01*
X262057Y88997D01*
X262096Y88910D01*
X262128Y88819D01*
X262153Y88785D01*
X262173Y88740D01*
X262256Y88643D01*
X262309Y88570D01*
X262893Y87986D01*
X262945Y87947D01*
X262990Y87901D01*
X263057Y87863D01*
X263119Y87817D01*
X263179Y87794D01*
X263235Y87762D01*
X263310Y87744D01*
X263383Y87717D01*
X263447Y87712D01*
X263510Y87697D01*
X263587Y87701D01*
X263664Y87695D01*
X263727Y87708D01*
X263791Y87712D01*
X263864Y87737D01*
X263940Y87753D01*
X263997Y87783D01*
X264058Y87804D01*
X264114Y87846D01*
X264189Y87885D01*
X264250Y87945D01*
X264307Y87986D01*
X267019Y90699D01*
X270764Y90699D01*
X270823Y90676D01*
X270856Y90674D01*
X270887Y90664D01*
X270996Y90663D01*
X271104Y90654D01*
X271136Y90661D01*
X271169Y90661D01*
X271274Y90690D01*
X271381Y90712D01*
X271409Y90727D01*
X271440Y90736D01*
X271533Y90793D01*
X271630Y90844D01*
X271653Y90867D01*
X271680Y90884D01*
X271754Y90965D01*
X271832Y91041D01*
X271848Y91069D01*
X271869Y91093D01*
X271917Y91192D01*
X271971Y91286D01*
X271978Y91318D01*
X271992Y91347D01*
X272006Y91436D01*
X272036Y91561D01*
X272033Y91610D01*
X272040Y91652D01*
X272040Y97598D01*
X272636Y98194D01*
X287702Y98194D01*
X288297Y97598D01*
X288297Y96637D01*
X288307Y96574D01*
X288306Y96509D01*
X288326Y96435D01*
X288337Y96358D01*
X288364Y96300D01*
X288381Y96238D01*
X288422Y96172D01*
X288454Y96101D01*
X288495Y96052D01*
X288529Y95998D01*
X288587Y95946D01*
X288637Y95887D01*
X288691Y95852D01*
X288738Y95809D01*
X288808Y95775D01*
X288873Y95732D01*
X288934Y95714D01*
X288992Y95686D01*
X289062Y95675D01*
X289143Y95650D01*
X289227Y95649D01*
X289297Y95638D01*
X294145Y95638D01*
X294240Y95652D01*
X294336Y95656D01*
X294379Y95671D01*
X294424Y95678D01*
X294511Y95717D01*
X294602Y95749D01*
X294637Y95774D01*
X294681Y95794D01*
X294778Y95877D01*
X294851Y95931D01*
X297219Y98299D01*
X300781Y98299D01*
X303299Y95781D01*
X303299Y92219D01*
X300781Y89701D01*
X297219Y89701D01*
X295609Y91312D01*
X295532Y91369D01*
X295461Y91434D01*
X295420Y91454D01*
X295383Y91481D01*
X295293Y91515D01*
X295207Y91557D01*
X295165Y91564D01*
X295119Y91581D01*
X294992Y91591D01*
X294902Y91605D01*
X289297Y91605D01*
X289233Y91595D01*
X289169Y91596D01*
X289094Y91576D01*
X289018Y91565D01*
X288959Y91538D01*
X288897Y91521D01*
X288831Y91480D01*
X288761Y91448D01*
X288712Y91407D01*
X288657Y91373D01*
X288605Y91315D01*
X288546Y91265D01*
X288511Y91211D01*
X288468Y91164D01*
X288434Y91094D01*
X288392Y91029D01*
X288373Y90968D01*
X288345Y90910D01*
X288334Y90840D01*
X288309Y90759D01*
X288308Y90675D01*
X288297Y90605D01*
X288297Y89644D01*
X287702Y89049D01*
X274098Y89049D01*
X274034Y89039D01*
X273970Y89040D01*
X273895Y89020D01*
X273819Y89009D01*
X273760Y88982D01*
X273698Y88965D01*
X273632Y88924D01*
X273562Y88892D01*
X273513Y88851D01*
X273458Y88817D01*
X273406Y88759D01*
X273348Y88709D01*
X273312Y88655D01*
X273269Y88608D01*
X273236Y88538D01*
X273193Y88473D01*
X273174Y88412D01*
X273146Y88354D01*
X273135Y88284D01*
X273111Y88203D01*
X273110Y88119D01*
X273099Y88049D01*
X273099Y86493D01*
X273108Y86432D01*
X273107Y86390D01*
X273107Y86389D01*
X273107Y86365D01*
X273128Y86291D01*
X273139Y86214D01*
X273165Y86156D01*
X273182Y86094D01*
X273223Y86028D01*
X273255Y85957D01*
X273297Y85908D01*
X273330Y85854D01*
X273388Y85802D01*
X273438Y85743D01*
X273492Y85708D01*
X273540Y85665D01*
X273609Y85631D01*
X273674Y85588D01*
X273736Y85570D01*
X273793Y85542D01*
X273863Y85531D01*
X273944Y85506D01*
X274029Y85505D01*
X274098Y85494D01*
X287702Y85494D01*
X288297Y84898D01*
X288297Y76944D01*
X287702Y76349D01*
X272636Y76349D01*
X271825Y77159D01*
X271773Y77198D01*
X271728Y77244D01*
X271661Y77282D01*
X271599Y77329D01*
X271539Y77351D01*
X271483Y77383D01*
X271408Y77401D01*
X271335Y77428D01*
X271271Y77433D01*
X271209Y77448D01*
X271131Y77444D01*
X271054Y77450D01*
X270991Y77437D01*
X270927Y77434D01*
X270854Y77408D01*
X270778Y77392D01*
X270721Y77362D01*
X270661Y77341D01*
X270604Y77300D01*
X270529Y77260D01*
X270468Y77201D01*
X270412Y77159D01*
X269343Y76091D01*
X269343Y76090D01*
X267235Y73983D01*
X252765Y73983D01*
X251291Y75457D01*
X250005Y76743D01*
X249979Y76763D01*
X249958Y76787D01*
X249866Y76847D01*
X249779Y76913D01*
X249749Y76924D01*
X249722Y76942D01*
X249617Y76974D01*
X249515Y77012D01*
X249483Y77015D01*
X249452Y77024D01*
X249343Y77026D01*
X249234Y77034D01*
X249202Y77027D01*
X249170Y77028D01*
X249065Y76999D01*
X248958Y76976D01*
X248929Y76961D01*
X248898Y76953D01*
X248805Y76895D01*
X248709Y76844D01*
X248686Y76821D01*
X248658Y76804D01*
X248585Y76724D01*
X248507Y76647D01*
X248491Y76619D01*
X248469Y76595D01*
X248422Y76497D01*
X248368Y76402D01*
X248360Y76370D01*
X248346Y76341D01*
X248332Y76252D01*
X248303Y76127D01*
X248305Y76079D01*
X248299Y76037D01*
X248299Y74219D01*
X246579Y72500D01*
X246522Y72423D01*
X246457Y72352D01*
X246437Y72311D01*
X246410Y72274D01*
X246376Y72184D01*
X246334Y72098D01*
X246328Y72056D01*
X246311Y72011D01*
X246301Y71883D01*
X246287Y71793D01*
X246287Y40053D01*
X240591Y34357D01*
X240534Y34281D01*
X240469Y34209D01*
X240449Y34168D01*
X240422Y34132D01*
X240388Y34042D01*
X240346Y33955D01*
X240340Y33913D01*
X240323Y33868D01*
X240313Y33740D01*
X240299Y33651D01*
X240299Y31219D01*
X237781Y28701D01*
X234219Y28701D01*
G37*
%LPD*%
G36*
X318850Y26572D02*
X318850Y26572D01*
X318915Y26571D01*
X318989Y26592D01*
X319066Y26603D01*
X319124Y26629D01*
X319186Y26646D01*
X319252Y26687D01*
X319323Y26719D01*
X319372Y26761D01*
X319426Y26794D01*
X319478Y26852D01*
X319537Y26902D01*
X319572Y26956D01*
X319615Y27004D01*
X319649Y27073D01*
X319692Y27138D01*
X319710Y27200D01*
X319738Y27257D01*
X319749Y27327D01*
X319774Y27408D01*
X319775Y27493D01*
X319786Y27562D01*
X319786Y41834D01*
X320382Y42430D01*
X328336Y42430D01*
X328931Y41834D01*
X328931Y27562D01*
X328941Y27498D01*
X328940Y27434D01*
X328960Y27359D01*
X328971Y27283D01*
X328998Y27224D01*
X329015Y27162D01*
X329056Y27096D01*
X329088Y27026D01*
X329129Y26977D01*
X329163Y26922D01*
X329221Y26870D01*
X329271Y26812D01*
X329325Y26776D01*
X329372Y26733D01*
X329442Y26700D01*
X329507Y26657D01*
X329568Y26638D01*
X329626Y26610D01*
X329696Y26599D01*
X329777Y26575D01*
X329861Y26574D01*
X329931Y26563D01*
X331487Y26563D01*
X331550Y26572D01*
X331615Y26571D01*
X331689Y26592D01*
X331766Y26603D01*
X331824Y26629D01*
X331886Y26646D01*
X331952Y26687D01*
X332023Y26719D01*
X332072Y26761D01*
X332126Y26794D01*
X332178Y26852D01*
X332237Y26902D01*
X332272Y26956D01*
X332315Y27004D01*
X332349Y27073D01*
X332392Y27138D01*
X332410Y27200D01*
X332438Y27257D01*
X332449Y27327D01*
X332474Y27408D01*
X332475Y27493D01*
X332486Y27562D01*
X332486Y41834D01*
X333082Y42430D01*
X341036Y42430D01*
X341631Y41834D01*
X341631Y27562D01*
X341641Y27498D01*
X341640Y27434D01*
X341660Y27359D01*
X341671Y27283D01*
X341698Y27224D01*
X341715Y27162D01*
X341756Y27096D01*
X341788Y27026D01*
X341829Y26977D01*
X341863Y26922D01*
X341921Y26870D01*
X341971Y26812D01*
X342025Y26776D01*
X342072Y26733D01*
X342142Y26700D01*
X342207Y26657D01*
X342268Y26638D01*
X342326Y26610D01*
X342396Y26599D01*
X342477Y26575D01*
X342561Y26574D01*
X342631Y26563D01*
X344187Y26563D01*
X344250Y26572D01*
X344315Y26571D01*
X344389Y26592D01*
X344466Y26603D01*
X344524Y26629D01*
X344586Y26646D01*
X344652Y26687D01*
X344723Y26719D01*
X344772Y26761D01*
X344826Y26794D01*
X344878Y26852D01*
X344937Y26902D01*
X344972Y26956D01*
X345015Y27004D01*
X345049Y27073D01*
X345092Y27138D01*
X345110Y27200D01*
X345138Y27257D01*
X345149Y27327D01*
X345174Y27408D01*
X345175Y27493D01*
X345186Y27562D01*
X345186Y41834D01*
X345782Y42430D01*
X346743Y42430D01*
X346806Y42439D01*
X346871Y42438D01*
X346945Y42459D01*
X347022Y42470D01*
X347080Y42496D01*
X347142Y42513D01*
X347208Y42554D01*
X347279Y42586D01*
X347328Y42628D01*
X347382Y42662D01*
X347434Y42719D01*
X347493Y42769D01*
X347528Y42823D01*
X347571Y42871D01*
X347605Y42940D01*
X347648Y43005D01*
X347666Y43067D01*
X347694Y43125D01*
X347705Y43194D01*
X347730Y43275D01*
X347731Y43360D01*
X347742Y43429D01*
X347742Y79947D01*
X347737Y79979D01*
X347740Y80011D01*
X347718Y80118D01*
X347702Y80226D01*
X347689Y80256D01*
X347682Y80287D01*
X347631Y80384D01*
X347586Y80483D01*
X347565Y80508D01*
X347550Y80536D01*
X347474Y80614D01*
X347403Y80697D01*
X347376Y80715D01*
X347353Y80738D01*
X347258Y80792D01*
X347167Y80852D01*
X347136Y80861D01*
X347108Y80877D01*
X347001Y80902D01*
X346897Y80934D01*
X346865Y80935D01*
X346833Y80942D01*
X346724Y80937D01*
X346615Y80938D01*
X346584Y80929D01*
X346552Y80928D01*
X346448Y80892D01*
X346343Y80863D01*
X346316Y80846D01*
X346285Y80835D01*
X346212Y80782D01*
X346103Y80715D01*
X346071Y80679D01*
X346036Y80653D01*
X326824Y61441D01*
X325350Y59967D01*
X317249Y59967D01*
X317154Y59954D01*
X317058Y59949D01*
X317015Y59934D01*
X316970Y59927D01*
X316883Y59888D01*
X316792Y59856D01*
X316757Y59831D01*
X316713Y59811D01*
X316616Y59728D01*
X316543Y59675D01*
X313968Y57100D01*
X313911Y57023D01*
X313846Y56952D01*
X313826Y56911D01*
X313799Y56874D01*
X313765Y56784D01*
X313723Y56698D01*
X313716Y56656D01*
X313699Y56611D01*
X313689Y56483D01*
X313675Y56393D01*
X313675Y43429D01*
X313685Y43366D01*
X313684Y43301D01*
X313704Y43227D01*
X313715Y43150D01*
X313742Y43092D01*
X313759Y43030D01*
X313800Y42964D01*
X313832Y42893D01*
X313873Y42844D01*
X313907Y42790D01*
X313965Y42738D01*
X314015Y42679D01*
X314069Y42644D01*
X314116Y42601D01*
X314186Y42567D01*
X314251Y42524D01*
X314312Y42506D01*
X314370Y42478D01*
X314440Y42467D01*
X314521Y42442D01*
X314605Y42441D01*
X314675Y42430D01*
X315636Y42430D01*
X316231Y41834D01*
X316231Y27562D01*
X316241Y27498D01*
X316240Y27434D01*
X316260Y27359D01*
X316271Y27283D01*
X316298Y27224D01*
X316315Y27162D01*
X316356Y27096D01*
X316388Y27026D01*
X316429Y26977D01*
X316463Y26922D01*
X316521Y26870D01*
X316571Y26812D01*
X316625Y26776D01*
X316672Y26733D01*
X316742Y26700D01*
X316807Y26657D01*
X316868Y26638D01*
X316926Y26610D01*
X316996Y26599D01*
X317077Y26575D01*
X317161Y26574D01*
X317231Y26563D01*
X318787Y26563D01*
X318850Y26572D01*
G37*
%LPC*%
G36*
X199579Y128983D02*
X199579Y128983D01*
X198983Y129579D01*
X198983Y138421D01*
X199579Y139017D01*
X208452Y139017D01*
X208516Y139026D01*
X208580Y139025D01*
X208655Y139046D01*
X208731Y139057D01*
X208790Y139083D01*
X208852Y139100D01*
X208918Y139141D01*
X208988Y139173D01*
X209037Y139215D01*
X209092Y139248D01*
X209144Y139306D01*
X209202Y139356D01*
X209238Y139410D01*
X209281Y139458D01*
X209314Y139527D01*
X209357Y139592D01*
X209376Y139654D01*
X209404Y139711D01*
X209415Y139781D01*
X209439Y139862D01*
X209440Y139947D01*
X209451Y140016D01*
X209451Y145763D01*
X217937Y154249D01*
X222755Y154249D01*
X222850Y154262D01*
X222947Y154267D01*
X222990Y154282D01*
X223035Y154289D01*
X223122Y154328D01*
X223213Y154360D01*
X223247Y154385D01*
X223292Y154405D01*
X223389Y154488D01*
X223462Y154541D01*
X224219Y155299D01*
X227781Y155299D01*
X230299Y152781D01*
X230299Y149219D01*
X227781Y146701D01*
X224219Y146701D01*
X223062Y147859D01*
X222985Y147916D01*
X222914Y147981D01*
X222873Y148001D01*
X222836Y148028D01*
X222746Y148062D01*
X222660Y148104D01*
X222618Y148110D01*
X222573Y148127D01*
X222445Y148137D01*
X222355Y148151D01*
X220877Y148151D01*
X220782Y148138D01*
X220686Y148133D01*
X220642Y148118D01*
X220598Y148111D01*
X220510Y148072D01*
X220419Y148040D01*
X220385Y148015D01*
X220341Y147995D01*
X220243Y147912D01*
X220170Y147859D01*
X215841Y143530D01*
X215784Y143453D01*
X215719Y143382D01*
X215699Y143341D01*
X215672Y143304D01*
X215638Y143214D01*
X215596Y143128D01*
X215590Y143086D01*
X215573Y143040D01*
X215563Y142913D01*
X215549Y142823D01*
X215549Y140016D01*
X215558Y139952D01*
X215557Y139888D01*
X215578Y139813D01*
X215589Y139737D01*
X215615Y139678D01*
X215632Y139616D01*
X215673Y139550D01*
X215705Y139480D01*
X215747Y139431D01*
X215780Y139376D01*
X215838Y139324D01*
X215888Y139266D01*
X215942Y139230D01*
X215990Y139187D01*
X216059Y139154D01*
X216124Y139111D01*
X216186Y139092D01*
X216243Y139064D01*
X216313Y139053D01*
X216394Y139029D01*
X216479Y139028D01*
X216548Y139017D01*
X225421Y139017D01*
X226017Y138421D01*
X226017Y129579D01*
X225421Y128983D01*
X199579Y128983D01*
G37*
%LPD*%
%LPC*%
G36*
X223399Y35499D02*
X223399Y35499D01*
X223399Y36500D01*
X223390Y36564D01*
X223391Y36628D01*
X223370Y36703D01*
X223359Y36779D01*
X223333Y36838D01*
X223316Y36900D01*
X223275Y36966D01*
X223243Y37036D01*
X223201Y37085D01*
X223168Y37140D01*
X223110Y37192D01*
X223060Y37250D01*
X223006Y37286D01*
X222958Y37329D01*
X222889Y37362D01*
X222824Y37405D01*
X222762Y37424D01*
X222704Y37452D01*
X222635Y37462D01*
X222554Y37487D01*
X222469Y37488D01*
X222400Y37499D01*
X216359Y37499D01*
X216359Y40085D01*
X216532Y40731D01*
X216867Y41310D01*
X217340Y41783D01*
X217384Y41808D01*
X217451Y41861D01*
X217524Y41906D01*
X217561Y41948D01*
X217606Y41982D01*
X217655Y42052D01*
X217713Y42115D01*
X217737Y42166D01*
X217770Y42212D01*
X217798Y42292D01*
X217836Y42369D01*
X217844Y42421D01*
X217864Y42477D01*
X217870Y42589D01*
X217883Y42674D01*
X217883Y51771D01*
X218479Y52367D01*
X228321Y52367D01*
X228917Y51771D01*
X228917Y50216D01*
X228926Y50152D01*
X228925Y50088D01*
X228946Y50013D01*
X228957Y49937D01*
X228983Y49878D01*
X229000Y49816D01*
X229041Y49750D01*
X229073Y49680D01*
X229113Y49632D01*
X229116Y49627D01*
X229118Y49625D01*
X229148Y49576D01*
X229206Y49524D01*
X229256Y49466D01*
X229304Y49434D01*
X229313Y49425D01*
X229321Y49420D01*
X229358Y49387D01*
X229427Y49354D01*
X229492Y49311D01*
X229539Y49297D01*
X229559Y49286D01*
X229575Y49282D01*
X229611Y49264D01*
X229681Y49253D01*
X229762Y49229D01*
X229802Y49228D01*
X229833Y49221D01*
X229876Y49223D01*
X229916Y49217D01*
X229923Y49217D01*
X229986Y49226D01*
X230044Y49225D01*
X230073Y49233D01*
X230115Y49235D01*
X230158Y49250D01*
X230203Y49257D01*
X230273Y49288D01*
X230316Y49300D01*
X230334Y49311D01*
X230381Y49328D01*
X230415Y49353D01*
X230460Y49373D01*
X230528Y49431D01*
X230556Y49448D01*
X230574Y49468D01*
X230630Y49509D01*
X232619Y51499D01*
X236181Y51499D01*
X238699Y48981D01*
X238699Y45419D01*
X236181Y42901D01*
X232619Y42901D01*
X230630Y44891D01*
X230583Y44926D01*
X230576Y44934D01*
X230549Y44952D01*
X230482Y45013D01*
X230441Y45033D01*
X230404Y45060D01*
X230357Y45078D01*
X230340Y45089D01*
X230299Y45102D01*
X230228Y45136D01*
X230186Y45142D01*
X230141Y45159D01*
X230098Y45163D01*
X230070Y45171D01*
X229994Y45172D01*
X229923Y45183D01*
X229916Y45183D01*
X229887Y45179D01*
X229859Y45181D01*
X229827Y45175D01*
X229788Y45175D01*
X229713Y45154D01*
X229637Y45143D01*
X229601Y45127D01*
X229583Y45124D01*
X229563Y45113D01*
X229516Y45100D01*
X229450Y45059D01*
X229380Y45027D01*
X229343Y44996D01*
X229334Y44991D01*
X229324Y44981D01*
X229276Y44952D01*
X229224Y44894D01*
X229166Y44844D01*
X229135Y44797D01*
X229132Y44794D01*
X229129Y44789D01*
X229087Y44742D01*
X229054Y44673D01*
X229011Y44608D01*
X228992Y44546D01*
X228964Y44489D01*
X228953Y44419D01*
X228929Y44338D01*
X228928Y44253D01*
X228917Y44184D01*
X228917Y42674D01*
X228929Y42589D01*
X228931Y42504D01*
X228949Y42450D01*
X228957Y42394D01*
X228992Y42317D01*
X229018Y42235D01*
X229050Y42189D01*
X229073Y42138D01*
X229128Y42073D01*
X229176Y42002D01*
X229217Y41969D01*
X229256Y41923D01*
X229350Y41862D01*
X229416Y41808D01*
X229460Y41783D01*
X229933Y41310D01*
X230268Y40731D01*
X230441Y40085D01*
X230441Y37499D01*
X224400Y37499D01*
X224336Y37490D01*
X224272Y37491D01*
X224198Y37470D01*
X224121Y37459D01*
X224062Y37433D01*
X224000Y37416D01*
X223934Y37375D01*
X223864Y37343D01*
X223815Y37301D01*
X223760Y37268D01*
X223709Y37210D01*
X223650Y37160D01*
X223614Y37106D01*
X223571Y37058D01*
X223538Y36989D01*
X223495Y36924D01*
X223476Y36862D01*
X223448Y36805D01*
X223438Y36735D01*
X223413Y36654D01*
X223412Y36569D01*
X223401Y36500D01*
X223401Y35499D01*
X223399Y35499D01*
G37*
%LPD*%
%LPC*%
G36*
X183508Y113999D02*
X183508Y113999D01*
X180751Y115141D01*
X178641Y117251D01*
X177499Y120008D01*
X177499Y122992D01*
X178641Y125749D01*
X180751Y127859D01*
X183508Y129001D01*
X186492Y129001D01*
X189249Y127859D01*
X191359Y125749D01*
X192501Y122992D01*
X192501Y120008D01*
X191359Y117251D01*
X189249Y115141D01*
X186492Y113999D01*
X183508Y113999D01*
G37*
%LPD*%
%LPC*%
G36*
X183508Y68999D02*
X183508Y68999D01*
X180751Y70141D01*
X178641Y72251D01*
X177499Y75008D01*
X177499Y77992D01*
X178641Y80749D01*
X180751Y82859D01*
X183508Y84001D01*
X186492Y84001D01*
X189249Y82859D01*
X191359Y80749D01*
X192501Y77992D01*
X192501Y75008D01*
X191359Y72251D01*
X189249Y70141D01*
X186492Y68999D01*
X183508Y68999D01*
G37*
%LPD*%
%LPC*%
G36*
X272636Y139849D02*
X272636Y139849D01*
X272040Y140444D01*
X272040Y148398D01*
X272636Y148994D01*
X287702Y148994D01*
X288297Y148398D01*
X288297Y140444D01*
X287702Y139849D01*
X272636Y139849D01*
G37*
%LPD*%
%LPC*%
G36*
X272636Y127149D02*
X272636Y127149D01*
X272040Y127744D01*
X272040Y135698D01*
X272636Y136294D01*
X287702Y136294D01*
X288297Y135698D01*
X288297Y127744D01*
X287702Y127149D01*
X272636Y127149D01*
G37*
%LPD*%
%LPC*%
G36*
X272636Y114449D02*
X272636Y114449D01*
X272040Y115044D01*
X272040Y122998D01*
X272636Y123594D01*
X287702Y123594D01*
X288297Y122998D01*
X288297Y115044D01*
X287702Y114449D01*
X272636Y114449D01*
G37*
%LPD*%
%LPC*%
G36*
X272636Y101749D02*
X272636Y101749D01*
X272040Y102344D01*
X272040Y110298D01*
X272636Y110894D01*
X287702Y110894D01*
X288297Y110298D01*
X288297Y102344D01*
X287702Y101749D01*
X272636Y101749D01*
G37*
%LPD*%
%LPC*%
G36*
X214499Y65491D02*
X214499Y65491D01*
X214499Y70033D01*
X225335Y70033D01*
X225981Y69860D01*
X226560Y69525D01*
X227033Y69052D01*
X227368Y68473D01*
X227541Y67827D01*
X227541Y65491D01*
X214499Y65491D01*
G37*
%LPD*%
%LPC*%
G36*
X197459Y65491D02*
X197459Y65491D01*
X197459Y67827D01*
X197632Y68473D01*
X197967Y69052D01*
X198440Y69525D01*
X199019Y69860D01*
X199665Y70033D01*
X210501Y70033D01*
X210501Y65491D01*
X197459Y65491D01*
G37*
%LPD*%
%LPC*%
G36*
X199665Y56951D02*
X199665Y56951D01*
X199019Y57124D01*
X198440Y57459D01*
X197967Y57932D01*
X197632Y58511D01*
X197459Y59157D01*
X197459Y61493D01*
X210501Y61493D01*
X210501Y56951D01*
X199665Y56951D01*
G37*
%LPD*%
%LPC*%
G36*
X214499Y56951D02*
X214499Y56951D01*
X214499Y61493D01*
X227541Y61493D01*
X227541Y59157D01*
X227368Y58511D01*
X227033Y57932D01*
X226560Y57459D01*
X225981Y57124D01*
X225335Y56951D01*
X214499Y56951D01*
G37*
%LPD*%
%LPC*%
G36*
X326136Y154619D02*
X326136Y154619D01*
X326136Y162494D01*
X330455Y162494D01*
X330455Y156825D01*
X330282Y156179D01*
X329948Y155599D01*
X329475Y155126D01*
X328895Y154792D01*
X328249Y154619D01*
X326136Y154619D01*
G37*
%LPD*%
%LPC*%
G36*
X394462Y36079D02*
X394462Y36079D01*
X394462Y41748D01*
X394635Y42394D01*
X394970Y42973D01*
X395443Y43446D01*
X396022Y43781D01*
X396668Y43954D01*
X398781Y43954D01*
X398781Y36079D01*
X394462Y36079D01*
G37*
%LPD*%
%LPC*%
G36*
X396668Y154619D02*
X396668Y154619D01*
X396022Y154792D01*
X395443Y155126D01*
X394970Y155599D01*
X394635Y156179D01*
X394462Y156825D01*
X394462Y162494D01*
X398781Y162494D01*
X398781Y154619D01*
X396668Y154619D01*
G37*
%LPD*%
%LPC*%
G36*
X320468Y154619D02*
X320468Y154619D01*
X319822Y154792D01*
X319243Y155126D01*
X318770Y155599D01*
X318435Y156179D01*
X318262Y156825D01*
X318262Y162494D01*
X322581Y162494D01*
X322581Y154619D01*
X320468Y154619D01*
G37*
%LPD*%
%LPC*%
G36*
X218565Y28709D02*
X218565Y28709D01*
X217919Y28882D01*
X217340Y29217D01*
X216867Y29690D01*
X216532Y30269D01*
X216359Y30915D01*
X216359Y33501D01*
X221401Y33501D01*
X221401Y28709D01*
X218565Y28709D01*
G37*
%LPD*%
%LPC*%
G36*
X212499Y63491D02*
X212499Y63491D01*
X212499Y63493D01*
X212501Y63493D01*
X212501Y63491D01*
X212499Y63491D01*
G37*
%LPD*%
D10*
X298959Y164271D03*
X311659Y164271D03*
X324359Y164271D03*
X337059Y164271D03*
X349759Y164271D03*
X362459Y164271D03*
X375159Y164271D03*
X387859Y164271D03*
D11*
X280169Y144421D03*
X280169Y131721D03*
X280169Y119021D03*
X280169Y106321D03*
X280169Y93621D03*
X280169Y80921D03*
X280169Y68221D03*
D10*
X298959Y34301D03*
X311659Y34301D03*
X324359Y34301D03*
X337059Y34301D03*
X349759Y34301D03*
X362459Y34301D03*
X375159Y34301D03*
X387859Y34301D03*
D11*
X280169Y55521D03*
D10*
X400559Y34301D03*
X400559Y164271D03*
D12*
X249700Y96400D03*
X238100Y96400D03*
X249600Y110550D03*
X238000Y110550D03*
D13*
X223400Y35500D03*
X223400Y47100D03*
D14*
X212500Y88730D03*
X212500Y109270D03*
X212500Y63492D03*
X212500Y134000D03*
D15*
X193190Y40500D02*
X175410Y40500D01*
X175410Y157500D02*
X193190Y157500D01*
D16*
X382000Y90000D03*
X402000Y129000D03*
X327000Y56000D03*
X341000Y56000D03*
X299000Y84000D03*
X163000Y137000D03*
X163000Y124000D03*
X163000Y111000D03*
X163000Y97000D03*
X163000Y81000D03*
X163000Y67000D03*
X163000Y53000D03*
X402000Y116000D03*
X402000Y103000D03*
X402000Y90000D03*
X402000Y76000D03*
X402000Y60000D03*
X207000Y166600D03*
X224600Y166600D03*
X251800Y166600D03*
X226000Y151000D03*
D17*
X212500Y144500D02*
X212500Y134000D01*
X212500Y144500D02*
X219200Y151200D01*
X225800Y151200D01*
X226000Y151000D01*
D18*
X212500Y88730D02*
X212800Y88430D01*
X212800Y80000D01*
D16*
X212800Y80000D03*
D18*
X212500Y88730D02*
X226330Y88730D01*
X234000Y96400D02*
X238100Y96400D01*
X234000Y96400D02*
X226330Y88730D01*
X212500Y109270D02*
X212500Y117300D01*
X212800Y117600D01*
D16*
X212800Y117600D03*
D18*
X212500Y109270D02*
X236720Y109270D01*
X238000Y110550D01*
X298959Y47959D02*
X298959Y34301D01*
X304000Y53000D02*
X304000Y58000D01*
X304000Y53000D02*
X298959Y47959D01*
D16*
X304000Y58000D03*
D18*
X298621Y93621D02*
X280169Y93621D01*
X298621Y93621D02*
X299000Y94000D01*
D16*
X299000Y94000D03*
X312000Y151000D03*
D17*
X312000Y163930D02*
X311659Y164271D01*
X312000Y163930D02*
X312000Y151000D01*
D19*
X311000Y150000D01*
D16*
X236000Y33000D03*
X244000Y76000D03*
D19*
X244000Y41000D02*
X236000Y33000D01*
X244000Y41000D02*
X244000Y76000D01*
D16*
X388000Y46000D03*
D18*
X387859Y45859D02*
X387859Y34301D01*
X387859Y45859D02*
X388000Y46000D01*
X375159Y45841D02*
X375159Y34301D01*
X375159Y45841D02*
X375000Y46000D01*
D16*
X375000Y46000D03*
D18*
X349759Y34301D02*
X349759Y82759D01*
X364281Y140984D02*
X394249Y140984D01*
X359048Y92048D02*
X349759Y82759D01*
X359048Y92048D02*
X359048Y135751D01*
X364281Y140984D01*
X401000Y147735D02*
X401000Y148000D01*
X401000Y147735D02*
X394249Y140984D01*
D20*
X401000Y148000D03*
D18*
X311659Y57643D02*
X311659Y34301D01*
X311659Y57643D02*
X316000Y61984D01*
X324515Y61984D01*
X356032Y93501D02*
X356032Y138000D01*
X362032Y144000D01*
X384000Y144000D02*
X388000Y148000D01*
X356032Y93501D02*
X324515Y61984D01*
X362032Y144000D02*
X384000Y144000D01*
D20*
X388000Y148000D03*
X376000Y152000D03*
D18*
X384000Y152000D01*
X388000Y156000D01*
X388000Y164130D01*
X387859Y164271D01*
X292521Y55521D02*
X280169Y55521D01*
X353016Y139616D02*
X363000Y149600D01*
X363000Y152000D01*
X302000Y65000D02*
X292521Y55521D01*
X302000Y65000D02*
X323265Y65000D01*
X353016Y94751D01*
X353016Y139616D01*
D16*
X363000Y152000D03*
D18*
X322221Y68221D02*
X280169Y68221D01*
X350000Y96000D02*
X350000Y152000D01*
X350000Y96000D02*
X322221Y68221D01*
D16*
X350000Y152000D03*
X268800Y86400D03*
D18*
X249700Y79900D02*
X249700Y96400D01*
X249700Y79900D02*
X253600Y76000D01*
X266400Y76000D01*
X268800Y78400D01*
X268800Y86400D01*
D16*
X258400Y86400D03*
D18*
X257450Y110550D02*
X249600Y110550D01*
X257450Y110550D02*
X260000Y108000D01*
X260000Y88000D01*
X258400Y86400D01*
D16*
X234400Y47200D03*
D18*
X223500Y47200D02*
X223400Y47100D01*
X223500Y47200D02*
X234400Y47200D01*
M02*
