G04 EAGLE Gerber RS-274X export*
G75*
%MOMM*%
%FSLAX34Y34*%
%LPD*%
%INTop Copper*%
%IPPOS*%
%AMOC8*
5,1,8,0,0,1.08239X$1,22.5*%
G01*
%ADD10C,0.130000*%
%ADD11C,0.152400*%
%ADD12C,0.203200*%
%ADD13R,0.300000X0.600000*%
%ADD14R,0.600000X0.300000*%
%ADD15R,3.300000X3.300000*%
%ADD16R,0.435000X0.435000*%
%ADD17R,1.200000X0.550000*%
%ADD18R,1.000000X1.100000*%
%ADD19R,0.900000X0.850000*%
%ADD20C,0.247500*%
%ADD21C,0.147500*%
%ADD22C,1.000000*%
%ADD23C,0.270000*%
%ADD24C,1.778000*%
%ADD25C,0.304800*%
%ADD26C,0.656400*%
%ADD27C,0.200000*%
%ADD28C,0.406400*%
%ADD29C,0.254000*%
%ADD30C,0.706400*%

G36*
X407302Y26572D02*
X407302Y26572D01*
X407366Y26571D01*
X407441Y26592D01*
X407517Y26603D01*
X407576Y26629D01*
X407638Y26646D01*
X407704Y26687D01*
X407774Y26719D01*
X407823Y26761D01*
X407878Y26794D01*
X407930Y26852D01*
X407988Y26902D01*
X408024Y26956D01*
X408067Y27004D01*
X408100Y27073D01*
X408143Y27138D01*
X408162Y27200D01*
X408190Y27257D01*
X408201Y27327D01*
X408225Y27408D01*
X408226Y27493D01*
X408237Y27562D01*
X408237Y158666D01*
X408233Y158698D01*
X408235Y158730D01*
X408213Y158837D01*
X408197Y158945D01*
X408184Y158975D01*
X408178Y159006D01*
X408126Y159102D01*
X408081Y159202D01*
X408060Y159227D01*
X408045Y159255D01*
X407969Y159333D01*
X407898Y159416D01*
X407871Y159434D01*
X407848Y159457D01*
X407753Y159511D01*
X407662Y159571D01*
X407631Y159580D01*
X407603Y159596D01*
X407497Y159621D01*
X407392Y159653D01*
X407360Y159654D01*
X407329Y159661D01*
X407219Y159656D01*
X407110Y159657D01*
X407079Y159648D01*
X407047Y159647D01*
X406944Y159611D01*
X406838Y159582D01*
X406811Y159565D01*
X406780Y159554D01*
X406707Y159501D01*
X406598Y159434D01*
X406566Y159398D01*
X406531Y159373D01*
X404708Y157549D01*
X403934Y157228D01*
X403926Y157224D01*
X403916Y157221D01*
X403803Y157151D01*
X403691Y157085D01*
X403684Y157078D01*
X403676Y157073D01*
X403588Y156975D01*
X403498Y156879D01*
X403494Y156871D01*
X403487Y156864D01*
X403430Y156746D01*
X403370Y156628D01*
X403368Y156618D01*
X403364Y156610D01*
X403352Y156534D01*
X403318Y156351D01*
X403320Y156327D01*
X403317Y156305D01*
X403317Y152530D01*
X403330Y152435D01*
X403335Y152339D01*
X403350Y152296D01*
X403357Y152251D01*
X403396Y152163D01*
X403428Y152072D01*
X403453Y152038D01*
X403473Y151994D01*
X403556Y151897D01*
X403609Y151823D01*
X405549Y149884D01*
X405549Y146116D01*
X402884Y143451D01*
X399116Y143451D01*
X396451Y146116D01*
X396451Y149884D01*
X398991Y152423D01*
X399048Y152500D01*
X399113Y152572D01*
X399133Y152613D01*
X399160Y152649D01*
X399194Y152739D01*
X399236Y152825D01*
X399242Y152868D01*
X399259Y152913D01*
X399269Y153041D01*
X399283Y153130D01*
X399283Y156305D01*
X399282Y156315D01*
X399283Y156324D01*
X399262Y156454D01*
X399243Y156584D01*
X399240Y156593D01*
X399238Y156602D01*
X399181Y156722D01*
X399127Y156841D01*
X399121Y156849D01*
X399117Y156857D01*
X399029Y156956D01*
X398944Y157056D01*
X398936Y157061D01*
X398930Y157068D01*
X398864Y157108D01*
X398708Y157210D01*
X398685Y157217D01*
X398666Y157228D01*
X397892Y157549D01*
X396199Y159242D01*
X395623Y160633D01*
X395607Y160660D01*
X395597Y160691D01*
X395535Y160781D01*
X395480Y160875D01*
X395456Y160897D01*
X395438Y160924D01*
X395354Y160993D01*
X395274Y161068D01*
X395245Y161083D01*
X395220Y161103D01*
X395120Y161146D01*
X395022Y161196D01*
X394991Y161202D01*
X394961Y161215D01*
X394853Y161228D01*
X394745Y161248D01*
X394713Y161245D01*
X394681Y161249D01*
X394573Y161232D01*
X394465Y161221D01*
X394435Y161209D01*
X394403Y161204D01*
X394304Y161157D01*
X394203Y161117D01*
X394177Y161097D01*
X394148Y161083D01*
X394066Y161011D01*
X393980Y160943D01*
X393961Y160917D01*
X393937Y160896D01*
X393890Y160819D01*
X393815Y160715D01*
X393799Y160669D01*
X393777Y160633D01*
X393201Y159242D01*
X391508Y157549D01*
X390734Y157228D01*
X390726Y157224D01*
X390716Y157221D01*
X390603Y157151D01*
X390491Y157085D01*
X390484Y157078D01*
X390476Y157073D01*
X390388Y156975D01*
X390298Y156879D01*
X390294Y156871D01*
X390287Y156864D01*
X390230Y156746D01*
X390170Y156628D01*
X390168Y156618D01*
X390164Y156610D01*
X390152Y156534D01*
X390118Y156351D01*
X390120Y156327D01*
X390117Y156305D01*
X390117Y152730D01*
X390130Y152635D01*
X390135Y152539D01*
X390150Y152496D01*
X390157Y152451D01*
X390196Y152363D01*
X390228Y152272D01*
X390253Y152238D01*
X390273Y152194D01*
X390356Y152097D01*
X390409Y152023D01*
X392549Y149884D01*
X392549Y146116D01*
X389884Y143451D01*
X386116Y143451D01*
X383451Y146116D01*
X383451Y149884D01*
X385791Y152223D01*
X385848Y152300D01*
X385913Y152372D01*
X385933Y152413D01*
X385960Y152449D01*
X385994Y152539D01*
X386036Y152625D01*
X386042Y152668D01*
X386059Y152713D01*
X386069Y152841D01*
X386083Y152930D01*
X386083Y156305D01*
X386082Y156315D01*
X386083Y156324D01*
X386062Y156454D01*
X386043Y156584D01*
X386040Y156593D01*
X386038Y156602D01*
X385981Y156722D01*
X385927Y156841D01*
X385921Y156849D01*
X385917Y156857D01*
X385829Y156956D01*
X385744Y157056D01*
X385736Y157061D01*
X385730Y157068D01*
X385664Y157108D01*
X385508Y157210D01*
X385485Y157217D01*
X385466Y157228D01*
X384692Y157549D01*
X382999Y159242D01*
X382777Y159777D01*
X382761Y159805D01*
X382751Y159836D01*
X382690Y159926D01*
X382634Y160020D01*
X382610Y160042D01*
X382592Y160069D01*
X382508Y160138D01*
X382428Y160213D01*
X382399Y160228D01*
X382375Y160248D01*
X382274Y160291D01*
X382177Y160341D01*
X382145Y160347D01*
X382115Y160359D01*
X382007Y160373D01*
X381900Y160393D01*
X381867Y160390D01*
X381835Y160394D01*
X381728Y160377D01*
X381619Y160366D01*
X381589Y160354D01*
X381557Y160349D01*
X381458Y160302D01*
X381357Y160262D01*
X381331Y160242D01*
X381302Y160228D01*
X381221Y160155D01*
X381135Y160088D01*
X381116Y160062D01*
X381092Y160040D01*
X381044Y159963D01*
X380970Y159859D01*
X380953Y159814D01*
X380931Y159777D01*
X380751Y159342D01*
X379058Y157649D01*
X378831Y157555D01*
X378729Y157495D01*
X378625Y157439D01*
X378608Y157423D01*
X378589Y157412D01*
X378508Y157325D01*
X378423Y157243D01*
X378411Y157223D01*
X378396Y157206D01*
X378342Y157100D01*
X378284Y156997D01*
X378278Y156975D01*
X378268Y156955D01*
X378246Y156838D01*
X378219Y156723D01*
X378220Y156700D01*
X378216Y156678D01*
X378227Y156560D01*
X378233Y156441D01*
X378241Y156420D01*
X378243Y156397D01*
X378287Y156287D01*
X378326Y156175D01*
X378338Y156157D01*
X378347Y156135D01*
X378462Y155988D01*
X378507Y155926D01*
X380549Y153884D01*
X380549Y150116D01*
X377884Y147451D01*
X374116Y147451D01*
X371451Y150116D01*
X371451Y153884D01*
X373288Y155721D01*
X373359Y155815D01*
X373434Y155907D01*
X373443Y155928D01*
X373457Y155946D01*
X373499Y156057D01*
X373546Y156166D01*
X373548Y156189D01*
X373557Y156210D01*
X373566Y156328D01*
X373580Y156446D01*
X373577Y156468D01*
X373578Y156491D01*
X373554Y156607D01*
X373535Y156724D01*
X373525Y156745D01*
X373521Y156767D01*
X373465Y156872D01*
X373414Y156979D01*
X373399Y156996D01*
X373388Y157016D01*
X373306Y157101D01*
X373227Y157190D01*
X373208Y157201D01*
X373191Y157218D01*
X373029Y157310D01*
X372964Y157350D01*
X372242Y157649D01*
X370549Y159342D01*
X370244Y160079D01*
X370227Y160107D01*
X370217Y160137D01*
X370156Y160228D01*
X370100Y160322D01*
X370077Y160344D01*
X370059Y160370D01*
X369974Y160440D01*
X369895Y160515D01*
X369866Y160529D01*
X369841Y160550D01*
X369740Y160593D01*
X369643Y160642D01*
X369611Y160648D01*
X369582Y160661D01*
X369473Y160675D01*
X369366Y160695D01*
X369334Y160692D01*
X369302Y160696D01*
X369194Y160678D01*
X369085Y160668D01*
X369055Y160656D01*
X369023Y160651D01*
X368925Y160604D01*
X368823Y160563D01*
X368798Y160543D01*
X368769Y160530D01*
X368687Y160457D01*
X368601Y160390D01*
X368582Y160364D01*
X368558Y160342D01*
X368511Y160265D01*
X368436Y160161D01*
X368420Y160115D01*
X368398Y160079D01*
X368051Y159242D01*
X366358Y157549D01*
X365740Y157293D01*
X365638Y157233D01*
X365533Y157177D01*
X365517Y157161D01*
X365497Y157150D01*
X365416Y157063D01*
X365331Y156980D01*
X365320Y156961D01*
X365304Y156944D01*
X365251Y156838D01*
X365192Y156735D01*
X365187Y156713D01*
X365177Y156692D01*
X365155Y156576D01*
X365127Y156461D01*
X365128Y156438D01*
X365124Y156415D01*
X365136Y156297D01*
X365142Y156179D01*
X365149Y156157D01*
X365151Y156135D01*
X365195Y156024D01*
X365234Y155912D01*
X365247Y155895D01*
X365256Y155873D01*
X365370Y155726D01*
X365416Y155663D01*
X367299Y153781D01*
X367299Y150219D01*
X364781Y147701D01*
X361219Y147701D01*
X358701Y150219D01*
X358701Y153781D01*
X360555Y155634D01*
X360626Y155729D01*
X360701Y155821D01*
X360710Y155842D01*
X360724Y155860D01*
X360766Y155970D01*
X360813Y156080D01*
X360816Y156102D01*
X360824Y156124D01*
X360833Y156242D01*
X360847Y156360D01*
X360844Y156382D01*
X360845Y156405D01*
X360821Y156521D01*
X360802Y156638D01*
X360792Y156659D01*
X360788Y156681D01*
X360732Y156785D01*
X360681Y156893D01*
X360666Y156910D01*
X360655Y156930D01*
X360573Y157015D01*
X360494Y157103D01*
X360475Y157115D01*
X360459Y157132D01*
X360297Y157224D01*
X360231Y157264D01*
X359542Y157549D01*
X357849Y159242D01*
X357544Y159979D01*
X357527Y160007D01*
X357517Y160037D01*
X357456Y160128D01*
X357400Y160222D01*
X357377Y160244D01*
X357359Y160271D01*
X357274Y160340D01*
X357195Y160415D01*
X357166Y160429D01*
X357141Y160450D01*
X357041Y160493D01*
X356943Y160542D01*
X356911Y160548D01*
X356882Y160561D01*
X356774Y160575D01*
X356666Y160595D01*
X356634Y160592D01*
X356602Y160596D01*
X356494Y160578D01*
X356385Y160568D01*
X356355Y160556D01*
X356323Y160551D01*
X356225Y160504D01*
X356123Y160463D01*
X356098Y160443D01*
X356069Y160430D01*
X355987Y160357D01*
X355901Y160290D01*
X355882Y160264D01*
X355858Y160242D01*
X355811Y160165D01*
X355736Y160061D01*
X355720Y160015D01*
X355698Y159979D01*
X355351Y159142D01*
X353658Y157449D01*
X352899Y157135D01*
X352796Y157074D01*
X352692Y157019D01*
X352676Y157003D01*
X352656Y156991D01*
X352575Y156904D01*
X352490Y156822D01*
X352479Y156802D01*
X352463Y156785D01*
X352409Y156680D01*
X352351Y156576D01*
X352346Y156554D01*
X352335Y156534D01*
X352313Y156417D01*
X352286Y156302D01*
X352287Y156279D01*
X352283Y156257D01*
X352294Y156139D01*
X352300Y156020D01*
X352308Y155999D01*
X352310Y155976D01*
X352354Y155866D01*
X352393Y155754D01*
X352405Y155736D01*
X352414Y155714D01*
X352529Y155568D01*
X352574Y155505D01*
X354299Y153781D01*
X354299Y150219D01*
X351781Y147701D01*
X348219Y147701D01*
X345701Y150219D01*
X345701Y153781D01*
X347572Y155651D01*
X347643Y155746D01*
X347719Y155838D01*
X347728Y155859D01*
X347741Y155877D01*
X347783Y155988D01*
X347830Y156097D01*
X347833Y156119D01*
X347841Y156141D01*
X347850Y156259D01*
X347864Y156377D01*
X347861Y156399D01*
X347863Y156422D01*
X347838Y156538D01*
X347819Y156655D01*
X347810Y156676D01*
X347805Y156698D01*
X347749Y156803D01*
X347698Y156910D01*
X347683Y156927D01*
X347673Y156947D01*
X347590Y157032D01*
X347511Y157121D01*
X347493Y157132D01*
X347476Y157149D01*
X347313Y157241D01*
X347248Y157281D01*
X346842Y157449D01*
X345149Y159142D01*
X344702Y160220D01*
X344686Y160248D01*
X344676Y160279D01*
X344614Y160369D01*
X344559Y160463D01*
X344535Y160485D01*
X344517Y160512D01*
X344433Y160581D01*
X344353Y160656D01*
X344324Y160671D01*
X344300Y160691D01*
X344199Y160734D01*
X344102Y160784D01*
X344070Y160790D01*
X344040Y160803D01*
X343932Y160816D01*
X343825Y160836D01*
X343792Y160833D01*
X343761Y160837D01*
X343653Y160820D01*
X343544Y160809D01*
X343514Y160797D01*
X343482Y160792D01*
X343383Y160745D01*
X343282Y160705D01*
X343257Y160685D01*
X343227Y160671D01*
X343146Y160598D01*
X343060Y160531D01*
X343041Y160505D01*
X343017Y160484D01*
X342970Y160406D01*
X342895Y160303D01*
X342878Y160257D01*
X342856Y160220D01*
X342451Y159242D01*
X340691Y157483D01*
X340634Y157406D01*
X340569Y157334D01*
X340549Y157293D01*
X340522Y157257D01*
X340488Y157167D01*
X340446Y157081D01*
X340440Y157038D01*
X340423Y156993D01*
X340413Y156865D01*
X340399Y156776D01*
X340399Y153867D01*
X334973Y148441D01*
X315935Y148441D01*
X315840Y148428D01*
X315743Y148423D01*
X315700Y148408D01*
X315655Y148401D01*
X315568Y148362D01*
X315477Y148330D01*
X315443Y148305D01*
X315398Y148285D01*
X315301Y148202D01*
X315228Y148149D01*
X314833Y147754D01*
X314776Y147677D01*
X314711Y147606D01*
X314691Y147565D01*
X314664Y147528D01*
X314630Y147438D01*
X314588Y147352D01*
X314582Y147310D01*
X314565Y147265D01*
X314555Y147137D01*
X314541Y147047D01*
X314541Y122148D01*
X309052Y116659D01*
X259866Y116659D01*
X259771Y116646D01*
X259675Y116641D01*
X259632Y116626D01*
X259587Y116619D01*
X259500Y116580D01*
X259409Y116548D01*
X259374Y116523D01*
X259330Y116503D01*
X259233Y116420D01*
X259160Y116367D01*
X254629Y111836D01*
X254572Y111759D01*
X254507Y111688D01*
X254487Y111647D01*
X254460Y111611D01*
X254426Y111521D01*
X254384Y111434D01*
X254378Y111392D01*
X254361Y111347D01*
X254351Y111219D01*
X254337Y111130D01*
X254337Y90828D01*
X254341Y90796D01*
X254339Y90764D01*
X254361Y90657D01*
X254376Y90549D01*
X254390Y90520D01*
X254396Y90488D01*
X254448Y90392D01*
X254493Y90292D01*
X254514Y90268D01*
X254529Y90239D01*
X254605Y90161D01*
X254676Y90078D01*
X254703Y90060D01*
X254726Y90037D01*
X254821Y89983D01*
X254912Y89923D01*
X254943Y89914D01*
X254971Y89898D01*
X255077Y89873D01*
X255182Y89841D01*
X255214Y89841D01*
X255245Y89833D01*
X255355Y89839D01*
X255464Y89837D01*
X255495Y89846D01*
X255527Y89848D01*
X255630Y89883D01*
X255736Y89913D01*
X255763Y89930D01*
X255794Y89940D01*
X255867Y89993D01*
X255976Y90061D01*
X256008Y90097D01*
X256043Y90122D01*
X256619Y90699D01*
X260181Y90699D01*
X262893Y87986D01*
X262945Y87947D01*
X262990Y87901D01*
X263057Y87863D01*
X263119Y87817D01*
X263179Y87794D01*
X263235Y87762D01*
X263310Y87744D01*
X263383Y87717D01*
X263447Y87712D01*
X263510Y87697D01*
X263587Y87701D01*
X263664Y87695D01*
X263727Y87708D01*
X263791Y87712D01*
X263864Y87737D01*
X263940Y87753D01*
X263997Y87783D01*
X264058Y87804D01*
X264114Y87846D01*
X264189Y87885D01*
X264250Y87945D01*
X264307Y87986D01*
X267019Y90699D01*
X270581Y90699D01*
X273099Y88181D01*
X273099Y84619D01*
X271930Y83451D01*
X271911Y83425D01*
X271886Y83404D01*
X271826Y83312D01*
X271761Y83225D01*
X271749Y83195D01*
X271732Y83168D01*
X271700Y83063D01*
X271661Y82961D01*
X271659Y82929D01*
X271649Y82898D01*
X271648Y82789D01*
X271639Y82680D01*
X271646Y82648D01*
X271645Y82616D01*
X271675Y82511D01*
X271697Y82404D01*
X271712Y82375D01*
X271721Y82344D01*
X271778Y82251D01*
X271829Y82155D01*
X271852Y82132D01*
X271869Y82104D01*
X271950Y82031D01*
X272026Y81953D01*
X272054Y81937D01*
X272078Y81915D01*
X272176Y81868D01*
X272272Y81814D01*
X272303Y81806D01*
X272332Y81792D01*
X272421Y81778D01*
X272546Y81749D01*
X272594Y81751D01*
X272636Y81745D01*
X273630Y81745D01*
X274277Y81572D01*
X274856Y81237D01*
X275329Y80764D01*
X275354Y80721D01*
X275407Y80653D01*
X275452Y80580D01*
X275494Y80543D01*
X275528Y80499D01*
X275598Y80449D01*
X275661Y80391D01*
X275712Y80367D01*
X275757Y80334D01*
X275838Y80306D01*
X275915Y80268D01*
X275967Y80260D01*
X276023Y80240D01*
X276135Y80234D01*
X276220Y80221D01*
X278760Y80221D01*
X278815Y80179D01*
X278875Y80156D01*
X278931Y80125D01*
X279006Y80107D01*
X279079Y80080D01*
X279143Y80075D01*
X279206Y80060D01*
X279283Y80064D01*
X279360Y80058D01*
X279423Y80071D01*
X279487Y80074D01*
X279560Y80100D01*
X279636Y80115D01*
X279693Y80146D01*
X279754Y80167D01*
X279810Y80208D01*
X279834Y80221D01*
X283717Y80221D01*
X284400Y79538D01*
X284437Y79478D01*
X284469Y79408D01*
X284510Y79359D01*
X284544Y79304D01*
X284602Y79252D01*
X284652Y79194D01*
X284706Y79158D01*
X284754Y79115D01*
X284823Y79082D01*
X284888Y79039D01*
X284950Y79020D01*
X285007Y78992D01*
X285077Y78981D01*
X285158Y78957D01*
X285242Y78956D01*
X285312Y78945D01*
X286734Y78945D01*
X286734Y74317D01*
X286743Y74253D01*
X286742Y74189D01*
X286763Y74114D01*
X286774Y74038D01*
X286800Y73979D01*
X286818Y73917D01*
X286858Y73851D01*
X286890Y73781D01*
X286932Y73732D01*
X286966Y73677D01*
X287023Y73625D01*
X287074Y73566D01*
X287120Y73536D01*
X287141Y73502D01*
X287198Y73450D01*
X287249Y73391D01*
X287303Y73356D01*
X287350Y73313D01*
X287420Y73279D01*
X287485Y73237D01*
X287546Y73218D01*
X287604Y73190D01*
X287673Y73179D01*
X287755Y73154D01*
X287839Y73153D01*
X287909Y73142D01*
X292537Y73142D01*
X292537Y71720D01*
X292546Y71656D01*
X292545Y71592D01*
X292566Y71517D01*
X292576Y71441D01*
X292603Y71382D01*
X292620Y71320D01*
X292661Y71254D01*
X292693Y71184D01*
X292734Y71135D01*
X292768Y71080D01*
X292826Y71028D01*
X292876Y70970D01*
X292930Y70934D01*
X292978Y70891D01*
X293047Y70858D01*
X293112Y70815D01*
X293127Y70810D01*
X293813Y70125D01*
X293813Y66240D01*
X293771Y66185D01*
X293748Y66125D01*
X293717Y66069D01*
X293699Y65994D01*
X293672Y65921D01*
X293667Y65857D01*
X293652Y65794D01*
X293656Y65717D01*
X293650Y65640D01*
X293663Y65577D01*
X293666Y65513D01*
X293692Y65440D01*
X293707Y65364D01*
X293738Y65307D01*
X293759Y65246D01*
X293800Y65190D01*
X293813Y65166D01*
X293813Y61220D01*
X293822Y61156D01*
X293821Y61092D01*
X293842Y61017D01*
X293852Y60941D01*
X293879Y60882D01*
X293896Y60820D01*
X293937Y60754D01*
X293969Y60684D01*
X294010Y60635D01*
X294044Y60580D01*
X294102Y60528D01*
X294152Y60470D01*
X294206Y60434D01*
X294254Y60391D01*
X294323Y60358D01*
X294388Y60315D01*
X294450Y60296D01*
X294507Y60268D01*
X294577Y60257D01*
X294658Y60233D01*
X294742Y60232D01*
X294812Y60221D01*
X297031Y60221D01*
X297995Y59257D01*
X298021Y59237D01*
X298042Y59213D01*
X298134Y59153D01*
X298221Y59087D01*
X298251Y59076D01*
X298278Y59058D01*
X298383Y59026D01*
X298485Y58988D01*
X298517Y58985D01*
X298548Y58976D01*
X298657Y58974D01*
X298766Y58966D01*
X298798Y58973D01*
X298830Y58972D01*
X298935Y59001D01*
X299042Y59024D01*
X299071Y59039D01*
X299102Y59047D01*
X299195Y59105D01*
X299291Y59156D01*
X299314Y59179D01*
X299342Y59196D01*
X299415Y59276D01*
X299493Y59353D01*
X299509Y59381D01*
X299531Y59405D01*
X299578Y59503D01*
X299632Y59598D01*
X299640Y59630D01*
X299654Y59659D01*
X299667Y59747D01*
X302219Y62299D01*
X305781Y62299D01*
X307277Y60802D01*
X307303Y60783D01*
X307324Y60758D01*
X307389Y60716D01*
X307398Y60708D01*
X307410Y60702D01*
X307416Y60698D01*
X307503Y60633D01*
X307533Y60621D01*
X307560Y60604D01*
X307665Y60572D01*
X307767Y60533D01*
X307799Y60531D01*
X307830Y60521D01*
X307939Y60520D01*
X308048Y60511D01*
X308080Y60518D01*
X308112Y60517D01*
X308217Y60547D01*
X308324Y60569D01*
X308353Y60584D01*
X308384Y60593D01*
X308477Y60650D01*
X308573Y60701D01*
X308596Y60724D01*
X308624Y60741D01*
X308697Y60822D01*
X308775Y60898D01*
X308791Y60926D01*
X308813Y60950D01*
X308860Y61048D01*
X308914Y61143D01*
X308922Y61175D01*
X308936Y61204D01*
X308950Y61293D01*
X308969Y61374D01*
X308971Y61382D01*
X308971Y61385D01*
X308979Y61418D01*
X308977Y61466D01*
X308983Y61508D01*
X308983Y87751D01*
X308970Y87846D01*
X308965Y87942D01*
X308950Y87985D01*
X308943Y88030D01*
X308904Y88117D01*
X308872Y88208D01*
X308847Y88243D01*
X308827Y88287D01*
X308744Y88384D01*
X308691Y88457D01*
X305457Y91691D01*
X305381Y91748D01*
X305309Y91813D01*
X305268Y91833D01*
X305232Y91860D01*
X305142Y91894D01*
X305055Y91936D01*
X305013Y91942D01*
X304968Y91959D01*
X304840Y91969D01*
X304751Y91983D01*
X303477Y91983D01*
X303382Y91970D01*
X303285Y91965D01*
X303242Y91950D01*
X303197Y91943D01*
X303110Y91904D01*
X303019Y91872D01*
X302985Y91847D01*
X302940Y91827D01*
X302843Y91744D01*
X302770Y91691D01*
X300781Y89701D01*
X297219Y89701D01*
X294701Y92219D01*
X294701Y95781D01*
X297219Y98299D01*
X300781Y98299D01*
X302770Y96309D01*
X302847Y96252D01*
X302918Y96187D01*
X302959Y96167D01*
X302996Y96140D01*
X303086Y96106D01*
X303172Y96064D01*
X303214Y96058D01*
X303259Y96041D01*
X303387Y96031D01*
X303477Y96017D01*
X306835Y96017D01*
X313017Y89835D01*
X313017Y56165D01*
X307979Y51127D01*
X307959Y51101D01*
X307935Y51080D01*
X307875Y50988D01*
X307809Y50901D01*
X307798Y50871D01*
X307780Y50844D01*
X307748Y50739D01*
X307710Y50637D01*
X307707Y50605D01*
X307698Y50574D01*
X307697Y50465D01*
X307688Y50356D01*
X307695Y50324D01*
X307694Y50292D01*
X307723Y50187D01*
X307746Y50080D01*
X307761Y50051D01*
X307769Y50020D01*
X307827Y49927D01*
X307878Y49831D01*
X307901Y49808D01*
X307918Y49780D01*
X307999Y49707D01*
X308075Y49629D01*
X308103Y49613D01*
X308127Y49591D01*
X308225Y49544D01*
X308320Y49490D01*
X308352Y49482D01*
X308381Y49468D01*
X308470Y49454D01*
X308595Y49425D01*
X308643Y49427D01*
X308685Y49421D01*
X369431Y49421D01*
X370180Y48672D01*
X370231Y48634D01*
X370276Y48588D01*
X370343Y48549D01*
X370405Y48503D01*
X370466Y48480D01*
X370521Y48449D01*
X370597Y48431D01*
X370669Y48403D01*
X370733Y48399D01*
X370796Y48384D01*
X370873Y48388D01*
X370950Y48382D01*
X371013Y48395D01*
X371078Y48398D01*
X371151Y48423D01*
X371227Y48439D01*
X371283Y48469D01*
X371344Y48491D01*
X371401Y48532D01*
X371476Y48572D01*
X371536Y48631D01*
X371593Y48672D01*
X372691Y49770D01*
X372748Y49847D01*
X372813Y49918D01*
X372833Y49959D01*
X372860Y49996D01*
X372894Y50086D01*
X372936Y50172D01*
X372942Y50214D01*
X372959Y50259D01*
X372969Y50383D01*
X372971Y50391D01*
X372971Y50401D01*
X372983Y50477D01*
X372983Y52934D01*
X372974Y52998D01*
X372975Y53062D01*
X372954Y53137D01*
X372943Y53213D01*
X372917Y53272D01*
X372900Y53334D01*
X372859Y53400D01*
X372827Y53470D01*
X372785Y53519D01*
X372752Y53574D01*
X372694Y53626D01*
X372644Y53684D01*
X372590Y53720D01*
X372542Y53763D01*
X372473Y53796D01*
X372408Y53839D01*
X372346Y53858D01*
X372289Y53886D01*
X372219Y53897D01*
X372138Y53921D01*
X372053Y53922D01*
X371984Y53933D01*
X370079Y53933D01*
X369483Y54529D01*
X369483Y63626D01*
X369471Y63711D01*
X369469Y63796D01*
X369451Y63850D01*
X369443Y63906D01*
X369408Y63983D01*
X369382Y64065D01*
X369350Y64111D01*
X369327Y64162D01*
X369272Y64227D01*
X369224Y64298D01*
X369183Y64331D01*
X369144Y64377D01*
X369050Y64438D01*
X368984Y64492D01*
X368940Y64517D01*
X368467Y64990D01*
X368132Y65569D01*
X367959Y66215D01*
X367959Y68801D01*
X374000Y68801D01*
X374064Y68810D01*
X374128Y68809D01*
X374202Y68830D01*
X374279Y68841D01*
X374338Y68867D01*
X374400Y68884D01*
X374466Y68925D01*
X374536Y68957D01*
X374585Y68999D01*
X374640Y69032D01*
X374691Y69090D01*
X374750Y69140D01*
X374786Y69194D01*
X374829Y69242D01*
X374862Y69311D01*
X374905Y69376D01*
X374924Y69438D01*
X374952Y69495D01*
X374962Y69565D01*
X374987Y69646D01*
X374988Y69731D01*
X374999Y69800D01*
X374999Y70801D01*
X375001Y70801D01*
X375001Y69800D01*
X375010Y69736D01*
X375009Y69672D01*
X375030Y69597D01*
X375041Y69521D01*
X375067Y69462D01*
X375084Y69400D01*
X375125Y69334D01*
X375157Y69264D01*
X375199Y69215D01*
X375232Y69160D01*
X375290Y69108D01*
X375340Y69050D01*
X375394Y69014D01*
X375442Y68971D01*
X375511Y68938D01*
X375576Y68895D01*
X375638Y68876D01*
X375696Y68848D01*
X375765Y68838D01*
X375846Y68813D01*
X375931Y68812D01*
X376000Y68801D01*
X388000Y68801D01*
X388064Y68810D01*
X388128Y68809D01*
X388202Y68830D01*
X388279Y68841D01*
X388338Y68867D01*
X388400Y68884D01*
X388466Y68925D01*
X388536Y68957D01*
X388585Y68999D01*
X388640Y69032D01*
X388691Y69090D01*
X388750Y69140D01*
X388786Y69194D01*
X388829Y69242D01*
X388862Y69311D01*
X388905Y69376D01*
X388924Y69438D01*
X388952Y69495D01*
X388962Y69565D01*
X388987Y69646D01*
X388988Y69731D01*
X388999Y69800D01*
X388999Y70801D01*
X389001Y70801D01*
X389001Y69800D01*
X389010Y69736D01*
X389009Y69672D01*
X389030Y69597D01*
X389041Y69521D01*
X389067Y69462D01*
X389084Y69400D01*
X389125Y69334D01*
X389157Y69264D01*
X389199Y69215D01*
X389232Y69160D01*
X389290Y69108D01*
X389340Y69050D01*
X389394Y69014D01*
X389442Y68971D01*
X389511Y68938D01*
X389576Y68895D01*
X389638Y68876D01*
X389696Y68848D01*
X389765Y68838D01*
X389846Y68813D01*
X389931Y68812D01*
X390000Y68801D01*
X396041Y68801D01*
X396041Y66215D01*
X395868Y65569D01*
X395533Y64990D01*
X395060Y64517D01*
X395016Y64492D01*
X394949Y64439D01*
X394876Y64394D01*
X394839Y64352D01*
X394794Y64318D01*
X394745Y64248D01*
X394687Y64185D01*
X394663Y64134D01*
X394630Y64088D01*
X394602Y64008D01*
X394564Y63931D01*
X394556Y63879D01*
X394536Y63823D01*
X394530Y63711D01*
X394517Y63626D01*
X394517Y54529D01*
X393921Y53933D01*
X391016Y53933D01*
X390952Y53924D01*
X390888Y53925D01*
X390813Y53904D01*
X390737Y53893D01*
X390678Y53867D01*
X390616Y53850D01*
X390550Y53809D01*
X390480Y53777D01*
X390431Y53735D01*
X390376Y53702D01*
X390324Y53644D01*
X390266Y53594D01*
X390230Y53540D01*
X390187Y53492D01*
X390154Y53423D01*
X390111Y53358D01*
X390092Y53296D01*
X390064Y53239D01*
X390053Y53169D01*
X390029Y53088D01*
X390028Y53003D01*
X390017Y52934D01*
X390017Y50477D01*
X390025Y50419D01*
X390025Y50417D01*
X390026Y50415D01*
X390030Y50382D01*
X390035Y50285D01*
X390050Y50242D01*
X390057Y50197D01*
X390096Y50110D01*
X390128Y50019D01*
X390153Y49985D01*
X390173Y49940D01*
X390256Y49843D01*
X390309Y49770D01*
X392299Y47781D01*
X392299Y44219D01*
X390309Y42230D01*
X390299Y42216D01*
X390294Y42211D01*
X390281Y42193D01*
X390252Y42153D01*
X390187Y42082D01*
X390167Y42041D01*
X390140Y42004D01*
X390106Y41914D01*
X390064Y41828D01*
X390058Y41786D01*
X390041Y41741D01*
X390031Y41613D01*
X390017Y41523D01*
X390017Y41165D01*
X386835Y37983D01*
X369165Y37983D01*
X365069Y42079D01*
X364992Y42136D01*
X364921Y42201D01*
X364880Y42221D01*
X364844Y42248D01*
X364754Y42282D01*
X364667Y42324D01*
X364625Y42330D01*
X364580Y42347D01*
X364452Y42357D01*
X364363Y42371D01*
X300637Y42371D01*
X300542Y42358D01*
X300446Y42353D01*
X300403Y42338D01*
X300358Y42332D01*
X300271Y42292D01*
X300180Y42260D01*
X300145Y42235D01*
X300101Y42215D01*
X300004Y42132D01*
X299931Y42079D01*
X299039Y41187D01*
X294812Y41187D01*
X294748Y41178D01*
X294684Y41179D01*
X294609Y41158D01*
X294533Y41147D01*
X294474Y41121D01*
X294412Y41104D01*
X294346Y41063D01*
X294276Y41031D01*
X294227Y40990D01*
X294172Y40956D01*
X294120Y40898D01*
X294061Y40848D01*
X294026Y40794D01*
X293983Y40746D01*
X293949Y40677D01*
X293907Y40612D01*
X293888Y40550D01*
X293860Y40493D01*
X293849Y40423D01*
X293825Y40342D01*
X293824Y40257D01*
X293813Y40188D01*
X293813Y36283D01*
X293217Y35687D01*
X286220Y35687D01*
X286135Y35675D01*
X286049Y35673D01*
X285996Y35655D01*
X285940Y35647D01*
X285863Y35612D01*
X285781Y35586D01*
X285735Y35554D01*
X285683Y35531D01*
X285619Y35476D01*
X285548Y35428D01*
X285515Y35387D01*
X285469Y35348D01*
X285408Y35254D01*
X285354Y35188D01*
X285329Y35144D01*
X284856Y34671D01*
X284812Y34646D01*
X284745Y34593D01*
X284672Y34548D01*
X284635Y34506D01*
X284590Y34472D01*
X284541Y34402D01*
X284483Y34339D01*
X284459Y34288D01*
X284426Y34243D01*
X284398Y34162D01*
X284360Y34085D01*
X284352Y34033D01*
X284332Y33977D01*
X284326Y33865D01*
X284313Y33780D01*
X284313Y27562D01*
X284322Y27498D01*
X284321Y27434D01*
X284342Y27359D01*
X284352Y27283D01*
X284379Y27224D01*
X284396Y27162D01*
X284437Y27096D01*
X284469Y27026D01*
X284510Y26977D01*
X284544Y26922D01*
X284602Y26870D01*
X284652Y26812D01*
X284706Y26776D01*
X284754Y26733D01*
X284823Y26700D01*
X284888Y26657D01*
X284950Y26638D01*
X285007Y26610D01*
X285077Y26599D01*
X285158Y26575D01*
X285242Y26574D01*
X285312Y26563D01*
X407238Y26563D01*
X407302Y26572D01*
G37*
G36*
X248344Y26572D02*
X248344Y26572D01*
X248408Y26571D01*
X248483Y26592D01*
X248559Y26603D01*
X248618Y26629D01*
X248680Y26646D01*
X248746Y26687D01*
X248816Y26719D01*
X248865Y26761D01*
X248920Y26794D01*
X248972Y26852D01*
X249030Y26902D01*
X249066Y26956D01*
X249109Y27004D01*
X249142Y27073D01*
X249185Y27138D01*
X249204Y27200D01*
X249232Y27257D01*
X249242Y27327D01*
X249267Y27408D01*
X249268Y27493D01*
X249279Y27562D01*
X249279Y33780D01*
X249267Y33865D01*
X249265Y33950D01*
X249247Y34004D01*
X249239Y34060D01*
X249204Y34137D01*
X249178Y34219D01*
X249146Y34265D01*
X249123Y34316D01*
X249068Y34381D01*
X249020Y34452D01*
X248979Y34485D01*
X248940Y34531D01*
X248846Y34592D01*
X248780Y34646D01*
X248736Y34671D01*
X248263Y35144D01*
X248238Y35188D01*
X248185Y35255D01*
X248140Y35328D01*
X248098Y35365D01*
X248064Y35410D01*
X247994Y35459D01*
X247931Y35517D01*
X247880Y35541D01*
X247834Y35574D01*
X247754Y35602D01*
X247677Y35640D01*
X247625Y35648D01*
X247568Y35668D01*
X247457Y35674D01*
X247372Y35687D01*
X241298Y35687D01*
X241234Y35678D01*
X241170Y35679D01*
X241095Y35658D01*
X241019Y35647D01*
X240960Y35621D01*
X240898Y35604D01*
X240832Y35563D01*
X240762Y35531D01*
X240713Y35490D01*
X240658Y35456D01*
X240606Y35398D01*
X240548Y35348D01*
X240512Y35294D01*
X240469Y35246D01*
X240436Y35177D01*
X240393Y35112D01*
X240374Y35050D01*
X240346Y34993D01*
X240335Y34923D01*
X240311Y34842D01*
X240310Y34757D01*
X240299Y34688D01*
X240299Y31219D01*
X237781Y28701D01*
X234219Y28701D01*
X231701Y31219D01*
X231701Y31740D01*
X231692Y31804D01*
X231693Y31868D01*
X231672Y31943D01*
X231661Y32019D01*
X231635Y32078D01*
X231618Y32140D01*
X231577Y32206D01*
X231545Y32276D01*
X231503Y32325D01*
X231470Y32380D01*
X231412Y32432D01*
X231362Y32490D01*
X231308Y32526D01*
X231260Y32569D01*
X231191Y32602D01*
X231126Y32645D01*
X231064Y32664D01*
X231007Y32692D01*
X230937Y32703D01*
X230856Y32727D01*
X230771Y32728D01*
X230702Y32739D01*
X229985Y32739D01*
X229921Y32730D01*
X229857Y32731D01*
X229782Y32710D01*
X229705Y32699D01*
X229647Y32673D01*
X229585Y32656D01*
X229519Y32615D01*
X229448Y32583D01*
X229400Y32541D01*
X229345Y32508D01*
X229293Y32450D01*
X229234Y32400D01*
X229199Y32346D01*
X229156Y32298D01*
X229122Y32229D01*
X229080Y32164D01*
X229061Y32102D01*
X229033Y32045D01*
X229022Y31975D01*
X228997Y31894D01*
X228996Y31809D01*
X228985Y31740D01*
X228985Y30355D01*
X228390Y29759D01*
X218547Y29759D01*
X217952Y30355D01*
X217952Y39697D01*
X218374Y40119D01*
X218413Y40171D01*
X218459Y40216D01*
X218497Y40283D01*
X218543Y40345D01*
X218566Y40405D01*
X218598Y40461D01*
X218616Y40536D01*
X218643Y40609D01*
X218648Y40673D01*
X218663Y40735D01*
X218659Y40813D01*
X218665Y40890D01*
X218652Y40953D01*
X218648Y41017D01*
X218623Y41090D01*
X218607Y41166D01*
X218577Y41223D01*
X218556Y41284D01*
X218515Y41340D01*
X218475Y41415D01*
X218415Y41476D01*
X218374Y41533D01*
X217952Y41955D01*
X217952Y51297D01*
X218547Y51893D01*
X220453Y51893D01*
X220516Y51902D01*
X220580Y51901D01*
X220655Y51922D01*
X220732Y51933D01*
X220790Y51959D01*
X220852Y51976D01*
X220918Y52017D01*
X220989Y52049D01*
X221038Y52090D01*
X221092Y52124D01*
X221144Y52182D01*
X221203Y52232D01*
X221238Y52286D01*
X221281Y52334D01*
X221315Y52403D01*
X221358Y52468D01*
X221376Y52530D01*
X221404Y52587D01*
X221415Y52657D01*
X221440Y52738D01*
X221441Y52823D01*
X221452Y52892D01*
X221452Y53304D01*
X227165Y59017D01*
X231751Y59017D01*
X231846Y59030D01*
X231942Y59035D01*
X231985Y59050D01*
X232030Y59057D01*
X232118Y59096D01*
X232208Y59128D01*
X232243Y59153D01*
X232287Y59173D01*
X232384Y59256D01*
X232457Y59309D01*
X236393Y63245D01*
X236413Y63271D01*
X236437Y63292D01*
X236497Y63384D01*
X236563Y63471D01*
X236574Y63501D01*
X236592Y63528D01*
X236624Y63633D01*
X236662Y63735D01*
X236665Y63767D01*
X236674Y63798D01*
X236676Y63907D01*
X236684Y64016D01*
X236677Y64048D01*
X236678Y64080D01*
X236649Y64185D01*
X236626Y64292D01*
X236611Y64321D01*
X236603Y64352D01*
X236545Y64445D01*
X236494Y64541D01*
X236471Y64564D01*
X236454Y64592D01*
X236373Y64665D01*
X236297Y64743D01*
X236269Y64759D01*
X236245Y64781D01*
X236147Y64828D01*
X236052Y64882D01*
X236020Y64890D01*
X235991Y64904D01*
X235902Y64918D01*
X235777Y64947D01*
X235729Y64945D01*
X235687Y64951D01*
X208337Y64951D01*
X198551Y74737D01*
X198551Y142063D01*
X210537Y154049D01*
X222555Y154049D01*
X222650Y154062D01*
X222747Y154067D01*
X222790Y154082D01*
X222835Y154089D01*
X222922Y154128D01*
X223013Y154160D01*
X223047Y154185D01*
X223092Y154205D01*
X223189Y154288D01*
X223262Y154341D01*
X224219Y155299D01*
X227781Y155299D01*
X228738Y154341D01*
X228815Y154284D01*
X228886Y154219D01*
X228927Y154199D01*
X228964Y154172D01*
X229054Y154138D01*
X229140Y154096D01*
X229182Y154090D01*
X229227Y154073D01*
X229355Y154063D01*
X229445Y154049D01*
X230272Y154049D01*
X230335Y154058D01*
X230399Y154057D01*
X230474Y154078D01*
X230551Y154089D01*
X230609Y154115D01*
X230671Y154132D01*
X230737Y154173D01*
X230808Y154205D01*
X230856Y154247D01*
X230911Y154280D01*
X230963Y154338D01*
X231022Y154388D01*
X231057Y154442D01*
X231100Y154490D01*
X231134Y154559D01*
X231176Y154624D01*
X231195Y154686D01*
X231223Y154743D01*
X231234Y154813D01*
X231259Y154894D01*
X231260Y154979D01*
X231271Y155048D01*
X231271Y157109D01*
X231866Y157704D01*
X242709Y157704D01*
X243304Y157109D01*
X243304Y155235D01*
X243313Y155172D01*
X243312Y155108D01*
X243333Y155033D01*
X243344Y154956D01*
X243370Y154898D01*
X243388Y154836D01*
X243428Y154770D01*
X243460Y154699D01*
X243502Y154651D01*
X243536Y154596D01*
X243593Y154544D01*
X243644Y154485D01*
X243697Y154450D01*
X243745Y154407D01*
X243815Y154373D01*
X243880Y154331D01*
X243941Y154312D01*
X243999Y154284D01*
X244068Y154273D01*
X244149Y154248D01*
X244234Y154247D01*
X244303Y154236D01*
X246596Y154236D01*
X246691Y154250D01*
X246787Y154255D01*
X246830Y154270D01*
X246875Y154276D01*
X246963Y154316D01*
X247054Y154347D01*
X247088Y154372D01*
X247132Y154392D01*
X247229Y154475D01*
X247303Y154529D01*
X248047Y155273D01*
X260889Y155273D01*
X261314Y154848D01*
X261391Y154790D01*
X261462Y154726D01*
X261503Y154706D01*
X261540Y154678D01*
X261630Y154644D01*
X261716Y154603D01*
X261758Y154596D01*
X261804Y154579D01*
X261931Y154569D01*
X262021Y154555D01*
X265757Y154555D01*
X270049Y150263D01*
X270049Y133737D01*
X265769Y129458D01*
X262021Y129458D01*
X261926Y129444D01*
X261830Y129439D01*
X261787Y129424D01*
X261742Y129418D01*
X261654Y129378D01*
X261563Y129347D01*
X261529Y129321D01*
X261485Y129301D01*
X261387Y129218D01*
X261314Y129165D01*
X260889Y128740D01*
X248047Y128740D01*
X247451Y129335D01*
X247451Y135724D01*
X247481Y135763D01*
X247499Y135813D01*
X247527Y135859D01*
X247549Y135945D01*
X247580Y136027D01*
X247584Y136081D01*
X247598Y136132D01*
X247595Y136220D01*
X247602Y136308D01*
X247591Y136361D01*
X247589Y136414D01*
X247562Y136498D01*
X247544Y136584D01*
X247519Y136632D01*
X247503Y136683D01*
X247453Y136756D01*
X247412Y136833D01*
X247374Y136872D01*
X247344Y136916D01*
X247283Y136965D01*
X247215Y137035D01*
X247152Y137071D01*
X247104Y137110D01*
X246908Y137223D01*
X246534Y137597D01*
X246508Y137616D01*
X246487Y137641D01*
X246396Y137701D01*
X246309Y137766D01*
X246278Y137777D01*
X246251Y137795D01*
X246147Y137827D01*
X246045Y137866D01*
X246012Y137868D01*
X245982Y137878D01*
X245872Y137879D01*
X245763Y137887D01*
X245732Y137881D01*
X245700Y137881D01*
X245594Y137852D01*
X245487Y137830D01*
X245459Y137815D01*
X245428Y137806D01*
X245335Y137749D01*
X245238Y137697D01*
X245215Y137675D01*
X245188Y137658D01*
X245114Y137577D01*
X245036Y137501D01*
X245020Y137473D01*
X244999Y137449D01*
X244951Y137350D01*
X244897Y137255D01*
X244890Y137224D01*
X244876Y137195D01*
X244862Y137105D01*
X244832Y136981D01*
X244835Y136932D01*
X244828Y136890D01*
X244828Y136187D01*
X239287Y136187D01*
X239287Y142228D01*
X242622Y142228D01*
X243268Y142055D01*
X243848Y141721D01*
X244321Y141248D01*
X244388Y141132D01*
X244440Y141064D01*
X244485Y140992D01*
X244527Y140954D01*
X244562Y140910D01*
X244631Y140860D01*
X244695Y140803D01*
X244745Y140778D01*
X244791Y140745D01*
X244871Y140717D01*
X244948Y140680D01*
X245000Y140671D01*
X245057Y140651D01*
X245168Y140645D01*
X245253Y140632D01*
X254093Y140632D01*
X254156Y140641D01*
X254220Y140640D01*
X254295Y140661D01*
X254372Y140672D01*
X254430Y140698D01*
X254492Y140715D01*
X254558Y140756D01*
X254629Y140788D01*
X254677Y140830D01*
X254732Y140864D01*
X254784Y140921D01*
X254843Y140971D01*
X254878Y141025D01*
X254921Y141073D01*
X254955Y141142D01*
X254997Y141207D01*
X255016Y141269D01*
X255044Y141327D01*
X255055Y141396D01*
X255080Y141477D01*
X255081Y141562D01*
X255092Y141631D01*
X255092Y142381D01*
X255083Y142445D01*
X255084Y142509D01*
X255063Y142584D01*
X255052Y142660D01*
X255026Y142719D01*
X255008Y142781D01*
X254968Y142847D01*
X254936Y142917D01*
X254894Y142966D01*
X254860Y143021D01*
X254803Y143073D01*
X254752Y143132D01*
X254699Y143167D01*
X254651Y143210D01*
X254581Y143244D01*
X254516Y143286D01*
X254455Y143305D01*
X254397Y143333D01*
X254328Y143344D01*
X254247Y143369D01*
X254162Y143370D01*
X254093Y143381D01*
X245927Y143381D01*
X245927Y145091D01*
X246100Y145737D01*
X246435Y146316D01*
X246551Y146433D01*
X246571Y146459D01*
X246595Y146480D01*
X246655Y146571D01*
X246721Y146658D01*
X246732Y146689D01*
X246750Y146716D01*
X246782Y146820D01*
X246820Y146922D01*
X246823Y146955D01*
X246832Y146985D01*
X246833Y147095D01*
X246842Y147204D01*
X246835Y147235D01*
X246836Y147267D01*
X246807Y147373D01*
X246784Y147480D01*
X246769Y147508D01*
X246761Y147539D01*
X246703Y147632D01*
X246652Y147729D01*
X246629Y147752D01*
X246612Y147779D01*
X246531Y147852D01*
X246455Y147931D01*
X246427Y147947D01*
X246403Y147968D01*
X246305Y148016D01*
X246210Y148070D01*
X246178Y148077D01*
X246149Y148091D01*
X246060Y148105D01*
X245935Y148135D01*
X245887Y148132D01*
X245845Y148139D01*
X244303Y148139D01*
X244240Y148130D01*
X244176Y148131D01*
X244101Y148110D01*
X244024Y148099D01*
X243966Y148073D01*
X243904Y148055D01*
X243838Y148015D01*
X243767Y147983D01*
X243719Y147941D01*
X243664Y147907D01*
X243612Y147850D01*
X243553Y147799D01*
X243518Y147746D01*
X243475Y147698D01*
X243441Y147628D01*
X243399Y147563D01*
X243380Y147502D01*
X243352Y147444D01*
X243341Y147375D01*
X243316Y147294D01*
X243315Y147209D01*
X243304Y147140D01*
X243304Y145266D01*
X242709Y144671D01*
X231866Y144671D01*
X231271Y145266D01*
X231271Y146952D01*
X231262Y147016D01*
X231263Y147080D01*
X231242Y147155D01*
X231231Y147231D01*
X231205Y147290D01*
X231187Y147352D01*
X231147Y147418D01*
X231115Y147488D01*
X231073Y147537D01*
X231039Y147592D01*
X230982Y147644D01*
X230931Y147702D01*
X230878Y147738D01*
X230830Y147781D01*
X230760Y147814D01*
X230695Y147857D01*
X230634Y147876D01*
X230576Y147904D01*
X230507Y147915D01*
X230426Y147939D01*
X230341Y147940D01*
X230272Y147951D01*
X229445Y147951D01*
X229350Y147938D01*
X229253Y147933D01*
X229210Y147918D01*
X229165Y147911D01*
X229078Y147872D01*
X228987Y147840D01*
X228953Y147815D01*
X228908Y147795D01*
X228811Y147712D01*
X228738Y147659D01*
X227781Y146701D01*
X224219Y146701D01*
X223262Y147659D01*
X223185Y147716D01*
X223114Y147781D01*
X223073Y147801D01*
X223036Y147828D01*
X222946Y147862D01*
X222860Y147904D01*
X222818Y147910D01*
X222773Y147927D01*
X222645Y147937D01*
X222555Y147951D01*
X213477Y147951D01*
X213382Y147938D01*
X213286Y147933D01*
X213242Y147918D01*
X213198Y147911D01*
X213110Y147872D01*
X213019Y147840D01*
X212985Y147815D01*
X212941Y147795D01*
X212843Y147712D01*
X212770Y147659D01*
X204941Y139830D01*
X204884Y139753D01*
X204819Y139682D01*
X204799Y139641D01*
X204772Y139604D01*
X204738Y139514D01*
X204696Y139428D01*
X204690Y139386D01*
X204673Y139340D01*
X204663Y139213D01*
X204649Y139123D01*
X204649Y77677D01*
X204662Y77582D01*
X204667Y77486D01*
X204682Y77442D01*
X204689Y77398D01*
X204728Y77310D01*
X204760Y77219D01*
X204785Y77185D01*
X204805Y77141D01*
X204888Y77043D01*
X204941Y76970D01*
X210570Y71341D01*
X210647Y71284D01*
X210718Y71219D01*
X210759Y71199D01*
X210796Y71172D01*
X210886Y71138D01*
X210972Y71096D01*
X211014Y71090D01*
X211060Y71073D01*
X211187Y71063D01*
X211277Y71049D01*
X229552Y71049D01*
X229616Y71058D01*
X229680Y71057D01*
X229755Y71078D01*
X229831Y71089D01*
X229890Y71115D01*
X229952Y71132D01*
X230018Y71173D01*
X230088Y71205D01*
X230137Y71247D01*
X230192Y71280D01*
X230244Y71338D01*
X230302Y71388D01*
X230338Y71442D01*
X230381Y71490D01*
X230414Y71559D01*
X230457Y71624D01*
X230476Y71686D01*
X230504Y71743D01*
X230515Y71813D01*
X230539Y71894D01*
X230540Y71979D01*
X230551Y72048D01*
X230551Y87663D01*
X235537Y92649D01*
X238384Y92649D01*
X238448Y92658D01*
X238512Y92657D01*
X238587Y92678D01*
X238663Y92689D01*
X238722Y92715D01*
X238784Y92732D01*
X238850Y92773D01*
X238920Y92805D01*
X238969Y92847D01*
X239024Y92880D01*
X239076Y92938D01*
X239134Y92988D01*
X239170Y93042D01*
X239213Y93090D01*
X239246Y93159D01*
X239289Y93224D01*
X239308Y93286D01*
X239336Y93343D01*
X239347Y93413D01*
X239371Y93494D01*
X239372Y93579D01*
X239383Y93648D01*
X239383Y95789D01*
X240411Y96817D01*
X246289Y96817D01*
X247549Y95556D01*
X247575Y95537D01*
X247596Y95513D01*
X247688Y95453D01*
X247775Y95387D01*
X247805Y95376D01*
X247832Y95358D01*
X247937Y95326D01*
X248039Y95288D01*
X248071Y95285D01*
X248102Y95276D01*
X248211Y95274D01*
X248320Y95266D01*
X248352Y95272D01*
X248384Y95272D01*
X248489Y95301D01*
X248596Y95323D01*
X248625Y95339D01*
X248656Y95347D01*
X248749Y95405D01*
X248845Y95456D01*
X248868Y95478D01*
X248896Y95495D01*
X248969Y95576D01*
X249047Y95653D01*
X249063Y95681D01*
X249085Y95705D01*
X249132Y95803D01*
X249186Y95898D01*
X249194Y95929D01*
X249208Y95958D01*
X249222Y96048D01*
X249251Y96173D01*
X249249Y96221D01*
X249255Y96263D01*
X249255Y102175D01*
X249251Y102207D01*
X249253Y102239D01*
X249231Y102346D01*
X249215Y102454D01*
X249202Y102483D01*
X249196Y102515D01*
X249144Y102611D01*
X249099Y102711D01*
X249078Y102735D01*
X249063Y102764D01*
X248987Y102842D01*
X248916Y102925D01*
X248889Y102943D01*
X248866Y102966D01*
X248771Y103020D01*
X248680Y103079D01*
X248649Y103089D01*
X248621Y103105D01*
X248514Y103130D01*
X248410Y103162D01*
X248378Y103162D01*
X248346Y103170D01*
X248237Y103164D01*
X248128Y103166D01*
X248097Y103157D01*
X248065Y103155D01*
X247962Y103120D01*
X247856Y103090D01*
X247829Y103073D01*
X247798Y103063D01*
X247725Y103009D01*
X247616Y102942D01*
X247584Y102906D01*
X247549Y102881D01*
X247382Y102714D01*
X246521Y102217D01*
X245560Y101959D01*
X243349Y101959D01*
X243349Y109700D01*
X243340Y109764D01*
X243341Y109828D01*
X243320Y109902D01*
X243309Y109979D01*
X243283Y110038D01*
X243266Y110100D01*
X243225Y110166D01*
X243193Y110236D01*
X243151Y110285D01*
X243118Y110340D01*
X243060Y110391D01*
X243010Y110450D01*
X242956Y110486D01*
X242908Y110529D01*
X242839Y110562D01*
X242774Y110605D01*
X242712Y110624D01*
X242655Y110652D01*
X242585Y110662D01*
X242504Y110687D01*
X242419Y110688D01*
X242350Y110699D01*
X241349Y110699D01*
X241349Y110701D01*
X242350Y110701D01*
X242414Y110710D01*
X242478Y110709D01*
X242553Y110730D01*
X242629Y110741D01*
X242688Y110767D01*
X242750Y110784D01*
X242816Y110825D01*
X242886Y110857D01*
X242935Y110899D01*
X242990Y110932D01*
X243042Y110990D01*
X243100Y111040D01*
X243136Y111094D01*
X243179Y111142D01*
X243212Y111211D01*
X243255Y111276D01*
X243274Y111338D01*
X243302Y111396D01*
X243312Y111465D01*
X243337Y111546D01*
X243338Y111631D01*
X243349Y111700D01*
X243349Y119441D01*
X245560Y119441D01*
X246521Y119183D01*
X247382Y118686D01*
X248086Y117982D01*
X248583Y117121D01*
X248841Y116160D01*
X248841Y115646D01*
X248845Y115614D01*
X248843Y115582D01*
X248865Y115475D01*
X248881Y115367D01*
X248894Y115338D01*
X248900Y115306D01*
X248952Y115210D01*
X248997Y115110D01*
X249018Y115086D01*
X249033Y115057D01*
X249109Y114979D01*
X249180Y114896D01*
X249207Y114878D01*
X249230Y114855D01*
X249325Y114801D01*
X249416Y114741D01*
X249447Y114732D01*
X249475Y114716D01*
X249582Y114691D01*
X249686Y114659D01*
X249718Y114659D01*
X249749Y114651D01*
X249859Y114657D01*
X249968Y114655D01*
X249999Y114664D01*
X250031Y114665D01*
X250134Y114701D01*
X250240Y114730D01*
X250267Y114747D01*
X250298Y114758D01*
X250371Y114811D01*
X250480Y114879D01*
X250512Y114915D01*
X250547Y114940D01*
X257348Y121741D01*
X306534Y121741D01*
X306629Y121754D01*
X306725Y121759D01*
X306768Y121774D01*
X306813Y121781D01*
X306900Y121820D01*
X306991Y121852D01*
X307026Y121877D01*
X307070Y121897D01*
X307167Y121980D01*
X307240Y122033D01*
X309167Y123960D01*
X309224Y124037D01*
X309289Y124108D01*
X309309Y124149D01*
X309336Y124185D01*
X309370Y124275D01*
X309412Y124362D01*
X309418Y124404D01*
X309435Y124449D01*
X309445Y124577D01*
X309459Y124666D01*
X309459Y147047D01*
X309446Y147142D01*
X309441Y147239D01*
X309426Y147282D01*
X309419Y147327D01*
X309380Y147414D01*
X309348Y147505D01*
X309323Y147539D01*
X309303Y147584D01*
X309220Y147681D01*
X309167Y147754D01*
X308818Y148102D01*
X308742Y148160D01*
X308670Y148224D01*
X308629Y148244D01*
X308593Y148272D01*
X308503Y148306D01*
X308416Y148347D01*
X308374Y148354D01*
X308329Y148371D01*
X308201Y148381D01*
X308112Y148395D01*
X304822Y148395D01*
X304759Y148386D01*
X304694Y148387D01*
X304620Y148366D01*
X304543Y148355D01*
X304485Y148329D01*
X304423Y148312D01*
X304357Y148271D01*
X304286Y148239D01*
X304237Y148197D01*
X304183Y148163D01*
X304131Y148106D01*
X304072Y148056D01*
X304037Y148002D01*
X303994Y147954D01*
X303960Y147885D01*
X303917Y147820D01*
X303899Y147758D01*
X303871Y147700D01*
X303860Y147631D01*
X303835Y147550D01*
X303834Y147465D01*
X303823Y147396D01*
X303823Y145523D01*
X303227Y144927D01*
X292385Y144927D01*
X291790Y145523D01*
X291790Y147458D01*
X291780Y147522D01*
X291781Y147586D01*
X291761Y147661D01*
X291750Y147737D01*
X291723Y147796D01*
X291706Y147858D01*
X291665Y147924D01*
X291633Y147994D01*
X291592Y148043D01*
X291558Y148098D01*
X291500Y148150D01*
X291450Y148209D01*
X291396Y148244D01*
X291349Y148287D01*
X291279Y148321D01*
X291214Y148363D01*
X291153Y148382D01*
X291095Y148410D01*
X291025Y148421D01*
X290944Y148446D01*
X290860Y148447D01*
X290790Y148458D01*
X288023Y148458D01*
X287928Y148444D01*
X287832Y148439D01*
X287789Y148424D01*
X287744Y148418D01*
X287656Y148378D01*
X287565Y148347D01*
X287531Y148321D01*
X287487Y148301D01*
X287389Y148218D01*
X287316Y148165D01*
X286891Y147740D01*
X274049Y147740D01*
X273453Y148335D01*
X273453Y154677D01*
X274049Y155273D01*
X277260Y155273D01*
X277324Y155282D01*
X277388Y155281D01*
X277463Y155302D01*
X277539Y155313D01*
X277598Y155339D01*
X277660Y155356D01*
X277726Y155397D01*
X277796Y155429D01*
X277845Y155471D01*
X277900Y155505D01*
X277952Y155562D01*
X278010Y155612D01*
X278046Y155666D01*
X278089Y155714D01*
X278122Y155783D01*
X278165Y155848D01*
X278184Y155910D01*
X278212Y155968D01*
X278223Y156037D01*
X278247Y156118D01*
X278248Y156203D01*
X278259Y156272D01*
X278259Y159334D01*
X278246Y159429D01*
X278241Y159525D01*
X278226Y159568D01*
X278219Y159613D01*
X278180Y159700D01*
X278148Y159791D01*
X278123Y159826D01*
X278103Y159870D01*
X278020Y159967D01*
X277967Y160040D01*
X277044Y160963D01*
X276992Y161002D01*
X276947Y161048D01*
X276880Y161086D01*
X276818Y161133D01*
X276758Y161155D01*
X276702Y161187D01*
X276626Y161205D01*
X276554Y161232D01*
X276490Y161237D01*
X276427Y161252D01*
X276350Y161248D01*
X276273Y161254D01*
X276210Y161241D01*
X276146Y161238D01*
X276073Y161212D01*
X275997Y161196D01*
X275940Y161166D01*
X275879Y161145D01*
X275823Y161104D01*
X275748Y161064D01*
X275687Y161005D01*
X275630Y160963D01*
X274450Y159783D01*
X269790Y159783D01*
X269548Y160025D01*
X269505Y160057D01*
X269469Y160096D01*
X269393Y160141D01*
X269323Y160194D01*
X269272Y160213D01*
X269226Y160240D01*
X269141Y160263D01*
X269059Y160294D01*
X269005Y160298D01*
X268953Y160311D01*
X268865Y160309D01*
X268778Y160315D01*
X268725Y160305D01*
X268671Y160303D01*
X268588Y160276D01*
X268501Y160258D01*
X268454Y160233D01*
X268403Y160216D01*
X268330Y160167D01*
X268252Y160125D01*
X268214Y160088D01*
X268170Y160058D01*
X268120Y159997D01*
X268050Y159929D01*
X268015Y159866D01*
X267976Y159818D01*
X267943Y159761D01*
X267219Y159037D01*
X266332Y158524D01*
X265342Y158259D01*
X264829Y158259D01*
X264829Y163450D01*
X264820Y163513D01*
X264821Y163578D01*
X264800Y163652D01*
X264789Y163729D01*
X264763Y163787D01*
X264760Y163800D01*
X264782Y163846D01*
X264793Y163915D01*
X264817Y163996D01*
X264818Y164081D01*
X264829Y164150D01*
X264829Y169341D01*
X265342Y169341D01*
X266332Y169076D01*
X267219Y168563D01*
X267943Y167839D01*
X267976Y167782D01*
X268009Y167740D01*
X268034Y167693D01*
X268096Y167629D01*
X268150Y167560D01*
X268194Y167529D01*
X268231Y167491D01*
X268308Y167447D01*
X268379Y167396D01*
X268430Y167378D01*
X268477Y167352D01*
X268562Y167331D01*
X268645Y167302D01*
X268699Y167299D01*
X268751Y167287D01*
X268839Y167291D01*
X268927Y167286D01*
X268979Y167298D01*
X269033Y167301D01*
X269116Y167330D01*
X269202Y167350D01*
X269248Y167376D01*
X269299Y167393D01*
X269362Y167440D01*
X269448Y167487D01*
X269498Y167539D01*
X269548Y167575D01*
X269790Y167817D01*
X274450Y167817D01*
X275634Y166633D01*
X275710Y166576D01*
X275782Y166511D01*
X275823Y166491D01*
X275859Y166464D01*
X275949Y166430D01*
X276036Y166388D01*
X276078Y166382D01*
X276123Y166365D01*
X276251Y166355D01*
X276340Y166341D01*
X278852Y166341D01*
X283341Y161852D01*
X283341Y156272D01*
X283350Y156209D01*
X283349Y156144D01*
X283370Y156070D01*
X283381Y155993D01*
X283407Y155935D01*
X283424Y155873D01*
X283465Y155807D01*
X283497Y155736D01*
X283539Y155687D01*
X283572Y155633D01*
X283630Y155581D01*
X283680Y155522D01*
X283734Y155487D01*
X283782Y155444D01*
X283851Y155410D01*
X283916Y155367D01*
X283978Y155349D01*
X284035Y155321D01*
X284105Y155310D01*
X284186Y155285D01*
X284271Y155284D01*
X284340Y155273D01*
X286891Y155273D01*
X287316Y154848D01*
X287393Y154790D01*
X287464Y154726D01*
X287505Y154706D01*
X287542Y154678D01*
X287632Y154644D01*
X287718Y154603D01*
X287760Y154596D01*
X287806Y154579D01*
X287933Y154569D01*
X288023Y154555D01*
X290790Y154555D01*
X290854Y154564D01*
X290918Y154563D01*
X290993Y154584D01*
X291069Y154595D01*
X291128Y154621D01*
X291190Y154638D01*
X291256Y154679D01*
X291326Y154711D01*
X291375Y154753D01*
X291430Y154787D01*
X291482Y154844D01*
X291541Y154894D01*
X291576Y154948D01*
X291619Y154996D01*
X291653Y155065D01*
X291695Y155130D01*
X291714Y155192D01*
X291742Y155250D01*
X291753Y155319D01*
X291778Y155400D01*
X291779Y155485D01*
X291790Y155554D01*
X291790Y157365D01*
X292385Y157960D01*
X303227Y157960D01*
X303823Y157365D01*
X303823Y155492D01*
X303832Y155428D01*
X303831Y155364D01*
X303852Y155289D01*
X303863Y155213D01*
X303889Y155154D01*
X303906Y155092D01*
X303947Y155026D01*
X303979Y154956D01*
X304021Y154907D01*
X304055Y154852D01*
X304112Y154800D01*
X304162Y154741D01*
X304216Y154706D01*
X304264Y154663D01*
X304333Y154629D01*
X304398Y154587D01*
X304460Y154568D01*
X304518Y154540D01*
X304587Y154529D01*
X304668Y154504D01*
X304753Y154503D01*
X304822Y154492D01*
X308999Y154492D01*
X309094Y154506D01*
X309190Y154511D01*
X309233Y154526D01*
X309278Y154532D01*
X309366Y154572D01*
X309457Y154603D01*
X309491Y154629D01*
X309535Y154649D01*
X309633Y154732D01*
X309706Y154785D01*
X310219Y155299D01*
X313781Y155299D01*
X314248Y154831D01*
X314325Y154774D01*
X314396Y154709D01*
X314437Y154689D01*
X314474Y154662D01*
X314564Y154628D01*
X314650Y154586D01*
X314692Y154580D01*
X314737Y154563D01*
X314865Y154553D01*
X314955Y154539D01*
X320122Y154539D01*
X320250Y154557D01*
X320380Y154572D01*
X320390Y154577D01*
X320402Y154579D01*
X320519Y154632D01*
X320639Y154683D01*
X320648Y154690D01*
X320658Y154695D01*
X320757Y154779D01*
X320858Y154861D01*
X320864Y154871D01*
X320873Y154878D01*
X320944Y154987D01*
X321017Y155094D01*
X321021Y155105D01*
X321027Y155114D01*
X321065Y155239D01*
X321106Y155362D01*
X321106Y155373D01*
X321110Y155384D01*
X321111Y155513D01*
X321116Y155643D01*
X321113Y155654D01*
X321113Y155666D01*
X321079Y155791D01*
X321047Y155917D01*
X321041Y155927D01*
X321038Y155938D01*
X320970Y156048D01*
X320904Y156160D01*
X320896Y156167D01*
X320890Y156178D01*
X320681Y156367D01*
X320679Y156368D01*
X320677Y156369D01*
X320043Y156793D01*
X318993Y157843D01*
X318167Y159078D01*
X317599Y160451D01*
X317559Y160651D01*
X323850Y160651D01*
X323914Y160660D01*
X323978Y160659D01*
X324052Y160680D01*
X324129Y160691D01*
X324188Y160717D01*
X324250Y160734D01*
X324316Y160775D01*
X324386Y160807D01*
X324435Y160849D01*
X324490Y160882D01*
X324541Y160940D01*
X324600Y160990D01*
X324636Y161044D01*
X324679Y161092D01*
X324712Y161161D01*
X324755Y161226D01*
X324774Y161288D01*
X324802Y161345D01*
X324812Y161415D01*
X324837Y161496D01*
X324838Y161581D01*
X324849Y161650D01*
X324849Y163650D01*
X324840Y163714D01*
X324841Y163778D01*
X324820Y163853D01*
X324809Y163929D01*
X324783Y163988D01*
X324766Y164050D01*
X324725Y164116D01*
X324693Y164186D01*
X324651Y164235D01*
X324618Y164290D01*
X324560Y164342D01*
X324510Y164400D01*
X324456Y164436D01*
X324408Y164479D01*
X324339Y164512D01*
X324274Y164555D01*
X324212Y164574D01*
X324154Y164602D01*
X324085Y164612D01*
X324004Y164637D01*
X323919Y164638D01*
X323850Y164649D01*
X317559Y164649D01*
X317599Y164850D01*
X318167Y166222D01*
X318993Y167457D01*
X320043Y168507D01*
X321278Y169332D01*
X321718Y169515D01*
X321793Y169559D01*
X321872Y169595D01*
X321914Y169630D01*
X321961Y169658D01*
X322020Y169722D01*
X322086Y169778D01*
X322116Y169824D01*
X322154Y169864D01*
X322193Y169941D01*
X322241Y170014D01*
X322257Y170067D01*
X322282Y170116D01*
X322298Y170201D01*
X322323Y170284D01*
X322324Y170339D01*
X322334Y170393D01*
X322326Y170479D01*
X322327Y170566D01*
X322312Y170619D01*
X322307Y170673D01*
X322275Y170754D01*
X322252Y170838D01*
X322223Y170885D01*
X322203Y170935D01*
X322149Y171004D01*
X322104Y171078D01*
X322063Y171114D01*
X322029Y171158D01*
X321959Y171208D01*
X321894Y171267D01*
X321845Y171291D01*
X321800Y171323D01*
X321719Y171352D01*
X321641Y171390D01*
X321590Y171398D01*
X321535Y171417D01*
X321421Y171424D01*
X321336Y171437D01*
X172481Y171437D01*
X172348Y171418D01*
X172214Y171401D01*
X172209Y171398D01*
X172202Y171397D01*
X172080Y171342D01*
X171956Y171288D01*
X171951Y171284D01*
X171945Y171281D01*
X171844Y171194D01*
X171739Y171107D01*
X171736Y171102D01*
X171731Y171098D01*
X171576Y170862D01*
X171574Y170855D01*
X171571Y170850D01*
X171136Y169888D01*
X171134Y169880D01*
X171129Y169873D01*
X171095Y169745D01*
X171058Y169618D01*
X171058Y169609D01*
X171055Y169600D01*
X171058Y169468D01*
X171058Y169336D01*
X171060Y169327D01*
X171060Y169318D01*
X171100Y169192D01*
X171137Y169065D01*
X171141Y169057D01*
X171144Y169049D01*
X171217Y168938D01*
X171288Y168827D01*
X171295Y168821D01*
X171299Y168814D01*
X171400Y168728D01*
X171500Y168641D01*
X171508Y168637D01*
X171515Y168631D01*
X171635Y168577D01*
X171755Y168521D01*
X171764Y168520D01*
X171772Y168516D01*
X171904Y168498D01*
X172034Y168478D01*
X172043Y168479D01*
X172051Y168478D01*
X172126Y168490D01*
X172314Y168514D01*
X172335Y168523D01*
X172356Y168527D01*
X172733Y168649D01*
X174510Y168931D01*
X182301Y168931D01*
X182301Y163834D01*
X182302Y163825D01*
X182301Y163815D01*
X182322Y163685D01*
X182341Y163555D01*
X182344Y163546D01*
X182346Y163537D01*
X182403Y163417D01*
X182457Y163298D01*
X182463Y163291D01*
X182467Y163282D01*
X182555Y163183D01*
X182640Y163084D01*
X182648Y163078D01*
X182654Y163071D01*
X182720Y163031D01*
X182876Y162929D01*
X182899Y162922D01*
X182918Y162911D01*
X183778Y162555D01*
X183819Y162524D01*
X183879Y162501D01*
X183935Y162469D01*
X184011Y162451D01*
X184083Y162424D01*
X184147Y162419D01*
X184210Y162404D01*
X184287Y162408D01*
X184364Y162402D01*
X184427Y162415D01*
X184492Y162419D01*
X184565Y162444D01*
X184640Y162460D01*
X184697Y162490D01*
X184758Y162511D01*
X184811Y162550D01*
X185682Y162911D01*
X185690Y162916D01*
X185700Y162918D01*
X185812Y162988D01*
X185925Y163054D01*
X185932Y163061D01*
X185940Y163066D01*
X186028Y163164D01*
X186118Y163260D01*
X186122Y163269D01*
X186129Y163276D01*
X186186Y163394D01*
X186246Y163512D01*
X186248Y163521D01*
X186252Y163529D01*
X186263Y163605D01*
X186298Y163789D01*
X186296Y163813D01*
X186299Y163834D01*
X186299Y168931D01*
X194090Y168931D01*
X195867Y168649D01*
X197578Y168093D01*
X199181Y167276D01*
X200637Y166219D01*
X201909Y164947D01*
X202966Y163491D01*
X203783Y161888D01*
X204339Y160177D01*
X204447Y159499D01*
X199300Y159499D01*
X199236Y159490D01*
X199172Y159491D01*
X199097Y159470D01*
X199021Y159459D01*
X198962Y159433D01*
X198900Y159416D01*
X198834Y159375D01*
X198764Y159343D01*
X198715Y159301D01*
X198660Y159268D01*
X198608Y159210D01*
X198550Y159160D01*
X198514Y159106D01*
X198471Y159058D01*
X198438Y158989D01*
X198395Y158924D01*
X198376Y158862D01*
X198348Y158805D01*
X198337Y158735D01*
X198313Y158654D01*
X198312Y158569D01*
X198301Y158500D01*
X198301Y156500D01*
X198310Y156436D01*
X198309Y156372D01*
X198330Y156297D01*
X198341Y156221D01*
X198367Y156162D01*
X198384Y156100D01*
X198425Y156034D01*
X198457Y155964D01*
X198499Y155915D01*
X198532Y155860D01*
X198590Y155808D01*
X198640Y155750D01*
X198694Y155714D01*
X198742Y155671D01*
X198811Y155638D01*
X198876Y155595D01*
X198938Y155576D01*
X198995Y155548D01*
X199065Y155537D01*
X199146Y155513D01*
X199231Y155512D01*
X199300Y155501D01*
X204447Y155501D01*
X204339Y154823D01*
X203783Y153112D01*
X202966Y151509D01*
X201909Y150053D01*
X200637Y148781D01*
X199181Y147724D01*
X197578Y146907D01*
X195867Y146351D01*
X194090Y146069D01*
X186299Y146069D01*
X186299Y151166D01*
X186298Y151175D01*
X186299Y151185D01*
X186278Y151315D01*
X186259Y151445D01*
X186256Y151454D01*
X186254Y151463D01*
X186198Y151582D01*
X186143Y151702D01*
X186137Y151709D01*
X186133Y151718D01*
X186045Y151816D01*
X185960Y151916D01*
X185952Y151922D01*
X185946Y151929D01*
X185880Y151969D01*
X185724Y152071D01*
X185701Y152078D01*
X185682Y152089D01*
X184823Y152445D01*
X184781Y152476D01*
X184721Y152499D01*
X184665Y152531D01*
X184590Y152549D01*
X184518Y152576D01*
X184453Y152581D01*
X184391Y152596D01*
X184313Y152592D01*
X184236Y152598D01*
X184173Y152585D01*
X184109Y152581D01*
X184036Y152556D01*
X183960Y152540D01*
X183903Y152510D01*
X183842Y152489D01*
X183790Y152450D01*
X182918Y152089D01*
X182909Y152084D01*
X182900Y152082D01*
X182788Y152012D01*
X182675Y151945D01*
X182668Y151939D01*
X182660Y151934D01*
X182572Y151836D01*
X182482Y151740D01*
X182478Y151731D01*
X182471Y151724D01*
X182414Y151606D01*
X182354Y151488D01*
X182352Y151479D01*
X182348Y151471D01*
X182336Y151395D01*
X182302Y151211D01*
X182304Y151187D01*
X182301Y151166D01*
X182301Y146069D01*
X174510Y146069D01*
X172733Y146351D01*
X171022Y146907D01*
X169419Y147724D01*
X167963Y148781D01*
X166691Y150053D01*
X165634Y151509D01*
X164817Y153112D01*
X164261Y154823D01*
X164153Y155501D01*
X169300Y155501D01*
X169364Y155510D01*
X169428Y155509D01*
X169503Y155530D01*
X169579Y155541D01*
X169638Y155567D01*
X169700Y155584D01*
X169766Y155625D01*
X169836Y155657D01*
X169885Y155699D01*
X169940Y155732D01*
X169992Y155790D01*
X170050Y155840D01*
X170086Y155894D01*
X170129Y155942D01*
X170162Y156011D01*
X170205Y156076D01*
X170224Y156138D01*
X170252Y156195D01*
X170263Y156265D01*
X170287Y156346D01*
X170288Y156431D01*
X170299Y156500D01*
X170299Y158500D01*
X170291Y158560D01*
X170291Y158592D01*
X170291Y158593D01*
X170291Y158628D01*
X170270Y158703D01*
X170259Y158779D01*
X170233Y158838D01*
X170216Y158900D01*
X170175Y158966D01*
X170143Y159036D01*
X170101Y159085D01*
X170068Y159140D01*
X170010Y159192D01*
X169960Y159250D01*
X169906Y159286D01*
X169858Y159329D01*
X169789Y159362D01*
X169724Y159405D01*
X169662Y159424D01*
X169605Y159452D01*
X169535Y159462D01*
X169454Y159487D01*
X169369Y159488D01*
X169300Y159499D01*
X164153Y159499D01*
X164154Y159502D01*
X164155Y159543D01*
X164163Y159582D01*
X164157Y159683D01*
X164158Y159784D01*
X164148Y159823D01*
X164145Y159863D01*
X164111Y159959D01*
X164084Y160056D01*
X164063Y160091D01*
X164049Y160128D01*
X163989Y160210D01*
X163936Y160297D01*
X163906Y160324D01*
X163883Y160356D01*
X163802Y160418D01*
X163727Y160486D01*
X163691Y160504D01*
X163659Y160528D01*
X163565Y160565D01*
X163474Y160610D01*
X163434Y160617D01*
X163397Y160631D01*
X163296Y160640D01*
X163196Y160658D01*
X163156Y160653D01*
X163116Y160657D01*
X163031Y160639D01*
X162916Y160626D01*
X162863Y160604D01*
X162814Y160594D01*
X158968Y159142D01*
X157794Y159179D01*
X157714Y159170D01*
X157634Y159171D01*
X157575Y159155D01*
X157513Y159148D01*
X157439Y159117D01*
X157362Y159096D01*
X157310Y159064D01*
X157253Y159040D01*
X157191Y158990D01*
X157122Y158948D01*
X157081Y158902D01*
X157033Y158864D01*
X156987Y158798D01*
X156933Y158739D01*
X156906Y158683D01*
X156871Y158633D01*
X156845Y158557D01*
X156810Y158485D01*
X156802Y158429D01*
X156780Y158366D01*
X156775Y158261D01*
X156763Y158180D01*
X156763Y39788D01*
X156774Y39709D01*
X156776Y39629D01*
X156794Y39570D01*
X156803Y39509D01*
X156836Y39436D01*
X156859Y39359D01*
X156893Y39308D01*
X156919Y39252D01*
X156971Y39191D01*
X157015Y39124D01*
X157062Y39084D01*
X157102Y39038D01*
X157169Y38994D01*
X157230Y38942D01*
X157286Y38917D01*
X157338Y38883D01*
X157415Y38860D01*
X157488Y38827D01*
X157544Y38820D01*
X157608Y38801D01*
X157712Y38799D01*
X157794Y38789D01*
X159968Y38858D01*
X162750Y37808D01*
X162790Y37799D01*
X162826Y37783D01*
X162927Y37769D01*
X163026Y37747D01*
X163066Y37749D01*
X163106Y37743D01*
X163206Y37758D01*
X163307Y37764D01*
X163345Y37778D01*
X163385Y37784D01*
X163477Y37826D01*
X163572Y37860D01*
X163605Y37884D01*
X163641Y37901D01*
X163718Y37967D01*
X163800Y38027D01*
X163825Y38058D01*
X163855Y38085D01*
X163911Y38170D01*
X163973Y38250D01*
X163987Y38287D01*
X164009Y38321D01*
X164039Y38418D01*
X164071Y38501D01*
X169300Y38501D01*
X169364Y38510D01*
X169428Y38509D01*
X169503Y38530D01*
X169579Y38541D01*
X169638Y38567D01*
X169700Y38584D01*
X169766Y38625D01*
X169836Y38657D01*
X169885Y38699D01*
X169940Y38732D01*
X169992Y38790D01*
X170050Y38840D01*
X170086Y38894D01*
X170129Y38942D01*
X170162Y39011D01*
X170205Y39076D01*
X170224Y39138D01*
X170252Y39195D01*
X170263Y39265D01*
X170287Y39346D01*
X170288Y39431D01*
X170299Y39500D01*
X170299Y41500D01*
X170290Y41564D01*
X170291Y41628D01*
X170270Y41703D01*
X170259Y41779D01*
X170233Y41838D01*
X170216Y41900D01*
X170175Y41966D01*
X170143Y42036D01*
X170101Y42085D01*
X170068Y42140D01*
X170010Y42192D01*
X169960Y42250D01*
X169906Y42286D01*
X169858Y42329D01*
X169789Y42362D01*
X169724Y42405D01*
X169662Y42424D01*
X169605Y42452D01*
X169535Y42462D01*
X169454Y42487D01*
X169369Y42488D01*
X169300Y42499D01*
X164153Y42499D01*
X164261Y43177D01*
X164817Y44888D01*
X165634Y46491D01*
X166691Y47947D01*
X167963Y49219D01*
X169419Y50276D01*
X171022Y51093D01*
X172733Y51649D01*
X174510Y51931D01*
X182301Y51931D01*
X182301Y46834D01*
X182302Y46825D01*
X182301Y46815D01*
X182322Y46685D01*
X182341Y46555D01*
X182344Y46546D01*
X182346Y46537D01*
X182403Y46417D01*
X182457Y46298D01*
X182463Y46291D01*
X182467Y46282D01*
X182555Y46183D01*
X182640Y46084D01*
X182648Y46078D01*
X182654Y46071D01*
X182720Y46031D01*
X182876Y45929D01*
X182899Y45922D01*
X182918Y45911D01*
X183778Y45555D01*
X183819Y45524D01*
X183879Y45501D01*
X183935Y45469D01*
X184011Y45451D01*
X184083Y45424D01*
X184147Y45419D01*
X184210Y45404D01*
X184287Y45408D01*
X184364Y45402D01*
X184427Y45415D01*
X184492Y45419D01*
X184565Y45444D01*
X184640Y45460D01*
X184697Y45490D01*
X184758Y45511D01*
X184811Y45550D01*
X185682Y45911D01*
X185690Y45916D01*
X185700Y45918D01*
X185812Y45988D01*
X185925Y46054D01*
X185932Y46061D01*
X185940Y46066D01*
X186028Y46164D01*
X186118Y46260D01*
X186122Y46269D01*
X186129Y46276D01*
X186186Y46394D01*
X186246Y46512D01*
X186248Y46521D01*
X186252Y46529D01*
X186263Y46605D01*
X186298Y46789D01*
X186296Y46813D01*
X186299Y46834D01*
X186299Y51931D01*
X194090Y51931D01*
X195867Y51649D01*
X197578Y51093D01*
X199181Y50276D01*
X200637Y49219D01*
X201909Y47947D01*
X202966Y46491D01*
X203783Y44888D01*
X204339Y43177D01*
X204447Y42499D01*
X199300Y42499D01*
X199236Y42490D01*
X199172Y42491D01*
X199097Y42470D01*
X199021Y42459D01*
X198962Y42433D01*
X198900Y42416D01*
X198834Y42375D01*
X198764Y42343D01*
X198715Y42301D01*
X198660Y42268D01*
X198608Y42210D01*
X198550Y42160D01*
X198514Y42106D01*
X198471Y42058D01*
X198438Y41989D01*
X198395Y41924D01*
X198376Y41862D01*
X198348Y41805D01*
X198337Y41735D01*
X198313Y41654D01*
X198312Y41569D01*
X198301Y41500D01*
X198301Y39500D01*
X198309Y39441D01*
X198309Y39425D01*
X198310Y39423D01*
X198309Y39372D01*
X198330Y39297D01*
X198341Y39221D01*
X198367Y39162D01*
X198384Y39100D01*
X198425Y39034D01*
X198457Y38964D01*
X198499Y38915D01*
X198532Y38860D01*
X198590Y38808D01*
X198640Y38750D01*
X198694Y38714D01*
X198742Y38671D01*
X198811Y38638D01*
X198876Y38595D01*
X198938Y38576D01*
X198995Y38548D01*
X199065Y38537D01*
X199146Y38513D01*
X199231Y38512D01*
X199300Y38501D01*
X204447Y38501D01*
X204339Y37823D01*
X203783Y36112D01*
X202966Y34509D01*
X201909Y33053D01*
X200637Y31781D01*
X199181Y30724D01*
X197578Y29907D01*
X195867Y29351D01*
X194090Y29069D01*
X186299Y29069D01*
X186299Y34166D01*
X186298Y34175D01*
X186299Y34185D01*
X186278Y34315D01*
X186259Y34445D01*
X186256Y34454D01*
X186254Y34463D01*
X186197Y34582D01*
X186143Y34702D01*
X186137Y34709D01*
X186133Y34718D01*
X186046Y34816D01*
X185960Y34916D01*
X185952Y34922D01*
X185946Y34929D01*
X185880Y34969D01*
X185724Y35071D01*
X185701Y35078D01*
X185682Y35089D01*
X184823Y35445D01*
X184781Y35476D01*
X184721Y35499D01*
X184665Y35531D01*
X184590Y35549D01*
X184518Y35576D01*
X184453Y35581D01*
X184391Y35596D01*
X184313Y35592D01*
X184236Y35598D01*
X184173Y35585D01*
X184109Y35581D01*
X184036Y35556D01*
X183960Y35540D01*
X183903Y35510D01*
X183842Y35489D01*
X183790Y35450D01*
X182918Y35089D01*
X182909Y35084D01*
X182900Y35082D01*
X182788Y35012D01*
X182675Y34945D01*
X182668Y34939D01*
X182660Y34934D01*
X182572Y34836D01*
X182482Y34740D01*
X182478Y34731D01*
X182471Y34724D01*
X182414Y34606D01*
X182354Y34488D01*
X182352Y34479D01*
X182348Y34471D01*
X182336Y34395D01*
X182302Y34211D01*
X182304Y34187D01*
X182301Y34166D01*
X182301Y29069D01*
X174510Y29069D01*
X173317Y29258D01*
X173245Y29259D01*
X173174Y29270D01*
X173105Y29262D01*
X173035Y29263D01*
X172966Y29244D01*
X172895Y29234D01*
X172831Y29207D01*
X172763Y29188D01*
X172702Y29150D01*
X172636Y29122D01*
X172582Y29077D01*
X172523Y29040D01*
X172475Y28987D01*
X172419Y28941D01*
X172380Y28883D01*
X172333Y28832D01*
X172302Y28767D01*
X172262Y28707D01*
X172240Y28641D01*
X172210Y28578D01*
X172197Y28507D01*
X172176Y28439D01*
X172174Y28369D01*
X172162Y28300D01*
X172170Y28229D01*
X172168Y28157D01*
X172185Y28095D01*
X172194Y28020D01*
X172230Y27933D01*
X172250Y27860D01*
X172571Y27150D01*
X172643Y27037D01*
X172714Y26922D01*
X172718Y26918D01*
X172722Y26912D01*
X172823Y26823D01*
X172923Y26733D01*
X172929Y26730D01*
X172934Y26726D01*
X173056Y26669D01*
X173177Y26610D01*
X173183Y26609D01*
X173189Y26606D01*
X173468Y26563D01*
X173475Y26564D01*
X173481Y26563D01*
X248280Y26563D01*
X248344Y26572D01*
G37*
%LPC*%
G36*
X211019Y75701D02*
X211019Y75701D01*
X208501Y78219D01*
X208501Y81781D01*
X210491Y83770D01*
X210548Y83847D01*
X210613Y83918D01*
X210633Y83959D01*
X210660Y83995D01*
X210694Y84085D01*
X210736Y84172D01*
X210742Y84214D01*
X210759Y84259D01*
X210766Y84349D01*
X210771Y84365D01*
X210772Y84403D01*
X210783Y84476D01*
X210783Y88835D01*
X213565Y91617D01*
X219184Y91617D01*
X219248Y91626D01*
X219312Y91625D01*
X219387Y91646D01*
X219463Y91657D01*
X219522Y91683D01*
X219584Y91700D01*
X219650Y91741D01*
X219720Y91773D01*
X219769Y91815D01*
X219824Y91848D01*
X219876Y91906D01*
X219934Y91956D01*
X219970Y92010D01*
X220013Y92058D01*
X220046Y92127D01*
X220089Y92192D01*
X220108Y92254D01*
X220136Y92311D01*
X220147Y92381D01*
X220171Y92462D01*
X220172Y92547D01*
X220183Y92616D01*
X220183Y95789D01*
X221211Y96817D01*
X227089Y96817D01*
X228117Y95789D01*
X228117Y83411D01*
X227089Y82383D01*
X221211Y82383D01*
X220183Y83411D01*
X220183Y86584D01*
X220175Y86642D01*
X220175Y86646D01*
X220174Y86649D01*
X220175Y86712D01*
X220154Y86787D01*
X220143Y86863D01*
X220117Y86922D01*
X220100Y86984D01*
X220059Y87050D01*
X220027Y87120D01*
X219985Y87169D01*
X219952Y87224D01*
X219894Y87276D01*
X219844Y87334D01*
X219790Y87370D01*
X219742Y87413D01*
X219673Y87446D01*
X219608Y87489D01*
X219546Y87508D01*
X219489Y87536D01*
X219419Y87547D01*
X219338Y87571D01*
X219253Y87572D01*
X219184Y87583D01*
X215816Y87583D01*
X215752Y87574D01*
X215688Y87575D01*
X215613Y87554D01*
X215537Y87543D01*
X215478Y87517D01*
X215416Y87500D01*
X215350Y87459D01*
X215280Y87427D01*
X215231Y87385D01*
X215176Y87352D01*
X215124Y87294D01*
X215066Y87244D01*
X215030Y87190D01*
X214987Y87142D01*
X214954Y87073D01*
X214911Y87008D01*
X214892Y86946D01*
X214864Y86889D01*
X214853Y86819D01*
X214829Y86738D01*
X214828Y86653D01*
X214817Y86584D01*
X214817Y84476D01*
X214825Y84416D01*
X214825Y84391D01*
X214831Y84370D01*
X214835Y84285D01*
X214850Y84242D01*
X214857Y84197D01*
X214896Y84110D01*
X214928Y84019D01*
X214953Y83984D01*
X214973Y83940D01*
X215056Y83843D01*
X215109Y83770D01*
X217099Y81781D01*
X217099Y78219D01*
X214581Y75701D01*
X211019Y75701D01*
G37*
%LPD*%
%LPC*%
G36*
X221211Y103483D02*
X221211Y103483D01*
X220183Y104511D01*
X220183Y107384D01*
X220174Y107448D01*
X220175Y107512D01*
X220154Y107587D01*
X220143Y107663D01*
X220117Y107722D01*
X220100Y107784D01*
X220059Y107850D01*
X220027Y107920D01*
X219985Y107969D01*
X219952Y108024D01*
X219894Y108076D01*
X219844Y108134D01*
X219790Y108170D01*
X219742Y108213D01*
X219673Y108246D01*
X219608Y108289D01*
X219546Y108308D01*
X219489Y108336D01*
X219419Y108347D01*
X219338Y108371D01*
X219253Y108372D01*
X219184Y108383D01*
X215165Y108383D01*
X210783Y112765D01*
X210783Y113123D01*
X210770Y113218D01*
X210765Y113315D01*
X210750Y113358D01*
X210743Y113403D01*
X210704Y113490D01*
X210672Y113581D01*
X210647Y113615D01*
X210627Y113660D01*
X210544Y113757D01*
X210491Y113830D01*
X208501Y115819D01*
X208501Y119381D01*
X211019Y121899D01*
X214581Y121899D01*
X217099Y119381D01*
X217099Y115819D01*
X215972Y114693D01*
X215934Y114642D01*
X215888Y114597D01*
X215849Y114529D01*
X215803Y114467D01*
X215780Y114407D01*
X215749Y114351D01*
X215731Y114276D01*
X215703Y114204D01*
X215699Y114140D01*
X215684Y114077D01*
X215688Y113999D01*
X215682Y113922D01*
X215695Y113860D01*
X215698Y113795D01*
X215723Y113722D01*
X215739Y113646D01*
X215769Y113589D01*
X215791Y113529D01*
X215832Y113472D01*
X215872Y113397D01*
X215931Y113336D01*
X215972Y113280D01*
X216543Y112709D01*
X216619Y112652D01*
X216691Y112587D01*
X216732Y112567D01*
X216768Y112540D01*
X216858Y112506D01*
X216945Y112464D01*
X216987Y112458D01*
X217032Y112441D01*
X217160Y112431D01*
X217249Y112417D01*
X219184Y112417D01*
X219248Y112426D01*
X219312Y112425D01*
X219387Y112446D01*
X219463Y112457D01*
X219522Y112483D01*
X219584Y112500D01*
X219650Y112541D01*
X219720Y112573D01*
X219769Y112615D01*
X219824Y112648D01*
X219876Y112706D01*
X219934Y112756D01*
X219970Y112810D01*
X220013Y112858D01*
X220046Y112927D01*
X220089Y112992D01*
X220108Y113054D01*
X220136Y113111D01*
X220147Y113181D01*
X220171Y113262D01*
X220172Y113347D01*
X220183Y113416D01*
X220183Y116889D01*
X221211Y117917D01*
X227089Y117917D01*
X228117Y116889D01*
X228117Y104511D01*
X227089Y103483D01*
X221211Y103483D01*
G37*
%LPD*%
%LPC*%
G36*
X183508Y113999D02*
X183508Y113999D01*
X180751Y115141D01*
X178641Y117251D01*
X177499Y120008D01*
X177499Y122992D01*
X178641Y125749D01*
X180751Y127859D01*
X183508Y129001D01*
X186492Y129001D01*
X189249Y127859D01*
X191359Y125749D01*
X192501Y122992D01*
X192501Y120008D01*
X191359Y117251D01*
X189249Y115141D01*
X186492Y113999D01*
X183508Y113999D01*
G37*
%LPD*%
%LPC*%
G36*
X183508Y68999D02*
X183508Y68999D01*
X180751Y70141D01*
X178641Y72251D01*
X177499Y75008D01*
X177499Y77992D01*
X178641Y80749D01*
X180751Y82859D01*
X183508Y84001D01*
X186492Y84001D01*
X189249Y82859D01*
X191359Y80749D01*
X192501Y77992D01*
X192501Y75008D01*
X191359Y72251D01*
X189249Y70141D01*
X186492Y68999D01*
X183508Y68999D01*
G37*
%LPD*%
%LPC*%
G36*
X274049Y128740D02*
X274049Y128740D01*
X273453Y129335D01*
X273453Y135677D01*
X274049Y136273D01*
X286891Y136273D01*
X287486Y135677D01*
X287486Y129335D01*
X286891Y128740D01*
X274049Y128740D01*
G37*
%LPD*%
%LPC*%
G36*
X376999Y72799D02*
X376999Y72799D01*
X376999Y77591D01*
X379835Y77591D01*
X380481Y77418D01*
X381060Y77083D01*
X381293Y76850D01*
X381345Y76811D01*
X381390Y76765D01*
X381457Y76727D01*
X381519Y76680D01*
X381579Y76658D01*
X381635Y76626D01*
X381710Y76608D01*
X381783Y76581D01*
X381847Y76576D01*
X381909Y76561D01*
X381987Y76565D01*
X382064Y76559D01*
X382127Y76572D01*
X382191Y76575D01*
X382264Y76601D01*
X382340Y76617D01*
X382397Y76647D01*
X382458Y76668D01*
X382514Y76709D01*
X382589Y76749D01*
X382650Y76808D01*
X382707Y76850D01*
X382940Y77083D01*
X383519Y77418D01*
X384165Y77591D01*
X387001Y77591D01*
X387001Y72799D01*
X376999Y72799D01*
G37*
%LPD*%
%LPC*%
G36*
X233859Y112699D02*
X233859Y112699D01*
X233859Y116160D01*
X234117Y117121D01*
X234614Y117982D01*
X235318Y118686D01*
X236179Y119183D01*
X237140Y119441D01*
X239351Y119441D01*
X239351Y112699D01*
X233859Y112699D01*
G37*
%LPD*%
%LPC*%
G36*
X237140Y101959D02*
X237140Y101959D01*
X236179Y102217D01*
X235318Y102714D01*
X234614Y103418D01*
X234117Y104279D01*
X233859Y105240D01*
X233859Y108701D01*
X239351Y108701D01*
X239351Y101959D01*
X237140Y101959D01*
G37*
%LPD*%
%LPC*%
G36*
X299805Y136443D02*
X299805Y136443D01*
X299805Y142484D01*
X303141Y142484D01*
X303787Y142311D01*
X304366Y141977D01*
X304839Y141504D01*
X305174Y140924D01*
X305347Y140278D01*
X305347Y136443D01*
X299805Y136443D01*
G37*
%LPD*%
%LPC*%
G36*
X299805Y126403D02*
X299805Y126403D01*
X299805Y132445D01*
X305347Y132445D01*
X305347Y128609D01*
X305174Y127963D01*
X304839Y127384D01*
X304366Y126911D01*
X303787Y126576D01*
X303141Y126403D01*
X299805Y126403D01*
G37*
%LPD*%
%LPC*%
G36*
X239287Y126147D02*
X239287Y126147D01*
X239287Y132188D01*
X244828Y132188D01*
X244828Y128353D01*
X244655Y127707D01*
X244321Y127127D01*
X243848Y126654D01*
X243268Y126320D01*
X242622Y126147D01*
X239287Y126147D01*
G37*
%LPD*%
%LPC*%
G36*
X290266Y136443D02*
X290266Y136443D01*
X290266Y140278D01*
X290439Y140924D01*
X290773Y141504D01*
X291246Y141977D01*
X291826Y142311D01*
X292472Y142484D01*
X295807Y142484D01*
X295807Y136443D01*
X290266Y136443D01*
G37*
%LPD*%
%LPC*%
G36*
X229747Y136187D02*
X229747Y136187D01*
X229747Y140022D01*
X229920Y140668D01*
X230254Y141248D01*
X230727Y141721D01*
X231307Y142055D01*
X231953Y142228D01*
X235288Y142228D01*
X235288Y136187D01*
X229747Y136187D01*
G37*
%LPD*%
%LPC*%
G36*
X292472Y126403D02*
X292472Y126403D01*
X291826Y126576D01*
X291246Y126911D01*
X290773Y127384D01*
X290439Y127963D01*
X290266Y128609D01*
X290266Y132445D01*
X295807Y132445D01*
X295807Y126403D01*
X292472Y126403D01*
G37*
%LPD*%
%LPC*%
G36*
X231953Y126147D02*
X231953Y126147D01*
X231307Y126320D01*
X230727Y126654D01*
X230254Y127127D01*
X229920Y127707D01*
X229747Y128353D01*
X229747Y132188D01*
X235288Y132188D01*
X235288Y126147D01*
X231953Y126147D01*
G37*
%LPD*%
%LPC*%
G36*
X390999Y72799D02*
X390999Y72799D01*
X390999Y77591D01*
X393835Y77591D01*
X394481Y77418D01*
X395060Y77083D01*
X395533Y76610D01*
X395868Y76031D01*
X396041Y75385D01*
X396041Y72799D01*
X390999Y72799D01*
G37*
%LPD*%
%LPC*%
G36*
X367959Y72799D02*
X367959Y72799D01*
X367959Y75385D01*
X368132Y76031D01*
X368467Y76610D01*
X368940Y77083D01*
X369519Y77418D01*
X370165Y77591D01*
X373001Y77591D01*
X373001Y72799D01*
X367959Y72799D01*
G37*
%LPD*%
%LPC*%
G36*
X258239Y165149D02*
X258239Y165149D01*
X258239Y165962D01*
X258504Y166952D01*
X259017Y167839D01*
X259741Y168563D01*
X260628Y169076D01*
X261618Y169341D01*
X262131Y169341D01*
X262131Y165149D01*
X258239Y165149D01*
G37*
%LPD*%
%LPC*%
G36*
X261618Y158259D02*
X261618Y158259D01*
X260628Y158524D01*
X259741Y159037D01*
X259017Y159761D01*
X258504Y160648D01*
X258239Y161638D01*
X258239Y162451D01*
X262131Y162451D01*
X262131Y158259D01*
X261618Y158259D01*
G37*
%LPD*%
%LPC*%
G36*
X288908Y75316D02*
X288908Y75316D01*
X288908Y78945D01*
X290330Y78945D01*
X290977Y78772D01*
X291556Y78437D01*
X292029Y77964D01*
X292364Y77385D01*
X292537Y76739D01*
X292537Y75316D01*
X288908Y75316D01*
G37*
%LPD*%
%LPC*%
G36*
X297805Y134443D02*
X297805Y134443D01*
X297805Y134445D01*
X297807Y134445D01*
X297807Y134443D01*
X297805Y134443D01*
G37*
%LPD*%
%LPC*%
G36*
X237287Y134187D02*
X237287Y134187D01*
X237287Y134188D01*
X237288Y134188D01*
X237288Y134187D01*
X237287Y134187D01*
G37*
%LPD*%
D10*
X154000Y39000D02*
X154000Y-29500D01*
X411000Y-29500D02*
X411000Y39000D01*
X410350Y-10000D02*
X154650Y-10000D01*
X180000Y-6808D01*
X180000Y-13192D01*
X154650Y-10000D01*
X180000Y-8700D01*
X180000Y-11300D02*
X154650Y-10000D01*
X180000Y-7400D01*
X180000Y-12600D02*
X154650Y-10000D01*
X385000Y-6808D02*
X410350Y-10000D01*
X385000Y-6808D02*
X385000Y-13192D01*
X410350Y-10000D01*
X385000Y-8700D01*
X385000Y-11300D02*
X410350Y-10000D01*
X385000Y-7400D01*
X385000Y-12600D02*
X410350Y-10000D01*
D11*
X260383Y8699D02*
X260381Y8824D01*
X260375Y8949D01*
X260366Y9074D01*
X260352Y9198D01*
X260335Y9322D01*
X260314Y9446D01*
X260289Y9568D01*
X260260Y9690D01*
X260228Y9811D01*
X260192Y9931D01*
X260152Y10050D01*
X260109Y10167D01*
X260062Y10283D01*
X260011Y10398D01*
X259957Y10510D01*
X259899Y10622D01*
X259839Y10731D01*
X259774Y10838D01*
X259707Y10944D01*
X259636Y11047D01*
X259562Y11148D01*
X259485Y11247D01*
X259405Y11343D01*
X259322Y11437D01*
X259237Y11528D01*
X259148Y11617D01*
X259057Y11702D01*
X258963Y11785D01*
X258867Y11865D01*
X258768Y11942D01*
X258667Y12016D01*
X258564Y12087D01*
X258458Y12154D01*
X258351Y12219D01*
X258242Y12279D01*
X258130Y12337D01*
X258018Y12391D01*
X257903Y12442D01*
X257787Y12489D01*
X257670Y12532D01*
X257551Y12572D01*
X257431Y12608D01*
X257310Y12640D01*
X257188Y12669D01*
X257066Y12694D01*
X256942Y12715D01*
X256818Y12732D01*
X256694Y12746D01*
X256569Y12755D01*
X256444Y12761D01*
X256319Y12763D01*
X256176Y12761D01*
X256034Y12755D01*
X255891Y12745D01*
X255749Y12732D01*
X255608Y12714D01*
X255466Y12693D01*
X255326Y12668D01*
X255186Y12639D01*
X255047Y12606D01*
X254909Y12569D01*
X254772Y12529D01*
X254637Y12485D01*
X254502Y12437D01*
X254369Y12385D01*
X254237Y12330D01*
X254107Y12271D01*
X253979Y12209D01*
X253852Y12143D01*
X253727Y12074D01*
X253604Y12002D01*
X253484Y11926D01*
X253365Y11847D01*
X253248Y11764D01*
X253134Y11679D01*
X253022Y11590D01*
X252913Y11499D01*
X252806Y11404D01*
X252701Y11307D01*
X252600Y11206D01*
X252501Y11103D01*
X252405Y10998D01*
X252312Y10889D01*
X252222Y10778D01*
X252135Y10665D01*
X252051Y10550D01*
X251971Y10432D01*
X251893Y10312D01*
X251819Y10190D01*
X251749Y10066D01*
X251681Y9940D01*
X251618Y9812D01*
X251557Y9683D01*
X251500Y9552D01*
X251447Y9420D01*
X251398Y9286D01*
X251352Y9151D01*
X259028Y5538D02*
X259122Y5630D01*
X259212Y5724D01*
X259300Y5821D01*
X259385Y5921D01*
X259467Y6023D01*
X259546Y6128D01*
X259621Y6235D01*
X259693Y6344D01*
X259762Y6455D01*
X259828Y6569D01*
X259890Y6684D01*
X259949Y6801D01*
X260004Y6920D01*
X260055Y7040D01*
X260103Y7162D01*
X260148Y7285D01*
X260188Y7409D01*
X260225Y7535D01*
X260258Y7662D01*
X260287Y7789D01*
X260313Y7918D01*
X260334Y8047D01*
X260352Y8177D01*
X260365Y8307D01*
X260375Y8437D01*
X260381Y8568D01*
X260383Y8699D01*
X259028Y5538D02*
X251352Y-3493D01*
X260383Y-3493D01*
X266983Y-3493D02*
X272402Y-3493D01*
X272520Y-3491D01*
X272638Y-3485D01*
X272756Y-3476D01*
X272873Y-3462D01*
X272990Y-3445D01*
X273107Y-3424D01*
X273222Y-3399D01*
X273337Y-3370D01*
X273451Y-3337D01*
X273563Y-3301D01*
X273674Y-3261D01*
X273784Y-3218D01*
X273893Y-3171D01*
X274000Y-3121D01*
X274105Y-3066D01*
X274208Y-3009D01*
X274309Y-2948D01*
X274409Y-2884D01*
X274506Y-2817D01*
X274601Y-2747D01*
X274693Y-2673D01*
X274784Y-2597D01*
X274871Y-2517D01*
X274956Y-2435D01*
X275038Y-2350D01*
X275118Y-2263D01*
X275194Y-2172D01*
X275268Y-2080D01*
X275338Y-1985D01*
X275405Y-1888D01*
X275469Y-1788D01*
X275530Y-1687D01*
X275587Y-1584D01*
X275642Y-1479D01*
X275692Y-1372D01*
X275739Y-1263D01*
X275782Y-1153D01*
X275822Y-1042D01*
X275858Y-930D01*
X275891Y-816D01*
X275920Y-701D01*
X275945Y-586D01*
X275966Y-469D01*
X275983Y-352D01*
X275997Y-235D01*
X276006Y-117D01*
X276012Y1D01*
X276014Y119D01*
X276014Y1926D01*
X276012Y2044D01*
X276006Y2162D01*
X275997Y2280D01*
X275983Y2397D01*
X275966Y2514D01*
X275945Y2631D01*
X275920Y2746D01*
X275891Y2861D01*
X275858Y2975D01*
X275822Y3087D01*
X275782Y3198D01*
X275739Y3308D01*
X275692Y3417D01*
X275642Y3524D01*
X275587Y3629D01*
X275530Y3732D01*
X275469Y3833D01*
X275405Y3933D01*
X275338Y4030D01*
X275268Y4125D01*
X275194Y4217D01*
X275118Y4308D01*
X275038Y4395D01*
X274956Y4480D01*
X274871Y4562D01*
X274784Y4642D01*
X274693Y4718D01*
X274601Y4792D01*
X274506Y4862D01*
X274409Y4929D01*
X274309Y4993D01*
X274208Y5054D01*
X274105Y5111D01*
X274000Y5166D01*
X273893Y5216D01*
X273784Y5263D01*
X273674Y5306D01*
X273563Y5346D01*
X273451Y5382D01*
X273337Y5415D01*
X273222Y5444D01*
X273107Y5469D01*
X272990Y5490D01*
X272873Y5507D01*
X272756Y5521D01*
X272638Y5530D01*
X272520Y5536D01*
X272402Y5538D01*
X266983Y5538D01*
X266983Y12763D01*
X276014Y12763D01*
X281989Y-2590D02*
X281989Y-3493D01*
X281989Y-2590D02*
X282892Y-2590D01*
X282892Y-3493D01*
X281989Y-3493D01*
X288867Y10957D02*
X288867Y12763D01*
X297898Y12763D01*
X293382Y-3493D01*
X304498Y4635D02*
X304502Y4955D01*
X304513Y5274D01*
X304532Y5594D01*
X304559Y5912D01*
X304593Y6230D01*
X304635Y6547D01*
X304685Y6863D01*
X304742Y7178D01*
X304806Y7491D01*
X304878Y7803D01*
X304957Y8113D01*
X305044Y8420D01*
X305138Y8726D01*
X305239Y9029D01*
X305348Y9330D01*
X305463Y9628D01*
X305586Y9924D01*
X305716Y10216D01*
X305853Y10505D01*
X305853Y10506D02*
X305892Y10614D01*
X305935Y10721D01*
X305981Y10826D01*
X306032Y10930D01*
X306085Y11032D01*
X306142Y11132D01*
X306203Y11230D01*
X306267Y11325D01*
X306334Y11419D01*
X306405Y11510D01*
X306478Y11599D01*
X306555Y11685D01*
X306634Y11768D01*
X306716Y11849D01*
X306801Y11927D01*
X306889Y12001D01*
X306979Y12073D01*
X307071Y12141D01*
X307166Y12207D01*
X307263Y12269D01*
X307362Y12327D01*
X307464Y12383D01*
X307566Y12434D01*
X307671Y12482D01*
X307777Y12527D01*
X307885Y12568D01*
X307994Y12605D01*
X308104Y12638D01*
X308216Y12667D01*
X308328Y12693D01*
X308441Y12715D01*
X308555Y12732D01*
X308669Y12746D01*
X308784Y12756D01*
X308899Y12762D01*
X309014Y12764D01*
X309014Y12763D02*
X309129Y12761D01*
X309244Y12755D01*
X309359Y12745D01*
X309473Y12731D01*
X309587Y12714D01*
X309700Y12692D01*
X309812Y12666D01*
X309924Y12637D01*
X310034Y12604D01*
X310143Y12567D01*
X310251Y12526D01*
X310357Y12481D01*
X310462Y12433D01*
X310564Y12382D01*
X310665Y12326D01*
X310765Y12268D01*
X310862Y12206D01*
X310956Y12141D01*
X311049Y12072D01*
X311139Y12000D01*
X311227Y11926D01*
X311312Y11848D01*
X311394Y11767D01*
X311473Y11684D01*
X311550Y11598D01*
X311623Y11509D01*
X311694Y11418D01*
X311761Y11324D01*
X311825Y11229D01*
X311886Y11131D01*
X311943Y11031D01*
X311996Y10929D01*
X312047Y10825D01*
X312093Y10720D01*
X312136Y10613D01*
X312175Y10505D01*
X312174Y10505D02*
X312311Y10216D01*
X312441Y9924D01*
X312564Y9628D01*
X312679Y9330D01*
X312788Y9029D01*
X312889Y8726D01*
X312983Y8420D01*
X313070Y8113D01*
X313149Y7803D01*
X313221Y7491D01*
X313285Y7178D01*
X313342Y6863D01*
X313392Y6547D01*
X313434Y6230D01*
X313468Y5912D01*
X313495Y5594D01*
X313514Y5274D01*
X313525Y4955D01*
X313529Y4635D01*
X304498Y4635D02*
X304502Y4315D01*
X304513Y3996D01*
X304532Y3676D01*
X304559Y3358D01*
X304593Y3040D01*
X304635Y2723D01*
X304685Y2407D01*
X304742Y2092D01*
X304806Y1779D01*
X304878Y1467D01*
X304957Y1157D01*
X305044Y850D01*
X305138Y544D01*
X305239Y241D01*
X305348Y-60D01*
X305463Y-358D01*
X305586Y-654D01*
X305716Y-946D01*
X305853Y-1235D01*
X305853Y-1236D02*
X305892Y-1344D01*
X305935Y-1451D01*
X305981Y-1556D01*
X306032Y-1660D01*
X306085Y-1762D01*
X306142Y-1862D01*
X306203Y-1960D01*
X306267Y-2055D01*
X306334Y-2149D01*
X306405Y-2240D01*
X306478Y-2329D01*
X306555Y-2415D01*
X306634Y-2498D01*
X306716Y-2579D01*
X306801Y-2657D01*
X306889Y-2731D01*
X306979Y-2803D01*
X307072Y-2872D01*
X307166Y-2937D01*
X307263Y-2999D01*
X307363Y-3057D01*
X307464Y-3113D01*
X307566Y-3164D01*
X307671Y-3212D01*
X307777Y-3257D01*
X307885Y-3298D01*
X307994Y-3335D01*
X308104Y-3368D01*
X308216Y-3397D01*
X308328Y-3423D01*
X308441Y-3445D01*
X308555Y-3462D01*
X308669Y-3476D01*
X308784Y-3486D01*
X308899Y-3492D01*
X309014Y-3494D01*
X312174Y-1235D02*
X312311Y-946D01*
X312441Y-654D01*
X312564Y-358D01*
X312679Y-60D01*
X312788Y241D01*
X312889Y544D01*
X312983Y850D01*
X313070Y1157D01*
X313149Y1467D01*
X313221Y1779D01*
X313285Y2092D01*
X313342Y2407D01*
X313392Y2723D01*
X313434Y3040D01*
X313468Y3358D01*
X313495Y3676D01*
X313514Y3996D01*
X313525Y4315D01*
X313529Y4635D01*
X312175Y-1235D02*
X312136Y-1343D01*
X312093Y-1450D01*
X312047Y-1555D01*
X311996Y-1659D01*
X311943Y-1761D01*
X311886Y-1861D01*
X311825Y-1959D01*
X311761Y-2054D01*
X311694Y-2148D01*
X311623Y-2239D01*
X311550Y-2328D01*
X311473Y-2414D01*
X311394Y-2497D01*
X311312Y-2578D01*
X311227Y-2656D01*
X311139Y-2730D01*
X311049Y-2802D01*
X310956Y-2871D01*
X310862Y-2936D01*
X310765Y-2998D01*
X310665Y-3056D01*
X310564Y-3112D01*
X310461Y-3163D01*
X310357Y-3211D01*
X310251Y-3256D01*
X310143Y-3297D01*
X310034Y-3334D01*
X309924Y-3367D01*
X309812Y-3396D01*
X309700Y-3422D01*
X309587Y-3444D01*
X309473Y-3461D01*
X309359Y-3475D01*
X309244Y-3485D01*
X309129Y-3491D01*
X309014Y-3493D01*
X305401Y119D02*
X312626Y9151D01*
D10*
X471000Y165000D02*
X471000Y218500D01*
X154000Y218500D02*
X154000Y193000D01*
X154650Y199000D02*
X470350Y199000D01*
X445000Y202192D01*
X445000Y195808D01*
X470350Y199000D01*
X445000Y200300D01*
X445000Y197700D02*
X470350Y199000D01*
X445000Y201600D01*
X445000Y196400D02*
X470350Y199000D01*
X180000Y202192D02*
X154650Y199000D01*
X180000Y202192D02*
X180000Y195808D01*
X154650Y199000D01*
X180000Y200300D01*
X180000Y197700D02*
X154650Y199000D01*
X180000Y201600D01*
X180000Y196400D02*
X154650Y199000D01*
D12*
X268128Y207666D02*
X274619Y207666D01*
X274778Y207668D01*
X274937Y207674D01*
X275097Y207684D01*
X275255Y207697D01*
X275414Y207715D01*
X275571Y207736D01*
X275729Y207762D01*
X275885Y207791D01*
X276041Y207824D01*
X276196Y207861D01*
X276350Y207901D01*
X276503Y207946D01*
X276655Y207994D01*
X276806Y208045D01*
X276955Y208101D01*
X277103Y208160D01*
X277249Y208223D01*
X277394Y208289D01*
X277537Y208359D01*
X277679Y208432D01*
X277818Y208509D01*
X277956Y208589D01*
X278092Y208673D01*
X278225Y208760D01*
X278357Y208850D01*
X278486Y208943D01*
X278612Y209040D01*
X278737Y209139D01*
X278859Y209242D01*
X278978Y209347D01*
X279095Y209456D01*
X279209Y209567D01*
X279320Y209681D01*
X279429Y209798D01*
X279534Y209917D01*
X279637Y210039D01*
X279736Y210164D01*
X279833Y210290D01*
X279926Y210419D01*
X280016Y210551D01*
X280103Y210684D01*
X280187Y210820D01*
X280267Y210958D01*
X280344Y211097D01*
X280417Y211239D01*
X280487Y211382D01*
X280553Y211527D01*
X280616Y211673D01*
X280675Y211821D01*
X280731Y211970D01*
X280782Y212121D01*
X280830Y212273D01*
X280875Y212426D01*
X280915Y212580D01*
X280952Y212735D01*
X280985Y212891D01*
X281014Y213047D01*
X281040Y213205D01*
X281061Y213362D01*
X281079Y213521D01*
X281092Y213679D01*
X281102Y213839D01*
X281108Y213998D01*
X281110Y214157D01*
X281108Y214316D01*
X281102Y214475D01*
X281092Y214635D01*
X281079Y214793D01*
X281061Y214952D01*
X281040Y215109D01*
X281014Y215267D01*
X280985Y215423D01*
X280952Y215579D01*
X280915Y215734D01*
X280875Y215888D01*
X280830Y216041D01*
X280782Y216193D01*
X280731Y216344D01*
X280675Y216493D01*
X280616Y216641D01*
X280553Y216787D01*
X280487Y216932D01*
X280417Y217075D01*
X280344Y217217D01*
X280267Y217356D01*
X280187Y217494D01*
X280103Y217630D01*
X280016Y217763D01*
X279926Y217895D01*
X279833Y218024D01*
X279736Y218150D01*
X279637Y218275D01*
X279534Y218397D01*
X279429Y218516D01*
X279320Y218633D01*
X279209Y218747D01*
X279095Y218858D01*
X278978Y218967D01*
X278859Y219072D01*
X278737Y219175D01*
X278612Y219274D01*
X278486Y219371D01*
X278357Y219464D01*
X278225Y219554D01*
X278092Y219641D01*
X277956Y219725D01*
X277818Y219805D01*
X277679Y219882D01*
X277537Y219955D01*
X277394Y220025D01*
X277249Y220091D01*
X277103Y220154D01*
X276955Y220213D01*
X276806Y220269D01*
X276655Y220320D01*
X276503Y220368D01*
X276350Y220413D01*
X276196Y220453D01*
X276041Y220490D01*
X275885Y220523D01*
X275729Y220552D01*
X275571Y220578D01*
X275414Y220599D01*
X275255Y220617D01*
X275097Y220630D01*
X274937Y220640D01*
X274778Y220646D01*
X274619Y220648D01*
X275917Y231034D02*
X268128Y231034D01*
X275917Y231034D02*
X276060Y231032D01*
X276203Y231026D01*
X276346Y231016D01*
X276488Y231002D01*
X276630Y230985D01*
X276772Y230963D01*
X276913Y230938D01*
X277053Y230908D01*
X277192Y230875D01*
X277330Y230838D01*
X277467Y230797D01*
X277603Y230753D01*
X277738Y230704D01*
X277871Y230652D01*
X278003Y230597D01*
X278133Y230537D01*
X278262Y230474D01*
X278389Y230408D01*
X278514Y230338D01*
X278636Y230265D01*
X278757Y230188D01*
X278876Y230108D01*
X278992Y230025D01*
X279107Y229939D01*
X279218Y229850D01*
X279328Y229757D01*
X279434Y229662D01*
X279538Y229563D01*
X279639Y229462D01*
X279738Y229358D01*
X279833Y229252D01*
X279926Y229142D01*
X280015Y229031D01*
X280101Y228916D01*
X280184Y228800D01*
X280264Y228681D01*
X280341Y228560D01*
X280414Y228437D01*
X280484Y228313D01*
X280550Y228186D01*
X280613Y228057D01*
X280673Y227927D01*
X280728Y227795D01*
X280780Y227662D01*
X280829Y227527D01*
X280873Y227391D01*
X280914Y227254D01*
X280951Y227116D01*
X280984Y226977D01*
X281014Y226837D01*
X281039Y226696D01*
X281061Y226554D01*
X281078Y226412D01*
X281092Y226270D01*
X281102Y226127D01*
X281108Y225984D01*
X281110Y225841D01*
X281108Y225698D01*
X281102Y225555D01*
X281092Y225412D01*
X281078Y225270D01*
X281061Y225128D01*
X281039Y224986D01*
X281014Y224845D01*
X280984Y224705D01*
X280951Y224566D01*
X280914Y224428D01*
X280873Y224291D01*
X280829Y224155D01*
X280780Y224020D01*
X280728Y223887D01*
X280673Y223755D01*
X280613Y223625D01*
X280550Y223496D01*
X280484Y223369D01*
X280414Y223244D01*
X280341Y223122D01*
X280264Y223001D01*
X280184Y222882D01*
X280101Y222766D01*
X280015Y222651D01*
X279926Y222540D01*
X279833Y222430D01*
X279738Y222324D01*
X279639Y222220D01*
X279538Y222119D01*
X279434Y222020D01*
X279328Y221925D01*
X279218Y221832D01*
X279107Y221743D01*
X278992Y221657D01*
X278876Y221574D01*
X278757Y221494D01*
X278636Y221417D01*
X278514Y221344D01*
X278389Y221274D01*
X278262Y221208D01*
X278133Y221145D01*
X278003Y221085D01*
X277871Y221030D01*
X277738Y220978D01*
X277603Y220929D01*
X277467Y220885D01*
X277330Y220844D01*
X277192Y220807D01*
X277053Y220774D01*
X276913Y220744D01*
X276772Y220719D01*
X276630Y220697D01*
X276488Y220680D01*
X276346Y220666D01*
X276203Y220656D01*
X276060Y220650D01*
X275917Y220648D01*
X270724Y220648D01*
X289007Y225841D02*
X295498Y231034D01*
X295498Y207666D01*
X289007Y207666D02*
X301989Y207666D01*
X309464Y207666D02*
X309464Y208964D01*
X310762Y208964D01*
X310762Y207666D01*
X309464Y207666D01*
X318237Y228438D02*
X318237Y231034D01*
X331219Y231034D01*
X324728Y207666D01*
X339116Y219350D02*
X339121Y219810D01*
X339138Y220269D01*
X339165Y220728D01*
X339204Y221186D01*
X339253Y221643D01*
X339313Y222099D01*
X339384Y222553D01*
X339466Y223006D01*
X339559Y223456D01*
X339662Y223904D01*
X339776Y224349D01*
X339901Y224792D01*
X340036Y225231D01*
X340182Y225667D01*
X340338Y226099D01*
X340504Y226528D01*
X340680Y226953D01*
X340867Y227373D01*
X341063Y227788D01*
X341064Y227789D02*
X341109Y227916D01*
X341159Y228042D01*
X341211Y228167D01*
X341268Y228290D01*
X341328Y228412D01*
X341391Y228531D01*
X341457Y228649D01*
X341527Y228765D01*
X341600Y228879D01*
X341676Y228991D01*
X341756Y229101D01*
X341838Y229208D01*
X341924Y229313D01*
X342012Y229416D01*
X342103Y229516D01*
X342197Y229614D01*
X342294Y229708D01*
X342393Y229800D01*
X342495Y229890D01*
X342599Y229976D01*
X342706Y230059D01*
X342815Y230139D01*
X342927Y230217D01*
X343040Y230290D01*
X343155Y230361D01*
X343273Y230429D01*
X343392Y230493D01*
X343513Y230554D01*
X343636Y230611D01*
X343760Y230665D01*
X343886Y230715D01*
X344013Y230762D01*
X344141Y230805D01*
X344271Y230844D01*
X344401Y230880D01*
X344533Y230912D01*
X344665Y230941D01*
X344798Y230965D01*
X344932Y230986D01*
X345067Y231003D01*
X345201Y231017D01*
X345336Y231026D01*
X345472Y231032D01*
X345607Y231034D01*
X345742Y231032D01*
X345878Y231026D01*
X346013Y231017D01*
X346148Y231003D01*
X346282Y230986D01*
X346416Y230965D01*
X346549Y230941D01*
X346681Y230912D01*
X346813Y230880D01*
X346943Y230844D01*
X347073Y230805D01*
X347201Y230762D01*
X347328Y230715D01*
X347454Y230665D01*
X347578Y230611D01*
X347701Y230554D01*
X347822Y230493D01*
X347941Y230429D01*
X348059Y230361D01*
X348174Y230290D01*
X348287Y230216D01*
X348399Y230139D01*
X348508Y230059D01*
X348615Y229976D01*
X348719Y229890D01*
X348821Y229800D01*
X348920Y229708D01*
X349017Y229614D01*
X349111Y229516D01*
X349202Y229416D01*
X349290Y229313D01*
X349376Y229208D01*
X349458Y229101D01*
X349538Y228991D01*
X349614Y228879D01*
X349687Y228765D01*
X349757Y228649D01*
X349823Y228531D01*
X349886Y228412D01*
X349946Y228290D01*
X350003Y228167D01*
X350055Y228042D01*
X350105Y227916D01*
X350150Y227789D01*
X350151Y227789D02*
X350347Y227373D01*
X350534Y226953D01*
X350710Y226528D01*
X350876Y226100D01*
X351032Y225667D01*
X351178Y225231D01*
X351313Y224792D01*
X351438Y224349D01*
X351552Y223904D01*
X351655Y223456D01*
X351748Y223006D01*
X351830Y222553D01*
X351901Y222099D01*
X351961Y221643D01*
X352010Y221186D01*
X352049Y220728D01*
X352076Y220269D01*
X352093Y219810D01*
X352098Y219350D01*
X339116Y219350D02*
X339121Y218890D01*
X339138Y218431D01*
X339165Y217972D01*
X339204Y217514D01*
X339253Y217057D01*
X339313Y216601D01*
X339384Y216147D01*
X339466Y215695D01*
X339559Y215244D01*
X339662Y214796D01*
X339776Y214351D01*
X339901Y213908D01*
X340036Y213469D01*
X340182Y213033D01*
X340338Y212601D01*
X340504Y212172D01*
X340680Y211747D01*
X340867Y211327D01*
X341063Y210912D01*
X341064Y210911D02*
X341109Y210784D01*
X341159Y210658D01*
X341211Y210533D01*
X341268Y210410D01*
X341328Y210288D01*
X341391Y210169D01*
X341457Y210051D01*
X341527Y209935D01*
X341600Y209821D01*
X341676Y209709D01*
X341756Y209599D01*
X341838Y209492D01*
X341924Y209387D01*
X342012Y209284D01*
X342103Y209184D01*
X342197Y209086D01*
X342294Y208992D01*
X342393Y208900D01*
X342495Y208810D01*
X342600Y208724D01*
X342706Y208641D01*
X342815Y208561D01*
X342927Y208483D01*
X343040Y208410D01*
X343155Y208339D01*
X343273Y208271D01*
X343392Y208207D01*
X343513Y208146D01*
X343636Y208089D01*
X343760Y208035D01*
X343886Y207985D01*
X344013Y207938D01*
X344141Y207895D01*
X344271Y207856D01*
X344401Y207820D01*
X344533Y207788D01*
X344665Y207759D01*
X344798Y207735D01*
X344932Y207714D01*
X345067Y207697D01*
X345201Y207683D01*
X345336Y207674D01*
X345472Y207668D01*
X345607Y207666D01*
X350151Y210912D02*
X350347Y211327D01*
X350534Y211747D01*
X350710Y212172D01*
X350876Y212600D01*
X351032Y213033D01*
X351178Y213469D01*
X351313Y213908D01*
X351438Y214351D01*
X351552Y214796D01*
X351655Y215244D01*
X351748Y215694D01*
X351830Y216147D01*
X351901Y216601D01*
X351961Y217057D01*
X352010Y217514D01*
X352049Y217972D01*
X352076Y218431D01*
X352093Y218890D01*
X352098Y219350D01*
X350150Y210911D02*
X350105Y210784D01*
X350055Y210658D01*
X350003Y210533D01*
X349946Y210410D01*
X349886Y210288D01*
X349823Y210169D01*
X349757Y210051D01*
X349687Y209935D01*
X349614Y209821D01*
X349538Y209709D01*
X349458Y209599D01*
X349376Y209492D01*
X349290Y209387D01*
X349202Y209284D01*
X349111Y209184D01*
X349017Y209086D01*
X348920Y208992D01*
X348821Y208900D01*
X348719Y208810D01*
X348615Y208724D01*
X348508Y208641D01*
X348399Y208561D01*
X348287Y208483D01*
X348174Y208410D01*
X348059Y208339D01*
X347941Y208271D01*
X347822Y208207D01*
X347701Y208146D01*
X347578Y208089D01*
X347454Y208035D01*
X347328Y207985D01*
X347201Y207938D01*
X347073Y207895D01*
X346943Y207856D01*
X346813Y207820D01*
X346681Y207788D01*
X346549Y207759D01*
X346416Y207735D01*
X346282Y207714D01*
X346147Y207697D01*
X346013Y207683D01*
X345878Y207674D01*
X345742Y207668D01*
X345607Y207666D01*
X340414Y212859D02*
X350800Y225841D01*
D10*
X411000Y174200D02*
X517100Y174200D01*
X517100Y23800D02*
X411000Y23800D01*
X497600Y24450D02*
X497600Y173550D01*
X494408Y148200D01*
X500792Y148200D01*
X497600Y173550D01*
X496300Y148200D01*
X498900Y148200D02*
X497600Y173550D01*
X495000Y148200D01*
X500200Y148200D02*
X497600Y173550D01*
X494408Y49800D02*
X497600Y24450D01*
X494408Y49800D02*
X500792Y49800D01*
X497600Y24450D01*
X496300Y49800D01*
X498900Y49800D02*
X497600Y24450D01*
X495000Y49800D01*
X500200Y49800D02*
X497600Y24450D01*
D11*
X478449Y67852D02*
X474837Y72368D01*
X491093Y72368D01*
X491093Y76883D02*
X491093Y67852D01*
X491093Y83483D02*
X491093Y88902D01*
X491091Y89020D01*
X491085Y89138D01*
X491076Y89256D01*
X491062Y89373D01*
X491045Y89490D01*
X491024Y89607D01*
X490999Y89722D01*
X490970Y89837D01*
X490937Y89951D01*
X490901Y90063D01*
X490861Y90174D01*
X490818Y90284D01*
X490771Y90393D01*
X490721Y90500D01*
X490666Y90605D01*
X490609Y90708D01*
X490548Y90809D01*
X490484Y90909D01*
X490417Y91006D01*
X490347Y91101D01*
X490273Y91193D01*
X490197Y91284D01*
X490117Y91371D01*
X490035Y91456D01*
X489950Y91538D01*
X489863Y91618D01*
X489772Y91694D01*
X489680Y91768D01*
X489585Y91838D01*
X489488Y91905D01*
X489388Y91969D01*
X489287Y92030D01*
X489184Y92087D01*
X489079Y92142D01*
X488972Y92192D01*
X488863Y92239D01*
X488753Y92282D01*
X488642Y92322D01*
X488530Y92358D01*
X488416Y92391D01*
X488301Y92420D01*
X488186Y92445D01*
X488069Y92466D01*
X487952Y92483D01*
X487835Y92497D01*
X487717Y92506D01*
X487599Y92512D01*
X487481Y92514D01*
X485674Y92514D01*
X485556Y92512D01*
X485438Y92506D01*
X485320Y92497D01*
X485203Y92483D01*
X485086Y92466D01*
X484969Y92445D01*
X484854Y92420D01*
X484739Y92391D01*
X484625Y92358D01*
X484513Y92322D01*
X484402Y92282D01*
X484292Y92239D01*
X484183Y92192D01*
X484076Y92142D01*
X483971Y92087D01*
X483868Y92030D01*
X483767Y91969D01*
X483667Y91905D01*
X483570Y91838D01*
X483475Y91768D01*
X483383Y91694D01*
X483292Y91618D01*
X483205Y91538D01*
X483120Y91456D01*
X483038Y91371D01*
X482958Y91284D01*
X482882Y91193D01*
X482808Y91101D01*
X482738Y91006D01*
X482671Y90909D01*
X482607Y90809D01*
X482546Y90708D01*
X482489Y90605D01*
X482434Y90500D01*
X482384Y90393D01*
X482337Y90284D01*
X482294Y90174D01*
X482254Y90063D01*
X482218Y89951D01*
X482185Y89837D01*
X482156Y89722D01*
X482131Y89607D01*
X482110Y89490D01*
X482093Y89373D01*
X482079Y89256D01*
X482070Y89138D01*
X482064Y89020D01*
X482062Y88902D01*
X482062Y83483D01*
X474837Y83483D01*
X474837Y92514D01*
X490190Y98489D02*
X491093Y98489D01*
X490190Y98489D02*
X490190Y99392D01*
X491093Y99392D01*
X491093Y98489D01*
X482965Y105367D02*
X482645Y105371D01*
X482326Y105382D01*
X482006Y105401D01*
X481688Y105428D01*
X481370Y105462D01*
X481053Y105504D01*
X480737Y105554D01*
X480422Y105611D01*
X480109Y105675D01*
X479797Y105747D01*
X479487Y105826D01*
X479180Y105913D01*
X478874Y106007D01*
X478571Y106108D01*
X478270Y106217D01*
X477972Y106332D01*
X477676Y106455D01*
X477384Y106585D01*
X477095Y106722D01*
X477094Y106722D02*
X476986Y106761D01*
X476879Y106804D01*
X476774Y106850D01*
X476671Y106900D01*
X476569Y106954D01*
X476469Y107011D01*
X476371Y107072D01*
X476275Y107136D01*
X476182Y107203D01*
X476091Y107273D01*
X476002Y107347D01*
X475916Y107423D01*
X475833Y107503D01*
X475752Y107585D01*
X475674Y107670D01*
X475600Y107757D01*
X475528Y107848D01*
X475459Y107940D01*
X475394Y108035D01*
X475332Y108132D01*
X475273Y108231D01*
X475218Y108332D01*
X475167Y108435D01*
X475119Y108540D01*
X475074Y108646D01*
X475033Y108753D01*
X474996Y108862D01*
X474963Y108973D01*
X474934Y109084D01*
X474908Y109196D01*
X474886Y109309D01*
X474869Y109423D01*
X474855Y109537D01*
X474845Y109652D01*
X474839Y109767D01*
X474837Y109882D01*
X474839Y109997D01*
X474845Y110112D01*
X474855Y110227D01*
X474869Y110341D01*
X474886Y110455D01*
X474908Y110568D01*
X474934Y110680D01*
X474963Y110792D01*
X474996Y110902D01*
X475033Y111011D01*
X475074Y111119D01*
X475119Y111225D01*
X475167Y111330D01*
X475218Y111432D01*
X475274Y111534D01*
X475332Y111633D01*
X475394Y111730D01*
X475460Y111825D01*
X475528Y111917D01*
X475600Y112007D01*
X475674Y112095D01*
X475752Y112180D01*
X475833Y112262D01*
X475916Y112341D01*
X476002Y112418D01*
X476091Y112491D01*
X476182Y112562D01*
X476276Y112629D01*
X476371Y112693D01*
X476469Y112754D01*
X476569Y112811D01*
X476671Y112864D01*
X476775Y112915D01*
X476880Y112961D01*
X476987Y113004D01*
X477095Y113043D01*
X477384Y113180D01*
X477676Y113310D01*
X477972Y113433D01*
X478270Y113548D01*
X478571Y113657D01*
X478874Y113758D01*
X479180Y113852D01*
X479487Y113939D01*
X479797Y114018D01*
X480109Y114090D01*
X480422Y114154D01*
X480737Y114211D01*
X481053Y114261D01*
X481370Y114303D01*
X481688Y114337D01*
X482006Y114364D01*
X482326Y114383D01*
X482645Y114394D01*
X482965Y114398D01*
X482965Y105367D02*
X483285Y105371D01*
X483604Y105382D01*
X483924Y105401D01*
X484242Y105428D01*
X484560Y105462D01*
X484877Y105504D01*
X485193Y105554D01*
X485508Y105611D01*
X485821Y105675D01*
X486133Y105747D01*
X486443Y105826D01*
X486750Y105913D01*
X487056Y106007D01*
X487359Y106108D01*
X487660Y106217D01*
X487958Y106332D01*
X488254Y106455D01*
X488546Y106585D01*
X488835Y106722D01*
X488836Y106721D02*
X488944Y106760D01*
X489051Y106803D01*
X489156Y106849D01*
X489260Y106900D01*
X489362Y106953D01*
X489462Y107010D01*
X489560Y107071D01*
X489655Y107135D01*
X489749Y107202D01*
X489840Y107273D01*
X489929Y107346D01*
X490015Y107423D01*
X490098Y107502D01*
X490179Y107584D01*
X490257Y107669D01*
X490331Y107757D01*
X490403Y107847D01*
X490472Y107940D01*
X490537Y108034D01*
X490599Y108131D01*
X490657Y108231D01*
X490713Y108332D01*
X490764Y108434D01*
X490812Y108539D01*
X490857Y108645D01*
X490898Y108753D01*
X490935Y108862D01*
X490968Y108972D01*
X490997Y109084D01*
X491023Y109196D01*
X491045Y109309D01*
X491062Y109423D01*
X491076Y109537D01*
X491086Y109652D01*
X491092Y109767D01*
X491094Y109882D01*
X488835Y113043D02*
X488546Y113180D01*
X488254Y113310D01*
X487958Y113433D01*
X487660Y113548D01*
X487359Y113657D01*
X487056Y113758D01*
X486750Y113852D01*
X486443Y113939D01*
X486133Y114018D01*
X485821Y114090D01*
X485508Y114154D01*
X485193Y114211D01*
X484877Y114261D01*
X484560Y114303D01*
X484242Y114337D01*
X483924Y114364D01*
X483604Y114383D01*
X483285Y114394D01*
X482965Y114398D01*
X488835Y113043D02*
X488943Y113004D01*
X489050Y112961D01*
X489155Y112915D01*
X489259Y112864D01*
X489361Y112811D01*
X489461Y112754D01*
X489559Y112693D01*
X489654Y112629D01*
X489748Y112562D01*
X489839Y112491D01*
X489928Y112418D01*
X490014Y112341D01*
X490097Y112262D01*
X490178Y112180D01*
X490256Y112095D01*
X490330Y112007D01*
X490402Y111917D01*
X490471Y111824D01*
X490536Y111730D01*
X490598Y111633D01*
X490656Y111533D01*
X490712Y111432D01*
X490763Y111329D01*
X490811Y111225D01*
X490856Y111119D01*
X490897Y111011D01*
X490934Y110902D01*
X490967Y110792D01*
X490996Y110680D01*
X491022Y110568D01*
X491044Y110455D01*
X491061Y110341D01*
X491075Y110227D01*
X491085Y110112D01*
X491091Y109997D01*
X491093Y109882D01*
X487481Y106270D02*
X478449Y113495D01*
X474837Y124611D02*
X487481Y120998D01*
X487481Y130029D01*
X483868Y127320D02*
X491093Y127320D01*
D13*
X281796Y76204D03*
X276796Y76204D03*
X271796Y76204D03*
X266796Y76204D03*
X261796Y76204D03*
X256796Y76204D03*
X251796Y76204D03*
D14*
X243796Y68204D03*
X243796Y63204D03*
X243796Y58204D03*
X243796Y53204D03*
X243796Y48204D03*
X243796Y43204D03*
X243796Y38204D03*
D13*
X251796Y30204D03*
X256796Y30204D03*
X261796Y30204D03*
X266796Y30204D03*
X271796Y30204D03*
X276796Y30204D03*
X281796Y30204D03*
D14*
X289796Y38204D03*
X289796Y43204D03*
X289796Y48204D03*
X289796Y53204D03*
X289796Y58204D03*
X289796Y63204D03*
X289796Y68204D03*
D15*
X266796Y53204D03*
D16*
X287821Y74229D03*
D17*
X254468Y151506D03*
X254468Y142006D03*
X254468Y132506D03*
X280470Y132506D03*
X280470Y151506D03*
D18*
X237288Y134188D03*
X237288Y151188D03*
X297806Y134444D03*
X297806Y151444D03*
D19*
X223469Y35026D03*
X223469Y46626D03*
D20*
X237637Y105737D02*
X237637Y115663D01*
X245063Y115663D01*
X245063Y105737D01*
X237637Y105737D01*
X237637Y108088D02*
X245063Y108088D01*
X245063Y110439D02*
X237637Y110439D01*
X237637Y112790D02*
X245063Y112790D01*
X245063Y115141D02*
X237637Y115141D01*
D21*
X221937Y116163D02*
X221937Y105237D01*
X221937Y116163D02*
X226363Y116163D01*
X226363Y105237D01*
X221937Y105237D01*
X221937Y106638D02*
X226363Y106638D01*
X226363Y108039D02*
X221937Y108039D01*
X221937Y109440D02*
X226363Y109440D01*
X226363Y110841D02*
X221937Y110841D01*
X221937Y112242D02*
X226363Y112242D01*
X226363Y113643D02*
X221937Y113643D01*
X221937Y115044D02*
X226363Y115044D01*
X221937Y95063D02*
X221937Y84137D01*
X221937Y95063D02*
X226363Y95063D01*
X226363Y84137D01*
X221937Y84137D01*
X221937Y85538D02*
X226363Y85538D01*
X226363Y86939D02*
X221937Y86939D01*
X221937Y88340D02*
X226363Y88340D01*
X226363Y89741D02*
X221937Y89741D01*
X221937Y91142D02*
X226363Y91142D01*
X226363Y92543D02*
X221937Y92543D01*
X221937Y93944D02*
X226363Y93944D01*
X241137Y95063D02*
X241137Y84137D01*
X241137Y95063D02*
X245563Y95063D01*
X245563Y84137D01*
X241137Y84137D01*
X241137Y85538D02*
X245563Y85538D01*
X245563Y86939D02*
X241137Y86939D01*
X241137Y88340D02*
X245563Y88340D01*
X245563Y89741D02*
X241137Y89741D01*
X241137Y91142D02*
X245563Y91142D01*
X245563Y92543D02*
X241137Y92543D01*
X241137Y93944D02*
X245563Y93944D01*
D22*
X324850Y162650D03*
X337350Y162650D03*
X350250Y162550D03*
X362950Y162650D03*
X375650Y162750D03*
X401300Y162650D03*
X388100Y162650D03*
D23*
X264830Y162150D02*
X262130Y162150D01*
X262130Y165450D01*
X264830Y165450D01*
X264830Y162150D01*
X264830Y164715D02*
X262130Y164715D01*
X270770Y162150D02*
X273470Y162150D01*
X270770Y162150D02*
X270770Y165450D01*
X273470Y165450D01*
X273470Y162150D01*
X273470Y164715D02*
X270770Y164715D01*
D19*
X375000Y59200D03*
X375000Y70800D03*
X389000Y59200D03*
X389000Y70800D03*
D24*
X193190Y40500D02*
X175410Y40500D01*
X175410Y157500D02*
X193190Y157500D01*
D25*
X237100Y134000D02*
X237288Y134188D01*
X236967Y134508D01*
D26*
X382000Y90000D03*
X402000Y129000D03*
X327000Y56000D03*
X341000Y56000D03*
X299000Y84000D03*
X163000Y137000D03*
X163000Y124000D03*
X163000Y111000D03*
X163000Y97000D03*
X163000Y81000D03*
X163000Y67000D03*
X163000Y53000D03*
X402000Y116000D03*
X402000Y103000D03*
X402000Y90000D03*
X402000Y76000D03*
X402000Y60000D03*
D27*
X271796Y58204D02*
X271796Y76204D01*
X271796Y58204D02*
X266796Y53204D01*
X271796Y58204D02*
X287821Y74229D01*
D26*
X207000Y166600D03*
X224600Y166600D03*
X251800Y166600D03*
D28*
X254149Y151188D02*
X237288Y151188D01*
X254149Y151188D02*
X254468Y151506D01*
X264494Y151506D01*
X267000Y149000D01*
X267000Y135000D01*
X264506Y132506D02*
X254468Y132506D01*
X264506Y132506D02*
X267000Y135000D01*
X237288Y151188D02*
X237100Y151000D01*
X226000Y151000D01*
D26*
X226000Y151000D03*
D29*
X243350Y89600D02*
X241750Y88000D01*
D28*
X226000Y151000D02*
X211800Y151000D01*
X201600Y140800D02*
X201600Y76000D01*
X209600Y68000D01*
X201600Y140800D02*
X211800Y151000D01*
X209600Y68000D02*
X232000Y68000D01*
X235200Y68000D01*
D25*
X243792Y68200D02*
X243796Y68204D01*
X243792Y68200D02*
X235400Y68200D01*
X235200Y68000D01*
D28*
X233600Y69600D02*
X232000Y68000D01*
X236800Y89600D02*
X243350Y89600D01*
X233600Y86400D02*
X233600Y69600D01*
X233600Y86400D02*
X236800Y89600D01*
D26*
X212800Y80000D03*
D27*
X212800Y88000D01*
X214400Y89600D01*
X224150Y89600D01*
D26*
X212800Y117600D03*
D27*
X212800Y113600D01*
X216000Y110400D01*
X223850Y110400D01*
X224150Y110700D01*
D26*
X304000Y58000D03*
D27*
X296196Y58204D02*
X289796Y58204D01*
X296196Y58204D02*
X297600Y56800D01*
X302800Y56800D01*
X304000Y58000D01*
D26*
X299000Y94000D03*
D27*
X311000Y89000D02*
X311000Y57000D01*
X311000Y89000D02*
X306000Y94000D01*
X299000Y94000D01*
X298796Y53204D02*
X289796Y53204D01*
X298796Y53204D02*
X300000Y52000D01*
X306000Y52000D01*
X311000Y57000D01*
D28*
X297744Y151506D02*
X280470Y151506D01*
X297744Y151506D02*
X297806Y151444D01*
X311556Y151444D01*
X312000Y151000D01*
D26*
X312000Y151000D03*
D28*
X337350Y155130D02*
X337350Y162650D01*
X333710Y151490D02*
X312490Y151490D01*
X312000Y151000D01*
X333710Y151490D02*
X337350Y155130D01*
D29*
X233974Y35026D02*
X223469Y35026D01*
X233974Y35026D02*
X236000Y33000D01*
D26*
X236000Y33000D03*
D29*
X251796Y76204D02*
X256796Y76204D01*
X251796Y76204D02*
X251592Y76000D01*
X244000Y76000D01*
D26*
X244000Y76000D03*
D25*
X272120Y163800D02*
X277800Y163800D01*
X280800Y160800D01*
X280800Y151837D01*
X280470Y151506D01*
X251796Y112596D02*
X251796Y76204D01*
X258400Y119200D02*
X308000Y119200D01*
X312000Y123200D01*
X312000Y151000D01*
X258400Y119200D02*
X251796Y112596D01*
D27*
X370000Y40000D02*
X386000Y40000D01*
X388000Y42000D01*
X388000Y46000D01*
X365612Y44388D02*
X299388Y44388D01*
X365612Y44388D02*
X370000Y40000D01*
D26*
X388000Y46000D03*
D27*
X388000Y58200D01*
X389000Y59200D01*
X298204Y43204D02*
X289796Y43204D01*
X298204Y43204D02*
X299388Y44388D01*
X290296Y47704D02*
X289796Y48204D01*
D26*
X375000Y46000D03*
D27*
X375000Y59200D01*
X298996Y48204D02*
X289796Y48204D01*
X298996Y48204D02*
X299796Y47404D01*
X368596Y47404D01*
X370000Y46000D02*
X375000Y46000D01*
X370000Y46000D02*
X368596Y47404D01*
D30*
X401000Y148000D03*
D27*
X401300Y148000D02*
X401300Y162650D01*
X401300Y148000D02*
X401000Y148000D01*
D30*
X388000Y148000D03*
D27*
X388100Y148100D02*
X388100Y162650D01*
X388100Y148100D02*
X388000Y148000D01*
X375650Y152350D02*
X375650Y162750D01*
X375650Y152350D02*
X376000Y152000D01*
D30*
X376000Y152000D03*
D26*
X363000Y152000D03*
D27*
X363000Y162600D02*
X362950Y162650D01*
X363000Y162600D02*
X363000Y152000D01*
D26*
X350000Y152000D03*
D27*
X350250Y152250D02*
X350250Y162550D01*
X350250Y152250D02*
X350000Y152000D01*
X266796Y84396D02*
X266796Y76204D01*
X266796Y84396D02*
X268800Y86400D01*
D26*
X268800Y86400D03*
D27*
X261796Y83004D02*
X261796Y76204D01*
X261796Y83004D02*
X258400Y86400D01*
D26*
X258400Y86400D03*
D27*
X223469Y52469D02*
X223469Y46626D01*
X223469Y52469D02*
X228000Y57000D01*
X233000Y57000D01*
X239204Y63204D02*
X243796Y63204D01*
X239204Y63204D02*
X233000Y57000D01*
D26*
X234400Y47200D03*
D29*
X234400Y49600D02*
X238004Y53204D01*
X234400Y49600D02*
X234400Y47200D01*
X238004Y53204D02*
X243796Y53204D01*
M02*
