G04 EAGLE Gerber RS-274X export*
G75*
%MOMM*%
%FSLAX34Y34*%
%LPD*%
%INBottom Copper*%
%IPPOS*%
%AMOC8*
5,1,8,0,0,1.08239X$1,22.5*%
G01*
%ADD10C,1.000000*%
%ADD11C,1.778000*%
%ADD12C,0.656400*%
%ADD13C,0.254000*%
%ADD14C,0.406400*%
%ADD15C,0.200000*%

G36*
X354920Y25773D02*
X354920Y25773D01*
X354995Y25774D01*
X355059Y25793D01*
X355124Y25803D01*
X355193Y25834D01*
X355266Y25855D01*
X355321Y25892D01*
X355381Y25919D01*
X355439Y25968D01*
X355502Y26009D01*
X355545Y26059D01*
X355596Y26102D01*
X355637Y26165D01*
X355686Y26223D01*
X355714Y26283D01*
X355750Y26338D01*
X355772Y26410D01*
X355804Y26479D01*
X355813Y26545D01*
X355832Y26608D01*
X355833Y26683D01*
X355844Y26758D01*
X355835Y26824D01*
X355836Y26890D01*
X355816Y26963D01*
X355806Y27037D01*
X355780Y27093D01*
X355761Y27162D01*
X355709Y27246D01*
X355676Y27317D01*
X355167Y28078D01*
X354599Y29451D01*
X354559Y29651D01*
X360850Y29651D01*
X360914Y29660D01*
X360978Y29659D01*
X361052Y29680D01*
X361129Y29691D01*
X361188Y29717D01*
X361250Y29734D01*
X361316Y29775D01*
X361386Y29807D01*
X361435Y29849D01*
X361490Y29882D01*
X361541Y29940D01*
X361600Y29990D01*
X361636Y30044D01*
X361679Y30092D01*
X361712Y30161D01*
X361755Y30226D01*
X361774Y30288D01*
X361802Y30345D01*
X361812Y30415D01*
X361837Y30496D01*
X361838Y30581D01*
X361849Y30650D01*
X361849Y31651D01*
X362850Y31651D01*
X362914Y31660D01*
X362978Y31659D01*
X363053Y31680D01*
X363129Y31691D01*
X363188Y31717D01*
X363250Y31734D01*
X363316Y31775D01*
X363386Y31807D01*
X363435Y31849D01*
X363490Y31882D01*
X363542Y31940D01*
X363600Y31990D01*
X363636Y32044D01*
X363679Y32092D01*
X363712Y32161D01*
X363755Y32226D01*
X363774Y32288D01*
X363802Y32346D01*
X363812Y32415D01*
X363837Y32496D01*
X363838Y32581D01*
X363849Y32650D01*
X363849Y38941D01*
X364050Y38901D01*
X365422Y38333D01*
X366657Y37507D01*
X367707Y36457D01*
X368209Y35707D01*
X368223Y35691D01*
X368232Y35673D01*
X368316Y35586D01*
X368397Y35496D01*
X368415Y35485D01*
X368429Y35470D01*
X368534Y35411D01*
X368636Y35347D01*
X368656Y35342D01*
X368675Y35331D01*
X368791Y35304D01*
X368908Y35271D01*
X368929Y35271D01*
X368949Y35267D01*
X369069Y35273D01*
X369190Y35274D01*
X369210Y35280D01*
X369231Y35281D01*
X369345Y35320D01*
X369460Y35355D01*
X369477Y35366D01*
X369497Y35373D01*
X369571Y35427D01*
X369696Y35509D01*
X369720Y35536D01*
X369746Y35555D01*
X370233Y36042D01*
X370272Y36093D01*
X370318Y36138D01*
X370356Y36206D01*
X370402Y36268D01*
X370425Y36328D01*
X370457Y36384D01*
X370475Y36459D01*
X370502Y36532D01*
X370507Y36595D01*
X370522Y36658D01*
X370518Y36736D01*
X370524Y36813D01*
X370512Y36871D01*
X370512Y36882D01*
X370510Y36889D01*
X370507Y36940D01*
X370482Y37013D01*
X370466Y37089D01*
X370442Y37134D01*
X370437Y37154D01*
X370428Y37168D01*
X370415Y37206D01*
X370374Y37263D01*
X370334Y37338D01*
X370305Y37367D01*
X370288Y37394D01*
X370257Y37423D01*
X370233Y37455D01*
X364030Y43659D01*
X363953Y43716D01*
X363882Y43781D01*
X363841Y43801D01*
X363804Y43828D01*
X363714Y43862D01*
X363628Y43904D01*
X363586Y43910D01*
X363540Y43927D01*
X363413Y43937D01*
X363323Y43951D01*
X353445Y43951D01*
X353350Y43938D01*
X353253Y43933D01*
X353210Y43918D01*
X353165Y43911D01*
X353078Y43872D01*
X352987Y43840D01*
X352953Y43815D01*
X352908Y43795D01*
X352811Y43712D01*
X352738Y43659D01*
X351781Y42701D01*
X348219Y42701D01*
X347162Y43759D01*
X347085Y43816D01*
X347014Y43881D01*
X346973Y43901D01*
X346936Y43928D01*
X346846Y43962D01*
X346760Y44004D01*
X346718Y44010D01*
X346673Y44027D01*
X346545Y44037D01*
X346455Y44051D01*
X315937Y44051D01*
X280330Y79659D01*
X280253Y79716D01*
X280182Y79781D01*
X280141Y79801D01*
X280104Y79828D01*
X280014Y79862D01*
X279928Y79904D01*
X279886Y79910D01*
X279840Y79927D01*
X279713Y79937D01*
X279623Y79951D01*
X256677Y79951D01*
X256582Y79938D01*
X256486Y79933D01*
X256442Y79918D01*
X256398Y79911D01*
X256310Y79872D01*
X256219Y79840D01*
X256185Y79815D01*
X256141Y79795D01*
X256043Y79712D01*
X255970Y79659D01*
X250591Y74280D01*
X250534Y74203D01*
X250469Y74132D01*
X250449Y74091D01*
X250422Y74054D01*
X250388Y73964D01*
X250346Y73878D01*
X250340Y73836D01*
X250323Y73790D01*
X250313Y73663D01*
X250299Y73573D01*
X250299Y73219D01*
X247781Y70701D01*
X244219Y70701D01*
X242500Y72421D01*
X242423Y72478D01*
X242352Y72543D01*
X242311Y72563D01*
X242274Y72590D01*
X242184Y72624D01*
X242098Y72666D01*
X242056Y72672D01*
X242011Y72689D01*
X241883Y72699D01*
X241793Y72713D01*
X228361Y72713D01*
X228266Y72700D01*
X228170Y72695D01*
X228127Y72680D01*
X228082Y72673D01*
X227994Y72634D01*
X227904Y72602D01*
X227869Y72577D01*
X227825Y72557D01*
X227728Y72474D01*
X227655Y72421D01*
X216579Y61345D01*
X216522Y61269D01*
X216457Y61197D01*
X216437Y61156D01*
X216410Y61120D01*
X216376Y61030D01*
X216334Y60943D01*
X216328Y60901D01*
X216311Y60856D01*
X216301Y60728D01*
X216287Y60639D01*
X216287Y39206D01*
X216300Y39111D01*
X216305Y39015D01*
X216320Y38972D01*
X216327Y38927D01*
X216366Y38840D01*
X216398Y38749D01*
X216423Y38714D01*
X216443Y38670D01*
X216526Y38573D01*
X216579Y38500D01*
X217500Y37579D01*
X217577Y37522D01*
X217648Y37457D01*
X217689Y37437D01*
X217726Y37410D01*
X217816Y37376D01*
X217902Y37334D01*
X217944Y37328D01*
X217989Y37311D01*
X218117Y37301D01*
X218207Y37287D01*
X230794Y37287D01*
X230888Y37300D01*
X230985Y37305D01*
X231028Y37320D01*
X231073Y37327D01*
X231160Y37366D01*
X231251Y37398D01*
X231286Y37423D01*
X231330Y37443D01*
X231427Y37526D01*
X231500Y37579D01*
X233214Y39293D01*
X233253Y39345D01*
X233299Y39390D01*
X233337Y39457D01*
X233383Y39519D01*
X233406Y39579D01*
X233438Y39635D01*
X233456Y39710D01*
X233483Y39783D01*
X233488Y39847D01*
X233503Y39909D01*
X233499Y39987D01*
X233505Y40064D01*
X233492Y40127D01*
X233488Y40191D01*
X233463Y40264D01*
X233447Y40340D01*
X233417Y40397D01*
X233396Y40458D01*
X233354Y40514D01*
X233315Y40589D01*
X233255Y40650D01*
X233214Y40707D01*
X231701Y42219D01*
X231701Y45781D01*
X234219Y48299D01*
X237781Y48299D01*
X239770Y46309D01*
X239847Y46252D01*
X239918Y46187D01*
X239959Y46167D01*
X239996Y46140D01*
X240086Y46106D01*
X240172Y46064D01*
X240214Y46058D01*
X240259Y46041D01*
X240387Y46031D01*
X240477Y46017D01*
X295835Y46017D01*
X305543Y36309D01*
X305619Y36252D01*
X305691Y36187D01*
X305732Y36167D01*
X305768Y36140D01*
X305858Y36106D01*
X305945Y36064D01*
X305987Y36058D01*
X306032Y36041D01*
X306160Y36031D01*
X306249Y36017D01*
X319523Y36017D01*
X319618Y36030D01*
X319715Y36035D01*
X319758Y36050D01*
X319803Y36057D01*
X319890Y36096D01*
X319981Y36128D01*
X320015Y36153D01*
X320060Y36173D01*
X320157Y36256D01*
X320230Y36309D01*
X322219Y38299D01*
X325781Y38299D01*
X328299Y35781D01*
X328299Y32219D01*
X325781Y29701D01*
X322219Y29701D01*
X320230Y31691D01*
X320153Y31748D01*
X320082Y31813D01*
X320041Y31833D01*
X320004Y31860D01*
X319914Y31894D01*
X319828Y31936D01*
X319786Y31942D01*
X319741Y31959D01*
X319613Y31969D01*
X319523Y31983D01*
X304165Y31983D01*
X294457Y41691D01*
X294381Y41748D01*
X294309Y41813D01*
X294268Y41833D01*
X294232Y41860D01*
X294142Y41894D01*
X294055Y41936D01*
X294013Y41942D01*
X293968Y41959D01*
X293840Y41969D01*
X293751Y41983D01*
X240477Y41983D01*
X240382Y41970D01*
X240285Y41965D01*
X240242Y41950D01*
X240197Y41943D01*
X240110Y41904D01*
X240019Y41872D01*
X239985Y41847D01*
X239940Y41827D01*
X239843Y41744D01*
X239770Y41691D01*
X237786Y39707D01*
X237747Y39655D01*
X237701Y39610D01*
X237663Y39543D01*
X237617Y39481D01*
X237594Y39421D01*
X237562Y39365D01*
X237544Y39290D01*
X237517Y39217D01*
X237512Y39153D01*
X237497Y39090D01*
X237501Y39013D01*
X237495Y38936D01*
X237508Y38873D01*
X237512Y38809D01*
X237537Y38736D01*
X237553Y38660D01*
X237583Y38603D01*
X237604Y38542D01*
X237646Y38486D01*
X237685Y38411D01*
X237745Y38350D01*
X237786Y38293D01*
X239299Y36781D01*
X239299Y33219D01*
X236781Y30701D01*
X233219Y30701D01*
X231500Y32421D01*
X231423Y32478D01*
X231352Y32543D01*
X231311Y32563D01*
X231275Y32590D01*
X231185Y32624D01*
X231098Y32666D01*
X231056Y32672D01*
X231011Y32689D01*
X230883Y32699D01*
X230794Y32713D01*
X218207Y32713D01*
X218112Y32700D01*
X218015Y32695D01*
X217972Y32680D01*
X217927Y32673D01*
X217840Y32634D01*
X217749Y32602D01*
X217715Y32577D01*
X217670Y32557D01*
X217573Y32474D01*
X217500Y32421D01*
X215781Y30701D01*
X212219Y30701D01*
X209701Y33219D01*
X209701Y36781D01*
X211421Y38500D01*
X211478Y38577D01*
X211543Y38648D01*
X211563Y38689D01*
X211590Y38725D01*
X211624Y38815D01*
X211666Y38902D01*
X211672Y38944D01*
X211689Y38989D01*
X211699Y39117D01*
X211713Y39206D01*
X211713Y62947D01*
X226053Y77287D01*
X241793Y77287D01*
X241888Y77300D01*
X241985Y77305D01*
X242028Y77320D01*
X242073Y77327D01*
X242160Y77366D01*
X242251Y77398D01*
X242285Y77423D01*
X242330Y77443D01*
X242427Y77526D01*
X242500Y77579D01*
X243214Y78293D01*
X243253Y78345D01*
X243299Y78390D01*
X243337Y78457D01*
X243383Y78519D01*
X243406Y78579D01*
X243438Y78635D01*
X243456Y78710D01*
X243483Y78783D01*
X243488Y78847D01*
X243503Y78910D01*
X243499Y78987D01*
X243505Y79064D01*
X243492Y79127D01*
X243488Y79191D01*
X243463Y79264D01*
X243447Y79340D01*
X243417Y79397D01*
X243396Y79458D01*
X243354Y79514D01*
X243315Y79589D01*
X243255Y79650D01*
X243214Y79707D01*
X240701Y82219D01*
X240701Y85781D01*
X243219Y88299D01*
X245651Y88299D01*
X245746Y88312D01*
X245842Y88317D01*
X245885Y88332D01*
X245930Y88339D01*
X246018Y88378D01*
X246108Y88410D01*
X246143Y88435D01*
X246187Y88455D01*
X246284Y88538D01*
X246357Y88591D01*
X252421Y94655D01*
X252478Y94731D01*
X252543Y94803D01*
X252563Y94844D01*
X252590Y94880D01*
X252624Y94970D01*
X252666Y95057D01*
X252672Y95099D01*
X252689Y95144D01*
X252699Y95272D01*
X252713Y95361D01*
X252713Y113714D01*
X252704Y113776D01*
X252705Y113825D01*
X252705Y113842D01*
X252684Y113917D01*
X252673Y113993D01*
X252647Y114052D01*
X252630Y114114D01*
X252589Y114180D01*
X252557Y114250D01*
X252515Y114299D01*
X252482Y114354D01*
X252424Y114406D01*
X252374Y114464D01*
X252320Y114500D01*
X252272Y114543D01*
X252203Y114576D01*
X252138Y114619D01*
X252076Y114638D01*
X252019Y114666D01*
X251949Y114677D01*
X251868Y114701D01*
X251783Y114702D01*
X251714Y114713D01*
X249207Y114713D01*
X249112Y114700D01*
X249015Y114695D01*
X248972Y114680D01*
X248927Y114673D01*
X248840Y114634D01*
X248749Y114602D01*
X248715Y114577D01*
X248670Y114557D01*
X248573Y114474D01*
X248500Y114421D01*
X246781Y112701D01*
X243219Y112701D01*
X240701Y115219D01*
X240701Y118781D01*
X243219Y121299D01*
X246781Y121299D01*
X248500Y119579D01*
X248577Y119522D01*
X248648Y119457D01*
X248689Y119437D01*
X248726Y119410D01*
X248816Y119376D01*
X248902Y119334D01*
X248944Y119328D01*
X248989Y119311D01*
X249117Y119301D01*
X249207Y119287D01*
X251714Y119287D01*
X251778Y119296D01*
X251842Y119295D01*
X251917Y119316D01*
X251993Y119327D01*
X252052Y119353D01*
X252114Y119370D01*
X252180Y119411D01*
X252250Y119443D01*
X252299Y119485D01*
X252354Y119518D01*
X252406Y119576D01*
X252464Y119626D01*
X252500Y119680D01*
X252543Y119728D01*
X252576Y119797D01*
X252619Y119862D01*
X252638Y119924D01*
X252666Y119981D01*
X252677Y120051D01*
X252701Y120132D01*
X252702Y120217D01*
X252713Y120286D01*
X252713Y134947D01*
X262109Y144343D01*
X262160Y144366D01*
X262251Y144398D01*
X262285Y144423D01*
X262330Y144443D01*
X262427Y144526D01*
X262500Y144579D01*
X264219Y146299D01*
X267781Y146299D01*
X270299Y143781D01*
X270299Y140219D01*
X267781Y137701D01*
X264219Y137701D01*
X263784Y138137D01*
X263732Y138175D01*
X263688Y138221D01*
X263620Y138260D01*
X263558Y138306D01*
X263498Y138329D01*
X263442Y138360D01*
X263367Y138378D01*
X263294Y138406D01*
X263230Y138411D01*
X263168Y138425D01*
X263090Y138421D01*
X263013Y138427D01*
X262950Y138414D01*
X262886Y138411D01*
X262813Y138386D01*
X262737Y138370D01*
X262680Y138340D01*
X262620Y138319D01*
X262563Y138277D01*
X262488Y138237D01*
X262427Y138178D01*
X262371Y138137D01*
X257579Y133345D01*
X257522Y133269D01*
X257457Y133197D01*
X257437Y133156D01*
X257410Y133120D01*
X257376Y133030D01*
X257334Y132943D01*
X257328Y132901D01*
X257311Y132856D01*
X257301Y132728D01*
X257287Y132639D01*
X257287Y93053D01*
X249591Y85357D01*
X249534Y85281D01*
X249469Y85209D01*
X249449Y85168D01*
X249422Y85132D01*
X249388Y85042D01*
X249346Y84955D01*
X249340Y84913D01*
X249323Y84868D01*
X249313Y84740D01*
X249299Y84651D01*
X249299Y84023D01*
X249303Y83991D01*
X249301Y83959D01*
X249323Y83852D01*
X249339Y83743D01*
X249352Y83714D01*
X249358Y83683D01*
X249410Y83586D01*
X249455Y83487D01*
X249476Y83462D01*
X249491Y83434D01*
X249567Y83355D01*
X249638Y83272D01*
X249665Y83255D01*
X249688Y83231D01*
X249783Y83178D01*
X249874Y83118D01*
X249905Y83108D01*
X249933Y83092D01*
X250039Y83067D01*
X250144Y83035D01*
X250176Y83035D01*
X250207Y83028D01*
X250317Y83033D01*
X250426Y83032D01*
X250457Y83040D01*
X250489Y83042D01*
X250592Y83078D01*
X250698Y83107D01*
X250725Y83124D01*
X250756Y83134D01*
X250829Y83188D01*
X250938Y83255D01*
X250970Y83291D01*
X251005Y83316D01*
X253737Y86049D01*
X276952Y86049D01*
X277016Y86058D01*
X277080Y86057D01*
X277155Y86078D01*
X277231Y86089D01*
X277290Y86115D01*
X277352Y86132D01*
X277418Y86173D01*
X277488Y86205D01*
X277537Y86247D01*
X277592Y86280D01*
X277644Y86338D01*
X277702Y86388D01*
X277738Y86442D01*
X277781Y86490D01*
X277814Y86559D01*
X277857Y86624D01*
X277876Y86686D01*
X277904Y86743D01*
X277915Y86813D01*
X277939Y86894D01*
X277940Y86979D01*
X277951Y87048D01*
X277951Y139555D01*
X277938Y139650D01*
X277933Y139747D01*
X277918Y139790D01*
X277911Y139835D01*
X277872Y139922D01*
X277840Y140013D01*
X277815Y140047D01*
X277795Y140092D01*
X277712Y140189D01*
X277659Y140262D01*
X276701Y141219D01*
X276701Y144781D01*
X279219Y147299D01*
X282781Y147299D01*
X285299Y144781D01*
X285299Y141219D01*
X284341Y140262D01*
X284284Y140185D01*
X284219Y140114D01*
X284199Y140073D01*
X284172Y140036D01*
X284138Y139946D01*
X284096Y139860D01*
X284090Y139818D01*
X284073Y139773D01*
X284063Y139645D01*
X284049Y139555D01*
X284049Y84977D01*
X284062Y84882D01*
X284067Y84786D01*
X284082Y84742D01*
X284089Y84698D01*
X284128Y84610D01*
X284160Y84519D01*
X284185Y84485D01*
X284205Y84441D01*
X284288Y84343D01*
X284341Y84270D01*
X318170Y50441D01*
X318247Y50384D01*
X318318Y50319D01*
X318359Y50299D01*
X318396Y50272D01*
X318486Y50238D01*
X318572Y50196D01*
X318614Y50190D01*
X318660Y50173D01*
X318787Y50163D01*
X318877Y50149D01*
X346655Y50149D01*
X346750Y50162D01*
X346847Y50167D01*
X346890Y50182D01*
X346935Y50189D01*
X347022Y50228D01*
X347113Y50260D01*
X347147Y50285D01*
X347192Y50305D01*
X347289Y50388D01*
X347362Y50441D01*
X348219Y51299D01*
X351781Y51299D01*
X352738Y50341D01*
X352815Y50284D01*
X352886Y50219D01*
X352927Y50199D01*
X352964Y50172D01*
X353054Y50138D01*
X353140Y50096D01*
X353182Y50090D01*
X353227Y50073D01*
X353355Y50063D01*
X353445Y50049D01*
X366263Y50049D01*
X377399Y38913D01*
X377399Y37524D01*
X377412Y37429D01*
X377417Y37333D01*
X377432Y37290D01*
X377439Y37245D01*
X377478Y37157D01*
X377510Y37067D01*
X377535Y37032D01*
X377555Y36988D01*
X377638Y36891D01*
X377691Y36818D01*
X379451Y35058D01*
X379898Y33980D01*
X379914Y33952D01*
X379924Y33921D01*
X379986Y33831D01*
X380041Y33737D01*
X380065Y33715D01*
X380083Y33688D01*
X380167Y33619D01*
X380247Y33544D01*
X380276Y33529D01*
X380300Y33509D01*
X380401Y33466D01*
X380498Y33416D01*
X380530Y33410D01*
X380560Y33397D01*
X380668Y33384D01*
X380775Y33364D01*
X380808Y33367D01*
X380839Y33363D01*
X380947Y33380D01*
X381056Y33391D01*
X381086Y33403D01*
X381118Y33408D01*
X381217Y33455D01*
X381318Y33495D01*
X381343Y33515D01*
X381373Y33529D01*
X381454Y33602D01*
X381540Y33669D01*
X381559Y33695D01*
X381583Y33716D01*
X381630Y33794D01*
X381705Y33897D01*
X381722Y33943D01*
X381744Y33980D01*
X382149Y34958D01*
X383842Y36651D01*
X384616Y36972D01*
X384624Y36976D01*
X384634Y36979D01*
X384747Y37049D01*
X384859Y37115D01*
X384866Y37122D01*
X384874Y37127D01*
X384962Y37225D01*
X385052Y37321D01*
X385056Y37329D01*
X385063Y37336D01*
X385120Y37454D01*
X385180Y37572D01*
X385182Y37582D01*
X385186Y37590D01*
X385198Y37666D01*
X385232Y37849D01*
X385230Y37873D01*
X385233Y37895D01*
X385233Y122501D01*
X385220Y122596D01*
X385215Y122692D01*
X385200Y122735D01*
X385193Y122780D01*
X385154Y122867D01*
X385122Y122958D01*
X385097Y122993D01*
X385077Y123037D01*
X384994Y123134D01*
X384941Y123207D01*
X375457Y132691D01*
X375381Y132748D01*
X375309Y132813D01*
X375268Y132833D01*
X375232Y132860D01*
X375142Y132894D01*
X375055Y132936D01*
X375013Y132942D01*
X374968Y132959D01*
X374840Y132969D01*
X374751Y132983D01*
X338249Y132983D01*
X338154Y132970D01*
X338058Y132965D01*
X338015Y132950D01*
X337970Y132943D01*
X337883Y132904D01*
X337792Y132872D01*
X337757Y132847D01*
X337713Y132827D01*
X337616Y132744D01*
X337543Y132691D01*
X335591Y130739D01*
X335534Y130663D01*
X335469Y130591D01*
X335449Y130550D01*
X335422Y130514D01*
X335388Y130424D01*
X335346Y130337D01*
X335340Y130295D01*
X335323Y130250D01*
X335313Y130122D01*
X335299Y130033D01*
X335299Y128219D01*
X332781Y125701D01*
X329219Y125701D01*
X326701Y128219D01*
X326701Y131781D01*
X329219Y134299D01*
X333033Y134299D01*
X333128Y134312D01*
X333224Y134317D01*
X333267Y134332D01*
X333312Y134339D01*
X333399Y134378D01*
X333490Y134410D01*
X333525Y134435D01*
X333569Y134455D01*
X333666Y134538D01*
X333739Y134591D01*
X334941Y135793D01*
X334980Y135845D01*
X335026Y135890D01*
X335064Y135957D01*
X335111Y136019D01*
X335133Y136079D01*
X335165Y136135D01*
X335183Y136210D01*
X335210Y136283D01*
X335215Y136347D01*
X335230Y136410D01*
X335226Y136487D01*
X335232Y136564D01*
X335219Y136627D01*
X335216Y136691D01*
X335190Y136764D01*
X335174Y136840D01*
X335144Y136897D01*
X335123Y136958D01*
X335082Y137014D01*
X335042Y137089D01*
X334983Y137150D01*
X334941Y137207D01*
X334522Y137626D01*
X333739Y138409D01*
X333663Y138466D01*
X333591Y138531D01*
X333550Y138551D01*
X333514Y138578D01*
X333424Y138612D01*
X333337Y138654D01*
X333295Y138660D01*
X333250Y138677D01*
X333122Y138687D01*
X333033Y138701D01*
X329219Y138701D01*
X326701Y141219D01*
X326701Y144781D01*
X329219Y147299D01*
X332781Y147299D01*
X335299Y144781D01*
X335299Y142967D01*
X335312Y142872D01*
X335317Y142776D01*
X335332Y142733D01*
X335339Y142688D01*
X335378Y142601D01*
X335410Y142510D01*
X335435Y142475D01*
X335455Y142431D01*
X335538Y142334D01*
X335591Y142261D01*
X337374Y140478D01*
X337451Y140421D01*
X337522Y140356D01*
X337563Y140336D01*
X337599Y140309D01*
X337689Y140275D01*
X337776Y140233D01*
X337818Y140227D01*
X337863Y140209D01*
X337991Y140200D01*
X338080Y140186D01*
X377932Y140186D01*
X379406Y138712D01*
X389559Y128558D01*
X389585Y128539D01*
X389606Y128514D01*
X389698Y128454D01*
X389785Y128389D01*
X389815Y128377D01*
X389842Y128360D01*
X389947Y128328D01*
X390049Y128289D01*
X390081Y128287D01*
X390112Y128277D01*
X390221Y128276D01*
X390330Y128267D01*
X390362Y128274D01*
X390394Y128273D01*
X390499Y128303D01*
X390606Y128325D01*
X390635Y128340D01*
X390666Y128349D01*
X390759Y128406D01*
X390855Y128457D01*
X390878Y128480D01*
X390906Y128497D01*
X390979Y128578D01*
X391057Y128654D01*
X391073Y128682D01*
X391095Y128706D01*
X391142Y128804D01*
X391196Y128900D01*
X391204Y128931D01*
X391218Y128960D01*
X391232Y129049D01*
X391261Y129174D01*
X391259Y129222D01*
X391265Y129265D01*
X391265Y140774D01*
X391261Y140805D01*
X391263Y140838D01*
X391241Y140945D01*
X391225Y141053D01*
X391212Y141082D01*
X391206Y141114D01*
X391154Y141210D01*
X391109Y141310D01*
X391088Y141334D01*
X391073Y141363D01*
X390997Y141441D01*
X390926Y141524D01*
X390899Y141542D01*
X390876Y141565D01*
X390781Y141619D01*
X390690Y141678D01*
X390659Y141688D01*
X390631Y141704D01*
X390525Y141729D01*
X390420Y141761D01*
X390388Y141761D01*
X390356Y141769D01*
X390247Y141763D01*
X390138Y141765D01*
X390107Y141756D01*
X390075Y141754D01*
X389972Y141719D01*
X389909Y141701D01*
X386219Y141701D01*
X383701Y144219D01*
X383701Y147781D01*
X384198Y148277D01*
X384217Y148303D01*
X384242Y148324D01*
X384302Y148416D01*
X384367Y148503D01*
X384379Y148533D01*
X384396Y148560D01*
X384428Y148665D01*
X384467Y148767D01*
X384469Y148799D01*
X384479Y148830D01*
X384480Y148939D01*
X384489Y149048D01*
X384482Y149080D01*
X384483Y149112D01*
X384453Y149217D01*
X384431Y149324D01*
X384416Y149353D01*
X384407Y149384D01*
X384350Y149477D01*
X384299Y149573D01*
X384276Y149596D01*
X384259Y149624D01*
X384178Y149697D01*
X384102Y149775D01*
X384074Y149791D01*
X384050Y149813D01*
X383952Y149860D01*
X383857Y149914D01*
X383825Y149922D01*
X383796Y149936D01*
X383707Y149950D01*
X383582Y149979D01*
X383534Y149977D01*
X383492Y149983D01*
X354476Y149983D01*
X354381Y149970D01*
X354285Y149965D01*
X354242Y149950D01*
X354197Y149943D01*
X354110Y149904D01*
X354019Y149872D01*
X353984Y149847D01*
X353940Y149827D01*
X353843Y149744D01*
X353770Y149691D01*
X351781Y147701D01*
X348219Y147701D01*
X345701Y150219D01*
X345701Y153781D01*
X348219Y156299D01*
X351781Y156299D01*
X353770Y154309D01*
X353847Y154252D01*
X353918Y154187D01*
X353959Y154167D01*
X353995Y154140D01*
X354085Y154106D01*
X354172Y154064D01*
X354214Y154058D01*
X354259Y154041D01*
X354387Y154031D01*
X354476Y154017D01*
X391133Y154017D01*
X396841Y148309D01*
X398315Y146835D01*
X398315Y62951D01*
X398328Y62856D01*
X398333Y62760D01*
X398348Y62717D01*
X398355Y62672D01*
X398394Y62585D01*
X398426Y62494D01*
X398451Y62459D01*
X398471Y62415D01*
X398554Y62318D01*
X398607Y62245D01*
X400043Y60809D01*
X400119Y60752D01*
X400191Y60687D01*
X400232Y60667D01*
X400268Y60640D01*
X400358Y60606D01*
X400445Y60564D01*
X400487Y60558D01*
X400532Y60541D01*
X400660Y60531D01*
X400749Y60517D01*
X430335Y60517D01*
X438117Y52735D01*
X438117Y38666D01*
X438126Y38602D01*
X438125Y38538D01*
X438146Y38463D01*
X438157Y38387D01*
X438183Y38328D01*
X438200Y38266D01*
X438241Y38200D01*
X438273Y38130D01*
X438315Y38081D01*
X438348Y38026D01*
X438406Y37974D01*
X438456Y37916D01*
X438510Y37880D01*
X438558Y37837D01*
X438627Y37804D01*
X438692Y37761D01*
X438754Y37742D01*
X438811Y37714D01*
X438881Y37703D01*
X438962Y37679D01*
X439047Y37678D01*
X439116Y37667D01*
X439297Y37667D01*
X441508Y36751D01*
X441531Y36728D01*
X441557Y36708D01*
X441578Y36684D01*
X441670Y36624D01*
X441757Y36558D01*
X441787Y36547D01*
X441814Y36529D01*
X441919Y36497D01*
X442021Y36459D01*
X442053Y36456D01*
X442084Y36447D01*
X442193Y36445D01*
X442302Y36437D01*
X442334Y36443D01*
X442366Y36443D01*
X442471Y36472D01*
X442578Y36494D01*
X442607Y36510D01*
X442638Y36518D01*
X442731Y36576D01*
X442827Y36627D01*
X442850Y36649D01*
X442878Y36666D01*
X442951Y36747D01*
X443029Y36824D01*
X443045Y36852D01*
X443067Y36876D01*
X443114Y36974D01*
X443168Y37069D01*
X443176Y37100D01*
X443190Y37129D01*
X443204Y37219D01*
X443233Y37343D01*
X443231Y37392D01*
X443237Y37434D01*
X443237Y171238D01*
X443228Y171302D01*
X443229Y171366D01*
X443208Y171441D01*
X443197Y171517D01*
X443171Y171576D01*
X443154Y171638D01*
X443113Y171704D01*
X443081Y171774D01*
X443039Y171823D01*
X443006Y171878D01*
X442948Y171930D01*
X442898Y171988D01*
X442844Y172024D01*
X442796Y172067D01*
X442727Y172100D01*
X442662Y172143D01*
X442600Y172162D01*
X442543Y172190D01*
X442473Y172201D01*
X442392Y172225D01*
X442307Y172226D01*
X442238Y172237D01*
X322254Y172237D01*
X322223Y172233D01*
X322190Y172235D01*
X322083Y172213D01*
X321975Y172197D01*
X321946Y172184D01*
X321914Y172178D01*
X321818Y172126D01*
X321718Y172081D01*
X321694Y172060D01*
X321665Y172045D01*
X321587Y171969D01*
X321504Y171898D01*
X321486Y171871D01*
X321463Y171848D01*
X321409Y171753D01*
X321350Y171662D01*
X321340Y171631D01*
X321324Y171603D01*
X321299Y171497D01*
X321267Y171392D01*
X321267Y171360D01*
X321259Y171329D01*
X321265Y171219D01*
X321263Y171110D01*
X321272Y171079D01*
X321274Y171047D01*
X321309Y170944D01*
X321339Y170838D01*
X321356Y170811D01*
X321366Y170780D01*
X321419Y170707D01*
X321487Y170598D01*
X321523Y170566D01*
X321548Y170531D01*
X322770Y169309D01*
X322847Y169252D01*
X322918Y169187D01*
X322959Y169167D01*
X322996Y169140D01*
X323086Y169106D01*
X323172Y169064D01*
X323214Y169058D01*
X323259Y169041D01*
X323387Y169031D01*
X323477Y169017D01*
X323835Y169017D01*
X326543Y166309D01*
X326619Y166252D01*
X326691Y166187D01*
X326732Y166167D01*
X326768Y166140D01*
X326858Y166106D01*
X326945Y166064D01*
X326987Y166058D01*
X327032Y166041D01*
X327160Y166031D01*
X327249Y166017D01*
X413835Y166017D01*
X425261Y154591D01*
X425337Y154534D01*
X425409Y154469D01*
X425450Y154449D01*
X425486Y154422D01*
X425576Y154388D01*
X425663Y154346D01*
X425705Y154340D01*
X425750Y154323D01*
X425757Y154322D01*
X428299Y151781D01*
X428299Y148219D01*
X425781Y145701D01*
X422219Y145701D01*
X420207Y147714D01*
X420155Y147753D01*
X420110Y147799D01*
X420043Y147837D01*
X419981Y147883D01*
X419921Y147906D01*
X419865Y147938D01*
X419790Y147956D01*
X419717Y147983D01*
X419653Y147988D01*
X419591Y148003D01*
X419513Y147999D01*
X419436Y148005D01*
X419373Y147992D01*
X419309Y147988D01*
X419236Y147963D01*
X419160Y147947D01*
X419103Y147917D01*
X419042Y147896D01*
X418986Y147854D01*
X418911Y147815D01*
X418850Y147755D01*
X418793Y147714D01*
X416781Y145701D01*
X413219Y145701D01*
X410701Y148219D01*
X410701Y151781D01*
X412691Y153770D01*
X412748Y153847D01*
X412813Y153918D01*
X412833Y153959D01*
X412860Y153996D01*
X412894Y154086D01*
X412936Y154172D01*
X412942Y154214D01*
X412959Y154259D01*
X412969Y154387D01*
X412983Y154477D01*
X412983Y155751D01*
X412970Y155846D01*
X412965Y155942D01*
X412950Y155985D01*
X412943Y156030D01*
X412904Y156117D01*
X412872Y156208D01*
X412847Y156243D01*
X412827Y156287D01*
X412744Y156384D01*
X412691Y156457D01*
X410473Y158675D01*
X410397Y158732D01*
X410325Y158797D01*
X410284Y158817D01*
X410248Y158844D01*
X410158Y158878D01*
X410071Y158920D01*
X410029Y158926D01*
X409984Y158943D01*
X409856Y158953D01*
X409767Y158967D01*
X327233Y158967D01*
X327138Y158954D01*
X327042Y158949D01*
X326999Y158934D01*
X326954Y158927D01*
X326867Y158888D01*
X326776Y158856D01*
X326741Y158831D01*
X326697Y158811D01*
X326600Y158728D01*
X326527Y158675D01*
X323835Y155983D01*
X323477Y155983D01*
X323382Y155970D01*
X323285Y155965D01*
X323242Y155950D01*
X323197Y155943D01*
X323110Y155904D01*
X323019Y155872D01*
X322985Y155847D01*
X322940Y155827D01*
X322843Y155744D01*
X322770Y155691D01*
X320781Y153701D01*
X317219Y153701D01*
X314701Y156219D01*
X314701Y159781D01*
X316714Y161793D01*
X316753Y161845D01*
X316799Y161890D01*
X316837Y161957D01*
X316883Y162019D01*
X316906Y162079D01*
X316938Y162135D01*
X316956Y162210D01*
X316983Y162283D01*
X316988Y162347D01*
X317003Y162410D01*
X316999Y162487D01*
X317005Y162564D01*
X316992Y162627D01*
X316988Y162691D01*
X316963Y162764D01*
X316947Y162840D01*
X316917Y162897D01*
X316896Y162958D01*
X316854Y163014D01*
X316815Y163089D01*
X316755Y163150D01*
X316714Y163207D01*
X314701Y165219D01*
X314701Y168781D01*
X316452Y170531D01*
X316471Y170557D01*
X316496Y170578D01*
X316556Y170670D01*
X316621Y170757D01*
X316633Y170787D01*
X316650Y170814D01*
X316682Y170919D01*
X316721Y171021D01*
X316723Y171053D01*
X316733Y171084D01*
X316734Y171193D01*
X316743Y171302D01*
X316736Y171334D01*
X316737Y171366D01*
X316707Y171471D01*
X316685Y171578D01*
X316670Y171607D01*
X316661Y171638D01*
X316604Y171731D01*
X316553Y171827D01*
X316530Y171850D01*
X316513Y171878D01*
X316432Y171951D01*
X316356Y172029D01*
X316328Y172045D01*
X316304Y172067D01*
X316206Y172114D01*
X316111Y172168D01*
X316079Y172176D01*
X316050Y172190D01*
X315961Y172204D01*
X315836Y172233D01*
X315788Y172231D01*
X315746Y172237D01*
X172762Y172237D01*
X172698Y172228D01*
X172634Y172229D01*
X172559Y172208D01*
X172483Y172197D01*
X172424Y172171D01*
X172362Y172154D01*
X172296Y172113D01*
X172226Y172081D01*
X172177Y172039D01*
X172122Y172006D01*
X172070Y171948D01*
X172012Y171898D01*
X171976Y171844D01*
X171933Y171796D01*
X171900Y171727D01*
X171857Y171662D01*
X171838Y171600D01*
X171810Y171543D01*
X171799Y171473D01*
X171775Y171392D01*
X171774Y171307D01*
X171763Y171238D01*
X171763Y170467D01*
X171571Y170005D01*
X171552Y169930D01*
X171539Y169901D01*
X171533Y169855D01*
X171503Y169742D01*
X171503Y169737D01*
X171501Y169732D01*
X171504Y169649D01*
X171500Y169622D01*
X171506Y169581D01*
X171509Y169460D01*
X171510Y169455D01*
X171510Y169450D01*
X171537Y169369D01*
X171540Y169343D01*
X171557Y169307D01*
X171593Y169191D01*
X171596Y169187D01*
X171598Y169182D01*
X171646Y169111D01*
X171657Y169086D01*
X171684Y169055D01*
X171749Y168957D01*
X171754Y168953D01*
X171757Y168949D01*
X171821Y168896D01*
X171841Y168872D01*
X171879Y168847D01*
X171965Y168775D01*
X171970Y168773D01*
X171974Y168769D01*
X172047Y168738D01*
X172077Y168718D01*
X172128Y168703D01*
X172223Y168661D01*
X172228Y168660D01*
X172233Y168658D01*
X172306Y168649D01*
X172347Y168636D01*
X172404Y168636D01*
X172503Y168623D01*
X172508Y168624D01*
X172513Y168623D01*
X172597Y168637D01*
X172656Y168637D01*
X174510Y168931D01*
X182301Y168931D01*
X182301Y163834D01*
X182302Y163825D01*
X182301Y163815D01*
X182322Y163685D01*
X182341Y163555D01*
X182344Y163546D01*
X182346Y163537D01*
X182403Y163417D01*
X182457Y163298D01*
X182463Y163291D01*
X182467Y163282D01*
X182555Y163183D01*
X182640Y163084D01*
X182648Y163078D01*
X182654Y163071D01*
X182720Y163031D01*
X182876Y162929D01*
X182899Y162922D01*
X182918Y162911D01*
X183778Y162555D01*
X183819Y162524D01*
X183879Y162501D01*
X183935Y162469D01*
X184011Y162451D01*
X184083Y162424D01*
X184147Y162419D01*
X184210Y162404D01*
X184287Y162408D01*
X184364Y162402D01*
X184427Y162415D01*
X184492Y162419D01*
X184565Y162444D01*
X184640Y162460D01*
X184697Y162490D01*
X184758Y162511D01*
X184811Y162550D01*
X185682Y162911D01*
X185690Y162916D01*
X185700Y162918D01*
X185812Y162988D01*
X185925Y163054D01*
X185932Y163061D01*
X185940Y163066D01*
X186028Y163164D01*
X186118Y163260D01*
X186122Y163269D01*
X186129Y163276D01*
X186186Y163394D01*
X186246Y163512D01*
X186248Y163521D01*
X186252Y163529D01*
X186263Y163605D01*
X186298Y163789D01*
X186296Y163813D01*
X186299Y163834D01*
X186299Y168931D01*
X194090Y168931D01*
X195867Y168649D01*
X197578Y168093D01*
X199181Y167276D01*
X200637Y166219D01*
X201909Y164947D01*
X202966Y163491D01*
X203783Y161888D01*
X204339Y160177D01*
X204447Y159499D01*
X199300Y159499D01*
X199236Y159490D01*
X199172Y159491D01*
X199097Y159470D01*
X199021Y159459D01*
X198962Y159433D01*
X198900Y159416D01*
X198834Y159375D01*
X198764Y159343D01*
X198715Y159301D01*
X198660Y159268D01*
X198608Y159210D01*
X198550Y159160D01*
X198514Y159106D01*
X198471Y159058D01*
X198438Y158989D01*
X198395Y158924D01*
X198376Y158862D01*
X198348Y158805D01*
X198337Y158735D01*
X198313Y158654D01*
X198312Y158569D01*
X198301Y158500D01*
X198301Y156500D01*
X198310Y156436D01*
X198309Y156372D01*
X198330Y156297D01*
X198341Y156221D01*
X198367Y156162D01*
X198384Y156100D01*
X198425Y156034D01*
X198457Y155964D01*
X198499Y155915D01*
X198532Y155860D01*
X198590Y155808D01*
X198640Y155750D01*
X198694Y155714D01*
X198742Y155671D01*
X198811Y155638D01*
X198876Y155595D01*
X198938Y155576D01*
X198995Y155548D01*
X199065Y155537D01*
X199146Y155513D01*
X199231Y155512D01*
X199300Y155501D01*
X204447Y155501D01*
X204339Y154823D01*
X203783Y153112D01*
X202966Y151509D01*
X201909Y150053D01*
X200637Y148781D01*
X199181Y147724D01*
X197578Y146907D01*
X195867Y146351D01*
X194090Y146069D01*
X186299Y146069D01*
X186299Y151166D01*
X186298Y151175D01*
X186299Y151185D01*
X186278Y151315D01*
X186259Y151445D01*
X186256Y151454D01*
X186254Y151463D01*
X186197Y151582D01*
X186143Y151702D01*
X186137Y151709D01*
X186133Y151718D01*
X186045Y151816D01*
X185960Y151916D01*
X185952Y151922D01*
X185946Y151929D01*
X185880Y151969D01*
X185724Y152071D01*
X185701Y152078D01*
X185682Y152089D01*
X184823Y152445D01*
X184781Y152476D01*
X184721Y152499D01*
X184665Y152531D01*
X184590Y152549D01*
X184518Y152576D01*
X184453Y152581D01*
X184391Y152596D01*
X184313Y152592D01*
X184236Y152598D01*
X184173Y152585D01*
X184109Y152581D01*
X184036Y152556D01*
X183960Y152540D01*
X183903Y152510D01*
X183842Y152489D01*
X183790Y152450D01*
X182918Y152089D01*
X182909Y152084D01*
X182900Y152082D01*
X182788Y152012D01*
X182675Y151945D01*
X182668Y151939D01*
X182660Y151934D01*
X182572Y151836D01*
X182482Y151740D01*
X182478Y151731D01*
X182471Y151724D01*
X182414Y151605D01*
X182354Y151488D01*
X182352Y151479D01*
X182348Y151471D01*
X182336Y151395D01*
X182302Y151211D01*
X182304Y151187D01*
X182301Y151166D01*
X182301Y146069D01*
X174510Y146069D01*
X172733Y146351D01*
X171022Y146907D01*
X169419Y147724D01*
X167963Y148781D01*
X166691Y150053D01*
X165634Y151509D01*
X164817Y153112D01*
X164261Y154823D01*
X164153Y155501D01*
X169300Y155501D01*
X169364Y155510D01*
X169428Y155509D01*
X169503Y155530D01*
X169579Y155541D01*
X169638Y155567D01*
X169700Y155584D01*
X169766Y155625D01*
X169836Y155657D01*
X169885Y155699D01*
X169940Y155732D01*
X169992Y155790D01*
X170050Y155840D01*
X170086Y155894D01*
X170129Y155942D01*
X170162Y156011D01*
X170205Y156076D01*
X170224Y156138D01*
X170252Y156195D01*
X170263Y156265D01*
X170287Y156346D01*
X170288Y156431D01*
X170299Y156500D01*
X170299Y158500D01*
X170290Y158564D01*
X170291Y158628D01*
X170270Y158703D01*
X170259Y158779D01*
X170233Y158838D01*
X170216Y158900D01*
X170175Y158966D01*
X170143Y159036D01*
X170101Y159085D01*
X170068Y159140D01*
X170010Y159192D01*
X169960Y159250D01*
X169906Y159286D01*
X169858Y159329D01*
X169789Y159362D01*
X169724Y159405D01*
X169662Y159424D01*
X169605Y159452D01*
X169535Y159462D01*
X169454Y159487D01*
X169369Y159488D01*
X169300Y159499D01*
X165033Y159499D01*
X164938Y159486D01*
X164842Y159481D01*
X164799Y159466D01*
X164754Y159459D01*
X164667Y159420D01*
X164576Y159388D01*
X164541Y159363D01*
X164497Y159343D01*
X164400Y159260D01*
X164327Y159207D01*
X164062Y158942D01*
X157380Y156174D01*
X157371Y156169D01*
X157362Y156166D01*
X157250Y156097D01*
X157137Y156030D01*
X157130Y156023D01*
X157122Y156018D01*
X157034Y155920D01*
X156944Y155824D01*
X156940Y155816D01*
X156933Y155809D01*
X156876Y155690D01*
X156816Y155573D01*
X156814Y155564D01*
X156810Y155555D01*
X156798Y155479D01*
X156764Y155296D01*
X156766Y155272D01*
X156763Y155250D01*
X156763Y42762D01*
X156772Y42698D01*
X156771Y42634D01*
X156792Y42559D01*
X156803Y42483D01*
X156829Y42424D01*
X156846Y42362D01*
X156887Y42296D01*
X156919Y42226D01*
X156961Y42177D01*
X156994Y42122D01*
X157052Y42070D01*
X157102Y42012D01*
X157156Y41976D01*
X157204Y41933D01*
X157273Y41900D01*
X157338Y41857D01*
X157400Y41838D01*
X157457Y41810D01*
X157527Y41799D01*
X157608Y41775D01*
X157693Y41774D01*
X157714Y41770D01*
X164628Y38906D01*
X164741Y38793D01*
X164818Y38736D01*
X164889Y38671D01*
X164930Y38651D01*
X164967Y38624D01*
X165057Y38590D01*
X165143Y38548D01*
X165185Y38542D01*
X165231Y38525D01*
X165358Y38515D01*
X165448Y38501D01*
X169300Y38501D01*
X169364Y38510D01*
X169428Y38509D01*
X169503Y38530D01*
X169579Y38541D01*
X169638Y38567D01*
X169700Y38584D01*
X169766Y38625D01*
X169836Y38657D01*
X169885Y38699D01*
X169940Y38732D01*
X169992Y38790D01*
X170050Y38840D01*
X170086Y38894D01*
X170129Y38942D01*
X170162Y39011D01*
X170205Y39076D01*
X170224Y39138D01*
X170252Y39195D01*
X170263Y39265D01*
X170287Y39346D01*
X170288Y39431D01*
X170299Y39500D01*
X170299Y41500D01*
X170290Y41564D01*
X170291Y41628D01*
X170270Y41703D01*
X170259Y41779D01*
X170233Y41838D01*
X170216Y41900D01*
X170175Y41966D01*
X170143Y42036D01*
X170101Y42085D01*
X170068Y42140D01*
X170010Y42192D01*
X169960Y42250D01*
X169906Y42286D01*
X169858Y42329D01*
X169789Y42362D01*
X169724Y42405D01*
X169662Y42424D01*
X169605Y42452D01*
X169535Y42462D01*
X169454Y42487D01*
X169369Y42488D01*
X169300Y42499D01*
X164153Y42499D01*
X164169Y42596D01*
X164261Y43177D01*
X164817Y44888D01*
X165634Y46491D01*
X166691Y47947D01*
X167963Y49219D01*
X169419Y50276D01*
X171022Y51093D01*
X172733Y51649D01*
X174510Y51931D01*
X182301Y51931D01*
X182301Y46834D01*
X182302Y46825D01*
X182301Y46815D01*
X182322Y46685D01*
X182341Y46555D01*
X182344Y46546D01*
X182346Y46537D01*
X182403Y46417D01*
X182457Y46298D01*
X182463Y46291D01*
X182467Y46282D01*
X182555Y46183D01*
X182640Y46084D01*
X182648Y46078D01*
X182654Y46071D01*
X182720Y46031D01*
X182876Y45929D01*
X182899Y45922D01*
X182918Y45911D01*
X183778Y45555D01*
X183819Y45524D01*
X183879Y45501D01*
X183935Y45469D01*
X184011Y45451D01*
X184083Y45424D01*
X184147Y45419D01*
X184210Y45404D01*
X184287Y45408D01*
X184364Y45402D01*
X184427Y45415D01*
X184492Y45419D01*
X184565Y45444D01*
X184640Y45460D01*
X184697Y45490D01*
X184758Y45511D01*
X184811Y45550D01*
X185682Y45911D01*
X185690Y45916D01*
X185700Y45918D01*
X185812Y45988D01*
X185925Y46054D01*
X185932Y46061D01*
X185940Y46066D01*
X186028Y46164D01*
X186118Y46260D01*
X186122Y46269D01*
X186129Y46276D01*
X186186Y46394D01*
X186246Y46512D01*
X186248Y46521D01*
X186252Y46529D01*
X186263Y46605D01*
X186298Y46789D01*
X186296Y46813D01*
X186299Y46834D01*
X186299Y51931D01*
X194090Y51931D01*
X195867Y51649D01*
X197578Y51093D01*
X199181Y50276D01*
X200637Y49219D01*
X201909Y47947D01*
X202966Y46491D01*
X203783Y44888D01*
X204339Y43177D01*
X204447Y42499D01*
X199300Y42499D01*
X199236Y42490D01*
X199172Y42491D01*
X199097Y42470D01*
X199021Y42459D01*
X198962Y42433D01*
X198900Y42416D01*
X198834Y42375D01*
X198764Y42343D01*
X198715Y42301D01*
X198660Y42268D01*
X198608Y42210D01*
X198550Y42160D01*
X198514Y42106D01*
X198471Y42058D01*
X198438Y41989D01*
X198395Y41924D01*
X198376Y41862D01*
X198348Y41805D01*
X198337Y41735D01*
X198313Y41654D01*
X198312Y41569D01*
X198301Y41500D01*
X198301Y39500D01*
X198310Y39436D01*
X198309Y39372D01*
X198330Y39297D01*
X198341Y39221D01*
X198367Y39162D01*
X198384Y39100D01*
X198425Y39034D01*
X198457Y38964D01*
X198499Y38915D01*
X198532Y38860D01*
X198590Y38808D01*
X198640Y38750D01*
X198694Y38714D01*
X198742Y38671D01*
X198811Y38638D01*
X198876Y38595D01*
X198938Y38576D01*
X198995Y38548D01*
X199065Y38537D01*
X199146Y38513D01*
X199231Y38512D01*
X199300Y38501D01*
X204447Y38501D01*
X204339Y37823D01*
X203783Y36112D01*
X202966Y34509D01*
X201909Y33053D01*
X200637Y31781D01*
X199181Y30724D01*
X197578Y29907D01*
X195867Y29351D01*
X194090Y29069D01*
X186299Y29069D01*
X186299Y34166D01*
X186298Y34175D01*
X186299Y34185D01*
X186278Y34315D01*
X186259Y34445D01*
X186256Y34454D01*
X186254Y34463D01*
X186197Y34582D01*
X186143Y34702D01*
X186137Y34709D01*
X186133Y34718D01*
X186045Y34816D01*
X185960Y34916D01*
X185952Y34922D01*
X185946Y34929D01*
X185880Y34969D01*
X185724Y35071D01*
X185701Y35078D01*
X185682Y35089D01*
X184823Y35445D01*
X184781Y35476D01*
X184721Y35499D01*
X184665Y35531D01*
X184590Y35549D01*
X184518Y35576D01*
X184453Y35581D01*
X184391Y35596D01*
X184313Y35592D01*
X184236Y35598D01*
X184173Y35585D01*
X184109Y35581D01*
X184036Y35556D01*
X183960Y35540D01*
X183903Y35510D01*
X183842Y35489D01*
X183790Y35450D01*
X182918Y35089D01*
X182909Y35084D01*
X182900Y35082D01*
X182788Y35012D01*
X182675Y34945D01*
X182668Y34939D01*
X182660Y34934D01*
X182572Y34836D01*
X182482Y34740D01*
X182478Y34731D01*
X182471Y34724D01*
X182414Y34606D01*
X182354Y34488D01*
X182352Y34479D01*
X182348Y34471D01*
X182336Y34395D01*
X182302Y34211D01*
X182304Y34187D01*
X182301Y34166D01*
X182301Y29069D01*
X174510Y29069D01*
X173366Y29250D01*
X173310Y29251D01*
X173255Y29262D01*
X173170Y29254D01*
X173084Y29255D01*
X173030Y29240D01*
X172975Y29235D01*
X172895Y29203D01*
X172812Y29180D01*
X172765Y29151D01*
X172713Y29130D01*
X172645Y29077D01*
X172572Y29033D01*
X172534Y28991D01*
X172490Y28957D01*
X172440Y28887D01*
X172383Y28824D01*
X172358Y28773D01*
X172325Y28728D01*
X172297Y28647D01*
X172259Y28570D01*
X172249Y28515D01*
X172231Y28462D01*
X172226Y28377D01*
X172211Y28292D01*
X172217Y28237D01*
X172214Y28181D01*
X172232Y28106D01*
X172243Y28012D01*
X172272Y27943D01*
X172287Y27881D01*
X172769Y26716D01*
X172772Y26698D01*
X172771Y26634D01*
X172792Y26559D01*
X172803Y26483D01*
X172829Y26424D01*
X172846Y26362D01*
X172887Y26296D01*
X172919Y26226D01*
X172961Y26177D01*
X172994Y26122D01*
X173052Y26070D01*
X173102Y26012D01*
X173156Y25976D01*
X173204Y25933D01*
X173273Y25900D01*
X173338Y25857D01*
X173400Y25838D01*
X173457Y25810D01*
X173527Y25799D01*
X173608Y25775D01*
X173693Y25774D01*
X173762Y25763D01*
X354845Y25763D01*
X354920Y25773D01*
G37*
%LPC*%
G36*
X183508Y113999D02*
X183508Y113999D01*
X180751Y115141D01*
X178641Y117251D01*
X177499Y120008D01*
X177499Y122992D01*
X178641Y125749D01*
X180751Y127859D01*
X183508Y129001D01*
X186492Y129001D01*
X189249Y127859D01*
X191359Y125749D01*
X192501Y122992D01*
X192501Y120008D01*
X191359Y117251D01*
X189249Y115141D01*
X186492Y113999D01*
X183508Y113999D01*
G37*
%LPD*%
%LPC*%
G36*
X183508Y68999D02*
X183508Y68999D01*
X180751Y70141D01*
X178641Y72251D01*
X177499Y75008D01*
X177499Y77992D01*
X178641Y80749D01*
X180751Y82859D01*
X183508Y84001D01*
X186492Y84001D01*
X189249Y82859D01*
X191359Y80749D01*
X192501Y77992D01*
X192501Y75008D01*
X191359Y72251D01*
X189249Y70141D01*
X186492Y68999D01*
X183508Y68999D01*
G37*
%LPD*%
%LPC*%
G36*
X354559Y33649D02*
X354559Y33649D01*
X354599Y33850D01*
X355167Y35222D01*
X355993Y36457D01*
X357043Y37507D01*
X358278Y38333D01*
X359650Y38901D01*
X359851Y38941D01*
X359851Y33649D01*
X354559Y33649D01*
G37*
%LPD*%
D10*
X361850Y31650D03*
X374350Y31650D03*
X387250Y31550D03*
X399950Y31650D03*
X412650Y31750D03*
X425300Y31650D03*
X438100Y31650D03*
D11*
X193190Y157500D02*
X175410Y157500D01*
X175410Y40500D02*
X193190Y40500D01*
D12*
X264387Y97350D03*
X333900Y69600D03*
X333600Y80900D03*
X334000Y93000D03*
X439000Y120000D03*
X439000Y109000D03*
X439000Y98000D03*
X439000Y87000D03*
X439000Y76000D03*
X439000Y65000D03*
X334000Y104000D03*
X334000Y116000D03*
X295000Y82600D03*
X290400Y30400D03*
X262500Y124600D03*
X247700Y124600D03*
X298000Y94400D03*
X266000Y142000D03*
D13*
X255000Y117000D02*
X255000Y94000D01*
X255000Y117000D02*
X255000Y134000D01*
X263000Y142000D01*
X266000Y142000D01*
D12*
X245000Y117000D03*
D13*
X255000Y117000D01*
X255000Y94000D02*
X245000Y84000D01*
D12*
X245000Y84000D03*
X281000Y143000D03*
X350000Y47000D03*
D14*
X281000Y83300D02*
X281000Y143000D01*
X281000Y83300D02*
X281000Y83000D01*
X349900Y47100D02*
X350000Y47000D01*
X349900Y47100D02*
X317200Y47100D01*
X281000Y83300D01*
X350000Y47000D02*
X365000Y47000D01*
X374350Y37650D02*
X374350Y31650D01*
X374350Y37650D02*
X365000Y47000D01*
D12*
X246000Y75000D03*
D14*
X255000Y83000D02*
X281000Y83000D01*
X255000Y83000D02*
X247000Y75000D01*
X246000Y75000D01*
D12*
X235000Y35000D03*
D13*
X235000Y35126D01*
D12*
X214000Y35000D03*
D13*
X235000Y35000D01*
X214000Y35000D02*
X214000Y62000D01*
X227000Y75000D01*
X247000Y75000D01*
D12*
X424000Y150000D03*
X319000Y167000D03*
D15*
X326000Y164000D02*
X413000Y164000D01*
X326000Y164000D02*
X323000Y167000D01*
X319000Y167000D01*
X424000Y153000D02*
X424000Y150000D01*
X424000Y153000D02*
X413000Y164000D01*
D12*
X415000Y150000D03*
X319000Y158000D03*
D15*
X323000Y158000D01*
X325984Y160984D01*
X415000Y157000D02*
X415000Y150000D01*
X411016Y160984D02*
X325984Y160984D01*
X411016Y160984D02*
X415000Y157000D01*
D12*
X388000Y146000D03*
D15*
X389531Y146000D02*
X393282Y142249D01*
X389531Y146000D02*
X388000Y146000D01*
X393282Y142249D02*
X393282Y60453D01*
X398251Y55484D01*
X425300Y31650D02*
X433084Y39434D01*
X428251Y55484D02*
X398251Y55484D01*
X428251Y55484D02*
X433084Y50651D01*
X433084Y39434D01*
X396298Y61702D02*
X396298Y146000D01*
X429500Y58500D02*
X436100Y51900D01*
X399500Y58500D02*
X396298Y61702D01*
X399500Y58500D02*
X429500Y58500D01*
X436100Y51900D02*
X436100Y33650D01*
X438100Y31650D01*
D12*
X350000Y152000D03*
D15*
X390298Y152000D01*
X396298Y146000D01*
D12*
X426000Y47000D03*
D15*
X412650Y44650D02*
X412650Y31750D01*
X412650Y44650D02*
X415000Y47000D01*
X426000Y47000D01*
D12*
X331000Y143000D03*
D15*
X377096Y138169D02*
X390266Y124999D01*
X336831Y138169D02*
X332000Y143000D01*
X331000Y143000D01*
X336831Y138169D02*
X377096Y138169D01*
X390266Y41334D02*
X399950Y31650D01*
X390266Y41334D02*
X390266Y124999D01*
D12*
X331000Y130000D03*
D15*
X387250Y123750D02*
X387250Y31550D01*
X387250Y123750D02*
X376000Y135000D01*
X337000Y135000D01*
X332000Y130000D01*
X331000Y130000D01*
D12*
X236000Y44000D03*
X324000Y34000D03*
D15*
X295000Y44000D02*
X236000Y44000D01*
X305000Y34000D02*
X324000Y34000D01*
X305000Y34000D02*
X295000Y44000D01*
M02*
