G04 EAGLE Gerber RS-274X export*
G75*
%MOMM*%
%FSLAX34Y34*%
%LPD*%
%IN*%
%IPPOS*%
%AMOC8*
5,1,8,0,0,1.08239X$1,22.5*%
G01*
%ADD10C,0.254000*%


D10*
X80000Y13000D02*
X80061Y11606D01*
X80243Y10222D01*
X80545Y8859D01*
X80965Y7528D01*
X81499Y6238D01*
X82144Y5000D01*
X82894Y3823D01*
X83743Y2715D01*
X84686Y1686D01*
X85715Y743D01*
X86823Y-106D01*
X88000Y-856D01*
X89238Y-1501D01*
X90528Y-2035D01*
X91859Y-2455D01*
X93222Y-2757D01*
X94605Y-2939D01*
X96000Y-3000D01*
X372000Y-3000D01*
X372000Y149000D01*
X95000Y149000D01*
X93609Y148849D01*
X92237Y148578D01*
X90894Y148187D01*
X89590Y147682D01*
X88335Y147064D01*
X87138Y146340D01*
X86010Y145514D01*
X84957Y144593D01*
X83989Y143583D01*
X83112Y142493D01*
X82334Y141331D01*
X81660Y140105D01*
X81096Y138825D01*
X80645Y137501D01*
X80311Y136143D01*
X80097Y134761D01*
X80004Y133365D01*
X80000Y133000D01*
X80000Y13000D01*
X114500Y95191D02*
X114431Y94577D01*
X114293Y93975D01*
X114089Y93392D01*
X113821Y92835D01*
X113493Y92312D01*
X113108Y91829D01*
X112671Y91393D01*
X112188Y91007D01*
X111665Y90679D01*
X111108Y90411D01*
X110525Y90207D01*
X109923Y90069D01*
X109309Y90000D01*
X108691Y90000D01*
X108077Y90069D01*
X107475Y90207D01*
X106892Y90411D01*
X106335Y90679D01*
X105812Y91007D01*
X105329Y91393D01*
X104893Y91829D01*
X104507Y92312D01*
X104179Y92835D01*
X103911Y93392D01*
X103707Y93975D01*
X103569Y94577D01*
X103500Y95191D01*
X103500Y95809D01*
X103569Y96423D01*
X103707Y97025D01*
X103911Y97608D01*
X104179Y98165D01*
X104507Y98688D01*
X104893Y99171D01*
X105329Y99608D01*
X105812Y99993D01*
X106335Y100321D01*
X106892Y100589D01*
X107475Y100793D01*
X108077Y100931D01*
X108691Y101000D01*
X109309Y101000D01*
X109923Y100931D01*
X110525Y100793D01*
X111108Y100589D01*
X111665Y100321D01*
X112188Y99993D01*
X112671Y99608D01*
X113108Y99171D01*
X113493Y98688D01*
X113821Y98165D01*
X114089Y97608D01*
X114293Y97025D01*
X114431Y96423D01*
X114500Y95809D01*
X114500Y95191D01*
X114500Y50191D02*
X114431Y49577D01*
X114293Y48975D01*
X114089Y48392D01*
X113821Y47835D01*
X113493Y47312D01*
X113108Y46829D01*
X112671Y46393D01*
X112188Y46007D01*
X111665Y45679D01*
X111108Y45411D01*
X110525Y45207D01*
X109923Y45069D01*
X109309Y45000D01*
X108691Y45000D01*
X108077Y45069D01*
X107475Y45207D01*
X106892Y45411D01*
X106335Y45679D01*
X105812Y46007D01*
X105329Y46393D01*
X104893Y46829D01*
X104507Y47312D01*
X104179Y47835D01*
X103911Y48392D01*
X103707Y48975D01*
X103569Y49577D01*
X103500Y50191D01*
X103500Y50809D01*
X103569Y51423D01*
X103707Y52025D01*
X103911Y52608D01*
X104179Y53165D01*
X104507Y53688D01*
X104893Y54171D01*
X105329Y54608D01*
X105812Y54993D01*
X106335Y55321D01*
X106892Y55589D01*
X107475Y55793D01*
X108077Y55931D01*
X108691Y56000D01*
X109309Y56000D01*
X109923Y55931D01*
X110525Y55793D01*
X111108Y55589D01*
X111665Y55321D01*
X112188Y54993D01*
X112671Y54608D01*
X113108Y54171D01*
X113493Y53688D01*
X113821Y53165D01*
X114089Y52608D01*
X114293Y52025D01*
X114431Y51423D01*
X114500Y50809D01*
X114500Y50191D01*
X116300Y14238D02*
X116232Y13718D01*
X116096Y13211D01*
X115895Y12727D01*
X115633Y12273D01*
X115314Y11857D01*
X114943Y11486D01*
X114527Y11167D01*
X114073Y10905D01*
X113589Y10704D01*
X113082Y10568D01*
X112562Y10500D01*
X112038Y10500D01*
X111518Y10568D01*
X111011Y10704D01*
X110527Y10905D01*
X110073Y11167D01*
X109657Y11486D01*
X109286Y11857D01*
X108967Y12273D01*
X108705Y12727D01*
X108504Y13211D01*
X108368Y13718D01*
X108300Y14238D01*
X108300Y14762D01*
X108368Y15282D01*
X108504Y15789D01*
X108705Y16273D01*
X108967Y16727D01*
X109286Y17143D01*
X109657Y17514D01*
X110073Y17833D01*
X110527Y18095D01*
X111011Y18296D01*
X111518Y18432D01*
X112038Y18500D01*
X112562Y18500D01*
X113082Y18432D01*
X113589Y18296D01*
X114073Y18095D01*
X114527Y17833D01*
X114943Y17514D01*
X115314Y17143D01*
X115633Y16727D01*
X115895Y16273D01*
X116096Y15789D01*
X116232Y15282D01*
X116300Y14762D01*
X116300Y14238D01*
X120300Y14238D02*
X120232Y13718D01*
X120096Y13211D01*
X119895Y12727D01*
X119633Y12273D01*
X119314Y11857D01*
X118943Y11486D01*
X118527Y11167D01*
X118073Y10905D01*
X117589Y10704D01*
X117082Y10568D01*
X116562Y10500D01*
X116038Y10500D01*
X115518Y10568D01*
X115011Y10704D01*
X114527Y10905D01*
X114073Y11167D01*
X113657Y11486D01*
X113286Y11857D01*
X112967Y12273D01*
X112705Y12727D01*
X112504Y13211D01*
X112368Y13718D01*
X112300Y14238D01*
X112300Y14762D01*
X112368Y15282D01*
X112504Y15789D01*
X112705Y16273D01*
X112967Y16727D01*
X113286Y17143D01*
X113657Y17514D01*
X114073Y17833D01*
X114527Y18095D01*
X115011Y18296D01*
X115518Y18432D01*
X116038Y18500D01*
X116562Y18500D01*
X117082Y18432D01*
X117589Y18296D01*
X118073Y18095D01*
X118527Y17833D01*
X118943Y17514D01*
X119314Y17143D01*
X119633Y16727D01*
X119895Y16273D01*
X120096Y15789D01*
X120232Y15282D01*
X120300Y14762D01*
X120300Y14238D01*
X108300Y14238D02*
X108232Y13718D01*
X108096Y13211D01*
X107895Y12727D01*
X107633Y12273D01*
X107314Y11857D01*
X106943Y11486D01*
X106527Y11167D01*
X106073Y10905D01*
X105589Y10704D01*
X105082Y10568D01*
X104562Y10500D01*
X104038Y10500D01*
X103518Y10568D01*
X103011Y10704D01*
X102527Y10905D01*
X102073Y11167D01*
X101657Y11486D01*
X101286Y11857D01*
X100967Y12273D01*
X100705Y12727D01*
X100504Y13211D01*
X100368Y13718D01*
X100300Y14238D01*
X100300Y14762D01*
X100368Y15282D01*
X100504Y15789D01*
X100705Y16273D01*
X100967Y16727D01*
X101286Y17143D01*
X101657Y17514D01*
X102073Y17833D01*
X102527Y18095D01*
X103011Y18296D01*
X103518Y18432D01*
X104038Y18500D01*
X104562Y18500D01*
X105082Y18432D01*
X105589Y18296D01*
X106073Y18095D01*
X106527Y17833D01*
X106943Y17514D01*
X107314Y17143D01*
X107633Y16727D01*
X107895Y16273D01*
X108096Y15789D01*
X108232Y15282D01*
X108300Y14762D01*
X108300Y14238D01*
X104300Y14238D02*
X104232Y13718D01*
X104096Y13211D01*
X103895Y12727D01*
X103633Y12273D01*
X103314Y11857D01*
X102943Y11486D01*
X102527Y11167D01*
X102073Y10905D01*
X101589Y10704D01*
X101082Y10568D01*
X100562Y10500D01*
X100038Y10500D01*
X99518Y10568D01*
X99011Y10704D01*
X98527Y10905D01*
X98073Y11167D01*
X97657Y11486D01*
X97286Y11857D01*
X96967Y12273D01*
X96705Y12727D01*
X96504Y13211D01*
X96368Y13718D01*
X96300Y14238D01*
X96300Y14762D01*
X96368Y15282D01*
X96504Y15789D01*
X96705Y16273D01*
X96967Y16727D01*
X97286Y17143D01*
X97657Y17514D01*
X98073Y17833D01*
X98527Y18095D01*
X99011Y18296D01*
X99518Y18432D01*
X100038Y18500D01*
X100562Y18500D01*
X101082Y18432D01*
X101589Y18296D01*
X102073Y18095D01*
X102527Y17833D01*
X102943Y17514D01*
X103314Y17143D01*
X103633Y16727D01*
X103895Y16273D01*
X104096Y15789D01*
X104232Y15282D01*
X104300Y14762D01*
X104300Y14238D01*
X116300Y131238D02*
X116232Y130718D01*
X116096Y130211D01*
X115895Y129727D01*
X115633Y129273D01*
X115314Y128857D01*
X114943Y128486D01*
X114527Y128167D01*
X114073Y127905D01*
X113589Y127704D01*
X113082Y127568D01*
X112562Y127500D01*
X112038Y127500D01*
X111518Y127568D01*
X111011Y127704D01*
X110527Y127905D01*
X110073Y128167D01*
X109657Y128486D01*
X109286Y128857D01*
X108967Y129273D01*
X108705Y129727D01*
X108504Y130211D01*
X108368Y130718D01*
X108300Y131238D01*
X108300Y131762D01*
X108368Y132282D01*
X108504Y132789D01*
X108705Y133273D01*
X108967Y133727D01*
X109286Y134143D01*
X109657Y134514D01*
X110073Y134833D01*
X110527Y135095D01*
X111011Y135296D01*
X111518Y135432D01*
X112038Y135500D01*
X112562Y135500D01*
X113082Y135432D01*
X113589Y135296D01*
X114073Y135095D01*
X114527Y134833D01*
X114943Y134514D01*
X115314Y134143D01*
X115633Y133727D01*
X115895Y133273D01*
X116096Y132789D01*
X116232Y132282D01*
X116300Y131762D01*
X116300Y131238D01*
X120300Y131238D02*
X120232Y130718D01*
X120096Y130211D01*
X119895Y129727D01*
X119633Y129273D01*
X119314Y128857D01*
X118943Y128486D01*
X118527Y128167D01*
X118073Y127905D01*
X117589Y127704D01*
X117082Y127568D01*
X116562Y127500D01*
X116038Y127500D01*
X115518Y127568D01*
X115011Y127704D01*
X114527Y127905D01*
X114073Y128167D01*
X113657Y128486D01*
X113286Y128857D01*
X112967Y129273D01*
X112705Y129727D01*
X112504Y130211D01*
X112368Y130718D01*
X112300Y131238D01*
X112300Y131762D01*
X112368Y132282D01*
X112504Y132789D01*
X112705Y133273D01*
X112967Y133727D01*
X113286Y134143D01*
X113657Y134514D01*
X114073Y134833D01*
X114527Y135095D01*
X115011Y135296D01*
X115518Y135432D01*
X116038Y135500D01*
X116562Y135500D01*
X117082Y135432D01*
X117589Y135296D01*
X118073Y135095D01*
X118527Y134833D01*
X118943Y134514D01*
X119314Y134143D01*
X119633Y133727D01*
X119895Y133273D01*
X120096Y132789D01*
X120232Y132282D01*
X120300Y131762D01*
X120300Y131238D01*
X108300Y131238D02*
X108232Y130718D01*
X108096Y130211D01*
X107895Y129727D01*
X107633Y129273D01*
X107314Y128857D01*
X106943Y128486D01*
X106527Y128167D01*
X106073Y127905D01*
X105589Y127704D01*
X105082Y127568D01*
X104562Y127500D01*
X104038Y127500D01*
X103518Y127568D01*
X103011Y127704D01*
X102527Y127905D01*
X102073Y128167D01*
X101657Y128486D01*
X101286Y128857D01*
X100967Y129273D01*
X100705Y129727D01*
X100504Y130211D01*
X100368Y130718D01*
X100300Y131238D01*
X100300Y131762D01*
X100368Y132282D01*
X100504Y132789D01*
X100705Y133273D01*
X100967Y133727D01*
X101286Y134143D01*
X101657Y134514D01*
X102073Y134833D01*
X102527Y135095D01*
X103011Y135296D01*
X103518Y135432D01*
X104038Y135500D01*
X104562Y135500D01*
X105082Y135432D01*
X105589Y135296D01*
X106073Y135095D01*
X106527Y134833D01*
X106943Y134514D01*
X107314Y134143D01*
X107633Y133727D01*
X107895Y133273D01*
X108096Y132789D01*
X108232Y132282D01*
X108300Y131762D01*
X108300Y131238D01*
X104300Y131238D02*
X104232Y130718D01*
X104096Y130211D01*
X103895Y129727D01*
X103633Y129273D01*
X103314Y128857D01*
X102943Y128486D01*
X102527Y128167D01*
X102073Y127905D01*
X101589Y127704D01*
X101082Y127568D01*
X100562Y127500D01*
X100038Y127500D01*
X99518Y127568D01*
X99011Y127704D01*
X98527Y127905D01*
X98073Y128167D01*
X97657Y128486D01*
X97286Y128857D01*
X96967Y129273D01*
X96705Y129727D01*
X96504Y130211D01*
X96368Y130718D01*
X96300Y131238D01*
X96300Y131762D01*
X96368Y132282D01*
X96504Y132789D01*
X96705Y133273D01*
X96967Y133727D01*
X97286Y134143D01*
X97657Y134514D01*
X98073Y134833D01*
X98527Y135095D01*
X99011Y135296D01*
X99518Y135432D01*
X100038Y135500D01*
X100562Y135500D01*
X101082Y135432D01*
X101589Y135296D01*
X102073Y135095D01*
X102527Y134833D01*
X102943Y134514D01*
X103314Y134143D01*
X103633Y133727D01*
X103895Y133273D01*
X104096Y132789D01*
X104232Y132282D01*
X104300Y131762D01*
X104300Y131238D01*
M02*
