G04 EAGLE Gerber RS-274X export*
G75*
%MOMM*%
%FSLAX34Y34*%
%LPD*%
%IN*%
%IPPOS*%
%AMOC8*
5,1,8,0,0,1.08239X$1,22.5*%
G01*
%ADD10C,0.254000*%


D10*
X154000Y39000D02*
X155395Y38939D01*
X156778Y38757D01*
X158141Y38455D01*
X159472Y38035D01*
X160762Y37501D01*
X162000Y36856D01*
X163177Y36106D01*
X164285Y35257D01*
X165314Y34314D01*
X166257Y33285D01*
X167106Y32177D01*
X167856Y31000D01*
X168501Y29762D01*
X169035Y28472D01*
X169455Y27141D01*
X169757Y25778D01*
X169939Y24395D01*
X170000Y23000D01*
X446000Y23000D01*
X446000Y175000D01*
X169000Y175000D01*
X169000Y174000D01*
X168943Y172693D01*
X168772Y171395D01*
X168489Y170118D01*
X168095Y168870D01*
X167595Y167661D01*
X166990Y166500D01*
X166287Y165396D01*
X165491Y164358D01*
X164607Y163393D01*
X163642Y162509D01*
X162604Y161713D01*
X161500Y161010D01*
X160339Y160405D01*
X159130Y159905D01*
X157882Y159511D01*
X156605Y159228D01*
X155307Y159057D01*
X154000Y159000D01*
X154000Y39000D01*
X190500Y121191D02*
X190431Y120577D01*
X190293Y119975D01*
X190089Y119392D01*
X189821Y118835D01*
X189493Y118312D01*
X189108Y117829D01*
X188671Y117393D01*
X188188Y117007D01*
X187665Y116679D01*
X187108Y116411D01*
X186525Y116207D01*
X185923Y116069D01*
X185309Y116000D01*
X184691Y116000D01*
X184077Y116069D01*
X183475Y116207D01*
X182892Y116411D01*
X182335Y116679D01*
X181812Y117007D01*
X181329Y117393D01*
X180893Y117829D01*
X180507Y118312D01*
X180179Y118835D01*
X179911Y119392D01*
X179707Y119975D01*
X179569Y120577D01*
X179500Y121191D01*
X179500Y121809D01*
X179569Y122423D01*
X179707Y123025D01*
X179911Y123608D01*
X180179Y124165D01*
X180507Y124688D01*
X180893Y125171D01*
X181329Y125608D01*
X181812Y125993D01*
X182335Y126321D01*
X182892Y126589D01*
X183475Y126793D01*
X184077Y126931D01*
X184691Y127000D01*
X185309Y127000D01*
X185923Y126931D01*
X186525Y126793D01*
X187108Y126589D01*
X187665Y126321D01*
X188188Y125993D01*
X188671Y125608D01*
X189108Y125171D01*
X189493Y124688D01*
X189821Y124165D01*
X190089Y123608D01*
X190293Y123025D01*
X190431Y122423D01*
X190500Y121809D01*
X190500Y121191D01*
X190500Y76191D02*
X190431Y75577D01*
X190293Y74975D01*
X190089Y74392D01*
X189821Y73835D01*
X189493Y73312D01*
X189108Y72829D01*
X188671Y72393D01*
X188188Y72007D01*
X187665Y71679D01*
X187108Y71411D01*
X186525Y71207D01*
X185923Y71069D01*
X185309Y71000D01*
X184691Y71000D01*
X184077Y71069D01*
X183475Y71207D01*
X182892Y71411D01*
X182335Y71679D01*
X181812Y72007D01*
X181329Y72393D01*
X180893Y72829D01*
X180507Y73312D01*
X180179Y73835D01*
X179911Y74392D01*
X179707Y74975D01*
X179569Y75577D01*
X179500Y76191D01*
X179500Y76809D01*
X179569Y77423D01*
X179707Y78025D01*
X179911Y78608D01*
X180179Y79165D01*
X180507Y79688D01*
X180893Y80171D01*
X181329Y80608D01*
X181812Y80993D01*
X182335Y81321D01*
X182892Y81589D01*
X183475Y81793D01*
X184077Y81931D01*
X184691Y82000D01*
X185309Y82000D01*
X185923Y81931D01*
X186525Y81793D01*
X187108Y81589D01*
X187665Y81321D01*
X188188Y80993D01*
X188671Y80608D01*
X189108Y80171D01*
X189493Y79688D01*
X189821Y79165D01*
X190089Y78608D01*
X190293Y78025D01*
X190431Y77423D01*
X190500Y76809D01*
X190500Y76191D01*
X192300Y40238D02*
X192232Y39718D01*
X192096Y39211D01*
X191895Y38727D01*
X191633Y38273D01*
X191314Y37857D01*
X190943Y37486D01*
X190527Y37167D01*
X190073Y36905D01*
X189589Y36704D01*
X189082Y36568D01*
X188562Y36500D01*
X188038Y36500D01*
X187518Y36568D01*
X187011Y36704D01*
X186527Y36905D01*
X186073Y37167D01*
X185657Y37486D01*
X185286Y37857D01*
X184967Y38273D01*
X184705Y38727D01*
X184504Y39211D01*
X184368Y39718D01*
X184300Y40238D01*
X184300Y40762D01*
X184368Y41282D01*
X184504Y41789D01*
X184705Y42273D01*
X184967Y42727D01*
X185286Y43143D01*
X185657Y43514D01*
X186073Y43833D01*
X186527Y44095D01*
X187011Y44296D01*
X187518Y44432D01*
X188038Y44500D01*
X188562Y44500D01*
X189082Y44432D01*
X189589Y44296D01*
X190073Y44095D01*
X190527Y43833D01*
X190943Y43514D01*
X191314Y43143D01*
X191633Y42727D01*
X191895Y42273D01*
X192096Y41789D01*
X192232Y41282D01*
X192300Y40762D01*
X192300Y40238D01*
X196300Y40238D02*
X196232Y39718D01*
X196096Y39211D01*
X195895Y38727D01*
X195633Y38273D01*
X195314Y37857D01*
X194943Y37486D01*
X194527Y37167D01*
X194073Y36905D01*
X193589Y36704D01*
X193082Y36568D01*
X192562Y36500D01*
X192038Y36500D01*
X191518Y36568D01*
X191011Y36704D01*
X190527Y36905D01*
X190073Y37167D01*
X189657Y37486D01*
X189286Y37857D01*
X188967Y38273D01*
X188705Y38727D01*
X188504Y39211D01*
X188368Y39718D01*
X188300Y40238D01*
X188300Y40762D01*
X188368Y41282D01*
X188504Y41789D01*
X188705Y42273D01*
X188967Y42727D01*
X189286Y43143D01*
X189657Y43514D01*
X190073Y43833D01*
X190527Y44095D01*
X191011Y44296D01*
X191518Y44432D01*
X192038Y44500D01*
X192562Y44500D01*
X193082Y44432D01*
X193589Y44296D01*
X194073Y44095D01*
X194527Y43833D01*
X194943Y43514D01*
X195314Y43143D01*
X195633Y42727D01*
X195895Y42273D01*
X196096Y41789D01*
X196232Y41282D01*
X196300Y40762D01*
X196300Y40238D01*
X184300Y40238D02*
X184232Y39718D01*
X184096Y39211D01*
X183895Y38727D01*
X183633Y38273D01*
X183314Y37857D01*
X182943Y37486D01*
X182527Y37167D01*
X182073Y36905D01*
X181589Y36704D01*
X181082Y36568D01*
X180562Y36500D01*
X180038Y36500D01*
X179518Y36568D01*
X179011Y36704D01*
X178527Y36905D01*
X178073Y37167D01*
X177657Y37486D01*
X177286Y37857D01*
X176967Y38273D01*
X176705Y38727D01*
X176504Y39211D01*
X176368Y39718D01*
X176300Y40238D01*
X176300Y40762D01*
X176368Y41282D01*
X176504Y41789D01*
X176705Y42273D01*
X176967Y42727D01*
X177286Y43143D01*
X177657Y43514D01*
X178073Y43833D01*
X178527Y44095D01*
X179011Y44296D01*
X179518Y44432D01*
X180038Y44500D01*
X180562Y44500D01*
X181082Y44432D01*
X181589Y44296D01*
X182073Y44095D01*
X182527Y43833D01*
X182943Y43514D01*
X183314Y43143D01*
X183633Y42727D01*
X183895Y42273D01*
X184096Y41789D01*
X184232Y41282D01*
X184300Y40762D01*
X184300Y40238D01*
X180300Y40238D02*
X180232Y39718D01*
X180096Y39211D01*
X179895Y38727D01*
X179633Y38273D01*
X179314Y37857D01*
X178943Y37486D01*
X178527Y37167D01*
X178073Y36905D01*
X177589Y36704D01*
X177082Y36568D01*
X176562Y36500D01*
X176038Y36500D01*
X175518Y36568D01*
X175011Y36704D01*
X174527Y36905D01*
X174073Y37167D01*
X173657Y37486D01*
X173286Y37857D01*
X172967Y38273D01*
X172705Y38727D01*
X172504Y39211D01*
X172368Y39718D01*
X172300Y40238D01*
X172300Y40762D01*
X172368Y41282D01*
X172504Y41789D01*
X172705Y42273D01*
X172967Y42727D01*
X173286Y43143D01*
X173657Y43514D01*
X174073Y43833D01*
X174527Y44095D01*
X175011Y44296D01*
X175518Y44432D01*
X176038Y44500D01*
X176562Y44500D01*
X177082Y44432D01*
X177589Y44296D01*
X178073Y44095D01*
X178527Y43833D01*
X178943Y43514D01*
X179314Y43143D01*
X179633Y42727D01*
X179895Y42273D01*
X180096Y41789D01*
X180232Y41282D01*
X180300Y40762D01*
X180300Y40238D01*
X192300Y157238D02*
X192232Y156718D01*
X192096Y156211D01*
X191895Y155727D01*
X191633Y155273D01*
X191314Y154857D01*
X190943Y154486D01*
X190527Y154167D01*
X190073Y153905D01*
X189589Y153704D01*
X189082Y153568D01*
X188562Y153500D01*
X188038Y153500D01*
X187518Y153568D01*
X187011Y153704D01*
X186527Y153905D01*
X186073Y154167D01*
X185657Y154486D01*
X185286Y154857D01*
X184967Y155273D01*
X184705Y155727D01*
X184504Y156211D01*
X184368Y156718D01*
X184300Y157238D01*
X184300Y157762D01*
X184368Y158282D01*
X184504Y158789D01*
X184705Y159273D01*
X184967Y159727D01*
X185286Y160143D01*
X185657Y160514D01*
X186073Y160833D01*
X186527Y161095D01*
X187011Y161296D01*
X187518Y161432D01*
X188038Y161500D01*
X188562Y161500D01*
X189082Y161432D01*
X189589Y161296D01*
X190073Y161095D01*
X190527Y160833D01*
X190943Y160514D01*
X191314Y160143D01*
X191633Y159727D01*
X191895Y159273D01*
X192096Y158789D01*
X192232Y158282D01*
X192300Y157762D01*
X192300Y157238D01*
X196300Y157238D02*
X196232Y156718D01*
X196096Y156211D01*
X195895Y155727D01*
X195633Y155273D01*
X195314Y154857D01*
X194943Y154486D01*
X194527Y154167D01*
X194073Y153905D01*
X193589Y153704D01*
X193082Y153568D01*
X192562Y153500D01*
X192038Y153500D01*
X191518Y153568D01*
X191011Y153704D01*
X190527Y153905D01*
X190073Y154167D01*
X189657Y154486D01*
X189286Y154857D01*
X188967Y155273D01*
X188705Y155727D01*
X188504Y156211D01*
X188368Y156718D01*
X188300Y157238D01*
X188300Y157762D01*
X188368Y158282D01*
X188504Y158789D01*
X188705Y159273D01*
X188967Y159727D01*
X189286Y160143D01*
X189657Y160514D01*
X190073Y160833D01*
X190527Y161095D01*
X191011Y161296D01*
X191518Y161432D01*
X192038Y161500D01*
X192562Y161500D01*
X193082Y161432D01*
X193589Y161296D01*
X194073Y161095D01*
X194527Y160833D01*
X194943Y160514D01*
X195314Y160143D01*
X195633Y159727D01*
X195895Y159273D01*
X196096Y158789D01*
X196232Y158282D01*
X196300Y157762D01*
X196300Y157238D01*
X184300Y157238D02*
X184232Y156718D01*
X184096Y156211D01*
X183895Y155727D01*
X183633Y155273D01*
X183314Y154857D01*
X182943Y154486D01*
X182527Y154167D01*
X182073Y153905D01*
X181589Y153704D01*
X181082Y153568D01*
X180562Y153500D01*
X180038Y153500D01*
X179518Y153568D01*
X179011Y153704D01*
X178527Y153905D01*
X178073Y154167D01*
X177657Y154486D01*
X177286Y154857D01*
X176967Y155273D01*
X176705Y155727D01*
X176504Y156211D01*
X176368Y156718D01*
X176300Y157238D01*
X176300Y157762D01*
X176368Y158282D01*
X176504Y158789D01*
X176705Y159273D01*
X176967Y159727D01*
X177286Y160143D01*
X177657Y160514D01*
X178073Y160833D01*
X178527Y161095D01*
X179011Y161296D01*
X179518Y161432D01*
X180038Y161500D01*
X180562Y161500D01*
X181082Y161432D01*
X181589Y161296D01*
X182073Y161095D01*
X182527Y160833D01*
X182943Y160514D01*
X183314Y160143D01*
X183633Y159727D01*
X183895Y159273D01*
X184096Y158789D01*
X184232Y158282D01*
X184300Y157762D01*
X184300Y157238D01*
X180300Y157238D02*
X180232Y156718D01*
X180096Y156211D01*
X179895Y155727D01*
X179633Y155273D01*
X179314Y154857D01*
X178943Y154486D01*
X178527Y154167D01*
X178073Y153905D01*
X177589Y153704D01*
X177082Y153568D01*
X176562Y153500D01*
X176038Y153500D01*
X175518Y153568D01*
X175011Y153704D01*
X174527Y153905D01*
X174073Y154167D01*
X173657Y154486D01*
X173286Y154857D01*
X172967Y155273D01*
X172705Y155727D01*
X172504Y156211D01*
X172368Y156718D01*
X172300Y157238D01*
X172300Y157762D01*
X172368Y158282D01*
X172504Y158789D01*
X172705Y159273D01*
X172967Y159727D01*
X173286Y160143D01*
X173657Y160514D01*
X174073Y160833D01*
X174527Y161095D01*
X175011Y161296D01*
X175518Y161432D01*
X176038Y161500D01*
X176562Y161500D01*
X177082Y161432D01*
X177589Y161296D01*
X178073Y161095D01*
X178527Y160833D01*
X178943Y160514D01*
X179314Y160143D01*
X179633Y159727D01*
X179895Y159273D01*
X180096Y158789D01*
X180232Y158282D01*
X180300Y157762D01*
X180300Y157238D01*
M02*
