G04 EAGLE Gerber RS-274X export*
G75*
%MOMM*%
%FSLAX34Y34*%
%LPD*%
%INSilkscreen Bottom*%
%IPPOS*%
%AMOC8*
5,1,8,0,0,1.08239X$1,22.5*%
G01*
%ADD10C,0.076200*%
%ADD11C,0.127000*%
%ADD12C,0.152400*%
%ADD13C,0.203200*%


D10*
X400174Y58704D02*
X400174Y51394D01*
X400176Y51305D01*
X400182Y51217D01*
X400191Y51129D01*
X400204Y51041D01*
X400221Y50954D01*
X400241Y50868D01*
X400266Y50783D01*
X400293Y50698D01*
X400325Y50615D01*
X400359Y50534D01*
X400398Y50454D01*
X400439Y50376D01*
X400484Y50299D01*
X400532Y50225D01*
X400583Y50152D01*
X400637Y50082D01*
X400695Y50015D01*
X400755Y49949D01*
X400817Y49887D01*
X400883Y49827D01*
X400950Y49769D01*
X401020Y49715D01*
X401093Y49664D01*
X401167Y49616D01*
X401244Y49571D01*
X401322Y49530D01*
X401402Y49491D01*
X401483Y49457D01*
X401566Y49425D01*
X401651Y49398D01*
X401736Y49373D01*
X401822Y49353D01*
X401909Y49336D01*
X401997Y49323D01*
X402085Y49314D01*
X402173Y49308D01*
X402262Y49306D01*
X403307Y49306D01*
X395660Y49306D02*
X395660Y58704D01*
X395660Y49306D02*
X391483Y49306D01*
X385995Y49306D02*
X383906Y49306D01*
X385995Y49306D02*
X386084Y49308D01*
X386172Y49314D01*
X386260Y49323D01*
X386348Y49336D01*
X386435Y49353D01*
X386521Y49373D01*
X386606Y49398D01*
X386691Y49425D01*
X386774Y49457D01*
X386855Y49491D01*
X386935Y49530D01*
X387013Y49571D01*
X387090Y49616D01*
X387164Y49664D01*
X387237Y49715D01*
X387307Y49769D01*
X387374Y49827D01*
X387440Y49887D01*
X387502Y49949D01*
X387562Y50015D01*
X387620Y50082D01*
X387674Y50152D01*
X387725Y50225D01*
X387773Y50299D01*
X387818Y50376D01*
X387859Y50454D01*
X387898Y50534D01*
X387932Y50615D01*
X387964Y50698D01*
X387991Y50783D01*
X388016Y50868D01*
X388036Y50954D01*
X388053Y51041D01*
X388066Y51129D01*
X388075Y51217D01*
X388081Y51305D01*
X388083Y51394D01*
X388083Y56616D01*
X388081Y56705D01*
X388075Y56793D01*
X388066Y56881D01*
X388053Y56969D01*
X388036Y57056D01*
X388016Y57142D01*
X387991Y57227D01*
X387964Y57312D01*
X387932Y57395D01*
X387898Y57476D01*
X387859Y57556D01*
X387818Y57634D01*
X387773Y57711D01*
X387725Y57785D01*
X387674Y57858D01*
X387620Y57928D01*
X387562Y57995D01*
X387502Y58061D01*
X387440Y58123D01*
X387374Y58183D01*
X387307Y58241D01*
X387237Y58295D01*
X387164Y58346D01*
X387090Y58394D01*
X387013Y58439D01*
X386935Y58480D01*
X386855Y58519D01*
X386774Y58553D01*
X386691Y58585D01*
X386606Y58612D01*
X386521Y58637D01*
X386435Y58657D01*
X386348Y58674D01*
X386260Y58687D01*
X386172Y58696D01*
X386084Y58702D01*
X385995Y58704D01*
X383906Y58704D01*
X378228Y58704D02*
X378228Y51394D01*
X378229Y51394D02*
X378231Y51305D01*
X378237Y51217D01*
X378246Y51129D01*
X378259Y51041D01*
X378276Y50954D01*
X378296Y50868D01*
X378321Y50783D01*
X378348Y50698D01*
X378380Y50615D01*
X378414Y50534D01*
X378453Y50454D01*
X378494Y50376D01*
X378539Y50299D01*
X378587Y50225D01*
X378638Y50152D01*
X378692Y50082D01*
X378750Y50015D01*
X378810Y49949D01*
X378872Y49887D01*
X378938Y49827D01*
X379005Y49769D01*
X379075Y49715D01*
X379148Y49664D01*
X379222Y49616D01*
X379299Y49571D01*
X379377Y49530D01*
X379457Y49491D01*
X379538Y49457D01*
X379621Y49425D01*
X379706Y49398D01*
X379791Y49373D01*
X379877Y49353D01*
X379964Y49336D01*
X380052Y49323D01*
X380140Y49314D01*
X380228Y49308D01*
X380317Y49306D01*
X381361Y49306D01*
X373714Y49306D02*
X373714Y58704D01*
X373714Y49306D02*
X369538Y49306D01*
X364049Y49306D02*
X361961Y49306D01*
X364049Y49306D02*
X364138Y49308D01*
X364226Y49314D01*
X364314Y49323D01*
X364402Y49336D01*
X364489Y49353D01*
X364575Y49373D01*
X364660Y49398D01*
X364745Y49425D01*
X364828Y49457D01*
X364909Y49491D01*
X364989Y49530D01*
X365067Y49571D01*
X365144Y49616D01*
X365218Y49664D01*
X365291Y49715D01*
X365361Y49769D01*
X365428Y49827D01*
X365494Y49887D01*
X365556Y49949D01*
X365616Y50015D01*
X365674Y50082D01*
X365728Y50152D01*
X365779Y50225D01*
X365827Y50299D01*
X365872Y50376D01*
X365913Y50454D01*
X365952Y50534D01*
X365986Y50615D01*
X366018Y50698D01*
X366045Y50783D01*
X366070Y50868D01*
X366090Y50954D01*
X366107Y51041D01*
X366120Y51129D01*
X366129Y51217D01*
X366135Y51305D01*
X366137Y51394D01*
X366138Y51394D02*
X366138Y56616D01*
X366137Y56616D02*
X366135Y56705D01*
X366129Y56793D01*
X366120Y56881D01*
X366107Y56969D01*
X366090Y57056D01*
X366070Y57142D01*
X366045Y57227D01*
X366018Y57312D01*
X365986Y57395D01*
X365952Y57476D01*
X365913Y57556D01*
X365872Y57634D01*
X365827Y57711D01*
X365779Y57785D01*
X365728Y57858D01*
X365674Y57928D01*
X365616Y57995D01*
X365556Y58061D01*
X365494Y58123D01*
X365428Y58183D01*
X365361Y58241D01*
X365291Y58295D01*
X365218Y58346D01*
X365144Y58394D01*
X365067Y58439D01*
X364989Y58480D01*
X364909Y58519D01*
X364828Y58553D01*
X364745Y58585D01*
X364660Y58612D01*
X364575Y58637D01*
X364489Y58657D01*
X364402Y58674D01*
X364314Y58687D01*
X364226Y58696D01*
X364138Y58702D01*
X364049Y58704D01*
X361961Y58704D01*
X356283Y58704D02*
X356283Y51394D01*
X356285Y51305D01*
X356291Y51217D01*
X356300Y51129D01*
X356313Y51041D01*
X356330Y50954D01*
X356350Y50868D01*
X356375Y50783D01*
X356402Y50698D01*
X356434Y50615D01*
X356468Y50534D01*
X356507Y50454D01*
X356548Y50376D01*
X356593Y50299D01*
X356641Y50225D01*
X356692Y50152D01*
X356746Y50082D01*
X356804Y50015D01*
X356864Y49949D01*
X356926Y49887D01*
X356992Y49827D01*
X357059Y49769D01*
X357129Y49715D01*
X357202Y49664D01*
X357276Y49616D01*
X357353Y49571D01*
X357431Y49530D01*
X357511Y49491D01*
X357592Y49457D01*
X357675Y49425D01*
X357760Y49398D01*
X357845Y49373D01*
X357931Y49353D01*
X358018Y49336D01*
X358106Y49323D01*
X358194Y49314D01*
X358282Y49308D01*
X358371Y49306D01*
X359416Y49306D01*
X351769Y49306D02*
X351769Y58704D01*
X351769Y49306D02*
X347592Y49306D01*
X342104Y49306D02*
X340015Y49306D01*
X342104Y49306D02*
X342193Y49308D01*
X342281Y49314D01*
X342369Y49323D01*
X342457Y49336D01*
X342544Y49353D01*
X342630Y49373D01*
X342715Y49398D01*
X342800Y49425D01*
X342883Y49457D01*
X342964Y49491D01*
X343044Y49530D01*
X343122Y49571D01*
X343199Y49616D01*
X343273Y49664D01*
X343346Y49715D01*
X343416Y49769D01*
X343483Y49827D01*
X343549Y49887D01*
X343611Y49949D01*
X343671Y50015D01*
X343729Y50082D01*
X343783Y50152D01*
X343834Y50225D01*
X343882Y50299D01*
X343927Y50376D01*
X343968Y50454D01*
X344007Y50534D01*
X344041Y50615D01*
X344073Y50698D01*
X344100Y50783D01*
X344125Y50868D01*
X344145Y50954D01*
X344162Y51041D01*
X344175Y51129D01*
X344184Y51217D01*
X344190Y51305D01*
X344192Y51394D01*
X344192Y56616D01*
X344190Y56705D01*
X344184Y56793D01*
X344175Y56881D01*
X344162Y56969D01*
X344145Y57056D01*
X344125Y57142D01*
X344100Y57227D01*
X344073Y57312D01*
X344041Y57395D01*
X344007Y57476D01*
X343968Y57556D01*
X343927Y57634D01*
X343882Y57711D01*
X343834Y57785D01*
X343783Y57858D01*
X343729Y57928D01*
X343671Y57995D01*
X343611Y58061D01*
X343549Y58123D01*
X343483Y58183D01*
X343416Y58241D01*
X343346Y58295D01*
X343273Y58346D01*
X343199Y58394D01*
X343122Y58439D01*
X343044Y58480D01*
X342964Y58519D01*
X342883Y58553D01*
X342800Y58585D01*
X342715Y58612D01*
X342630Y58637D01*
X342544Y58657D01*
X342457Y58674D01*
X342369Y58687D01*
X342281Y58696D01*
X342193Y58702D01*
X342104Y58704D01*
X340015Y58704D01*
X334337Y58704D02*
X334337Y51394D01*
X334338Y51394D02*
X334340Y51305D01*
X334346Y51217D01*
X334355Y51129D01*
X334368Y51041D01*
X334385Y50954D01*
X334405Y50868D01*
X334430Y50783D01*
X334457Y50698D01*
X334489Y50615D01*
X334523Y50534D01*
X334562Y50454D01*
X334603Y50376D01*
X334648Y50299D01*
X334696Y50225D01*
X334747Y50152D01*
X334801Y50082D01*
X334859Y50015D01*
X334919Y49949D01*
X334981Y49887D01*
X335047Y49827D01*
X335114Y49769D01*
X335184Y49715D01*
X335257Y49664D01*
X335331Y49616D01*
X335408Y49571D01*
X335486Y49530D01*
X335566Y49491D01*
X335647Y49457D01*
X335730Y49425D01*
X335815Y49398D01*
X335900Y49373D01*
X335986Y49353D01*
X336073Y49336D01*
X336161Y49323D01*
X336249Y49314D01*
X336337Y49308D01*
X336426Y49306D01*
X337470Y49306D01*
X329824Y49306D02*
X329824Y58704D01*
X329824Y49306D02*
X325647Y49306D01*
X320158Y49306D02*
X318070Y49306D01*
X320158Y49306D02*
X320247Y49308D01*
X320335Y49314D01*
X320423Y49323D01*
X320511Y49336D01*
X320598Y49353D01*
X320684Y49373D01*
X320769Y49398D01*
X320854Y49425D01*
X320937Y49457D01*
X321018Y49491D01*
X321098Y49530D01*
X321176Y49571D01*
X321253Y49616D01*
X321327Y49664D01*
X321400Y49715D01*
X321470Y49769D01*
X321537Y49827D01*
X321603Y49887D01*
X321665Y49949D01*
X321725Y50015D01*
X321783Y50082D01*
X321837Y50152D01*
X321888Y50225D01*
X321936Y50299D01*
X321981Y50376D01*
X322022Y50454D01*
X322061Y50534D01*
X322095Y50615D01*
X322127Y50698D01*
X322154Y50783D01*
X322179Y50868D01*
X322199Y50954D01*
X322216Y51041D01*
X322229Y51129D01*
X322238Y51217D01*
X322244Y51305D01*
X322246Y51394D01*
X322247Y51394D02*
X322247Y56616D01*
X322246Y56616D02*
X322244Y56705D01*
X322238Y56793D01*
X322229Y56881D01*
X322216Y56969D01*
X322199Y57056D01*
X322179Y57142D01*
X322154Y57227D01*
X322127Y57312D01*
X322095Y57395D01*
X322061Y57476D01*
X322022Y57556D01*
X321981Y57634D01*
X321936Y57711D01*
X321888Y57785D01*
X321837Y57858D01*
X321783Y57928D01*
X321725Y57995D01*
X321665Y58061D01*
X321603Y58123D01*
X321537Y58183D01*
X321470Y58241D01*
X321400Y58295D01*
X321327Y58346D01*
X321253Y58394D01*
X321176Y58439D01*
X321098Y58480D01*
X321018Y58519D01*
X320937Y58553D01*
X320854Y58585D01*
X320769Y58612D01*
X320684Y58637D01*
X320598Y58657D01*
X320511Y58674D01*
X320423Y58687D01*
X320335Y58696D01*
X320247Y58702D01*
X320158Y58704D01*
X318070Y58704D01*
X399430Y141206D02*
X403607Y141206D01*
X403607Y150604D01*
X399430Y150604D01*
X400474Y146427D02*
X403607Y146427D01*
X396004Y148516D02*
X393394Y150604D01*
X393394Y141206D01*
X396004Y141206D02*
X390783Y141206D01*
X386860Y145905D02*
X386858Y146090D01*
X386851Y146275D01*
X386840Y146459D01*
X386825Y146643D01*
X386805Y146827D01*
X386781Y147011D01*
X386752Y147193D01*
X386719Y147375D01*
X386682Y147556D01*
X386640Y147736D01*
X386594Y147916D01*
X386544Y148094D01*
X386490Y148270D01*
X386431Y148446D01*
X386369Y148620D01*
X386302Y148792D01*
X386231Y148963D01*
X386156Y149132D01*
X386077Y149299D01*
X386078Y149299D02*
X386048Y149379D01*
X386015Y149458D01*
X385978Y149535D01*
X385938Y149611D01*
X385895Y149685D01*
X385849Y149757D01*
X385799Y149826D01*
X385747Y149894D01*
X385691Y149959D01*
X385633Y150022D01*
X385571Y150081D01*
X385508Y150139D01*
X385441Y150193D01*
X385373Y150244D01*
X385302Y150292D01*
X385229Y150337D01*
X385155Y150379D01*
X385078Y150417D01*
X385000Y150452D01*
X384921Y150484D01*
X384840Y150512D01*
X384758Y150536D01*
X384674Y150557D01*
X384591Y150574D01*
X384506Y150587D01*
X384421Y150596D01*
X384336Y150602D01*
X384250Y150604D01*
X384164Y150602D01*
X384079Y150596D01*
X383994Y150587D01*
X383909Y150574D01*
X383826Y150557D01*
X383742Y150536D01*
X383660Y150512D01*
X383580Y150484D01*
X383500Y150452D01*
X383422Y150417D01*
X383345Y150379D01*
X383271Y150337D01*
X383198Y150292D01*
X383127Y150244D01*
X383059Y150193D01*
X382992Y150139D01*
X382929Y150081D01*
X382868Y150022D01*
X382809Y149959D01*
X382754Y149894D01*
X382701Y149826D01*
X382651Y149757D01*
X382605Y149685D01*
X382562Y149611D01*
X382522Y149535D01*
X382485Y149458D01*
X382452Y149379D01*
X382422Y149299D01*
X382343Y149132D01*
X382268Y148963D01*
X382197Y148792D01*
X382130Y148620D01*
X382068Y148446D01*
X382009Y148270D01*
X381955Y148094D01*
X381905Y147916D01*
X381859Y147736D01*
X381817Y147556D01*
X381780Y147375D01*
X381747Y147193D01*
X381718Y147011D01*
X381694Y146827D01*
X381674Y146643D01*
X381659Y146459D01*
X381648Y146275D01*
X381641Y146090D01*
X381639Y145905D01*
X386860Y145905D02*
X386858Y145720D01*
X386851Y145535D01*
X386840Y145351D01*
X386825Y145167D01*
X386805Y144983D01*
X386781Y144799D01*
X386752Y144617D01*
X386719Y144435D01*
X386682Y144254D01*
X386640Y144074D01*
X386594Y143894D01*
X386544Y143716D01*
X386490Y143540D01*
X386431Y143364D01*
X386369Y143190D01*
X386302Y143018D01*
X386231Y142847D01*
X386156Y142678D01*
X386077Y142511D01*
X386078Y142511D02*
X386048Y142431D01*
X386015Y142352D01*
X385978Y142275D01*
X385938Y142199D01*
X385895Y142125D01*
X385849Y142053D01*
X385799Y141984D01*
X385746Y141916D01*
X385691Y141851D01*
X385632Y141788D01*
X385571Y141729D01*
X385508Y141671D01*
X385441Y141617D01*
X385373Y141566D01*
X385302Y141518D01*
X385229Y141473D01*
X385155Y141431D01*
X385078Y141393D01*
X385000Y141358D01*
X384921Y141326D01*
X384840Y141298D01*
X384758Y141274D01*
X384674Y141253D01*
X384591Y141236D01*
X384506Y141223D01*
X384421Y141214D01*
X384336Y141208D01*
X384250Y141206D01*
X382422Y142511D02*
X382343Y142678D01*
X382268Y142847D01*
X382197Y143018D01*
X382130Y143190D01*
X382068Y143364D01*
X382009Y143540D01*
X381955Y143716D01*
X381905Y143894D01*
X381859Y144074D01*
X381817Y144254D01*
X381780Y144435D01*
X381747Y144617D01*
X381718Y144799D01*
X381694Y144983D01*
X381674Y145167D01*
X381659Y145351D01*
X381648Y145535D01*
X381641Y145720D01*
X381639Y145905D01*
X382422Y142511D02*
X382452Y142431D01*
X382485Y142352D01*
X382522Y142275D01*
X382562Y142199D01*
X382605Y142125D01*
X382651Y142053D01*
X382701Y141984D01*
X382754Y141916D01*
X382809Y141851D01*
X382868Y141788D01*
X382929Y141729D01*
X382992Y141671D01*
X383059Y141617D01*
X383127Y141566D01*
X383198Y141518D01*
X383271Y141473D01*
X383345Y141431D01*
X383422Y141393D01*
X383500Y141358D01*
X383580Y141326D01*
X383660Y141298D01*
X383742Y141274D01*
X383826Y141253D01*
X383909Y141236D01*
X383994Y141223D01*
X384079Y141214D01*
X384164Y141208D01*
X384250Y141206D01*
X386338Y143294D02*
X382161Y148516D01*
X377716Y143294D02*
X375628Y150604D01*
X377716Y143294D02*
X372495Y143294D01*
X374061Y145383D02*
X374061Y141206D01*
X368485Y144861D02*
X362219Y144861D01*
X357773Y146427D02*
X355162Y146427D01*
X355162Y146428D02*
X355061Y146426D01*
X354960Y146420D01*
X354859Y146410D01*
X354759Y146397D01*
X354659Y146379D01*
X354560Y146358D01*
X354462Y146332D01*
X354365Y146303D01*
X354269Y146271D01*
X354175Y146234D01*
X354082Y146194D01*
X353990Y146150D01*
X353901Y146103D01*
X353813Y146052D01*
X353727Y145998D01*
X353644Y145941D01*
X353562Y145881D01*
X353484Y145817D01*
X353407Y145751D01*
X353334Y145681D01*
X353263Y145609D01*
X353195Y145534D01*
X353130Y145456D01*
X353068Y145376D01*
X353009Y145294D01*
X352953Y145209D01*
X352901Y145123D01*
X352852Y145034D01*
X352806Y144943D01*
X352765Y144851D01*
X352726Y144757D01*
X352692Y144662D01*
X352661Y144566D01*
X352634Y144468D01*
X352610Y144370D01*
X352591Y144270D01*
X352575Y144170D01*
X352563Y144070D01*
X352555Y143969D01*
X352551Y143868D01*
X352551Y143766D01*
X352555Y143665D01*
X352563Y143564D01*
X352575Y143464D01*
X352591Y143364D01*
X352610Y143264D01*
X352634Y143166D01*
X352661Y143068D01*
X352692Y142972D01*
X352726Y142877D01*
X352765Y142783D01*
X352806Y142691D01*
X352852Y142600D01*
X352901Y142512D01*
X352953Y142425D01*
X353009Y142340D01*
X353068Y142258D01*
X353130Y142178D01*
X353195Y142100D01*
X353263Y142025D01*
X353334Y141953D01*
X353407Y141883D01*
X353484Y141817D01*
X353562Y141753D01*
X353644Y141693D01*
X353727Y141636D01*
X353813Y141582D01*
X353901Y141531D01*
X353990Y141484D01*
X354082Y141440D01*
X354175Y141400D01*
X354269Y141363D01*
X354365Y141331D01*
X354462Y141302D01*
X354560Y141276D01*
X354659Y141255D01*
X354759Y141237D01*
X354859Y141224D01*
X354960Y141214D01*
X355061Y141208D01*
X355162Y141206D01*
X357773Y141206D01*
X357773Y150604D01*
X355162Y150604D01*
X355072Y150602D01*
X354983Y150596D01*
X354893Y150587D01*
X354804Y150573D01*
X354716Y150556D01*
X354629Y150535D01*
X354542Y150510D01*
X354457Y150481D01*
X354373Y150449D01*
X354291Y150414D01*
X354210Y150374D01*
X354131Y150332D01*
X354054Y150286D01*
X353979Y150236D01*
X353906Y150184D01*
X353835Y150128D01*
X353767Y150070D01*
X353702Y150008D01*
X353639Y149944D01*
X353579Y149877D01*
X353522Y149808D01*
X353468Y149736D01*
X353417Y149662D01*
X353369Y149586D01*
X353325Y149508D01*
X353284Y149428D01*
X353246Y149346D01*
X353212Y149263D01*
X353182Y149178D01*
X353155Y149092D01*
X353132Y149006D01*
X353113Y148918D01*
X353098Y148829D01*
X353086Y148740D01*
X353078Y148651D01*
X353074Y148561D01*
X353074Y148471D01*
X353078Y148381D01*
X353086Y148292D01*
X353098Y148203D01*
X353113Y148114D01*
X353132Y148026D01*
X353155Y147940D01*
X353182Y147854D01*
X353212Y147769D01*
X353246Y147686D01*
X353284Y147604D01*
X353325Y147524D01*
X353369Y147446D01*
X353417Y147370D01*
X353468Y147296D01*
X353522Y147224D01*
X353579Y147155D01*
X353639Y147088D01*
X353702Y147024D01*
X353767Y146962D01*
X353835Y146904D01*
X353906Y146848D01*
X353979Y146796D01*
X354054Y146746D01*
X354131Y146700D01*
X354210Y146658D01*
X354291Y146618D01*
X354373Y146583D01*
X354457Y146551D01*
X354542Y146522D01*
X354629Y146497D01*
X354716Y146476D01*
X354804Y146459D01*
X354893Y146445D01*
X354983Y146436D01*
X355072Y146430D01*
X355162Y146428D01*
X347064Y150604D02*
X347064Y141206D01*
X349675Y150604D02*
X344453Y150604D01*
X341140Y148516D02*
X338530Y150604D01*
X338530Y141206D01*
X341140Y141206D02*
X335919Y141206D01*
X331996Y148516D02*
X329386Y150604D01*
X329386Y141206D01*
X331996Y141206D02*
X326775Y141206D01*
X318893Y146427D02*
X317326Y146427D01*
X317326Y141206D01*
X320459Y141206D01*
X320548Y141208D01*
X320636Y141214D01*
X320724Y141223D01*
X320812Y141236D01*
X320899Y141253D01*
X320985Y141273D01*
X321070Y141298D01*
X321155Y141325D01*
X321238Y141357D01*
X321319Y141391D01*
X321399Y141430D01*
X321477Y141471D01*
X321554Y141516D01*
X321628Y141564D01*
X321701Y141615D01*
X321771Y141669D01*
X321838Y141727D01*
X321904Y141787D01*
X321966Y141849D01*
X322026Y141915D01*
X322084Y141982D01*
X322138Y142052D01*
X322189Y142125D01*
X322237Y142199D01*
X322282Y142276D01*
X322323Y142354D01*
X322362Y142434D01*
X322396Y142515D01*
X322428Y142598D01*
X322455Y142683D01*
X322480Y142768D01*
X322500Y142854D01*
X322517Y142941D01*
X322530Y143029D01*
X322539Y143117D01*
X322545Y143205D01*
X322547Y143294D01*
X322547Y148516D01*
X322545Y148605D01*
X322539Y148693D01*
X322530Y148781D01*
X322517Y148869D01*
X322500Y148956D01*
X322480Y149042D01*
X322455Y149127D01*
X322428Y149212D01*
X322396Y149295D01*
X322362Y149376D01*
X322323Y149456D01*
X322282Y149534D01*
X322237Y149611D01*
X322189Y149685D01*
X322138Y149758D01*
X322084Y149828D01*
X322026Y149895D01*
X321966Y149961D01*
X321904Y150023D01*
X321838Y150083D01*
X321771Y150141D01*
X321701Y150195D01*
X321628Y150246D01*
X321554Y150294D01*
X321477Y150339D01*
X321399Y150380D01*
X321319Y150419D01*
X321238Y150453D01*
X321155Y150485D01*
X321070Y150512D01*
X320985Y150537D01*
X320899Y150557D01*
X320812Y150574D01*
X320724Y150587D01*
X320636Y150596D01*
X320548Y150602D01*
X320459Y150604D01*
X317326Y150604D01*
D11*
X280169Y164271D02*
X470799Y164271D01*
X470799Y34301D01*
X280169Y34301D01*
X435879Y149191D02*
X465879Y149191D01*
X465879Y139191D01*
X439679Y139191D01*
X439679Y112491D01*
X439779Y112691D02*
X465879Y112691D01*
X465879Y88961D01*
X439779Y88961D01*
X439779Y61881D01*
X465879Y61881D01*
X465879Y49281D01*
X423279Y49281D01*
X423279Y76801D01*
X406679Y91301D01*
X280169Y34301D02*
X280169Y164271D01*
D12*
X268103Y99758D02*
X268103Y93154D01*
X268103Y99758D02*
X266268Y99758D01*
X266183Y99756D01*
X266099Y99750D01*
X266015Y99740D01*
X265931Y99727D01*
X265848Y99709D01*
X265766Y99688D01*
X265685Y99663D01*
X265605Y99634D01*
X265527Y99602D01*
X265451Y99566D01*
X265376Y99526D01*
X265303Y99483D01*
X265232Y99437D01*
X265163Y99388D01*
X265096Y99335D01*
X265032Y99279D01*
X264971Y99221D01*
X264913Y99160D01*
X264857Y99096D01*
X264804Y99029D01*
X264755Y98960D01*
X264709Y98889D01*
X264666Y98816D01*
X264626Y98741D01*
X264590Y98665D01*
X264558Y98587D01*
X264529Y98507D01*
X264504Y98426D01*
X264483Y98344D01*
X264465Y98261D01*
X264452Y98177D01*
X264442Y98093D01*
X264436Y98009D01*
X264434Y97924D01*
X264436Y97839D01*
X264442Y97755D01*
X264452Y97671D01*
X264465Y97587D01*
X264483Y97504D01*
X264504Y97422D01*
X264529Y97341D01*
X264558Y97261D01*
X264590Y97183D01*
X264626Y97107D01*
X264666Y97032D01*
X264709Y96959D01*
X264755Y96888D01*
X264804Y96819D01*
X264857Y96752D01*
X264913Y96688D01*
X264971Y96627D01*
X265032Y96569D01*
X265096Y96513D01*
X265163Y96460D01*
X265232Y96411D01*
X265303Y96365D01*
X265376Y96322D01*
X265451Y96282D01*
X265527Y96246D01*
X265605Y96214D01*
X265685Y96185D01*
X265766Y96160D01*
X265848Y96139D01*
X265931Y96121D01*
X266015Y96108D01*
X266099Y96098D01*
X266183Y96092D01*
X266268Y96090D01*
X266268Y96089D02*
X268103Y96089D01*
X265901Y96089D02*
X264434Y93154D01*
X260866Y93154D02*
X259032Y93154D01*
X258947Y93156D01*
X258863Y93162D01*
X258779Y93172D01*
X258695Y93185D01*
X258612Y93203D01*
X258530Y93224D01*
X258449Y93249D01*
X258369Y93278D01*
X258291Y93310D01*
X258215Y93346D01*
X258140Y93386D01*
X258067Y93429D01*
X257996Y93475D01*
X257927Y93524D01*
X257860Y93577D01*
X257796Y93633D01*
X257735Y93691D01*
X257677Y93752D01*
X257621Y93816D01*
X257568Y93883D01*
X257519Y93952D01*
X257473Y94023D01*
X257430Y94096D01*
X257390Y94171D01*
X257354Y94247D01*
X257322Y94325D01*
X257293Y94405D01*
X257268Y94486D01*
X257247Y94568D01*
X257229Y94651D01*
X257216Y94735D01*
X257206Y94819D01*
X257200Y94903D01*
X257198Y94988D01*
X257200Y95073D01*
X257206Y95157D01*
X257216Y95241D01*
X257229Y95325D01*
X257247Y95408D01*
X257268Y95490D01*
X257293Y95571D01*
X257322Y95651D01*
X257354Y95729D01*
X257390Y95805D01*
X257430Y95880D01*
X257473Y95953D01*
X257519Y96024D01*
X257568Y96093D01*
X257621Y96160D01*
X257677Y96224D01*
X257735Y96285D01*
X257796Y96343D01*
X257860Y96399D01*
X257927Y96452D01*
X257996Y96501D01*
X258067Y96547D01*
X258140Y96590D01*
X258215Y96630D01*
X258291Y96666D01*
X258369Y96698D01*
X258449Y96727D01*
X258530Y96752D01*
X258612Y96773D01*
X258695Y96791D01*
X258779Y96804D01*
X258863Y96814D01*
X258947Y96820D01*
X259032Y96822D01*
X258665Y99758D02*
X260866Y99758D01*
X258665Y99758D02*
X258589Y99756D01*
X258514Y99750D01*
X258439Y99741D01*
X258365Y99727D01*
X258291Y99710D01*
X258219Y99688D01*
X258147Y99664D01*
X258077Y99635D01*
X258009Y99603D01*
X257942Y99568D01*
X257877Y99529D01*
X257814Y99486D01*
X257754Y99441D01*
X257696Y99393D01*
X257640Y99341D01*
X257588Y99287D01*
X257538Y99230D01*
X257491Y99171D01*
X257447Y99110D01*
X257406Y99046D01*
X257369Y98980D01*
X257335Y98912D01*
X257305Y98843D01*
X257278Y98772D01*
X257255Y98700D01*
X257236Y98627D01*
X257221Y98553D01*
X257209Y98478D01*
X257201Y98403D01*
X257197Y98328D01*
X257197Y98252D01*
X257201Y98177D01*
X257209Y98102D01*
X257221Y98027D01*
X257236Y97953D01*
X257255Y97880D01*
X257278Y97808D01*
X257305Y97737D01*
X257335Y97668D01*
X257369Y97600D01*
X257406Y97534D01*
X257447Y97470D01*
X257491Y97409D01*
X257538Y97350D01*
X257588Y97293D01*
X257640Y97239D01*
X257696Y97187D01*
X257754Y97139D01*
X257814Y97094D01*
X257877Y97051D01*
X257942Y97012D01*
X258009Y96977D01*
X258077Y96945D01*
X258147Y96916D01*
X258219Y96892D01*
X258291Y96870D01*
X258365Y96853D01*
X258439Y96839D01*
X258514Y96830D01*
X258589Y96824D01*
X258665Y96822D01*
X258665Y96823D02*
X260133Y96823D01*
X268003Y107054D02*
X268003Y113658D01*
X266168Y113658D01*
X266083Y113656D01*
X265999Y113650D01*
X265915Y113640D01*
X265831Y113627D01*
X265748Y113609D01*
X265666Y113588D01*
X265585Y113563D01*
X265505Y113534D01*
X265427Y113502D01*
X265351Y113466D01*
X265276Y113426D01*
X265203Y113383D01*
X265132Y113337D01*
X265063Y113288D01*
X264996Y113235D01*
X264932Y113179D01*
X264871Y113121D01*
X264813Y113060D01*
X264757Y112996D01*
X264704Y112929D01*
X264655Y112860D01*
X264609Y112789D01*
X264566Y112716D01*
X264526Y112641D01*
X264490Y112565D01*
X264458Y112487D01*
X264429Y112407D01*
X264404Y112326D01*
X264383Y112244D01*
X264365Y112161D01*
X264352Y112077D01*
X264342Y111993D01*
X264336Y111909D01*
X264334Y111824D01*
X264336Y111739D01*
X264342Y111655D01*
X264352Y111571D01*
X264365Y111487D01*
X264383Y111404D01*
X264404Y111322D01*
X264429Y111241D01*
X264458Y111161D01*
X264490Y111083D01*
X264526Y111007D01*
X264566Y110932D01*
X264609Y110859D01*
X264655Y110788D01*
X264704Y110719D01*
X264757Y110652D01*
X264813Y110588D01*
X264871Y110527D01*
X264932Y110469D01*
X264996Y110413D01*
X265063Y110360D01*
X265132Y110311D01*
X265203Y110265D01*
X265276Y110222D01*
X265351Y110182D01*
X265427Y110146D01*
X265505Y110114D01*
X265585Y110085D01*
X265666Y110060D01*
X265748Y110039D01*
X265831Y110021D01*
X265915Y110008D01*
X265999Y109998D01*
X266083Y109992D01*
X266168Y109990D01*
X266168Y109989D02*
X268003Y109989D01*
X265801Y109989D02*
X264334Y107054D01*
X260766Y108522D02*
X259299Y113658D01*
X260766Y108522D02*
X257097Y108522D01*
X258198Y109989D02*
X258198Y107054D01*
X243273Y44438D02*
X243273Y37834D01*
X243273Y44438D02*
X241438Y44438D01*
X241353Y44436D01*
X241269Y44430D01*
X241185Y44420D01*
X241101Y44407D01*
X241018Y44389D01*
X240936Y44368D01*
X240855Y44343D01*
X240775Y44314D01*
X240697Y44282D01*
X240621Y44246D01*
X240546Y44206D01*
X240473Y44163D01*
X240402Y44117D01*
X240333Y44068D01*
X240266Y44015D01*
X240202Y43959D01*
X240141Y43901D01*
X240083Y43840D01*
X240027Y43776D01*
X239974Y43709D01*
X239925Y43640D01*
X239879Y43569D01*
X239836Y43496D01*
X239796Y43421D01*
X239760Y43345D01*
X239728Y43267D01*
X239699Y43187D01*
X239674Y43106D01*
X239653Y43024D01*
X239635Y42941D01*
X239622Y42857D01*
X239612Y42773D01*
X239606Y42689D01*
X239604Y42604D01*
X239606Y42519D01*
X239612Y42435D01*
X239622Y42351D01*
X239635Y42267D01*
X239653Y42184D01*
X239674Y42102D01*
X239699Y42021D01*
X239728Y41941D01*
X239760Y41863D01*
X239796Y41787D01*
X239836Y41712D01*
X239879Y41639D01*
X239925Y41568D01*
X239974Y41499D01*
X240027Y41432D01*
X240083Y41368D01*
X240141Y41307D01*
X240202Y41249D01*
X240266Y41193D01*
X240333Y41140D01*
X240402Y41091D01*
X240473Y41045D01*
X240546Y41002D01*
X240621Y40962D01*
X240697Y40926D01*
X240775Y40894D01*
X240855Y40865D01*
X240936Y40840D01*
X241018Y40819D01*
X241101Y40801D01*
X241185Y40788D01*
X241269Y40778D01*
X241353Y40772D01*
X241438Y40770D01*
X241438Y40769D02*
X243273Y40769D01*
X241071Y40769D02*
X239604Y37834D01*
X236036Y41503D02*
X233835Y41503D01*
X233761Y41501D01*
X233686Y41495D01*
X233613Y41486D01*
X233539Y41473D01*
X233467Y41456D01*
X233396Y41436D01*
X233325Y41412D01*
X233256Y41384D01*
X233189Y41353D01*
X233123Y41319D01*
X233058Y41281D01*
X232996Y41240D01*
X232936Y41196D01*
X232879Y41149D01*
X232824Y41099D01*
X232771Y41046D01*
X232721Y40991D01*
X232674Y40934D01*
X232630Y40874D01*
X232589Y40812D01*
X232551Y40747D01*
X232517Y40681D01*
X232486Y40614D01*
X232458Y40545D01*
X232434Y40474D01*
X232414Y40403D01*
X232397Y40331D01*
X232384Y40257D01*
X232375Y40184D01*
X232369Y40109D01*
X232367Y40035D01*
X232367Y39668D01*
X232368Y39668D02*
X232370Y39583D01*
X232376Y39499D01*
X232386Y39415D01*
X232399Y39331D01*
X232417Y39248D01*
X232438Y39166D01*
X232463Y39085D01*
X232492Y39005D01*
X232524Y38927D01*
X232560Y38851D01*
X232600Y38776D01*
X232643Y38703D01*
X232689Y38632D01*
X232738Y38563D01*
X232791Y38496D01*
X232847Y38432D01*
X232905Y38371D01*
X232966Y38313D01*
X233030Y38257D01*
X233097Y38204D01*
X233166Y38155D01*
X233237Y38109D01*
X233310Y38066D01*
X233385Y38026D01*
X233461Y37990D01*
X233539Y37958D01*
X233619Y37929D01*
X233700Y37904D01*
X233782Y37883D01*
X233865Y37865D01*
X233949Y37852D01*
X234033Y37842D01*
X234117Y37836D01*
X234202Y37834D01*
X234287Y37836D01*
X234371Y37842D01*
X234455Y37852D01*
X234539Y37865D01*
X234622Y37883D01*
X234704Y37904D01*
X234785Y37929D01*
X234865Y37958D01*
X234943Y37990D01*
X235019Y38026D01*
X235094Y38066D01*
X235167Y38109D01*
X235238Y38155D01*
X235307Y38204D01*
X235374Y38257D01*
X235438Y38313D01*
X235499Y38371D01*
X235557Y38432D01*
X235613Y38496D01*
X235666Y38563D01*
X235715Y38632D01*
X235761Y38703D01*
X235804Y38776D01*
X235844Y38851D01*
X235880Y38927D01*
X235912Y39005D01*
X235941Y39085D01*
X235966Y39166D01*
X235987Y39248D01*
X236005Y39331D01*
X236018Y39415D01*
X236028Y39499D01*
X236034Y39583D01*
X236036Y39668D01*
X236036Y41503D01*
X236034Y41610D01*
X236028Y41717D01*
X236018Y41824D01*
X236005Y41930D01*
X235987Y42036D01*
X235966Y42141D01*
X235941Y42245D01*
X235912Y42349D01*
X235879Y42451D01*
X235842Y42551D01*
X235802Y42651D01*
X235758Y42749D01*
X235711Y42845D01*
X235660Y42939D01*
X235606Y43032D01*
X235549Y43122D01*
X235488Y43211D01*
X235424Y43297D01*
X235357Y43380D01*
X235287Y43462D01*
X235214Y43540D01*
X235138Y43616D01*
X235060Y43689D01*
X234978Y43759D01*
X234895Y43826D01*
X234809Y43890D01*
X234720Y43951D01*
X234630Y44008D01*
X234537Y44062D01*
X234443Y44113D01*
X234347Y44160D01*
X234249Y44204D01*
X234150Y44244D01*
X234049Y44281D01*
X233947Y44314D01*
X233843Y44343D01*
X233739Y44368D01*
X233634Y44389D01*
X233528Y44407D01*
X233422Y44420D01*
X233315Y44430D01*
X233208Y44436D01*
X233101Y44438D01*
D13*
X153800Y39000D02*
X153800Y159000D01*
X153800Y39000D02*
X166000Y39000D01*
X166000Y159000D02*
X153800Y159000D01*
X196000Y139000D02*
X196000Y59000D01*
M02*
