G04 EAGLE Gerber RS-274X export*
G75*
%MOMM*%
%FSLAX34Y34*%
%LPD*%
%INSilkscreen Top*%
%IPPOS*%
%AMOC8*
5,1,8,0,0,1.08239X$1,22.5*%
G01*
%ADD10C,0.076200*%
%ADD11C,0.127000*%
%ADD12C,0.203200*%
%ADD13C,0.254000*%
%ADD14C,0.152400*%
%ADD15C,0.200000*%


D10*
X270201Y120704D02*
X270201Y113394D01*
X270199Y113305D01*
X270193Y113217D01*
X270184Y113129D01*
X270171Y113041D01*
X270154Y112954D01*
X270134Y112868D01*
X270109Y112783D01*
X270082Y112698D01*
X270050Y112615D01*
X270016Y112534D01*
X269977Y112454D01*
X269936Y112376D01*
X269891Y112299D01*
X269843Y112225D01*
X269792Y112152D01*
X269738Y112082D01*
X269680Y112015D01*
X269620Y111949D01*
X269558Y111887D01*
X269492Y111827D01*
X269425Y111769D01*
X269355Y111715D01*
X269282Y111664D01*
X269208Y111616D01*
X269131Y111571D01*
X269053Y111530D01*
X268973Y111491D01*
X268892Y111457D01*
X268809Y111425D01*
X268724Y111398D01*
X268639Y111373D01*
X268553Y111353D01*
X268466Y111336D01*
X268378Y111323D01*
X268290Y111314D01*
X268202Y111308D01*
X268113Y111306D01*
X267069Y111306D01*
X274715Y111306D02*
X274715Y120704D01*
X274715Y111306D02*
X278892Y111306D01*
X284380Y111306D02*
X286469Y111306D01*
X284380Y111306D02*
X284291Y111308D01*
X284203Y111314D01*
X284115Y111323D01*
X284027Y111336D01*
X283940Y111353D01*
X283854Y111373D01*
X283769Y111398D01*
X283684Y111425D01*
X283601Y111457D01*
X283520Y111491D01*
X283440Y111530D01*
X283362Y111571D01*
X283285Y111616D01*
X283211Y111664D01*
X283138Y111715D01*
X283068Y111769D01*
X283001Y111827D01*
X282935Y111887D01*
X282873Y111949D01*
X282813Y112015D01*
X282755Y112082D01*
X282701Y112152D01*
X282650Y112225D01*
X282602Y112299D01*
X282557Y112376D01*
X282516Y112454D01*
X282477Y112534D01*
X282443Y112615D01*
X282411Y112698D01*
X282384Y112783D01*
X282359Y112868D01*
X282339Y112954D01*
X282322Y113041D01*
X282309Y113129D01*
X282300Y113217D01*
X282294Y113305D01*
X282292Y113394D01*
X282292Y118616D01*
X282294Y118707D01*
X282300Y118798D01*
X282310Y118889D01*
X282324Y118979D01*
X282341Y119068D01*
X282363Y119156D01*
X282389Y119244D01*
X282418Y119330D01*
X282451Y119415D01*
X282488Y119498D01*
X282528Y119580D01*
X282572Y119660D01*
X282619Y119738D01*
X282670Y119814D01*
X282723Y119887D01*
X282780Y119958D01*
X282841Y120027D01*
X282904Y120092D01*
X282969Y120155D01*
X283038Y120215D01*
X283109Y120273D01*
X283182Y120326D01*
X283258Y120377D01*
X283336Y120424D01*
X283416Y120468D01*
X283498Y120508D01*
X283581Y120545D01*
X283666Y120578D01*
X283752Y120607D01*
X283840Y120633D01*
X283928Y120655D01*
X284017Y120672D01*
X284107Y120686D01*
X284198Y120696D01*
X284289Y120702D01*
X284380Y120704D01*
X286469Y120704D01*
X292147Y120704D02*
X292147Y113394D01*
X292146Y113394D02*
X292144Y113305D01*
X292138Y113217D01*
X292129Y113129D01*
X292116Y113041D01*
X292099Y112954D01*
X292079Y112868D01*
X292054Y112783D01*
X292027Y112698D01*
X291995Y112615D01*
X291961Y112534D01*
X291922Y112454D01*
X291881Y112376D01*
X291836Y112299D01*
X291788Y112225D01*
X291737Y112152D01*
X291683Y112082D01*
X291625Y112015D01*
X291565Y111949D01*
X291503Y111887D01*
X291437Y111827D01*
X291370Y111769D01*
X291300Y111715D01*
X291227Y111664D01*
X291153Y111616D01*
X291076Y111571D01*
X290998Y111530D01*
X290918Y111491D01*
X290837Y111457D01*
X290754Y111425D01*
X290669Y111398D01*
X290584Y111373D01*
X290498Y111353D01*
X290411Y111336D01*
X290323Y111323D01*
X290235Y111314D01*
X290147Y111308D01*
X290058Y111306D01*
X289014Y111306D01*
X296661Y111306D02*
X296661Y120704D01*
X296661Y111306D02*
X300837Y111306D01*
X306326Y111306D02*
X308414Y111306D01*
X306326Y111306D02*
X306237Y111308D01*
X306149Y111314D01*
X306061Y111323D01*
X305973Y111336D01*
X305886Y111353D01*
X305800Y111373D01*
X305715Y111398D01*
X305630Y111425D01*
X305547Y111457D01*
X305466Y111491D01*
X305386Y111530D01*
X305308Y111571D01*
X305231Y111616D01*
X305157Y111664D01*
X305084Y111715D01*
X305014Y111769D01*
X304947Y111827D01*
X304881Y111887D01*
X304819Y111949D01*
X304759Y112015D01*
X304701Y112082D01*
X304647Y112152D01*
X304596Y112225D01*
X304548Y112299D01*
X304503Y112376D01*
X304462Y112454D01*
X304423Y112534D01*
X304389Y112615D01*
X304357Y112698D01*
X304330Y112783D01*
X304305Y112868D01*
X304285Y112954D01*
X304268Y113041D01*
X304255Y113129D01*
X304246Y113217D01*
X304240Y113305D01*
X304238Y113394D01*
X304237Y113394D02*
X304237Y118616D01*
X304238Y118616D02*
X304240Y118707D01*
X304246Y118798D01*
X304256Y118889D01*
X304270Y118979D01*
X304287Y119068D01*
X304309Y119156D01*
X304335Y119244D01*
X304364Y119330D01*
X304397Y119415D01*
X304434Y119498D01*
X304474Y119580D01*
X304518Y119660D01*
X304565Y119738D01*
X304616Y119814D01*
X304669Y119887D01*
X304726Y119958D01*
X304787Y120027D01*
X304850Y120092D01*
X304915Y120155D01*
X304984Y120215D01*
X305055Y120273D01*
X305128Y120326D01*
X305204Y120377D01*
X305282Y120424D01*
X305362Y120468D01*
X305444Y120508D01*
X305527Y120545D01*
X305612Y120578D01*
X305698Y120607D01*
X305786Y120633D01*
X305874Y120655D01*
X305963Y120672D01*
X306053Y120686D01*
X306144Y120696D01*
X306235Y120702D01*
X306326Y120704D01*
X308414Y120704D01*
X314092Y120704D02*
X314092Y113394D01*
X314090Y113305D01*
X314084Y113217D01*
X314075Y113129D01*
X314062Y113041D01*
X314045Y112954D01*
X314025Y112868D01*
X314000Y112783D01*
X313973Y112698D01*
X313941Y112615D01*
X313907Y112534D01*
X313868Y112454D01*
X313827Y112376D01*
X313782Y112299D01*
X313734Y112225D01*
X313683Y112152D01*
X313629Y112082D01*
X313571Y112015D01*
X313511Y111949D01*
X313449Y111887D01*
X313383Y111827D01*
X313316Y111769D01*
X313246Y111715D01*
X313173Y111664D01*
X313099Y111616D01*
X313022Y111571D01*
X312944Y111530D01*
X312864Y111491D01*
X312783Y111457D01*
X312700Y111425D01*
X312615Y111398D01*
X312530Y111373D01*
X312444Y111353D01*
X312357Y111336D01*
X312269Y111323D01*
X312181Y111314D01*
X312093Y111308D01*
X312004Y111306D01*
X310959Y111306D01*
X318606Y111306D02*
X318606Y120704D01*
X318606Y111306D02*
X322783Y111306D01*
X328271Y111306D02*
X330360Y111306D01*
X328271Y111306D02*
X328182Y111308D01*
X328094Y111314D01*
X328006Y111323D01*
X327918Y111336D01*
X327831Y111353D01*
X327745Y111373D01*
X327660Y111398D01*
X327575Y111425D01*
X327492Y111457D01*
X327411Y111491D01*
X327331Y111530D01*
X327253Y111571D01*
X327176Y111616D01*
X327102Y111664D01*
X327029Y111715D01*
X326959Y111769D01*
X326892Y111827D01*
X326826Y111887D01*
X326764Y111949D01*
X326704Y112015D01*
X326646Y112082D01*
X326592Y112152D01*
X326541Y112225D01*
X326493Y112299D01*
X326448Y112376D01*
X326407Y112454D01*
X326368Y112534D01*
X326334Y112615D01*
X326302Y112698D01*
X326275Y112783D01*
X326250Y112868D01*
X326230Y112954D01*
X326213Y113041D01*
X326200Y113129D01*
X326191Y113217D01*
X326185Y113305D01*
X326183Y113394D01*
X326183Y118616D01*
X326185Y118707D01*
X326191Y118798D01*
X326201Y118889D01*
X326215Y118979D01*
X326232Y119068D01*
X326254Y119156D01*
X326280Y119244D01*
X326309Y119330D01*
X326342Y119415D01*
X326379Y119498D01*
X326419Y119580D01*
X326463Y119660D01*
X326510Y119738D01*
X326561Y119814D01*
X326614Y119887D01*
X326671Y119958D01*
X326732Y120027D01*
X326795Y120092D01*
X326860Y120155D01*
X326929Y120215D01*
X327000Y120273D01*
X327073Y120326D01*
X327149Y120377D01*
X327227Y120424D01*
X327307Y120468D01*
X327389Y120508D01*
X327472Y120545D01*
X327557Y120578D01*
X327643Y120607D01*
X327731Y120633D01*
X327819Y120655D01*
X327908Y120672D01*
X327998Y120686D01*
X328089Y120696D01*
X328180Y120702D01*
X328271Y120704D01*
X330360Y120704D01*
X336038Y120704D02*
X336038Y113394D01*
X336037Y113394D02*
X336035Y113305D01*
X336029Y113217D01*
X336020Y113129D01*
X336007Y113041D01*
X335990Y112954D01*
X335970Y112868D01*
X335945Y112783D01*
X335918Y112698D01*
X335886Y112615D01*
X335852Y112534D01*
X335813Y112454D01*
X335772Y112376D01*
X335727Y112299D01*
X335679Y112225D01*
X335628Y112152D01*
X335574Y112082D01*
X335516Y112015D01*
X335456Y111949D01*
X335394Y111887D01*
X335328Y111827D01*
X335261Y111769D01*
X335191Y111715D01*
X335118Y111664D01*
X335044Y111616D01*
X334967Y111571D01*
X334889Y111530D01*
X334809Y111491D01*
X334728Y111457D01*
X334645Y111425D01*
X334560Y111398D01*
X334475Y111373D01*
X334389Y111353D01*
X334302Y111336D01*
X334214Y111323D01*
X334126Y111314D01*
X334038Y111308D01*
X333949Y111306D01*
X332905Y111306D01*
X340552Y111306D02*
X340552Y120704D01*
X340552Y111306D02*
X344728Y111306D01*
X350217Y111306D02*
X352305Y111306D01*
X350217Y111306D02*
X350128Y111308D01*
X350040Y111314D01*
X349952Y111323D01*
X349864Y111336D01*
X349777Y111353D01*
X349691Y111373D01*
X349606Y111398D01*
X349521Y111425D01*
X349438Y111457D01*
X349357Y111491D01*
X349277Y111530D01*
X349199Y111571D01*
X349122Y111616D01*
X349048Y111664D01*
X348975Y111715D01*
X348905Y111769D01*
X348838Y111827D01*
X348772Y111887D01*
X348710Y111949D01*
X348650Y112015D01*
X348592Y112082D01*
X348538Y112152D01*
X348487Y112225D01*
X348439Y112299D01*
X348394Y112376D01*
X348353Y112454D01*
X348314Y112534D01*
X348280Y112615D01*
X348248Y112698D01*
X348221Y112783D01*
X348196Y112868D01*
X348176Y112954D01*
X348159Y113041D01*
X348146Y113129D01*
X348137Y113217D01*
X348131Y113305D01*
X348129Y113394D01*
X348128Y113394D02*
X348128Y118616D01*
X348129Y118616D02*
X348131Y118707D01*
X348137Y118798D01*
X348147Y118889D01*
X348161Y118979D01*
X348178Y119068D01*
X348200Y119156D01*
X348226Y119244D01*
X348255Y119330D01*
X348288Y119415D01*
X348325Y119498D01*
X348365Y119580D01*
X348409Y119660D01*
X348456Y119738D01*
X348507Y119814D01*
X348560Y119887D01*
X348617Y119958D01*
X348678Y120027D01*
X348741Y120092D01*
X348806Y120155D01*
X348875Y120215D01*
X348946Y120273D01*
X349019Y120326D01*
X349095Y120377D01*
X349173Y120424D01*
X349253Y120468D01*
X349335Y120508D01*
X349418Y120545D01*
X349503Y120578D01*
X349589Y120607D01*
X349677Y120633D01*
X349765Y120655D01*
X349854Y120672D01*
X349944Y120686D01*
X350035Y120696D01*
X350126Y120702D01*
X350217Y120704D01*
X352305Y120704D01*
D11*
X220346Y126330D02*
X218822Y126330D01*
X218745Y126332D01*
X218668Y126338D01*
X218591Y126348D01*
X218515Y126361D01*
X218440Y126379D01*
X218366Y126400D01*
X218293Y126425D01*
X218221Y126454D01*
X218151Y126486D01*
X218082Y126521D01*
X218016Y126561D01*
X217951Y126603D01*
X217889Y126649D01*
X217829Y126698D01*
X217772Y126749D01*
X217717Y126804D01*
X217666Y126861D01*
X217617Y126921D01*
X217571Y126983D01*
X217529Y127048D01*
X217489Y127114D01*
X217454Y127183D01*
X217422Y127253D01*
X217393Y127325D01*
X217368Y127398D01*
X217347Y127472D01*
X217329Y127547D01*
X217316Y127623D01*
X217306Y127700D01*
X217300Y127777D01*
X217298Y127854D01*
X217298Y131664D01*
X217300Y131741D01*
X217306Y131818D01*
X217316Y131895D01*
X217329Y131971D01*
X217347Y132046D01*
X217368Y132120D01*
X217393Y132193D01*
X217422Y132265D01*
X217454Y132335D01*
X217489Y132404D01*
X217529Y132470D01*
X217571Y132535D01*
X217617Y132597D01*
X217666Y132657D01*
X217717Y132714D01*
X217772Y132769D01*
X217829Y132820D01*
X217889Y132869D01*
X217951Y132915D01*
X218016Y132957D01*
X218082Y132997D01*
X218151Y133032D01*
X218221Y133064D01*
X218293Y133093D01*
X218366Y133118D01*
X218440Y133139D01*
X218515Y133157D01*
X218591Y133170D01*
X218668Y133180D01*
X218745Y133186D01*
X218822Y133188D01*
X220346Y133188D01*
X224949Y133188D02*
X223425Y127854D01*
X227235Y127854D01*
X226092Y129378D02*
X226092Y126330D01*
X165926Y135671D02*
X164402Y135671D01*
X164325Y135673D01*
X164248Y135679D01*
X164171Y135689D01*
X164095Y135702D01*
X164020Y135720D01*
X163946Y135741D01*
X163873Y135766D01*
X163801Y135795D01*
X163731Y135827D01*
X163662Y135862D01*
X163596Y135902D01*
X163531Y135944D01*
X163469Y135990D01*
X163409Y136039D01*
X163352Y136090D01*
X163297Y136145D01*
X163246Y136202D01*
X163197Y136262D01*
X163151Y136324D01*
X163109Y136389D01*
X163069Y136455D01*
X163034Y136524D01*
X163002Y136594D01*
X162973Y136666D01*
X162948Y136739D01*
X162927Y136813D01*
X162909Y136888D01*
X162896Y136964D01*
X162886Y137041D01*
X162880Y137118D01*
X162878Y137195D01*
X162878Y141005D01*
X162880Y141082D01*
X162886Y141159D01*
X162896Y141236D01*
X162909Y141312D01*
X162927Y141387D01*
X162948Y141461D01*
X162973Y141534D01*
X163002Y141606D01*
X163034Y141676D01*
X163069Y141745D01*
X163109Y141811D01*
X163151Y141876D01*
X163197Y141938D01*
X163246Y141998D01*
X163297Y142055D01*
X163352Y142110D01*
X163409Y142161D01*
X163469Y142210D01*
X163531Y142256D01*
X163596Y142298D01*
X163662Y142338D01*
X163731Y142373D01*
X163801Y142405D01*
X163873Y142434D01*
X163946Y142459D01*
X164020Y142480D01*
X164095Y142498D01*
X164171Y142511D01*
X164248Y142521D01*
X164325Y142527D01*
X164402Y142529D01*
X165926Y142529D01*
X169005Y135671D02*
X170910Y135671D01*
X170995Y135673D01*
X171081Y135679D01*
X171166Y135688D01*
X171250Y135702D01*
X171334Y135719D01*
X171417Y135740D01*
X171499Y135764D01*
X171579Y135792D01*
X171659Y135824D01*
X171737Y135860D01*
X171813Y135898D01*
X171887Y135941D01*
X171959Y135986D01*
X172030Y136035D01*
X172098Y136087D01*
X172163Y136141D01*
X172226Y136199D01*
X172287Y136260D01*
X172345Y136323D01*
X172399Y136388D01*
X172451Y136456D01*
X172500Y136527D01*
X172545Y136599D01*
X172588Y136673D01*
X172626Y136749D01*
X172662Y136827D01*
X172694Y136907D01*
X172722Y136987D01*
X172746Y137069D01*
X172767Y137152D01*
X172784Y137236D01*
X172798Y137320D01*
X172807Y137405D01*
X172813Y137491D01*
X172815Y137576D01*
X172813Y137661D01*
X172807Y137747D01*
X172798Y137832D01*
X172784Y137916D01*
X172767Y138000D01*
X172746Y138083D01*
X172722Y138165D01*
X172694Y138245D01*
X172662Y138325D01*
X172626Y138403D01*
X172588Y138479D01*
X172545Y138553D01*
X172500Y138625D01*
X172451Y138696D01*
X172399Y138764D01*
X172345Y138829D01*
X172287Y138892D01*
X172226Y138953D01*
X172163Y139011D01*
X172098Y139065D01*
X172030Y139117D01*
X171959Y139166D01*
X171887Y139211D01*
X171813Y139254D01*
X171737Y139292D01*
X171659Y139328D01*
X171579Y139360D01*
X171499Y139388D01*
X171417Y139412D01*
X171334Y139433D01*
X171250Y139450D01*
X171166Y139464D01*
X171081Y139473D01*
X170995Y139479D01*
X170910Y139481D01*
X171291Y142529D02*
X169005Y142529D01*
X171291Y142529D02*
X171368Y142527D01*
X171445Y142521D01*
X171522Y142511D01*
X171598Y142498D01*
X171673Y142480D01*
X171747Y142459D01*
X171820Y142434D01*
X171892Y142405D01*
X171962Y142373D01*
X172031Y142338D01*
X172097Y142298D01*
X172162Y142256D01*
X172224Y142210D01*
X172284Y142161D01*
X172341Y142110D01*
X172396Y142055D01*
X172447Y141998D01*
X172496Y141938D01*
X172542Y141876D01*
X172584Y141811D01*
X172624Y141745D01*
X172659Y141676D01*
X172691Y141606D01*
X172720Y141534D01*
X172745Y141461D01*
X172766Y141387D01*
X172784Y141312D01*
X172797Y141236D01*
X172807Y141159D01*
X172813Y141082D01*
X172815Y141005D01*
X172813Y140928D01*
X172807Y140851D01*
X172797Y140774D01*
X172784Y140698D01*
X172766Y140623D01*
X172745Y140549D01*
X172720Y140476D01*
X172691Y140404D01*
X172659Y140334D01*
X172624Y140265D01*
X172584Y140199D01*
X172542Y140134D01*
X172496Y140072D01*
X172447Y140012D01*
X172396Y139955D01*
X172341Y139900D01*
X172284Y139849D01*
X172224Y139800D01*
X172162Y139754D01*
X172097Y139712D01*
X172031Y139672D01*
X171962Y139637D01*
X171892Y139605D01*
X171820Y139576D01*
X171747Y139551D01*
X171673Y139530D01*
X171598Y139512D01*
X171522Y139499D01*
X171445Y139489D01*
X171368Y139483D01*
X171291Y139481D01*
X169767Y139481D01*
D10*
X267369Y23206D02*
X271545Y23206D01*
X267369Y23206D02*
X267369Y32604D01*
X271545Y32604D01*
X270501Y28427D02*
X267369Y28427D01*
X274971Y30516D02*
X277582Y32604D01*
X277582Y23206D01*
X280192Y23206D02*
X274971Y23206D01*
X284115Y27905D02*
X284117Y28090D01*
X284124Y28275D01*
X284135Y28459D01*
X284150Y28643D01*
X284170Y28827D01*
X284194Y29011D01*
X284223Y29193D01*
X284256Y29375D01*
X284293Y29556D01*
X284335Y29736D01*
X284381Y29916D01*
X284431Y30094D01*
X284485Y30270D01*
X284544Y30446D01*
X284606Y30620D01*
X284673Y30792D01*
X284744Y30963D01*
X284819Y31132D01*
X284898Y31299D01*
X284897Y31299D02*
X284927Y31379D01*
X284960Y31458D01*
X284997Y31535D01*
X285037Y31611D01*
X285080Y31685D01*
X285126Y31757D01*
X285176Y31826D01*
X285228Y31894D01*
X285284Y31959D01*
X285342Y32022D01*
X285404Y32081D01*
X285467Y32139D01*
X285534Y32193D01*
X285602Y32244D01*
X285673Y32292D01*
X285746Y32337D01*
X285820Y32379D01*
X285897Y32417D01*
X285975Y32452D01*
X286054Y32484D01*
X286135Y32512D01*
X286217Y32536D01*
X286301Y32557D01*
X286384Y32574D01*
X286469Y32587D01*
X286554Y32596D01*
X286639Y32602D01*
X286725Y32604D01*
X286811Y32602D01*
X286896Y32596D01*
X286981Y32587D01*
X287066Y32574D01*
X287149Y32557D01*
X287233Y32536D01*
X287315Y32512D01*
X287396Y32484D01*
X287475Y32452D01*
X287553Y32417D01*
X287630Y32379D01*
X287704Y32337D01*
X287777Y32292D01*
X287848Y32244D01*
X287916Y32193D01*
X287983Y32139D01*
X288046Y32081D01*
X288108Y32022D01*
X288166Y31959D01*
X288222Y31894D01*
X288274Y31826D01*
X288324Y31757D01*
X288370Y31685D01*
X288413Y31611D01*
X288453Y31535D01*
X288490Y31458D01*
X288523Y31379D01*
X288553Y31299D01*
X288632Y31132D01*
X288707Y30963D01*
X288778Y30792D01*
X288845Y30620D01*
X288907Y30446D01*
X288966Y30270D01*
X289020Y30094D01*
X289070Y29916D01*
X289116Y29736D01*
X289158Y29556D01*
X289195Y29375D01*
X289228Y29193D01*
X289257Y29011D01*
X289281Y28827D01*
X289301Y28643D01*
X289316Y28459D01*
X289327Y28275D01*
X289334Y28090D01*
X289336Y27905D01*
X284115Y27905D02*
X284117Y27720D01*
X284124Y27535D01*
X284135Y27351D01*
X284150Y27167D01*
X284170Y26983D01*
X284194Y26799D01*
X284223Y26617D01*
X284256Y26435D01*
X284293Y26254D01*
X284335Y26074D01*
X284381Y25894D01*
X284431Y25716D01*
X284485Y25540D01*
X284544Y25364D01*
X284606Y25190D01*
X284673Y25018D01*
X284744Y24847D01*
X284819Y24678D01*
X284898Y24511D01*
X284897Y24511D02*
X284927Y24431D01*
X284960Y24352D01*
X284997Y24275D01*
X285037Y24199D01*
X285080Y24125D01*
X285126Y24053D01*
X285176Y23984D01*
X285229Y23916D01*
X285284Y23851D01*
X285343Y23788D01*
X285404Y23729D01*
X285467Y23671D01*
X285534Y23617D01*
X285602Y23566D01*
X285673Y23518D01*
X285746Y23473D01*
X285820Y23431D01*
X285897Y23393D01*
X285975Y23358D01*
X286054Y23326D01*
X286135Y23298D01*
X286217Y23274D01*
X286301Y23253D01*
X286384Y23236D01*
X286469Y23223D01*
X286554Y23214D01*
X286639Y23208D01*
X286725Y23206D01*
X288553Y24511D02*
X288632Y24678D01*
X288707Y24847D01*
X288778Y25018D01*
X288845Y25190D01*
X288907Y25364D01*
X288966Y25540D01*
X289020Y25716D01*
X289070Y25894D01*
X289116Y26074D01*
X289158Y26254D01*
X289195Y26435D01*
X289228Y26617D01*
X289257Y26799D01*
X289281Y26983D01*
X289301Y27167D01*
X289316Y27351D01*
X289327Y27535D01*
X289334Y27720D01*
X289336Y27905D01*
X288553Y24511D02*
X288523Y24431D01*
X288490Y24352D01*
X288453Y24275D01*
X288413Y24199D01*
X288370Y24125D01*
X288324Y24053D01*
X288274Y23984D01*
X288222Y23916D01*
X288166Y23851D01*
X288108Y23788D01*
X288046Y23729D01*
X287983Y23671D01*
X287916Y23617D01*
X287848Y23566D01*
X287777Y23518D01*
X287704Y23473D01*
X287630Y23431D01*
X287553Y23393D01*
X287475Y23358D01*
X287396Y23326D01*
X287315Y23298D01*
X287233Y23274D01*
X287149Y23253D01*
X287066Y23236D01*
X286981Y23223D01*
X286896Y23214D01*
X286811Y23208D01*
X286725Y23206D01*
X284637Y25294D02*
X288814Y30516D01*
X293259Y25294D02*
X295347Y32604D01*
X293259Y25294D02*
X298480Y25294D01*
X296914Y27383D02*
X296914Y23206D01*
X302490Y26861D02*
X308756Y26861D01*
X313202Y28427D02*
X315813Y28427D01*
X315813Y28428D02*
X315914Y28426D01*
X316015Y28420D01*
X316116Y28410D01*
X316216Y28397D01*
X316316Y28379D01*
X316415Y28358D01*
X316513Y28332D01*
X316610Y28303D01*
X316706Y28271D01*
X316800Y28234D01*
X316893Y28194D01*
X316985Y28150D01*
X317074Y28103D01*
X317162Y28052D01*
X317248Y27998D01*
X317331Y27941D01*
X317413Y27881D01*
X317491Y27817D01*
X317568Y27751D01*
X317641Y27681D01*
X317712Y27609D01*
X317780Y27534D01*
X317845Y27456D01*
X317907Y27376D01*
X317966Y27294D01*
X318022Y27209D01*
X318074Y27122D01*
X318123Y27034D01*
X318169Y26943D01*
X318210Y26851D01*
X318249Y26757D01*
X318283Y26662D01*
X318314Y26566D01*
X318341Y26468D01*
X318365Y26370D01*
X318384Y26270D01*
X318400Y26170D01*
X318412Y26070D01*
X318420Y25969D01*
X318424Y25868D01*
X318424Y25766D01*
X318420Y25665D01*
X318412Y25564D01*
X318400Y25464D01*
X318384Y25364D01*
X318365Y25264D01*
X318341Y25166D01*
X318314Y25068D01*
X318283Y24972D01*
X318249Y24877D01*
X318210Y24783D01*
X318169Y24691D01*
X318123Y24600D01*
X318074Y24511D01*
X318022Y24425D01*
X317966Y24340D01*
X317907Y24258D01*
X317845Y24178D01*
X317780Y24100D01*
X317712Y24025D01*
X317641Y23953D01*
X317568Y23883D01*
X317491Y23817D01*
X317413Y23753D01*
X317331Y23693D01*
X317248Y23636D01*
X317162Y23582D01*
X317074Y23531D01*
X316985Y23484D01*
X316893Y23440D01*
X316800Y23400D01*
X316706Y23363D01*
X316610Y23331D01*
X316513Y23302D01*
X316415Y23276D01*
X316316Y23255D01*
X316216Y23237D01*
X316116Y23224D01*
X316015Y23214D01*
X315914Y23208D01*
X315813Y23206D01*
X313202Y23206D01*
X313202Y32604D01*
X315813Y32604D01*
X315903Y32602D01*
X315992Y32596D01*
X316082Y32587D01*
X316171Y32573D01*
X316259Y32556D01*
X316346Y32535D01*
X316433Y32510D01*
X316518Y32481D01*
X316602Y32449D01*
X316684Y32414D01*
X316765Y32374D01*
X316844Y32332D01*
X316921Y32286D01*
X316996Y32236D01*
X317069Y32184D01*
X317140Y32128D01*
X317208Y32070D01*
X317273Y32008D01*
X317336Y31944D01*
X317396Y31877D01*
X317453Y31808D01*
X317507Y31736D01*
X317558Y31662D01*
X317606Y31586D01*
X317650Y31508D01*
X317691Y31428D01*
X317729Y31346D01*
X317763Y31263D01*
X317793Y31178D01*
X317820Y31092D01*
X317843Y31006D01*
X317862Y30918D01*
X317877Y30829D01*
X317889Y30740D01*
X317897Y30651D01*
X317901Y30561D01*
X317901Y30471D01*
X317897Y30381D01*
X317889Y30292D01*
X317877Y30203D01*
X317862Y30114D01*
X317843Y30026D01*
X317820Y29940D01*
X317793Y29854D01*
X317763Y29769D01*
X317729Y29686D01*
X317691Y29604D01*
X317650Y29524D01*
X317606Y29446D01*
X317558Y29370D01*
X317507Y29296D01*
X317453Y29224D01*
X317396Y29155D01*
X317336Y29088D01*
X317273Y29024D01*
X317208Y28962D01*
X317140Y28904D01*
X317069Y28848D01*
X316996Y28796D01*
X316921Y28746D01*
X316844Y28700D01*
X316765Y28658D01*
X316684Y28618D01*
X316602Y28583D01*
X316518Y28551D01*
X316433Y28522D01*
X316346Y28497D01*
X316259Y28476D01*
X316171Y28459D01*
X316082Y28445D01*
X315992Y28436D01*
X315903Y28430D01*
X315813Y28428D01*
X323911Y32604D02*
X323911Y23206D01*
X321300Y32604D02*
X326522Y32604D01*
X329835Y30516D02*
X332445Y32604D01*
X332445Y23206D01*
X329835Y23206D02*
X335056Y23206D01*
X338979Y30516D02*
X341589Y32604D01*
X341589Y23206D01*
X338979Y23206D02*
X344200Y23206D01*
X352082Y28427D02*
X353649Y28427D01*
X353649Y23206D01*
X350516Y23206D01*
X350427Y23208D01*
X350339Y23214D01*
X350251Y23223D01*
X350163Y23236D01*
X350076Y23253D01*
X349990Y23273D01*
X349905Y23298D01*
X349820Y23325D01*
X349737Y23357D01*
X349656Y23391D01*
X349576Y23430D01*
X349498Y23471D01*
X349421Y23516D01*
X349347Y23564D01*
X349274Y23615D01*
X349204Y23669D01*
X349137Y23727D01*
X349071Y23787D01*
X349009Y23849D01*
X348949Y23915D01*
X348891Y23982D01*
X348837Y24052D01*
X348786Y24125D01*
X348738Y24199D01*
X348693Y24276D01*
X348652Y24354D01*
X348613Y24434D01*
X348579Y24515D01*
X348547Y24598D01*
X348520Y24683D01*
X348495Y24768D01*
X348475Y24854D01*
X348458Y24941D01*
X348445Y25029D01*
X348436Y25117D01*
X348430Y25205D01*
X348428Y25294D01*
X348428Y30516D01*
X348430Y30607D01*
X348436Y30698D01*
X348446Y30789D01*
X348460Y30879D01*
X348477Y30968D01*
X348499Y31056D01*
X348525Y31144D01*
X348554Y31230D01*
X348587Y31315D01*
X348624Y31398D01*
X348664Y31480D01*
X348708Y31560D01*
X348755Y31638D01*
X348806Y31714D01*
X348859Y31787D01*
X348916Y31858D01*
X348977Y31927D01*
X349040Y31992D01*
X349105Y32055D01*
X349174Y32115D01*
X349245Y32173D01*
X349318Y32226D01*
X349394Y32277D01*
X349472Y32324D01*
X349552Y32368D01*
X349634Y32408D01*
X349717Y32445D01*
X349802Y32478D01*
X349888Y32507D01*
X349976Y32533D01*
X350064Y32555D01*
X350153Y32572D01*
X350243Y32586D01*
X350334Y32596D01*
X350425Y32602D01*
X350516Y32604D01*
X353649Y32604D01*
D12*
X214679Y54711D02*
X214679Y55388D01*
X215356Y55388D01*
X215356Y54711D01*
X214679Y54711D01*
X197763Y103306D02*
X189175Y103306D01*
X189175Y128706D02*
X197763Y128706D01*
X200557Y118690D02*
X200557Y113322D01*
D13*
X183309Y132008D03*
D11*
X168368Y133198D02*
X158208Y133198D01*
X210316Y134864D02*
X210316Y145024D01*
D14*
X152496Y53601D02*
X152496Y46997D01*
X152496Y53601D02*
X154330Y53601D01*
X154415Y53599D01*
X154499Y53593D01*
X154583Y53583D01*
X154667Y53570D01*
X154750Y53552D01*
X154832Y53531D01*
X154913Y53506D01*
X154993Y53477D01*
X155071Y53445D01*
X155147Y53409D01*
X155222Y53369D01*
X155295Y53326D01*
X155366Y53280D01*
X155435Y53231D01*
X155502Y53178D01*
X155566Y53122D01*
X155627Y53064D01*
X155685Y53003D01*
X155741Y52939D01*
X155794Y52872D01*
X155843Y52803D01*
X155889Y52732D01*
X155932Y52659D01*
X155972Y52584D01*
X156008Y52508D01*
X156040Y52430D01*
X156069Y52350D01*
X156094Y52269D01*
X156115Y52187D01*
X156133Y52104D01*
X156146Y52020D01*
X156156Y51936D01*
X156162Y51852D01*
X156164Y51767D01*
X156162Y51682D01*
X156156Y51598D01*
X156146Y51514D01*
X156133Y51430D01*
X156115Y51347D01*
X156094Y51265D01*
X156069Y51184D01*
X156040Y51104D01*
X156008Y51026D01*
X155972Y50950D01*
X155932Y50875D01*
X155889Y50802D01*
X155843Y50731D01*
X155794Y50662D01*
X155741Y50595D01*
X155685Y50531D01*
X155627Y50470D01*
X155566Y50412D01*
X155502Y50356D01*
X155435Y50303D01*
X155366Y50254D01*
X155295Y50208D01*
X155222Y50165D01*
X155147Y50125D01*
X155071Y50089D01*
X154993Y50057D01*
X154913Y50028D01*
X154832Y50003D01*
X154750Y49982D01*
X154667Y49964D01*
X154583Y49951D01*
X154499Y49941D01*
X154415Y49935D01*
X154330Y49933D01*
X152496Y49933D01*
X154697Y49933D02*
X156165Y46997D01*
X161750Y53601D02*
X161829Y53599D01*
X161907Y53594D01*
X161985Y53584D01*
X162062Y53571D01*
X162139Y53554D01*
X162215Y53534D01*
X162290Y53510D01*
X162364Y53483D01*
X162436Y53452D01*
X162507Y53417D01*
X162576Y53380D01*
X162643Y53339D01*
X162708Y53295D01*
X162771Y53248D01*
X162831Y53198D01*
X162889Y53145D01*
X162945Y53089D01*
X162998Y53031D01*
X163048Y52971D01*
X163095Y52908D01*
X163139Y52843D01*
X163180Y52776D01*
X163217Y52707D01*
X163252Y52636D01*
X163283Y52564D01*
X163310Y52490D01*
X163334Y52415D01*
X163354Y52339D01*
X163371Y52262D01*
X163384Y52185D01*
X163394Y52107D01*
X163399Y52029D01*
X163401Y51950D01*
X161750Y53601D02*
X161661Y53599D01*
X161572Y53594D01*
X161484Y53584D01*
X161396Y53571D01*
X161309Y53555D01*
X161222Y53534D01*
X161137Y53510D01*
X161052Y53483D01*
X160969Y53452D01*
X160887Y53417D01*
X160806Y53379D01*
X160727Y53338D01*
X160651Y53294D01*
X160575Y53246D01*
X160502Y53195D01*
X160432Y53142D01*
X160363Y53085D01*
X160297Y53025D01*
X160234Y52963D01*
X160173Y52898D01*
X160115Y52831D01*
X160060Y52761D01*
X160007Y52689D01*
X159958Y52615D01*
X159912Y52539D01*
X159870Y52461D01*
X159830Y52381D01*
X159794Y52300D01*
X159761Y52217D01*
X159732Y52133D01*
X162851Y50666D02*
X162907Y50722D01*
X162961Y50781D01*
X163012Y50842D01*
X163061Y50906D01*
X163106Y50971D01*
X163149Y51039D01*
X163188Y51108D01*
X163225Y51179D01*
X163258Y51252D01*
X163287Y51326D01*
X163314Y51401D01*
X163337Y51477D01*
X163356Y51555D01*
X163372Y51633D01*
X163385Y51711D01*
X163394Y51791D01*
X163399Y51870D01*
X163401Y51950D01*
X162851Y50666D02*
X159732Y46997D01*
X163401Y46997D01*
D11*
X244169Y8191D02*
X434799Y8191D01*
X434799Y138161D01*
X244169Y138161D01*
X399879Y23271D02*
X429879Y23271D01*
X429879Y33271D01*
X403679Y33271D01*
X403679Y59971D01*
X403779Y59771D02*
X429879Y59771D01*
X429879Y83501D01*
X403779Y83501D01*
X403779Y110581D01*
X429879Y110581D01*
X429879Y123181D01*
X387279Y123181D01*
X387279Y95661D01*
X370679Y81161D01*
X244169Y138161D02*
X244169Y8191D01*
X156000Y73250D02*
X156000Y86250D01*
X187500Y86250D02*
X187500Y73250D01*
D15*
X162750Y57750D02*
X162752Y57813D01*
X162758Y57875D01*
X162768Y57937D01*
X162781Y57999D01*
X162799Y58059D01*
X162820Y58118D01*
X162845Y58176D01*
X162874Y58232D01*
X162906Y58286D01*
X162941Y58338D01*
X162979Y58387D01*
X163021Y58435D01*
X163065Y58479D01*
X163113Y58521D01*
X163162Y58559D01*
X163214Y58594D01*
X163268Y58626D01*
X163324Y58655D01*
X163382Y58680D01*
X163441Y58701D01*
X163501Y58719D01*
X163563Y58732D01*
X163625Y58742D01*
X163687Y58748D01*
X163750Y58750D01*
X163813Y58748D01*
X163875Y58742D01*
X163937Y58732D01*
X163999Y58719D01*
X164059Y58701D01*
X164118Y58680D01*
X164176Y58655D01*
X164232Y58626D01*
X164286Y58594D01*
X164338Y58559D01*
X164387Y58521D01*
X164435Y58479D01*
X164479Y58435D01*
X164521Y58387D01*
X164559Y58338D01*
X164594Y58286D01*
X164626Y58232D01*
X164655Y58176D01*
X164680Y58118D01*
X164701Y58059D01*
X164719Y57999D01*
X164732Y57937D01*
X164742Y57875D01*
X164748Y57813D01*
X164750Y57750D01*
X164748Y57687D01*
X164742Y57625D01*
X164732Y57563D01*
X164719Y57501D01*
X164701Y57441D01*
X164680Y57382D01*
X164655Y57324D01*
X164626Y57268D01*
X164594Y57214D01*
X164559Y57162D01*
X164521Y57113D01*
X164479Y57065D01*
X164435Y57021D01*
X164387Y56979D01*
X164338Y56941D01*
X164286Y56906D01*
X164232Y56874D01*
X164176Y56845D01*
X164118Y56820D01*
X164059Y56799D01*
X163999Y56781D01*
X163937Y56768D01*
X163875Y56758D01*
X163813Y56752D01*
X163750Y56750D01*
X163687Y56752D01*
X163625Y56758D01*
X163563Y56768D01*
X163501Y56781D01*
X163441Y56799D01*
X163382Y56820D01*
X163324Y56845D01*
X163268Y56874D01*
X163214Y56906D01*
X163162Y56941D01*
X163113Y56979D01*
X163065Y57021D01*
X163021Y57065D01*
X162979Y57113D01*
X162941Y57162D01*
X162906Y57214D01*
X162874Y57268D01*
X162845Y57324D01*
X162820Y57382D01*
X162799Y57441D01*
X162781Y57501D01*
X162768Y57563D01*
X162758Y57625D01*
X162752Y57687D01*
X162750Y57750D01*
D10*
X168603Y76631D02*
X175969Y76631D01*
X168603Y76631D02*
X168603Y78677D01*
X168605Y78766D01*
X168611Y78855D01*
X168621Y78944D01*
X168634Y79032D01*
X168651Y79120D01*
X168673Y79207D01*
X168698Y79292D01*
X168726Y79377D01*
X168759Y79460D01*
X168795Y79542D01*
X168834Y79622D01*
X168877Y79700D01*
X168923Y79776D01*
X168973Y79851D01*
X169026Y79923D01*
X169082Y79992D01*
X169141Y80059D01*
X169202Y80124D01*
X169267Y80185D01*
X169334Y80244D01*
X169403Y80300D01*
X169475Y80353D01*
X169550Y80403D01*
X169626Y80449D01*
X169704Y80492D01*
X169784Y80531D01*
X169866Y80567D01*
X169949Y80600D01*
X170034Y80628D01*
X170119Y80653D01*
X170206Y80675D01*
X170294Y80692D01*
X170382Y80705D01*
X170471Y80715D01*
X170560Y80721D01*
X170649Y80723D01*
X173923Y80723D01*
X174012Y80721D01*
X174101Y80715D01*
X174190Y80705D01*
X174278Y80692D01*
X174366Y80675D01*
X174453Y80653D01*
X174538Y80628D01*
X174623Y80600D01*
X174706Y80567D01*
X174788Y80531D01*
X174868Y80492D01*
X174946Y80449D01*
X175022Y80403D01*
X175097Y80353D01*
X175169Y80300D01*
X175238Y80244D01*
X175305Y80185D01*
X175370Y80124D01*
X175431Y80059D01*
X175490Y79992D01*
X175546Y79923D01*
X175599Y79851D01*
X175649Y79776D01*
X175695Y79700D01*
X175738Y79622D01*
X175777Y79542D01*
X175813Y79460D01*
X175846Y79377D01*
X175874Y79292D01*
X175899Y79207D01*
X175921Y79120D01*
X175938Y79032D01*
X175951Y78944D01*
X175961Y78855D01*
X175967Y78766D01*
X175969Y78677D01*
X175969Y76631D01*
X174332Y84190D02*
X168603Y85827D01*
X174332Y84190D02*
X174332Y88282D01*
X172695Y87055D02*
X175969Y87055D01*
D14*
X217797Y89046D02*
X217797Y82442D01*
X217797Y89046D02*
X219632Y89046D01*
X219717Y89044D01*
X219801Y89038D01*
X219885Y89028D01*
X219969Y89015D01*
X220052Y88997D01*
X220134Y88976D01*
X220215Y88951D01*
X220295Y88922D01*
X220373Y88890D01*
X220449Y88854D01*
X220524Y88814D01*
X220597Y88771D01*
X220668Y88725D01*
X220737Y88676D01*
X220804Y88623D01*
X220868Y88567D01*
X220929Y88509D01*
X220987Y88448D01*
X221043Y88384D01*
X221096Y88317D01*
X221145Y88248D01*
X221191Y88177D01*
X221234Y88104D01*
X221274Y88029D01*
X221310Y87953D01*
X221342Y87875D01*
X221371Y87795D01*
X221396Y87714D01*
X221417Y87632D01*
X221435Y87549D01*
X221448Y87465D01*
X221458Y87381D01*
X221464Y87297D01*
X221466Y87212D01*
X221464Y87127D01*
X221458Y87043D01*
X221448Y86959D01*
X221435Y86875D01*
X221417Y86792D01*
X221396Y86710D01*
X221371Y86629D01*
X221342Y86549D01*
X221310Y86471D01*
X221274Y86395D01*
X221234Y86320D01*
X221191Y86247D01*
X221145Y86176D01*
X221096Y86107D01*
X221043Y86040D01*
X220987Y85976D01*
X220929Y85915D01*
X220868Y85857D01*
X220804Y85801D01*
X220737Y85748D01*
X220668Y85699D01*
X220597Y85653D01*
X220524Y85610D01*
X220449Y85570D01*
X220373Y85534D01*
X220295Y85502D01*
X220215Y85473D01*
X220134Y85448D01*
X220052Y85427D01*
X219969Y85409D01*
X219885Y85396D01*
X219801Y85386D01*
X219717Y85380D01*
X219632Y85378D01*
X219632Y85377D02*
X217797Y85377D01*
X219999Y85377D02*
X221466Y82442D01*
X225034Y82442D02*
X226868Y82442D01*
X226953Y82444D01*
X227037Y82450D01*
X227121Y82460D01*
X227205Y82473D01*
X227288Y82491D01*
X227370Y82512D01*
X227451Y82537D01*
X227531Y82566D01*
X227609Y82598D01*
X227685Y82634D01*
X227760Y82674D01*
X227833Y82717D01*
X227904Y82763D01*
X227973Y82812D01*
X228040Y82865D01*
X228104Y82921D01*
X228165Y82979D01*
X228223Y83040D01*
X228279Y83104D01*
X228332Y83171D01*
X228381Y83240D01*
X228427Y83311D01*
X228470Y83384D01*
X228510Y83459D01*
X228546Y83535D01*
X228578Y83613D01*
X228607Y83693D01*
X228632Y83774D01*
X228653Y83856D01*
X228671Y83939D01*
X228684Y84023D01*
X228694Y84107D01*
X228700Y84191D01*
X228702Y84276D01*
X228700Y84361D01*
X228694Y84445D01*
X228684Y84529D01*
X228671Y84613D01*
X228653Y84696D01*
X228632Y84778D01*
X228607Y84859D01*
X228578Y84939D01*
X228546Y85017D01*
X228510Y85093D01*
X228470Y85168D01*
X228427Y85241D01*
X228381Y85312D01*
X228332Y85381D01*
X228279Y85448D01*
X228223Y85512D01*
X228165Y85573D01*
X228104Y85631D01*
X228040Y85687D01*
X227973Y85740D01*
X227904Y85789D01*
X227833Y85835D01*
X227760Y85878D01*
X227685Y85918D01*
X227609Y85954D01*
X227531Y85986D01*
X227451Y86015D01*
X227370Y86040D01*
X227288Y86061D01*
X227205Y86079D01*
X227121Y86092D01*
X227037Y86102D01*
X226953Y86108D01*
X226868Y86110D01*
X227235Y89046D02*
X225034Y89046D01*
X227235Y89046D02*
X227311Y89044D01*
X227386Y89038D01*
X227461Y89029D01*
X227535Y89015D01*
X227609Y88998D01*
X227681Y88976D01*
X227753Y88952D01*
X227823Y88923D01*
X227891Y88891D01*
X227958Y88856D01*
X228023Y88817D01*
X228086Y88774D01*
X228146Y88729D01*
X228204Y88681D01*
X228260Y88629D01*
X228312Y88575D01*
X228362Y88518D01*
X228409Y88459D01*
X228453Y88398D01*
X228494Y88334D01*
X228531Y88268D01*
X228565Y88200D01*
X228595Y88131D01*
X228622Y88060D01*
X228645Y87988D01*
X228664Y87915D01*
X228679Y87841D01*
X228691Y87766D01*
X228699Y87691D01*
X228703Y87616D01*
X228703Y87540D01*
X228699Y87465D01*
X228691Y87390D01*
X228679Y87315D01*
X228664Y87241D01*
X228645Y87168D01*
X228622Y87096D01*
X228595Y87025D01*
X228565Y86956D01*
X228531Y86888D01*
X228494Y86822D01*
X228453Y86758D01*
X228409Y86697D01*
X228362Y86638D01*
X228312Y86581D01*
X228260Y86527D01*
X228204Y86475D01*
X228146Y86427D01*
X228086Y86382D01*
X228023Y86339D01*
X227958Y86300D01*
X227891Y86265D01*
X227823Y86233D01*
X227753Y86204D01*
X227681Y86180D01*
X227609Y86158D01*
X227535Y86141D01*
X227461Y86127D01*
X227386Y86118D01*
X227311Y86112D01*
X227235Y86110D01*
X227235Y86111D02*
X225768Y86111D01*
X217697Y78446D02*
X217697Y71842D01*
X217697Y78446D02*
X219532Y78446D01*
X219617Y78444D01*
X219701Y78438D01*
X219785Y78428D01*
X219869Y78415D01*
X219952Y78397D01*
X220034Y78376D01*
X220115Y78351D01*
X220195Y78322D01*
X220273Y78290D01*
X220349Y78254D01*
X220424Y78214D01*
X220497Y78171D01*
X220568Y78125D01*
X220637Y78076D01*
X220704Y78023D01*
X220768Y77967D01*
X220829Y77909D01*
X220887Y77848D01*
X220943Y77784D01*
X220996Y77717D01*
X221045Y77648D01*
X221091Y77577D01*
X221134Y77504D01*
X221174Y77429D01*
X221210Y77353D01*
X221242Y77275D01*
X221271Y77195D01*
X221296Y77114D01*
X221317Y77032D01*
X221335Y76949D01*
X221348Y76865D01*
X221358Y76781D01*
X221364Y76697D01*
X221366Y76612D01*
X221364Y76527D01*
X221358Y76443D01*
X221348Y76359D01*
X221335Y76275D01*
X221317Y76192D01*
X221296Y76110D01*
X221271Y76029D01*
X221242Y75949D01*
X221210Y75871D01*
X221174Y75795D01*
X221134Y75720D01*
X221091Y75647D01*
X221045Y75576D01*
X220996Y75507D01*
X220943Y75440D01*
X220887Y75376D01*
X220829Y75315D01*
X220768Y75257D01*
X220704Y75201D01*
X220637Y75148D01*
X220568Y75099D01*
X220497Y75053D01*
X220424Y75010D01*
X220349Y74970D01*
X220273Y74934D01*
X220195Y74902D01*
X220115Y74873D01*
X220034Y74848D01*
X219952Y74827D01*
X219869Y74809D01*
X219785Y74796D01*
X219701Y74786D01*
X219617Y74780D01*
X219532Y74778D01*
X219532Y74777D02*
X217697Y74777D01*
X219899Y74777D02*
X221366Y71842D01*
X224934Y73310D02*
X226401Y78446D01*
X224934Y73310D02*
X228603Y73310D01*
X227502Y74777D02*
X227502Y71842D01*
D10*
X213155Y61081D02*
X211518Y61081D01*
X211440Y61083D01*
X211362Y61088D01*
X211285Y61098D01*
X211208Y61111D01*
X211132Y61127D01*
X211057Y61147D01*
X210983Y61171D01*
X210910Y61198D01*
X210838Y61229D01*
X210768Y61263D01*
X210700Y61300D01*
X210633Y61341D01*
X210568Y61385D01*
X210506Y61431D01*
X210446Y61481D01*
X210388Y61533D01*
X210333Y61588D01*
X210281Y61646D01*
X210231Y61706D01*
X210185Y61768D01*
X210141Y61833D01*
X210100Y61900D01*
X210063Y61968D01*
X210029Y62038D01*
X209998Y62110D01*
X209971Y62183D01*
X209947Y62257D01*
X209927Y62332D01*
X209911Y62408D01*
X209898Y62485D01*
X209888Y62562D01*
X209883Y62640D01*
X209881Y62718D01*
X209881Y66810D01*
X209883Y66890D01*
X209889Y66970D01*
X209899Y67050D01*
X209912Y67129D01*
X209930Y67208D01*
X209951Y67285D01*
X209977Y67361D01*
X210006Y67436D01*
X210038Y67510D01*
X210074Y67582D01*
X210114Y67652D01*
X210157Y67719D01*
X210203Y67785D01*
X210253Y67848D01*
X210305Y67909D01*
X210360Y67968D01*
X210419Y68023D01*
X210479Y68075D01*
X210543Y68125D01*
X210609Y68171D01*
X210676Y68214D01*
X210746Y68254D01*
X210818Y68290D01*
X210892Y68322D01*
X210966Y68351D01*
X211043Y68377D01*
X211120Y68398D01*
X211199Y68416D01*
X211278Y68429D01*
X211358Y68439D01*
X211438Y68445D01*
X211518Y68447D01*
X213155Y68447D01*
X216000Y66810D02*
X218046Y68447D01*
X218046Y61081D01*
X216000Y61081D02*
X220092Y61081D01*
D14*
X225147Y23058D02*
X225147Y16454D01*
X225147Y23058D02*
X226982Y23058D01*
X227067Y23056D01*
X227151Y23050D01*
X227235Y23040D01*
X227319Y23027D01*
X227402Y23009D01*
X227484Y22988D01*
X227565Y22963D01*
X227645Y22934D01*
X227723Y22902D01*
X227799Y22866D01*
X227874Y22826D01*
X227947Y22783D01*
X228018Y22737D01*
X228087Y22688D01*
X228154Y22635D01*
X228218Y22579D01*
X228279Y22521D01*
X228337Y22460D01*
X228393Y22396D01*
X228446Y22329D01*
X228495Y22260D01*
X228541Y22189D01*
X228584Y22116D01*
X228624Y22041D01*
X228660Y21965D01*
X228692Y21887D01*
X228721Y21807D01*
X228746Y21726D01*
X228767Y21644D01*
X228785Y21561D01*
X228798Y21477D01*
X228808Y21393D01*
X228814Y21309D01*
X228816Y21224D01*
X228814Y21139D01*
X228808Y21055D01*
X228798Y20971D01*
X228785Y20887D01*
X228767Y20804D01*
X228746Y20722D01*
X228721Y20641D01*
X228692Y20561D01*
X228660Y20483D01*
X228624Y20407D01*
X228584Y20332D01*
X228541Y20259D01*
X228495Y20188D01*
X228446Y20119D01*
X228393Y20052D01*
X228337Y19988D01*
X228279Y19927D01*
X228218Y19869D01*
X228154Y19813D01*
X228087Y19760D01*
X228018Y19711D01*
X227947Y19665D01*
X227874Y19622D01*
X227799Y19582D01*
X227723Y19546D01*
X227645Y19514D01*
X227565Y19485D01*
X227484Y19460D01*
X227402Y19439D01*
X227319Y19421D01*
X227235Y19408D01*
X227151Y19398D01*
X227067Y19392D01*
X226982Y19390D01*
X226982Y19389D02*
X225147Y19389D01*
X227349Y19389D02*
X228816Y16454D01*
X232384Y20123D02*
X234585Y20123D01*
X234659Y20121D01*
X234734Y20115D01*
X234807Y20106D01*
X234881Y20093D01*
X234953Y20076D01*
X235024Y20056D01*
X235095Y20032D01*
X235164Y20004D01*
X235231Y19973D01*
X235297Y19939D01*
X235362Y19901D01*
X235424Y19860D01*
X235484Y19816D01*
X235541Y19769D01*
X235596Y19719D01*
X235649Y19666D01*
X235699Y19611D01*
X235746Y19554D01*
X235790Y19494D01*
X235831Y19432D01*
X235869Y19367D01*
X235903Y19301D01*
X235934Y19234D01*
X235962Y19165D01*
X235986Y19094D01*
X236006Y19023D01*
X236023Y18951D01*
X236036Y18877D01*
X236045Y18804D01*
X236051Y18729D01*
X236053Y18655D01*
X236053Y18288D01*
X236052Y18288D02*
X236050Y18203D01*
X236044Y18119D01*
X236034Y18035D01*
X236021Y17951D01*
X236003Y17868D01*
X235982Y17786D01*
X235957Y17705D01*
X235928Y17625D01*
X235896Y17547D01*
X235860Y17471D01*
X235820Y17396D01*
X235777Y17323D01*
X235731Y17252D01*
X235682Y17183D01*
X235629Y17116D01*
X235573Y17052D01*
X235515Y16991D01*
X235454Y16933D01*
X235390Y16877D01*
X235323Y16824D01*
X235254Y16775D01*
X235183Y16729D01*
X235110Y16686D01*
X235035Y16646D01*
X234959Y16610D01*
X234881Y16578D01*
X234801Y16549D01*
X234720Y16524D01*
X234638Y16503D01*
X234555Y16485D01*
X234471Y16472D01*
X234387Y16462D01*
X234303Y16456D01*
X234218Y16454D01*
X234133Y16456D01*
X234049Y16462D01*
X233965Y16472D01*
X233881Y16485D01*
X233798Y16503D01*
X233716Y16524D01*
X233635Y16549D01*
X233555Y16578D01*
X233477Y16610D01*
X233401Y16646D01*
X233326Y16686D01*
X233253Y16729D01*
X233182Y16775D01*
X233113Y16824D01*
X233046Y16877D01*
X232982Y16933D01*
X232921Y16991D01*
X232863Y17052D01*
X232807Y17116D01*
X232754Y17183D01*
X232705Y17252D01*
X232659Y17323D01*
X232616Y17396D01*
X232576Y17471D01*
X232540Y17547D01*
X232508Y17625D01*
X232479Y17705D01*
X232454Y17786D01*
X232433Y17868D01*
X232415Y17951D01*
X232402Y18035D01*
X232392Y18119D01*
X232386Y18203D01*
X232384Y18288D01*
X232384Y20123D01*
X232386Y20230D01*
X232392Y20337D01*
X232402Y20444D01*
X232415Y20550D01*
X232433Y20656D01*
X232454Y20761D01*
X232479Y20865D01*
X232508Y20969D01*
X232541Y21071D01*
X232578Y21171D01*
X232618Y21271D01*
X232662Y21369D01*
X232709Y21465D01*
X232760Y21559D01*
X232814Y21652D01*
X232871Y21742D01*
X232932Y21831D01*
X232996Y21917D01*
X233063Y22000D01*
X233133Y22082D01*
X233206Y22160D01*
X233282Y22236D01*
X233360Y22309D01*
X233442Y22379D01*
X233525Y22446D01*
X233611Y22510D01*
X233700Y22571D01*
X233790Y22628D01*
X233883Y22682D01*
X233977Y22733D01*
X234073Y22780D01*
X234171Y22824D01*
X234271Y22864D01*
X234371Y22901D01*
X234473Y22934D01*
X234577Y22963D01*
X234681Y22988D01*
X234786Y23009D01*
X234892Y23027D01*
X234998Y23040D01*
X235105Y23050D01*
X235212Y23056D01*
X235319Y23058D01*
X218167Y92762D02*
X218167Y99366D01*
X220002Y99366D01*
X220087Y99364D01*
X220171Y99358D01*
X220255Y99348D01*
X220339Y99335D01*
X220422Y99317D01*
X220504Y99296D01*
X220585Y99271D01*
X220665Y99242D01*
X220743Y99210D01*
X220819Y99174D01*
X220894Y99134D01*
X220967Y99091D01*
X221038Y99045D01*
X221107Y98996D01*
X221174Y98943D01*
X221238Y98887D01*
X221299Y98829D01*
X221357Y98768D01*
X221413Y98704D01*
X221466Y98637D01*
X221515Y98568D01*
X221561Y98497D01*
X221604Y98424D01*
X221644Y98349D01*
X221680Y98273D01*
X221712Y98195D01*
X221741Y98115D01*
X221766Y98034D01*
X221787Y97952D01*
X221805Y97869D01*
X221818Y97785D01*
X221828Y97701D01*
X221834Y97617D01*
X221836Y97532D01*
X221834Y97447D01*
X221828Y97363D01*
X221818Y97279D01*
X221805Y97195D01*
X221787Y97112D01*
X221766Y97030D01*
X221741Y96949D01*
X221712Y96869D01*
X221680Y96791D01*
X221644Y96715D01*
X221604Y96640D01*
X221561Y96567D01*
X221515Y96496D01*
X221466Y96427D01*
X221413Y96360D01*
X221357Y96296D01*
X221299Y96235D01*
X221238Y96177D01*
X221174Y96121D01*
X221107Y96068D01*
X221038Y96019D01*
X220967Y95973D01*
X220894Y95930D01*
X220819Y95890D01*
X220743Y95854D01*
X220665Y95822D01*
X220585Y95793D01*
X220504Y95768D01*
X220422Y95747D01*
X220339Y95729D01*
X220255Y95716D01*
X220171Y95706D01*
X220087Y95700D01*
X220002Y95698D01*
X220002Y95697D02*
X218167Y95697D01*
X220369Y95697D02*
X221836Y92762D01*
X225404Y98632D02*
X225404Y99366D01*
X229073Y99366D01*
X227238Y92762D01*
X230547Y126014D02*
X230547Y132618D01*
X232382Y132618D01*
X232467Y132616D01*
X232551Y132610D01*
X232635Y132600D01*
X232719Y132587D01*
X232802Y132569D01*
X232884Y132548D01*
X232965Y132523D01*
X233045Y132494D01*
X233123Y132462D01*
X233199Y132426D01*
X233274Y132386D01*
X233347Y132343D01*
X233418Y132297D01*
X233487Y132248D01*
X233554Y132195D01*
X233618Y132139D01*
X233679Y132081D01*
X233737Y132020D01*
X233793Y131956D01*
X233846Y131889D01*
X233895Y131820D01*
X233941Y131749D01*
X233984Y131676D01*
X234024Y131601D01*
X234060Y131525D01*
X234092Y131447D01*
X234121Y131367D01*
X234146Y131286D01*
X234167Y131204D01*
X234185Y131121D01*
X234198Y131037D01*
X234208Y130953D01*
X234214Y130869D01*
X234216Y130784D01*
X234214Y130699D01*
X234208Y130615D01*
X234198Y130531D01*
X234185Y130447D01*
X234167Y130364D01*
X234146Y130282D01*
X234121Y130201D01*
X234092Y130121D01*
X234060Y130043D01*
X234024Y129967D01*
X233984Y129892D01*
X233941Y129819D01*
X233895Y129748D01*
X233846Y129679D01*
X233793Y129612D01*
X233737Y129548D01*
X233679Y129487D01*
X233618Y129429D01*
X233554Y129373D01*
X233487Y129320D01*
X233418Y129271D01*
X233347Y129225D01*
X233274Y129182D01*
X233199Y129142D01*
X233123Y129106D01*
X233045Y129074D01*
X232965Y129045D01*
X232884Y129020D01*
X232802Y128999D01*
X232719Y128981D01*
X232635Y128968D01*
X232551Y128958D01*
X232467Y128952D01*
X232382Y128950D01*
X232382Y128949D02*
X230547Y128949D01*
X232749Y128949D02*
X234216Y126014D01*
X237784Y127848D02*
X237786Y127933D01*
X237792Y128017D01*
X237802Y128101D01*
X237815Y128185D01*
X237833Y128268D01*
X237854Y128350D01*
X237879Y128431D01*
X237908Y128511D01*
X237940Y128589D01*
X237976Y128665D01*
X238016Y128740D01*
X238059Y128813D01*
X238105Y128884D01*
X238154Y128953D01*
X238207Y129020D01*
X238263Y129084D01*
X238321Y129145D01*
X238382Y129203D01*
X238446Y129259D01*
X238513Y129312D01*
X238582Y129361D01*
X238653Y129407D01*
X238726Y129450D01*
X238801Y129490D01*
X238877Y129526D01*
X238955Y129558D01*
X239035Y129587D01*
X239116Y129612D01*
X239198Y129633D01*
X239281Y129651D01*
X239365Y129664D01*
X239449Y129674D01*
X239533Y129680D01*
X239618Y129682D01*
X239703Y129680D01*
X239787Y129674D01*
X239871Y129664D01*
X239955Y129651D01*
X240038Y129633D01*
X240120Y129612D01*
X240201Y129587D01*
X240281Y129558D01*
X240359Y129526D01*
X240435Y129490D01*
X240510Y129450D01*
X240583Y129407D01*
X240654Y129361D01*
X240723Y129312D01*
X240790Y129259D01*
X240854Y129203D01*
X240915Y129145D01*
X240973Y129084D01*
X241029Y129020D01*
X241082Y128953D01*
X241131Y128884D01*
X241177Y128813D01*
X241220Y128740D01*
X241260Y128665D01*
X241296Y128589D01*
X241328Y128511D01*
X241357Y128431D01*
X241382Y128350D01*
X241403Y128268D01*
X241421Y128185D01*
X241434Y128101D01*
X241444Y128017D01*
X241450Y127933D01*
X241452Y127848D01*
X241450Y127763D01*
X241444Y127679D01*
X241434Y127595D01*
X241421Y127511D01*
X241403Y127428D01*
X241382Y127346D01*
X241357Y127265D01*
X241328Y127185D01*
X241296Y127107D01*
X241260Y127031D01*
X241220Y126956D01*
X241177Y126883D01*
X241131Y126812D01*
X241082Y126743D01*
X241029Y126676D01*
X240973Y126612D01*
X240915Y126551D01*
X240854Y126493D01*
X240790Y126437D01*
X240723Y126384D01*
X240654Y126335D01*
X240583Y126289D01*
X240510Y126246D01*
X240435Y126206D01*
X240359Y126170D01*
X240281Y126138D01*
X240201Y126109D01*
X240120Y126084D01*
X240038Y126063D01*
X239955Y126045D01*
X239871Y126032D01*
X239787Y126022D01*
X239703Y126016D01*
X239618Y126014D01*
X239533Y126016D01*
X239449Y126022D01*
X239365Y126032D01*
X239281Y126045D01*
X239198Y126063D01*
X239116Y126084D01*
X239035Y126109D01*
X238955Y126138D01*
X238877Y126170D01*
X238801Y126206D01*
X238726Y126246D01*
X238653Y126289D01*
X238582Y126335D01*
X238513Y126384D01*
X238446Y126437D01*
X238382Y126493D01*
X238321Y126551D01*
X238263Y126612D01*
X238207Y126676D01*
X238154Y126743D01*
X238105Y126812D01*
X238059Y126883D01*
X238016Y126956D01*
X237976Y127031D01*
X237940Y127107D01*
X237908Y127185D01*
X237879Y127265D01*
X237854Y127346D01*
X237833Y127428D01*
X237815Y127511D01*
X237802Y127595D01*
X237792Y127679D01*
X237786Y127763D01*
X237784Y127848D01*
X238150Y131150D02*
X238152Y131226D01*
X238158Y131301D01*
X238167Y131376D01*
X238181Y131450D01*
X238198Y131524D01*
X238220Y131596D01*
X238244Y131668D01*
X238273Y131738D01*
X238305Y131806D01*
X238340Y131873D01*
X238379Y131938D01*
X238422Y132001D01*
X238467Y132061D01*
X238515Y132119D01*
X238567Y132175D01*
X238621Y132227D01*
X238678Y132277D01*
X238737Y132324D01*
X238798Y132368D01*
X238862Y132409D01*
X238928Y132446D01*
X238996Y132480D01*
X239065Y132510D01*
X239136Y132537D01*
X239208Y132560D01*
X239281Y132579D01*
X239355Y132594D01*
X239430Y132606D01*
X239505Y132614D01*
X239580Y132618D01*
X239656Y132618D01*
X239731Y132614D01*
X239806Y132606D01*
X239881Y132594D01*
X239955Y132579D01*
X240028Y132560D01*
X240100Y132537D01*
X240171Y132510D01*
X240240Y132480D01*
X240308Y132446D01*
X240374Y132409D01*
X240438Y132368D01*
X240499Y132324D01*
X240558Y132277D01*
X240615Y132227D01*
X240669Y132175D01*
X240721Y132119D01*
X240769Y132061D01*
X240814Y132001D01*
X240857Y131938D01*
X240896Y131873D01*
X240931Y131806D01*
X240963Y131738D01*
X240992Y131668D01*
X241016Y131596D01*
X241038Y131524D01*
X241055Y131450D01*
X241069Y131376D01*
X241078Y131301D01*
X241084Y131226D01*
X241086Y131150D01*
X241084Y131074D01*
X241078Y130999D01*
X241069Y130924D01*
X241055Y130850D01*
X241038Y130776D01*
X241016Y130704D01*
X240992Y130632D01*
X240963Y130562D01*
X240931Y130494D01*
X240896Y130427D01*
X240857Y130362D01*
X240814Y130299D01*
X240769Y130239D01*
X240721Y130181D01*
X240669Y130125D01*
X240615Y130073D01*
X240558Y130023D01*
X240499Y129976D01*
X240438Y129932D01*
X240374Y129891D01*
X240308Y129854D01*
X240240Y129820D01*
X240171Y129790D01*
X240100Y129763D01*
X240028Y129740D01*
X239955Y129721D01*
X239881Y129706D01*
X239806Y129694D01*
X239731Y129686D01*
X239656Y129682D01*
X239580Y129682D01*
X239505Y129686D01*
X239430Y129694D01*
X239355Y129706D01*
X239281Y129721D01*
X239208Y129740D01*
X239136Y129763D01*
X239065Y129790D01*
X238996Y129820D01*
X238928Y129854D01*
X238862Y129891D01*
X238798Y129932D01*
X238737Y129976D01*
X238678Y130023D01*
X238621Y130073D01*
X238567Y130125D01*
X238515Y130181D01*
X238467Y130239D01*
X238422Y130299D01*
X238379Y130362D01*
X238340Y130427D01*
X238305Y130494D01*
X238273Y130562D01*
X238244Y130632D01*
X238220Y130704D01*
X238198Y130776D01*
X238181Y130850D01*
X238167Y130924D01*
X238158Y130999D01*
X238152Y131074D01*
X238150Y131150D01*
D12*
X77800Y133000D02*
X77800Y13000D01*
X77800Y133000D02*
X90000Y133000D01*
X90000Y13000D02*
X77800Y13000D01*
X120000Y33000D02*
X120000Y113000D01*
M02*
