G04 EAGLE Gerber RS-274X export*
G75*
%MOMM*%
%FSLAX34Y34*%
%LPD*%
%INSilkscreen Top*%
%IPPOS*%
%AMOC8*
5,1,8,0,0,1.08239X$1,22.5*%
G01*
%ADD10C,0.127000*%
%ADD11C,0.203200*%
%ADD12C,0.254000*%
%ADD13C,0.152400*%
%ADD14C,0.200000*%
%ADD15C,0.076200*%


D10*
X296346Y164330D02*
X294822Y164330D01*
X294745Y164332D01*
X294668Y164338D01*
X294591Y164348D01*
X294515Y164361D01*
X294440Y164379D01*
X294366Y164400D01*
X294293Y164425D01*
X294221Y164454D01*
X294151Y164486D01*
X294082Y164521D01*
X294016Y164561D01*
X293951Y164603D01*
X293889Y164649D01*
X293829Y164698D01*
X293772Y164749D01*
X293717Y164804D01*
X293666Y164861D01*
X293617Y164921D01*
X293571Y164983D01*
X293529Y165048D01*
X293489Y165114D01*
X293454Y165183D01*
X293422Y165253D01*
X293393Y165325D01*
X293368Y165398D01*
X293347Y165472D01*
X293329Y165547D01*
X293316Y165623D01*
X293306Y165700D01*
X293300Y165777D01*
X293298Y165854D01*
X293298Y169664D01*
X293300Y169741D01*
X293306Y169818D01*
X293316Y169895D01*
X293329Y169971D01*
X293347Y170046D01*
X293368Y170120D01*
X293393Y170193D01*
X293422Y170265D01*
X293454Y170335D01*
X293489Y170404D01*
X293529Y170470D01*
X293571Y170535D01*
X293617Y170597D01*
X293666Y170657D01*
X293717Y170714D01*
X293772Y170769D01*
X293829Y170820D01*
X293889Y170869D01*
X293951Y170915D01*
X294016Y170957D01*
X294082Y170997D01*
X294151Y171032D01*
X294221Y171064D01*
X294293Y171093D01*
X294366Y171118D01*
X294440Y171139D01*
X294515Y171157D01*
X294591Y171170D01*
X294668Y171180D01*
X294745Y171186D01*
X294822Y171188D01*
X296346Y171188D01*
X300949Y171188D02*
X299425Y165854D01*
X303235Y165854D01*
X302092Y167378D02*
X302092Y164330D01*
X234926Y164671D02*
X233402Y164671D01*
X233325Y164673D01*
X233248Y164679D01*
X233171Y164689D01*
X233095Y164702D01*
X233020Y164720D01*
X232946Y164741D01*
X232873Y164766D01*
X232801Y164795D01*
X232731Y164827D01*
X232662Y164862D01*
X232596Y164902D01*
X232531Y164944D01*
X232469Y164990D01*
X232409Y165039D01*
X232352Y165090D01*
X232297Y165145D01*
X232246Y165202D01*
X232197Y165262D01*
X232151Y165324D01*
X232109Y165389D01*
X232069Y165455D01*
X232034Y165524D01*
X232002Y165594D01*
X231973Y165666D01*
X231948Y165739D01*
X231927Y165813D01*
X231909Y165888D01*
X231896Y165964D01*
X231886Y166041D01*
X231880Y166118D01*
X231878Y166195D01*
X231878Y170005D01*
X231880Y170082D01*
X231886Y170159D01*
X231896Y170236D01*
X231909Y170312D01*
X231927Y170387D01*
X231948Y170461D01*
X231973Y170534D01*
X232002Y170606D01*
X232034Y170676D01*
X232069Y170745D01*
X232109Y170811D01*
X232151Y170876D01*
X232197Y170938D01*
X232246Y170998D01*
X232297Y171055D01*
X232352Y171110D01*
X232409Y171161D01*
X232469Y171210D01*
X232531Y171256D01*
X232596Y171298D01*
X232662Y171338D01*
X232731Y171373D01*
X232801Y171405D01*
X232873Y171434D01*
X232946Y171459D01*
X233020Y171480D01*
X233095Y171498D01*
X233171Y171511D01*
X233248Y171521D01*
X233325Y171527D01*
X233402Y171529D01*
X234926Y171529D01*
X238005Y164671D02*
X239910Y164671D01*
X239995Y164673D01*
X240081Y164679D01*
X240166Y164688D01*
X240250Y164702D01*
X240334Y164719D01*
X240417Y164740D01*
X240499Y164764D01*
X240579Y164792D01*
X240659Y164824D01*
X240737Y164860D01*
X240813Y164898D01*
X240887Y164941D01*
X240959Y164986D01*
X241030Y165035D01*
X241098Y165087D01*
X241163Y165141D01*
X241226Y165199D01*
X241287Y165260D01*
X241345Y165323D01*
X241399Y165388D01*
X241451Y165456D01*
X241500Y165527D01*
X241545Y165599D01*
X241588Y165673D01*
X241626Y165749D01*
X241662Y165827D01*
X241694Y165907D01*
X241722Y165987D01*
X241746Y166069D01*
X241767Y166152D01*
X241784Y166236D01*
X241798Y166320D01*
X241807Y166405D01*
X241813Y166491D01*
X241815Y166576D01*
X241813Y166661D01*
X241807Y166747D01*
X241798Y166832D01*
X241784Y166916D01*
X241767Y167000D01*
X241746Y167083D01*
X241722Y167165D01*
X241694Y167245D01*
X241662Y167325D01*
X241626Y167403D01*
X241588Y167479D01*
X241545Y167553D01*
X241500Y167625D01*
X241451Y167696D01*
X241399Y167764D01*
X241345Y167829D01*
X241287Y167892D01*
X241226Y167953D01*
X241163Y168011D01*
X241098Y168065D01*
X241030Y168117D01*
X240959Y168166D01*
X240887Y168211D01*
X240813Y168254D01*
X240737Y168292D01*
X240659Y168328D01*
X240579Y168360D01*
X240499Y168388D01*
X240417Y168412D01*
X240334Y168433D01*
X240250Y168450D01*
X240166Y168464D01*
X240081Y168473D01*
X239995Y168479D01*
X239910Y168481D01*
X240291Y171529D02*
X238005Y171529D01*
X240291Y171529D02*
X240368Y171527D01*
X240445Y171521D01*
X240522Y171511D01*
X240598Y171498D01*
X240673Y171480D01*
X240747Y171459D01*
X240820Y171434D01*
X240892Y171405D01*
X240962Y171373D01*
X241031Y171338D01*
X241097Y171298D01*
X241162Y171256D01*
X241224Y171210D01*
X241284Y171161D01*
X241341Y171110D01*
X241396Y171055D01*
X241447Y170998D01*
X241496Y170938D01*
X241542Y170876D01*
X241584Y170811D01*
X241624Y170745D01*
X241659Y170676D01*
X241691Y170606D01*
X241720Y170534D01*
X241745Y170461D01*
X241766Y170387D01*
X241784Y170312D01*
X241797Y170236D01*
X241807Y170159D01*
X241813Y170082D01*
X241815Y170005D01*
X241813Y169928D01*
X241807Y169851D01*
X241797Y169774D01*
X241784Y169698D01*
X241766Y169623D01*
X241745Y169549D01*
X241720Y169476D01*
X241691Y169404D01*
X241659Y169334D01*
X241624Y169265D01*
X241584Y169199D01*
X241542Y169134D01*
X241496Y169072D01*
X241447Y169012D01*
X241396Y168955D01*
X241341Y168900D01*
X241284Y168849D01*
X241224Y168800D01*
X241162Y168754D01*
X241097Y168712D01*
X241031Y168672D01*
X240962Y168637D01*
X240892Y168605D01*
X240820Y168576D01*
X240747Y168551D01*
X240673Y168530D01*
X240598Y168512D01*
X240522Y168499D01*
X240445Y168489D01*
X240368Y168483D01*
X240291Y168481D01*
X238767Y168481D01*
X326108Y150393D02*
X326108Y149250D01*
X322298Y149250D01*
X322298Y151536D01*
X322300Y151613D01*
X322306Y151690D01*
X322316Y151767D01*
X322329Y151843D01*
X322347Y151918D01*
X322368Y151992D01*
X322393Y152065D01*
X322422Y152137D01*
X322454Y152207D01*
X322489Y152276D01*
X322529Y152342D01*
X322571Y152407D01*
X322617Y152469D01*
X322666Y152529D01*
X322717Y152586D01*
X322772Y152641D01*
X322829Y152692D01*
X322889Y152741D01*
X322951Y152787D01*
X323016Y152829D01*
X323082Y152869D01*
X323151Y152904D01*
X323221Y152936D01*
X323293Y152965D01*
X323366Y152990D01*
X323440Y153011D01*
X323515Y153029D01*
X323591Y153042D01*
X323668Y153052D01*
X323745Y153058D01*
X323822Y153060D01*
X327632Y153060D01*
X327709Y153058D01*
X327786Y153052D01*
X327863Y153042D01*
X327939Y153029D01*
X328014Y153011D01*
X328088Y152990D01*
X328161Y152965D01*
X328233Y152936D01*
X328303Y152904D01*
X328372Y152869D01*
X328438Y152829D01*
X328503Y152787D01*
X328565Y152741D01*
X328625Y152692D01*
X328682Y152641D01*
X328737Y152586D01*
X328788Y152529D01*
X328837Y152469D01*
X328883Y152407D01*
X328925Y152342D01*
X328965Y152276D01*
X329000Y152207D01*
X329032Y152137D01*
X329061Y152065D01*
X329086Y151992D01*
X329107Y151918D01*
X329125Y151843D01*
X329138Y151767D01*
X329148Y151690D01*
X329154Y151613D01*
X329156Y151536D01*
X329156Y149250D01*
X329156Y145257D02*
X322298Y145257D01*
X322298Y141447D02*
X329156Y145257D01*
X329156Y141447D02*
X322298Y141447D01*
X322298Y137454D02*
X329156Y137454D01*
X329156Y135549D01*
X329154Y135464D01*
X329148Y135378D01*
X329139Y135293D01*
X329125Y135209D01*
X329108Y135125D01*
X329087Y135042D01*
X329063Y134960D01*
X329035Y134880D01*
X329003Y134800D01*
X328967Y134722D01*
X328929Y134646D01*
X328886Y134572D01*
X328841Y134500D01*
X328792Y134429D01*
X328740Y134361D01*
X328686Y134296D01*
X328628Y134233D01*
X328567Y134172D01*
X328504Y134114D01*
X328439Y134060D01*
X328371Y134008D01*
X328300Y133959D01*
X328228Y133914D01*
X328154Y133871D01*
X328078Y133833D01*
X328000Y133797D01*
X327920Y133765D01*
X327840Y133737D01*
X327758Y133713D01*
X327675Y133692D01*
X327591Y133675D01*
X327507Y133661D01*
X327422Y133652D01*
X327336Y133646D01*
X327251Y133644D01*
X324203Y133644D01*
X324118Y133646D01*
X324032Y133652D01*
X323947Y133661D01*
X323863Y133675D01*
X323779Y133692D01*
X323696Y133713D01*
X323614Y133737D01*
X323534Y133765D01*
X323454Y133797D01*
X323376Y133833D01*
X323300Y133871D01*
X323226Y133914D01*
X323154Y133959D01*
X323083Y134008D01*
X323015Y134060D01*
X322950Y134114D01*
X322887Y134172D01*
X322826Y134233D01*
X322768Y134296D01*
X322714Y134361D01*
X322662Y134429D01*
X322613Y134500D01*
X322568Y134572D01*
X322525Y134646D01*
X322487Y134722D01*
X322451Y134800D01*
X322419Y134880D01*
X322391Y134960D01*
X322367Y135042D01*
X322346Y135125D01*
X322329Y135209D01*
X322315Y135293D01*
X322306Y135378D01*
X322300Y135464D01*
X322298Y135549D01*
X322298Y137454D01*
X334298Y151155D02*
X334298Y153060D01*
X334298Y151155D02*
X334300Y151070D01*
X334306Y150984D01*
X334315Y150899D01*
X334329Y150815D01*
X334346Y150731D01*
X334367Y150648D01*
X334391Y150566D01*
X334419Y150486D01*
X334451Y150406D01*
X334487Y150328D01*
X334525Y150252D01*
X334568Y150178D01*
X334613Y150106D01*
X334662Y150035D01*
X334714Y149967D01*
X334768Y149902D01*
X334826Y149839D01*
X334887Y149778D01*
X334950Y149720D01*
X335015Y149666D01*
X335083Y149614D01*
X335154Y149565D01*
X335226Y149520D01*
X335300Y149477D01*
X335376Y149439D01*
X335454Y149403D01*
X335534Y149371D01*
X335614Y149343D01*
X335696Y149319D01*
X335779Y149298D01*
X335863Y149281D01*
X335947Y149267D01*
X336032Y149258D01*
X336118Y149252D01*
X336203Y149250D01*
X336288Y149252D01*
X336374Y149258D01*
X336459Y149267D01*
X336543Y149281D01*
X336627Y149298D01*
X336710Y149319D01*
X336792Y149343D01*
X336872Y149371D01*
X336952Y149403D01*
X337030Y149439D01*
X337106Y149477D01*
X337180Y149520D01*
X337252Y149565D01*
X337323Y149614D01*
X337391Y149666D01*
X337456Y149720D01*
X337519Y149778D01*
X337580Y149839D01*
X337638Y149902D01*
X337692Y149967D01*
X337744Y150035D01*
X337793Y150106D01*
X337838Y150178D01*
X337881Y150252D01*
X337919Y150328D01*
X337955Y150406D01*
X337987Y150486D01*
X338015Y150566D01*
X338039Y150648D01*
X338060Y150731D01*
X338077Y150815D01*
X338091Y150899D01*
X338100Y150984D01*
X338106Y151070D01*
X338108Y151155D01*
X341156Y150774D02*
X341156Y153060D01*
X341156Y150774D02*
X341154Y150697D01*
X341148Y150620D01*
X341138Y150543D01*
X341125Y150467D01*
X341107Y150392D01*
X341086Y150318D01*
X341061Y150245D01*
X341032Y150173D01*
X341000Y150103D01*
X340965Y150034D01*
X340925Y149968D01*
X340883Y149903D01*
X340837Y149841D01*
X340788Y149781D01*
X340737Y149724D01*
X340682Y149669D01*
X340625Y149618D01*
X340565Y149569D01*
X340503Y149523D01*
X340438Y149481D01*
X340372Y149441D01*
X340303Y149406D01*
X340233Y149374D01*
X340161Y149345D01*
X340088Y149320D01*
X340014Y149299D01*
X339939Y149281D01*
X339863Y149268D01*
X339786Y149258D01*
X339709Y149252D01*
X339632Y149250D01*
X339555Y149252D01*
X339478Y149258D01*
X339401Y149268D01*
X339325Y149281D01*
X339250Y149299D01*
X339176Y149320D01*
X339103Y149345D01*
X339031Y149374D01*
X338961Y149406D01*
X338892Y149441D01*
X338826Y149481D01*
X338761Y149523D01*
X338699Y149569D01*
X338639Y149618D01*
X338582Y149669D01*
X338527Y149724D01*
X338476Y149781D01*
X338427Y149841D01*
X338381Y149903D01*
X338339Y149968D01*
X338299Y150034D01*
X338264Y150103D01*
X338232Y150173D01*
X338203Y150245D01*
X338178Y150318D01*
X338157Y150392D01*
X338139Y150467D01*
X338126Y150543D01*
X338116Y150620D01*
X338110Y150697D01*
X338108Y150774D01*
X338108Y152298D01*
X341156Y146126D02*
X334298Y143840D01*
X341156Y141554D01*
X334298Y138430D02*
X334298Y136525D01*
X334300Y136440D01*
X334306Y136354D01*
X334315Y136269D01*
X334329Y136185D01*
X334346Y136101D01*
X334367Y136018D01*
X334391Y135936D01*
X334419Y135856D01*
X334451Y135776D01*
X334487Y135698D01*
X334525Y135622D01*
X334568Y135548D01*
X334613Y135476D01*
X334662Y135405D01*
X334714Y135337D01*
X334768Y135272D01*
X334826Y135209D01*
X334887Y135148D01*
X334950Y135090D01*
X335015Y135036D01*
X335083Y134984D01*
X335154Y134935D01*
X335226Y134890D01*
X335300Y134847D01*
X335376Y134809D01*
X335454Y134773D01*
X335534Y134741D01*
X335614Y134713D01*
X335696Y134689D01*
X335779Y134668D01*
X335863Y134651D01*
X335947Y134637D01*
X336032Y134628D01*
X336118Y134622D01*
X336203Y134620D01*
X336288Y134622D01*
X336374Y134628D01*
X336459Y134637D01*
X336543Y134651D01*
X336627Y134668D01*
X336710Y134689D01*
X336792Y134713D01*
X336872Y134741D01*
X336952Y134773D01*
X337030Y134809D01*
X337106Y134847D01*
X337180Y134890D01*
X337252Y134935D01*
X337323Y134984D01*
X337391Y135036D01*
X337456Y135090D01*
X337519Y135148D01*
X337580Y135209D01*
X337638Y135272D01*
X337692Y135337D01*
X337744Y135405D01*
X337793Y135476D01*
X337838Y135548D01*
X337881Y135622D01*
X337919Y135698D01*
X337955Y135776D01*
X337987Y135856D01*
X338015Y135936D01*
X338039Y136018D01*
X338060Y136101D01*
X338077Y136185D01*
X338091Y136269D01*
X338100Y136354D01*
X338106Y136440D01*
X338108Y136525D01*
X341156Y136144D02*
X341156Y138430D01*
X341156Y136144D02*
X341154Y136067D01*
X341148Y135990D01*
X341138Y135913D01*
X341125Y135837D01*
X341107Y135762D01*
X341086Y135688D01*
X341061Y135615D01*
X341032Y135543D01*
X341000Y135473D01*
X340965Y135404D01*
X340925Y135338D01*
X340883Y135273D01*
X340837Y135211D01*
X340788Y135151D01*
X340737Y135094D01*
X340682Y135039D01*
X340625Y134988D01*
X340565Y134939D01*
X340503Y134893D01*
X340438Y134851D01*
X340372Y134811D01*
X340303Y134776D01*
X340233Y134744D01*
X340161Y134715D01*
X340088Y134690D01*
X340014Y134669D01*
X339939Y134651D01*
X339863Y134638D01*
X339786Y134628D01*
X339709Y134622D01*
X339632Y134620D01*
X339555Y134622D01*
X339478Y134628D01*
X339401Y134638D01*
X339325Y134651D01*
X339250Y134669D01*
X339176Y134690D01*
X339103Y134715D01*
X339031Y134744D01*
X338961Y134776D01*
X338892Y134811D01*
X338826Y134851D01*
X338761Y134893D01*
X338699Y134939D01*
X338639Y134988D01*
X338582Y135039D01*
X338527Y135094D01*
X338476Y135151D01*
X338427Y135211D01*
X338381Y135273D01*
X338339Y135338D01*
X338299Y135404D01*
X338264Y135473D01*
X338232Y135543D01*
X338203Y135615D01*
X338178Y135688D01*
X338157Y135762D01*
X338139Y135837D01*
X338126Y135913D01*
X338116Y135990D01*
X338110Y136067D01*
X338108Y136144D01*
X338108Y137668D01*
X348822Y149250D02*
X348745Y149252D01*
X348668Y149258D01*
X348591Y149268D01*
X348515Y149281D01*
X348440Y149299D01*
X348366Y149320D01*
X348293Y149345D01*
X348221Y149374D01*
X348151Y149406D01*
X348082Y149441D01*
X348016Y149481D01*
X347951Y149523D01*
X347889Y149569D01*
X347829Y149618D01*
X347772Y149669D01*
X347717Y149724D01*
X347666Y149781D01*
X347617Y149841D01*
X347571Y149903D01*
X347529Y149968D01*
X347489Y150034D01*
X347454Y150103D01*
X347422Y150173D01*
X347393Y150245D01*
X347368Y150318D01*
X347347Y150392D01*
X347329Y150467D01*
X347316Y150543D01*
X347306Y150620D01*
X347300Y150697D01*
X347298Y150774D01*
X347300Y150884D01*
X347306Y150995D01*
X347315Y151105D01*
X347328Y151215D01*
X347345Y151324D01*
X347366Y151432D01*
X347390Y151540D01*
X347419Y151647D01*
X347450Y151753D01*
X347486Y151857D01*
X347525Y151961D01*
X347567Y152063D01*
X347613Y152163D01*
X347663Y152262D01*
X347715Y152359D01*
X347772Y152455D01*
X347831Y152548D01*
X347893Y152639D01*
X347959Y152728D01*
X348027Y152815D01*
X348099Y152899D01*
X348173Y152981D01*
X348250Y153060D01*
X352632Y152870D02*
X352709Y152868D01*
X352786Y152862D01*
X352863Y152852D01*
X352939Y152839D01*
X353014Y152821D01*
X353088Y152800D01*
X353161Y152775D01*
X353233Y152746D01*
X353303Y152714D01*
X353372Y152679D01*
X353438Y152639D01*
X353503Y152597D01*
X353565Y152551D01*
X353625Y152502D01*
X353682Y152451D01*
X353737Y152396D01*
X353788Y152339D01*
X353837Y152279D01*
X353883Y152217D01*
X353925Y152152D01*
X353965Y152086D01*
X354000Y152017D01*
X354032Y151947D01*
X354061Y151875D01*
X354086Y151802D01*
X354107Y151728D01*
X354125Y151653D01*
X354138Y151577D01*
X354148Y151500D01*
X354154Y151423D01*
X354156Y151346D01*
X354154Y151244D01*
X354149Y151142D01*
X354140Y151040D01*
X354127Y150939D01*
X354110Y150838D01*
X354091Y150738D01*
X354067Y150638D01*
X354040Y150540D01*
X354009Y150442D01*
X353975Y150346D01*
X353938Y150251D01*
X353897Y150157D01*
X353853Y150065D01*
X353805Y149975D01*
X353755Y149886D01*
X353701Y149799D01*
X353644Y149714D01*
X353584Y149631D01*
X351298Y152108D02*
X351339Y152173D01*
X351382Y152236D01*
X351429Y152296D01*
X351479Y152355D01*
X351531Y152410D01*
X351586Y152463D01*
X351644Y152514D01*
X351704Y152561D01*
X351767Y152605D01*
X351831Y152647D01*
X351897Y152685D01*
X351966Y152719D01*
X352036Y152750D01*
X352107Y152778D01*
X352179Y152802D01*
X352253Y152823D01*
X352328Y152840D01*
X352403Y152853D01*
X352479Y152862D01*
X352555Y152868D01*
X352632Y152870D01*
X350156Y150012D02*
X350115Y149947D01*
X350072Y149884D01*
X350025Y149824D01*
X349975Y149765D01*
X349923Y149710D01*
X349868Y149657D01*
X349810Y149606D01*
X349750Y149559D01*
X349687Y149515D01*
X349623Y149473D01*
X349557Y149435D01*
X349488Y149401D01*
X349418Y149370D01*
X349347Y149342D01*
X349275Y149318D01*
X349201Y149297D01*
X349126Y149280D01*
X349051Y149267D01*
X348975Y149258D01*
X348899Y149252D01*
X348822Y149250D01*
X350155Y150012D02*
X351298Y152108D01*
X354156Y146156D02*
X347298Y144632D01*
X351870Y143108D01*
X347298Y141584D01*
X354156Y140060D01*
X347298Y135230D02*
X347298Y133706D01*
X347298Y135230D02*
X347300Y135307D01*
X347306Y135384D01*
X347316Y135461D01*
X347329Y135537D01*
X347347Y135612D01*
X347368Y135686D01*
X347393Y135759D01*
X347422Y135831D01*
X347454Y135901D01*
X347489Y135970D01*
X347529Y136036D01*
X347571Y136101D01*
X347617Y136163D01*
X347666Y136223D01*
X347717Y136280D01*
X347772Y136335D01*
X347829Y136386D01*
X347889Y136435D01*
X347951Y136481D01*
X348016Y136523D01*
X348082Y136563D01*
X348151Y136598D01*
X348221Y136630D01*
X348293Y136659D01*
X348366Y136684D01*
X348440Y136705D01*
X348515Y136723D01*
X348591Y136736D01*
X348668Y136746D01*
X348745Y136752D01*
X348822Y136754D01*
X352632Y136754D01*
X352709Y136752D01*
X352786Y136746D01*
X352863Y136736D01*
X352939Y136723D01*
X353014Y136705D01*
X353088Y136684D01*
X353161Y136659D01*
X353233Y136630D01*
X353303Y136598D01*
X353372Y136563D01*
X353438Y136523D01*
X353503Y136481D01*
X353565Y136435D01*
X353625Y136386D01*
X353682Y136335D01*
X353737Y136280D01*
X353788Y136223D01*
X353837Y136163D01*
X353883Y136101D01*
X353925Y136036D01*
X353965Y135970D01*
X354000Y135901D01*
X354032Y135831D01*
X354061Y135759D01*
X354086Y135686D01*
X354107Y135612D01*
X354125Y135537D01*
X354138Y135461D01*
X354148Y135384D01*
X354154Y135307D01*
X354156Y135230D01*
X354156Y133706D01*
X354918Y127929D02*
X346536Y130977D01*
X347298Y123357D02*
X354156Y123357D01*
X354156Y125262D02*
X354156Y121452D01*
X347298Y116942D02*
X347298Y115418D01*
X347298Y116942D02*
X347300Y117019D01*
X347306Y117096D01*
X347316Y117173D01*
X347329Y117249D01*
X347347Y117324D01*
X347368Y117398D01*
X347393Y117471D01*
X347422Y117543D01*
X347454Y117613D01*
X347489Y117682D01*
X347529Y117748D01*
X347571Y117813D01*
X347617Y117875D01*
X347666Y117935D01*
X347717Y117992D01*
X347772Y118047D01*
X347829Y118098D01*
X347889Y118147D01*
X347951Y118193D01*
X348016Y118235D01*
X348082Y118275D01*
X348151Y118310D01*
X348221Y118342D01*
X348293Y118371D01*
X348366Y118396D01*
X348440Y118417D01*
X348515Y118435D01*
X348591Y118448D01*
X348668Y118458D01*
X348745Y118464D01*
X348822Y118466D01*
X352632Y118466D01*
X352709Y118464D01*
X352786Y118458D01*
X352863Y118448D01*
X352939Y118435D01*
X353014Y118417D01*
X353088Y118396D01*
X353161Y118371D01*
X353233Y118342D01*
X353303Y118310D01*
X353372Y118275D01*
X353438Y118235D01*
X353503Y118193D01*
X353565Y118147D01*
X353625Y118098D01*
X353682Y118047D01*
X353737Y117992D01*
X353788Y117935D01*
X353837Y117875D01*
X353883Y117813D01*
X353925Y117748D01*
X353965Y117682D01*
X354000Y117613D01*
X354032Y117543D01*
X354061Y117471D01*
X354086Y117398D01*
X354107Y117324D01*
X354125Y117249D01*
X354138Y117173D01*
X354148Y117096D01*
X354154Y117019D01*
X354156Y116942D01*
X354156Y115418D01*
X354156Y111935D02*
X347298Y111935D01*
X349965Y111935D02*
X354156Y108125D01*
X351489Y110411D02*
X347298Y108125D01*
X362822Y149250D02*
X362745Y149252D01*
X362668Y149258D01*
X362591Y149268D01*
X362515Y149281D01*
X362440Y149299D01*
X362366Y149320D01*
X362293Y149345D01*
X362221Y149374D01*
X362151Y149406D01*
X362082Y149441D01*
X362016Y149481D01*
X361951Y149523D01*
X361889Y149569D01*
X361829Y149618D01*
X361772Y149669D01*
X361717Y149724D01*
X361666Y149781D01*
X361617Y149841D01*
X361571Y149903D01*
X361529Y149968D01*
X361489Y150034D01*
X361454Y150103D01*
X361422Y150173D01*
X361393Y150245D01*
X361368Y150318D01*
X361347Y150392D01*
X361329Y150467D01*
X361316Y150543D01*
X361306Y150620D01*
X361300Y150697D01*
X361298Y150774D01*
X361300Y150884D01*
X361306Y150995D01*
X361315Y151105D01*
X361328Y151215D01*
X361345Y151324D01*
X361366Y151432D01*
X361390Y151540D01*
X361419Y151647D01*
X361450Y151753D01*
X361486Y151857D01*
X361525Y151961D01*
X361567Y152063D01*
X361613Y152163D01*
X361663Y152262D01*
X361715Y152359D01*
X361772Y152455D01*
X361831Y152548D01*
X361893Y152639D01*
X361959Y152728D01*
X362027Y152815D01*
X362099Y152899D01*
X362173Y152981D01*
X362250Y153060D01*
X366632Y152870D02*
X366709Y152868D01*
X366786Y152862D01*
X366863Y152852D01*
X366939Y152839D01*
X367014Y152821D01*
X367088Y152800D01*
X367161Y152775D01*
X367233Y152746D01*
X367303Y152714D01*
X367372Y152679D01*
X367438Y152639D01*
X367503Y152597D01*
X367565Y152551D01*
X367625Y152502D01*
X367682Y152451D01*
X367737Y152396D01*
X367788Y152339D01*
X367837Y152279D01*
X367883Y152217D01*
X367925Y152152D01*
X367965Y152086D01*
X368000Y152017D01*
X368032Y151947D01*
X368061Y151875D01*
X368086Y151802D01*
X368107Y151728D01*
X368125Y151653D01*
X368138Y151577D01*
X368148Y151500D01*
X368154Y151423D01*
X368156Y151346D01*
X368154Y151244D01*
X368149Y151142D01*
X368140Y151040D01*
X368127Y150939D01*
X368110Y150838D01*
X368091Y150738D01*
X368067Y150638D01*
X368040Y150540D01*
X368009Y150442D01*
X367975Y150346D01*
X367938Y150251D01*
X367897Y150157D01*
X367853Y150065D01*
X367805Y149975D01*
X367755Y149886D01*
X367701Y149799D01*
X367644Y149714D01*
X367584Y149631D01*
X365298Y152108D02*
X365339Y152173D01*
X365382Y152236D01*
X365429Y152296D01*
X365479Y152355D01*
X365531Y152410D01*
X365586Y152463D01*
X365644Y152514D01*
X365704Y152561D01*
X365767Y152605D01*
X365831Y152647D01*
X365897Y152685D01*
X365966Y152719D01*
X366036Y152750D01*
X366107Y152778D01*
X366179Y152802D01*
X366253Y152823D01*
X366328Y152840D01*
X366403Y152853D01*
X366479Y152862D01*
X366555Y152868D01*
X366632Y152870D01*
X364156Y150012D02*
X364115Y149947D01*
X364072Y149884D01*
X364025Y149824D01*
X363975Y149765D01*
X363923Y149710D01*
X363868Y149657D01*
X363810Y149606D01*
X363750Y149559D01*
X363687Y149515D01*
X363623Y149473D01*
X363557Y149435D01*
X363488Y149401D01*
X363418Y149370D01*
X363347Y149342D01*
X363275Y149318D01*
X363201Y149297D01*
X363126Y149280D01*
X363051Y149267D01*
X362975Y149258D01*
X362899Y149252D01*
X362822Y149250D01*
X364155Y150012D02*
X365298Y152108D01*
X368156Y146156D02*
X361298Y144632D01*
X365870Y143108D01*
X361298Y141584D01*
X368156Y140060D01*
X368156Y136479D02*
X361298Y136479D01*
X368156Y136479D02*
X368156Y134574D01*
X368154Y134489D01*
X368148Y134403D01*
X368139Y134318D01*
X368125Y134234D01*
X368108Y134150D01*
X368087Y134067D01*
X368063Y133985D01*
X368035Y133905D01*
X368003Y133825D01*
X367967Y133747D01*
X367929Y133671D01*
X367886Y133597D01*
X367841Y133525D01*
X367792Y133454D01*
X367740Y133386D01*
X367686Y133321D01*
X367628Y133258D01*
X367567Y133197D01*
X367504Y133139D01*
X367439Y133085D01*
X367371Y133033D01*
X367300Y132984D01*
X367228Y132939D01*
X367154Y132896D01*
X367078Y132858D01*
X367000Y132822D01*
X366920Y132790D01*
X366840Y132762D01*
X366758Y132738D01*
X366675Y132717D01*
X366591Y132700D01*
X366507Y132686D01*
X366422Y132677D01*
X366336Y132671D01*
X366251Y132669D01*
X363203Y132669D01*
X363118Y132671D01*
X363032Y132677D01*
X362947Y132686D01*
X362863Y132700D01*
X362779Y132717D01*
X362696Y132738D01*
X362614Y132762D01*
X362534Y132790D01*
X362454Y132822D01*
X362376Y132858D01*
X362300Y132896D01*
X362226Y132939D01*
X362154Y132984D01*
X362083Y133033D01*
X362015Y133085D01*
X361950Y133139D01*
X361887Y133197D01*
X361826Y133258D01*
X361768Y133321D01*
X361714Y133386D01*
X361662Y133454D01*
X361613Y133525D01*
X361568Y133597D01*
X361525Y133671D01*
X361487Y133747D01*
X361451Y133825D01*
X361419Y133905D01*
X361391Y133985D01*
X361367Y134067D01*
X361346Y134150D01*
X361329Y134234D01*
X361315Y134318D01*
X361306Y134403D01*
X361300Y134489D01*
X361298Y134574D01*
X361298Y136479D01*
X360536Y129270D02*
X368918Y126222D01*
X368156Y121650D02*
X361298Y121650D01*
X368156Y123555D02*
X368156Y119745D01*
X368156Y116377D02*
X361298Y116377D01*
X364346Y114091D02*
X368156Y116377D01*
X364346Y114091D02*
X368156Y111805D01*
X361298Y111805D01*
X361298Y105908D02*
X361300Y105831D01*
X361306Y105754D01*
X361316Y105677D01*
X361329Y105601D01*
X361347Y105526D01*
X361368Y105452D01*
X361393Y105379D01*
X361422Y105307D01*
X361454Y105237D01*
X361489Y105168D01*
X361529Y105102D01*
X361571Y105037D01*
X361617Y104975D01*
X361666Y104915D01*
X361717Y104858D01*
X361772Y104803D01*
X361829Y104752D01*
X361889Y104703D01*
X361951Y104657D01*
X362016Y104615D01*
X362082Y104575D01*
X362151Y104540D01*
X362221Y104508D01*
X362293Y104479D01*
X362366Y104454D01*
X362440Y104433D01*
X362515Y104415D01*
X362591Y104402D01*
X362668Y104392D01*
X362745Y104386D01*
X362822Y104384D01*
X361298Y105908D02*
X361300Y106018D01*
X361306Y106129D01*
X361315Y106239D01*
X361328Y106349D01*
X361345Y106458D01*
X361366Y106566D01*
X361390Y106674D01*
X361419Y106781D01*
X361450Y106887D01*
X361486Y106991D01*
X361525Y107095D01*
X361567Y107197D01*
X361613Y107297D01*
X361663Y107396D01*
X361715Y107493D01*
X361772Y107589D01*
X361831Y107682D01*
X361893Y107773D01*
X361959Y107862D01*
X362027Y107949D01*
X362099Y108033D01*
X362173Y108115D01*
X362250Y108194D01*
X366632Y108003D02*
X366709Y108001D01*
X366786Y107995D01*
X366863Y107985D01*
X366939Y107972D01*
X367014Y107954D01*
X367088Y107933D01*
X367161Y107908D01*
X367233Y107879D01*
X367303Y107847D01*
X367372Y107812D01*
X367438Y107772D01*
X367503Y107730D01*
X367565Y107684D01*
X367625Y107635D01*
X367682Y107584D01*
X367737Y107529D01*
X367788Y107472D01*
X367837Y107412D01*
X367883Y107350D01*
X367925Y107285D01*
X367965Y107219D01*
X368000Y107150D01*
X368032Y107080D01*
X368061Y107008D01*
X368086Y106935D01*
X368107Y106861D01*
X368125Y106786D01*
X368138Y106710D01*
X368148Y106633D01*
X368154Y106556D01*
X368156Y106479D01*
X368154Y106377D01*
X368149Y106275D01*
X368140Y106173D01*
X368127Y106072D01*
X368110Y105971D01*
X368091Y105871D01*
X368067Y105771D01*
X368040Y105673D01*
X368009Y105575D01*
X367975Y105479D01*
X367938Y105384D01*
X367897Y105290D01*
X367853Y105198D01*
X367805Y105108D01*
X367755Y105019D01*
X367701Y104932D01*
X367644Y104847D01*
X367584Y104764D01*
X365298Y107241D02*
X365339Y107306D01*
X365382Y107369D01*
X365429Y107429D01*
X365479Y107488D01*
X365531Y107543D01*
X365586Y107596D01*
X365644Y107647D01*
X365704Y107694D01*
X365767Y107738D01*
X365831Y107780D01*
X365897Y107818D01*
X365966Y107852D01*
X366036Y107883D01*
X366107Y107911D01*
X366179Y107935D01*
X366253Y107956D01*
X366328Y107973D01*
X366403Y107986D01*
X366479Y107995D01*
X366555Y108001D01*
X366632Y108003D01*
X364156Y105145D02*
X364115Y105080D01*
X364072Y105017D01*
X364025Y104957D01*
X363975Y104898D01*
X363923Y104843D01*
X363868Y104790D01*
X363810Y104739D01*
X363750Y104692D01*
X363687Y104648D01*
X363623Y104606D01*
X363557Y104568D01*
X363488Y104534D01*
X363418Y104503D01*
X363347Y104475D01*
X363275Y104451D01*
X363201Y104430D01*
X363126Y104413D01*
X363051Y104400D01*
X362975Y104391D01*
X362899Y104385D01*
X362822Y104383D01*
X364155Y105146D02*
X365298Y107241D01*
X398298Y151155D02*
X405156Y151155D01*
X405156Y153060D02*
X405156Y149250D01*
X405156Y145989D02*
X398298Y145989D01*
X405156Y145989D02*
X405156Y144084D01*
X405154Y143999D01*
X405148Y143913D01*
X405139Y143828D01*
X405125Y143744D01*
X405108Y143660D01*
X405087Y143577D01*
X405063Y143495D01*
X405035Y143415D01*
X405003Y143335D01*
X404967Y143257D01*
X404929Y143181D01*
X404886Y143107D01*
X404841Y143035D01*
X404792Y142964D01*
X404740Y142896D01*
X404686Y142831D01*
X404628Y142768D01*
X404567Y142707D01*
X404504Y142649D01*
X404439Y142595D01*
X404371Y142543D01*
X404300Y142494D01*
X404228Y142449D01*
X404154Y142406D01*
X404078Y142368D01*
X404000Y142332D01*
X403920Y142300D01*
X403840Y142272D01*
X403758Y142248D01*
X403675Y142227D01*
X403591Y142210D01*
X403507Y142196D01*
X403422Y142187D01*
X403336Y142181D01*
X403251Y142179D01*
X400203Y142179D01*
X400118Y142181D01*
X400032Y142187D01*
X399947Y142196D01*
X399863Y142210D01*
X399779Y142227D01*
X399696Y142248D01*
X399614Y142272D01*
X399534Y142300D01*
X399454Y142332D01*
X399376Y142368D01*
X399300Y142406D01*
X399226Y142449D01*
X399154Y142494D01*
X399083Y142543D01*
X399015Y142595D01*
X398950Y142649D01*
X398887Y142707D01*
X398826Y142768D01*
X398768Y142831D01*
X398714Y142896D01*
X398662Y142964D01*
X398613Y143035D01*
X398568Y143107D01*
X398525Y143181D01*
X398487Y143257D01*
X398451Y143335D01*
X398419Y143415D01*
X398391Y143495D01*
X398367Y143577D01*
X398346Y143660D01*
X398329Y143744D01*
X398315Y143828D01*
X398306Y143913D01*
X398300Y143999D01*
X398298Y144084D01*
X398298Y145989D01*
X400203Y138430D02*
X403251Y138430D01*
X403336Y138428D01*
X403422Y138422D01*
X403507Y138413D01*
X403591Y138399D01*
X403675Y138382D01*
X403758Y138361D01*
X403840Y138337D01*
X403920Y138309D01*
X404000Y138277D01*
X404078Y138241D01*
X404154Y138203D01*
X404228Y138160D01*
X404300Y138115D01*
X404371Y138066D01*
X404439Y138014D01*
X404504Y137960D01*
X404567Y137902D01*
X404628Y137841D01*
X404686Y137778D01*
X404740Y137713D01*
X404792Y137645D01*
X404841Y137574D01*
X404886Y137502D01*
X404929Y137428D01*
X404967Y137352D01*
X405003Y137274D01*
X405035Y137194D01*
X405063Y137114D01*
X405087Y137032D01*
X405108Y136949D01*
X405125Y136865D01*
X405139Y136781D01*
X405148Y136696D01*
X405154Y136610D01*
X405156Y136525D01*
X405154Y136440D01*
X405148Y136354D01*
X405139Y136269D01*
X405125Y136185D01*
X405108Y136101D01*
X405087Y136018D01*
X405063Y135936D01*
X405035Y135856D01*
X405003Y135776D01*
X404967Y135698D01*
X404929Y135622D01*
X404886Y135548D01*
X404841Y135476D01*
X404792Y135405D01*
X404740Y135337D01*
X404686Y135272D01*
X404628Y135209D01*
X404567Y135148D01*
X404504Y135090D01*
X404439Y135036D01*
X404371Y134984D01*
X404300Y134935D01*
X404228Y134890D01*
X404154Y134847D01*
X404078Y134809D01*
X404000Y134773D01*
X403920Y134741D01*
X403840Y134713D01*
X403758Y134689D01*
X403675Y134668D01*
X403591Y134651D01*
X403507Y134637D01*
X403422Y134628D01*
X403336Y134622D01*
X403251Y134620D01*
X400203Y134620D01*
X400118Y134622D01*
X400032Y134628D01*
X399947Y134637D01*
X399863Y134651D01*
X399779Y134668D01*
X399696Y134689D01*
X399614Y134713D01*
X399534Y134741D01*
X399454Y134773D01*
X399376Y134809D01*
X399300Y134847D01*
X399226Y134890D01*
X399154Y134935D01*
X399083Y134984D01*
X399015Y135036D01*
X398950Y135090D01*
X398887Y135148D01*
X398826Y135209D01*
X398768Y135272D01*
X398714Y135337D01*
X398662Y135405D01*
X398613Y135476D01*
X398568Y135548D01*
X398525Y135622D01*
X398487Y135698D01*
X398451Y135776D01*
X398419Y135856D01*
X398391Y135936D01*
X398367Y136018D01*
X398346Y136101D01*
X398329Y136185D01*
X398315Y136269D01*
X398306Y136354D01*
X398300Y136440D01*
X398298Y136525D01*
X398300Y136610D01*
X398306Y136696D01*
X398315Y136781D01*
X398329Y136865D01*
X398346Y136949D01*
X398367Y137032D01*
X398391Y137114D01*
X398419Y137194D01*
X398451Y137274D01*
X398487Y137352D01*
X398525Y137428D01*
X398568Y137502D01*
X398613Y137574D01*
X398662Y137645D01*
X398714Y137713D01*
X398768Y137778D01*
X398826Y137841D01*
X398887Y137902D01*
X398950Y137960D01*
X399015Y138014D01*
X399083Y138066D01*
X399154Y138115D01*
X399226Y138160D01*
X399300Y138203D01*
X399376Y138241D01*
X399454Y138277D01*
X399534Y138309D01*
X399614Y138337D01*
X399696Y138361D01*
X399779Y138382D01*
X399863Y138399D01*
X399947Y138413D01*
X400032Y138422D01*
X400118Y138428D01*
X400203Y138430D01*
X380156Y153060D02*
X373298Y153060D01*
X380156Y153060D02*
X380156Y151155D01*
X380154Y151070D01*
X380148Y150984D01*
X380139Y150899D01*
X380125Y150815D01*
X380108Y150731D01*
X380087Y150648D01*
X380063Y150566D01*
X380035Y150486D01*
X380003Y150406D01*
X379967Y150328D01*
X379929Y150252D01*
X379886Y150178D01*
X379841Y150106D01*
X379792Y150035D01*
X379740Y149967D01*
X379686Y149902D01*
X379628Y149839D01*
X379567Y149778D01*
X379504Y149720D01*
X379439Y149666D01*
X379371Y149614D01*
X379300Y149565D01*
X379228Y149520D01*
X379154Y149477D01*
X379078Y149439D01*
X379000Y149403D01*
X378920Y149371D01*
X378840Y149343D01*
X378758Y149319D01*
X378675Y149298D01*
X378591Y149281D01*
X378507Y149267D01*
X378422Y149258D01*
X378336Y149252D01*
X378251Y149250D01*
X378166Y149252D01*
X378080Y149258D01*
X377995Y149267D01*
X377911Y149281D01*
X377827Y149298D01*
X377744Y149319D01*
X377662Y149343D01*
X377582Y149371D01*
X377502Y149403D01*
X377424Y149439D01*
X377348Y149477D01*
X377274Y149520D01*
X377202Y149565D01*
X377131Y149614D01*
X377063Y149666D01*
X376998Y149720D01*
X376935Y149778D01*
X376874Y149839D01*
X376816Y149902D01*
X376762Y149967D01*
X376710Y150035D01*
X376661Y150106D01*
X376616Y150178D01*
X376573Y150252D01*
X376535Y150328D01*
X376499Y150406D01*
X376467Y150486D01*
X376439Y150566D01*
X376415Y150648D01*
X376394Y150731D01*
X376377Y150815D01*
X376363Y150899D01*
X376354Y150984D01*
X376348Y151070D01*
X376346Y151155D01*
X376346Y153060D01*
X376346Y150774D02*
X373298Y149250D01*
X373298Y143772D02*
X373300Y143695D01*
X373306Y143618D01*
X373316Y143541D01*
X373329Y143465D01*
X373347Y143390D01*
X373368Y143316D01*
X373393Y143243D01*
X373422Y143171D01*
X373454Y143101D01*
X373489Y143032D01*
X373529Y142966D01*
X373571Y142901D01*
X373617Y142839D01*
X373666Y142779D01*
X373717Y142722D01*
X373772Y142667D01*
X373829Y142616D01*
X373889Y142567D01*
X373951Y142521D01*
X374016Y142479D01*
X374082Y142439D01*
X374151Y142404D01*
X374221Y142372D01*
X374293Y142343D01*
X374366Y142318D01*
X374440Y142297D01*
X374515Y142279D01*
X374591Y142266D01*
X374668Y142256D01*
X374745Y142250D01*
X374822Y142248D01*
X373298Y143772D02*
X373300Y143882D01*
X373306Y143993D01*
X373315Y144103D01*
X373328Y144213D01*
X373345Y144322D01*
X373366Y144430D01*
X373390Y144538D01*
X373419Y144645D01*
X373450Y144751D01*
X373486Y144855D01*
X373525Y144959D01*
X373567Y145061D01*
X373613Y145161D01*
X373663Y145260D01*
X373715Y145357D01*
X373772Y145453D01*
X373831Y145546D01*
X373893Y145637D01*
X373959Y145726D01*
X374027Y145813D01*
X374099Y145897D01*
X374173Y145979D01*
X374250Y146058D01*
X378632Y145868D02*
X378709Y145866D01*
X378786Y145860D01*
X378863Y145850D01*
X378939Y145837D01*
X379014Y145819D01*
X379088Y145798D01*
X379161Y145773D01*
X379233Y145744D01*
X379303Y145712D01*
X379372Y145677D01*
X379438Y145637D01*
X379503Y145595D01*
X379565Y145549D01*
X379625Y145500D01*
X379682Y145449D01*
X379737Y145394D01*
X379788Y145337D01*
X379837Y145277D01*
X379883Y145215D01*
X379925Y145150D01*
X379965Y145084D01*
X380000Y145015D01*
X380032Y144945D01*
X380061Y144873D01*
X380086Y144800D01*
X380107Y144726D01*
X380125Y144651D01*
X380138Y144575D01*
X380148Y144498D01*
X380154Y144421D01*
X380156Y144344D01*
X380154Y144242D01*
X380149Y144140D01*
X380140Y144038D01*
X380127Y143937D01*
X380110Y143836D01*
X380091Y143736D01*
X380067Y143636D01*
X380040Y143538D01*
X380009Y143440D01*
X379975Y143344D01*
X379938Y143249D01*
X379897Y143155D01*
X379853Y143063D01*
X379805Y142973D01*
X379755Y142884D01*
X379701Y142797D01*
X379644Y142712D01*
X379584Y142629D01*
X377298Y145106D02*
X377339Y145171D01*
X377382Y145234D01*
X377429Y145294D01*
X377479Y145353D01*
X377531Y145408D01*
X377586Y145461D01*
X377644Y145512D01*
X377704Y145559D01*
X377767Y145603D01*
X377831Y145645D01*
X377897Y145683D01*
X377966Y145717D01*
X378036Y145748D01*
X378107Y145776D01*
X378179Y145800D01*
X378253Y145821D01*
X378328Y145838D01*
X378403Y145851D01*
X378479Y145860D01*
X378555Y145866D01*
X378632Y145868D01*
X376156Y143010D02*
X376115Y142945D01*
X376072Y142882D01*
X376025Y142822D01*
X375975Y142763D01*
X375923Y142708D01*
X375868Y142655D01*
X375810Y142604D01*
X375750Y142557D01*
X375687Y142513D01*
X375623Y142471D01*
X375557Y142433D01*
X375488Y142399D01*
X375418Y142368D01*
X375347Y142340D01*
X375275Y142316D01*
X375201Y142295D01*
X375126Y142278D01*
X375051Y142265D01*
X374975Y142256D01*
X374899Y142250D01*
X374822Y142248D01*
X376155Y143010D02*
X377298Y145106D01*
X380156Y137570D02*
X373298Y137570D01*
X380156Y139475D02*
X380156Y135665D01*
X385298Y151155D02*
X392156Y151155D01*
X392156Y153060D02*
X392156Y149250D01*
X392156Y145989D02*
X385298Y145989D01*
X392156Y145989D02*
X392156Y144084D01*
X392154Y143999D01*
X392148Y143913D01*
X392139Y143828D01*
X392125Y143744D01*
X392108Y143660D01*
X392087Y143577D01*
X392063Y143495D01*
X392035Y143415D01*
X392003Y143335D01*
X391967Y143257D01*
X391929Y143181D01*
X391886Y143107D01*
X391841Y143035D01*
X391792Y142964D01*
X391740Y142896D01*
X391686Y142831D01*
X391628Y142768D01*
X391567Y142707D01*
X391504Y142649D01*
X391439Y142595D01*
X391371Y142543D01*
X391300Y142494D01*
X391228Y142449D01*
X391154Y142406D01*
X391078Y142368D01*
X391000Y142332D01*
X390920Y142300D01*
X390840Y142272D01*
X390758Y142248D01*
X390675Y142227D01*
X390591Y142210D01*
X390507Y142196D01*
X390422Y142187D01*
X390336Y142181D01*
X390251Y142179D01*
X387203Y142179D01*
X387118Y142181D01*
X387032Y142187D01*
X386947Y142196D01*
X386863Y142210D01*
X386779Y142227D01*
X386696Y142248D01*
X386614Y142272D01*
X386534Y142300D01*
X386454Y142332D01*
X386376Y142368D01*
X386300Y142406D01*
X386226Y142449D01*
X386154Y142494D01*
X386083Y142543D01*
X386015Y142595D01*
X385950Y142649D01*
X385887Y142707D01*
X385826Y142768D01*
X385768Y142831D01*
X385714Y142896D01*
X385662Y142964D01*
X385613Y143035D01*
X385568Y143107D01*
X385525Y143181D01*
X385487Y143257D01*
X385451Y143335D01*
X385419Y143415D01*
X385391Y143495D01*
X385367Y143577D01*
X385346Y143660D01*
X385329Y143744D01*
X385315Y143828D01*
X385306Y143913D01*
X385300Y143999D01*
X385298Y144084D01*
X385298Y145989D01*
X385298Y137988D02*
X392156Y137988D01*
X385298Y138750D02*
X385298Y137226D01*
X392156Y137226D02*
X392156Y138750D01*
D11*
X288679Y81388D02*
X288679Y80711D01*
X288679Y81388D02*
X289356Y81388D01*
X289356Y80711D01*
X288679Y80711D01*
X271763Y129306D02*
X263175Y129306D01*
X263175Y154706D02*
X271763Y154706D01*
X274557Y144690D02*
X274557Y139322D01*
D12*
X257309Y158008D03*
D10*
X242368Y159198D02*
X232208Y159198D01*
X292726Y159454D02*
X302886Y159454D01*
D13*
X204496Y43601D02*
X204496Y36997D01*
X204496Y43601D02*
X206330Y43601D01*
X206415Y43599D01*
X206499Y43593D01*
X206583Y43583D01*
X206667Y43570D01*
X206750Y43552D01*
X206832Y43531D01*
X206913Y43506D01*
X206993Y43477D01*
X207071Y43445D01*
X207147Y43409D01*
X207222Y43369D01*
X207295Y43326D01*
X207366Y43280D01*
X207435Y43231D01*
X207502Y43178D01*
X207566Y43122D01*
X207627Y43064D01*
X207685Y43003D01*
X207741Y42939D01*
X207794Y42872D01*
X207843Y42803D01*
X207889Y42732D01*
X207932Y42659D01*
X207972Y42584D01*
X208008Y42508D01*
X208040Y42430D01*
X208069Y42350D01*
X208094Y42269D01*
X208115Y42187D01*
X208133Y42104D01*
X208146Y42020D01*
X208156Y41936D01*
X208162Y41852D01*
X208164Y41767D01*
X208162Y41682D01*
X208156Y41598D01*
X208146Y41514D01*
X208133Y41430D01*
X208115Y41347D01*
X208094Y41265D01*
X208069Y41184D01*
X208040Y41104D01*
X208008Y41026D01*
X207972Y40950D01*
X207932Y40875D01*
X207889Y40802D01*
X207843Y40731D01*
X207794Y40662D01*
X207741Y40595D01*
X207685Y40531D01*
X207627Y40470D01*
X207566Y40412D01*
X207502Y40356D01*
X207435Y40303D01*
X207366Y40254D01*
X207295Y40208D01*
X207222Y40165D01*
X207147Y40125D01*
X207071Y40089D01*
X206993Y40057D01*
X206913Y40028D01*
X206832Y40003D01*
X206750Y39982D01*
X206667Y39964D01*
X206583Y39951D01*
X206499Y39941D01*
X206415Y39935D01*
X206330Y39933D01*
X204496Y39933D01*
X206697Y39933D02*
X208165Y36997D01*
X213750Y43601D02*
X213829Y43599D01*
X213907Y43594D01*
X213985Y43584D01*
X214062Y43571D01*
X214139Y43554D01*
X214215Y43534D01*
X214290Y43510D01*
X214364Y43483D01*
X214436Y43452D01*
X214507Y43417D01*
X214576Y43380D01*
X214643Y43339D01*
X214708Y43295D01*
X214771Y43248D01*
X214831Y43198D01*
X214889Y43145D01*
X214945Y43089D01*
X214998Y43031D01*
X215048Y42971D01*
X215095Y42908D01*
X215139Y42843D01*
X215180Y42776D01*
X215217Y42707D01*
X215252Y42636D01*
X215283Y42564D01*
X215310Y42490D01*
X215334Y42415D01*
X215354Y42339D01*
X215371Y42262D01*
X215384Y42185D01*
X215394Y42107D01*
X215399Y42029D01*
X215401Y41950D01*
X213750Y43601D02*
X213661Y43599D01*
X213572Y43594D01*
X213484Y43584D01*
X213396Y43571D01*
X213309Y43555D01*
X213222Y43534D01*
X213137Y43510D01*
X213052Y43483D01*
X212969Y43452D01*
X212887Y43417D01*
X212806Y43379D01*
X212727Y43338D01*
X212651Y43294D01*
X212575Y43246D01*
X212502Y43195D01*
X212432Y43142D01*
X212363Y43085D01*
X212297Y43025D01*
X212234Y42963D01*
X212173Y42898D01*
X212115Y42831D01*
X212060Y42761D01*
X212007Y42689D01*
X211958Y42615D01*
X211912Y42539D01*
X211870Y42461D01*
X211830Y42381D01*
X211794Y42300D01*
X211761Y42217D01*
X211732Y42133D01*
X214851Y40666D02*
X214907Y40722D01*
X214961Y40781D01*
X215012Y40842D01*
X215061Y40906D01*
X215106Y40971D01*
X215149Y41039D01*
X215188Y41108D01*
X215225Y41179D01*
X215258Y41252D01*
X215287Y41326D01*
X215314Y41401D01*
X215337Y41477D01*
X215356Y41555D01*
X215372Y41633D01*
X215385Y41711D01*
X215394Y41791D01*
X215399Y41870D01*
X215401Y41950D01*
X214851Y40666D02*
X211732Y36997D01*
X215401Y36997D01*
D10*
X230000Y99250D02*
X230000Y112250D01*
X261500Y112250D02*
X261500Y99250D01*
D14*
X236750Y83750D02*
X236752Y83813D01*
X236758Y83875D01*
X236768Y83937D01*
X236781Y83999D01*
X236799Y84059D01*
X236820Y84118D01*
X236845Y84176D01*
X236874Y84232D01*
X236906Y84286D01*
X236941Y84338D01*
X236979Y84387D01*
X237021Y84435D01*
X237065Y84479D01*
X237113Y84521D01*
X237162Y84559D01*
X237214Y84594D01*
X237268Y84626D01*
X237324Y84655D01*
X237382Y84680D01*
X237441Y84701D01*
X237501Y84719D01*
X237563Y84732D01*
X237625Y84742D01*
X237687Y84748D01*
X237750Y84750D01*
X237813Y84748D01*
X237875Y84742D01*
X237937Y84732D01*
X237999Y84719D01*
X238059Y84701D01*
X238118Y84680D01*
X238176Y84655D01*
X238232Y84626D01*
X238286Y84594D01*
X238338Y84559D01*
X238387Y84521D01*
X238435Y84479D01*
X238479Y84435D01*
X238521Y84387D01*
X238559Y84338D01*
X238594Y84286D01*
X238626Y84232D01*
X238655Y84176D01*
X238680Y84118D01*
X238701Y84059D01*
X238719Y83999D01*
X238732Y83937D01*
X238742Y83875D01*
X238748Y83813D01*
X238750Y83750D01*
X238748Y83687D01*
X238742Y83625D01*
X238732Y83563D01*
X238719Y83501D01*
X238701Y83441D01*
X238680Y83382D01*
X238655Y83324D01*
X238626Y83268D01*
X238594Y83214D01*
X238559Y83162D01*
X238521Y83113D01*
X238479Y83065D01*
X238435Y83021D01*
X238387Y82979D01*
X238338Y82941D01*
X238286Y82906D01*
X238232Y82874D01*
X238176Y82845D01*
X238118Y82820D01*
X238059Y82799D01*
X237999Y82781D01*
X237937Y82768D01*
X237875Y82758D01*
X237813Y82752D01*
X237750Y82750D01*
X237687Y82752D01*
X237625Y82758D01*
X237563Y82768D01*
X237501Y82781D01*
X237441Y82799D01*
X237382Y82820D01*
X237324Y82845D01*
X237268Y82874D01*
X237214Y82906D01*
X237162Y82941D01*
X237113Y82979D01*
X237065Y83021D01*
X237021Y83065D01*
X236979Y83113D01*
X236941Y83162D01*
X236906Y83214D01*
X236874Y83268D01*
X236845Y83324D01*
X236820Y83382D01*
X236799Y83441D01*
X236781Y83501D01*
X236768Y83563D01*
X236758Y83625D01*
X236752Y83687D01*
X236750Y83750D01*
D15*
X242603Y102631D02*
X249969Y102631D01*
X242603Y102631D02*
X242603Y104677D01*
X242605Y104766D01*
X242611Y104855D01*
X242621Y104944D01*
X242634Y105032D01*
X242651Y105120D01*
X242673Y105207D01*
X242698Y105292D01*
X242726Y105377D01*
X242759Y105460D01*
X242795Y105542D01*
X242834Y105622D01*
X242877Y105700D01*
X242923Y105776D01*
X242973Y105851D01*
X243026Y105923D01*
X243082Y105992D01*
X243141Y106059D01*
X243202Y106124D01*
X243267Y106185D01*
X243334Y106244D01*
X243403Y106300D01*
X243475Y106353D01*
X243550Y106403D01*
X243626Y106449D01*
X243704Y106492D01*
X243784Y106531D01*
X243866Y106567D01*
X243949Y106600D01*
X244034Y106628D01*
X244119Y106653D01*
X244206Y106675D01*
X244294Y106692D01*
X244382Y106705D01*
X244471Y106715D01*
X244560Y106721D01*
X244649Y106723D01*
X247923Y106723D01*
X248012Y106721D01*
X248101Y106715D01*
X248190Y106705D01*
X248278Y106692D01*
X248366Y106675D01*
X248453Y106653D01*
X248538Y106628D01*
X248623Y106600D01*
X248706Y106567D01*
X248788Y106531D01*
X248868Y106492D01*
X248946Y106449D01*
X249022Y106403D01*
X249097Y106353D01*
X249169Y106300D01*
X249238Y106244D01*
X249305Y106185D01*
X249370Y106124D01*
X249431Y106059D01*
X249490Y105992D01*
X249546Y105923D01*
X249599Y105851D01*
X249649Y105776D01*
X249695Y105700D01*
X249738Y105622D01*
X249777Y105542D01*
X249813Y105460D01*
X249846Y105377D01*
X249874Y105292D01*
X249899Y105207D01*
X249921Y105120D01*
X249938Y105032D01*
X249951Y104944D01*
X249961Y104855D01*
X249967Y104766D01*
X249969Y104677D01*
X249969Y102631D01*
X248332Y110190D02*
X242603Y111827D01*
X248332Y110190D02*
X248332Y114282D01*
X246695Y113055D02*
X249969Y113055D01*
D13*
X290797Y115442D02*
X290797Y122046D01*
X292632Y122046D01*
X292717Y122044D01*
X292801Y122038D01*
X292885Y122028D01*
X292969Y122015D01*
X293052Y121997D01*
X293134Y121976D01*
X293215Y121951D01*
X293295Y121922D01*
X293373Y121890D01*
X293449Y121854D01*
X293524Y121814D01*
X293597Y121771D01*
X293668Y121725D01*
X293737Y121676D01*
X293804Y121623D01*
X293868Y121567D01*
X293929Y121509D01*
X293987Y121448D01*
X294043Y121384D01*
X294096Y121317D01*
X294145Y121248D01*
X294191Y121177D01*
X294234Y121104D01*
X294274Y121029D01*
X294310Y120953D01*
X294342Y120875D01*
X294371Y120795D01*
X294396Y120714D01*
X294417Y120632D01*
X294435Y120549D01*
X294448Y120465D01*
X294458Y120381D01*
X294464Y120297D01*
X294466Y120212D01*
X294464Y120127D01*
X294458Y120043D01*
X294448Y119959D01*
X294435Y119875D01*
X294417Y119792D01*
X294396Y119710D01*
X294371Y119629D01*
X294342Y119549D01*
X294310Y119471D01*
X294274Y119395D01*
X294234Y119320D01*
X294191Y119247D01*
X294145Y119176D01*
X294096Y119107D01*
X294043Y119040D01*
X293987Y118976D01*
X293929Y118915D01*
X293868Y118857D01*
X293804Y118801D01*
X293737Y118748D01*
X293668Y118699D01*
X293597Y118653D01*
X293524Y118610D01*
X293449Y118570D01*
X293373Y118534D01*
X293295Y118502D01*
X293215Y118473D01*
X293134Y118448D01*
X293052Y118427D01*
X292969Y118409D01*
X292885Y118396D01*
X292801Y118386D01*
X292717Y118380D01*
X292632Y118378D01*
X292632Y118377D02*
X290797Y118377D01*
X292999Y118377D02*
X294466Y115442D01*
X298034Y115442D02*
X299868Y115442D01*
X299953Y115444D01*
X300037Y115450D01*
X300121Y115460D01*
X300205Y115473D01*
X300288Y115491D01*
X300370Y115512D01*
X300451Y115537D01*
X300531Y115566D01*
X300609Y115598D01*
X300685Y115634D01*
X300760Y115674D01*
X300833Y115717D01*
X300904Y115763D01*
X300973Y115812D01*
X301040Y115865D01*
X301104Y115921D01*
X301165Y115979D01*
X301223Y116040D01*
X301279Y116104D01*
X301332Y116171D01*
X301381Y116240D01*
X301427Y116311D01*
X301470Y116384D01*
X301510Y116459D01*
X301546Y116535D01*
X301578Y116613D01*
X301607Y116693D01*
X301632Y116774D01*
X301653Y116856D01*
X301671Y116939D01*
X301684Y117023D01*
X301694Y117107D01*
X301700Y117191D01*
X301702Y117276D01*
X301700Y117361D01*
X301694Y117445D01*
X301684Y117529D01*
X301671Y117613D01*
X301653Y117696D01*
X301632Y117778D01*
X301607Y117859D01*
X301578Y117939D01*
X301546Y118017D01*
X301510Y118093D01*
X301470Y118168D01*
X301427Y118241D01*
X301381Y118312D01*
X301332Y118381D01*
X301279Y118448D01*
X301223Y118512D01*
X301165Y118573D01*
X301104Y118631D01*
X301040Y118687D01*
X300973Y118740D01*
X300904Y118789D01*
X300833Y118835D01*
X300760Y118878D01*
X300685Y118918D01*
X300609Y118954D01*
X300531Y118986D01*
X300451Y119015D01*
X300370Y119040D01*
X300288Y119061D01*
X300205Y119079D01*
X300121Y119092D01*
X300037Y119102D01*
X299953Y119108D01*
X299868Y119110D01*
X300235Y122046D02*
X298034Y122046D01*
X300235Y122046D02*
X300311Y122044D01*
X300386Y122038D01*
X300461Y122029D01*
X300535Y122015D01*
X300609Y121998D01*
X300681Y121976D01*
X300753Y121952D01*
X300823Y121923D01*
X300891Y121891D01*
X300958Y121856D01*
X301023Y121817D01*
X301086Y121774D01*
X301146Y121729D01*
X301204Y121681D01*
X301260Y121629D01*
X301312Y121575D01*
X301362Y121518D01*
X301409Y121459D01*
X301453Y121398D01*
X301494Y121334D01*
X301531Y121268D01*
X301565Y121200D01*
X301595Y121131D01*
X301622Y121060D01*
X301645Y120988D01*
X301664Y120915D01*
X301679Y120841D01*
X301691Y120766D01*
X301699Y120691D01*
X301703Y120616D01*
X301703Y120540D01*
X301699Y120465D01*
X301691Y120390D01*
X301679Y120315D01*
X301664Y120241D01*
X301645Y120168D01*
X301622Y120096D01*
X301595Y120025D01*
X301565Y119956D01*
X301531Y119888D01*
X301494Y119822D01*
X301453Y119758D01*
X301409Y119697D01*
X301362Y119638D01*
X301312Y119581D01*
X301260Y119527D01*
X301204Y119475D01*
X301146Y119427D01*
X301086Y119382D01*
X301023Y119339D01*
X300958Y119300D01*
X300891Y119265D01*
X300823Y119233D01*
X300753Y119204D01*
X300681Y119180D01*
X300609Y119158D01*
X300535Y119141D01*
X300461Y119127D01*
X300386Y119118D01*
X300311Y119112D01*
X300235Y119110D01*
X300235Y119111D02*
X298768Y119111D01*
X290697Y108446D02*
X290697Y101842D01*
X290697Y108446D02*
X292532Y108446D01*
X292617Y108444D01*
X292701Y108438D01*
X292785Y108428D01*
X292869Y108415D01*
X292952Y108397D01*
X293034Y108376D01*
X293115Y108351D01*
X293195Y108322D01*
X293273Y108290D01*
X293349Y108254D01*
X293424Y108214D01*
X293497Y108171D01*
X293568Y108125D01*
X293637Y108076D01*
X293704Y108023D01*
X293768Y107967D01*
X293829Y107909D01*
X293887Y107848D01*
X293943Y107784D01*
X293996Y107717D01*
X294045Y107648D01*
X294091Y107577D01*
X294134Y107504D01*
X294174Y107429D01*
X294210Y107353D01*
X294242Y107275D01*
X294271Y107195D01*
X294296Y107114D01*
X294317Y107032D01*
X294335Y106949D01*
X294348Y106865D01*
X294358Y106781D01*
X294364Y106697D01*
X294366Y106612D01*
X294364Y106527D01*
X294358Y106443D01*
X294348Y106359D01*
X294335Y106275D01*
X294317Y106192D01*
X294296Y106110D01*
X294271Y106029D01*
X294242Y105949D01*
X294210Y105871D01*
X294174Y105795D01*
X294134Y105720D01*
X294091Y105647D01*
X294045Y105576D01*
X293996Y105507D01*
X293943Y105440D01*
X293887Y105376D01*
X293829Y105315D01*
X293768Y105257D01*
X293704Y105201D01*
X293637Y105148D01*
X293568Y105099D01*
X293497Y105053D01*
X293424Y105010D01*
X293349Y104970D01*
X293273Y104934D01*
X293195Y104902D01*
X293115Y104873D01*
X293034Y104848D01*
X292952Y104827D01*
X292869Y104809D01*
X292785Y104796D01*
X292701Y104786D01*
X292617Y104780D01*
X292532Y104778D01*
X292532Y104777D02*
X290697Y104777D01*
X292899Y104777D02*
X294366Y101842D01*
X297934Y103310D02*
X299401Y108446D01*
X297934Y103310D02*
X301603Y103310D01*
X300502Y104777D02*
X300502Y101842D01*
D15*
X288755Y87881D02*
X287118Y87881D01*
X287040Y87883D01*
X286962Y87888D01*
X286885Y87898D01*
X286808Y87911D01*
X286732Y87927D01*
X286657Y87947D01*
X286583Y87971D01*
X286510Y87998D01*
X286438Y88029D01*
X286368Y88063D01*
X286300Y88100D01*
X286233Y88141D01*
X286168Y88185D01*
X286106Y88231D01*
X286046Y88281D01*
X285988Y88333D01*
X285933Y88388D01*
X285881Y88446D01*
X285831Y88506D01*
X285785Y88568D01*
X285741Y88633D01*
X285700Y88700D01*
X285663Y88768D01*
X285629Y88838D01*
X285598Y88910D01*
X285571Y88983D01*
X285547Y89057D01*
X285527Y89132D01*
X285511Y89208D01*
X285498Y89285D01*
X285488Y89362D01*
X285483Y89440D01*
X285481Y89518D01*
X285481Y93610D01*
X285483Y93690D01*
X285489Y93770D01*
X285499Y93850D01*
X285512Y93929D01*
X285530Y94008D01*
X285551Y94085D01*
X285577Y94161D01*
X285606Y94236D01*
X285638Y94310D01*
X285674Y94382D01*
X285714Y94452D01*
X285757Y94519D01*
X285803Y94585D01*
X285853Y94648D01*
X285905Y94709D01*
X285960Y94768D01*
X286019Y94823D01*
X286079Y94875D01*
X286143Y94925D01*
X286209Y94971D01*
X286276Y95014D01*
X286346Y95054D01*
X286418Y95090D01*
X286492Y95122D01*
X286566Y95151D01*
X286643Y95177D01*
X286720Y95198D01*
X286799Y95216D01*
X286878Y95229D01*
X286958Y95239D01*
X287038Y95245D01*
X287118Y95247D01*
X288755Y95247D01*
X291600Y93610D02*
X293646Y95247D01*
X293646Y87881D01*
X291600Y87881D02*
X295692Y87881D01*
D13*
X212247Y149954D02*
X212247Y156558D01*
X214082Y156558D01*
X214167Y156556D01*
X214251Y156550D01*
X214335Y156540D01*
X214419Y156527D01*
X214502Y156509D01*
X214584Y156488D01*
X214665Y156463D01*
X214745Y156434D01*
X214823Y156402D01*
X214899Y156366D01*
X214974Y156326D01*
X215047Y156283D01*
X215118Y156237D01*
X215187Y156188D01*
X215254Y156135D01*
X215318Y156079D01*
X215379Y156021D01*
X215437Y155960D01*
X215493Y155896D01*
X215546Y155829D01*
X215595Y155760D01*
X215641Y155689D01*
X215684Y155616D01*
X215724Y155541D01*
X215760Y155465D01*
X215792Y155387D01*
X215821Y155307D01*
X215846Y155226D01*
X215867Y155144D01*
X215885Y155061D01*
X215898Y154977D01*
X215908Y154893D01*
X215914Y154809D01*
X215916Y154724D01*
X215914Y154639D01*
X215908Y154555D01*
X215898Y154471D01*
X215885Y154387D01*
X215867Y154304D01*
X215846Y154222D01*
X215821Y154141D01*
X215792Y154061D01*
X215760Y153983D01*
X215724Y153907D01*
X215684Y153832D01*
X215641Y153759D01*
X215595Y153688D01*
X215546Y153619D01*
X215493Y153552D01*
X215437Y153488D01*
X215379Y153427D01*
X215318Y153369D01*
X215254Y153313D01*
X215187Y153260D01*
X215118Y153211D01*
X215047Y153165D01*
X214974Y153122D01*
X214899Y153082D01*
X214823Y153046D01*
X214745Y153014D01*
X214665Y152985D01*
X214584Y152960D01*
X214502Y152939D01*
X214419Y152921D01*
X214335Y152908D01*
X214251Y152898D01*
X214167Y152892D01*
X214082Y152890D01*
X214082Y152889D02*
X212247Y152889D01*
X214449Y152889D02*
X215916Y149954D01*
X219484Y153623D02*
X221685Y153623D01*
X221759Y153621D01*
X221834Y153615D01*
X221907Y153606D01*
X221981Y153593D01*
X222053Y153576D01*
X222124Y153556D01*
X222195Y153532D01*
X222264Y153504D01*
X222331Y153473D01*
X222397Y153439D01*
X222462Y153401D01*
X222524Y153360D01*
X222584Y153316D01*
X222641Y153269D01*
X222696Y153219D01*
X222749Y153166D01*
X222799Y153111D01*
X222846Y153054D01*
X222890Y152994D01*
X222931Y152932D01*
X222969Y152867D01*
X223003Y152801D01*
X223034Y152734D01*
X223062Y152665D01*
X223086Y152594D01*
X223106Y152523D01*
X223123Y152451D01*
X223136Y152377D01*
X223145Y152304D01*
X223151Y152229D01*
X223153Y152155D01*
X223153Y151788D01*
X223152Y151788D02*
X223150Y151703D01*
X223144Y151619D01*
X223134Y151535D01*
X223121Y151451D01*
X223103Y151368D01*
X223082Y151286D01*
X223057Y151205D01*
X223028Y151125D01*
X222996Y151047D01*
X222960Y150971D01*
X222920Y150896D01*
X222877Y150823D01*
X222831Y150752D01*
X222782Y150683D01*
X222729Y150616D01*
X222673Y150552D01*
X222615Y150491D01*
X222554Y150433D01*
X222490Y150377D01*
X222423Y150324D01*
X222354Y150275D01*
X222283Y150229D01*
X222210Y150186D01*
X222135Y150146D01*
X222059Y150110D01*
X221981Y150078D01*
X221901Y150049D01*
X221820Y150024D01*
X221738Y150003D01*
X221655Y149985D01*
X221571Y149972D01*
X221487Y149962D01*
X221403Y149956D01*
X221318Y149954D01*
X221233Y149956D01*
X221149Y149962D01*
X221065Y149972D01*
X220981Y149985D01*
X220898Y150003D01*
X220816Y150024D01*
X220735Y150049D01*
X220655Y150078D01*
X220577Y150110D01*
X220501Y150146D01*
X220426Y150186D01*
X220353Y150229D01*
X220282Y150275D01*
X220213Y150324D01*
X220146Y150377D01*
X220082Y150433D01*
X220021Y150491D01*
X219963Y150552D01*
X219907Y150616D01*
X219854Y150683D01*
X219805Y150752D01*
X219759Y150823D01*
X219716Y150896D01*
X219676Y150971D01*
X219640Y151047D01*
X219608Y151125D01*
X219579Y151205D01*
X219554Y151286D01*
X219533Y151368D01*
X219515Y151451D01*
X219502Y151535D01*
X219492Y151619D01*
X219486Y151703D01*
X219484Y151788D01*
X219484Y153623D01*
X219486Y153730D01*
X219492Y153837D01*
X219502Y153944D01*
X219515Y154050D01*
X219533Y154156D01*
X219554Y154261D01*
X219579Y154365D01*
X219608Y154469D01*
X219641Y154571D01*
X219678Y154671D01*
X219718Y154771D01*
X219762Y154869D01*
X219809Y154965D01*
X219860Y155059D01*
X219914Y155152D01*
X219971Y155242D01*
X220032Y155331D01*
X220096Y155417D01*
X220163Y155500D01*
X220233Y155582D01*
X220306Y155660D01*
X220382Y155736D01*
X220460Y155809D01*
X220542Y155879D01*
X220625Y155946D01*
X220711Y156010D01*
X220800Y156071D01*
X220890Y156128D01*
X220983Y156182D01*
X221077Y156233D01*
X221173Y156280D01*
X221271Y156324D01*
X221371Y156364D01*
X221471Y156401D01*
X221573Y156434D01*
X221677Y156463D01*
X221781Y156488D01*
X221886Y156509D01*
X221992Y156527D01*
X222098Y156540D01*
X222205Y156550D01*
X222312Y156556D01*
X222419Y156558D01*
X369927Y84366D02*
X369927Y77762D01*
X369927Y84366D02*
X371762Y84366D01*
X371847Y84364D01*
X371931Y84358D01*
X372015Y84348D01*
X372099Y84335D01*
X372182Y84317D01*
X372264Y84296D01*
X372345Y84271D01*
X372425Y84242D01*
X372503Y84210D01*
X372579Y84174D01*
X372654Y84134D01*
X372727Y84091D01*
X372798Y84045D01*
X372867Y83996D01*
X372934Y83943D01*
X372998Y83887D01*
X373059Y83829D01*
X373117Y83768D01*
X373173Y83704D01*
X373226Y83637D01*
X373275Y83568D01*
X373321Y83497D01*
X373364Y83424D01*
X373404Y83349D01*
X373440Y83273D01*
X373472Y83195D01*
X373501Y83115D01*
X373526Y83034D01*
X373547Y82952D01*
X373565Y82869D01*
X373578Y82785D01*
X373588Y82701D01*
X373594Y82617D01*
X373596Y82532D01*
X373594Y82447D01*
X373588Y82363D01*
X373578Y82279D01*
X373565Y82195D01*
X373547Y82112D01*
X373526Y82030D01*
X373501Y81949D01*
X373472Y81869D01*
X373440Y81791D01*
X373404Y81715D01*
X373364Y81640D01*
X373321Y81567D01*
X373275Y81496D01*
X373226Y81427D01*
X373173Y81360D01*
X373117Y81296D01*
X373059Y81235D01*
X372998Y81177D01*
X372934Y81121D01*
X372867Y81068D01*
X372798Y81019D01*
X372727Y80973D01*
X372654Y80930D01*
X372579Y80890D01*
X372503Y80854D01*
X372425Y80822D01*
X372345Y80793D01*
X372264Y80768D01*
X372182Y80747D01*
X372099Y80729D01*
X372015Y80716D01*
X371931Y80706D01*
X371847Y80700D01*
X371762Y80698D01*
X371762Y80697D02*
X369927Y80697D01*
X372129Y80697D02*
X373596Y77762D01*
X377164Y83632D02*
X377164Y84366D01*
X380833Y84366D01*
X378998Y77762D01*
X383927Y77762D02*
X383927Y84366D01*
X385762Y84366D01*
X385847Y84364D01*
X385931Y84358D01*
X386015Y84348D01*
X386099Y84335D01*
X386182Y84317D01*
X386264Y84296D01*
X386345Y84271D01*
X386425Y84242D01*
X386503Y84210D01*
X386579Y84174D01*
X386654Y84134D01*
X386727Y84091D01*
X386798Y84045D01*
X386867Y83996D01*
X386934Y83943D01*
X386998Y83887D01*
X387059Y83829D01*
X387117Y83768D01*
X387173Y83704D01*
X387226Y83637D01*
X387275Y83568D01*
X387321Y83497D01*
X387364Y83424D01*
X387404Y83349D01*
X387440Y83273D01*
X387472Y83195D01*
X387501Y83115D01*
X387526Y83034D01*
X387547Y82952D01*
X387565Y82869D01*
X387578Y82785D01*
X387588Y82701D01*
X387594Y82617D01*
X387596Y82532D01*
X387594Y82447D01*
X387588Y82363D01*
X387578Y82279D01*
X387565Y82195D01*
X387547Y82112D01*
X387526Y82030D01*
X387501Y81949D01*
X387472Y81869D01*
X387440Y81791D01*
X387404Y81715D01*
X387364Y81640D01*
X387321Y81567D01*
X387275Y81496D01*
X387226Y81427D01*
X387173Y81360D01*
X387117Y81296D01*
X387059Y81235D01*
X386998Y81177D01*
X386934Y81121D01*
X386867Y81068D01*
X386798Y81019D01*
X386727Y80973D01*
X386654Y80930D01*
X386579Y80890D01*
X386503Y80854D01*
X386425Y80822D01*
X386345Y80793D01*
X386264Y80768D01*
X386182Y80747D01*
X386099Y80729D01*
X386015Y80716D01*
X385931Y80706D01*
X385847Y80700D01*
X385762Y80698D01*
X385762Y80697D02*
X383927Y80697D01*
X386129Y80697D02*
X387596Y77762D01*
X391164Y79596D02*
X391166Y79681D01*
X391172Y79765D01*
X391182Y79849D01*
X391195Y79933D01*
X391213Y80016D01*
X391234Y80098D01*
X391259Y80179D01*
X391288Y80259D01*
X391320Y80337D01*
X391356Y80413D01*
X391396Y80488D01*
X391439Y80561D01*
X391485Y80632D01*
X391534Y80701D01*
X391587Y80768D01*
X391643Y80832D01*
X391701Y80893D01*
X391762Y80951D01*
X391826Y81007D01*
X391893Y81060D01*
X391962Y81109D01*
X392033Y81155D01*
X392106Y81198D01*
X392181Y81238D01*
X392257Y81274D01*
X392335Y81306D01*
X392415Y81335D01*
X392496Y81360D01*
X392578Y81381D01*
X392661Y81399D01*
X392745Y81412D01*
X392829Y81422D01*
X392913Y81428D01*
X392998Y81430D01*
X393083Y81428D01*
X393167Y81422D01*
X393251Y81412D01*
X393335Y81399D01*
X393418Y81381D01*
X393500Y81360D01*
X393581Y81335D01*
X393661Y81306D01*
X393739Y81274D01*
X393815Y81238D01*
X393890Y81198D01*
X393963Y81155D01*
X394034Y81109D01*
X394103Y81060D01*
X394170Y81007D01*
X394234Y80951D01*
X394295Y80893D01*
X394353Y80832D01*
X394409Y80768D01*
X394462Y80701D01*
X394511Y80632D01*
X394557Y80561D01*
X394600Y80488D01*
X394640Y80413D01*
X394676Y80337D01*
X394708Y80259D01*
X394737Y80179D01*
X394762Y80098D01*
X394783Y80016D01*
X394801Y79933D01*
X394814Y79849D01*
X394824Y79765D01*
X394830Y79681D01*
X394832Y79596D01*
X394830Y79511D01*
X394824Y79427D01*
X394814Y79343D01*
X394801Y79259D01*
X394783Y79176D01*
X394762Y79094D01*
X394737Y79013D01*
X394708Y78933D01*
X394676Y78855D01*
X394640Y78779D01*
X394600Y78704D01*
X394557Y78631D01*
X394511Y78560D01*
X394462Y78491D01*
X394409Y78424D01*
X394353Y78360D01*
X394295Y78299D01*
X394234Y78241D01*
X394170Y78185D01*
X394103Y78132D01*
X394034Y78083D01*
X393963Y78037D01*
X393890Y77994D01*
X393815Y77954D01*
X393739Y77918D01*
X393661Y77886D01*
X393581Y77857D01*
X393500Y77832D01*
X393418Y77811D01*
X393335Y77793D01*
X393251Y77780D01*
X393167Y77770D01*
X393083Y77764D01*
X392998Y77762D01*
X392913Y77764D01*
X392829Y77770D01*
X392745Y77780D01*
X392661Y77793D01*
X392578Y77811D01*
X392496Y77832D01*
X392415Y77857D01*
X392335Y77886D01*
X392257Y77918D01*
X392181Y77954D01*
X392106Y77994D01*
X392033Y78037D01*
X391962Y78083D01*
X391893Y78132D01*
X391826Y78185D01*
X391762Y78241D01*
X391701Y78299D01*
X391643Y78360D01*
X391587Y78424D01*
X391534Y78491D01*
X391485Y78560D01*
X391439Y78631D01*
X391396Y78704D01*
X391356Y78779D01*
X391320Y78855D01*
X391288Y78933D01*
X391259Y79013D01*
X391234Y79094D01*
X391213Y79176D01*
X391195Y79259D01*
X391182Y79343D01*
X391172Y79427D01*
X391166Y79511D01*
X391164Y79596D01*
X391530Y82898D02*
X391532Y82974D01*
X391538Y83049D01*
X391547Y83124D01*
X391561Y83198D01*
X391578Y83272D01*
X391600Y83344D01*
X391624Y83416D01*
X391653Y83486D01*
X391685Y83554D01*
X391720Y83621D01*
X391759Y83686D01*
X391802Y83749D01*
X391847Y83809D01*
X391895Y83867D01*
X391947Y83923D01*
X392001Y83975D01*
X392058Y84025D01*
X392117Y84072D01*
X392178Y84116D01*
X392242Y84157D01*
X392308Y84194D01*
X392376Y84228D01*
X392445Y84258D01*
X392516Y84285D01*
X392588Y84308D01*
X392661Y84327D01*
X392735Y84342D01*
X392810Y84354D01*
X392885Y84362D01*
X392960Y84366D01*
X393036Y84366D01*
X393111Y84362D01*
X393186Y84354D01*
X393261Y84342D01*
X393335Y84327D01*
X393408Y84308D01*
X393480Y84285D01*
X393551Y84258D01*
X393620Y84228D01*
X393688Y84194D01*
X393754Y84157D01*
X393818Y84116D01*
X393879Y84072D01*
X393938Y84025D01*
X393995Y83975D01*
X394049Y83923D01*
X394101Y83867D01*
X394149Y83809D01*
X394194Y83749D01*
X394237Y83686D01*
X394276Y83621D01*
X394311Y83554D01*
X394343Y83486D01*
X394372Y83416D01*
X394396Y83344D01*
X394418Y83272D01*
X394435Y83198D01*
X394449Y83124D01*
X394458Y83049D01*
X394464Y82974D01*
X394466Y82898D01*
X394464Y82822D01*
X394458Y82747D01*
X394449Y82672D01*
X394435Y82598D01*
X394418Y82524D01*
X394396Y82452D01*
X394372Y82380D01*
X394343Y82310D01*
X394311Y82242D01*
X394276Y82175D01*
X394237Y82110D01*
X394194Y82047D01*
X394149Y81987D01*
X394101Y81929D01*
X394049Y81873D01*
X393995Y81821D01*
X393938Y81771D01*
X393879Y81724D01*
X393818Y81680D01*
X393754Y81639D01*
X393688Y81602D01*
X393620Y81568D01*
X393551Y81538D01*
X393480Y81511D01*
X393408Y81488D01*
X393335Y81469D01*
X393261Y81454D01*
X393186Y81442D01*
X393111Y81434D01*
X393036Y81430D01*
X392960Y81430D01*
X392885Y81434D01*
X392810Y81442D01*
X392735Y81454D01*
X392661Y81469D01*
X392588Y81488D01*
X392516Y81511D01*
X392445Y81538D01*
X392376Y81568D01*
X392308Y81602D01*
X392242Y81639D01*
X392178Y81680D01*
X392117Y81724D01*
X392058Y81771D01*
X392001Y81821D01*
X391947Y81873D01*
X391895Y81929D01*
X391847Y81987D01*
X391802Y82047D01*
X391759Y82110D01*
X391720Y82175D01*
X391685Y82242D01*
X391653Y82310D01*
X391624Y82380D01*
X391600Y82452D01*
X391578Y82524D01*
X391561Y82598D01*
X391547Y82672D01*
X391538Y82747D01*
X391532Y82822D01*
X391530Y82898D01*
D11*
X153800Y39000D02*
X153800Y159000D01*
X166000Y159000D01*
X166000Y39000D02*
X153800Y39000D01*
X196000Y59000D02*
X196000Y139000D01*
M02*
