G04 EAGLE Gerber RS-274X export*
G75*
%MOMM*%
%FSLAX34Y34*%
%LPD*%
%INSilkscreen Top*%
%IPPOS*%
%AMOC8*
5,1,8,0,0,1.08239X$1,22.5*%
G01*
%ADD10C,0.076200*%
%ADD11C,0.127000*%
%ADD12C,0.203200*%
%ADD13C,0.254000*%
%ADD14C,0.152400*%
%ADD15C,0.200000*%


D10*
X344201Y146704D02*
X344201Y139394D01*
X344199Y139305D01*
X344193Y139217D01*
X344184Y139129D01*
X344171Y139041D01*
X344154Y138954D01*
X344134Y138868D01*
X344109Y138783D01*
X344082Y138698D01*
X344050Y138615D01*
X344016Y138534D01*
X343977Y138454D01*
X343936Y138376D01*
X343891Y138299D01*
X343843Y138225D01*
X343792Y138152D01*
X343738Y138082D01*
X343680Y138015D01*
X343620Y137949D01*
X343558Y137887D01*
X343492Y137827D01*
X343425Y137769D01*
X343355Y137715D01*
X343282Y137664D01*
X343208Y137616D01*
X343131Y137571D01*
X343053Y137530D01*
X342973Y137491D01*
X342892Y137457D01*
X342809Y137425D01*
X342724Y137398D01*
X342639Y137373D01*
X342553Y137353D01*
X342466Y137336D01*
X342378Y137323D01*
X342290Y137314D01*
X342202Y137308D01*
X342113Y137306D01*
X341069Y137306D01*
X348715Y137306D02*
X348715Y146704D01*
X348715Y137306D02*
X352892Y137306D01*
X358380Y137306D02*
X360469Y137306D01*
X358380Y137306D02*
X358291Y137308D01*
X358203Y137314D01*
X358115Y137323D01*
X358027Y137336D01*
X357940Y137353D01*
X357854Y137373D01*
X357769Y137398D01*
X357684Y137425D01*
X357601Y137457D01*
X357520Y137491D01*
X357440Y137530D01*
X357362Y137571D01*
X357285Y137616D01*
X357211Y137664D01*
X357138Y137715D01*
X357068Y137769D01*
X357001Y137827D01*
X356935Y137887D01*
X356873Y137949D01*
X356813Y138015D01*
X356755Y138082D01*
X356701Y138152D01*
X356650Y138225D01*
X356602Y138299D01*
X356557Y138376D01*
X356516Y138454D01*
X356477Y138534D01*
X356443Y138615D01*
X356411Y138698D01*
X356384Y138783D01*
X356359Y138868D01*
X356339Y138954D01*
X356322Y139041D01*
X356309Y139129D01*
X356300Y139217D01*
X356294Y139305D01*
X356292Y139394D01*
X356292Y144616D01*
X356294Y144707D01*
X356300Y144798D01*
X356310Y144889D01*
X356324Y144979D01*
X356341Y145068D01*
X356363Y145156D01*
X356389Y145244D01*
X356418Y145330D01*
X356451Y145415D01*
X356488Y145498D01*
X356528Y145580D01*
X356572Y145660D01*
X356619Y145738D01*
X356670Y145814D01*
X356723Y145887D01*
X356780Y145958D01*
X356841Y146027D01*
X356904Y146092D01*
X356969Y146155D01*
X357038Y146215D01*
X357109Y146273D01*
X357182Y146326D01*
X357258Y146377D01*
X357336Y146424D01*
X357416Y146468D01*
X357498Y146508D01*
X357581Y146545D01*
X357666Y146578D01*
X357752Y146607D01*
X357840Y146633D01*
X357928Y146655D01*
X358017Y146672D01*
X358107Y146686D01*
X358198Y146696D01*
X358289Y146702D01*
X358380Y146704D01*
X360469Y146704D01*
X366147Y146704D02*
X366147Y139394D01*
X366146Y139394D02*
X366144Y139305D01*
X366138Y139217D01*
X366129Y139129D01*
X366116Y139041D01*
X366099Y138954D01*
X366079Y138868D01*
X366054Y138783D01*
X366027Y138698D01*
X365995Y138615D01*
X365961Y138534D01*
X365922Y138454D01*
X365881Y138376D01*
X365836Y138299D01*
X365788Y138225D01*
X365737Y138152D01*
X365683Y138082D01*
X365625Y138015D01*
X365565Y137949D01*
X365503Y137887D01*
X365437Y137827D01*
X365370Y137769D01*
X365300Y137715D01*
X365227Y137664D01*
X365153Y137616D01*
X365076Y137571D01*
X364998Y137530D01*
X364918Y137491D01*
X364837Y137457D01*
X364754Y137425D01*
X364669Y137398D01*
X364584Y137373D01*
X364498Y137353D01*
X364411Y137336D01*
X364323Y137323D01*
X364235Y137314D01*
X364147Y137308D01*
X364058Y137306D01*
X363014Y137306D01*
X370661Y137306D02*
X370661Y146704D01*
X370661Y137306D02*
X374837Y137306D01*
X380326Y137306D02*
X382414Y137306D01*
X380326Y137306D02*
X380237Y137308D01*
X380149Y137314D01*
X380061Y137323D01*
X379973Y137336D01*
X379886Y137353D01*
X379800Y137373D01*
X379715Y137398D01*
X379630Y137425D01*
X379547Y137457D01*
X379466Y137491D01*
X379386Y137530D01*
X379308Y137571D01*
X379231Y137616D01*
X379157Y137664D01*
X379084Y137715D01*
X379014Y137769D01*
X378947Y137827D01*
X378881Y137887D01*
X378819Y137949D01*
X378759Y138015D01*
X378701Y138082D01*
X378647Y138152D01*
X378596Y138225D01*
X378548Y138299D01*
X378503Y138376D01*
X378462Y138454D01*
X378423Y138534D01*
X378389Y138615D01*
X378357Y138698D01*
X378330Y138783D01*
X378305Y138868D01*
X378285Y138954D01*
X378268Y139041D01*
X378255Y139129D01*
X378246Y139217D01*
X378240Y139305D01*
X378238Y139394D01*
X378237Y139394D02*
X378237Y144616D01*
X378238Y144616D02*
X378240Y144707D01*
X378246Y144798D01*
X378256Y144889D01*
X378270Y144979D01*
X378287Y145068D01*
X378309Y145156D01*
X378335Y145244D01*
X378364Y145330D01*
X378397Y145415D01*
X378434Y145498D01*
X378474Y145580D01*
X378518Y145660D01*
X378565Y145738D01*
X378616Y145814D01*
X378669Y145887D01*
X378726Y145958D01*
X378787Y146027D01*
X378850Y146092D01*
X378915Y146155D01*
X378984Y146215D01*
X379055Y146273D01*
X379128Y146326D01*
X379204Y146377D01*
X379282Y146424D01*
X379362Y146468D01*
X379444Y146508D01*
X379527Y146545D01*
X379612Y146578D01*
X379698Y146607D01*
X379786Y146633D01*
X379874Y146655D01*
X379963Y146672D01*
X380053Y146686D01*
X380144Y146696D01*
X380235Y146702D01*
X380326Y146704D01*
X382414Y146704D01*
X388092Y146704D02*
X388092Y139394D01*
X388090Y139305D01*
X388084Y139217D01*
X388075Y139129D01*
X388062Y139041D01*
X388045Y138954D01*
X388025Y138868D01*
X388000Y138783D01*
X387973Y138698D01*
X387941Y138615D01*
X387907Y138534D01*
X387868Y138454D01*
X387827Y138376D01*
X387782Y138299D01*
X387734Y138225D01*
X387683Y138152D01*
X387629Y138082D01*
X387571Y138015D01*
X387511Y137949D01*
X387449Y137887D01*
X387383Y137827D01*
X387316Y137769D01*
X387246Y137715D01*
X387173Y137664D01*
X387099Y137616D01*
X387022Y137571D01*
X386944Y137530D01*
X386864Y137491D01*
X386783Y137457D01*
X386700Y137425D01*
X386615Y137398D01*
X386530Y137373D01*
X386444Y137353D01*
X386357Y137336D01*
X386269Y137323D01*
X386181Y137314D01*
X386093Y137308D01*
X386004Y137306D01*
X384959Y137306D01*
X392606Y137306D02*
X392606Y146704D01*
X392606Y137306D02*
X396783Y137306D01*
X402271Y137306D02*
X404360Y137306D01*
X402271Y137306D02*
X402182Y137308D01*
X402094Y137314D01*
X402006Y137323D01*
X401918Y137336D01*
X401831Y137353D01*
X401745Y137373D01*
X401660Y137398D01*
X401575Y137425D01*
X401492Y137457D01*
X401411Y137491D01*
X401331Y137530D01*
X401253Y137571D01*
X401176Y137616D01*
X401102Y137664D01*
X401029Y137715D01*
X400959Y137769D01*
X400892Y137827D01*
X400826Y137887D01*
X400764Y137949D01*
X400704Y138015D01*
X400646Y138082D01*
X400592Y138152D01*
X400541Y138225D01*
X400493Y138299D01*
X400448Y138376D01*
X400407Y138454D01*
X400368Y138534D01*
X400334Y138615D01*
X400302Y138698D01*
X400275Y138783D01*
X400250Y138868D01*
X400230Y138954D01*
X400213Y139041D01*
X400200Y139129D01*
X400191Y139217D01*
X400185Y139305D01*
X400183Y139394D01*
X400183Y144616D01*
X400185Y144707D01*
X400191Y144798D01*
X400201Y144889D01*
X400215Y144979D01*
X400232Y145068D01*
X400254Y145156D01*
X400280Y145244D01*
X400309Y145330D01*
X400342Y145415D01*
X400379Y145498D01*
X400419Y145580D01*
X400463Y145660D01*
X400510Y145738D01*
X400561Y145814D01*
X400614Y145887D01*
X400671Y145958D01*
X400732Y146027D01*
X400795Y146092D01*
X400860Y146155D01*
X400929Y146215D01*
X401000Y146273D01*
X401073Y146326D01*
X401149Y146377D01*
X401227Y146424D01*
X401307Y146468D01*
X401389Y146508D01*
X401472Y146545D01*
X401557Y146578D01*
X401643Y146607D01*
X401731Y146633D01*
X401819Y146655D01*
X401908Y146672D01*
X401998Y146686D01*
X402089Y146696D01*
X402180Y146702D01*
X402271Y146704D01*
X404360Y146704D01*
X410038Y146704D02*
X410038Y139394D01*
X410037Y139394D02*
X410035Y139305D01*
X410029Y139217D01*
X410020Y139129D01*
X410007Y139041D01*
X409990Y138954D01*
X409970Y138868D01*
X409945Y138783D01*
X409918Y138698D01*
X409886Y138615D01*
X409852Y138534D01*
X409813Y138454D01*
X409772Y138376D01*
X409727Y138299D01*
X409679Y138225D01*
X409628Y138152D01*
X409574Y138082D01*
X409516Y138015D01*
X409456Y137949D01*
X409394Y137887D01*
X409328Y137827D01*
X409261Y137769D01*
X409191Y137715D01*
X409118Y137664D01*
X409044Y137616D01*
X408967Y137571D01*
X408889Y137530D01*
X408809Y137491D01*
X408728Y137457D01*
X408645Y137425D01*
X408560Y137398D01*
X408475Y137373D01*
X408389Y137353D01*
X408302Y137336D01*
X408214Y137323D01*
X408126Y137314D01*
X408038Y137308D01*
X407949Y137306D01*
X406905Y137306D01*
X414552Y137306D02*
X414552Y146704D01*
X414552Y137306D02*
X418728Y137306D01*
X424217Y137306D02*
X426305Y137306D01*
X424217Y137306D02*
X424128Y137308D01*
X424040Y137314D01*
X423952Y137323D01*
X423864Y137336D01*
X423777Y137353D01*
X423691Y137373D01*
X423606Y137398D01*
X423521Y137425D01*
X423438Y137457D01*
X423357Y137491D01*
X423277Y137530D01*
X423199Y137571D01*
X423122Y137616D01*
X423048Y137664D01*
X422975Y137715D01*
X422905Y137769D01*
X422838Y137827D01*
X422772Y137887D01*
X422710Y137949D01*
X422650Y138015D01*
X422592Y138082D01*
X422538Y138152D01*
X422487Y138225D01*
X422439Y138299D01*
X422394Y138376D01*
X422353Y138454D01*
X422314Y138534D01*
X422280Y138615D01*
X422248Y138698D01*
X422221Y138783D01*
X422196Y138868D01*
X422176Y138954D01*
X422159Y139041D01*
X422146Y139129D01*
X422137Y139217D01*
X422131Y139305D01*
X422129Y139394D01*
X422128Y139394D02*
X422128Y144616D01*
X422129Y144616D02*
X422131Y144707D01*
X422137Y144798D01*
X422147Y144889D01*
X422161Y144979D01*
X422178Y145068D01*
X422200Y145156D01*
X422226Y145244D01*
X422255Y145330D01*
X422288Y145415D01*
X422325Y145498D01*
X422365Y145580D01*
X422409Y145660D01*
X422456Y145738D01*
X422507Y145814D01*
X422560Y145887D01*
X422617Y145958D01*
X422678Y146027D01*
X422741Y146092D01*
X422806Y146155D01*
X422875Y146215D01*
X422946Y146273D01*
X423019Y146326D01*
X423095Y146377D01*
X423173Y146424D01*
X423253Y146468D01*
X423335Y146508D01*
X423418Y146545D01*
X423503Y146578D01*
X423589Y146607D01*
X423677Y146633D01*
X423765Y146655D01*
X423854Y146672D01*
X423944Y146686D01*
X424035Y146696D01*
X424126Y146702D01*
X424217Y146704D01*
X426305Y146704D01*
D11*
X241346Y164330D02*
X239822Y164330D01*
X239745Y164332D01*
X239668Y164338D01*
X239591Y164348D01*
X239515Y164361D01*
X239440Y164379D01*
X239366Y164400D01*
X239293Y164425D01*
X239221Y164454D01*
X239151Y164486D01*
X239082Y164521D01*
X239016Y164561D01*
X238951Y164603D01*
X238889Y164649D01*
X238829Y164698D01*
X238772Y164749D01*
X238717Y164804D01*
X238666Y164861D01*
X238617Y164921D01*
X238571Y164983D01*
X238529Y165048D01*
X238489Y165114D01*
X238454Y165183D01*
X238422Y165253D01*
X238393Y165325D01*
X238368Y165398D01*
X238347Y165472D01*
X238329Y165547D01*
X238316Y165623D01*
X238306Y165700D01*
X238300Y165777D01*
X238298Y165854D01*
X238298Y169664D01*
X238300Y169741D01*
X238306Y169818D01*
X238316Y169895D01*
X238329Y169971D01*
X238347Y170046D01*
X238368Y170120D01*
X238393Y170193D01*
X238422Y170265D01*
X238454Y170335D01*
X238489Y170404D01*
X238529Y170470D01*
X238571Y170535D01*
X238617Y170597D01*
X238666Y170657D01*
X238717Y170714D01*
X238772Y170769D01*
X238829Y170820D01*
X238889Y170869D01*
X238951Y170915D01*
X239016Y170957D01*
X239082Y170997D01*
X239151Y171032D01*
X239221Y171064D01*
X239293Y171093D01*
X239366Y171118D01*
X239440Y171139D01*
X239515Y171157D01*
X239591Y171170D01*
X239668Y171180D01*
X239745Y171186D01*
X239822Y171188D01*
X241346Y171188D01*
X245949Y171188D02*
X244425Y165854D01*
X248235Y165854D01*
X247092Y167378D02*
X247092Y164330D01*
X219926Y144671D02*
X218402Y144671D01*
X218325Y144673D01*
X218248Y144679D01*
X218171Y144689D01*
X218095Y144702D01*
X218020Y144720D01*
X217946Y144741D01*
X217873Y144766D01*
X217801Y144795D01*
X217731Y144827D01*
X217662Y144862D01*
X217596Y144902D01*
X217531Y144944D01*
X217469Y144990D01*
X217409Y145039D01*
X217352Y145090D01*
X217297Y145145D01*
X217246Y145202D01*
X217197Y145262D01*
X217151Y145324D01*
X217109Y145389D01*
X217069Y145455D01*
X217034Y145524D01*
X217002Y145594D01*
X216973Y145666D01*
X216948Y145739D01*
X216927Y145813D01*
X216909Y145888D01*
X216896Y145964D01*
X216886Y146041D01*
X216880Y146118D01*
X216878Y146195D01*
X216878Y150005D01*
X216880Y150082D01*
X216886Y150159D01*
X216896Y150236D01*
X216909Y150312D01*
X216927Y150387D01*
X216948Y150461D01*
X216973Y150534D01*
X217002Y150606D01*
X217034Y150676D01*
X217069Y150745D01*
X217109Y150811D01*
X217151Y150876D01*
X217197Y150938D01*
X217246Y150998D01*
X217297Y151055D01*
X217352Y151110D01*
X217409Y151161D01*
X217469Y151210D01*
X217531Y151256D01*
X217596Y151298D01*
X217662Y151338D01*
X217731Y151373D01*
X217801Y151405D01*
X217873Y151434D01*
X217946Y151459D01*
X218020Y151480D01*
X218095Y151498D01*
X218171Y151511D01*
X218248Y151521D01*
X218325Y151527D01*
X218402Y151529D01*
X219926Y151529D01*
X223005Y144671D02*
X224910Y144671D01*
X224995Y144673D01*
X225081Y144679D01*
X225166Y144688D01*
X225250Y144702D01*
X225334Y144719D01*
X225417Y144740D01*
X225499Y144764D01*
X225579Y144792D01*
X225659Y144824D01*
X225737Y144860D01*
X225813Y144898D01*
X225887Y144941D01*
X225959Y144986D01*
X226030Y145035D01*
X226098Y145087D01*
X226163Y145141D01*
X226226Y145199D01*
X226287Y145260D01*
X226345Y145323D01*
X226399Y145388D01*
X226451Y145456D01*
X226500Y145527D01*
X226545Y145599D01*
X226588Y145673D01*
X226626Y145749D01*
X226662Y145827D01*
X226694Y145907D01*
X226722Y145987D01*
X226746Y146069D01*
X226767Y146152D01*
X226784Y146236D01*
X226798Y146320D01*
X226807Y146405D01*
X226813Y146491D01*
X226815Y146576D01*
X226813Y146661D01*
X226807Y146747D01*
X226798Y146832D01*
X226784Y146916D01*
X226767Y147000D01*
X226746Y147083D01*
X226722Y147165D01*
X226694Y147245D01*
X226662Y147325D01*
X226626Y147403D01*
X226588Y147479D01*
X226545Y147553D01*
X226500Y147625D01*
X226451Y147696D01*
X226399Y147764D01*
X226345Y147829D01*
X226287Y147892D01*
X226226Y147953D01*
X226163Y148011D01*
X226098Y148065D01*
X226030Y148117D01*
X225959Y148166D01*
X225887Y148211D01*
X225813Y148254D01*
X225737Y148292D01*
X225659Y148328D01*
X225579Y148360D01*
X225499Y148388D01*
X225417Y148412D01*
X225334Y148433D01*
X225250Y148450D01*
X225166Y148464D01*
X225081Y148473D01*
X224995Y148479D01*
X224910Y148481D01*
X225291Y151529D02*
X223005Y151529D01*
X225291Y151529D02*
X225368Y151527D01*
X225445Y151521D01*
X225522Y151511D01*
X225598Y151498D01*
X225673Y151480D01*
X225747Y151459D01*
X225820Y151434D01*
X225892Y151405D01*
X225962Y151373D01*
X226031Y151338D01*
X226097Y151298D01*
X226162Y151256D01*
X226224Y151210D01*
X226284Y151161D01*
X226341Y151110D01*
X226396Y151055D01*
X226447Y150998D01*
X226496Y150938D01*
X226542Y150876D01*
X226584Y150811D01*
X226624Y150745D01*
X226659Y150676D01*
X226691Y150606D01*
X226720Y150534D01*
X226745Y150461D01*
X226766Y150387D01*
X226784Y150312D01*
X226797Y150236D01*
X226807Y150159D01*
X226813Y150082D01*
X226815Y150005D01*
X226813Y149928D01*
X226807Y149851D01*
X226797Y149774D01*
X226784Y149698D01*
X226766Y149623D01*
X226745Y149549D01*
X226720Y149476D01*
X226691Y149404D01*
X226659Y149334D01*
X226624Y149265D01*
X226584Y149199D01*
X226542Y149134D01*
X226496Y149072D01*
X226447Y149012D01*
X226396Y148955D01*
X226341Y148900D01*
X226284Y148849D01*
X226224Y148800D01*
X226162Y148754D01*
X226097Y148712D01*
X226031Y148672D01*
X225962Y148637D01*
X225892Y148605D01*
X225820Y148576D01*
X225747Y148551D01*
X225673Y148530D01*
X225598Y148512D01*
X225522Y148499D01*
X225445Y148489D01*
X225368Y148483D01*
X225291Y148481D01*
X223767Y148481D01*
D10*
X341369Y49206D02*
X345545Y49206D01*
X341369Y49206D02*
X341369Y58604D01*
X345545Y58604D01*
X344501Y54427D02*
X341369Y54427D01*
X348971Y56516D02*
X351582Y58604D01*
X351582Y49206D01*
X354192Y49206D02*
X348971Y49206D01*
X358115Y53905D02*
X358117Y54090D01*
X358124Y54275D01*
X358135Y54459D01*
X358150Y54643D01*
X358170Y54827D01*
X358194Y55011D01*
X358223Y55193D01*
X358256Y55375D01*
X358293Y55556D01*
X358335Y55736D01*
X358381Y55916D01*
X358431Y56094D01*
X358485Y56270D01*
X358544Y56446D01*
X358606Y56620D01*
X358673Y56792D01*
X358744Y56963D01*
X358819Y57132D01*
X358898Y57299D01*
X358897Y57299D02*
X358927Y57379D01*
X358960Y57458D01*
X358997Y57535D01*
X359037Y57611D01*
X359080Y57685D01*
X359126Y57757D01*
X359176Y57826D01*
X359228Y57894D01*
X359284Y57959D01*
X359342Y58022D01*
X359404Y58081D01*
X359467Y58139D01*
X359534Y58193D01*
X359602Y58244D01*
X359673Y58292D01*
X359746Y58337D01*
X359820Y58379D01*
X359897Y58417D01*
X359975Y58452D01*
X360054Y58484D01*
X360135Y58512D01*
X360217Y58536D01*
X360301Y58557D01*
X360384Y58574D01*
X360469Y58587D01*
X360554Y58596D01*
X360639Y58602D01*
X360725Y58604D01*
X360811Y58602D01*
X360896Y58596D01*
X360981Y58587D01*
X361066Y58574D01*
X361149Y58557D01*
X361233Y58536D01*
X361315Y58512D01*
X361396Y58484D01*
X361475Y58452D01*
X361553Y58417D01*
X361630Y58379D01*
X361704Y58337D01*
X361777Y58292D01*
X361848Y58244D01*
X361916Y58193D01*
X361983Y58139D01*
X362046Y58081D01*
X362108Y58022D01*
X362166Y57959D01*
X362222Y57894D01*
X362274Y57826D01*
X362324Y57757D01*
X362370Y57685D01*
X362413Y57611D01*
X362453Y57535D01*
X362490Y57458D01*
X362523Y57379D01*
X362553Y57299D01*
X362632Y57132D01*
X362707Y56963D01*
X362778Y56792D01*
X362845Y56620D01*
X362907Y56446D01*
X362966Y56270D01*
X363020Y56094D01*
X363070Y55916D01*
X363116Y55736D01*
X363158Y55556D01*
X363195Y55375D01*
X363228Y55193D01*
X363257Y55011D01*
X363281Y54827D01*
X363301Y54643D01*
X363316Y54459D01*
X363327Y54275D01*
X363334Y54090D01*
X363336Y53905D01*
X358115Y53905D02*
X358117Y53720D01*
X358124Y53535D01*
X358135Y53351D01*
X358150Y53167D01*
X358170Y52983D01*
X358194Y52799D01*
X358223Y52617D01*
X358256Y52435D01*
X358293Y52254D01*
X358335Y52074D01*
X358381Y51894D01*
X358431Y51716D01*
X358485Y51540D01*
X358544Y51364D01*
X358606Y51190D01*
X358673Y51018D01*
X358744Y50847D01*
X358819Y50678D01*
X358898Y50511D01*
X358897Y50511D02*
X358927Y50431D01*
X358960Y50352D01*
X358997Y50275D01*
X359037Y50199D01*
X359080Y50125D01*
X359126Y50053D01*
X359176Y49984D01*
X359229Y49916D01*
X359284Y49851D01*
X359343Y49788D01*
X359404Y49729D01*
X359467Y49671D01*
X359534Y49617D01*
X359602Y49566D01*
X359673Y49518D01*
X359746Y49473D01*
X359820Y49431D01*
X359897Y49393D01*
X359975Y49358D01*
X360054Y49326D01*
X360135Y49298D01*
X360217Y49274D01*
X360301Y49253D01*
X360384Y49236D01*
X360469Y49223D01*
X360554Y49214D01*
X360639Y49208D01*
X360725Y49206D01*
X362553Y50511D02*
X362632Y50678D01*
X362707Y50847D01*
X362778Y51018D01*
X362845Y51190D01*
X362907Y51364D01*
X362966Y51540D01*
X363020Y51716D01*
X363070Y51894D01*
X363116Y52074D01*
X363158Y52254D01*
X363195Y52435D01*
X363228Y52617D01*
X363257Y52799D01*
X363281Y52983D01*
X363301Y53167D01*
X363316Y53351D01*
X363327Y53535D01*
X363334Y53720D01*
X363336Y53905D01*
X362553Y50511D02*
X362523Y50431D01*
X362490Y50352D01*
X362453Y50275D01*
X362413Y50199D01*
X362370Y50125D01*
X362324Y50053D01*
X362274Y49984D01*
X362222Y49916D01*
X362166Y49851D01*
X362108Y49788D01*
X362046Y49729D01*
X361983Y49671D01*
X361916Y49617D01*
X361848Y49566D01*
X361777Y49518D01*
X361704Y49473D01*
X361630Y49431D01*
X361553Y49393D01*
X361475Y49358D01*
X361396Y49326D01*
X361315Y49298D01*
X361233Y49274D01*
X361149Y49253D01*
X361066Y49236D01*
X360981Y49223D01*
X360896Y49214D01*
X360811Y49208D01*
X360725Y49206D01*
X358637Y51294D02*
X362814Y56516D01*
X367259Y51294D02*
X369347Y58604D01*
X367259Y51294D02*
X372480Y51294D01*
X370914Y53383D02*
X370914Y49206D01*
X376490Y52861D02*
X382756Y52861D01*
X387202Y54427D02*
X389813Y54427D01*
X389813Y54428D02*
X389914Y54426D01*
X390015Y54420D01*
X390116Y54410D01*
X390216Y54397D01*
X390316Y54379D01*
X390415Y54358D01*
X390513Y54332D01*
X390610Y54303D01*
X390706Y54271D01*
X390800Y54234D01*
X390893Y54194D01*
X390985Y54150D01*
X391074Y54103D01*
X391162Y54052D01*
X391248Y53998D01*
X391331Y53941D01*
X391413Y53881D01*
X391491Y53817D01*
X391568Y53751D01*
X391641Y53681D01*
X391712Y53609D01*
X391780Y53534D01*
X391845Y53456D01*
X391907Y53376D01*
X391966Y53294D01*
X392022Y53209D01*
X392074Y53122D01*
X392123Y53034D01*
X392169Y52943D01*
X392210Y52851D01*
X392249Y52757D01*
X392283Y52662D01*
X392314Y52566D01*
X392341Y52468D01*
X392365Y52370D01*
X392384Y52270D01*
X392400Y52170D01*
X392412Y52070D01*
X392420Y51969D01*
X392424Y51868D01*
X392424Y51766D01*
X392420Y51665D01*
X392412Y51564D01*
X392400Y51464D01*
X392384Y51364D01*
X392365Y51264D01*
X392341Y51166D01*
X392314Y51068D01*
X392283Y50972D01*
X392249Y50877D01*
X392210Y50783D01*
X392169Y50691D01*
X392123Y50600D01*
X392074Y50511D01*
X392022Y50425D01*
X391966Y50340D01*
X391907Y50258D01*
X391845Y50178D01*
X391780Y50100D01*
X391712Y50025D01*
X391641Y49953D01*
X391568Y49883D01*
X391491Y49817D01*
X391413Y49753D01*
X391331Y49693D01*
X391248Y49636D01*
X391162Y49582D01*
X391074Y49531D01*
X390985Y49484D01*
X390893Y49440D01*
X390800Y49400D01*
X390706Y49363D01*
X390610Y49331D01*
X390513Y49302D01*
X390415Y49276D01*
X390316Y49255D01*
X390216Y49237D01*
X390116Y49224D01*
X390015Y49214D01*
X389914Y49208D01*
X389813Y49206D01*
X387202Y49206D01*
X387202Y58604D01*
X389813Y58604D01*
X389903Y58602D01*
X389992Y58596D01*
X390082Y58587D01*
X390171Y58573D01*
X390259Y58556D01*
X390346Y58535D01*
X390433Y58510D01*
X390518Y58481D01*
X390602Y58449D01*
X390684Y58414D01*
X390765Y58374D01*
X390844Y58332D01*
X390921Y58286D01*
X390996Y58236D01*
X391069Y58184D01*
X391140Y58128D01*
X391208Y58070D01*
X391273Y58008D01*
X391336Y57944D01*
X391396Y57877D01*
X391453Y57808D01*
X391507Y57736D01*
X391558Y57662D01*
X391606Y57586D01*
X391650Y57508D01*
X391691Y57428D01*
X391729Y57346D01*
X391763Y57263D01*
X391793Y57178D01*
X391820Y57092D01*
X391843Y57006D01*
X391862Y56918D01*
X391877Y56829D01*
X391889Y56740D01*
X391897Y56651D01*
X391901Y56561D01*
X391901Y56471D01*
X391897Y56381D01*
X391889Y56292D01*
X391877Y56203D01*
X391862Y56114D01*
X391843Y56026D01*
X391820Y55940D01*
X391793Y55854D01*
X391763Y55769D01*
X391729Y55686D01*
X391691Y55604D01*
X391650Y55524D01*
X391606Y55446D01*
X391558Y55370D01*
X391507Y55296D01*
X391453Y55224D01*
X391396Y55155D01*
X391336Y55088D01*
X391273Y55024D01*
X391208Y54962D01*
X391140Y54904D01*
X391069Y54848D01*
X390996Y54796D01*
X390921Y54746D01*
X390844Y54700D01*
X390765Y54658D01*
X390684Y54618D01*
X390602Y54583D01*
X390518Y54551D01*
X390433Y54522D01*
X390346Y54497D01*
X390259Y54476D01*
X390171Y54459D01*
X390082Y54445D01*
X389992Y54436D01*
X389903Y54430D01*
X389813Y54428D01*
X397911Y58604D02*
X397911Y49206D01*
X395300Y58604D02*
X400522Y58604D01*
X403835Y56516D02*
X406445Y58604D01*
X406445Y49206D01*
X403835Y49206D02*
X409056Y49206D01*
X412979Y56516D02*
X415589Y58604D01*
X415589Y49206D01*
X412979Y49206D02*
X418200Y49206D01*
X426082Y54427D02*
X427649Y54427D01*
X427649Y49206D01*
X424516Y49206D01*
X424427Y49208D01*
X424339Y49214D01*
X424251Y49223D01*
X424163Y49236D01*
X424076Y49253D01*
X423990Y49273D01*
X423905Y49298D01*
X423820Y49325D01*
X423737Y49357D01*
X423656Y49391D01*
X423576Y49430D01*
X423498Y49471D01*
X423421Y49516D01*
X423347Y49564D01*
X423274Y49615D01*
X423204Y49669D01*
X423137Y49727D01*
X423071Y49787D01*
X423009Y49849D01*
X422949Y49915D01*
X422891Y49982D01*
X422837Y50052D01*
X422786Y50125D01*
X422738Y50199D01*
X422693Y50276D01*
X422652Y50354D01*
X422613Y50434D01*
X422579Y50515D01*
X422547Y50598D01*
X422520Y50683D01*
X422495Y50768D01*
X422475Y50854D01*
X422458Y50941D01*
X422445Y51029D01*
X422436Y51117D01*
X422430Y51205D01*
X422428Y51294D01*
X422428Y56516D01*
X422430Y56607D01*
X422436Y56698D01*
X422446Y56789D01*
X422460Y56879D01*
X422477Y56968D01*
X422499Y57056D01*
X422525Y57144D01*
X422554Y57230D01*
X422587Y57315D01*
X422624Y57398D01*
X422664Y57480D01*
X422708Y57560D01*
X422755Y57638D01*
X422806Y57714D01*
X422859Y57787D01*
X422916Y57858D01*
X422977Y57927D01*
X423040Y57992D01*
X423105Y58055D01*
X423174Y58115D01*
X423245Y58173D01*
X423318Y58226D01*
X423394Y58277D01*
X423472Y58324D01*
X423552Y58368D01*
X423634Y58408D01*
X423717Y58445D01*
X423802Y58478D01*
X423888Y58507D01*
X423976Y58533D01*
X424064Y58555D01*
X424153Y58572D01*
X424243Y58586D01*
X424334Y58596D01*
X424425Y58602D01*
X424516Y58604D01*
X427649Y58604D01*
D12*
X288679Y80711D02*
X288679Y81388D01*
X289356Y81388D01*
X289356Y80711D01*
X288679Y80711D01*
X271763Y129306D02*
X263175Y129306D01*
X263175Y154706D02*
X271763Y154706D01*
X274557Y144690D02*
X274557Y139322D01*
D13*
X257309Y158008D03*
D11*
X242368Y159198D02*
X232208Y159198D01*
X284316Y160864D02*
X284316Y171024D01*
D14*
X205496Y45601D02*
X205496Y38997D01*
X205496Y45601D02*
X207330Y45601D01*
X207415Y45599D01*
X207499Y45593D01*
X207583Y45583D01*
X207667Y45570D01*
X207750Y45552D01*
X207832Y45531D01*
X207913Y45506D01*
X207993Y45477D01*
X208071Y45445D01*
X208147Y45409D01*
X208222Y45369D01*
X208295Y45326D01*
X208366Y45280D01*
X208435Y45231D01*
X208502Y45178D01*
X208566Y45122D01*
X208627Y45064D01*
X208685Y45003D01*
X208741Y44939D01*
X208794Y44872D01*
X208843Y44803D01*
X208889Y44732D01*
X208932Y44659D01*
X208972Y44584D01*
X209008Y44508D01*
X209040Y44430D01*
X209069Y44350D01*
X209094Y44269D01*
X209115Y44187D01*
X209133Y44104D01*
X209146Y44020D01*
X209156Y43936D01*
X209162Y43852D01*
X209164Y43767D01*
X209162Y43682D01*
X209156Y43598D01*
X209146Y43514D01*
X209133Y43430D01*
X209115Y43347D01*
X209094Y43265D01*
X209069Y43184D01*
X209040Y43104D01*
X209008Y43026D01*
X208972Y42950D01*
X208932Y42875D01*
X208889Y42802D01*
X208843Y42731D01*
X208794Y42662D01*
X208741Y42595D01*
X208685Y42531D01*
X208627Y42470D01*
X208566Y42412D01*
X208502Y42356D01*
X208435Y42303D01*
X208366Y42254D01*
X208295Y42208D01*
X208222Y42165D01*
X208147Y42125D01*
X208071Y42089D01*
X207993Y42057D01*
X207913Y42028D01*
X207832Y42003D01*
X207750Y41982D01*
X207667Y41964D01*
X207583Y41951D01*
X207499Y41941D01*
X207415Y41935D01*
X207330Y41933D01*
X205496Y41933D01*
X207697Y41933D02*
X209165Y38997D01*
X214750Y45601D02*
X214829Y45599D01*
X214907Y45594D01*
X214985Y45584D01*
X215062Y45571D01*
X215139Y45554D01*
X215215Y45534D01*
X215290Y45510D01*
X215364Y45483D01*
X215436Y45452D01*
X215507Y45417D01*
X215576Y45380D01*
X215643Y45339D01*
X215708Y45295D01*
X215771Y45248D01*
X215831Y45198D01*
X215889Y45145D01*
X215945Y45089D01*
X215998Y45031D01*
X216048Y44971D01*
X216095Y44908D01*
X216139Y44843D01*
X216180Y44776D01*
X216217Y44707D01*
X216252Y44636D01*
X216283Y44564D01*
X216310Y44490D01*
X216334Y44415D01*
X216354Y44339D01*
X216371Y44262D01*
X216384Y44185D01*
X216394Y44107D01*
X216399Y44029D01*
X216401Y43950D01*
X214750Y45601D02*
X214661Y45599D01*
X214572Y45594D01*
X214484Y45584D01*
X214396Y45571D01*
X214309Y45555D01*
X214222Y45534D01*
X214137Y45510D01*
X214052Y45483D01*
X213969Y45452D01*
X213887Y45417D01*
X213806Y45379D01*
X213727Y45338D01*
X213651Y45294D01*
X213575Y45246D01*
X213502Y45195D01*
X213432Y45142D01*
X213363Y45085D01*
X213297Y45025D01*
X213234Y44963D01*
X213173Y44898D01*
X213115Y44831D01*
X213060Y44761D01*
X213007Y44689D01*
X212958Y44615D01*
X212912Y44539D01*
X212870Y44461D01*
X212830Y44381D01*
X212794Y44300D01*
X212761Y44217D01*
X212732Y44133D01*
X215851Y42666D02*
X215907Y42722D01*
X215961Y42781D01*
X216012Y42842D01*
X216061Y42906D01*
X216106Y42971D01*
X216149Y43039D01*
X216188Y43108D01*
X216225Y43179D01*
X216258Y43252D01*
X216287Y43326D01*
X216314Y43401D01*
X216337Y43477D01*
X216356Y43555D01*
X216372Y43633D01*
X216385Y43711D01*
X216394Y43791D01*
X216399Y43870D01*
X216401Y43950D01*
X215851Y42666D02*
X212732Y38997D01*
X216401Y38997D01*
D11*
X318169Y34191D02*
X508799Y34191D01*
X508799Y164161D01*
X318169Y164161D01*
X473879Y49271D02*
X503879Y49271D01*
X503879Y59271D01*
X477679Y59271D01*
X477679Y85971D01*
X477779Y85771D02*
X503879Y85771D01*
X503879Y109501D01*
X477779Y109501D01*
X477779Y136581D01*
X503879Y136581D01*
X503879Y149181D01*
X461279Y149181D01*
X461279Y121661D01*
X444679Y107161D01*
X318169Y164161D02*
X318169Y34191D01*
X230000Y99250D02*
X230000Y112250D01*
X261500Y112250D02*
X261500Y99250D01*
D15*
X236750Y83750D02*
X236752Y83813D01*
X236758Y83875D01*
X236768Y83937D01*
X236781Y83999D01*
X236799Y84059D01*
X236820Y84118D01*
X236845Y84176D01*
X236874Y84232D01*
X236906Y84286D01*
X236941Y84338D01*
X236979Y84387D01*
X237021Y84435D01*
X237065Y84479D01*
X237113Y84521D01*
X237162Y84559D01*
X237214Y84594D01*
X237268Y84626D01*
X237324Y84655D01*
X237382Y84680D01*
X237441Y84701D01*
X237501Y84719D01*
X237563Y84732D01*
X237625Y84742D01*
X237687Y84748D01*
X237750Y84750D01*
X237813Y84748D01*
X237875Y84742D01*
X237937Y84732D01*
X237999Y84719D01*
X238059Y84701D01*
X238118Y84680D01*
X238176Y84655D01*
X238232Y84626D01*
X238286Y84594D01*
X238338Y84559D01*
X238387Y84521D01*
X238435Y84479D01*
X238479Y84435D01*
X238521Y84387D01*
X238559Y84338D01*
X238594Y84286D01*
X238626Y84232D01*
X238655Y84176D01*
X238680Y84118D01*
X238701Y84059D01*
X238719Y83999D01*
X238732Y83937D01*
X238742Y83875D01*
X238748Y83813D01*
X238750Y83750D01*
X238748Y83687D01*
X238742Y83625D01*
X238732Y83563D01*
X238719Y83501D01*
X238701Y83441D01*
X238680Y83382D01*
X238655Y83324D01*
X238626Y83268D01*
X238594Y83214D01*
X238559Y83162D01*
X238521Y83113D01*
X238479Y83065D01*
X238435Y83021D01*
X238387Y82979D01*
X238338Y82941D01*
X238286Y82906D01*
X238232Y82874D01*
X238176Y82845D01*
X238118Y82820D01*
X238059Y82799D01*
X237999Y82781D01*
X237937Y82768D01*
X237875Y82758D01*
X237813Y82752D01*
X237750Y82750D01*
X237687Y82752D01*
X237625Y82758D01*
X237563Y82768D01*
X237501Y82781D01*
X237441Y82799D01*
X237382Y82820D01*
X237324Y82845D01*
X237268Y82874D01*
X237214Y82906D01*
X237162Y82941D01*
X237113Y82979D01*
X237065Y83021D01*
X237021Y83065D01*
X236979Y83113D01*
X236941Y83162D01*
X236906Y83214D01*
X236874Y83268D01*
X236845Y83324D01*
X236820Y83382D01*
X236799Y83441D01*
X236781Y83501D01*
X236768Y83563D01*
X236758Y83625D01*
X236752Y83687D01*
X236750Y83750D01*
D10*
X242603Y102631D02*
X249969Y102631D01*
X242603Y102631D02*
X242603Y104677D01*
X242605Y104766D01*
X242611Y104855D01*
X242621Y104944D01*
X242634Y105032D01*
X242651Y105120D01*
X242673Y105207D01*
X242698Y105292D01*
X242726Y105377D01*
X242759Y105460D01*
X242795Y105542D01*
X242834Y105622D01*
X242877Y105700D01*
X242923Y105776D01*
X242973Y105851D01*
X243026Y105923D01*
X243082Y105992D01*
X243141Y106059D01*
X243202Y106124D01*
X243267Y106185D01*
X243334Y106244D01*
X243403Y106300D01*
X243475Y106353D01*
X243550Y106403D01*
X243626Y106449D01*
X243704Y106492D01*
X243784Y106531D01*
X243866Y106567D01*
X243949Y106600D01*
X244034Y106628D01*
X244119Y106653D01*
X244206Y106675D01*
X244294Y106692D01*
X244382Y106705D01*
X244471Y106715D01*
X244560Y106721D01*
X244649Y106723D01*
X247923Y106723D01*
X248012Y106721D01*
X248101Y106715D01*
X248190Y106705D01*
X248278Y106692D01*
X248366Y106675D01*
X248453Y106653D01*
X248538Y106628D01*
X248623Y106600D01*
X248706Y106567D01*
X248788Y106531D01*
X248868Y106492D01*
X248946Y106449D01*
X249022Y106403D01*
X249097Y106353D01*
X249169Y106300D01*
X249238Y106244D01*
X249305Y106185D01*
X249370Y106124D01*
X249431Y106059D01*
X249490Y105992D01*
X249546Y105923D01*
X249599Y105851D01*
X249649Y105776D01*
X249695Y105700D01*
X249738Y105622D01*
X249777Y105542D01*
X249813Y105460D01*
X249846Y105377D01*
X249874Y105292D01*
X249899Y105207D01*
X249921Y105120D01*
X249938Y105032D01*
X249951Y104944D01*
X249961Y104855D01*
X249967Y104766D01*
X249969Y104677D01*
X249969Y102631D01*
X248332Y110190D02*
X242603Y111827D01*
X248332Y110190D02*
X248332Y114282D01*
X246695Y113055D02*
X249969Y113055D01*
D14*
X291797Y115046D02*
X291797Y108442D01*
X291797Y115046D02*
X293632Y115046D01*
X293717Y115044D01*
X293801Y115038D01*
X293885Y115028D01*
X293969Y115015D01*
X294052Y114997D01*
X294134Y114976D01*
X294215Y114951D01*
X294295Y114922D01*
X294373Y114890D01*
X294449Y114854D01*
X294524Y114814D01*
X294597Y114771D01*
X294668Y114725D01*
X294737Y114676D01*
X294804Y114623D01*
X294868Y114567D01*
X294929Y114509D01*
X294987Y114448D01*
X295043Y114384D01*
X295096Y114317D01*
X295145Y114248D01*
X295191Y114177D01*
X295234Y114104D01*
X295274Y114029D01*
X295310Y113953D01*
X295342Y113875D01*
X295371Y113795D01*
X295396Y113714D01*
X295417Y113632D01*
X295435Y113549D01*
X295448Y113465D01*
X295458Y113381D01*
X295464Y113297D01*
X295466Y113212D01*
X295464Y113127D01*
X295458Y113043D01*
X295448Y112959D01*
X295435Y112875D01*
X295417Y112792D01*
X295396Y112710D01*
X295371Y112629D01*
X295342Y112549D01*
X295310Y112471D01*
X295274Y112395D01*
X295234Y112320D01*
X295191Y112247D01*
X295145Y112176D01*
X295096Y112107D01*
X295043Y112040D01*
X294987Y111976D01*
X294929Y111915D01*
X294868Y111857D01*
X294804Y111801D01*
X294737Y111748D01*
X294668Y111699D01*
X294597Y111653D01*
X294524Y111610D01*
X294449Y111570D01*
X294373Y111534D01*
X294295Y111502D01*
X294215Y111473D01*
X294134Y111448D01*
X294052Y111427D01*
X293969Y111409D01*
X293885Y111396D01*
X293801Y111386D01*
X293717Y111380D01*
X293632Y111378D01*
X293632Y111377D02*
X291797Y111377D01*
X293999Y111377D02*
X295466Y108442D01*
X299034Y108442D02*
X300868Y108442D01*
X300953Y108444D01*
X301037Y108450D01*
X301121Y108460D01*
X301205Y108473D01*
X301288Y108491D01*
X301370Y108512D01*
X301451Y108537D01*
X301531Y108566D01*
X301609Y108598D01*
X301685Y108634D01*
X301760Y108674D01*
X301833Y108717D01*
X301904Y108763D01*
X301973Y108812D01*
X302040Y108865D01*
X302104Y108921D01*
X302165Y108979D01*
X302223Y109040D01*
X302279Y109104D01*
X302332Y109171D01*
X302381Y109240D01*
X302427Y109311D01*
X302470Y109384D01*
X302510Y109459D01*
X302546Y109535D01*
X302578Y109613D01*
X302607Y109693D01*
X302632Y109774D01*
X302653Y109856D01*
X302671Y109939D01*
X302684Y110023D01*
X302694Y110107D01*
X302700Y110191D01*
X302702Y110276D01*
X302700Y110361D01*
X302694Y110445D01*
X302684Y110529D01*
X302671Y110613D01*
X302653Y110696D01*
X302632Y110778D01*
X302607Y110859D01*
X302578Y110939D01*
X302546Y111017D01*
X302510Y111093D01*
X302470Y111168D01*
X302427Y111241D01*
X302381Y111312D01*
X302332Y111381D01*
X302279Y111448D01*
X302223Y111512D01*
X302165Y111573D01*
X302104Y111631D01*
X302040Y111687D01*
X301973Y111740D01*
X301904Y111789D01*
X301833Y111835D01*
X301760Y111878D01*
X301685Y111918D01*
X301609Y111954D01*
X301531Y111986D01*
X301451Y112015D01*
X301370Y112040D01*
X301288Y112061D01*
X301205Y112079D01*
X301121Y112092D01*
X301037Y112102D01*
X300953Y112108D01*
X300868Y112110D01*
X301235Y115046D02*
X299034Y115046D01*
X301235Y115046D02*
X301311Y115044D01*
X301386Y115038D01*
X301461Y115029D01*
X301535Y115015D01*
X301609Y114998D01*
X301681Y114976D01*
X301753Y114952D01*
X301823Y114923D01*
X301891Y114891D01*
X301958Y114856D01*
X302023Y114817D01*
X302086Y114774D01*
X302146Y114729D01*
X302204Y114681D01*
X302260Y114629D01*
X302312Y114575D01*
X302362Y114518D01*
X302409Y114459D01*
X302453Y114398D01*
X302494Y114334D01*
X302531Y114268D01*
X302565Y114200D01*
X302595Y114131D01*
X302622Y114060D01*
X302645Y113988D01*
X302664Y113915D01*
X302679Y113841D01*
X302691Y113766D01*
X302699Y113691D01*
X302703Y113616D01*
X302703Y113540D01*
X302699Y113465D01*
X302691Y113390D01*
X302679Y113315D01*
X302664Y113241D01*
X302645Y113168D01*
X302622Y113096D01*
X302595Y113025D01*
X302565Y112956D01*
X302531Y112888D01*
X302494Y112822D01*
X302453Y112758D01*
X302409Y112697D01*
X302362Y112638D01*
X302312Y112581D01*
X302260Y112527D01*
X302204Y112475D01*
X302146Y112427D01*
X302086Y112382D01*
X302023Y112339D01*
X301958Y112300D01*
X301891Y112265D01*
X301823Y112233D01*
X301753Y112204D01*
X301681Y112180D01*
X301609Y112158D01*
X301535Y112141D01*
X301461Y112127D01*
X301386Y112118D01*
X301311Y112112D01*
X301235Y112110D01*
X301235Y112111D02*
X299768Y112111D01*
X291697Y104446D02*
X291697Y97842D01*
X291697Y104446D02*
X293532Y104446D01*
X293617Y104444D01*
X293701Y104438D01*
X293785Y104428D01*
X293869Y104415D01*
X293952Y104397D01*
X294034Y104376D01*
X294115Y104351D01*
X294195Y104322D01*
X294273Y104290D01*
X294349Y104254D01*
X294424Y104214D01*
X294497Y104171D01*
X294568Y104125D01*
X294637Y104076D01*
X294704Y104023D01*
X294768Y103967D01*
X294829Y103909D01*
X294887Y103848D01*
X294943Y103784D01*
X294996Y103717D01*
X295045Y103648D01*
X295091Y103577D01*
X295134Y103504D01*
X295174Y103429D01*
X295210Y103353D01*
X295242Y103275D01*
X295271Y103195D01*
X295296Y103114D01*
X295317Y103032D01*
X295335Y102949D01*
X295348Y102865D01*
X295358Y102781D01*
X295364Y102697D01*
X295366Y102612D01*
X295364Y102527D01*
X295358Y102443D01*
X295348Y102359D01*
X295335Y102275D01*
X295317Y102192D01*
X295296Y102110D01*
X295271Y102029D01*
X295242Y101949D01*
X295210Y101871D01*
X295174Y101795D01*
X295134Y101720D01*
X295091Y101647D01*
X295045Y101576D01*
X294996Y101507D01*
X294943Y101440D01*
X294887Y101376D01*
X294829Y101315D01*
X294768Y101257D01*
X294704Y101201D01*
X294637Y101148D01*
X294568Y101099D01*
X294497Y101053D01*
X294424Y101010D01*
X294349Y100970D01*
X294273Y100934D01*
X294195Y100902D01*
X294115Y100873D01*
X294034Y100848D01*
X293952Y100827D01*
X293869Y100809D01*
X293785Y100796D01*
X293701Y100786D01*
X293617Y100780D01*
X293532Y100778D01*
X293532Y100777D02*
X291697Y100777D01*
X293899Y100777D02*
X295366Y97842D01*
X298934Y99310D02*
X300401Y104446D01*
X298934Y99310D02*
X302603Y99310D01*
X301502Y100777D02*
X301502Y97842D01*
D10*
X287155Y87081D02*
X285518Y87081D01*
X285440Y87083D01*
X285362Y87088D01*
X285285Y87098D01*
X285208Y87111D01*
X285132Y87127D01*
X285057Y87147D01*
X284983Y87171D01*
X284910Y87198D01*
X284838Y87229D01*
X284768Y87263D01*
X284700Y87300D01*
X284633Y87341D01*
X284568Y87385D01*
X284506Y87431D01*
X284446Y87481D01*
X284388Y87533D01*
X284333Y87588D01*
X284281Y87646D01*
X284231Y87706D01*
X284185Y87768D01*
X284141Y87833D01*
X284100Y87900D01*
X284063Y87968D01*
X284029Y88038D01*
X283998Y88110D01*
X283971Y88183D01*
X283947Y88257D01*
X283927Y88332D01*
X283911Y88408D01*
X283898Y88485D01*
X283888Y88562D01*
X283883Y88640D01*
X283881Y88718D01*
X283881Y92810D01*
X283883Y92890D01*
X283889Y92970D01*
X283899Y93050D01*
X283912Y93129D01*
X283930Y93208D01*
X283951Y93285D01*
X283977Y93361D01*
X284006Y93436D01*
X284038Y93510D01*
X284074Y93582D01*
X284114Y93652D01*
X284157Y93719D01*
X284203Y93785D01*
X284253Y93848D01*
X284305Y93909D01*
X284360Y93968D01*
X284419Y94023D01*
X284479Y94075D01*
X284543Y94125D01*
X284609Y94171D01*
X284676Y94214D01*
X284746Y94254D01*
X284818Y94290D01*
X284892Y94322D01*
X284966Y94351D01*
X285043Y94377D01*
X285120Y94398D01*
X285199Y94416D01*
X285278Y94429D01*
X285358Y94439D01*
X285438Y94445D01*
X285518Y94447D01*
X287155Y94447D01*
X290000Y92810D02*
X292046Y94447D01*
X292046Y87081D01*
X290000Y87081D02*
X294092Y87081D01*
D14*
X299147Y49058D02*
X299147Y42454D01*
X299147Y49058D02*
X300982Y49058D01*
X301067Y49056D01*
X301151Y49050D01*
X301235Y49040D01*
X301319Y49027D01*
X301402Y49009D01*
X301484Y48988D01*
X301565Y48963D01*
X301645Y48934D01*
X301723Y48902D01*
X301799Y48866D01*
X301874Y48826D01*
X301947Y48783D01*
X302018Y48737D01*
X302087Y48688D01*
X302154Y48635D01*
X302218Y48579D01*
X302279Y48521D01*
X302337Y48460D01*
X302393Y48396D01*
X302446Y48329D01*
X302495Y48260D01*
X302541Y48189D01*
X302584Y48116D01*
X302624Y48041D01*
X302660Y47965D01*
X302692Y47887D01*
X302721Y47807D01*
X302746Y47726D01*
X302767Y47644D01*
X302785Y47561D01*
X302798Y47477D01*
X302808Y47393D01*
X302814Y47309D01*
X302816Y47224D01*
X302814Y47139D01*
X302808Y47055D01*
X302798Y46971D01*
X302785Y46887D01*
X302767Y46804D01*
X302746Y46722D01*
X302721Y46641D01*
X302692Y46561D01*
X302660Y46483D01*
X302624Y46407D01*
X302584Y46332D01*
X302541Y46259D01*
X302495Y46188D01*
X302446Y46119D01*
X302393Y46052D01*
X302337Y45988D01*
X302279Y45927D01*
X302218Y45869D01*
X302154Y45813D01*
X302087Y45760D01*
X302018Y45711D01*
X301947Y45665D01*
X301874Y45622D01*
X301799Y45582D01*
X301723Y45546D01*
X301645Y45514D01*
X301565Y45485D01*
X301484Y45460D01*
X301402Y45439D01*
X301319Y45421D01*
X301235Y45408D01*
X301151Y45398D01*
X301067Y45392D01*
X300982Y45390D01*
X300982Y45389D02*
X299147Y45389D01*
X301349Y45389D02*
X302816Y42454D01*
X306384Y46123D02*
X308585Y46123D01*
X308659Y46121D01*
X308734Y46115D01*
X308807Y46106D01*
X308881Y46093D01*
X308953Y46076D01*
X309024Y46056D01*
X309095Y46032D01*
X309164Y46004D01*
X309231Y45973D01*
X309297Y45939D01*
X309362Y45901D01*
X309424Y45860D01*
X309484Y45816D01*
X309541Y45769D01*
X309596Y45719D01*
X309649Y45666D01*
X309699Y45611D01*
X309746Y45554D01*
X309790Y45494D01*
X309831Y45432D01*
X309869Y45367D01*
X309903Y45301D01*
X309934Y45234D01*
X309962Y45165D01*
X309986Y45094D01*
X310006Y45023D01*
X310023Y44951D01*
X310036Y44877D01*
X310045Y44804D01*
X310051Y44729D01*
X310053Y44655D01*
X310053Y44288D01*
X310052Y44288D02*
X310050Y44203D01*
X310044Y44119D01*
X310034Y44035D01*
X310021Y43951D01*
X310003Y43868D01*
X309982Y43786D01*
X309957Y43705D01*
X309928Y43625D01*
X309896Y43547D01*
X309860Y43471D01*
X309820Y43396D01*
X309777Y43323D01*
X309731Y43252D01*
X309682Y43183D01*
X309629Y43116D01*
X309573Y43052D01*
X309515Y42991D01*
X309454Y42933D01*
X309390Y42877D01*
X309323Y42824D01*
X309254Y42775D01*
X309183Y42729D01*
X309110Y42686D01*
X309035Y42646D01*
X308959Y42610D01*
X308881Y42578D01*
X308801Y42549D01*
X308720Y42524D01*
X308638Y42503D01*
X308555Y42485D01*
X308471Y42472D01*
X308387Y42462D01*
X308303Y42456D01*
X308218Y42454D01*
X308133Y42456D01*
X308049Y42462D01*
X307965Y42472D01*
X307881Y42485D01*
X307798Y42503D01*
X307716Y42524D01*
X307635Y42549D01*
X307555Y42578D01*
X307477Y42610D01*
X307401Y42646D01*
X307326Y42686D01*
X307253Y42729D01*
X307182Y42775D01*
X307113Y42824D01*
X307046Y42877D01*
X306982Y42933D01*
X306921Y42991D01*
X306863Y43052D01*
X306807Y43116D01*
X306754Y43183D01*
X306705Y43252D01*
X306659Y43323D01*
X306616Y43396D01*
X306576Y43471D01*
X306540Y43547D01*
X306508Y43625D01*
X306479Y43705D01*
X306454Y43786D01*
X306433Y43868D01*
X306415Y43951D01*
X306402Y44035D01*
X306392Y44119D01*
X306386Y44203D01*
X306384Y44288D01*
X306384Y46123D01*
X306386Y46230D01*
X306392Y46337D01*
X306402Y46444D01*
X306415Y46550D01*
X306433Y46656D01*
X306454Y46761D01*
X306479Y46865D01*
X306508Y46969D01*
X306541Y47071D01*
X306578Y47171D01*
X306618Y47271D01*
X306662Y47369D01*
X306709Y47465D01*
X306760Y47559D01*
X306814Y47652D01*
X306871Y47742D01*
X306932Y47831D01*
X306996Y47917D01*
X307063Y48000D01*
X307133Y48082D01*
X307206Y48160D01*
X307282Y48236D01*
X307360Y48309D01*
X307442Y48379D01*
X307525Y48446D01*
X307611Y48510D01*
X307700Y48571D01*
X307790Y48628D01*
X307883Y48682D01*
X307977Y48733D01*
X308073Y48780D01*
X308171Y48824D01*
X308271Y48864D01*
X308371Y48901D01*
X308473Y48934D01*
X308577Y48963D01*
X308681Y48988D01*
X308786Y49009D01*
X308892Y49027D01*
X308998Y49040D01*
X309105Y49050D01*
X309212Y49056D01*
X309319Y49058D01*
X292167Y118762D02*
X292167Y125366D01*
X294002Y125366D01*
X294087Y125364D01*
X294171Y125358D01*
X294255Y125348D01*
X294339Y125335D01*
X294422Y125317D01*
X294504Y125296D01*
X294585Y125271D01*
X294665Y125242D01*
X294743Y125210D01*
X294819Y125174D01*
X294894Y125134D01*
X294967Y125091D01*
X295038Y125045D01*
X295107Y124996D01*
X295174Y124943D01*
X295238Y124887D01*
X295299Y124829D01*
X295357Y124768D01*
X295413Y124704D01*
X295466Y124637D01*
X295515Y124568D01*
X295561Y124497D01*
X295604Y124424D01*
X295644Y124349D01*
X295680Y124273D01*
X295712Y124195D01*
X295741Y124115D01*
X295766Y124034D01*
X295787Y123952D01*
X295805Y123869D01*
X295818Y123785D01*
X295828Y123701D01*
X295834Y123617D01*
X295836Y123532D01*
X295834Y123447D01*
X295828Y123363D01*
X295818Y123279D01*
X295805Y123195D01*
X295787Y123112D01*
X295766Y123030D01*
X295741Y122949D01*
X295712Y122869D01*
X295680Y122791D01*
X295644Y122715D01*
X295604Y122640D01*
X295561Y122567D01*
X295515Y122496D01*
X295466Y122427D01*
X295413Y122360D01*
X295357Y122296D01*
X295299Y122235D01*
X295238Y122177D01*
X295174Y122121D01*
X295107Y122068D01*
X295038Y122019D01*
X294967Y121973D01*
X294894Y121930D01*
X294819Y121890D01*
X294743Y121854D01*
X294665Y121822D01*
X294585Y121793D01*
X294504Y121768D01*
X294422Y121747D01*
X294339Y121729D01*
X294255Y121716D01*
X294171Y121706D01*
X294087Y121700D01*
X294002Y121698D01*
X294002Y121697D02*
X292167Y121697D01*
X294369Y121697D02*
X295836Y118762D01*
X299404Y124632D02*
X299404Y125366D01*
X303073Y125366D01*
X301238Y118762D01*
X296547Y152014D02*
X296547Y158618D01*
X298382Y158618D01*
X298467Y158616D01*
X298551Y158610D01*
X298635Y158600D01*
X298719Y158587D01*
X298802Y158569D01*
X298884Y158548D01*
X298965Y158523D01*
X299045Y158494D01*
X299123Y158462D01*
X299199Y158426D01*
X299274Y158386D01*
X299347Y158343D01*
X299418Y158297D01*
X299487Y158248D01*
X299554Y158195D01*
X299618Y158139D01*
X299679Y158081D01*
X299737Y158020D01*
X299793Y157956D01*
X299846Y157889D01*
X299895Y157820D01*
X299941Y157749D01*
X299984Y157676D01*
X300024Y157601D01*
X300060Y157525D01*
X300092Y157447D01*
X300121Y157367D01*
X300146Y157286D01*
X300167Y157204D01*
X300185Y157121D01*
X300198Y157037D01*
X300208Y156953D01*
X300214Y156869D01*
X300216Y156784D01*
X300214Y156699D01*
X300208Y156615D01*
X300198Y156531D01*
X300185Y156447D01*
X300167Y156364D01*
X300146Y156282D01*
X300121Y156201D01*
X300092Y156121D01*
X300060Y156043D01*
X300024Y155967D01*
X299984Y155892D01*
X299941Y155819D01*
X299895Y155748D01*
X299846Y155679D01*
X299793Y155612D01*
X299737Y155548D01*
X299679Y155487D01*
X299618Y155429D01*
X299554Y155373D01*
X299487Y155320D01*
X299418Y155271D01*
X299347Y155225D01*
X299274Y155182D01*
X299199Y155142D01*
X299123Y155106D01*
X299045Y155074D01*
X298965Y155045D01*
X298884Y155020D01*
X298802Y154999D01*
X298719Y154981D01*
X298635Y154968D01*
X298551Y154958D01*
X298467Y154952D01*
X298382Y154950D01*
X298382Y154949D02*
X296547Y154949D01*
X298749Y154949D02*
X300216Y152014D01*
X303784Y153848D02*
X303786Y153933D01*
X303792Y154017D01*
X303802Y154101D01*
X303815Y154185D01*
X303833Y154268D01*
X303854Y154350D01*
X303879Y154431D01*
X303908Y154511D01*
X303940Y154589D01*
X303976Y154665D01*
X304016Y154740D01*
X304059Y154813D01*
X304105Y154884D01*
X304154Y154953D01*
X304207Y155020D01*
X304263Y155084D01*
X304321Y155145D01*
X304382Y155203D01*
X304446Y155259D01*
X304513Y155312D01*
X304582Y155361D01*
X304653Y155407D01*
X304726Y155450D01*
X304801Y155490D01*
X304877Y155526D01*
X304955Y155558D01*
X305035Y155587D01*
X305116Y155612D01*
X305198Y155633D01*
X305281Y155651D01*
X305365Y155664D01*
X305449Y155674D01*
X305533Y155680D01*
X305618Y155682D01*
X305703Y155680D01*
X305787Y155674D01*
X305871Y155664D01*
X305955Y155651D01*
X306038Y155633D01*
X306120Y155612D01*
X306201Y155587D01*
X306281Y155558D01*
X306359Y155526D01*
X306435Y155490D01*
X306510Y155450D01*
X306583Y155407D01*
X306654Y155361D01*
X306723Y155312D01*
X306790Y155259D01*
X306854Y155203D01*
X306915Y155145D01*
X306973Y155084D01*
X307029Y155020D01*
X307082Y154953D01*
X307131Y154884D01*
X307177Y154813D01*
X307220Y154740D01*
X307260Y154665D01*
X307296Y154589D01*
X307328Y154511D01*
X307357Y154431D01*
X307382Y154350D01*
X307403Y154268D01*
X307421Y154185D01*
X307434Y154101D01*
X307444Y154017D01*
X307450Y153933D01*
X307452Y153848D01*
X307450Y153763D01*
X307444Y153679D01*
X307434Y153595D01*
X307421Y153511D01*
X307403Y153428D01*
X307382Y153346D01*
X307357Y153265D01*
X307328Y153185D01*
X307296Y153107D01*
X307260Y153031D01*
X307220Y152956D01*
X307177Y152883D01*
X307131Y152812D01*
X307082Y152743D01*
X307029Y152676D01*
X306973Y152612D01*
X306915Y152551D01*
X306854Y152493D01*
X306790Y152437D01*
X306723Y152384D01*
X306654Y152335D01*
X306583Y152289D01*
X306510Y152246D01*
X306435Y152206D01*
X306359Y152170D01*
X306281Y152138D01*
X306201Y152109D01*
X306120Y152084D01*
X306038Y152063D01*
X305955Y152045D01*
X305871Y152032D01*
X305787Y152022D01*
X305703Y152016D01*
X305618Y152014D01*
X305533Y152016D01*
X305449Y152022D01*
X305365Y152032D01*
X305281Y152045D01*
X305198Y152063D01*
X305116Y152084D01*
X305035Y152109D01*
X304955Y152138D01*
X304877Y152170D01*
X304801Y152206D01*
X304726Y152246D01*
X304653Y152289D01*
X304582Y152335D01*
X304513Y152384D01*
X304446Y152437D01*
X304382Y152493D01*
X304321Y152551D01*
X304263Y152612D01*
X304207Y152676D01*
X304154Y152743D01*
X304105Y152812D01*
X304059Y152883D01*
X304016Y152956D01*
X303976Y153031D01*
X303940Y153107D01*
X303908Y153185D01*
X303879Y153265D01*
X303854Y153346D01*
X303833Y153428D01*
X303815Y153511D01*
X303802Y153595D01*
X303792Y153679D01*
X303786Y153763D01*
X303784Y153848D01*
X304150Y157150D02*
X304152Y157226D01*
X304158Y157301D01*
X304167Y157376D01*
X304181Y157450D01*
X304198Y157524D01*
X304220Y157596D01*
X304244Y157668D01*
X304273Y157738D01*
X304305Y157806D01*
X304340Y157873D01*
X304379Y157938D01*
X304422Y158001D01*
X304467Y158061D01*
X304515Y158119D01*
X304567Y158175D01*
X304621Y158227D01*
X304678Y158277D01*
X304737Y158324D01*
X304798Y158368D01*
X304862Y158409D01*
X304928Y158446D01*
X304996Y158480D01*
X305065Y158510D01*
X305136Y158537D01*
X305208Y158560D01*
X305281Y158579D01*
X305355Y158594D01*
X305430Y158606D01*
X305505Y158614D01*
X305580Y158618D01*
X305656Y158618D01*
X305731Y158614D01*
X305806Y158606D01*
X305881Y158594D01*
X305955Y158579D01*
X306028Y158560D01*
X306100Y158537D01*
X306171Y158510D01*
X306240Y158480D01*
X306308Y158446D01*
X306374Y158409D01*
X306438Y158368D01*
X306499Y158324D01*
X306558Y158277D01*
X306615Y158227D01*
X306669Y158175D01*
X306721Y158119D01*
X306769Y158061D01*
X306814Y158001D01*
X306857Y157938D01*
X306896Y157873D01*
X306931Y157806D01*
X306963Y157738D01*
X306992Y157668D01*
X307016Y157596D01*
X307038Y157524D01*
X307055Y157450D01*
X307069Y157376D01*
X307078Y157301D01*
X307084Y157226D01*
X307086Y157150D01*
X307084Y157074D01*
X307078Y156999D01*
X307069Y156924D01*
X307055Y156850D01*
X307038Y156776D01*
X307016Y156704D01*
X306992Y156632D01*
X306963Y156562D01*
X306931Y156494D01*
X306896Y156427D01*
X306857Y156362D01*
X306814Y156299D01*
X306769Y156239D01*
X306721Y156181D01*
X306669Y156125D01*
X306615Y156073D01*
X306558Y156023D01*
X306499Y155976D01*
X306438Y155932D01*
X306374Y155891D01*
X306308Y155854D01*
X306240Y155820D01*
X306171Y155790D01*
X306100Y155763D01*
X306028Y155740D01*
X305955Y155721D01*
X305881Y155706D01*
X305806Y155694D01*
X305731Y155686D01*
X305656Y155682D01*
X305580Y155682D01*
X305505Y155686D01*
X305430Y155694D01*
X305355Y155706D01*
X305281Y155721D01*
X305208Y155740D01*
X305136Y155763D01*
X305065Y155790D01*
X304996Y155820D01*
X304928Y155854D01*
X304862Y155891D01*
X304798Y155932D01*
X304737Y155976D01*
X304678Y156023D01*
X304621Y156073D01*
X304567Y156125D01*
X304515Y156181D01*
X304467Y156239D01*
X304422Y156299D01*
X304379Y156362D01*
X304340Y156427D01*
X304305Y156494D01*
X304273Y156562D01*
X304244Y156632D01*
X304220Y156704D01*
X304198Y156776D01*
X304181Y156850D01*
X304167Y156924D01*
X304158Y156999D01*
X304152Y157074D01*
X304150Y157150D01*
D12*
X153800Y159000D02*
X153800Y39000D01*
X153800Y159000D02*
X166000Y159000D01*
X166000Y39000D02*
X153800Y39000D01*
X196000Y59000D02*
X196000Y139000D01*
M02*
