G04 EAGLE Gerber RS-274X export*
G75*
%MOMM*%
%FSLAX34Y34*%
%LPD*%
%INSoldermask Top*%
%IPPOS*%
%AMOC8*
5,1,8,0,0,1.08239X$1,22.5*%
G01*
%ADD10R,0.300000X0.600000*%
%ADD11R,0.600000X0.300000*%
%ADD12R,0.500000X0.500000*%
%ADD13R,1.301600X0.651600*%
%ADD14R,1.101600X1.201600*%
%ADD15R,1.001600X0.951600*%
%ADD16C,0.349309*%
%ADD17C,0.248975*%
%ADD18C,1.101600*%
%ADD19C,0.372125*%
%ADD20C,1.879600*%
%ADD21C,1.201600*%
%ADD22C,0.901600*%


D10*
X281796Y76204D03*
X276796Y76204D03*
X271796Y76204D03*
X266796Y76204D03*
X261796Y76204D03*
X256796Y76204D03*
X251796Y76204D03*
D11*
X243796Y68204D03*
X243796Y63204D03*
X243796Y58204D03*
X243796Y53204D03*
X243796Y48204D03*
X243796Y43204D03*
X243796Y38204D03*
D10*
X251796Y30204D03*
X256796Y30204D03*
X261796Y30204D03*
X266796Y30204D03*
X271796Y30204D03*
X276796Y30204D03*
X281796Y30204D03*
D11*
X289796Y38204D03*
X289796Y43204D03*
X289796Y48204D03*
X289796Y53204D03*
X289796Y58204D03*
X289796Y63204D03*
X289796Y68204D03*
D12*
X287821Y74229D03*
D10*
X279296Y63204D03*
X279296Y53204D03*
X279296Y43204D03*
X274296Y63204D03*
X274296Y53204D03*
X274296Y43204D03*
X269296Y63204D03*
X269296Y53204D03*
X269296Y43204D03*
X264296Y63204D03*
X264296Y53204D03*
X264296Y43204D03*
X259296Y63204D03*
X259296Y53204D03*
X259296Y43204D03*
X254296Y63204D03*
X254296Y53204D03*
X254296Y43204D03*
D13*
X254468Y151506D03*
X254468Y142006D03*
X254468Y132506D03*
X280470Y132506D03*
X280470Y151506D03*
D14*
X237288Y134188D03*
X237288Y151188D03*
X297806Y134444D03*
X297806Y151444D03*
D15*
X223469Y35026D03*
X223469Y46626D03*
D16*
X237638Y105738D02*
X237638Y115662D01*
X245062Y115662D01*
X245062Y105738D01*
X237638Y105738D01*
X237638Y109056D02*
X245062Y109056D01*
X245062Y112374D02*
X237638Y112374D01*
D17*
X221937Y116163D02*
X221937Y105237D01*
X221937Y116163D02*
X226363Y116163D01*
X226363Y105237D01*
X221937Y105237D01*
X221937Y107602D02*
X226363Y107602D01*
X226363Y109967D02*
X221937Y109967D01*
X221937Y112332D02*
X226363Y112332D01*
X226363Y114697D02*
X221937Y114697D01*
X221937Y95063D02*
X221937Y84137D01*
X221937Y95063D02*
X226363Y95063D01*
X226363Y84137D01*
X221937Y84137D01*
X221937Y86502D02*
X226363Y86502D01*
X226363Y88867D02*
X221937Y88867D01*
X221937Y91232D02*
X226363Y91232D01*
X226363Y93597D02*
X221937Y93597D01*
X241137Y95063D02*
X241137Y84137D01*
X241137Y95063D02*
X245563Y95063D01*
X245563Y84137D01*
X241137Y84137D01*
X241137Y86502D02*
X245563Y86502D01*
X245563Y88867D02*
X241137Y88867D01*
X241137Y91232D02*
X245563Y91232D01*
X245563Y93597D02*
X241137Y93597D01*
D18*
X324850Y162650D03*
X337350Y162650D03*
X350250Y162550D03*
X362950Y162650D03*
X375650Y162750D03*
X401300Y162650D03*
X388100Y162650D03*
D19*
X264828Y162152D02*
X262132Y162152D01*
X262132Y165448D01*
X264828Y165448D01*
X264828Y162152D01*
X270772Y162152D02*
X273468Y162152D01*
X270772Y162152D02*
X270772Y165448D01*
X273468Y165448D01*
X273468Y162152D01*
D15*
X375000Y59200D03*
X375000Y70800D03*
X389000Y59200D03*
X389000Y70800D03*
D20*
X193190Y40500D02*
X175410Y40500D01*
X175410Y157500D02*
X193190Y157500D01*
D21*
X185000Y76500D03*
X185000Y121500D03*
D22*
X188300Y157500D03*
X192300Y157500D03*
X180300Y157500D03*
X176300Y157500D03*
X188300Y40500D03*
X192300Y40500D03*
X180300Y40500D03*
X176300Y40500D03*
M02*
