G04 EAGLE Gerber RS-274X export*
G75*
%MOMM*%
%FSLAX34Y34*%
%LPD*%
%INSoldermask Top*%
%IPPOS*%
%AMOC8*
5,1,8,0,0,1.08239X$1,22.5*%
G01*
%ADD10R,0.300000X0.600000*%
%ADD11R,0.600000X0.300000*%
%ADD12R,0.500000X0.500000*%
%ADD13R,1.301600X0.651600*%
%ADD14R,1.101600X1.201600*%
%ADD15R,1.001600X0.951600*%
%ADD16C,0.349309*%
%ADD17C,0.248975*%
%ADD18R,0.951600X1.001600*%
%ADD19C,1.101600*%
%ADD20C,0.372125*%
%ADD21R,2.601600X0.901600*%
%ADD22C,1.879600*%
%ADD23C,1.201600*%
%ADD24C,0.901600*%


D10*
X281796Y76204D03*
X276796Y76204D03*
X271796Y76204D03*
X266796Y76204D03*
X261796Y76204D03*
X256796Y76204D03*
X251796Y76204D03*
D11*
X243796Y68204D03*
X243796Y63204D03*
X243796Y58204D03*
X243796Y53204D03*
X243796Y48204D03*
X243796Y43204D03*
X243796Y38204D03*
D10*
X251796Y30204D03*
X256796Y30204D03*
X261796Y30204D03*
X266796Y30204D03*
X271796Y30204D03*
X276796Y30204D03*
X281796Y30204D03*
D11*
X289796Y38204D03*
X289796Y43204D03*
X289796Y48204D03*
X289796Y53204D03*
X289796Y58204D03*
X289796Y63204D03*
X289796Y68204D03*
D12*
X287821Y74229D03*
D10*
X279296Y63204D03*
X279296Y53204D03*
X279296Y43204D03*
X274296Y63204D03*
X274296Y53204D03*
X274296Y43204D03*
X269296Y63204D03*
X269296Y53204D03*
X269296Y43204D03*
X264296Y63204D03*
X264296Y53204D03*
X264296Y43204D03*
X259296Y63204D03*
X259296Y53204D03*
X259296Y43204D03*
X254296Y63204D03*
X254296Y53204D03*
X254296Y43204D03*
D13*
X254468Y151506D03*
X254468Y142006D03*
X254468Y132506D03*
X280470Y132506D03*
X280470Y151506D03*
D14*
X237288Y134188D03*
X237288Y151188D03*
X297806Y134444D03*
X297806Y151444D03*
D15*
X223469Y35026D03*
X223469Y46626D03*
D16*
X241862Y90238D02*
X241862Y100162D01*
X241862Y90238D02*
X234438Y90238D01*
X234438Y100162D01*
X241862Y100162D01*
X241862Y93556D02*
X234438Y93556D01*
X234438Y96874D02*
X241862Y96874D01*
D17*
X257563Y100663D02*
X257563Y89737D01*
X253137Y89737D01*
X253137Y100663D01*
X257563Y100663D01*
X257563Y92102D02*
X253137Y92102D01*
X253137Y94467D02*
X257563Y94467D01*
X257563Y96832D02*
X253137Y96832D01*
X253137Y99197D02*
X257563Y99197D01*
X257563Y110837D02*
X257563Y121763D01*
X257563Y110837D02*
X253137Y110837D01*
X253137Y121763D01*
X257563Y121763D01*
X257563Y113202D02*
X253137Y113202D01*
X253137Y115567D02*
X257563Y115567D01*
X257563Y117932D02*
X253137Y117932D01*
X253137Y120297D02*
X257563Y120297D01*
X238363Y121763D02*
X238363Y110837D01*
X233937Y110837D01*
X233937Y121763D01*
X238363Y121763D01*
X238363Y113202D02*
X233937Y113202D01*
X233937Y115567D02*
X238363Y115567D01*
X238363Y117932D02*
X233937Y117932D01*
X233937Y120297D02*
X238363Y120297D01*
D18*
X283300Y118800D03*
X271700Y118800D03*
X283200Y104950D03*
X271600Y104950D03*
D19*
X324850Y162650D03*
X337350Y162650D03*
X350250Y162550D03*
X362950Y162650D03*
X375650Y162750D03*
X401300Y162650D03*
X388100Y162650D03*
D20*
X280668Y93448D02*
X277972Y93448D01*
X280668Y93448D02*
X280668Y90152D01*
X277972Y90152D01*
X277972Y93448D01*
X272028Y93448D02*
X269332Y93448D01*
X272028Y93448D02*
X272028Y90152D01*
X269332Y90152D01*
X269332Y93448D01*
D18*
X211200Y164500D03*
X222800Y164500D03*
D15*
X375000Y59200D03*
X375000Y70800D03*
X389000Y59200D03*
X389000Y70800D03*
D21*
X212500Y109270D03*
X212500Y88730D03*
X212500Y134508D03*
X212500Y64000D03*
D22*
X193190Y157500D02*
X175410Y157500D01*
X175410Y40500D02*
X193190Y40500D01*
D23*
X185000Y121500D03*
X185000Y76500D03*
D24*
X188300Y40500D03*
X192300Y40500D03*
X180300Y40500D03*
X176300Y40500D03*
X188300Y157500D03*
X192300Y157500D03*
X180300Y157500D03*
X176300Y157500D03*
M02*
