G04 EAGLE Gerber RS-274X export*
G75*
%MOMM*%
%FSLAX34Y34*%
%LPD*%
%INSolderpaste Top*%
%IPPOS*%
%AMOC8*
5,1,8,0,0,1.08239X$1,22.5*%
G01*
%ADD10R,0.260000X0.560000*%
%ADD11R,0.560000X0.260000*%
%ADD12R,0.400000X0.400000*%
%ADD13R,1.200000X0.550000*%
%ADD14R,1.000000X1.100000*%
%ADD15R,0.900000X0.850000*%
%ADD16C,0.247500*%
%ADD17C,0.147500*%
%ADD18R,0.850000X0.900000*%
%ADD19C,0.270000*%
%ADD20R,2.500000X0.800000*%


D10*
X281796Y76204D03*
X276796Y76204D03*
X271796Y76204D03*
X266796Y76204D03*
X261796Y76204D03*
X256796Y76204D03*
X251796Y76204D03*
D11*
X243796Y68204D03*
X243796Y63204D03*
X243796Y58204D03*
X243796Y53204D03*
X243796Y48204D03*
X243796Y43204D03*
X243796Y38204D03*
D10*
X251796Y30204D03*
X256796Y30204D03*
X261796Y30204D03*
X266796Y30204D03*
X271796Y30204D03*
X276796Y30204D03*
X281796Y30204D03*
D11*
X289796Y38204D03*
X289796Y43204D03*
X289796Y48204D03*
X289796Y53204D03*
X289796Y58204D03*
X289796Y63204D03*
X289796Y68204D03*
D10*
X279296Y63204D03*
X279296Y53204D03*
X279296Y43204D03*
X274296Y63204D03*
X274296Y53204D03*
X274296Y43204D03*
X269296Y63204D03*
X269296Y53204D03*
X269296Y43204D03*
X264296Y63204D03*
X264296Y53204D03*
X264296Y43204D03*
X259296Y63204D03*
X259296Y53204D03*
X259296Y43204D03*
X254296Y63204D03*
X254296Y53204D03*
X254296Y43204D03*
D12*
X287796Y74204D03*
D13*
X254468Y151506D03*
X254468Y142006D03*
X254468Y132506D03*
X280470Y132506D03*
X280470Y151506D03*
D14*
X237288Y134188D03*
X237288Y151188D03*
X297806Y134444D03*
X297806Y151444D03*
D15*
X223469Y35026D03*
X223469Y46626D03*
D16*
X241863Y90237D02*
X241863Y100163D01*
X241863Y90237D02*
X234437Y90237D01*
X234437Y100163D01*
X241863Y100163D01*
X241863Y92588D02*
X234437Y92588D01*
X234437Y94939D02*
X241863Y94939D01*
X241863Y97290D02*
X234437Y97290D01*
X234437Y99641D02*
X241863Y99641D01*
D17*
X257563Y100663D02*
X257563Y89737D01*
X253137Y89737D01*
X253137Y100663D01*
X257563Y100663D01*
X257563Y91138D02*
X253137Y91138D01*
X253137Y92539D02*
X257563Y92539D01*
X257563Y93940D02*
X253137Y93940D01*
X253137Y95341D02*
X257563Y95341D01*
X257563Y96742D02*
X253137Y96742D01*
X253137Y98143D02*
X257563Y98143D01*
X257563Y99544D02*
X253137Y99544D01*
X257563Y110837D02*
X257563Y121763D01*
X257563Y110837D02*
X253137Y110837D01*
X253137Y121763D01*
X257563Y121763D01*
X257563Y112238D02*
X253137Y112238D01*
X253137Y113639D02*
X257563Y113639D01*
X257563Y115040D02*
X253137Y115040D01*
X253137Y116441D02*
X257563Y116441D01*
X257563Y117842D02*
X253137Y117842D01*
X253137Y119243D02*
X257563Y119243D01*
X257563Y120644D02*
X253137Y120644D01*
X238363Y121763D02*
X238363Y110837D01*
X233937Y110837D01*
X233937Y121763D01*
X238363Y121763D01*
X238363Y112238D02*
X233937Y112238D01*
X233937Y113639D02*
X238363Y113639D01*
X238363Y115040D02*
X233937Y115040D01*
X233937Y116441D02*
X238363Y116441D01*
X238363Y117842D02*
X233937Y117842D01*
X233937Y119243D02*
X238363Y119243D01*
X238363Y120644D02*
X233937Y120644D01*
D18*
X283300Y118800D03*
X271700Y118800D03*
X283200Y104950D03*
X271600Y104950D03*
D19*
X277970Y93450D02*
X280670Y93450D01*
X280670Y90150D01*
X277970Y90150D01*
X277970Y93450D01*
X277970Y92715D02*
X280670Y92715D01*
X272030Y93450D02*
X269330Y93450D01*
X272030Y93450D02*
X272030Y90150D01*
X269330Y90150D01*
X269330Y93450D01*
X269330Y92715D02*
X272030Y92715D01*
D18*
X211200Y164500D03*
X222800Y164500D03*
D15*
X375000Y59200D03*
X375000Y70800D03*
X389000Y59200D03*
X389000Y70800D03*
D20*
X212500Y109270D03*
X212500Y88730D03*
X212500Y134508D03*
X212500Y64000D03*
M02*
