G04 EAGLE Gerber RS-274X export*
G75*
%MOMM*%
%FSLAX34Y34*%
%LPD*%
%INSolderpaste Top*%
%IPPOS*%
%AMOC8*
5,1,8,0,0,1.08239X$1,22.5*%
G01*
%ADD10R,0.260000X0.560000*%
%ADD11R,0.560000X0.260000*%
%ADD12R,0.400000X0.400000*%
%ADD13R,1.200000X0.550000*%
%ADD14R,1.000000X1.100000*%
%ADD15R,1.100000X1.000000*%
%ADD16R,0.900000X0.850000*%
%ADD17R,0.711200X1.422400*%
%ADD18R,1.422400X0.711200*%
%ADD19C,0.247500*%
%ADD20C,0.147500*%
%ADD21R,0.850000X0.900000*%
%ADD22C,0.270000*%
%ADD23R,2.500000X0.800000*%


D10*
X207796Y49404D03*
X202796Y49404D03*
X197796Y49404D03*
X192796Y49404D03*
X187796Y49404D03*
X182796Y49404D03*
X177796Y49404D03*
D11*
X169796Y41404D03*
X169796Y36404D03*
X169796Y31404D03*
X169796Y26404D03*
X169796Y21404D03*
X169796Y16404D03*
X169796Y11404D03*
D10*
X177796Y3404D03*
X182796Y3404D03*
X187796Y3404D03*
X192796Y3404D03*
X197796Y3404D03*
X202796Y3404D03*
X207796Y3404D03*
D11*
X215796Y11404D03*
X215796Y16404D03*
X215796Y21404D03*
X215796Y26404D03*
X215796Y31404D03*
X215796Y36404D03*
X215796Y41404D03*
D10*
X205296Y36404D03*
X205296Y26404D03*
X205296Y16404D03*
X200296Y36404D03*
X200296Y26404D03*
X200296Y16404D03*
X195296Y36404D03*
X195296Y26404D03*
X195296Y16404D03*
X190296Y36404D03*
X190296Y26404D03*
X190296Y16404D03*
X185296Y36404D03*
X185296Y26404D03*
X185296Y16404D03*
X180296Y36404D03*
X180296Y26404D03*
X180296Y16404D03*
D12*
X213796Y47404D03*
D13*
X180468Y125506D03*
X180468Y116006D03*
X180468Y106506D03*
X206470Y106506D03*
X206470Y125506D03*
D14*
X163288Y108188D03*
X163288Y125188D03*
D15*
X185306Y139944D03*
X202306Y139944D03*
D16*
X157469Y28026D03*
X157469Y39626D03*
D17*
X262959Y8191D03*
X275659Y8191D03*
X288359Y8191D03*
X301059Y8191D03*
X313759Y8191D03*
X326459Y8191D03*
X339159Y8191D03*
X351859Y8191D03*
D18*
X244169Y28041D03*
X244169Y40741D03*
X244169Y53441D03*
X244169Y66141D03*
X244169Y78841D03*
X244169Y91541D03*
X244169Y104241D03*
D17*
X262959Y138161D03*
X275659Y138161D03*
X288359Y138161D03*
X301059Y138161D03*
X313759Y138161D03*
X326459Y138161D03*
X339159Y138161D03*
X351859Y138161D03*
D18*
X244169Y116941D03*
D17*
X364559Y138161D03*
X364559Y8191D03*
D19*
X167863Y64237D02*
X167863Y74163D01*
X167863Y64237D02*
X160437Y64237D01*
X160437Y74163D01*
X167863Y74163D01*
X167863Y66588D02*
X160437Y66588D01*
X160437Y68939D02*
X167863Y68939D01*
X167863Y71290D02*
X160437Y71290D01*
X160437Y73641D02*
X167863Y73641D01*
D20*
X183563Y74663D02*
X183563Y63737D01*
X179137Y63737D01*
X179137Y74663D01*
X183563Y74663D01*
X183563Y65138D02*
X179137Y65138D01*
X179137Y66539D02*
X183563Y66539D01*
X183563Y67940D02*
X179137Y67940D01*
X179137Y69341D02*
X183563Y69341D01*
X183563Y70742D02*
X179137Y70742D01*
X179137Y72143D02*
X183563Y72143D01*
X183563Y73544D02*
X179137Y73544D01*
X183563Y84837D02*
X183563Y95763D01*
X183563Y84837D02*
X179137Y84837D01*
X179137Y95763D01*
X183563Y95763D01*
X183563Y86238D02*
X179137Y86238D01*
X179137Y87639D02*
X183563Y87639D01*
X183563Y89040D02*
X179137Y89040D01*
X179137Y90441D02*
X183563Y90441D01*
X183563Y91842D02*
X179137Y91842D01*
X179137Y93243D02*
X183563Y93243D01*
X183563Y94644D02*
X179137Y94644D01*
X164363Y95763D02*
X164363Y84837D01*
X159937Y84837D01*
X159937Y95763D01*
X164363Y95763D01*
X164363Y86238D02*
X159937Y86238D01*
X159937Y87639D02*
X164363Y87639D01*
X164363Y89040D02*
X159937Y89040D01*
X159937Y90441D02*
X164363Y90441D01*
X164363Y91842D02*
X159937Y91842D01*
X159937Y93243D02*
X164363Y93243D01*
X164363Y94644D02*
X159937Y94644D01*
D21*
X209300Y92800D03*
X197700Y92800D03*
X209200Y78950D03*
X197600Y78950D03*
D22*
X203970Y66650D02*
X206670Y66650D01*
X206670Y63350D01*
X203970Y63350D01*
X203970Y66650D01*
X203970Y65915D02*
X206670Y65915D01*
X198030Y66650D02*
X195330Y66650D01*
X198030Y66650D02*
X198030Y63350D01*
X195330Y63350D01*
X195330Y66650D01*
X195330Y65915D02*
X198030Y65915D01*
D21*
X227100Y9000D03*
X238700Y9000D03*
D16*
X222000Y119800D03*
X222000Y108200D03*
D21*
X233800Y141000D03*
X222200Y141000D03*
D23*
X136500Y83270D03*
X136500Y62730D03*
X136500Y108508D03*
X136500Y38000D03*
M02*
