G04 EAGLE Gerber RS-274X export*
G75*
%MOMM*%
%FSLAX34Y34*%
%LPD*%
%INBottom Copper*%
%IPPOS*%
%AMOC8*
5,1,8,0,0,1.08239X$1,22.5*%
G01*
%ADD10C,1.158000*%
%ADD11R,0.850000X0.900000*%
%ADD12C,1.000000*%
%ADD13C,0.656400*%
%ADD14C,0.200000*%
%ADD15C,0.406400*%

G36*
X215419Y1523D02*
X215419Y1523D01*
X215494Y1524D01*
X215558Y1543D01*
X215623Y1553D01*
X215692Y1584D01*
X215764Y1605D01*
X215820Y1642D01*
X215880Y1669D01*
X215937Y1718D01*
X216001Y1759D01*
X216044Y1809D01*
X216094Y1852D01*
X216136Y1915D01*
X216185Y1973D01*
X216213Y2033D01*
X216249Y2088D01*
X216271Y2160D01*
X216302Y2229D01*
X216312Y2295D01*
X216331Y2358D01*
X216332Y2433D01*
X216343Y2508D01*
X216334Y2574D01*
X216335Y2640D01*
X216315Y2713D01*
X216304Y2788D01*
X216279Y2843D01*
X216260Y2912D01*
X216208Y2996D01*
X216175Y3067D01*
X216167Y3078D01*
X215599Y4451D01*
X215559Y4651D01*
X221850Y4651D01*
X221914Y4660D01*
X221978Y4659D01*
X222052Y4680D01*
X222129Y4691D01*
X222188Y4717D01*
X222250Y4734D01*
X222316Y4775D01*
X222386Y4807D01*
X222435Y4849D01*
X222490Y4882D01*
X222541Y4940D01*
X222600Y4990D01*
X222636Y5044D01*
X222679Y5092D01*
X222712Y5161D01*
X222755Y5226D01*
X222774Y5288D01*
X222802Y5345D01*
X222812Y5415D01*
X222837Y5496D01*
X222838Y5581D01*
X222849Y5650D01*
X222849Y6651D01*
X223850Y6651D01*
X223914Y6660D01*
X223978Y6659D01*
X224053Y6680D01*
X224129Y6691D01*
X224188Y6717D01*
X224250Y6734D01*
X224316Y6775D01*
X224386Y6807D01*
X224435Y6849D01*
X224490Y6882D01*
X224542Y6940D01*
X224600Y6990D01*
X224636Y7044D01*
X224679Y7092D01*
X224712Y7161D01*
X224755Y7226D01*
X224774Y7288D01*
X224802Y7346D01*
X224812Y7415D01*
X224837Y7496D01*
X224838Y7581D01*
X224849Y7650D01*
X224849Y13941D01*
X225050Y13901D01*
X226422Y13333D01*
X227657Y12507D01*
X228707Y11457D01*
X229209Y10706D01*
X229223Y10691D01*
X229232Y10672D01*
X229316Y10586D01*
X229397Y10496D01*
X229415Y10485D01*
X229429Y10470D01*
X229534Y10411D01*
X229636Y10347D01*
X229656Y10342D01*
X229675Y10331D01*
X229792Y10304D01*
X229908Y10271D01*
X229929Y10271D01*
X229949Y10266D01*
X230070Y10273D01*
X230190Y10274D01*
X230210Y10280D01*
X230231Y10281D01*
X230345Y10320D01*
X230460Y10355D01*
X230477Y10366D01*
X230497Y10373D01*
X230571Y10427D01*
X230696Y10509D01*
X230720Y10536D01*
X230746Y10555D01*
X231233Y11042D01*
X231272Y11093D01*
X231318Y11138D01*
X231356Y11206D01*
X231402Y11268D01*
X231425Y11328D01*
X231457Y11384D01*
X231475Y11459D01*
X231502Y11532D01*
X231507Y11595D01*
X231522Y11658D01*
X231518Y11736D01*
X231524Y11813D01*
X231511Y11875D01*
X231507Y11940D01*
X231482Y12013D01*
X231466Y12089D01*
X231436Y12146D01*
X231415Y12206D01*
X231374Y12263D01*
X231334Y12338D01*
X231275Y12399D01*
X231233Y12455D01*
X225030Y18659D01*
X224953Y18716D01*
X224882Y18781D01*
X224841Y18801D01*
X224804Y18828D01*
X224714Y18862D01*
X224628Y18904D01*
X224586Y18910D01*
X224540Y18927D01*
X224413Y18937D01*
X224323Y18951D01*
X214445Y18951D01*
X214350Y18938D01*
X214253Y18933D01*
X214210Y18918D01*
X214165Y18911D01*
X214078Y18872D01*
X213987Y18840D01*
X213953Y18815D01*
X213908Y18795D01*
X213811Y18712D01*
X213738Y18659D01*
X212781Y17701D01*
X209219Y17701D01*
X208262Y18659D01*
X208185Y18716D01*
X208114Y18781D01*
X208073Y18801D01*
X208036Y18828D01*
X207946Y18862D01*
X207860Y18904D01*
X207818Y18910D01*
X207773Y18927D01*
X207645Y18937D01*
X207555Y18951D01*
X159737Y18951D01*
X136951Y41737D01*
X136951Y46952D01*
X136942Y47016D01*
X136943Y47080D01*
X136922Y47155D01*
X136911Y47231D01*
X136885Y47290D01*
X136868Y47352D01*
X136827Y47418D01*
X136795Y47488D01*
X136753Y47537D01*
X136720Y47592D01*
X136662Y47644D01*
X136612Y47702D01*
X136558Y47738D01*
X136510Y47781D01*
X136441Y47814D01*
X136376Y47857D01*
X136314Y47876D01*
X136257Y47904D01*
X136187Y47915D01*
X136106Y47939D01*
X136021Y47940D01*
X135952Y47951D01*
X106445Y47951D01*
X106350Y47938D01*
X106253Y47933D01*
X106210Y47918D01*
X106165Y47911D01*
X106078Y47872D01*
X105987Y47840D01*
X105953Y47815D01*
X105908Y47795D01*
X105811Y47712D01*
X105738Y47659D01*
X104781Y46701D01*
X101219Y46701D01*
X98701Y49219D01*
X98701Y52781D01*
X101219Y55299D01*
X104781Y55299D01*
X105738Y54341D01*
X105815Y54284D01*
X105886Y54219D01*
X105927Y54199D01*
X105964Y54172D01*
X106054Y54138D01*
X106140Y54096D01*
X106182Y54090D01*
X106227Y54073D01*
X106355Y54063D01*
X106445Y54049D01*
X135952Y54049D01*
X136016Y54058D01*
X136080Y54057D01*
X136155Y54078D01*
X136231Y54089D01*
X136290Y54115D01*
X136352Y54132D01*
X136418Y54173D01*
X136488Y54205D01*
X136537Y54247D01*
X136592Y54280D01*
X136644Y54338D01*
X136702Y54388D01*
X136738Y54442D01*
X136781Y54490D01*
X136814Y54559D01*
X136857Y54624D01*
X136876Y54686D01*
X136904Y54743D01*
X136915Y54813D01*
X136939Y54894D01*
X136940Y54979D01*
X136951Y55048D01*
X136951Y114555D01*
X136938Y114650D01*
X136933Y114747D01*
X136918Y114790D01*
X136911Y114835D01*
X136872Y114922D01*
X136840Y115013D01*
X136815Y115047D01*
X136795Y115092D01*
X136712Y115189D01*
X136659Y115262D01*
X135701Y116219D01*
X135701Y119781D01*
X138219Y122299D01*
X141781Y122299D01*
X144299Y119781D01*
X144299Y116219D01*
X143341Y115262D01*
X143284Y115185D01*
X143219Y115114D01*
X143199Y115073D01*
X143172Y115036D01*
X143138Y114946D01*
X143096Y114860D01*
X143090Y114818D01*
X143073Y114773D01*
X143063Y114645D01*
X143049Y114555D01*
X143049Y98313D01*
X143053Y98281D01*
X143051Y98249D01*
X143073Y98142D01*
X143089Y98034D01*
X143102Y98005D01*
X143108Y97973D01*
X143160Y97877D01*
X143205Y97777D01*
X143226Y97753D01*
X143241Y97724D01*
X143317Y97646D01*
X143388Y97563D01*
X143415Y97545D01*
X143438Y97522D01*
X143533Y97468D01*
X143624Y97408D01*
X143655Y97399D01*
X143683Y97383D01*
X143789Y97358D01*
X143894Y97326D01*
X143926Y97325D01*
X143957Y97318D01*
X144067Y97324D01*
X144176Y97322D01*
X144207Y97331D01*
X144239Y97332D01*
X144342Y97368D01*
X144448Y97397D01*
X144475Y97414D01*
X144506Y97425D01*
X144579Y97478D01*
X144688Y97546D01*
X144720Y97582D01*
X144755Y97607D01*
X147409Y100261D01*
X147466Y100338D01*
X147531Y100409D01*
X147551Y100450D01*
X147578Y100486D01*
X147612Y100576D01*
X147654Y100663D01*
X147660Y100705D01*
X147677Y100750D01*
X147687Y100878D01*
X147701Y100967D01*
X147701Y103781D01*
X150219Y106299D01*
X153781Y106299D01*
X156299Y103781D01*
X156299Y100219D01*
X153781Y97701D01*
X150967Y97701D01*
X150872Y97688D01*
X150776Y97683D01*
X150733Y97668D01*
X150688Y97661D01*
X150601Y97622D01*
X150510Y97590D01*
X150475Y97565D01*
X150431Y97545D01*
X150334Y97462D01*
X150261Y97409D01*
X147309Y94457D01*
X147252Y94381D01*
X147187Y94309D01*
X147167Y94268D01*
X147140Y94232D01*
X147106Y94142D01*
X147064Y94055D01*
X147058Y94013D01*
X147041Y93968D01*
X147031Y93840D01*
X147017Y93751D01*
X147017Y71298D01*
X147026Y71234D01*
X147025Y71170D01*
X147046Y71095D01*
X147057Y71019D01*
X147083Y70960D01*
X147100Y70898D01*
X147141Y70832D01*
X147173Y70762D01*
X147215Y70713D01*
X147248Y70658D01*
X147306Y70606D01*
X147356Y70548D01*
X147410Y70512D01*
X147458Y70469D01*
X147527Y70436D01*
X147592Y70393D01*
X147654Y70374D01*
X147711Y70346D01*
X147781Y70335D01*
X147862Y70311D01*
X147947Y70310D01*
X148016Y70299D01*
X150781Y70299D01*
X153299Y67781D01*
X153299Y64219D01*
X150781Y61701D01*
X147219Y61701D01*
X144755Y64166D01*
X144729Y64185D01*
X144708Y64210D01*
X144616Y64270D01*
X144529Y64335D01*
X144499Y64347D01*
X144472Y64364D01*
X144367Y64396D01*
X144265Y64435D01*
X144233Y64437D01*
X144202Y64447D01*
X144093Y64448D01*
X143984Y64457D01*
X143952Y64450D01*
X143920Y64451D01*
X143815Y64421D01*
X143708Y64399D01*
X143679Y64384D01*
X143648Y64375D01*
X143555Y64318D01*
X143459Y64267D01*
X143436Y64244D01*
X143408Y64227D01*
X143335Y64146D01*
X143257Y64070D01*
X143241Y64042D01*
X143219Y64018D01*
X143172Y63920D01*
X143118Y63825D01*
X143110Y63793D01*
X143096Y63764D01*
X143082Y63675D01*
X143053Y63550D01*
X143055Y63502D01*
X143049Y63460D01*
X143049Y44677D01*
X143062Y44582D01*
X143067Y44486D01*
X143082Y44442D01*
X143089Y44398D01*
X143128Y44310D01*
X143160Y44219D01*
X143185Y44185D01*
X143205Y44141D01*
X143288Y44043D01*
X143341Y43970D01*
X161970Y25341D01*
X162047Y25284D01*
X162118Y25219D01*
X162159Y25199D01*
X162196Y25172D01*
X162286Y25138D01*
X162372Y25096D01*
X162414Y25090D01*
X162460Y25073D01*
X162587Y25063D01*
X162677Y25049D01*
X207555Y25049D01*
X207650Y25062D01*
X207747Y25067D01*
X207790Y25082D01*
X207835Y25089D01*
X207922Y25128D01*
X208013Y25160D01*
X208047Y25185D01*
X208092Y25205D01*
X208189Y25288D01*
X208262Y25341D01*
X209219Y26299D01*
X212781Y26299D01*
X213738Y25341D01*
X213815Y25284D01*
X213886Y25219D01*
X213927Y25199D01*
X213964Y25172D01*
X214054Y25138D01*
X214140Y25096D01*
X214182Y25090D01*
X214227Y25073D01*
X214355Y25063D01*
X214445Y25049D01*
X227263Y25049D01*
X238399Y13913D01*
X238399Y12524D01*
X238412Y12429D01*
X238417Y12333D01*
X238432Y12290D01*
X238439Y12245D01*
X238478Y12157D01*
X238510Y12066D01*
X238535Y12032D01*
X238555Y11988D01*
X238624Y11908D01*
X238650Y11865D01*
X238670Y11846D01*
X238691Y11817D01*
X240451Y10058D01*
X240898Y8980D01*
X240914Y8952D01*
X240924Y8921D01*
X240986Y8831D01*
X241041Y8737D01*
X241065Y8715D01*
X241083Y8688D01*
X241167Y8619D01*
X241247Y8544D01*
X241276Y8529D01*
X241300Y8509D01*
X241401Y8466D01*
X241498Y8416D01*
X241530Y8410D01*
X241560Y8397D01*
X241668Y8384D01*
X241775Y8364D01*
X241808Y8367D01*
X241839Y8363D01*
X241947Y8380D01*
X242056Y8391D01*
X242086Y8403D01*
X242118Y8408D01*
X242217Y8455D01*
X242318Y8495D01*
X242343Y8515D01*
X242373Y8529D01*
X242454Y8602D01*
X242540Y8669D01*
X242559Y8695D01*
X242583Y8716D01*
X242630Y8794D01*
X242705Y8897D01*
X242722Y8943D01*
X242744Y8980D01*
X243149Y9958D01*
X244842Y11651D01*
X245616Y11972D01*
X245624Y11976D01*
X245634Y11979D01*
X245747Y12049D01*
X245859Y12115D01*
X245866Y12122D01*
X245874Y12127D01*
X245962Y12225D01*
X246052Y12321D01*
X246056Y12329D01*
X246063Y12336D01*
X246120Y12454D01*
X246180Y12572D01*
X246182Y12582D01*
X246186Y12590D01*
X246198Y12666D01*
X246232Y12849D01*
X246230Y12873D01*
X246233Y12895D01*
X246233Y77501D01*
X246225Y77561D01*
X246225Y77584D01*
X246219Y77604D01*
X246215Y77692D01*
X246200Y77735D01*
X246193Y77780D01*
X246154Y77867D01*
X246122Y77958D01*
X246097Y77993D01*
X246077Y78037D01*
X245994Y78134D01*
X245941Y78207D01*
X221457Y102691D01*
X221381Y102748D01*
X221309Y102813D01*
X221268Y102833D01*
X221232Y102860D01*
X221142Y102894D01*
X221055Y102936D01*
X221013Y102942D01*
X220968Y102959D01*
X220840Y102969D01*
X220751Y102983D01*
X196477Y102983D01*
X196382Y102970D01*
X196285Y102965D01*
X196242Y102950D01*
X196197Y102943D01*
X196110Y102904D01*
X196019Y102872D01*
X195985Y102847D01*
X195940Y102827D01*
X195843Y102744D01*
X195770Y102691D01*
X193781Y100701D01*
X190219Y100701D01*
X187701Y103219D01*
X187701Y106781D01*
X190219Y109299D01*
X193781Y109299D01*
X195770Y107309D01*
X195847Y107252D01*
X195918Y107187D01*
X195959Y107167D01*
X195996Y107140D01*
X196086Y107106D01*
X196172Y107064D01*
X196214Y107058D01*
X196259Y107041D01*
X196387Y107031D01*
X196477Y107017D01*
X198719Y107017D01*
X198751Y107021D01*
X198783Y107019D01*
X198890Y107041D01*
X198998Y107057D01*
X199027Y107070D01*
X199059Y107076D01*
X199155Y107128D01*
X199255Y107173D01*
X199279Y107194D01*
X199308Y107209D01*
X199386Y107285D01*
X199469Y107356D01*
X199487Y107383D01*
X199510Y107406D01*
X199564Y107501D01*
X199624Y107592D01*
X199633Y107623D01*
X199649Y107651D01*
X199674Y107758D01*
X199706Y107862D01*
X199707Y107894D01*
X199714Y107925D01*
X199708Y108035D01*
X199710Y108144D01*
X199701Y108175D01*
X199700Y108207D01*
X199664Y108310D01*
X199635Y108416D01*
X199618Y108443D01*
X199607Y108474D01*
X199554Y108547D01*
X199486Y108656D01*
X199450Y108688D01*
X199425Y108723D01*
X194739Y113409D01*
X194662Y113466D01*
X194591Y113531D01*
X194550Y113551D01*
X194514Y113578D01*
X194424Y113612D01*
X194337Y113654D01*
X194295Y113660D01*
X194250Y113677D01*
X194122Y113687D01*
X194033Y113701D01*
X190219Y113701D01*
X187701Y116219D01*
X187701Y119781D01*
X190219Y122299D01*
X193781Y122299D01*
X196299Y119781D01*
X196299Y117967D01*
X196312Y117872D01*
X196317Y117776D01*
X196332Y117733D01*
X196339Y117688D01*
X196378Y117601D01*
X196410Y117510D01*
X196435Y117475D01*
X196455Y117431D01*
X196538Y117334D01*
X196591Y117261D01*
X202543Y111309D01*
X202619Y111252D01*
X202691Y111187D01*
X202732Y111167D01*
X202768Y111140D01*
X202858Y111106D01*
X202945Y111064D01*
X202987Y111058D01*
X203032Y111041D01*
X203160Y111031D01*
X203249Y111017D01*
X223101Y111017D01*
X224575Y109543D01*
X245277Y88840D01*
X245303Y88821D01*
X245324Y88796D01*
X245416Y88736D01*
X245503Y88671D01*
X245533Y88659D01*
X245560Y88642D01*
X245665Y88610D01*
X245767Y88571D01*
X245799Y88569D01*
X245830Y88559D01*
X245939Y88558D01*
X246048Y88549D01*
X246080Y88556D01*
X246112Y88555D01*
X246217Y88585D01*
X246324Y88607D01*
X246353Y88622D01*
X246384Y88631D01*
X246477Y88688D01*
X246573Y88739D01*
X246596Y88762D01*
X246624Y88779D01*
X246697Y88860D01*
X246775Y88936D01*
X246791Y88964D01*
X246813Y88988D01*
X246860Y89086D01*
X246914Y89182D01*
X246922Y89213D01*
X246936Y89242D01*
X246950Y89331D01*
X246979Y89456D01*
X246977Y89504D01*
X246983Y89547D01*
X246983Y122523D01*
X246970Y122618D01*
X246965Y122715D01*
X246950Y122758D01*
X246943Y122803D01*
X246904Y122890D01*
X246872Y122981D01*
X246847Y123015D01*
X246827Y123060D01*
X246744Y123157D01*
X246691Y123230D01*
X244701Y125219D01*
X244701Y128781D01*
X247219Y131299D01*
X250781Y131299D01*
X253299Y128781D01*
X253299Y125219D01*
X251309Y123230D01*
X251252Y123153D01*
X251187Y123082D01*
X251167Y123041D01*
X251140Y123004D01*
X251106Y122914D01*
X251064Y122828D01*
X251058Y122786D01*
X251041Y122741D01*
X251031Y122613D01*
X251017Y122523D01*
X251017Y121281D01*
X251021Y121249D01*
X251019Y121217D01*
X251041Y121110D01*
X251057Y121002D01*
X251070Y120973D01*
X251076Y120941D01*
X251128Y120845D01*
X251173Y120745D01*
X251194Y120721D01*
X251209Y120692D01*
X251285Y120614D01*
X251356Y120531D01*
X251383Y120513D01*
X251406Y120490D01*
X251500Y120436D01*
X251592Y120376D01*
X251623Y120367D01*
X251651Y120351D01*
X251757Y120326D01*
X251862Y120294D01*
X251894Y120293D01*
X251925Y120286D01*
X252035Y120292D01*
X252144Y120290D01*
X252175Y120299D01*
X252207Y120300D01*
X252310Y120336D01*
X252416Y120365D01*
X252443Y120382D01*
X252474Y120393D01*
X252547Y120446D01*
X252656Y120514D01*
X252688Y120550D01*
X252723Y120575D01*
X253409Y121261D01*
X253466Y121338D01*
X253531Y121409D01*
X253551Y121450D01*
X253578Y121486D01*
X253612Y121576D01*
X253654Y121663D01*
X253660Y121705D01*
X253677Y121750D01*
X253687Y121878D01*
X253701Y121967D01*
X253701Y122781D01*
X256219Y125299D01*
X259781Y125299D01*
X262299Y122781D01*
X262299Y119219D01*
X259781Y116701D01*
X256219Y116701D01*
X256093Y116828D01*
X256042Y116866D01*
X255997Y116912D01*
X255929Y116951D01*
X255867Y116997D01*
X255807Y117020D01*
X255751Y117051D01*
X255676Y117069D01*
X255604Y117097D01*
X255540Y117101D01*
X255477Y117116D01*
X255399Y117112D01*
X255322Y117118D01*
X255260Y117105D01*
X255195Y117102D01*
X255122Y117077D01*
X255046Y117061D01*
X254989Y117031D01*
X254929Y117009D01*
X254872Y116968D01*
X254797Y116928D01*
X254737Y116869D01*
X254680Y116828D01*
X254325Y116473D01*
X254268Y116397D01*
X254203Y116325D01*
X254183Y116284D01*
X254156Y116248D01*
X254122Y116158D01*
X254080Y116071D01*
X254074Y116029D01*
X254057Y115984D01*
X254047Y115856D01*
X254033Y115767D01*
X254033Y89029D01*
X254046Y88934D01*
X254051Y88838D01*
X254066Y88795D01*
X254073Y88750D01*
X254112Y88663D01*
X254144Y88572D01*
X254169Y88537D01*
X254189Y88493D01*
X254272Y88396D01*
X254325Y88323D01*
X259315Y83333D01*
X259315Y37951D01*
X259328Y37856D01*
X259333Y37760D01*
X259348Y37717D01*
X259355Y37672D01*
X259394Y37585D01*
X259426Y37494D01*
X259451Y37459D01*
X259471Y37415D01*
X259554Y37318D01*
X259607Y37245D01*
X261043Y35809D01*
X261119Y35752D01*
X261191Y35687D01*
X261232Y35667D01*
X261268Y35640D01*
X261358Y35606D01*
X261445Y35564D01*
X261487Y35558D01*
X261532Y35541D01*
X261660Y35531D01*
X261749Y35517D01*
X291335Y35517D01*
X299117Y27735D01*
X299117Y13666D01*
X299126Y13602D01*
X299125Y13538D01*
X299146Y13463D01*
X299157Y13387D01*
X299183Y13328D01*
X299200Y13266D01*
X299241Y13200D01*
X299273Y13130D01*
X299315Y13081D01*
X299348Y13026D01*
X299406Y12974D01*
X299456Y12916D01*
X299510Y12880D01*
X299558Y12837D01*
X299627Y12804D01*
X299692Y12761D01*
X299754Y12742D01*
X299811Y12714D01*
X299881Y12703D01*
X299962Y12679D01*
X300047Y12678D01*
X300116Y12667D01*
X300297Y12667D01*
X302508Y11751D01*
X303031Y11227D01*
X303057Y11208D01*
X303078Y11184D01*
X303170Y11124D01*
X303257Y11058D01*
X303287Y11047D01*
X303314Y11029D01*
X303419Y10997D01*
X303521Y10959D01*
X303553Y10956D01*
X303584Y10947D01*
X303693Y10945D01*
X303802Y10937D01*
X303834Y10943D01*
X303866Y10943D01*
X303971Y10972D01*
X304078Y10994D01*
X304107Y11010D01*
X304138Y11018D01*
X304231Y11076D01*
X304327Y11127D01*
X304350Y11149D01*
X304378Y11166D01*
X304451Y11247D01*
X304529Y11324D01*
X304545Y11352D01*
X304567Y11376D01*
X304614Y11474D01*
X304668Y11569D01*
X304676Y11601D01*
X304690Y11629D01*
X304704Y11719D01*
X304733Y11844D01*
X304731Y11892D01*
X304737Y11934D01*
X304737Y146238D01*
X304728Y146302D01*
X304729Y146366D01*
X304708Y146441D01*
X304697Y146517D01*
X304671Y146576D01*
X304654Y146638D01*
X304613Y146704D01*
X304581Y146774D01*
X304539Y146823D01*
X304506Y146878D01*
X304448Y146930D01*
X304398Y146988D01*
X304344Y147024D01*
X304296Y147067D01*
X304227Y147100D01*
X304162Y147143D01*
X304100Y147162D01*
X304043Y147190D01*
X303973Y147201D01*
X303892Y147225D01*
X303807Y147226D01*
X303738Y147237D01*
X105308Y147237D01*
X105213Y147224D01*
X105117Y147219D01*
X105074Y147204D01*
X105029Y147197D01*
X104942Y147158D01*
X104851Y147126D01*
X104816Y147101D01*
X104772Y147081D01*
X104675Y146998D01*
X104602Y146945D01*
X83644Y125987D01*
X75027Y125987D01*
X74899Y125969D01*
X74769Y125954D01*
X74759Y125949D01*
X74748Y125947D01*
X74630Y125894D01*
X74510Y125843D01*
X74501Y125836D01*
X74491Y125831D01*
X74392Y125747D01*
X74292Y125665D01*
X74285Y125655D01*
X74276Y125648D01*
X74205Y125539D01*
X74132Y125432D01*
X74128Y125422D01*
X74122Y125412D01*
X74084Y125288D01*
X74043Y125164D01*
X74043Y125153D01*
X74040Y125142D01*
X74038Y125013D01*
X74033Y124883D01*
X74036Y124871D01*
X74036Y124860D01*
X74070Y124735D01*
X74102Y124609D01*
X74108Y124599D01*
X74111Y124588D01*
X74179Y124478D01*
X74245Y124366D01*
X74253Y124359D01*
X74259Y124348D01*
X74469Y124159D01*
X74470Y124158D01*
X74472Y124157D01*
X74751Y123971D01*
X75911Y122811D01*
X76823Y121446D01*
X77451Y119930D01*
X77611Y119124D01*
X64275Y119124D01*
X64212Y119115D01*
X64147Y119116D01*
X64073Y119095D01*
X63996Y119084D01*
X63938Y119058D01*
X63876Y119041D01*
X63810Y119000D01*
X63739Y118968D01*
X63690Y118926D01*
X63647Y118900D01*
X63631Y118911D01*
X63583Y118954D01*
X63514Y118987D01*
X63449Y119030D01*
X63387Y119049D01*
X63329Y119077D01*
X63260Y119088D01*
X63179Y119112D01*
X63094Y119113D01*
X63025Y119124D01*
X49689Y119124D01*
X49849Y119930D01*
X50477Y121446D01*
X51389Y122811D01*
X52549Y123971D01*
X52828Y124157D01*
X52925Y124244D01*
X53024Y124328D01*
X53030Y124338D01*
X53038Y124345D01*
X53106Y124455D01*
X53178Y124564D01*
X53181Y124575D01*
X53187Y124585D01*
X53222Y124710D01*
X53260Y124834D01*
X53261Y124845D01*
X53264Y124856D01*
X53262Y124986D01*
X53264Y125116D01*
X53261Y125127D01*
X53261Y125138D01*
X53224Y125262D01*
X53189Y125388D01*
X53183Y125397D01*
X53180Y125408D01*
X53109Y125517D01*
X53041Y125628D01*
X53032Y125635D01*
X53026Y125645D01*
X52928Y125730D01*
X52831Y125817D01*
X52821Y125822D01*
X52813Y125829D01*
X52694Y125883D01*
X52578Y125940D01*
X52567Y125941D01*
X52556Y125946D01*
X52277Y125987D01*
X52275Y125987D01*
X52273Y125987D01*
X33227Y125987D01*
X33099Y125969D01*
X32969Y125954D01*
X32959Y125949D01*
X32948Y125947D01*
X32830Y125894D01*
X32710Y125843D01*
X32701Y125836D01*
X32691Y125831D01*
X32592Y125747D01*
X32492Y125665D01*
X32485Y125655D01*
X32476Y125648D01*
X32405Y125539D01*
X32332Y125432D01*
X32328Y125422D01*
X32322Y125412D01*
X32284Y125288D01*
X32243Y125164D01*
X32243Y125153D01*
X32240Y125142D01*
X32238Y125013D01*
X32233Y124883D01*
X32236Y124871D01*
X32236Y124860D01*
X32270Y124735D01*
X32302Y124609D01*
X32308Y124599D01*
X32311Y124588D01*
X32379Y124478D01*
X32445Y124366D01*
X32453Y124359D01*
X32459Y124348D01*
X32669Y124159D01*
X32670Y124158D01*
X32672Y124157D01*
X32951Y123971D01*
X34111Y122811D01*
X35023Y121446D01*
X35651Y119930D01*
X35811Y119124D01*
X22475Y119124D01*
X22412Y119115D01*
X22347Y119116D01*
X22273Y119095D01*
X22196Y119084D01*
X22138Y119058D01*
X22076Y119041D01*
X22010Y119000D01*
X21939Y118968D01*
X21890Y118926D01*
X21847Y118900D01*
X21831Y118911D01*
X21783Y118954D01*
X21714Y118987D01*
X21649Y119030D01*
X21587Y119049D01*
X21529Y119077D01*
X21460Y119088D01*
X21379Y119112D01*
X21294Y119113D01*
X21225Y119124D01*
X7889Y119124D01*
X8049Y119930D01*
X8677Y121446D01*
X9589Y122811D01*
X10749Y123971D01*
X11028Y124157D01*
X11125Y124244D01*
X11224Y124328D01*
X11230Y124338D01*
X11238Y124345D01*
X11306Y124455D01*
X11378Y124564D01*
X11381Y124575D01*
X11387Y124585D01*
X11422Y124710D01*
X11460Y124834D01*
X11461Y124845D01*
X11464Y124856D01*
X11462Y124986D01*
X11464Y125116D01*
X11461Y125127D01*
X11461Y125138D01*
X11424Y125262D01*
X11389Y125388D01*
X11383Y125397D01*
X11380Y125408D01*
X11309Y125517D01*
X11241Y125628D01*
X11232Y125635D01*
X11226Y125645D01*
X11128Y125730D01*
X11031Y125817D01*
X11021Y125822D01*
X11013Y125829D01*
X10894Y125883D01*
X10778Y125940D01*
X10767Y125941D01*
X10756Y125946D01*
X10477Y125987D01*
X10475Y125987D01*
X10473Y125987D01*
X6558Y125987D01*
X6463Y125974D01*
X6367Y125969D01*
X6324Y125954D01*
X6279Y125947D01*
X6191Y125908D01*
X6101Y125876D01*
X6066Y125851D01*
X6022Y125831D01*
X5925Y125748D01*
X5852Y125695D01*
X3055Y122898D01*
X2998Y122821D01*
X2933Y122750D01*
X2913Y122709D01*
X2886Y122673D01*
X2852Y122583D01*
X2810Y122496D01*
X2804Y122454D01*
X2787Y122409D01*
X2777Y122281D01*
X2763Y122192D01*
X2763Y26558D01*
X2776Y26463D01*
X2781Y26367D01*
X2796Y26324D01*
X2803Y26279D01*
X2842Y26192D01*
X2874Y26101D01*
X2899Y26066D01*
X2919Y26022D01*
X3002Y25925D01*
X3055Y25852D01*
X5852Y23055D01*
X5928Y22998D01*
X6000Y22933D01*
X6041Y22913D01*
X6077Y22886D01*
X6167Y22852D01*
X6254Y22810D01*
X6296Y22804D01*
X6341Y22787D01*
X6469Y22777D01*
X6558Y22763D01*
X10249Y22763D01*
X10377Y22781D01*
X10506Y22796D01*
X10517Y22801D01*
X10528Y22803D01*
X10646Y22856D01*
X10766Y22907D01*
X10774Y22914D01*
X10785Y22919D01*
X10883Y23003D01*
X10984Y23085D01*
X10990Y23095D01*
X10999Y23102D01*
X11070Y23211D01*
X11144Y23318D01*
X11147Y23329D01*
X11154Y23338D01*
X11191Y23462D01*
X11232Y23586D01*
X11233Y23597D01*
X11236Y23608D01*
X11238Y23738D01*
X11242Y23867D01*
X11239Y23878D01*
X11240Y23890D01*
X11205Y24015D01*
X11173Y24141D01*
X11167Y24151D01*
X11164Y24162D01*
X11096Y24272D01*
X11031Y24384D01*
X11023Y24391D01*
X11016Y24402D01*
X10807Y24591D01*
X10805Y24592D01*
X10804Y24593D01*
X10749Y24629D01*
X9589Y25789D01*
X8677Y27154D01*
X8049Y28670D01*
X7889Y29476D01*
X21225Y29476D01*
X21288Y29485D01*
X21353Y29484D01*
X21427Y29505D01*
X21504Y29516D01*
X21562Y29542D01*
X21624Y29559D01*
X21690Y29600D01*
X21761Y29632D01*
X21810Y29673D01*
X21853Y29700D01*
X21869Y29689D01*
X21917Y29646D01*
X21986Y29613D01*
X22051Y29570D01*
X22113Y29551D01*
X22171Y29523D01*
X22240Y29512D01*
X22321Y29488D01*
X22406Y29487D01*
X22475Y29476D01*
X35811Y29476D01*
X35651Y28670D01*
X35023Y27154D01*
X34111Y25789D01*
X32951Y24629D01*
X32896Y24593D01*
X32799Y24506D01*
X32701Y24422D01*
X32695Y24412D01*
X32686Y24405D01*
X32618Y24295D01*
X32546Y24186D01*
X32543Y24175D01*
X32537Y24165D01*
X32502Y24040D01*
X32464Y23916D01*
X32464Y23905D01*
X32461Y23894D01*
X32462Y23762D01*
X32460Y23634D01*
X32463Y23623D01*
X32463Y23612D01*
X32501Y23487D01*
X32536Y23362D01*
X32542Y23353D01*
X32545Y23342D01*
X32615Y23233D01*
X32684Y23122D01*
X32692Y23115D01*
X32698Y23105D01*
X32797Y23020D01*
X32893Y22933D01*
X32903Y22928D01*
X32912Y22921D01*
X33030Y22867D01*
X33147Y22810D01*
X33157Y22809D01*
X33168Y22804D01*
X33447Y22763D01*
X33450Y22763D01*
X33451Y22763D01*
X52049Y22763D01*
X52177Y22781D01*
X52306Y22797D01*
X52317Y22801D01*
X52328Y22803D01*
X52446Y22856D01*
X52566Y22907D01*
X52575Y22914D01*
X52585Y22919D01*
X52683Y23003D01*
X52784Y23085D01*
X52790Y23095D01*
X52799Y23102D01*
X52870Y23210D01*
X52944Y23318D01*
X52947Y23329D01*
X52954Y23338D01*
X52992Y23462D01*
X53032Y23586D01*
X53033Y23597D01*
X53036Y23608D01*
X53038Y23738D01*
X53042Y23868D01*
X53040Y23879D01*
X53040Y23890D01*
X53005Y24015D01*
X52973Y24141D01*
X52968Y24151D01*
X52964Y24162D01*
X52896Y24272D01*
X52831Y24384D01*
X52823Y24392D01*
X52816Y24402D01*
X52607Y24591D01*
X52605Y24592D01*
X52604Y24593D01*
X52549Y24629D01*
X51389Y25789D01*
X50477Y27154D01*
X49849Y28670D01*
X49689Y29476D01*
X63025Y29476D01*
X63088Y29485D01*
X63153Y29484D01*
X63227Y29505D01*
X63304Y29516D01*
X63362Y29542D01*
X63424Y29559D01*
X63490Y29600D01*
X63561Y29632D01*
X63610Y29673D01*
X63653Y29700D01*
X63669Y29689D01*
X63717Y29646D01*
X63786Y29613D01*
X63851Y29570D01*
X63913Y29551D01*
X63971Y29523D01*
X64040Y29512D01*
X64121Y29488D01*
X64206Y29487D01*
X64275Y29476D01*
X77611Y29476D01*
X77451Y28670D01*
X76823Y27154D01*
X75911Y25789D01*
X74751Y24629D01*
X74696Y24593D01*
X74599Y24506D01*
X74501Y24422D01*
X74495Y24412D01*
X74486Y24405D01*
X74418Y24295D01*
X74346Y24186D01*
X74343Y24175D01*
X74337Y24165D01*
X74302Y24040D01*
X74264Y23916D01*
X74264Y23905D01*
X74261Y23894D01*
X74262Y23764D01*
X74260Y23634D01*
X74263Y23623D01*
X74263Y23612D01*
X74301Y23488D01*
X74336Y23362D01*
X74341Y23353D01*
X74345Y23342D01*
X74415Y23233D01*
X74484Y23122D01*
X74492Y23115D01*
X74498Y23105D01*
X74596Y23021D01*
X74693Y22933D01*
X74703Y22928D01*
X74712Y22921D01*
X74830Y22867D01*
X74947Y22810D01*
X74957Y22809D01*
X74968Y22804D01*
X75247Y22763D01*
X75249Y22763D01*
X75251Y22763D01*
X83644Y22763D01*
X104602Y1805D01*
X104678Y1748D01*
X104750Y1683D01*
X104791Y1663D01*
X104827Y1636D01*
X104917Y1602D01*
X105004Y1560D01*
X105046Y1554D01*
X105091Y1537D01*
X105219Y1527D01*
X105308Y1513D01*
X215344Y1513D01*
X215419Y1523D01*
G37*
G36*
X267406Y8722D02*
X267406Y8722D01*
X267515Y8732D01*
X267545Y8744D01*
X267577Y8749D01*
X267675Y8796D01*
X267777Y8837D01*
X267802Y8857D01*
X267831Y8870D01*
X267913Y8943D01*
X267999Y9010D01*
X268018Y9036D01*
X268042Y9058D01*
X268089Y9135D01*
X268164Y9239D01*
X268180Y9285D01*
X268202Y9321D01*
X268549Y10158D01*
X270242Y11851D01*
X271016Y12172D01*
X271024Y12176D01*
X271034Y12179D01*
X271147Y12249D01*
X271259Y12315D01*
X271266Y12322D01*
X271274Y12327D01*
X271362Y12425D01*
X271452Y12521D01*
X271456Y12529D01*
X271463Y12536D01*
X271520Y12654D01*
X271580Y12772D01*
X271582Y12782D01*
X271586Y12790D01*
X271598Y12866D01*
X271632Y13049D01*
X271630Y13073D01*
X271633Y13095D01*
X271633Y20485D01*
X275165Y24017D01*
X282523Y24017D01*
X282618Y24030D01*
X282715Y24035D01*
X282758Y24050D01*
X282803Y24057D01*
X282890Y24096D01*
X282981Y24128D01*
X283015Y24153D01*
X283060Y24173D01*
X283157Y24256D01*
X283230Y24309D01*
X285219Y26299D01*
X288171Y26299D01*
X288203Y26303D01*
X288236Y26301D01*
X288343Y26323D01*
X288451Y26339D01*
X288480Y26352D01*
X288512Y26358D01*
X288608Y26410D01*
X288708Y26455D01*
X288732Y26476D01*
X288761Y26491D01*
X288839Y26567D01*
X288922Y26638D01*
X288940Y26665D01*
X288963Y26688D01*
X289017Y26783D01*
X289076Y26874D01*
X289086Y26905D01*
X289102Y26933D01*
X289127Y27039D01*
X289159Y27144D01*
X289159Y27176D01*
X289167Y27208D01*
X289161Y27317D01*
X289163Y27426D01*
X289154Y27457D01*
X289152Y27489D01*
X289116Y27592D01*
X289087Y27698D01*
X289070Y27725D01*
X289060Y27756D01*
X289006Y27829D01*
X288939Y27938D01*
X288903Y27970D01*
X288878Y28005D01*
X288708Y28175D01*
X288631Y28232D01*
X288560Y28297D01*
X288519Y28317D01*
X288482Y28344D01*
X288392Y28378D01*
X288306Y28420D01*
X288264Y28426D01*
X288218Y28443D01*
X288091Y28453D01*
X288001Y28467D01*
X258415Y28467D01*
X256941Y29941D01*
X254989Y31894D01*
X254963Y31913D01*
X254942Y31938D01*
X254850Y31998D01*
X254763Y32063D01*
X254733Y32075D01*
X254706Y32092D01*
X254601Y32124D01*
X254499Y32163D01*
X254467Y32165D01*
X254436Y32175D01*
X254327Y32176D01*
X254218Y32185D01*
X254186Y32178D01*
X254154Y32179D01*
X254049Y32149D01*
X253942Y32127D01*
X253913Y32112D01*
X253882Y32103D01*
X253789Y32046D01*
X253693Y31995D01*
X253670Y31972D01*
X253642Y31955D01*
X253569Y31874D01*
X253491Y31798D01*
X253475Y31770D01*
X253453Y31746D01*
X253406Y31648D01*
X253352Y31552D01*
X253344Y31521D01*
X253330Y31492D01*
X253316Y31403D01*
X253287Y31278D01*
X253289Y31230D01*
X253283Y31187D01*
X253283Y17583D01*
X253296Y17488D01*
X253301Y17392D01*
X253316Y17349D01*
X253323Y17304D01*
X253362Y17216D01*
X253394Y17126D01*
X253419Y17091D01*
X253439Y17047D01*
X253522Y16950D01*
X253575Y16877D01*
X257890Y12562D01*
X257897Y12557D01*
X257903Y12549D01*
X258010Y12472D01*
X258115Y12393D01*
X258124Y12390D01*
X258132Y12384D01*
X258255Y12340D01*
X258379Y12294D01*
X258389Y12293D01*
X258397Y12290D01*
X258529Y12282D01*
X258660Y12272D01*
X258669Y12274D01*
X258679Y12273D01*
X258754Y12291D01*
X258936Y12329D01*
X258958Y12341D01*
X258979Y12346D01*
X259753Y12667D01*
X262147Y12667D01*
X264358Y11751D01*
X266051Y10058D01*
X266356Y9321D01*
X266373Y9293D01*
X266383Y9263D01*
X266444Y9172D01*
X266500Y9078D01*
X266523Y9056D01*
X266541Y9030D01*
X266626Y8960D01*
X266705Y8885D01*
X266734Y8871D01*
X266759Y8850D01*
X266860Y8807D01*
X266957Y8758D01*
X266989Y8752D01*
X267018Y8739D01*
X267127Y8725D01*
X267234Y8705D01*
X267266Y8708D01*
X267298Y8704D01*
X267406Y8722D01*
G37*
%LPC*%
G36*
X28587Y79347D02*
X28587Y79347D01*
X28587Y85387D01*
X28578Y85451D01*
X28578Y85515D01*
X28558Y85590D01*
X28547Y85667D01*
X28520Y85725D01*
X28503Y85787D01*
X28463Y85853D01*
X28431Y85924D01*
X28389Y85972D01*
X28355Y86027D01*
X28298Y86079D01*
X28247Y86138D01*
X28193Y86173D01*
X28146Y86216D01*
X28076Y86250D01*
X28011Y86292D01*
X27950Y86311D01*
X27892Y86339D01*
X27823Y86350D01*
X27742Y86375D01*
X27657Y86376D01*
X27587Y86387D01*
X26587Y86387D01*
X26587Y86388D01*
X27587Y86388D01*
X27651Y86397D01*
X27715Y86397D01*
X27790Y86417D01*
X27867Y86428D01*
X27925Y86455D01*
X27987Y86472D01*
X28053Y86513D01*
X28124Y86544D01*
X28172Y86586D01*
X28227Y86620D01*
X28279Y86677D01*
X28338Y86728D01*
X28373Y86782D01*
X28416Y86829D01*
X28450Y86899D01*
X28492Y86964D01*
X28511Y87025D01*
X28539Y87083D01*
X28550Y87152D01*
X28575Y87233D01*
X28576Y87318D01*
X28587Y87388D01*
X28587Y93428D01*
X31172Y93428D01*
X31818Y93255D01*
X32398Y92921D01*
X32871Y92448D01*
X32896Y92404D01*
X32948Y92337D01*
X32994Y92264D01*
X33035Y92226D01*
X33070Y92182D01*
X33139Y92132D01*
X33203Y92075D01*
X33253Y92050D01*
X33299Y92018D01*
X33380Y91989D01*
X33457Y91952D01*
X33508Y91944D01*
X33565Y91924D01*
X33677Y91917D01*
X33761Y91904D01*
X42859Y91904D01*
X43454Y91309D01*
X43454Y90016D01*
X43463Y89952D01*
X43462Y89888D01*
X43483Y89813D01*
X43494Y89737D01*
X43520Y89678D01*
X43538Y89616D01*
X43578Y89550D01*
X43610Y89480D01*
X43652Y89431D01*
X43686Y89376D01*
X43743Y89324D01*
X43794Y89266D01*
X43847Y89230D01*
X43895Y89187D01*
X43965Y89154D01*
X44030Y89111D01*
X44091Y89092D01*
X44149Y89064D01*
X44218Y89053D01*
X44299Y89029D01*
X44384Y89028D01*
X44453Y89017D01*
X56523Y89017D01*
X56618Y89030D01*
X56715Y89035D01*
X56758Y89050D01*
X56803Y89057D01*
X56890Y89096D01*
X56981Y89128D01*
X57015Y89153D01*
X57060Y89173D01*
X57157Y89256D01*
X57230Y89309D01*
X59219Y91299D01*
X62781Y91299D01*
X65299Y88781D01*
X65299Y85219D01*
X62781Y82701D01*
X59219Y82701D01*
X57230Y84691D01*
X57153Y84748D01*
X57082Y84813D01*
X57041Y84833D01*
X57004Y84860D01*
X56914Y84894D01*
X56828Y84936D01*
X56786Y84942D01*
X56741Y84959D01*
X56613Y84969D01*
X56523Y84983D01*
X44453Y84983D01*
X44390Y84974D01*
X44326Y84975D01*
X44251Y84954D01*
X44174Y84943D01*
X44116Y84917D01*
X44054Y84900D01*
X43988Y84859D01*
X43917Y84827D01*
X43869Y84785D01*
X43814Y84752D01*
X43762Y84694D01*
X43703Y84644D01*
X43668Y84590D01*
X43625Y84542D01*
X43591Y84473D01*
X43549Y84408D01*
X43530Y84346D01*
X43502Y84289D01*
X43491Y84219D01*
X43466Y84138D01*
X43465Y84053D01*
X43454Y83984D01*
X43454Y81466D01*
X42859Y80871D01*
X33761Y80871D01*
X33677Y80859D01*
X33591Y80856D01*
X33538Y80839D01*
X33482Y80831D01*
X33404Y80796D01*
X33323Y80769D01*
X33276Y80738D01*
X33225Y80715D01*
X33160Y80659D01*
X33089Y80611D01*
X33057Y80571D01*
X33011Y80531D01*
X32949Y80437D01*
X32896Y80371D01*
X32871Y80327D01*
X32398Y79854D01*
X31818Y79520D01*
X31172Y79347D01*
X28587Y79347D01*
G37*
%LPD*%
%LPC*%
G36*
X28699Y54209D02*
X28699Y54209D01*
X28699Y60250D01*
X28690Y60314D01*
X28691Y60378D01*
X28670Y60452D01*
X28659Y60529D01*
X28633Y60588D01*
X28616Y60650D01*
X28575Y60716D01*
X28543Y60786D01*
X28501Y60835D01*
X28468Y60890D01*
X28410Y60941D01*
X28360Y61000D01*
X28306Y61036D01*
X28258Y61079D01*
X28189Y61112D01*
X28124Y61155D01*
X28062Y61174D01*
X28005Y61202D01*
X27935Y61212D01*
X27854Y61237D01*
X27769Y61238D01*
X27700Y61249D01*
X26699Y61249D01*
X26699Y61251D01*
X27700Y61251D01*
X27764Y61260D01*
X27828Y61259D01*
X27903Y61280D01*
X27979Y61291D01*
X28038Y61317D01*
X28100Y61334D01*
X28166Y61375D01*
X28236Y61407D01*
X28285Y61449D01*
X28340Y61482D01*
X28392Y61540D01*
X28450Y61590D01*
X28486Y61644D01*
X28529Y61692D01*
X28562Y61761D01*
X28605Y61826D01*
X28624Y61888D01*
X28652Y61946D01*
X28662Y62015D01*
X28687Y62096D01*
X28688Y62181D01*
X28699Y62250D01*
X28699Y68291D01*
X31285Y68291D01*
X31931Y68118D01*
X32510Y67783D01*
X32983Y67310D01*
X33008Y67266D01*
X33061Y67199D01*
X33106Y67126D01*
X33148Y67089D01*
X33182Y67044D01*
X33252Y66995D01*
X33315Y66937D01*
X33366Y66913D01*
X33412Y66880D01*
X33492Y66852D01*
X33569Y66814D01*
X33621Y66806D01*
X33677Y66786D01*
X33789Y66780D01*
X33874Y66767D01*
X42971Y66767D01*
X43567Y66171D01*
X43567Y64016D01*
X43576Y63952D01*
X43575Y63888D01*
X43596Y63813D01*
X43607Y63737D01*
X43633Y63678D01*
X43650Y63616D01*
X43691Y63550D01*
X43723Y63480D01*
X43765Y63431D01*
X43798Y63376D01*
X43856Y63324D01*
X43906Y63266D01*
X43960Y63230D01*
X44008Y63187D01*
X44077Y63154D01*
X44142Y63111D01*
X44204Y63092D01*
X44261Y63064D01*
X44331Y63053D01*
X44412Y63029D01*
X44497Y63028D01*
X44566Y63017D01*
X52524Y63017D01*
X52619Y63030D01*
X52715Y63035D01*
X52758Y63050D01*
X52803Y63057D01*
X52890Y63096D01*
X52981Y63128D01*
X53016Y63153D01*
X53060Y63173D01*
X53157Y63256D01*
X53230Y63309D01*
X55219Y65299D01*
X58781Y65299D01*
X61299Y62781D01*
X61299Y59219D01*
X58781Y56701D01*
X55219Y56701D01*
X53230Y58691D01*
X53153Y58748D01*
X53082Y58813D01*
X53041Y58833D01*
X53005Y58860D01*
X52915Y58894D01*
X52828Y58936D01*
X52786Y58942D01*
X52741Y58959D01*
X52613Y58969D01*
X52524Y58983D01*
X44566Y58983D01*
X44502Y58974D01*
X44438Y58975D01*
X44363Y58954D01*
X44287Y58943D01*
X44228Y58917D01*
X44166Y58900D01*
X44100Y58859D01*
X44030Y58827D01*
X43981Y58785D01*
X43926Y58752D01*
X43874Y58694D01*
X43816Y58644D01*
X43780Y58590D01*
X43737Y58542D01*
X43704Y58473D01*
X43661Y58408D01*
X43642Y58346D01*
X43614Y58289D01*
X43603Y58219D01*
X43579Y58138D01*
X43578Y58053D01*
X43567Y57984D01*
X43567Y56329D01*
X42971Y55733D01*
X33874Y55733D01*
X33789Y55721D01*
X33704Y55719D01*
X33650Y55701D01*
X33594Y55693D01*
X33517Y55658D01*
X33435Y55632D01*
X33389Y55600D01*
X33338Y55577D01*
X33273Y55522D01*
X33202Y55474D01*
X33169Y55433D01*
X33123Y55394D01*
X33062Y55300D01*
X33008Y55234D01*
X32983Y55190D01*
X32510Y54717D01*
X31931Y54382D01*
X31285Y54209D01*
X28699Y54209D01*
G37*
%LPD*%
%LPC*%
G36*
X49689Y32724D02*
X49689Y32724D01*
X49849Y33530D01*
X50477Y35046D01*
X51389Y36411D01*
X52549Y37571D01*
X53914Y38483D01*
X55066Y38960D01*
X55094Y38977D01*
X55126Y38987D01*
X55216Y39048D01*
X55309Y39104D01*
X55331Y39127D01*
X55359Y39146D01*
X55428Y39230D01*
X55502Y39309D01*
X55517Y39339D01*
X55538Y39364D01*
X55580Y39464D01*
X55630Y39561D01*
X55636Y39593D01*
X55649Y39623D01*
X55662Y39731D01*
X55682Y39838D01*
X55679Y39870D01*
X55683Y39903D01*
X55665Y40011D01*
X55655Y40118D01*
X55643Y40149D01*
X55637Y40182D01*
X55591Y40280D01*
X55550Y40380D01*
X55530Y40406D01*
X55516Y40436D01*
X55444Y40517D01*
X55377Y40603D01*
X55350Y40622D01*
X55328Y40647D01*
X55318Y40653D01*
X53687Y42284D01*
X52849Y44306D01*
X52849Y46494D01*
X53687Y48516D01*
X55234Y50063D01*
X57256Y50901D01*
X59444Y50901D01*
X61466Y50063D01*
X63013Y48516D01*
X63851Y46494D01*
X63851Y44306D01*
X63013Y42284D01*
X61866Y41137D01*
X61846Y41111D01*
X61822Y41090D01*
X61762Y40998D01*
X61696Y40911D01*
X61685Y40881D01*
X61667Y40854D01*
X61635Y40749D01*
X61597Y40647D01*
X61594Y40615D01*
X61585Y40584D01*
X61584Y40475D01*
X61575Y40366D01*
X61582Y40334D01*
X61581Y40302D01*
X61610Y40197D01*
X61633Y40090D01*
X61648Y40061D01*
X61656Y40030D01*
X61714Y39937D01*
X61765Y39841D01*
X61788Y39818D01*
X61805Y39790D01*
X61886Y39717D01*
X61962Y39639D01*
X61990Y39623D01*
X62014Y39601D01*
X62026Y39596D01*
X62026Y32724D01*
X49689Y32724D01*
G37*
%LPD*%
%LPC*%
G36*
X57256Y97699D02*
X57256Y97699D01*
X55234Y98537D01*
X53687Y100084D01*
X52849Y102106D01*
X52849Y104294D01*
X53687Y106316D01*
X55306Y107936D01*
X55308Y107937D01*
X55317Y107947D01*
X55333Y107962D01*
X55358Y107979D01*
X55427Y108063D01*
X55501Y108142D01*
X55516Y108171D01*
X55537Y108197D01*
X55580Y108296D01*
X55629Y108393D01*
X55635Y108426D01*
X55648Y108456D01*
X55662Y108564D01*
X55682Y108670D01*
X55679Y108703D01*
X55683Y108736D01*
X55666Y108843D01*
X55655Y108951D01*
X55643Y108982D01*
X55638Y109014D01*
X55591Y109112D01*
X55551Y109213D01*
X55531Y109239D01*
X55517Y109269D01*
X55445Y109350D01*
X55378Y109436D01*
X55351Y109455D01*
X55329Y109480D01*
X55252Y109527D01*
X55149Y109601D01*
X55103Y109618D01*
X55066Y109640D01*
X53914Y110117D01*
X52549Y111029D01*
X51389Y112189D01*
X50477Y113554D01*
X49849Y115070D01*
X49689Y115876D01*
X62026Y115876D01*
X62026Y109004D01*
X62012Y108992D01*
X61983Y108977D01*
X61905Y108901D01*
X61822Y108830D01*
X61804Y108803D01*
X61781Y108780D01*
X61727Y108685D01*
X61667Y108594D01*
X61658Y108563D01*
X61642Y108535D01*
X61617Y108429D01*
X61585Y108324D01*
X61585Y108292D01*
X61577Y108261D01*
X61583Y108151D01*
X61581Y108042D01*
X61590Y108011D01*
X61592Y107979D01*
X61627Y107876D01*
X61656Y107770D01*
X61673Y107743D01*
X61684Y107712D01*
X61737Y107639D01*
X61805Y107530D01*
X61841Y107498D01*
X61866Y107463D01*
X63013Y106316D01*
X63851Y104294D01*
X63851Y102106D01*
X63013Y100084D01*
X61466Y98537D01*
X59444Y97699D01*
X57256Y97699D01*
G37*
%LPD*%
%LPC*%
G36*
X23474Y32724D02*
X23474Y32724D01*
X23474Y39431D01*
X28460Y39431D01*
X30070Y39111D01*
X31586Y38483D01*
X32951Y37571D01*
X34111Y36411D01*
X35023Y35046D01*
X35651Y33530D01*
X35811Y32724D01*
X23474Y32724D01*
G37*
%LPD*%
%LPC*%
G36*
X65274Y32724D02*
X65274Y32724D01*
X65274Y39431D01*
X70260Y39431D01*
X71870Y39111D01*
X73386Y38483D01*
X74751Y37571D01*
X75911Y36411D01*
X76823Y35046D01*
X77451Y33530D01*
X77611Y32724D01*
X65274Y32724D01*
G37*
%LPD*%
%LPC*%
G36*
X7889Y32724D02*
X7889Y32724D01*
X8049Y33530D01*
X8677Y35046D01*
X9589Y36411D01*
X10749Y37571D01*
X12114Y38483D01*
X13630Y39111D01*
X15240Y39431D01*
X20226Y39431D01*
X20226Y32724D01*
X7889Y32724D01*
G37*
%LPD*%
%LPC*%
G36*
X65274Y109169D02*
X65274Y109169D01*
X65274Y115876D01*
X77611Y115876D01*
X77451Y115070D01*
X76823Y113554D01*
X75911Y112189D01*
X74751Y111029D01*
X73386Y110117D01*
X71870Y109489D01*
X70260Y109169D01*
X65274Y109169D01*
G37*
%LPD*%
%LPC*%
G36*
X23474Y109169D02*
X23474Y109169D01*
X23474Y115876D01*
X35811Y115876D01*
X35651Y115070D01*
X35023Y113554D01*
X34111Y112189D01*
X32951Y111029D01*
X31586Y110117D01*
X30070Y109489D01*
X28460Y109169D01*
X23474Y109169D01*
G37*
%LPD*%
%LPC*%
G36*
X15240Y109169D02*
X15240Y109169D01*
X13630Y109489D01*
X12114Y110117D01*
X10749Y111029D01*
X9589Y112189D01*
X8677Y113554D01*
X8049Y115070D01*
X7889Y115876D01*
X20226Y115876D01*
X20226Y109169D01*
X15240Y109169D01*
G37*
%LPD*%
%LPC*%
G36*
X19797Y88387D02*
X19797Y88387D01*
X19797Y91222D01*
X19970Y91868D01*
X20304Y92448D01*
X20777Y92921D01*
X21357Y93255D01*
X22003Y93428D01*
X24588Y93428D01*
X24588Y88387D01*
X19797Y88387D01*
G37*
%LPD*%
%LPC*%
G36*
X19909Y63249D02*
X19909Y63249D01*
X19909Y66085D01*
X20082Y66731D01*
X20417Y67310D01*
X20890Y67783D01*
X21469Y68118D01*
X22115Y68291D01*
X24701Y68291D01*
X24701Y63249D01*
X19909Y63249D01*
G37*
%LPD*%
%LPC*%
G36*
X22003Y79347D02*
X22003Y79347D01*
X21357Y79520D01*
X20777Y79854D01*
X20304Y80327D01*
X19970Y80907D01*
X19797Y81553D01*
X19797Y84388D01*
X24588Y84388D01*
X24588Y79347D01*
X22003Y79347D01*
G37*
%LPD*%
%LPC*%
G36*
X22115Y54209D02*
X22115Y54209D01*
X21469Y54382D01*
X20890Y54717D01*
X20417Y55190D01*
X20082Y55769D01*
X19909Y56415D01*
X19909Y59251D01*
X24701Y59251D01*
X24701Y54209D01*
X22115Y54209D01*
G37*
%LPD*%
%LPC*%
G36*
X215559Y8649D02*
X215559Y8649D01*
X215599Y8850D01*
X216167Y10222D01*
X216993Y11457D01*
X218043Y12507D01*
X219278Y13333D01*
X220650Y13901D01*
X220851Y13941D01*
X220851Y8649D01*
X215559Y8649D01*
G37*
%LPD*%
D10*
X57860Y117500D02*
X69440Y117500D01*
X69440Y31100D02*
X57860Y31100D01*
X27640Y117500D02*
X16060Y117500D01*
X16060Y31100D02*
X27640Y31100D01*
D11*
X26588Y86388D03*
X38188Y86388D03*
X38300Y61250D03*
X26700Y61250D03*
D12*
X222850Y6650D03*
X235350Y6650D03*
X248250Y6550D03*
X260950Y6650D03*
X273650Y6750D03*
X286300Y6650D03*
X299100Y6650D03*
D13*
X86000Y92000D03*
X87000Y58000D03*
X123387Y72350D03*
X187000Y7000D03*
X159000Y58000D03*
X195000Y44000D03*
X195000Y56000D03*
X195000Y68000D03*
X300000Y106000D03*
X300000Y95000D03*
X300000Y84000D03*
X300000Y73000D03*
X300000Y62000D03*
X300000Y51000D03*
X300000Y40000D03*
X195000Y79000D03*
X195000Y91000D03*
X156000Y113000D03*
X156000Y127000D03*
X159000Y39000D03*
X160000Y7000D03*
X174000Y7000D03*
X96000Y16000D03*
X105387Y67350D03*
X90387Y78350D03*
X258000Y23000D03*
X164000Y143000D03*
X179000Y130000D03*
X61000Y87000D03*
D14*
X38800Y87000D02*
X38188Y86388D01*
X38800Y87000D02*
X61000Y87000D01*
D13*
X140000Y118000D03*
X211000Y22000D03*
D15*
X140000Y51000D02*
X140000Y118000D01*
X140000Y51000D02*
X140000Y43000D01*
X161000Y22000D02*
X211000Y22000D01*
X161000Y22000D02*
X140000Y43000D01*
X211000Y22000D02*
X226000Y22000D01*
X235350Y12650D02*
X235350Y6650D01*
X235350Y12650D02*
X226000Y22000D01*
D13*
X103000Y51000D03*
D15*
X140000Y51000D01*
D13*
X249000Y127000D03*
D14*
X249000Y86531D01*
X254282Y81249D01*
X254282Y35453D01*
X259251Y30484D01*
X286300Y6650D02*
X294084Y14434D01*
X289251Y30484D02*
X259251Y30484D01*
X289251Y30484D02*
X294084Y25651D01*
X294084Y14434D01*
D13*
X258000Y121000D03*
D14*
X256000Y121000D01*
X252016Y117016D01*
X252016Y87780D02*
X257298Y82498D01*
X257298Y36702D01*
X252016Y87780D02*
X252016Y117016D01*
X290500Y33500D02*
X297100Y26900D01*
X260500Y33500D02*
X257298Y36702D01*
X260500Y33500D02*
X290500Y33500D01*
X297100Y26900D02*
X297100Y8650D01*
X299100Y6650D01*
D13*
X287000Y22000D03*
D14*
X273650Y19650D02*
X273650Y6750D01*
X273650Y19650D02*
X276000Y22000D01*
X287000Y22000D01*
D13*
X192000Y118000D03*
D14*
X222265Y109000D02*
X251266Y79999D01*
X202000Y109000D02*
X193000Y118000D01*
X192000Y118000D01*
X202000Y109000D02*
X222265Y109000D01*
X251266Y16334D02*
X260950Y6650D01*
X251266Y16334D02*
X251266Y79999D01*
D13*
X192000Y105000D03*
D14*
X248250Y78750D02*
X248250Y6550D01*
X248250Y78750D02*
X222000Y105000D01*
X192000Y105000D01*
D13*
X152000Y102000D03*
X149000Y66000D03*
D14*
X145000Y95000D02*
X152000Y102000D01*
X145000Y95000D02*
X145000Y70000D01*
X149000Y66000D01*
D13*
X57000Y61000D03*
D14*
X38550Y61000D01*
X38300Y61250D01*
M02*
