G04 EAGLE Gerber RS-274X export*
G75*
%MOMM*%
%FSLAX34Y34*%
%LPD*%
%INBottom Copper*%
%IPPOS*%
%AMOC8*
5,1,8,0,0,1.08239X$1,22.5*%
G01*
%ADD10C,1.158000*%
%ADD11R,0.850000X0.900000*%
%ADD12C,1.000000*%
%ADD13R,0.900000X0.850000*%
%ADD14C,0.656400*%
%ADD15C,0.200000*%
%ADD16C,0.406400*%

G36*
X241947Y8380D02*
X241947Y8380D01*
X242056Y8391D01*
X242086Y8403D01*
X242118Y8408D01*
X242217Y8455D01*
X242318Y8495D01*
X242343Y8515D01*
X242373Y8529D01*
X242454Y8602D01*
X242540Y8669D01*
X242559Y8695D01*
X242583Y8716D01*
X242630Y8794D01*
X242705Y8897D01*
X242722Y8943D01*
X242744Y8980D01*
X243149Y9958D01*
X244842Y11651D01*
X245616Y11972D01*
X245624Y11976D01*
X245634Y11979D01*
X245747Y12049D01*
X245859Y12115D01*
X245866Y12122D01*
X245874Y12127D01*
X245962Y12225D01*
X246052Y12321D01*
X246056Y12329D01*
X246063Y12336D01*
X246120Y12454D01*
X246180Y12572D01*
X246182Y12582D01*
X246186Y12590D01*
X246198Y12666D01*
X246232Y12849D01*
X246230Y12873D01*
X246233Y12895D01*
X246233Y97501D01*
X246225Y97559D01*
X246225Y97569D01*
X246222Y97579D01*
X246220Y97596D01*
X246215Y97692D01*
X246200Y97735D01*
X246193Y97780D01*
X246154Y97867D01*
X246122Y97958D01*
X246097Y97993D01*
X246077Y98037D01*
X245994Y98134D01*
X245941Y98207D01*
X236457Y107691D01*
X236381Y107748D01*
X236309Y107813D01*
X236268Y107833D01*
X236232Y107860D01*
X236142Y107894D01*
X236055Y107936D01*
X236013Y107942D01*
X235968Y107959D01*
X235840Y107969D01*
X235751Y107983D01*
X199249Y107983D01*
X199154Y107970D01*
X199058Y107965D01*
X199015Y107950D01*
X198970Y107943D01*
X198883Y107904D01*
X198792Y107872D01*
X198757Y107847D01*
X198713Y107827D01*
X198616Y107744D01*
X198543Y107691D01*
X196591Y105739D01*
X196534Y105663D01*
X196469Y105591D01*
X196449Y105550D01*
X196422Y105514D01*
X196388Y105424D01*
X196346Y105337D01*
X196340Y105295D01*
X196323Y105250D01*
X196313Y105122D01*
X196299Y105033D01*
X196299Y103219D01*
X193781Y100701D01*
X190219Y100701D01*
X187701Y103219D01*
X187701Y106781D01*
X190219Y109299D01*
X194033Y109299D01*
X194128Y109312D01*
X194224Y109317D01*
X194267Y109332D01*
X194312Y109339D01*
X194399Y109378D01*
X194490Y109410D01*
X194525Y109435D01*
X194569Y109455D01*
X194666Y109538D01*
X194739Y109591D01*
X195941Y110793D01*
X195980Y110845D01*
X196026Y110890D01*
X196064Y110957D01*
X196111Y111019D01*
X196133Y111079D01*
X196165Y111135D01*
X196183Y111210D01*
X196210Y111283D01*
X196215Y111347D01*
X196230Y111410D01*
X196226Y111487D01*
X196232Y111564D01*
X196219Y111627D01*
X196216Y111691D01*
X196190Y111764D01*
X196174Y111840D01*
X196144Y111897D01*
X196123Y111958D01*
X196082Y112014D01*
X196042Y112089D01*
X195983Y112150D01*
X195941Y112207D01*
X195522Y112626D01*
X194739Y113409D01*
X194663Y113466D01*
X194591Y113531D01*
X194550Y113551D01*
X194514Y113578D01*
X194424Y113612D01*
X194337Y113654D01*
X194295Y113660D01*
X194250Y113677D01*
X194122Y113687D01*
X194033Y113701D01*
X190219Y113701D01*
X187701Y116219D01*
X187701Y119781D01*
X190219Y122299D01*
X193781Y122299D01*
X196299Y119781D01*
X196299Y117967D01*
X196312Y117872D01*
X196317Y117776D01*
X196332Y117733D01*
X196339Y117688D01*
X196378Y117601D01*
X196410Y117510D01*
X196435Y117475D01*
X196455Y117431D01*
X196538Y117334D01*
X196591Y117261D01*
X198374Y115478D01*
X198451Y115421D01*
X198522Y115356D01*
X198563Y115336D01*
X198599Y115309D01*
X198689Y115275D01*
X198776Y115233D01*
X198818Y115227D01*
X198863Y115209D01*
X198991Y115200D01*
X199080Y115186D01*
X238932Y115186D01*
X240406Y113712D01*
X250559Y103558D01*
X250585Y103539D01*
X250606Y103514D01*
X250698Y103454D01*
X250785Y103389D01*
X250815Y103377D01*
X250842Y103360D01*
X250947Y103328D01*
X251049Y103289D01*
X251081Y103287D01*
X251112Y103277D01*
X251221Y103276D01*
X251330Y103267D01*
X251362Y103274D01*
X251394Y103273D01*
X251499Y103303D01*
X251606Y103325D01*
X251635Y103340D01*
X251666Y103349D01*
X251759Y103406D01*
X251855Y103457D01*
X251878Y103480D01*
X251906Y103497D01*
X251979Y103578D01*
X252057Y103654D01*
X252073Y103682D01*
X252095Y103706D01*
X252142Y103804D01*
X252196Y103900D01*
X252204Y103931D01*
X252218Y103960D01*
X252232Y104049D01*
X252261Y104174D01*
X252259Y104222D01*
X252265Y104265D01*
X252265Y115774D01*
X252261Y115805D01*
X252263Y115838D01*
X252241Y115945D01*
X252225Y116053D01*
X252212Y116082D01*
X252206Y116114D01*
X252154Y116210D01*
X252109Y116310D01*
X252088Y116334D01*
X252073Y116363D01*
X251997Y116441D01*
X251926Y116524D01*
X251899Y116542D01*
X251876Y116565D01*
X251781Y116619D01*
X251690Y116678D01*
X251659Y116688D01*
X251631Y116704D01*
X251525Y116729D01*
X251420Y116761D01*
X251388Y116761D01*
X251356Y116769D01*
X251247Y116763D01*
X251138Y116765D01*
X251107Y116756D01*
X251075Y116754D01*
X250972Y116719D01*
X250909Y116701D01*
X247219Y116701D01*
X244701Y119219D01*
X244701Y122781D01*
X245198Y123277D01*
X245217Y123303D01*
X245242Y123324D01*
X245302Y123416D01*
X245367Y123503D01*
X245379Y123533D01*
X245396Y123560D01*
X245428Y123665D01*
X245467Y123767D01*
X245469Y123799D01*
X245479Y123830D01*
X245480Y123939D01*
X245489Y124048D01*
X245482Y124080D01*
X245483Y124112D01*
X245453Y124217D01*
X245431Y124324D01*
X245416Y124353D01*
X245407Y124384D01*
X245350Y124477D01*
X245299Y124573D01*
X245276Y124596D01*
X245259Y124624D01*
X245178Y124697D01*
X245102Y124775D01*
X245074Y124791D01*
X245050Y124813D01*
X244952Y124860D01*
X244857Y124914D01*
X244825Y124922D01*
X244796Y124936D01*
X244707Y124950D01*
X244582Y124979D01*
X244534Y124977D01*
X244492Y124983D01*
X215477Y124983D01*
X215382Y124970D01*
X215285Y124965D01*
X215242Y124950D01*
X215197Y124943D01*
X215110Y124904D01*
X215019Y124872D01*
X214985Y124847D01*
X214940Y124827D01*
X214843Y124744D01*
X214770Y124691D01*
X212781Y122701D01*
X209219Y122701D01*
X206701Y125219D01*
X206701Y128781D01*
X209219Y131299D01*
X212781Y131299D01*
X214770Y129309D01*
X214847Y129252D01*
X214918Y129187D01*
X214959Y129167D01*
X214996Y129140D01*
X215086Y129106D01*
X215172Y129064D01*
X215214Y129058D01*
X215259Y129041D01*
X215387Y129031D01*
X215477Y129017D01*
X252133Y129017D01*
X259315Y121835D01*
X259315Y120270D01*
X259319Y120238D01*
X259317Y120205D01*
X259339Y120098D01*
X259355Y119991D01*
X259368Y119961D01*
X259375Y119929D01*
X259426Y119833D01*
X259471Y119734D01*
X259492Y119709D01*
X259508Y119680D01*
X259584Y119602D01*
X259654Y119520D01*
X259682Y119502D01*
X259705Y119478D01*
X259799Y119425D01*
X259890Y119365D01*
X259922Y119356D01*
X259950Y119340D01*
X260056Y119315D01*
X260160Y119283D01*
X260193Y119283D01*
X260225Y119275D01*
X260333Y119281D01*
X260442Y119279D01*
X260474Y119288D01*
X260506Y119290D01*
X260609Y119325D01*
X260714Y119354D01*
X260742Y119372D01*
X260773Y119383D01*
X260814Y119413D01*
X260826Y119417D01*
X260984Y119508D01*
X261051Y119561D01*
X261124Y119606D01*
X261161Y119648D01*
X261206Y119682D01*
X261255Y119752D01*
X261313Y119815D01*
X261337Y119866D01*
X261370Y119912D01*
X261398Y119992D01*
X261436Y120069D01*
X261444Y120121D01*
X261464Y120177D01*
X261468Y120260D01*
X261471Y120269D01*
X261472Y120300D01*
X261483Y120374D01*
X261483Y129471D01*
X262079Y130067D01*
X271921Y130067D01*
X272748Y129240D01*
X272799Y129202D01*
X272844Y129156D01*
X272911Y129117D01*
X272973Y129071D01*
X273033Y129048D01*
X273089Y129017D01*
X273165Y128999D01*
X273237Y128971D01*
X273301Y128966D01*
X273364Y128952D01*
X273441Y128956D01*
X273518Y128950D01*
X273581Y128963D01*
X273645Y128966D01*
X273719Y128991D01*
X273794Y129007D01*
X273851Y129037D01*
X273912Y129058D01*
X273969Y129100D01*
X274043Y129140D01*
X274104Y129199D01*
X274161Y129240D01*
X274219Y129299D01*
X277781Y129299D01*
X279793Y127286D01*
X279845Y127247D01*
X279890Y127201D01*
X279957Y127163D01*
X280019Y127117D01*
X280079Y127094D01*
X280135Y127062D01*
X280210Y127044D01*
X280283Y127017D01*
X280347Y127012D01*
X280410Y126997D01*
X280487Y127001D01*
X280564Y126995D01*
X280627Y127008D01*
X280691Y127012D01*
X280764Y127037D01*
X280840Y127053D01*
X280897Y127083D01*
X280958Y127104D01*
X281014Y127146D01*
X281089Y127185D01*
X281150Y127245D01*
X281207Y127286D01*
X283219Y129299D01*
X286781Y129299D01*
X287777Y128302D01*
X287803Y128283D01*
X287824Y128258D01*
X287916Y128198D01*
X288003Y128133D01*
X288033Y128121D01*
X288060Y128104D01*
X288165Y128072D01*
X288267Y128033D01*
X288299Y128031D01*
X288330Y128021D01*
X288439Y128020D01*
X288548Y128011D01*
X288580Y128018D01*
X288612Y128017D01*
X288717Y128047D01*
X288824Y128069D01*
X288853Y128084D01*
X288884Y128093D01*
X288977Y128150D01*
X289073Y128201D01*
X289096Y128224D01*
X289124Y128241D01*
X289197Y128322D01*
X289275Y128398D01*
X289291Y128426D01*
X289313Y128450D01*
X289360Y128548D01*
X289414Y128643D01*
X289422Y128675D01*
X289436Y128704D01*
X289450Y128793D01*
X289479Y128918D01*
X289477Y128966D01*
X289483Y129008D01*
X289483Y129471D01*
X290079Y130067D01*
X299921Y130067D01*
X300517Y129471D01*
X300517Y120374D01*
X300525Y120314D01*
X300525Y120296D01*
X300529Y120281D01*
X300531Y120204D01*
X300549Y120150D01*
X300557Y120094D01*
X300592Y120017D01*
X300618Y119935D01*
X300650Y119889D01*
X300673Y119838D01*
X300728Y119773D01*
X300776Y119702D01*
X300817Y119669D01*
X300856Y119623D01*
X300950Y119562D01*
X301016Y119508D01*
X301060Y119483D01*
X301533Y119010D01*
X301868Y118431D01*
X302041Y117785D01*
X302041Y115199D01*
X296000Y115199D01*
X295936Y115190D01*
X295872Y115191D01*
X295798Y115170D01*
X295721Y115159D01*
X295662Y115133D01*
X295600Y115116D01*
X295534Y115075D01*
X295464Y115043D01*
X295415Y115001D01*
X295360Y114968D01*
X295309Y114910D01*
X295250Y114860D01*
X295214Y114806D01*
X295171Y114758D01*
X295138Y114689D01*
X295095Y114624D01*
X295076Y114562D01*
X295048Y114505D01*
X295038Y114435D01*
X295013Y114354D01*
X295012Y114269D01*
X295001Y114200D01*
X295001Y113199D01*
X294999Y113199D01*
X294999Y114200D01*
X294990Y114264D01*
X294991Y114328D01*
X294970Y114403D01*
X294959Y114479D01*
X294933Y114538D01*
X294916Y114600D01*
X294875Y114666D01*
X294843Y114736D01*
X294801Y114785D01*
X294768Y114840D01*
X294710Y114892D01*
X294660Y114950D01*
X294606Y114986D01*
X294558Y115029D01*
X294489Y115062D01*
X294424Y115105D01*
X294362Y115124D01*
X294304Y115152D01*
X294235Y115162D01*
X294154Y115187D01*
X294069Y115188D01*
X294000Y115199D01*
X287959Y115199D01*
X287959Y117785D01*
X288132Y118431D01*
X288467Y119010D01*
X288940Y119483D01*
X288984Y119508D01*
X289051Y119561D01*
X289124Y119606D01*
X289161Y119648D01*
X289206Y119682D01*
X289255Y119752D01*
X289313Y119815D01*
X289337Y119866D01*
X289370Y119912D01*
X289398Y119992D01*
X289436Y120069D01*
X289444Y120121D01*
X289464Y120177D01*
X289468Y120260D01*
X289471Y120269D01*
X289472Y120300D01*
X289483Y120374D01*
X289483Y120992D01*
X289479Y121023D01*
X289481Y121056D01*
X289459Y121163D01*
X289443Y121271D01*
X289430Y121300D01*
X289424Y121332D01*
X289372Y121428D01*
X289327Y121528D01*
X289306Y121552D01*
X289291Y121581D01*
X289215Y121659D01*
X289144Y121742D01*
X289117Y121760D01*
X289094Y121783D01*
X288999Y121837D01*
X288908Y121896D01*
X288877Y121906D01*
X288849Y121922D01*
X288743Y121947D01*
X288638Y121979D01*
X288606Y121979D01*
X288575Y121987D01*
X288465Y121981D01*
X288356Y121983D01*
X288325Y121974D01*
X288293Y121972D01*
X288190Y121937D01*
X288084Y121907D01*
X288057Y121890D01*
X288026Y121880D01*
X287953Y121827D01*
X287844Y121759D01*
X287812Y121723D01*
X287777Y121698D01*
X286781Y120701D01*
X283219Y120701D01*
X281207Y122714D01*
X281155Y122753D01*
X281110Y122799D01*
X281043Y122837D01*
X280981Y122883D01*
X280921Y122906D01*
X280865Y122938D01*
X280790Y122956D01*
X280717Y122983D01*
X280653Y122988D01*
X280591Y123003D01*
X280513Y122999D01*
X280436Y123005D01*
X280373Y122992D01*
X280309Y122988D01*
X280236Y122963D01*
X280160Y122947D01*
X280103Y122917D01*
X280042Y122896D01*
X279986Y122854D01*
X279911Y122815D01*
X279850Y122755D01*
X279793Y122714D01*
X277781Y120701D01*
X274254Y120701D01*
X274222Y120697D01*
X274190Y120699D01*
X274083Y120677D01*
X273975Y120661D01*
X273946Y120648D01*
X273914Y120642D01*
X273817Y120590D01*
X273718Y120545D01*
X273694Y120524D01*
X273665Y120509D01*
X273587Y120433D01*
X273504Y120362D01*
X273486Y120335D01*
X273463Y120312D01*
X273409Y120217D01*
X273349Y120126D01*
X273340Y120095D01*
X273324Y120067D01*
X273299Y119961D01*
X273267Y119856D01*
X273267Y119824D01*
X273259Y119792D01*
X273265Y119683D01*
X273263Y119574D01*
X273272Y119543D01*
X273274Y119511D01*
X273309Y119408D01*
X273338Y119302D01*
X273355Y119275D01*
X273366Y119244D01*
X273419Y119171D01*
X273487Y119062D01*
X273521Y119032D01*
X273868Y118431D01*
X274041Y117785D01*
X274041Y115199D01*
X268000Y115199D01*
X267936Y115190D01*
X267872Y115191D01*
X267798Y115170D01*
X267721Y115159D01*
X267662Y115133D01*
X267600Y115116D01*
X267534Y115075D01*
X267464Y115043D01*
X267415Y115001D01*
X267360Y114968D01*
X267309Y114910D01*
X267250Y114860D01*
X267214Y114806D01*
X267171Y114758D01*
X267138Y114689D01*
X267095Y114624D01*
X267076Y114562D01*
X267048Y114505D01*
X267038Y114435D01*
X267013Y114354D01*
X267012Y114269D01*
X267001Y114200D01*
X267001Y113199D01*
X266000Y113199D01*
X265936Y113190D01*
X265872Y113191D01*
X265797Y113170D01*
X265721Y113159D01*
X265662Y113133D01*
X265600Y113116D01*
X265534Y113075D01*
X265464Y113043D01*
X265415Y113001D01*
X265360Y112968D01*
X265308Y112910D01*
X265250Y112860D01*
X265214Y112806D01*
X265171Y112758D01*
X265138Y112689D01*
X265095Y112624D01*
X265076Y112562D01*
X265048Y112504D01*
X265038Y112435D01*
X265013Y112354D01*
X265012Y112269D01*
X265001Y112200D01*
X265001Y106409D01*
X262165Y106409D01*
X261519Y106582D01*
X260826Y106983D01*
X260825Y106983D01*
X260796Y107005D01*
X260765Y107017D01*
X260738Y107035D01*
X260634Y107066D01*
X260532Y107105D01*
X260500Y107107D01*
X260468Y107117D01*
X260360Y107118D01*
X260251Y107127D01*
X260219Y107120D01*
X260186Y107121D01*
X260081Y107092D01*
X259975Y107070D01*
X259946Y107054D01*
X259914Y107046D01*
X259822Y106988D01*
X259726Y106938D01*
X259702Y106915D01*
X259674Y106897D01*
X259601Y106817D01*
X259524Y106741D01*
X259507Y106713D01*
X259485Y106688D01*
X259438Y106590D01*
X259384Y106496D01*
X259377Y106464D01*
X259362Y106434D01*
X259348Y106345D01*
X259319Y106222D01*
X259321Y106172D01*
X259315Y106130D01*
X259315Y37951D01*
X259328Y37856D01*
X259333Y37760D01*
X259348Y37717D01*
X259355Y37672D01*
X259394Y37585D01*
X259426Y37494D01*
X259451Y37459D01*
X259471Y37415D01*
X259554Y37318D01*
X259607Y37245D01*
X261043Y35809D01*
X261119Y35752D01*
X261191Y35687D01*
X261232Y35667D01*
X261268Y35640D01*
X261358Y35606D01*
X261445Y35564D01*
X261487Y35558D01*
X261532Y35541D01*
X261660Y35531D01*
X261749Y35517D01*
X291335Y35517D01*
X292809Y34043D01*
X297643Y29209D01*
X299117Y27735D01*
X299117Y13666D01*
X299126Y13602D01*
X299125Y13538D01*
X299146Y13463D01*
X299157Y13387D01*
X299183Y13328D01*
X299200Y13266D01*
X299241Y13200D01*
X299273Y13130D01*
X299315Y13081D01*
X299348Y13026D01*
X299406Y12974D01*
X299456Y12916D01*
X299510Y12880D01*
X299558Y12837D01*
X299627Y12804D01*
X299692Y12761D01*
X299754Y12742D01*
X299811Y12714D01*
X299881Y12703D01*
X299962Y12679D01*
X300047Y12678D01*
X300116Y12667D01*
X300297Y12667D01*
X302508Y11751D01*
X303031Y11227D01*
X303057Y11208D01*
X303078Y11184D01*
X303170Y11124D01*
X303257Y11058D01*
X303287Y11047D01*
X303314Y11029D01*
X303419Y10997D01*
X303521Y10959D01*
X303553Y10956D01*
X303584Y10947D01*
X303693Y10945D01*
X303802Y10937D01*
X303834Y10943D01*
X303866Y10943D01*
X303971Y10972D01*
X304078Y10994D01*
X304107Y11010D01*
X304138Y11018D01*
X304231Y11076D01*
X304327Y11127D01*
X304350Y11149D01*
X304378Y11166D01*
X304451Y11247D01*
X304529Y11324D01*
X304545Y11352D01*
X304567Y11376D01*
X304614Y11474D01*
X304668Y11569D01*
X304676Y11601D01*
X304690Y11629D01*
X304704Y11719D01*
X304733Y11844D01*
X304731Y11892D01*
X304737Y11934D01*
X304737Y146238D01*
X304728Y146302D01*
X304729Y146366D01*
X304708Y146441D01*
X304697Y146517D01*
X304671Y146576D01*
X304654Y146638D01*
X304613Y146704D01*
X304581Y146774D01*
X304539Y146823D01*
X304506Y146878D01*
X304448Y146930D01*
X304398Y146988D01*
X304344Y147024D01*
X304296Y147067D01*
X304227Y147100D01*
X304162Y147143D01*
X304100Y147162D01*
X304043Y147190D01*
X303973Y147201D01*
X303892Y147225D01*
X303807Y147226D01*
X303738Y147237D01*
X105308Y147237D01*
X105213Y147224D01*
X105117Y147219D01*
X105074Y147204D01*
X105029Y147197D01*
X104942Y147158D01*
X104851Y147126D01*
X104816Y147101D01*
X104772Y147081D01*
X104675Y146998D01*
X104602Y146945D01*
X83644Y125987D01*
X75027Y125987D01*
X74899Y125969D01*
X74769Y125954D01*
X74759Y125949D01*
X74748Y125947D01*
X74630Y125894D01*
X74510Y125843D01*
X74501Y125836D01*
X74491Y125831D01*
X74392Y125747D01*
X74292Y125665D01*
X74285Y125655D01*
X74276Y125648D01*
X74205Y125539D01*
X74132Y125432D01*
X74128Y125422D01*
X74122Y125412D01*
X74084Y125288D01*
X74043Y125164D01*
X74043Y125153D01*
X74040Y125142D01*
X74038Y125013D01*
X74033Y124883D01*
X74036Y124871D01*
X74036Y124860D01*
X74070Y124735D01*
X74102Y124609D01*
X74108Y124599D01*
X74111Y124588D01*
X74179Y124478D01*
X74245Y124366D01*
X74253Y124359D01*
X74259Y124348D01*
X74469Y124159D01*
X74470Y124158D01*
X74472Y124157D01*
X74751Y123971D01*
X75911Y122811D01*
X76823Y121446D01*
X77451Y119930D01*
X77611Y119124D01*
X64275Y119124D01*
X64212Y119115D01*
X64147Y119116D01*
X64073Y119095D01*
X63996Y119084D01*
X63938Y119058D01*
X63876Y119041D01*
X63810Y119000D01*
X63739Y118968D01*
X63690Y118926D01*
X63647Y118900D01*
X63631Y118911D01*
X63583Y118954D01*
X63514Y118987D01*
X63449Y119030D01*
X63387Y119049D01*
X63329Y119077D01*
X63260Y119088D01*
X63179Y119112D01*
X63094Y119113D01*
X63025Y119124D01*
X49689Y119124D01*
X49849Y119930D01*
X50477Y121446D01*
X51389Y122811D01*
X52549Y123971D01*
X52828Y124157D01*
X52925Y124244D01*
X53024Y124328D01*
X53030Y124338D01*
X53038Y124345D01*
X53106Y124455D01*
X53178Y124564D01*
X53181Y124575D01*
X53187Y124585D01*
X53222Y124710D01*
X53260Y124834D01*
X53261Y124845D01*
X53264Y124856D01*
X53262Y124986D01*
X53264Y125116D01*
X53261Y125127D01*
X53261Y125138D01*
X53224Y125262D01*
X53189Y125388D01*
X53183Y125397D01*
X53180Y125408D01*
X53109Y125517D01*
X53041Y125628D01*
X53032Y125635D01*
X53026Y125645D01*
X52928Y125730D01*
X52831Y125817D01*
X52821Y125822D01*
X52813Y125829D01*
X52694Y125883D01*
X52578Y125940D01*
X52567Y125941D01*
X52556Y125946D01*
X52277Y125987D01*
X52275Y125987D01*
X52273Y125987D01*
X33227Y125987D01*
X33099Y125969D01*
X32969Y125954D01*
X32959Y125949D01*
X32948Y125947D01*
X32830Y125894D01*
X32710Y125843D01*
X32701Y125836D01*
X32691Y125831D01*
X32592Y125747D01*
X32492Y125665D01*
X32485Y125655D01*
X32476Y125648D01*
X32405Y125539D01*
X32332Y125432D01*
X32328Y125422D01*
X32322Y125412D01*
X32284Y125288D01*
X32243Y125164D01*
X32243Y125153D01*
X32240Y125142D01*
X32238Y125013D01*
X32233Y124883D01*
X32236Y124871D01*
X32236Y124860D01*
X32270Y124735D01*
X32302Y124609D01*
X32308Y124599D01*
X32311Y124588D01*
X32379Y124478D01*
X32445Y124366D01*
X32453Y124359D01*
X32459Y124348D01*
X32669Y124159D01*
X32670Y124158D01*
X32672Y124157D01*
X32951Y123971D01*
X34111Y122811D01*
X35023Y121446D01*
X35651Y119930D01*
X35811Y119124D01*
X22475Y119124D01*
X22412Y119115D01*
X22347Y119116D01*
X22273Y119095D01*
X22196Y119084D01*
X22138Y119058D01*
X22076Y119041D01*
X22010Y119000D01*
X21939Y118968D01*
X21890Y118926D01*
X21847Y118900D01*
X21831Y118911D01*
X21783Y118954D01*
X21714Y118987D01*
X21649Y119030D01*
X21587Y119049D01*
X21529Y119077D01*
X21460Y119088D01*
X21379Y119112D01*
X21294Y119113D01*
X21225Y119124D01*
X7889Y119124D01*
X8049Y119930D01*
X8677Y121446D01*
X9589Y122811D01*
X10749Y123971D01*
X11028Y124157D01*
X11125Y124244D01*
X11224Y124328D01*
X11230Y124338D01*
X11238Y124345D01*
X11306Y124455D01*
X11378Y124564D01*
X11381Y124575D01*
X11387Y124585D01*
X11422Y124710D01*
X11460Y124834D01*
X11461Y124845D01*
X11464Y124856D01*
X11462Y124986D01*
X11464Y125116D01*
X11461Y125127D01*
X11461Y125138D01*
X11424Y125262D01*
X11389Y125388D01*
X11383Y125397D01*
X11380Y125408D01*
X11309Y125517D01*
X11241Y125628D01*
X11232Y125635D01*
X11226Y125645D01*
X11128Y125730D01*
X11031Y125817D01*
X11021Y125822D01*
X11013Y125829D01*
X10894Y125883D01*
X10778Y125940D01*
X10767Y125941D01*
X10756Y125946D01*
X10477Y125987D01*
X10475Y125987D01*
X10473Y125987D01*
X6558Y125987D01*
X6463Y125974D01*
X6367Y125969D01*
X6324Y125954D01*
X6279Y125947D01*
X6191Y125908D01*
X6101Y125876D01*
X6066Y125851D01*
X6022Y125831D01*
X5925Y125748D01*
X5852Y125695D01*
X3055Y122898D01*
X2998Y122821D01*
X2933Y122750D01*
X2913Y122709D01*
X2886Y122673D01*
X2852Y122583D01*
X2810Y122496D01*
X2804Y122454D01*
X2787Y122409D01*
X2777Y122281D01*
X2763Y122192D01*
X2763Y26558D01*
X2776Y26463D01*
X2781Y26367D01*
X2796Y26324D01*
X2803Y26279D01*
X2842Y26192D01*
X2874Y26101D01*
X2899Y26066D01*
X2919Y26022D01*
X3002Y25925D01*
X3055Y25852D01*
X5852Y23055D01*
X5928Y22998D01*
X6000Y22933D01*
X6041Y22913D01*
X6077Y22886D01*
X6167Y22852D01*
X6254Y22810D01*
X6296Y22804D01*
X6341Y22787D01*
X6469Y22777D01*
X6558Y22763D01*
X10249Y22763D01*
X10377Y22781D01*
X10506Y22796D01*
X10517Y22801D01*
X10528Y22803D01*
X10646Y22856D01*
X10766Y22907D01*
X10774Y22914D01*
X10785Y22919D01*
X10883Y23003D01*
X10984Y23085D01*
X10990Y23095D01*
X10999Y23102D01*
X11070Y23211D01*
X11144Y23318D01*
X11147Y23329D01*
X11154Y23338D01*
X11191Y23462D01*
X11232Y23586D01*
X11233Y23597D01*
X11236Y23608D01*
X11238Y23738D01*
X11242Y23867D01*
X11239Y23878D01*
X11240Y23890D01*
X11205Y24015D01*
X11173Y24141D01*
X11167Y24151D01*
X11164Y24162D01*
X11096Y24272D01*
X11031Y24384D01*
X11023Y24391D01*
X11016Y24402D01*
X10807Y24591D01*
X10805Y24592D01*
X10804Y24593D01*
X10749Y24629D01*
X9589Y25789D01*
X8677Y27154D01*
X8049Y28670D01*
X7889Y29476D01*
X21225Y29476D01*
X21288Y29485D01*
X21353Y29484D01*
X21427Y29505D01*
X21504Y29516D01*
X21562Y29542D01*
X21624Y29559D01*
X21690Y29600D01*
X21761Y29632D01*
X21810Y29673D01*
X21853Y29700D01*
X21869Y29689D01*
X21917Y29646D01*
X21986Y29613D01*
X22051Y29570D01*
X22113Y29551D01*
X22171Y29523D01*
X22240Y29512D01*
X22321Y29488D01*
X22406Y29487D01*
X22475Y29476D01*
X35811Y29476D01*
X35651Y28670D01*
X35023Y27154D01*
X34111Y25789D01*
X32951Y24629D01*
X32896Y24593D01*
X32799Y24506D01*
X32701Y24422D01*
X32695Y24412D01*
X32686Y24405D01*
X32618Y24295D01*
X32546Y24186D01*
X32543Y24175D01*
X32537Y24165D01*
X32502Y24040D01*
X32464Y23916D01*
X32464Y23905D01*
X32461Y23894D01*
X32462Y23762D01*
X32460Y23634D01*
X32463Y23623D01*
X32463Y23612D01*
X32501Y23487D01*
X32536Y23362D01*
X32542Y23353D01*
X32545Y23342D01*
X32615Y23233D01*
X32684Y23122D01*
X32692Y23115D01*
X32698Y23105D01*
X32797Y23020D01*
X32893Y22933D01*
X32903Y22928D01*
X32912Y22921D01*
X33030Y22867D01*
X33147Y22810D01*
X33157Y22809D01*
X33168Y22804D01*
X33447Y22763D01*
X33450Y22763D01*
X33451Y22763D01*
X52049Y22763D01*
X52177Y22781D01*
X52306Y22797D01*
X52317Y22801D01*
X52328Y22803D01*
X52446Y22856D01*
X52566Y22907D01*
X52575Y22914D01*
X52585Y22919D01*
X52683Y23003D01*
X52784Y23085D01*
X52790Y23095D01*
X52799Y23102D01*
X52870Y23210D01*
X52944Y23318D01*
X52947Y23329D01*
X52954Y23338D01*
X52992Y23462D01*
X53032Y23586D01*
X53033Y23597D01*
X53036Y23608D01*
X53038Y23738D01*
X53042Y23868D01*
X53040Y23879D01*
X53040Y23890D01*
X53005Y24015D01*
X52973Y24141D01*
X52968Y24151D01*
X52964Y24162D01*
X52896Y24272D01*
X52831Y24384D01*
X52823Y24392D01*
X52816Y24402D01*
X52607Y24591D01*
X52605Y24592D01*
X52604Y24593D01*
X52549Y24629D01*
X51389Y25789D01*
X50477Y27154D01*
X49849Y28670D01*
X49689Y29476D01*
X63025Y29476D01*
X63088Y29485D01*
X63153Y29484D01*
X63227Y29505D01*
X63304Y29516D01*
X63362Y29542D01*
X63424Y29559D01*
X63490Y29600D01*
X63561Y29632D01*
X63610Y29673D01*
X63653Y29700D01*
X63669Y29689D01*
X63717Y29646D01*
X63786Y29613D01*
X63851Y29570D01*
X63913Y29551D01*
X63971Y29523D01*
X64040Y29512D01*
X64121Y29488D01*
X64206Y29487D01*
X64275Y29476D01*
X77611Y29476D01*
X77451Y28670D01*
X76823Y27154D01*
X75911Y25789D01*
X74751Y24629D01*
X74696Y24593D01*
X74599Y24506D01*
X74501Y24422D01*
X74495Y24412D01*
X74486Y24405D01*
X74418Y24295D01*
X74346Y24186D01*
X74343Y24175D01*
X74337Y24165D01*
X74302Y24040D01*
X74264Y23916D01*
X74264Y23905D01*
X74261Y23894D01*
X74262Y23764D01*
X74260Y23634D01*
X74263Y23623D01*
X74263Y23612D01*
X74301Y23488D01*
X74336Y23362D01*
X74341Y23353D01*
X74345Y23342D01*
X74415Y23233D01*
X74484Y23122D01*
X74492Y23115D01*
X74498Y23105D01*
X74596Y23021D01*
X74693Y22933D01*
X74703Y22928D01*
X74712Y22921D01*
X74830Y22867D01*
X74947Y22810D01*
X74957Y22809D01*
X74968Y22804D01*
X75247Y22763D01*
X75249Y22763D01*
X75251Y22763D01*
X83644Y22763D01*
X90387Y16020D01*
X90412Y16001D01*
X90433Y15976D01*
X90525Y15917D01*
X90612Y15851D01*
X90642Y15840D01*
X90669Y15822D01*
X90774Y15790D01*
X90876Y15752D01*
X90908Y15749D01*
X90939Y15740D01*
X91048Y15738D01*
X91157Y15730D01*
X91189Y15736D01*
X91221Y15736D01*
X91327Y15765D01*
X91433Y15787D01*
X91462Y15802D01*
X91493Y15811D01*
X91586Y15869D01*
X91682Y15920D01*
X91706Y15942D01*
X91733Y15959D01*
X91806Y16040D01*
X91884Y16117D01*
X91900Y16145D01*
X91922Y16169D01*
X91970Y16267D01*
X92024Y16362D01*
X92031Y16393D01*
X92045Y16422D01*
X92059Y16512D01*
X92088Y16636D01*
X92086Y16685D01*
X92093Y16727D01*
X92093Y16774D01*
X94413Y19095D01*
X94452Y19146D01*
X94498Y19191D01*
X94536Y19258D01*
X94582Y19320D01*
X94605Y19380D01*
X94637Y19436D01*
X94654Y19512D01*
X94682Y19584D01*
X94687Y19648D01*
X94702Y19711D01*
X94698Y19788D01*
X94704Y19865D01*
X94690Y19928D01*
X94687Y19992D01*
X94662Y20066D01*
X94646Y20141D01*
X94616Y20198D01*
X94595Y20259D01*
X94553Y20315D01*
X94514Y20390D01*
X94454Y20451D01*
X94413Y20508D01*
X92230Y22691D01*
X92153Y22748D01*
X92082Y22813D01*
X92041Y22833D01*
X92004Y22860D01*
X91914Y22894D01*
X91828Y22936D01*
X91786Y22942D01*
X91741Y22959D01*
X91613Y22969D01*
X91523Y22983D01*
X91165Y22983D01*
X89691Y24457D01*
X89457Y24691D01*
X87983Y26165D01*
X87983Y27934D01*
X87974Y27998D01*
X87975Y28062D01*
X87954Y28137D01*
X87943Y28213D01*
X87917Y28272D01*
X87900Y28334D01*
X87859Y28400D01*
X87827Y28470D01*
X87785Y28519D01*
X87752Y28574D01*
X87694Y28626D01*
X87644Y28684D01*
X87590Y28720D01*
X87542Y28763D01*
X87473Y28796D01*
X87408Y28839D01*
X87346Y28858D01*
X87289Y28886D01*
X87219Y28897D01*
X87138Y28921D01*
X87053Y28922D01*
X86984Y28933D01*
X85079Y28933D01*
X84483Y29529D01*
X84483Y38626D01*
X84471Y38711D01*
X84469Y38796D01*
X84451Y38850D01*
X84443Y38906D01*
X84408Y38983D01*
X84382Y39065D01*
X84350Y39111D01*
X84327Y39162D01*
X84272Y39227D01*
X84224Y39298D01*
X84183Y39331D01*
X84144Y39377D01*
X84050Y39438D01*
X83984Y39492D01*
X83940Y39517D01*
X83467Y39990D01*
X83132Y40569D01*
X82959Y41215D01*
X82959Y43801D01*
X89000Y43801D01*
X89064Y43810D01*
X89128Y43809D01*
X89202Y43830D01*
X89279Y43841D01*
X89338Y43867D01*
X89400Y43884D01*
X89466Y43925D01*
X89536Y43957D01*
X89585Y43999D01*
X89640Y44032D01*
X89691Y44090D01*
X89750Y44140D01*
X89786Y44194D01*
X89829Y44242D01*
X89862Y44311D01*
X89905Y44376D01*
X89924Y44438D01*
X89952Y44495D01*
X89962Y44565D01*
X89987Y44646D01*
X89988Y44731D01*
X89999Y44800D01*
X89999Y45801D01*
X90001Y45801D01*
X90001Y44800D01*
X90010Y44736D01*
X90009Y44672D01*
X90030Y44597D01*
X90041Y44521D01*
X90067Y44462D01*
X90084Y44400D01*
X90125Y44334D01*
X90157Y44264D01*
X90199Y44215D01*
X90232Y44160D01*
X90290Y44108D01*
X90340Y44050D01*
X90394Y44014D01*
X90442Y43971D01*
X90511Y43938D01*
X90576Y43895D01*
X90638Y43876D01*
X90696Y43848D01*
X90765Y43838D01*
X90846Y43813D01*
X90931Y43812D01*
X91000Y43801D01*
X97041Y43801D01*
X97041Y41215D01*
X96868Y40569D01*
X96533Y39990D01*
X96060Y39517D01*
X96016Y39492D01*
X95949Y39439D01*
X95876Y39394D01*
X95839Y39352D01*
X95794Y39318D01*
X95745Y39248D01*
X95687Y39185D01*
X95663Y39134D01*
X95630Y39088D01*
X95602Y39008D01*
X95564Y38931D01*
X95556Y38879D01*
X95536Y38823D01*
X95530Y38711D01*
X95517Y38626D01*
X95517Y30298D01*
X95526Y30234D01*
X95525Y30170D01*
X95546Y30095D01*
X95557Y30019D01*
X95583Y29960D01*
X95600Y29898D01*
X95641Y29832D01*
X95673Y29762D01*
X95715Y29713D01*
X95748Y29658D01*
X95806Y29606D01*
X95856Y29548D01*
X95910Y29512D01*
X95958Y29469D01*
X96027Y29436D01*
X96092Y29393D01*
X96154Y29374D01*
X96211Y29346D01*
X96281Y29335D01*
X96362Y29311D01*
X96447Y29310D01*
X96516Y29299D01*
X97781Y29299D01*
X100245Y26834D01*
X100271Y26815D01*
X100292Y26790D01*
X100384Y26730D01*
X100471Y26665D01*
X100501Y26653D01*
X100528Y26636D01*
X100633Y26604D01*
X100735Y26565D01*
X100767Y26563D01*
X100798Y26553D01*
X100907Y26552D01*
X101016Y26543D01*
X101048Y26550D01*
X101080Y26549D01*
X101185Y26579D01*
X101292Y26601D01*
X101321Y26616D01*
X101352Y26625D01*
X101445Y26682D01*
X101541Y26733D01*
X101564Y26756D01*
X101592Y26773D01*
X101665Y26854D01*
X101743Y26930D01*
X101759Y26958D01*
X101781Y26982D01*
X101828Y27080D01*
X101882Y27175D01*
X101890Y27207D01*
X101904Y27236D01*
X101918Y27325D01*
X101947Y27450D01*
X101945Y27498D01*
X101951Y27540D01*
X101951Y46555D01*
X101938Y46650D01*
X101933Y46747D01*
X101918Y46790D01*
X101911Y46835D01*
X101872Y46922D01*
X101840Y47013D01*
X101815Y47047D01*
X101795Y47092D01*
X101712Y47189D01*
X101659Y47262D01*
X100701Y48219D01*
X100701Y51781D01*
X103219Y54299D01*
X106795Y54299D01*
X106815Y54284D01*
X106886Y54219D01*
X106927Y54199D01*
X106964Y54172D01*
X107054Y54138D01*
X107140Y54096D01*
X107182Y54090D01*
X107227Y54073D01*
X107355Y54063D01*
X107445Y54049D01*
X135952Y54049D01*
X136016Y54058D01*
X136080Y54057D01*
X136155Y54078D01*
X136231Y54089D01*
X136290Y54115D01*
X136352Y54132D01*
X136418Y54173D01*
X136488Y54205D01*
X136537Y54247D01*
X136592Y54280D01*
X136644Y54338D01*
X136702Y54388D01*
X136738Y54442D01*
X136781Y54490D01*
X136814Y54559D01*
X136857Y54624D01*
X136876Y54686D01*
X136904Y54743D01*
X136915Y54813D01*
X136939Y54894D01*
X136940Y54979D01*
X136951Y55048D01*
X136951Y114556D01*
X136938Y114651D01*
X136933Y114747D01*
X136918Y114790D01*
X136911Y114835D01*
X136872Y114922D01*
X136840Y115013D01*
X136815Y115048D01*
X136795Y115092D01*
X136712Y115189D01*
X136659Y115262D01*
X135701Y116219D01*
X135701Y119781D01*
X138219Y122299D01*
X141781Y122299D01*
X144299Y119781D01*
X144299Y116219D01*
X143341Y115262D01*
X143284Y115185D01*
X143219Y115114D01*
X143199Y115073D01*
X143172Y115037D01*
X143138Y114947D01*
X143096Y114860D01*
X143090Y114818D01*
X143073Y114773D01*
X143063Y114645D01*
X143049Y114556D01*
X143049Y100313D01*
X143053Y100281D01*
X143051Y100249D01*
X143073Y100142D01*
X143089Y100034D01*
X143102Y100005D01*
X143108Y99973D01*
X143160Y99877D01*
X143205Y99777D01*
X143226Y99753D01*
X143241Y99724D01*
X143317Y99646D01*
X143388Y99563D01*
X143415Y99545D01*
X143438Y99522D01*
X143533Y99468D01*
X143624Y99408D01*
X143655Y99399D01*
X143683Y99383D01*
X143789Y99358D01*
X143894Y99326D01*
X143926Y99325D01*
X143957Y99318D01*
X144067Y99324D01*
X144176Y99322D01*
X144207Y99331D01*
X144239Y99332D01*
X144342Y99368D01*
X144448Y99397D01*
X144475Y99414D01*
X144506Y99425D01*
X144579Y99478D01*
X144688Y99546D01*
X144720Y99582D01*
X144755Y99607D01*
X146409Y101261D01*
X146466Y101338D01*
X146531Y101409D01*
X146551Y101450D01*
X146578Y101486D01*
X146612Y101576D01*
X146654Y101663D01*
X146660Y101705D01*
X146677Y101750D01*
X146687Y101878D01*
X146701Y101967D01*
X146701Y104781D01*
X149219Y107299D01*
X152781Y107299D01*
X155299Y104781D01*
X155299Y101219D01*
X152781Y98701D01*
X149967Y98701D01*
X149872Y98688D01*
X149776Y98683D01*
X149733Y98668D01*
X149688Y98661D01*
X149601Y98622D01*
X149510Y98590D01*
X149475Y98565D01*
X149431Y98545D01*
X149334Y98462D01*
X149261Y98409D01*
X147309Y96457D01*
X147252Y96381D01*
X147187Y96309D01*
X147167Y96268D01*
X147140Y96232D01*
X147106Y96142D01*
X147064Y96055D01*
X147058Y96013D01*
X147041Y95968D01*
X147031Y95840D01*
X147017Y95751D01*
X147017Y71298D01*
X147026Y71234D01*
X147025Y71170D01*
X147046Y71095D01*
X147057Y71019D01*
X147083Y70960D01*
X147100Y70898D01*
X147141Y70832D01*
X147173Y70762D01*
X147215Y70713D01*
X147248Y70658D01*
X147306Y70606D01*
X147356Y70548D01*
X147410Y70512D01*
X147458Y70469D01*
X147527Y70436D01*
X147592Y70393D01*
X147654Y70374D01*
X147711Y70346D01*
X147781Y70335D01*
X147862Y70311D01*
X147947Y70310D01*
X148016Y70299D01*
X150781Y70299D01*
X153299Y67781D01*
X153299Y64219D01*
X150781Y61701D01*
X147219Y61701D01*
X144755Y64166D01*
X144729Y64185D01*
X144708Y64210D01*
X144616Y64270D01*
X144529Y64335D01*
X144499Y64347D01*
X144472Y64364D01*
X144367Y64396D01*
X144265Y64435D01*
X144233Y64437D01*
X144202Y64447D01*
X144093Y64448D01*
X143984Y64457D01*
X143952Y64450D01*
X143920Y64451D01*
X143815Y64421D01*
X143708Y64399D01*
X143679Y64384D01*
X143648Y64375D01*
X143555Y64318D01*
X143459Y64267D01*
X143436Y64244D01*
X143408Y64227D01*
X143335Y64146D01*
X143257Y64070D01*
X143241Y64042D01*
X143219Y64018D01*
X143172Y63920D01*
X143118Y63825D01*
X143110Y63793D01*
X143096Y63764D01*
X143082Y63675D01*
X143053Y63550D01*
X143055Y63502D01*
X143049Y63460D01*
X143049Y52677D01*
X143062Y52582D01*
X143067Y52486D01*
X143082Y52442D01*
X143089Y52397D01*
X143128Y52310D01*
X143160Y52219D01*
X143185Y52185D01*
X143205Y52141D01*
X143288Y52043D01*
X143341Y51970D01*
X169970Y25341D01*
X170047Y25284D01*
X170118Y25219D01*
X170159Y25199D01*
X170196Y25172D01*
X170286Y25138D01*
X170372Y25096D01*
X170414Y25090D01*
X170460Y25073D01*
X170587Y25063D01*
X170677Y25049D01*
X207556Y25049D01*
X207651Y25062D01*
X207747Y25067D01*
X207790Y25082D01*
X207835Y25089D01*
X207922Y25128D01*
X208013Y25160D01*
X208048Y25185D01*
X208092Y25205D01*
X208189Y25288D01*
X208262Y25341D01*
X209219Y26299D01*
X212781Y26299D01*
X213738Y25341D01*
X213815Y25284D01*
X213886Y25219D01*
X213927Y25199D01*
X213963Y25172D01*
X214053Y25138D01*
X214140Y25096D01*
X214182Y25090D01*
X214227Y25073D01*
X214355Y25063D01*
X214444Y25049D01*
X227263Y25049D01*
X238399Y13913D01*
X238399Y12524D01*
X238412Y12429D01*
X238417Y12333D01*
X238432Y12290D01*
X238439Y12245D01*
X238478Y12157D01*
X238510Y12067D01*
X238535Y12032D01*
X238555Y11988D01*
X238623Y11908D01*
X238650Y11865D01*
X238670Y11846D01*
X238691Y11818D01*
X240451Y10058D01*
X240898Y8980D01*
X240914Y8952D01*
X240924Y8921D01*
X240986Y8831D01*
X241041Y8737D01*
X241065Y8715D01*
X241083Y8688D01*
X241167Y8619D01*
X241247Y8544D01*
X241276Y8529D01*
X241300Y8509D01*
X241401Y8466D01*
X241498Y8416D01*
X241530Y8410D01*
X241560Y8397D01*
X241668Y8384D01*
X241775Y8364D01*
X241808Y8367D01*
X241839Y8363D01*
X241947Y8380D01*
G37*
G36*
X174027Y1517D02*
X174027Y1517D01*
X174060Y1515D01*
X174167Y1537D01*
X174275Y1553D01*
X174304Y1566D01*
X174336Y1572D01*
X174432Y1624D01*
X174532Y1669D01*
X174556Y1690D01*
X174585Y1705D01*
X174663Y1781D01*
X174746Y1852D01*
X174764Y1879D01*
X174787Y1902D01*
X174841Y1997D01*
X174900Y2088D01*
X174910Y2119D01*
X174926Y2147D01*
X174951Y2253D01*
X174983Y2358D01*
X174983Y2390D01*
X174991Y2421D01*
X174985Y2531D01*
X174987Y2640D01*
X174978Y2671D01*
X174976Y2703D01*
X174941Y2806D01*
X174911Y2912D01*
X174894Y2939D01*
X174884Y2970D01*
X174831Y3043D01*
X174763Y3152D01*
X174727Y3184D01*
X174702Y3219D01*
X173701Y4219D01*
X173701Y7781D01*
X174659Y8738D01*
X174716Y8815D01*
X174781Y8886D01*
X174801Y8927D01*
X174828Y8964D01*
X174862Y9054D01*
X174904Y9140D01*
X174910Y9182D01*
X174927Y9227D01*
X174936Y9343D01*
X174939Y9353D01*
X174940Y9369D01*
X174951Y9445D01*
X174951Y17952D01*
X174942Y18016D01*
X174943Y18080D01*
X174922Y18155D01*
X174911Y18231D01*
X174885Y18290D01*
X174868Y18352D01*
X174827Y18418D01*
X174795Y18488D01*
X174753Y18537D01*
X174720Y18592D01*
X174662Y18644D01*
X174612Y18702D01*
X174558Y18738D01*
X174510Y18781D01*
X174441Y18814D01*
X174376Y18857D01*
X174314Y18876D01*
X174257Y18904D01*
X174187Y18915D01*
X174106Y18939D01*
X174021Y18940D01*
X173952Y18951D01*
X167737Y18951D01*
X139030Y47659D01*
X138953Y47716D01*
X138882Y47781D01*
X138841Y47801D01*
X138804Y47828D01*
X138714Y47862D01*
X138628Y47904D01*
X138586Y47910D01*
X138540Y47927D01*
X138413Y47937D01*
X138323Y47951D01*
X109445Y47951D01*
X109350Y47938D01*
X109253Y47933D01*
X109210Y47918D01*
X109165Y47911D01*
X109078Y47872D01*
X108987Y47840D01*
X108953Y47815D01*
X108908Y47795D01*
X108811Y47712D01*
X108738Y47659D01*
X108341Y47262D01*
X108284Y47185D01*
X108219Y47114D01*
X108199Y47073D01*
X108172Y47036D01*
X108138Y46946D01*
X108096Y46860D01*
X108090Y46818D01*
X108073Y46773D01*
X108063Y46645D01*
X108061Y46634D01*
X108061Y46633D01*
X108061Y46632D01*
X108049Y46555D01*
X108049Y22339D01*
X100983Y15273D01*
X100925Y15197D01*
X100861Y15125D01*
X100841Y15084D01*
X100813Y15048D01*
X100779Y14958D01*
X100738Y14871D01*
X100731Y14829D01*
X100714Y14784D01*
X100705Y14666D01*
X100702Y14657D01*
X100702Y14642D01*
X100690Y14567D01*
X100690Y13213D01*
X98172Y10695D01*
X98125Y10695D01*
X98093Y10690D01*
X98061Y10693D01*
X97954Y10670D01*
X97845Y10655D01*
X97816Y10642D01*
X97785Y10635D01*
X97688Y10584D01*
X97589Y10539D01*
X97564Y10518D01*
X97536Y10503D01*
X97457Y10426D01*
X97374Y10355D01*
X97357Y10328D01*
X97333Y10306D01*
X97280Y10211D01*
X97220Y10119D01*
X97210Y10089D01*
X97194Y10061D01*
X97169Y9954D01*
X97137Y9850D01*
X97137Y9818D01*
X97130Y9786D01*
X97135Y9677D01*
X97134Y9568D01*
X97142Y9537D01*
X97144Y9504D01*
X97180Y9401D01*
X97209Y9296D01*
X97226Y9268D01*
X97236Y9238D01*
X97290Y9165D01*
X97357Y9056D01*
X97393Y9023D01*
X97418Y8989D01*
X104602Y1805D01*
X104678Y1748D01*
X104750Y1683D01*
X104791Y1663D01*
X104827Y1636D01*
X104917Y1602D01*
X105004Y1560D01*
X105046Y1554D01*
X105091Y1537D01*
X105219Y1527D01*
X105308Y1513D01*
X173996Y1513D01*
X174027Y1517D01*
G37*
G36*
X215419Y1523D02*
X215419Y1523D01*
X215494Y1524D01*
X215558Y1543D01*
X215623Y1553D01*
X215692Y1584D01*
X215764Y1605D01*
X215820Y1642D01*
X215880Y1669D01*
X215937Y1718D01*
X216001Y1759D01*
X216044Y1809D01*
X216094Y1852D01*
X216136Y1915D01*
X216185Y1973D01*
X216213Y2033D01*
X216249Y2088D01*
X216271Y2160D01*
X216302Y2229D01*
X216312Y2295D01*
X216331Y2358D01*
X216332Y2433D01*
X216343Y2508D01*
X216334Y2574D01*
X216335Y2640D01*
X216315Y2713D01*
X216304Y2788D01*
X216279Y2843D01*
X216260Y2912D01*
X216208Y2996D01*
X216175Y3067D01*
X216167Y3078D01*
X215599Y4451D01*
X215559Y4651D01*
X221850Y4651D01*
X221914Y4660D01*
X221978Y4659D01*
X222052Y4680D01*
X222129Y4691D01*
X222188Y4717D01*
X222250Y4734D01*
X222316Y4775D01*
X222386Y4807D01*
X222435Y4849D01*
X222490Y4882D01*
X222541Y4940D01*
X222600Y4990D01*
X222636Y5044D01*
X222679Y5092D01*
X222712Y5161D01*
X222755Y5226D01*
X222774Y5288D01*
X222802Y5345D01*
X222812Y5415D01*
X222837Y5496D01*
X222838Y5581D01*
X222849Y5650D01*
X222849Y6651D01*
X223850Y6651D01*
X223914Y6660D01*
X223978Y6659D01*
X224053Y6680D01*
X224129Y6691D01*
X224188Y6717D01*
X224250Y6734D01*
X224316Y6775D01*
X224386Y6807D01*
X224435Y6849D01*
X224490Y6882D01*
X224542Y6940D01*
X224600Y6990D01*
X224636Y7044D01*
X224679Y7092D01*
X224712Y7161D01*
X224755Y7226D01*
X224774Y7288D01*
X224802Y7346D01*
X224812Y7415D01*
X224837Y7496D01*
X224838Y7581D01*
X224849Y7650D01*
X224849Y13941D01*
X225050Y13901D01*
X226422Y13333D01*
X227657Y12507D01*
X228707Y11457D01*
X229209Y10706D01*
X229223Y10691D01*
X229232Y10672D01*
X229316Y10586D01*
X229397Y10496D01*
X229415Y10485D01*
X229429Y10470D01*
X229534Y10411D01*
X229636Y10347D01*
X229656Y10342D01*
X229675Y10331D01*
X229792Y10304D01*
X229908Y10271D01*
X229929Y10271D01*
X229949Y10266D01*
X230070Y10273D01*
X230190Y10274D01*
X230210Y10280D01*
X230231Y10281D01*
X230344Y10320D01*
X230460Y10355D01*
X230477Y10366D01*
X230497Y10373D01*
X230571Y10427D01*
X230696Y10509D01*
X230720Y10536D01*
X230746Y10555D01*
X231233Y11042D01*
X231272Y11094D01*
X231318Y11138D01*
X231356Y11206D01*
X231402Y11268D01*
X231425Y11328D01*
X231457Y11384D01*
X231475Y11459D01*
X231502Y11532D01*
X231507Y11596D01*
X231522Y11658D01*
X231518Y11736D01*
X231524Y11813D01*
X231511Y11876D01*
X231507Y11940D01*
X231482Y12013D01*
X231466Y12089D01*
X231436Y12146D01*
X231415Y12206D01*
X231374Y12263D01*
X231334Y12338D01*
X231275Y12399D01*
X231233Y12455D01*
X225030Y18659D01*
X224953Y18716D01*
X224882Y18781D01*
X224841Y18801D01*
X224804Y18828D01*
X224714Y18862D01*
X224628Y18904D01*
X224586Y18910D01*
X224540Y18927D01*
X224413Y18937D01*
X224323Y18951D01*
X214444Y18951D01*
X214349Y18938D01*
X214253Y18933D01*
X214210Y18918D01*
X214165Y18911D01*
X214078Y18872D01*
X213987Y18840D01*
X213952Y18815D01*
X213908Y18795D01*
X213811Y18712D01*
X213738Y18659D01*
X212781Y17701D01*
X209219Y17701D01*
X208262Y18659D01*
X208185Y18716D01*
X208114Y18781D01*
X208073Y18801D01*
X208037Y18828D01*
X207947Y18862D01*
X207860Y18904D01*
X207818Y18910D01*
X207773Y18927D01*
X207645Y18937D01*
X207556Y18951D01*
X182048Y18951D01*
X181984Y18942D01*
X181920Y18943D01*
X181845Y18922D01*
X181769Y18911D01*
X181710Y18885D01*
X181648Y18868D01*
X181582Y18827D01*
X181512Y18795D01*
X181463Y18753D01*
X181408Y18720D01*
X181356Y18662D01*
X181298Y18612D01*
X181262Y18558D01*
X181219Y18510D01*
X181186Y18441D01*
X181143Y18376D01*
X181124Y18314D01*
X181096Y18257D01*
X181085Y18187D01*
X181061Y18106D01*
X181060Y18021D01*
X181049Y17952D01*
X181049Y9445D01*
X181057Y9386D01*
X181057Y9379D01*
X181059Y9370D01*
X181062Y9350D01*
X181067Y9253D01*
X181082Y9210D01*
X181089Y9165D01*
X181128Y9078D01*
X181160Y8987D01*
X181185Y8953D01*
X181205Y8908D01*
X181288Y8811D01*
X181341Y8738D01*
X182299Y7781D01*
X182299Y4219D01*
X181298Y3219D01*
X181279Y3193D01*
X181254Y3172D01*
X181194Y3080D01*
X181129Y2993D01*
X181117Y2963D01*
X181100Y2936D01*
X181068Y2831D01*
X181029Y2729D01*
X181027Y2697D01*
X181017Y2666D01*
X181016Y2557D01*
X181007Y2448D01*
X181014Y2416D01*
X181013Y2384D01*
X181043Y2279D01*
X181065Y2172D01*
X181080Y2143D01*
X181089Y2112D01*
X181146Y2019D01*
X181197Y1923D01*
X181220Y1900D01*
X181237Y1872D01*
X181318Y1799D01*
X181394Y1721D01*
X181422Y1705D01*
X181446Y1683D01*
X181544Y1636D01*
X181639Y1582D01*
X181671Y1574D01*
X181700Y1560D01*
X181789Y1546D01*
X181914Y1517D01*
X181962Y1519D01*
X182004Y1513D01*
X215344Y1513D01*
X215419Y1523D01*
G37*
G36*
X267406Y8722D02*
X267406Y8722D01*
X267515Y8732D01*
X267545Y8744D01*
X267577Y8749D01*
X267675Y8796D01*
X267777Y8837D01*
X267802Y8857D01*
X267831Y8870D01*
X267913Y8943D01*
X267999Y9010D01*
X268018Y9036D01*
X268042Y9058D01*
X268089Y9135D01*
X268164Y9239D01*
X268180Y9285D01*
X268202Y9321D01*
X268549Y10158D01*
X270242Y11851D01*
X271016Y12172D01*
X271024Y12176D01*
X271034Y12179D01*
X271147Y12249D01*
X271259Y12315D01*
X271266Y12322D01*
X271274Y12327D01*
X271362Y12425D01*
X271452Y12521D01*
X271456Y12529D01*
X271463Y12536D01*
X271520Y12654D01*
X271580Y12772D01*
X271582Y12782D01*
X271586Y12790D01*
X271598Y12866D01*
X271632Y13049D01*
X271630Y13073D01*
X271633Y13095D01*
X271633Y20485D01*
X275165Y24017D01*
X282523Y24017D01*
X282618Y24030D01*
X282715Y24035D01*
X282758Y24050D01*
X282803Y24057D01*
X282890Y24096D01*
X282981Y24128D01*
X283015Y24153D01*
X283060Y24173D01*
X283157Y24256D01*
X283230Y24309D01*
X285219Y26299D01*
X288171Y26299D01*
X288203Y26303D01*
X288236Y26301D01*
X288343Y26323D01*
X288451Y26339D01*
X288480Y26352D01*
X288512Y26358D01*
X288608Y26410D01*
X288708Y26455D01*
X288732Y26476D01*
X288761Y26491D01*
X288839Y26567D01*
X288922Y26638D01*
X288940Y26665D01*
X288963Y26688D01*
X289017Y26783D01*
X289076Y26874D01*
X289086Y26905D01*
X289102Y26933D01*
X289127Y27039D01*
X289159Y27144D01*
X289159Y27176D01*
X289167Y27208D01*
X289161Y27317D01*
X289163Y27426D01*
X289154Y27457D01*
X289152Y27489D01*
X289116Y27592D01*
X289087Y27698D01*
X289070Y27725D01*
X289060Y27756D01*
X289006Y27829D01*
X288939Y27938D01*
X288903Y27970D01*
X288878Y28005D01*
X288708Y28175D01*
X288631Y28232D01*
X288560Y28297D01*
X288519Y28317D01*
X288482Y28344D01*
X288392Y28378D01*
X288306Y28420D01*
X288264Y28426D01*
X288218Y28443D01*
X288091Y28453D01*
X288001Y28467D01*
X258415Y28467D01*
X256941Y29941D01*
X254989Y31894D01*
X254963Y31913D01*
X254942Y31938D01*
X254850Y31998D01*
X254763Y32063D01*
X254733Y32075D01*
X254706Y32092D01*
X254601Y32124D01*
X254499Y32163D01*
X254467Y32165D01*
X254436Y32175D01*
X254327Y32176D01*
X254218Y32185D01*
X254186Y32178D01*
X254154Y32179D01*
X254049Y32149D01*
X253942Y32127D01*
X253913Y32112D01*
X253882Y32103D01*
X253789Y32046D01*
X253693Y31995D01*
X253670Y31972D01*
X253642Y31955D01*
X253569Y31874D01*
X253491Y31798D01*
X253475Y31770D01*
X253453Y31746D01*
X253406Y31648D01*
X253352Y31552D01*
X253344Y31521D01*
X253330Y31492D01*
X253316Y31403D01*
X253287Y31278D01*
X253289Y31230D01*
X253283Y31187D01*
X253283Y17583D01*
X253296Y17488D01*
X253301Y17392D01*
X253316Y17349D01*
X253323Y17304D01*
X253362Y17216D01*
X253394Y17126D01*
X253419Y17091D01*
X253439Y17047D01*
X253522Y16950D01*
X253575Y16877D01*
X257890Y12562D01*
X257897Y12557D01*
X257903Y12549D01*
X258010Y12472D01*
X258115Y12393D01*
X258124Y12390D01*
X258132Y12384D01*
X258255Y12340D01*
X258379Y12294D01*
X258389Y12293D01*
X258397Y12290D01*
X258529Y12282D01*
X258660Y12272D01*
X258669Y12274D01*
X258679Y12273D01*
X258754Y12291D01*
X258936Y12329D01*
X258958Y12341D01*
X258979Y12346D01*
X259753Y12667D01*
X262147Y12667D01*
X264358Y11751D01*
X266051Y10058D01*
X266356Y9321D01*
X266373Y9293D01*
X266383Y9263D01*
X266444Y9172D01*
X266500Y9078D01*
X266523Y9056D01*
X266541Y9030D01*
X266626Y8960D01*
X266705Y8885D01*
X266734Y8871D01*
X266759Y8850D01*
X266860Y8807D01*
X266957Y8758D01*
X266989Y8752D01*
X267018Y8739D01*
X267127Y8725D01*
X267234Y8705D01*
X267266Y8708D01*
X267298Y8704D01*
X267406Y8722D01*
G37*
%LPC*%
G36*
X33587Y79347D02*
X33587Y79347D01*
X33587Y85387D01*
X33578Y85451D01*
X33578Y85515D01*
X33558Y85590D01*
X33547Y85667D01*
X33520Y85725D01*
X33503Y85787D01*
X33463Y85853D01*
X33431Y85924D01*
X33389Y85972D01*
X33355Y86027D01*
X33298Y86079D01*
X33247Y86138D01*
X33193Y86173D01*
X33146Y86216D01*
X33076Y86250D01*
X33011Y86292D01*
X32950Y86311D01*
X32892Y86339D01*
X32823Y86350D01*
X32742Y86375D01*
X32657Y86376D01*
X32587Y86387D01*
X31587Y86387D01*
X31587Y86388D01*
X32587Y86388D01*
X32651Y86397D01*
X32715Y86397D01*
X32790Y86417D01*
X32867Y86428D01*
X32925Y86455D01*
X32987Y86472D01*
X33053Y86513D01*
X33124Y86544D01*
X33172Y86586D01*
X33227Y86620D01*
X33279Y86677D01*
X33338Y86728D01*
X33373Y86782D01*
X33416Y86829D01*
X33450Y86899D01*
X33492Y86964D01*
X33511Y87025D01*
X33539Y87083D01*
X33550Y87152D01*
X33575Y87233D01*
X33576Y87318D01*
X33587Y87388D01*
X33587Y93428D01*
X36172Y93428D01*
X36818Y93255D01*
X37398Y92921D01*
X37871Y92448D01*
X37896Y92404D01*
X37948Y92337D01*
X37994Y92264D01*
X38035Y92226D01*
X38070Y92182D01*
X38139Y92132D01*
X38203Y92075D01*
X38253Y92050D01*
X38299Y92018D01*
X38380Y91989D01*
X38457Y91952D01*
X38508Y91944D01*
X38565Y91924D01*
X38677Y91917D01*
X38761Y91904D01*
X47859Y91904D01*
X48454Y91309D01*
X48454Y90016D01*
X48463Y89952D01*
X48462Y89888D01*
X48483Y89813D01*
X48494Y89737D01*
X48520Y89678D01*
X48538Y89616D01*
X48578Y89550D01*
X48610Y89480D01*
X48652Y89431D01*
X48686Y89376D01*
X48743Y89324D01*
X48794Y89266D01*
X48847Y89230D01*
X48895Y89187D01*
X48965Y89154D01*
X49030Y89111D01*
X49091Y89092D01*
X49149Y89064D01*
X49218Y89053D01*
X49299Y89029D01*
X49384Y89028D01*
X49453Y89017D01*
X56524Y89017D01*
X56619Y89030D01*
X56715Y89035D01*
X56758Y89050D01*
X56803Y89057D01*
X56890Y89096D01*
X56981Y89128D01*
X57016Y89153D01*
X57060Y89173D01*
X57157Y89256D01*
X57230Y89309D01*
X59219Y91299D01*
X62781Y91299D01*
X65299Y88781D01*
X65299Y85219D01*
X62781Y82701D01*
X59219Y82701D01*
X57230Y84691D01*
X57153Y84748D01*
X57082Y84813D01*
X57041Y84833D01*
X57005Y84860D01*
X56915Y84894D01*
X56828Y84936D01*
X56786Y84942D01*
X56741Y84959D01*
X56613Y84969D01*
X56524Y84983D01*
X49453Y84983D01*
X49390Y84974D01*
X49326Y84975D01*
X49251Y84954D01*
X49174Y84943D01*
X49116Y84917D01*
X49054Y84900D01*
X48988Y84859D01*
X48917Y84827D01*
X48869Y84785D01*
X48814Y84752D01*
X48762Y84694D01*
X48703Y84644D01*
X48668Y84590D01*
X48625Y84542D01*
X48591Y84473D01*
X48549Y84408D01*
X48530Y84346D01*
X48502Y84289D01*
X48491Y84219D01*
X48466Y84138D01*
X48465Y84053D01*
X48454Y83984D01*
X48454Y81466D01*
X47859Y80871D01*
X38761Y80871D01*
X38677Y80859D01*
X38591Y80856D01*
X38538Y80839D01*
X38482Y80831D01*
X38404Y80796D01*
X38323Y80769D01*
X38276Y80738D01*
X38225Y80715D01*
X38160Y80659D01*
X38089Y80611D01*
X38057Y80571D01*
X38011Y80531D01*
X37949Y80437D01*
X37896Y80371D01*
X37871Y80327D01*
X37398Y79854D01*
X36818Y79520D01*
X36172Y79347D01*
X33587Y79347D01*
G37*
%LPD*%
%LPC*%
G36*
X33699Y54209D02*
X33699Y54209D01*
X33699Y60250D01*
X33690Y60314D01*
X33691Y60378D01*
X33670Y60452D01*
X33659Y60529D01*
X33633Y60588D01*
X33616Y60650D01*
X33575Y60716D01*
X33543Y60786D01*
X33501Y60835D01*
X33468Y60890D01*
X33410Y60941D01*
X33360Y61000D01*
X33306Y61036D01*
X33258Y61079D01*
X33189Y61112D01*
X33124Y61155D01*
X33062Y61174D01*
X33005Y61202D01*
X32935Y61212D01*
X32854Y61237D01*
X32769Y61238D01*
X32700Y61249D01*
X31699Y61249D01*
X31699Y61251D01*
X32700Y61251D01*
X32764Y61260D01*
X32828Y61259D01*
X32903Y61280D01*
X32979Y61291D01*
X33038Y61317D01*
X33100Y61334D01*
X33166Y61375D01*
X33236Y61407D01*
X33285Y61449D01*
X33340Y61482D01*
X33392Y61540D01*
X33450Y61590D01*
X33486Y61644D01*
X33529Y61692D01*
X33562Y61761D01*
X33605Y61826D01*
X33624Y61888D01*
X33652Y61946D01*
X33662Y62015D01*
X33687Y62096D01*
X33688Y62181D01*
X33699Y62250D01*
X33699Y68291D01*
X36285Y68291D01*
X36931Y68118D01*
X37510Y67783D01*
X37983Y67310D01*
X38008Y67266D01*
X38061Y67199D01*
X38106Y67126D01*
X38148Y67089D01*
X38182Y67044D01*
X38252Y66995D01*
X38315Y66937D01*
X38366Y66913D01*
X38412Y66880D01*
X38492Y66852D01*
X38569Y66814D01*
X38621Y66806D01*
X38677Y66786D01*
X38789Y66780D01*
X38874Y66767D01*
X47971Y66767D01*
X48567Y66171D01*
X48567Y64016D01*
X48576Y63952D01*
X48575Y63888D01*
X48596Y63813D01*
X48607Y63737D01*
X48633Y63678D01*
X48650Y63616D01*
X48691Y63550D01*
X48723Y63480D01*
X48765Y63431D01*
X48798Y63376D01*
X48856Y63324D01*
X48906Y63266D01*
X48960Y63230D01*
X49008Y63187D01*
X49077Y63154D01*
X49142Y63111D01*
X49204Y63092D01*
X49261Y63064D01*
X49331Y63053D01*
X49412Y63029D01*
X49497Y63028D01*
X49566Y63017D01*
X52523Y63017D01*
X52618Y63030D01*
X52715Y63035D01*
X52758Y63050D01*
X52803Y63057D01*
X52890Y63096D01*
X52981Y63128D01*
X53015Y63153D01*
X53060Y63173D01*
X53157Y63256D01*
X53230Y63309D01*
X55219Y65299D01*
X58781Y65299D01*
X61299Y62781D01*
X61299Y59219D01*
X58781Y56701D01*
X55219Y56701D01*
X53230Y58691D01*
X53153Y58748D01*
X53082Y58813D01*
X53041Y58833D01*
X53004Y58860D01*
X52914Y58894D01*
X52828Y58936D01*
X52786Y58942D01*
X52741Y58959D01*
X52613Y58969D01*
X52523Y58983D01*
X49566Y58983D01*
X49502Y58974D01*
X49438Y58975D01*
X49363Y58954D01*
X49287Y58943D01*
X49228Y58917D01*
X49166Y58900D01*
X49100Y58859D01*
X49030Y58827D01*
X48981Y58785D01*
X48926Y58752D01*
X48874Y58694D01*
X48816Y58644D01*
X48780Y58590D01*
X48737Y58542D01*
X48704Y58473D01*
X48661Y58408D01*
X48642Y58346D01*
X48614Y58289D01*
X48603Y58219D01*
X48579Y58138D01*
X48578Y58053D01*
X48567Y57984D01*
X48567Y56329D01*
X47971Y55733D01*
X38874Y55733D01*
X38789Y55721D01*
X38704Y55719D01*
X38650Y55701D01*
X38594Y55693D01*
X38517Y55658D01*
X38435Y55632D01*
X38389Y55600D01*
X38338Y55577D01*
X38273Y55522D01*
X38202Y55474D01*
X38169Y55433D01*
X38123Y55394D01*
X38062Y55300D01*
X38008Y55234D01*
X37983Y55190D01*
X37510Y54717D01*
X36931Y54382D01*
X36285Y54209D01*
X33699Y54209D01*
G37*
%LPD*%
%LPC*%
G36*
X49689Y32724D02*
X49689Y32724D01*
X49849Y33530D01*
X50477Y35046D01*
X51389Y36411D01*
X52549Y37571D01*
X53914Y38483D01*
X55066Y38960D01*
X55094Y38977D01*
X55126Y38987D01*
X55216Y39048D01*
X55309Y39104D01*
X55331Y39127D01*
X55359Y39146D01*
X55428Y39230D01*
X55502Y39309D01*
X55517Y39339D01*
X55538Y39364D01*
X55580Y39464D01*
X55630Y39561D01*
X55636Y39593D01*
X55649Y39623D01*
X55662Y39731D01*
X55682Y39838D01*
X55679Y39870D01*
X55683Y39903D01*
X55665Y40011D01*
X55655Y40118D01*
X55643Y40149D01*
X55637Y40182D01*
X55591Y40280D01*
X55550Y40380D01*
X55530Y40406D01*
X55516Y40436D01*
X55444Y40517D01*
X55377Y40603D01*
X55350Y40622D01*
X55328Y40647D01*
X55318Y40653D01*
X53687Y42284D01*
X52849Y44306D01*
X52849Y46494D01*
X53687Y48516D01*
X55234Y50063D01*
X57256Y50901D01*
X59444Y50901D01*
X61466Y50063D01*
X63013Y48516D01*
X63851Y46494D01*
X63851Y44306D01*
X63013Y42284D01*
X61866Y41137D01*
X61846Y41111D01*
X61822Y41090D01*
X61762Y40998D01*
X61696Y40911D01*
X61685Y40881D01*
X61667Y40854D01*
X61635Y40749D01*
X61597Y40647D01*
X61594Y40615D01*
X61585Y40584D01*
X61584Y40475D01*
X61575Y40366D01*
X61582Y40334D01*
X61581Y40302D01*
X61610Y40197D01*
X61633Y40090D01*
X61648Y40061D01*
X61656Y40030D01*
X61714Y39937D01*
X61765Y39841D01*
X61788Y39818D01*
X61805Y39790D01*
X61886Y39717D01*
X61962Y39639D01*
X61990Y39623D01*
X62014Y39601D01*
X62026Y39596D01*
X62026Y32724D01*
X49689Y32724D01*
G37*
%LPD*%
%LPC*%
G36*
X57256Y97699D02*
X57256Y97699D01*
X55234Y98537D01*
X53687Y100084D01*
X52849Y102106D01*
X52849Y104294D01*
X53687Y106316D01*
X55306Y107936D01*
X55308Y107937D01*
X55317Y107947D01*
X55333Y107962D01*
X55358Y107979D01*
X55427Y108063D01*
X55501Y108142D01*
X55516Y108171D01*
X55537Y108197D01*
X55580Y108296D01*
X55629Y108393D01*
X55635Y108426D01*
X55648Y108456D01*
X55662Y108564D01*
X55682Y108670D01*
X55679Y108703D01*
X55683Y108736D01*
X55666Y108843D01*
X55655Y108951D01*
X55643Y108982D01*
X55638Y109014D01*
X55591Y109112D01*
X55551Y109213D01*
X55531Y109239D01*
X55517Y109269D01*
X55445Y109350D01*
X55378Y109436D01*
X55351Y109455D01*
X55329Y109480D01*
X55252Y109527D01*
X55149Y109601D01*
X55103Y109618D01*
X55066Y109640D01*
X53914Y110117D01*
X52549Y111029D01*
X51389Y112189D01*
X50477Y113554D01*
X49849Y115070D01*
X49689Y115876D01*
X62026Y115876D01*
X62026Y109004D01*
X62012Y108992D01*
X61983Y108977D01*
X61905Y108901D01*
X61822Y108830D01*
X61804Y108803D01*
X61781Y108780D01*
X61727Y108685D01*
X61667Y108594D01*
X61658Y108563D01*
X61642Y108535D01*
X61617Y108429D01*
X61585Y108324D01*
X61585Y108292D01*
X61577Y108261D01*
X61583Y108151D01*
X61581Y108042D01*
X61590Y108011D01*
X61592Y107979D01*
X61627Y107876D01*
X61656Y107770D01*
X61673Y107743D01*
X61684Y107712D01*
X61737Y107639D01*
X61805Y107530D01*
X61841Y107498D01*
X61866Y107463D01*
X63013Y106316D01*
X63851Y104294D01*
X63851Y102106D01*
X63013Y100084D01*
X61466Y98537D01*
X59444Y97699D01*
X57256Y97699D01*
G37*
%LPD*%
%LPC*%
G36*
X65274Y32724D02*
X65274Y32724D01*
X65274Y39431D01*
X70260Y39431D01*
X71870Y39111D01*
X73386Y38483D01*
X74751Y37571D01*
X75911Y36411D01*
X76823Y35046D01*
X77451Y33530D01*
X77611Y32724D01*
X65274Y32724D01*
G37*
%LPD*%
%LPC*%
G36*
X23474Y32724D02*
X23474Y32724D01*
X23474Y39431D01*
X28460Y39431D01*
X30070Y39111D01*
X31586Y38483D01*
X32951Y37571D01*
X34111Y36411D01*
X35023Y35046D01*
X35651Y33530D01*
X35811Y32724D01*
X23474Y32724D01*
G37*
%LPD*%
%LPC*%
G36*
X7889Y32724D02*
X7889Y32724D01*
X8049Y33530D01*
X8677Y35046D01*
X9589Y36411D01*
X10749Y37571D01*
X12114Y38483D01*
X13630Y39111D01*
X15240Y39431D01*
X20226Y39431D01*
X20226Y32724D01*
X7889Y32724D01*
G37*
%LPD*%
%LPC*%
G36*
X65274Y109169D02*
X65274Y109169D01*
X65274Y115876D01*
X77611Y115876D01*
X77451Y115070D01*
X76823Y113554D01*
X75911Y112189D01*
X74751Y111029D01*
X73386Y110117D01*
X71870Y109489D01*
X70260Y109169D01*
X65274Y109169D01*
G37*
%LPD*%
%LPC*%
G36*
X23474Y109169D02*
X23474Y109169D01*
X23474Y115876D01*
X35811Y115876D01*
X35651Y115070D01*
X35023Y113554D01*
X34111Y112189D01*
X32951Y111029D01*
X31586Y110117D01*
X30070Y109489D01*
X28460Y109169D01*
X23474Y109169D01*
G37*
%LPD*%
%LPC*%
G36*
X15240Y109169D02*
X15240Y109169D01*
X13630Y109489D01*
X12114Y110117D01*
X10749Y111029D01*
X9589Y112189D01*
X8677Y113554D01*
X8049Y115070D01*
X7889Y115876D01*
X20226Y115876D01*
X20226Y109169D01*
X15240Y109169D01*
G37*
%LPD*%
%LPC*%
G36*
X91999Y47799D02*
X91999Y47799D01*
X91999Y52591D01*
X94835Y52591D01*
X95481Y52418D01*
X96060Y52083D01*
X96533Y51610D01*
X96868Y51031D01*
X97041Y50385D01*
X97041Y47799D01*
X91999Y47799D01*
G37*
%LPD*%
%LPC*%
G36*
X82959Y47799D02*
X82959Y47799D01*
X82959Y50385D01*
X83132Y51031D01*
X83467Y51610D01*
X83940Y52083D01*
X84519Y52418D01*
X85165Y52591D01*
X88001Y52591D01*
X88001Y47799D01*
X82959Y47799D01*
G37*
%LPD*%
%LPC*%
G36*
X24797Y88387D02*
X24797Y88387D01*
X24797Y91222D01*
X24970Y91868D01*
X25304Y92448D01*
X25777Y92921D01*
X26357Y93255D01*
X27003Y93428D01*
X29588Y93428D01*
X29588Y88387D01*
X24797Y88387D01*
G37*
%LPD*%
%LPC*%
G36*
X24909Y63249D02*
X24909Y63249D01*
X24909Y66085D01*
X25082Y66731D01*
X25417Y67310D01*
X25890Y67783D01*
X26469Y68118D01*
X27115Y68291D01*
X29701Y68291D01*
X29701Y63249D01*
X24909Y63249D01*
G37*
%LPD*%
%LPC*%
G36*
X268999Y106409D02*
X268999Y106409D01*
X268999Y111201D01*
X274041Y111201D01*
X274041Y108615D01*
X273868Y107969D01*
X273533Y107390D01*
X273060Y106917D01*
X272481Y106582D01*
X271835Y106409D01*
X268999Y106409D01*
G37*
%LPD*%
%LPC*%
G36*
X296999Y106409D02*
X296999Y106409D01*
X296999Y111201D01*
X302041Y111201D01*
X302041Y108615D01*
X301868Y107969D01*
X301533Y107390D01*
X301060Y106917D01*
X300481Y106582D01*
X299835Y106409D01*
X296999Y106409D01*
G37*
%LPD*%
%LPC*%
G36*
X290165Y106409D02*
X290165Y106409D01*
X289519Y106582D01*
X288940Y106917D01*
X288467Y107390D01*
X288132Y107969D01*
X287959Y108615D01*
X287959Y111201D01*
X293001Y111201D01*
X293001Y106409D01*
X290165Y106409D01*
G37*
%LPD*%
%LPC*%
G36*
X27003Y79347D02*
X27003Y79347D01*
X26357Y79520D01*
X25777Y79854D01*
X25304Y80327D01*
X24970Y80907D01*
X24797Y81553D01*
X24797Y84388D01*
X29588Y84388D01*
X29588Y79347D01*
X27003Y79347D01*
G37*
%LPD*%
%LPC*%
G36*
X27115Y54209D02*
X27115Y54209D01*
X26469Y54382D01*
X25890Y54717D01*
X25417Y55190D01*
X25082Y55769D01*
X24909Y56415D01*
X24909Y59251D01*
X29701Y59251D01*
X29701Y54209D01*
X27115Y54209D01*
G37*
%LPD*%
%LPC*%
G36*
X215559Y8649D02*
X215559Y8649D01*
X215599Y8850D01*
X216167Y10222D01*
X216993Y11457D01*
X218043Y12507D01*
X219278Y13333D01*
X220650Y13901D01*
X220851Y13941D01*
X220851Y8649D01*
X215559Y8649D01*
G37*
%LPD*%
D10*
X57860Y117500D02*
X69440Y117500D01*
X69440Y31100D02*
X57860Y31100D01*
X27640Y117500D02*
X16060Y117500D01*
X16060Y31100D02*
X27640Y31100D01*
D11*
X31588Y86388D03*
X43188Y86388D03*
X43300Y61250D03*
X31700Y61250D03*
D12*
X222850Y6650D03*
X235350Y6650D03*
X248250Y6550D03*
X260950Y6650D03*
X273650Y6750D03*
X286300Y6650D03*
X299100Y6650D03*
D13*
X90000Y45800D03*
X90000Y34200D03*
X267000Y124800D03*
X267000Y113200D03*
X295000Y124800D03*
X295000Y113200D03*
D14*
X123387Y72350D03*
X159000Y58000D03*
X195000Y44000D03*
X195000Y56000D03*
X195000Y68000D03*
X300000Y95000D03*
X300000Y84000D03*
X300000Y73000D03*
X300000Y62000D03*
X300000Y51000D03*
X300000Y40000D03*
X195000Y79000D03*
X195000Y91000D03*
X156000Y113000D03*
X156000Y127000D03*
X159000Y48000D03*
X258000Y23000D03*
X156000Y140000D03*
X101387Y97350D03*
X238422Y22637D03*
X187000Y6000D03*
X150000Y6000D03*
X171000Y140000D03*
X186000Y140000D03*
X102387Y64350D03*
X61000Y87000D03*
D15*
X43800Y87000D02*
X43188Y86388D01*
X43800Y87000D02*
X61000Y87000D01*
D14*
X140000Y118000D03*
X211000Y22000D03*
D16*
X140000Y51000D02*
X140000Y118000D01*
X169000Y22000D02*
X179000Y22000D01*
X211000Y22000D01*
X169000Y22000D02*
X140000Y51000D01*
X211000Y22000D02*
X226000Y22000D01*
X235350Y12650D02*
X235350Y6650D01*
X235350Y12650D02*
X226000Y22000D01*
D14*
X105000Y50000D03*
D16*
X106000Y51000D02*
X140000Y51000D01*
X106000Y51000D02*
X105000Y50000D01*
D14*
X96391Y14994D03*
D16*
X105000Y23602D02*
X105000Y50000D01*
X105000Y23602D02*
X96391Y14994D01*
D14*
X178000Y6000D03*
D16*
X178000Y21000D01*
X179000Y22000D01*
D14*
X285000Y125000D03*
D15*
X294800Y125000D01*
X295000Y124800D01*
D14*
X276000Y125000D03*
D15*
X267200Y125000D02*
X267000Y124800D01*
X267200Y125000D02*
X276000Y125000D01*
D14*
X249000Y121000D03*
D15*
X250531Y121000D02*
X254282Y117249D01*
X250531Y121000D02*
X249000Y121000D01*
X254282Y117249D02*
X254282Y35453D01*
X259251Y30484D01*
X286300Y6650D02*
X294084Y14434D01*
X289251Y30484D02*
X259251Y30484D01*
X289251Y30484D02*
X294084Y25651D01*
X294084Y14434D01*
X257298Y36702D02*
X257298Y121000D01*
X290500Y33500D02*
X297100Y26900D01*
X260500Y33500D02*
X257298Y36702D01*
X260500Y33500D02*
X290500Y33500D01*
X297100Y26900D02*
X297100Y8650D01*
X299100Y6650D01*
D14*
X211000Y127000D03*
D15*
X251298Y127000D01*
X257298Y121000D01*
D14*
X287000Y22000D03*
D15*
X273650Y19650D02*
X273650Y6750D01*
X273650Y19650D02*
X276000Y22000D01*
X287000Y22000D01*
D14*
X192000Y118000D03*
D15*
X238096Y113169D02*
X251266Y99999D01*
X197831Y113169D02*
X193000Y118000D01*
X192000Y118000D01*
X197831Y113169D02*
X238096Y113169D01*
X251266Y16334D02*
X260950Y6650D01*
X251266Y16334D02*
X251266Y99999D01*
D14*
X192000Y105000D03*
D15*
X248250Y98750D02*
X248250Y6550D01*
X248250Y98750D02*
X237000Y110000D01*
X198000Y110000D01*
X193000Y105000D01*
X192000Y105000D01*
D14*
X151000Y103000D03*
X149000Y66000D03*
D15*
X145000Y97000D02*
X151000Y103000D01*
X145000Y97000D02*
X145000Y70000D01*
X149000Y66000D01*
D14*
X57000Y61000D03*
D15*
X43550Y61000D01*
X43300Y61250D01*
D14*
X96000Y25000D03*
D15*
X90000Y27000D02*
X90000Y34200D01*
X90000Y27000D02*
X92000Y25000D01*
X96000Y25000D01*
M02*
