G04 EAGLE Gerber RS-274X export*
G75*
%MOMM*%
%FSLAX34Y34*%
%LPD*%
%INSilkscreen Top*%
%IPPOS*%
%AMOC8*
5,1,8,0,0,1.08239X$1,22.5*%
G01*
%ADD10C,0.076200*%
%ADD11C,0.127000*%
%ADD12C,0.200000*%
%ADD13C,0.203200*%
%ADD14C,0.254000*%
%ADD15C,0.152400*%


D10*
X205201Y121704D02*
X205201Y114394D01*
X205199Y114305D01*
X205193Y114217D01*
X205184Y114129D01*
X205171Y114041D01*
X205154Y113954D01*
X205134Y113868D01*
X205109Y113783D01*
X205082Y113698D01*
X205050Y113615D01*
X205016Y113534D01*
X204977Y113454D01*
X204936Y113376D01*
X204891Y113299D01*
X204843Y113225D01*
X204792Y113152D01*
X204738Y113082D01*
X204680Y113015D01*
X204620Y112949D01*
X204558Y112887D01*
X204492Y112827D01*
X204425Y112769D01*
X204355Y112715D01*
X204282Y112664D01*
X204208Y112616D01*
X204131Y112571D01*
X204053Y112530D01*
X203973Y112491D01*
X203892Y112457D01*
X203809Y112425D01*
X203724Y112398D01*
X203639Y112373D01*
X203553Y112353D01*
X203466Y112336D01*
X203378Y112323D01*
X203290Y112314D01*
X203202Y112308D01*
X203113Y112306D01*
X202069Y112306D01*
X209715Y112306D02*
X209715Y121704D01*
X209715Y112306D02*
X213892Y112306D01*
X219380Y112306D02*
X221469Y112306D01*
X219380Y112306D02*
X219291Y112308D01*
X219203Y112314D01*
X219115Y112323D01*
X219027Y112336D01*
X218940Y112353D01*
X218854Y112373D01*
X218769Y112398D01*
X218684Y112425D01*
X218601Y112457D01*
X218520Y112491D01*
X218440Y112530D01*
X218362Y112571D01*
X218285Y112616D01*
X218211Y112664D01*
X218138Y112715D01*
X218068Y112769D01*
X218001Y112827D01*
X217935Y112887D01*
X217873Y112949D01*
X217813Y113015D01*
X217755Y113082D01*
X217701Y113152D01*
X217650Y113225D01*
X217602Y113299D01*
X217557Y113376D01*
X217516Y113454D01*
X217477Y113534D01*
X217443Y113615D01*
X217411Y113698D01*
X217384Y113783D01*
X217359Y113868D01*
X217339Y113954D01*
X217322Y114041D01*
X217309Y114129D01*
X217300Y114217D01*
X217294Y114305D01*
X217292Y114394D01*
X217292Y119616D01*
X217294Y119707D01*
X217300Y119798D01*
X217310Y119889D01*
X217324Y119979D01*
X217341Y120068D01*
X217363Y120156D01*
X217389Y120244D01*
X217418Y120330D01*
X217451Y120415D01*
X217488Y120498D01*
X217528Y120580D01*
X217572Y120660D01*
X217619Y120738D01*
X217670Y120814D01*
X217723Y120887D01*
X217780Y120958D01*
X217841Y121027D01*
X217904Y121092D01*
X217969Y121155D01*
X218038Y121215D01*
X218109Y121273D01*
X218182Y121326D01*
X218258Y121377D01*
X218336Y121424D01*
X218416Y121468D01*
X218498Y121508D01*
X218581Y121545D01*
X218666Y121578D01*
X218752Y121607D01*
X218840Y121633D01*
X218928Y121655D01*
X219017Y121672D01*
X219107Y121686D01*
X219198Y121696D01*
X219289Y121702D01*
X219380Y121704D01*
X221469Y121704D01*
X227147Y121704D02*
X227147Y114394D01*
X227146Y114394D02*
X227144Y114305D01*
X227138Y114217D01*
X227129Y114129D01*
X227116Y114041D01*
X227099Y113954D01*
X227079Y113868D01*
X227054Y113783D01*
X227027Y113698D01*
X226995Y113615D01*
X226961Y113534D01*
X226922Y113454D01*
X226881Y113376D01*
X226836Y113299D01*
X226788Y113225D01*
X226737Y113152D01*
X226683Y113082D01*
X226625Y113015D01*
X226565Y112949D01*
X226503Y112887D01*
X226437Y112827D01*
X226370Y112769D01*
X226300Y112715D01*
X226227Y112664D01*
X226153Y112616D01*
X226076Y112571D01*
X225998Y112530D01*
X225918Y112491D01*
X225837Y112457D01*
X225754Y112425D01*
X225669Y112398D01*
X225584Y112373D01*
X225498Y112353D01*
X225411Y112336D01*
X225323Y112323D01*
X225235Y112314D01*
X225147Y112308D01*
X225058Y112306D01*
X224014Y112306D01*
X231661Y112306D02*
X231661Y121704D01*
X231661Y112306D02*
X235837Y112306D01*
X241326Y112306D02*
X243414Y112306D01*
X241326Y112306D02*
X241237Y112308D01*
X241149Y112314D01*
X241061Y112323D01*
X240973Y112336D01*
X240886Y112353D01*
X240800Y112373D01*
X240715Y112398D01*
X240630Y112425D01*
X240547Y112457D01*
X240466Y112491D01*
X240386Y112530D01*
X240308Y112571D01*
X240231Y112616D01*
X240157Y112664D01*
X240084Y112715D01*
X240014Y112769D01*
X239947Y112827D01*
X239881Y112887D01*
X239819Y112949D01*
X239759Y113015D01*
X239701Y113082D01*
X239647Y113152D01*
X239596Y113225D01*
X239548Y113299D01*
X239503Y113376D01*
X239462Y113454D01*
X239423Y113534D01*
X239389Y113615D01*
X239357Y113698D01*
X239330Y113783D01*
X239305Y113868D01*
X239285Y113954D01*
X239268Y114041D01*
X239255Y114129D01*
X239246Y114217D01*
X239240Y114305D01*
X239238Y114394D01*
X239237Y114394D02*
X239237Y119616D01*
X239238Y119616D02*
X239240Y119707D01*
X239246Y119798D01*
X239256Y119889D01*
X239270Y119979D01*
X239287Y120068D01*
X239309Y120156D01*
X239335Y120244D01*
X239364Y120330D01*
X239397Y120415D01*
X239434Y120498D01*
X239474Y120580D01*
X239518Y120660D01*
X239565Y120738D01*
X239616Y120814D01*
X239669Y120887D01*
X239726Y120958D01*
X239787Y121027D01*
X239850Y121092D01*
X239915Y121155D01*
X239984Y121215D01*
X240055Y121273D01*
X240128Y121326D01*
X240204Y121377D01*
X240282Y121424D01*
X240362Y121468D01*
X240444Y121508D01*
X240527Y121545D01*
X240612Y121578D01*
X240698Y121607D01*
X240786Y121633D01*
X240874Y121655D01*
X240963Y121672D01*
X241053Y121686D01*
X241144Y121696D01*
X241235Y121702D01*
X241326Y121704D01*
X243414Y121704D01*
X249092Y121704D02*
X249092Y114394D01*
X249090Y114305D01*
X249084Y114217D01*
X249075Y114129D01*
X249062Y114041D01*
X249045Y113954D01*
X249025Y113868D01*
X249000Y113783D01*
X248973Y113698D01*
X248941Y113615D01*
X248907Y113534D01*
X248868Y113454D01*
X248827Y113376D01*
X248782Y113299D01*
X248734Y113225D01*
X248683Y113152D01*
X248629Y113082D01*
X248571Y113015D01*
X248511Y112949D01*
X248449Y112887D01*
X248383Y112827D01*
X248316Y112769D01*
X248246Y112715D01*
X248173Y112664D01*
X248099Y112616D01*
X248022Y112571D01*
X247944Y112530D01*
X247864Y112491D01*
X247783Y112457D01*
X247700Y112425D01*
X247615Y112398D01*
X247530Y112373D01*
X247444Y112353D01*
X247357Y112336D01*
X247269Y112323D01*
X247181Y112314D01*
X247093Y112308D01*
X247004Y112306D01*
X245959Y112306D01*
X253606Y112306D02*
X253606Y121704D01*
X253606Y112306D02*
X257783Y112306D01*
X263271Y112306D02*
X265360Y112306D01*
X263271Y112306D02*
X263182Y112308D01*
X263094Y112314D01*
X263006Y112323D01*
X262918Y112336D01*
X262831Y112353D01*
X262745Y112373D01*
X262660Y112398D01*
X262575Y112425D01*
X262492Y112457D01*
X262411Y112491D01*
X262331Y112530D01*
X262253Y112571D01*
X262176Y112616D01*
X262102Y112664D01*
X262029Y112715D01*
X261959Y112769D01*
X261892Y112827D01*
X261826Y112887D01*
X261764Y112949D01*
X261704Y113015D01*
X261646Y113082D01*
X261592Y113152D01*
X261541Y113225D01*
X261493Y113299D01*
X261448Y113376D01*
X261407Y113454D01*
X261368Y113534D01*
X261334Y113615D01*
X261302Y113698D01*
X261275Y113783D01*
X261250Y113868D01*
X261230Y113954D01*
X261213Y114041D01*
X261200Y114129D01*
X261191Y114217D01*
X261185Y114305D01*
X261183Y114394D01*
X261183Y119616D01*
X261185Y119707D01*
X261191Y119798D01*
X261201Y119889D01*
X261215Y119979D01*
X261232Y120068D01*
X261254Y120156D01*
X261280Y120244D01*
X261309Y120330D01*
X261342Y120415D01*
X261379Y120498D01*
X261419Y120580D01*
X261463Y120660D01*
X261510Y120738D01*
X261561Y120814D01*
X261614Y120887D01*
X261671Y120958D01*
X261732Y121027D01*
X261795Y121092D01*
X261860Y121155D01*
X261929Y121215D01*
X262000Y121273D01*
X262073Y121326D01*
X262149Y121377D01*
X262227Y121424D01*
X262307Y121468D01*
X262389Y121508D01*
X262472Y121545D01*
X262557Y121578D01*
X262643Y121607D01*
X262731Y121633D01*
X262819Y121655D01*
X262908Y121672D01*
X262998Y121686D01*
X263089Y121696D01*
X263180Y121702D01*
X263271Y121704D01*
X265360Y121704D01*
X271038Y121704D02*
X271038Y114394D01*
X271037Y114394D02*
X271035Y114305D01*
X271029Y114217D01*
X271020Y114129D01*
X271007Y114041D01*
X270990Y113954D01*
X270970Y113868D01*
X270945Y113783D01*
X270918Y113698D01*
X270886Y113615D01*
X270852Y113534D01*
X270813Y113454D01*
X270772Y113376D01*
X270727Y113299D01*
X270679Y113225D01*
X270628Y113152D01*
X270574Y113082D01*
X270516Y113015D01*
X270456Y112949D01*
X270394Y112887D01*
X270328Y112827D01*
X270261Y112769D01*
X270191Y112715D01*
X270118Y112664D01*
X270044Y112616D01*
X269967Y112571D01*
X269889Y112530D01*
X269809Y112491D01*
X269728Y112457D01*
X269645Y112425D01*
X269560Y112398D01*
X269475Y112373D01*
X269389Y112353D01*
X269302Y112336D01*
X269214Y112323D01*
X269126Y112314D01*
X269038Y112308D01*
X268949Y112306D01*
X267905Y112306D01*
X275552Y112306D02*
X275552Y121704D01*
X275552Y112306D02*
X279728Y112306D01*
X285217Y112306D02*
X287305Y112306D01*
X285217Y112306D02*
X285128Y112308D01*
X285040Y112314D01*
X284952Y112323D01*
X284864Y112336D01*
X284777Y112353D01*
X284691Y112373D01*
X284606Y112398D01*
X284521Y112425D01*
X284438Y112457D01*
X284357Y112491D01*
X284277Y112530D01*
X284199Y112571D01*
X284122Y112616D01*
X284048Y112664D01*
X283975Y112715D01*
X283905Y112769D01*
X283838Y112827D01*
X283772Y112887D01*
X283710Y112949D01*
X283650Y113015D01*
X283592Y113082D01*
X283538Y113152D01*
X283487Y113225D01*
X283439Y113299D01*
X283394Y113376D01*
X283353Y113454D01*
X283314Y113534D01*
X283280Y113615D01*
X283248Y113698D01*
X283221Y113783D01*
X283196Y113868D01*
X283176Y113954D01*
X283159Y114041D01*
X283146Y114129D01*
X283137Y114217D01*
X283131Y114305D01*
X283129Y114394D01*
X283128Y114394D02*
X283128Y119616D01*
X283129Y119616D02*
X283131Y119707D01*
X283137Y119798D01*
X283147Y119889D01*
X283161Y119979D01*
X283178Y120068D01*
X283200Y120156D01*
X283226Y120244D01*
X283255Y120330D01*
X283288Y120415D01*
X283325Y120498D01*
X283365Y120580D01*
X283409Y120660D01*
X283456Y120738D01*
X283507Y120814D01*
X283560Y120887D01*
X283617Y120958D01*
X283678Y121027D01*
X283741Y121092D01*
X283806Y121155D01*
X283875Y121215D01*
X283946Y121273D01*
X284019Y121326D01*
X284095Y121377D01*
X284173Y121424D01*
X284253Y121468D01*
X284335Y121508D01*
X284418Y121545D01*
X284503Y121578D01*
X284589Y121607D01*
X284677Y121633D01*
X284765Y121655D01*
X284854Y121672D01*
X284944Y121686D01*
X285035Y121696D01*
X285126Y121702D01*
X285217Y121704D01*
X287305Y121704D01*
D11*
X151346Y138330D02*
X149822Y138330D01*
X149745Y138332D01*
X149668Y138338D01*
X149591Y138348D01*
X149515Y138361D01*
X149440Y138379D01*
X149366Y138400D01*
X149293Y138425D01*
X149221Y138454D01*
X149151Y138486D01*
X149082Y138521D01*
X149016Y138561D01*
X148951Y138603D01*
X148889Y138649D01*
X148829Y138698D01*
X148772Y138749D01*
X148717Y138804D01*
X148666Y138861D01*
X148617Y138921D01*
X148571Y138983D01*
X148529Y139048D01*
X148489Y139114D01*
X148454Y139183D01*
X148422Y139253D01*
X148393Y139325D01*
X148368Y139398D01*
X148347Y139472D01*
X148329Y139547D01*
X148316Y139623D01*
X148306Y139700D01*
X148300Y139777D01*
X148298Y139854D01*
X148298Y143664D01*
X148300Y143741D01*
X148306Y143818D01*
X148316Y143895D01*
X148329Y143971D01*
X148347Y144046D01*
X148368Y144120D01*
X148393Y144193D01*
X148422Y144265D01*
X148454Y144335D01*
X148489Y144404D01*
X148529Y144470D01*
X148571Y144535D01*
X148617Y144597D01*
X148666Y144657D01*
X148717Y144714D01*
X148772Y144769D01*
X148829Y144820D01*
X148889Y144869D01*
X148951Y144915D01*
X149016Y144957D01*
X149082Y144997D01*
X149151Y145032D01*
X149221Y145064D01*
X149293Y145093D01*
X149366Y145118D01*
X149440Y145139D01*
X149515Y145157D01*
X149591Y145170D01*
X149668Y145180D01*
X149745Y145186D01*
X149822Y145188D01*
X151346Y145188D01*
X155949Y145188D02*
X154425Y139854D01*
X158235Y139854D01*
X157092Y141378D02*
X157092Y138330D01*
X100926Y136671D02*
X99402Y136671D01*
X99325Y136673D01*
X99248Y136679D01*
X99171Y136689D01*
X99095Y136702D01*
X99020Y136720D01*
X98946Y136741D01*
X98873Y136766D01*
X98801Y136795D01*
X98731Y136827D01*
X98662Y136862D01*
X98596Y136902D01*
X98531Y136944D01*
X98469Y136990D01*
X98409Y137039D01*
X98352Y137090D01*
X98297Y137145D01*
X98246Y137202D01*
X98197Y137262D01*
X98151Y137324D01*
X98109Y137389D01*
X98069Y137455D01*
X98034Y137524D01*
X98002Y137594D01*
X97973Y137666D01*
X97948Y137739D01*
X97927Y137813D01*
X97909Y137888D01*
X97896Y137964D01*
X97886Y138041D01*
X97880Y138118D01*
X97878Y138195D01*
X97878Y142005D01*
X97880Y142082D01*
X97886Y142159D01*
X97896Y142236D01*
X97909Y142312D01*
X97927Y142387D01*
X97948Y142461D01*
X97973Y142534D01*
X98002Y142606D01*
X98034Y142676D01*
X98069Y142745D01*
X98109Y142811D01*
X98151Y142876D01*
X98197Y142938D01*
X98246Y142998D01*
X98297Y143055D01*
X98352Y143110D01*
X98409Y143161D01*
X98469Y143210D01*
X98531Y143256D01*
X98596Y143298D01*
X98662Y143338D01*
X98731Y143373D01*
X98801Y143405D01*
X98873Y143434D01*
X98946Y143459D01*
X99020Y143480D01*
X99095Y143498D01*
X99171Y143511D01*
X99248Y143521D01*
X99325Y143527D01*
X99402Y143529D01*
X100926Y143529D01*
X104005Y136671D02*
X105910Y136671D01*
X105995Y136673D01*
X106081Y136679D01*
X106166Y136688D01*
X106250Y136702D01*
X106334Y136719D01*
X106417Y136740D01*
X106499Y136764D01*
X106579Y136792D01*
X106659Y136824D01*
X106737Y136860D01*
X106813Y136898D01*
X106887Y136941D01*
X106959Y136986D01*
X107030Y137035D01*
X107098Y137087D01*
X107163Y137141D01*
X107226Y137199D01*
X107287Y137260D01*
X107345Y137323D01*
X107399Y137388D01*
X107451Y137456D01*
X107500Y137527D01*
X107545Y137599D01*
X107588Y137673D01*
X107626Y137749D01*
X107662Y137827D01*
X107694Y137907D01*
X107722Y137987D01*
X107746Y138069D01*
X107767Y138152D01*
X107784Y138236D01*
X107798Y138320D01*
X107807Y138405D01*
X107813Y138491D01*
X107815Y138576D01*
X107813Y138661D01*
X107807Y138747D01*
X107798Y138832D01*
X107784Y138916D01*
X107767Y139000D01*
X107746Y139083D01*
X107722Y139165D01*
X107694Y139245D01*
X107662Y139325D01*
X107626Y139403D01*
X107588Y139479D01*
X107545Y139553D01*
X107500Y139625D01*
X107451Y139696D01*
X107399Y139764D01*
X107345Y139829D01*
X107287Y139892D01*
X107226Y139953D01*
X107163Y140011D01*
X107098Y140065D01*
X107030Y140117D01*
X106959Y140166D01*
X106887Y140211D01*
X106813Y140254D01*
X106737Y140292D01*
X106659Y140328D01*
X106579Y140360D01*
X106499Y140388D01*
X106417Y140412D01*
X106334Y140433D01*
X106250Y140450D01*
X106166Y140464D01*
X106081Y140473D01*
X105995Y140479D01*
X105910Y140481D01*
X106291Y143529D02*
X104005Y143529D01*
X106291Y143529D02*
X106368Y143527D01*
X106445Y143521D01*
X106522Y143511D01*
X106598Y143498D01*
X106673Y143480D01*
X106747Y143459D01*
X106820Y143434D01*
X106892Y143405D01*
X106962Y143373D01*
X107031Y143338D01*
X107097Y143298D01*
X107162Y143256D01*
X107224Y143210D01*
X107284Y143161D01*
X107341Y143110D01*
X107396Y143055D01*
X107447Y142998D01*
X107496Y142938D01*
X107542Y142876D01*
X107584Y142811D01*
X107624Y142745D01*
X107659Y142676D01*
X107691Y142606D01*
X107720Y142534D01*
X107745Y142461D01*
X107766Y142387D01*
X107784Y142312D01*
X107797Y142236D01*
X107807Y142159D01*
X107813Y142082D01*
X107815Y142005D01*
X107813Y141928D01*
X107807Y141851D01*
X107797Y141774D01*
X107784Y141698D01*
X107766Y141623D01*
X107745Y141549D01*
X107720Y141476D01*
X107691Y141404D01*
X107659Y141334D01*
X107624Y141265D01*
X107584Y141199D01*
X107542Y141134D01*
X107496Y141072D01*
X107447Y141012D01*
X107396Y140955D01*
X107341Y140900D01*
X107284Y140849D01*
X107224Y140800D01*
X107162Y140754D01*
X107097Y140712D01*
X107031Y140672D01*
X106962Y140637D01*
X106892Y140605D01*
X106820Y140576D01*
X106747Y140551D01*
X106673Y140530D01*
X106598Y140512D01*
X106522Y140499D01*
X106445Y140489D01*
X106368Y140483D01*
X106291Y140481D01*
X104767Y140481D01*
D10*
X202369Y24206D02*
X206545Y24206D01*
X202369Y24206D02*
X202369Y33604D01*
X206545Y33604D01*
X205501Y29427D02*
X202369Y29427D01*
X209971Y31516D02*
X212582Y33604D01*
X212582Y24206D01*
X215192Y24206D02*
X209971Y24206D01*
X219115Y28905D02*
X219117Y29090D01*
X219124Y29275D01*
X219135Y29459D01*
X219150Y29643D01*
X219170Y29827D01*
X219194Y30011D01*
X219223Y30193D01*
X219256Y30375D01*
X219293Y30556D01*
X219335Y30736D01*
X219381Y30916D01*
X219431Y31094D01*
X219485Y31270D01*
X219544Y31446D01*
X219606Y31620D01*
X219673Y31792D01*
X219744Y31963D01*
X219819Y32132D01*
X219898Y32299D01*
X219897Y32299D02*
X219927Y32379D01*
X219960Y32458D01*
X219997Y32535D01*
X220037Y32611D01*
X220080Y32685D01*
X220126Y32757D01*
X220176Y32826D01*
X220228Y32894D01*
X220284Y32959D01*
X220342Y33022D01*
X220404Y33081D01*
X220467Y33139D01*
X220534Y33193D01*
X220602Y33244D01*
X220673Y33292D01*
X220746Y33337D01*
X220820Y33379D01*
X220897Y33417D01*
X220975Y33452D01*
X221054Y33484D01*
X221135Y33512D01*
X221217Y33536D01*
X221301Y33557D01*
X221384Y33574D01*
X221469Y33587D01*
X221554Y33596D01*
X221639Y33602D01*
X221725Y33604D01*
X221811Y33602D01*
X221896Y33596D01*
X221981Y33587D01*
X222066Y33574D01*
X222149Y33557D01*
X222233Y33536D01*
X222315Y33512D01*
X222396Y33484D01*
X222475Y33452D01*
X222553Y33417D01*
X222630Y33379D01*
X222704Y33337D01*
X222777Y33292D01*
X222848Y33244D01*
X222916Y33193D01*
X222983Y33139D01*
X223046Y33081D01*
X223108Y33022D01*
X223166Y32959D01*
X223222Y32894D01*
X223274Y32826D01*
X223324Y32757D01*
X223370Y32685D01*
X223413Y32611D01*
X223453Y32535D01*
X223490Y32458D01*
X223523Y32379D01*
X223553Y32299D01*
X223632Y32132D01*
X223707Y31963D01*
X223778Y31792D01*
X223845Y31620D01*
X223907Y31446D01*
X223966Y31270D01*
X224020Y31094D01*
X224070Y30916D01*
X224116Y30736D01*
X224158Y30556D01*
X224195Y30375D01*
X224228Y30193D01*
X224257Y30011D01*
X224281Y29827D01*
X224301Y29643D01*
X224316Y29459D01*
X224327Y29275D01*
X224334Y29090D01*
X224336Y28905D01*
X219115Y28905D02*
X219117Y28720D01*
X219124Y28535D01*
X219135Y28351D01*
X219150Y28167D01*
X219170Y27983D01*
X219194Y27799D01*
X219223Y27617D01*
X219256Y27435D01*
X219293Y27254D01*
X219335Y27074D01*
X219381Y26894D01*
X219431Y26716D01*
X219485Y26540D01*
X219544Y26364D01*
X219606Y26190D01*
X219673Y26018D01*
X219744Y25847D01*
X219819Y25678D01*
X219898Y25511D01*
X219897Y25511D02*
X219927Y25431D01*
X219960Y25352D01*
X219997Y25275D01*
X220037Y25199D01*
X220080Y25125D01*
X220126Y25053D01*
X220176Y24984D01*
X220229Y24916D01*
X220284Y24851D01*
X220343Y24788D01*
X220404Y24729D01*
X220467Y24671D01*
X220534Y24617D01*
X220602Y24566D01*
X220673Y24518D01*
X220746Y24473D01*
X220820Y24431D01*
X220897Y24393D01*
X220975Y24358D01*
X221054Y24326D01*
X221135Y24298D01*
X221217Y24274D01*
X221301Y24253D01*
X221384Y24236D01*
X221469Y24223D01*
X221554Y24214D01*
X221639Y24208D01*
X221725Y24206D01*
X223553Y25511D02*
X223632Y25678D01*
X223707Y25847D01*
X223778Y26018D01*
X223845Y26190D01*
X223907Y26364D01*
X223966Y26540D01*
X224020Y26716D01*
X224070Y26894D01*
X224116Y27074D01*
X224158Y27254D01*
X224195Y27435D01*
X224228Y27617D01*
X224257Y27799D01*
X224281Y27983D01*
X224301Y28167D01*
X224316Y28351D01*
X224327Y28535D01*
X224334Y28720D01*
X224336Y28905D01*
X223553Y25511D02*
X223523Y25431D01*
X223490Y25352D01*
X223453Y25275D01*
X223413Y25199D01*
X223370Y25125D01*
X223324Y25053D01*
X223274Y24984D01*
X223222Y24916D01*
X223166Y24851D01*
X223108Y24788D01*
X223046Y24729D01*
X222983Y24671D01*
X222916Y24617D01*
X222848Y24566D01*
X222777Y24518D01*
X222704Y24473D01*
X222630Y24431D01*
X222553Y24393D01*
X222475Y24358D01*
X222396Y24326D01*
X222315Y24298D01*
X222233Y24274D01*
X222149Y24253D01*
X222066Y24236D01*
X221981Y24223D01*
X221896Y24214D01*
X221811Y24208D01*
X221725Y24206D01*
X219637Y26294D02*
X223814Y31516D01*
X228259Y26294D02*
X230347Y33604D01*
X228259Y26294D02*
X233480Y26294D01*
X231914Y28383D02*
X231914Y24206D01*
X237490Y27861D02*
X243756Y27861D01*
X248202Y29427D02*
X250813Y29427D01*
X250813Y29428D02*
X250914Y29426D01*
X251015Y29420D01*
X251116Y29410D01*
X251216Y29397D01*
X251316Y29379D01*
X251415Y29358D01*
X251513Y29332D01*
X251610Y29303D01*
X251706Y29271D01*
X251800Y29234D01*
X251893Y29194D01*
X251985Y29150D01*
X252074Y29103D01*
X252162Y29052D01*
X252248Y28998D01*
X252331Y28941D01*
X252413Y28881D01*
X252491Y28817D01*
X252568Y28751D01*
X252641Y28681D01*
X252712Y28609D01*
X252780Y28534D01*
X252845Y28456D01*
X252907Y28376D01*
X252966Y28294D01*
X253022Y28209D01*
X253074Y28122D01*
X253123Y28034D01*
X253169Y27943D01*
X253210Y27851D01*
X253249Y27757D01*
X253283Y27662D01*
X253314Y27566D01*
X253341Y27468D01*
X253365Y27370D01*
X253384Y27270D01*
X253400Y27170D01*
X253412Y27070D01*
X253420Y26969D01*
X253424Y26868D01*
X253424Y26766D01*
X253420Y26665D01*
X253412Y26564D01*
X253400Y26464D01*
X253384Y26364D01*
X253365Y26264D01*
X253341Y26166D01*
X253314Y26068D01*
X253283Y25972D01*
X253249Y25877D01*
X253210Y25783D01*
X253169Y25691D01*
X253123Y25600D01*
X253074Y25511D01*
X253022Y25425D01*
X252966Y25340D01*
X252907Y25258D01*
X252845Y25178D01*
X252780Y25100D01*
X252712Y25025D01*
X252641Y24953D01*
X252568Y24883D01*
X252491Y24817D01*
X252413Y24753D01*
X252331Y24693D01*
X252248Y24636D01*
X252162Y24582D01*
X252074Y24531D01*
X251985Y24484D01*
X251893Y24440D01*
X251800Y24400D01*
X251706Y24363D01*
X251610Y24331D01*
X251513Y24302D01*
X251415Y24276D01*
X251316Y24255D01*
X251216Y24237D01*
X251116Y24224D01*
X251015Y24214D01*
X250914Y24208D01*
X250813Y24206D01*
X248202Y24206D01*
X248202Y33604D01*
X250813Y33604D01*
X250903Y33602D01*
X250992Y33596D01*
X251082Y33587D01*
X251171Y33573D01*
X251259Y33556D01*
X251346Y33535D01*
X251433Y33510D01*
X251518Y33481D01*
X251602Y33449D01*
X251684Y33414D01*
X251765Y33374D01*
X251844Y33332D01*
X251921Y33286D01*
X251996Y33236D01*
X252069Y33184D01*
X252140Y33128D01*
X252208Y33070D01*
X252273Y33008D01*
X252336Y32944D01*
X252396Y32877D01*
X252453Y32808D01*
X252507Y32736D01*
X252558Y32662D01*
X252606Y32586D01*
X252650Y32508D01*
X252691Y32428D01*
X252729Y32346D01*
X252763Y32263D01*
X252793Y32178D01*
X252820Y32092D01*
X252843Y32006D01*
X252862Y31918D01*
X252877Y31829D01*
X252889Y31740D01*
X252897Y31651D01*
X252901Y31561D01*
X252901Y31471D01*
X252897Y31381D01*
X252889Y31292D01*
X252877Y31203D01*
X252862Y31114D01*
X252843Y31026D01*
X252820Y30940D01*
X252793Y30854D01*
X252763Y30769D01*
X252729Y30686D01*
X252691Y30604D01*
X252650Y30524D01*
X252606Y30446D01*
X252558Y30370D01*
X252507Y30296D01*
X252453Y30224D01*
X252396Y30155D01*
X252336Y30088D01*
X252273Y30024D01*
X252208Y29962D01*
X252140Y29904D01*
X252069Y29848D01*
X251996Y29796D01*
X251921Y29746D01*
X251844Y29700D01*
X251765Y29658D01*
X251684Y29618D01*
X251602Y29583D01*
X251518Y29551D01*
X251433Y29522D01*
X251346Y29497D01*
X251259Y29476D01*
X251171Y29459D01*
X251082Y29445D01*
X250992Y29436D01*
X250903Y29430D01*
X250813Y29428D01*
X258911Y33604D02*
X258911Y24206D01*
X256300Y33604D02*
X261522Y33604D01*
X264835Y31516D02*
X267445Y33604D01*
X267445Y24206D01*
X264835Y24206D02*
X270056Y24206D01*
X273979Y31516D02*
X276589Y33604D01*
X276589Y24206D01*
X273979Y24206D02*
X279200Y24206D01*
X287082Y29427D02*
X288649Y29427D01*
X288649Y24206D01*
X285516Y24206D01*
X285427Y24208D01*
X285339Y24214D01*
X285251Y24223D01*
X285163Y24236D01*
X285076Y24253D01*
X284990Y24273D01*
X284905Y24298D01*
X284820Y24325D01*
X284737Y24357D01*
X284656Y24391D01*
X284576Y24430D01*
X284498Y24471D01*
X284421Y24516D01*
X284347Y24564D01*
X284274Y24615D01*
X284204Y24669D01*
X284137Y24727D01*
X284071Y24787D01*
X284009Y24849D01*
X283949Y24915D01*
X283891Y24982D01*
X283837Y25052D01*
X283786Y25125D01*
X283738Y25199D01*
X283693Y25276D01*
X283652Y25354D01*
X283613Y25434D01*
X283579Y25515D01*
X283547Y25598D01*
X283520Y25683D01*
X283495Y25768D01*
X283475Y25854D01*
X283458Y25941D01*
X283445Y26029D01*
X283436Y26117D01*
X283430Y26205D01*
X283428Y26294D01*
X283428Y31516D01*
X283430Y31607D01*
X283436Y31698D01*
X283446Y31789D01*
X283460Y31879D01*
X283477Y31968D01*
X283499Y32056D01*
X283525Y32144D01*
X283554Y32230D01*
X283587Y32315D01*
X283624Y32398D01*
X283664Y32480D01*
X283708Y32560D01*
X283755Y32638D01*
X283806Y32714D01*
X283859Y32787D01*
X283916Y32858D01*
X283977Y32927D01*
X284040Y32992D01*
X284105Y33055D01*
X284174Y33115D01*
X284245Y33173D01*
X284318Y33226D01*
X284394Y33277D01*
X284472Y33324D01*
X284552Y33368D01*
X284634Y33408D01*
X284717Y33445D01*
X284802Y33478D01*
X284888Y33507D01*
X284976Y33533D01*
X285064Y33555D01*
X285153Y33572D01*
X285243Y33586D01*
X285334Y33596D01*
X285425Y33602D01*
X285516Y33604D01*
X288649Y33604D01*
D11*
X49950Y119000D02*
X35550Y119000D01*
X35550Y29600D02*
X49950Y29600D01*
X8150Y29600D02*
X-4150Y29600D01*
X-4150Y119000D01*
X8150Y119000D01*
D12*
X84850Y108300D02*
X84852Y108363D01*
X84858Y108425D01*
X84868Y108487D01*
X84881Y108549D01*
X84899Y108609D01*
X84920Y108668D01*
X84945Y108726D01*
X84974Y108782D01*
X85006Y108836D01*
X85041Y108888D01*
X85079Y108937D01*
X85121Y108985D01*
X85165Y109029D01*
X85213Y109071D01*
X85262Y109109D01*
X85314Y109144D01*
X85368Y109176D01*
X85424Y109205D01*
X85482Y109230D01*
X85541Y109251D01*
X85601Y109269D01*
X85663Y109282D01*
X85725Y109292D01*
X85787Y109298D01*
X85850Y109300D01*
X85913Y109298D01*
X85975Y109292D01*
X86037Y109282D01*
X86099Y109269D01*
X86159Y109251D01*
X86218Y109230D01*
X86276Y109205D01*
X86332Y109176D01*
X86386Y109144D01*
X86438Y109109D01*
X86487Y109071D01*
X86535Y109029D01*
X86579Y108985D01*
X86621Y108937D01*
X86659Y108888D01*
X86694Y108836D01*
X86726Y108782D01*
X86755Y108726D01*
X86780Y108668D01*
X86801Y108609D01*
X86819Y108549D01*
X86832Y108487D01*
X86842Y108425D01*
X86848Y108363D01*
X86850Y108300D01*
X86848Y108237D01*
X86842Y108175D01*
X86832Y108113D01*
X86819Y108051D01*
X86801Y107991D01*
X86780Y107932D01*
X86755Y107874D01*
X86726Y107818D01*
X86694Y107764D01*
X86659Y107712D01*
X86621Y107663D01*
X86579Y107615D01*
X86535Y107571D01*
X86487Y107529D01*
X86438Y107491D01*
X86386Y107456D01*
X86332Y107424D01*
X86276Y107395D01*
X86218Y107370D01*
X86159Y107349D01*
X86099Y107331D01*
X86037Y107318D01*
X85975Y107308D01*
X85913Y107302D01*
X85850Y107300D01*
X85787Y107302D01*
X85725Y107308D01*
X85663Y107318D01*
X85601Y107331D01*
X85541Y107349D01*
X85482Y107370D01*
X85424Y107395D01*
X85368Y107424D01*
X85314Y107456D01*
X85262Y107491D01*
X85213Y107529D01*
X85165Y107571D01*
X85121Y107615D01*
X85079Y107663D01*
X85041Y107712D01*
X85006Y107764D01*
X84974Y107818D01*
X84945Y107874D01*
X84920Y107932D01*
X84899Y107991D01*
X84881Y108051D01*
X84868Y108113D01*
X84858Y108175D01*
X84852Y108237D01*
X84850Y108300D01*
D13*
X122175Y104306D02*
X130763Y104306D01*
X130763Y129706D02*
X122175Y129706D01*
X133557Y119690D02*
X133557Y114322D01*
D14*
X116309Y133008D03*
D11*
X101368Y134198D02*
X91208Y134198D01*
X143316Y135864D02*
X143316Y146024D01*
D15*
X85496Y50088D02*
X85496Y43484D01*
X85496Y50088D02*
X87331Y50088D01*
X87416Y50086D01*
X87500Y50080D01*
X87584Y50070D01*
X87668Y50057D01*
X87751Y50039D01*
X87833Y50018D01*
X87914Y49993D01*
X87994Y49964D01*
X88072Y49932D01*
X88148Y49896D01*
X88223Y49856D01*
X88296Y49813D01*
X88367Y49767D01*
X88436Y49718D01*
X88503Y49665D01*
X88567Y49609D01*
X88628Y49551D01*
X88686Y49490D01*
X88742Y49426D01*
X88795Y49359D01*
X88844Y49290D01*
X88890Y49219D01*
X88933Y49146D01*
X88973Y49071D01*
X89009Y48995D01*
X89041Y48917D01*
X89070Y48837D01*
X89095Y48756D01*
X89116Y48674D01*
X89134Y48591D01*
X89147Y48507D01*
X89157Y48423D01*
X89163Y48339D01*
X89165Y48254D01*
X89163Y48169D01*
X89157Y48085D01*
X89147Y48001D01*
X89134Y47917D01*
X89116Y47834D01*
X89095Y47752D01*
X89070Y47671D01*
X89041Y47591D01*
X89009Y47513D01*
X88973Y47437D01*
X88933Y47362D01*
X88890Y47289D01*
X88844Y47218D01*
X88795Y47149D01*
X88742Y47082D01*
X88686Y47018D01*
X88628Y46957D01*
X88567Y46899D01*
X88503Y46843D01*
X88436Y46790D01*
X88367Y46741D01*
X88296Y46695D01*
X88223Y46652D01*
X88148Y46612D01*
X88072Y46576D01*
X87994Y46544D01*
X87914Y46515D01*
X87833Y46490D01*
X87751Y46469D01*
X87668Y46451D01*
X87584Y46438D01*
X87500Y46428D01*
X87416Y46422D01*
X87331Y46420D01*
X87331Y46419D02*
X85496Y46419D01*
X87697Y46419D02*
X89165Y43484D01*
X94750Y50088D02*
X94829Y50086D01*
X94907Y50081D01*
X94985Y50071D01*
X95062Y50058D01*
X95139Y50041D01*
X95215Y50021D01*
X95290Y49997D01*
X95364Y49970D01*
X95436Y49939D01*
X95507Y49904D01*
X95576Y49867D01*
X95643Y49826D01*
X95708Y49782D01*
X95771Y49735D01*
X95831Y49685D01*
X95889Y49632D01*
X95945Y49576D01*
X95998Y49518D01*
X96048Y49458D01*
X96095Y49395D01*
X96139Y49330D01*
X96180Y49263D01*
X96217Y49194D01*
X96252Y49123D01*
X96283Y49051D01*
X96310Y48977D01*
X96334Y48902D01*
X96354Y48826D01*
X96371Y48749D01*
X96384Y48672D01*
X96394Y48594D01*
X96399Y48516D01*
X96401Y48437D01*
X94750Y50088D02*
X94661Y50086D01*
X94572Y50081D01*
X94484Y50071D01*
X94396Y50058D01*
X94309Y50042D01*
X94222Y50021D01*
X94137Y49997D01*
X94052Y49970D01*
X93969Y49939D01*
X93887Y49904D01*
X93806Y49866D01*
X93727Y49825D01*
X93651Y49781D01*
X93575Y49733D01*
X93502Y49682D01*
X93432Y49629D01*
X93363Y49572D01*
X93297Y49512D01*
X93234Y49450D01*
X93173Y49385D01*
X93115Y49318D01*
X93060Y49248D01*
X93007Y49176D01*
X92958Y49102D01*
X92912Y49026D01*
X92870Y48948D01*
X92830Y48868D01*
X92794Y48787D01*
X92761Y48704D01*
X92732Y48620D01*
X95851Y47153D02*
X95907Y47209D01*
X95961Y47268D01*
X96012Y47329D01*
X96061Y47393D01*
X96106Y47458D01*
X96149Y47526D01*
X96188Y47595D01*
X96225Y47666D01*
X96258Y47739D01*
X96287Y47813D01*
X96314Y47888D01*
X96337Y47964D01*
X96356Y48042D01*
X96372Y48120D01*
X96385Y48198D01*
X96394Y48278D01*
X96399Y48357D01*
X96401Y48437D01*
X95851Y47153D02*
X92733Y43484D01*
X96401Y43484D01*
D11*
X179169Y9191D02*
X369799Y9191D01*
X369799Y139161D01*
X179169Y139161D01*
X334879Y24271D02*
X364879Y24271D01*
X364879Y34271D01*
X338679Y34271D01*
X338679Y60971D01*
X338779Y60771D02*
X364879Y60771D01*
X364879Y84501D01*
X338779Y84501D01*
X338779Y111581D01*
X364879Y111581D01*
X364879Y124181D01*
X322279Y124181D01*
X322279Y96661D01*
X305679Y82161D01*
X179169Y139161D02*
X179169Y9191D01*
X121500Y71250D02*
X121500Y84250D01*
X90000Y84250D02*
X90000Y71250D01*
D12*
X112750Y99750D02*
X112752Y99813D01*
X112758Y99875D01*
X112768Y99937D01*
X112781Y99999D01*
X112799Y100059D01*
X112820Y100118D01*
X112845Y100176D01*
X112874Y100232D01*
X112906Y100286D01*
X112941Y100338D01*
X112979Y100387D01*
X113021Y100435D01*
X113065Y100479D01*
X113113Y100521D01*
X113162Y100559D01*
X113214Y100594D01*
X113268Y100626D01*
X113324Y100655D01*
X113382Y100680D01*
X113441Y100701D01*
X113501Y100719D01*
X113563Y100732D01*
X113625Y100742D01*
X113687Y100748D01*
X113750Y100750D01*
X113813Y100748D01*
X113875Y100742D01*
X113937Y100732D01*
X113999Y100719D01*
X114059Y100701D01*
X114118Y100680D01*
X114176Y100655D01*
X114232Y100626D01*
X114286Y100594D01*
X114338Y100559D01*
X114387Y100521D01*
X114435Y100479D01*
X114479Y100435D01*
X114521Y100387D01*
X114559Y100338D01*
X114594Y100286D01*
X114626Y100232D01*
X114655Y100176D01*
X114680Y100118D01*
X114701Y100059D01*
X114719Y99999D01*
X114732Y99937D01*
X114742Y99875D01*
X114748Y99813D01*
X114750Y99750D01*
X114748Y99687D01*
X114742Y99625D01*
X114732Y99563D01*
X114719Y99501D01*
X114701Y99441D01*
X114680Y99382D01*
X114655Y99324D01*
X114626Y99268D01*
X114594Y99214D01*
X114559Y99162D01*
X114521Y99113D01*
X114479Y99065D01*
X114435Y99021D01*
X114387Y98979D01*
X114338Y98941D01*
X114286Y98906D01*
X114232Y98874D01*
X114176Y98845D01*
X114118Y98820D01*
X114059Y98799D01*
X113999Y98781D01*
X113937Y98768D01*
X113875Y98758D01*
X113813Y98752D01*
X113750Y98750D01*
X113687Y98752D01*
X113625Y98758D01*
X113563Y98768D01*
X113501Y98781D01*
X113441Y98799D01*
X113382Y98820D01*
X113324Y98845D01*
X113268Y98874D01*
X113214Y98906D01*
X113162Y98941D01*
X113113Y98979D01*
X113065Y99021D01*
X113021Y99065D01*
X112979Y99113D01*
X112941Y99162D01*
X112906Y99214D01*
X112874Y99268D01*
X112845Y99324D01*
X112820Y99382D01*
X112799Y99441D01*
X112781Y99501D01*
X112768Y99563D01*
X112758Y99625D01*
X112752Y99687D01*
X112750Y99750D01*
D10*
X108897Y69218D02*
X101531Y69218D01*
X101531Y71264D01*
X101533Y71353D01*
X101539Y71442D01*
X101549Y71531D01*
X101562Y71619D01*
X101579Y71707D01*
X101601Y71794D01*
X101626Y71879D01*
X101654Y71964D01*
X101687Y72047D01*
X101723Y72129D01*
X101762Y72209D01*
X101805Y72287D01*
X101851Y72363D01*
X101901Y72438D01*
X101954Y72510D01*
X102010Y72579D01*
X102069Y72646D01*
X102130Y72711D01*
X102195Y72772D01*
X102262Y72831D01*
X102331Y72887D01*
X102403Y72940D01*
X102478Y72990D01*
X102554Y73036D01*
X102632Y73079D01*
X102712Y73118D01*
X102794Y73154D01*
X102877Y73187D01*
X102962Y73215D01*
X103047Y73240D01*
X103134Y73262D01*
X103222Y73279D01*
X103310Y73292D01*
X103399Y73302D01*
X103488Y73308D01*
X103577Y73310D01*
X106851Y73310D01*
X106940Y73308D01*
X107029Y73302D01*
X107118Y73292D01*
X107206Y73279D01*
X107294Y73262D01*
X107381Y73240D01*
X107466Y73215D01*
X107551Y73187D01*
X107634Y73154D01*
X107716Y73118D01*
X107796Y73079D01*
X107874Y73036D01*
X107950Y72990D01*
X108025Y72940D01*
X108097Y72887D01*
X108166Y72831D01*
X108233Y72772D01*
X108298Y72711D01*
X108359Y72646D01*
X108418Y72579D01*
X108474Y72510D01*
X108527Y72438D01*
X108577Y72363D01*
X108623Y72287D01*
X108666Y72209D01*
X108705Y72129D01*
X108741Y72047D01*
X108774Y71964D01*
X108802Y71879D01*
X108827Y71794D01*
X108849Y71707D01*
X108866Y71619D01*
X108879Y71531D01*
X108889Y71442D01*
X108895Y71353D01*
X108897Y71264D01*
X108897Y69218D01*
X107260Y76777D02*
X101531Y78414D01*
X107260Y76777D02*
X107260Y80869D01*
X105623Y79641D02*
X108897Y79641D01*
D15*
X151297Y77142D02*
X151297Y83746D01*
X153132Y83746D01*
X153217Y83744D01*
X153301Y83738D01*
X153385Y83728D01*
X153469Y83715D01*
X153552Y83697D01*
X153634Y83676D01*
X153715Y83651D01*
X153795Y83622D01*
X153873Y83590D01*
X153949Y83554D01*
X154024Y83514D01*
X154097Y83471D01*
X154168Y83425D01*
X154237Y83376D01*
X154304Y83323D01*
X154368Y83267D01*
X154429Y83209D01*
X154487Y83148D01*
X154543Y83084D01*
X154596Y83017D01*
X154645Y82948D01*
X154691Y82877D01*
X154734Y82804D01*
X154774Y82729D01*
X154810Y82653D01*
X154842Y82575D01*
X154871Y82495D01*
X154896Y82414D01*
X154917Y82332D01*
X154935Y82249D01*
X154948Y82165D01*
X154958Y82081D01*
X154964Y81997D01*
X154966Y81912D01*
X154964Y81827D01*
X154958Y81743D01*
X154948Y81659D01*
X154935Y81575D01*
X154917Y81492D01*
X154896Y81410D01*
X154871Y81329D01*
X154842Y81249D01*
X154810Y81171D01*
X154774Y81095D01*
X154734Y81020D01*
X154691Y80947D01*
X154645Y80876D01*
X154596Y80807D01*
X154543Y80740D01*
X154487Y80676D01*
X154429Y80615D01*
X154368Y80557D01*
X154304Y80501D01*
X154237Y80448D01*
X154168Y80399D01*
X154097Y80353D01*
X154024Y80310D01*
X153949Y80270D01*
X153873Y80234D01*
X153795Y80202D01*
X153715Y80173D01*
X153634Y80148D01*
X153552Y80127D01*
X153469Y80109D01*
X153385Y80096D01*
X153301Y80086D01*
X153217Y80080D01*
X153132Y80078D01*
X153132Y80077D02*
X151297Y80077D01*
X153499Y80077D02*
X154966Y77142D01*
X158534Y77142D02*
X160368Y77142D01*
X160453Y77144D01*
X160537Y77150D01*
X160621Y77160D01*
X160705Y77173D01*
X160788Y77191D01*
X160870Y77212D01*
X160951Y77237D01*
X161031Y77266D01*
X161109Y77298D01*
X161185Y77334D01*
X161260Y77374D01*
X161333Y77417D01*
X161404Y77463D01*
X161473Y77512D01*
X161540Y77565D01*
X161604Y77621D01*
X161665Y77679D01*
X161723Y77740D01*
X161779Y77804D01*
X161832Y77871D01*
X161881Y77940D01*
X161927Y78011D01*
X161970Y78084D01*
X162010Y78159D01*
X162046Y78235D01*
X162078Y78313D01*
X162107Y78393D01*
X162132Y78474D01*
X162153Y78556D01*
X162171Y78639D01*
X162184Y78723D01*
X162194Y78807D01*
X162200Y78891D01*
X162202Y78976D01*
X162200Y79061D01*
X162194Y79145D01*
X162184Y79229D01*
X162171Y79313D01*
X162153Y79396D01*
X162132Y79478D01*
X162107Y79559D01*
X162078Y79639D01*
X162046Y79717D01*
X162010Y79793D01*
X161970Y79868D01*
X161927Y79941D01*
X161881Y80012D01*
X161832Y80081D01*
X161779Y80148D01*
X161723Y80212D01*
X161665Y80273D01*
X161604Y80331D01*
X161540Y80387D01*
X161473Y80440D01*
X161404Y80489D01*
X161333Y80535D01*
X161260Y80578D01*
X161185Y80618D01*
X161109Y80654D01*
X161031Y80686D01*
X160951Y80715D01*
X160870Y80740D01*
X160788Y80761D01*
X160705Y80779D01*
X160621Y80792D01*
X160537Y80802D01*
X160453Y80808D01*
X160368Y80810D01*
X160735Y83746D02*
X158534Y83746D01*
X160735Y83746D02*
X160811Y83744D01*
X160886Y83738D01*
X160961Y83729D01*
X161035Y83715D01*
X161109Y83698D01*
X161181Y83676D01*
X161253Y83652D01*
X161323Y83623D01*
X161391Y83591D01*
X161458Y83556D01*
X161523Y83517D01*
X161586Y83474D01*
X161646Y83429D01*
X161704Y83381D01*
X161760Y83329D01*
X161812Y83275D01*
X161862Y83218D01*
X161909Y83159D01*
X161953Y83098D01*
X161994Y83034D01*
X162031Y82968D01*
X162065Y82900D01*
X162095Y82831D01*
X162122Y82760D01*
X162145Y82688D01*
X162164Y82615D01*
X162179Y82541D01*
X162191Y82466D01*
X162199Y82391D01*
X162203Y82316D01*
X162203Y82240D01*
X162199Y82165D01*
X162191Y82090D01*
X162179Y82015D01*
X162164Y81941D01*
X162145Y81868D01*
X162122Y81796D01*
X162095Y81725D01*
X162065Y81656D01*
X162031Y81588D01*
X161994Y81522D01*
X161953Y81458D01*
X161909Y81397D01*
X161862Y81338D01*
X161812Y81281D01*
X161760Y81227D01*
X161704Y81175D01*
X161646Y81127D01*
X161586Y81082D01*
X161523Y81039D01*
X161458Y81000D01*
X161391Y80965D01*
X161323Y80933D01*
X161253Y80904D01*
X161181Y80880D01*
X161109Y80858D01*
X161035Y80841D01*
X160961Y80827D01*
X160886Y80818D01*
X160811Y80812D01*
X160735Y80810D01*
X160735Y80811D02*
X159268Y80811D01*
X151297Y91142D02*
X151297Y97746D01*
X153132Y97746D01*
X153217Y97744D01*
X153301Y97738D01*
X153385Y97728D01*
X153469Y97715D01*
X153552Y97697D01*
X153634Y97676D01*
X153715Y97651D01*
X153795Y97622D01*
X153873Y97590D01*
X153949Y97554D01*
X154024Y97514D01*
X154097Y97471D01*
X154168Y97425D01*
X154237Y97376D01*
X154304Y97323D01*
X154368Y97267D01*
X154429Y97209D01*
X154487Y97148D01*
X154543Y97084D01*
X154596Y97017D01*
X154645Y96948D01*
X154691Y96877D01*
X154734Y96804D01*
X154774Y96729D01*
X154810Y96653D01*
X154842Y96575D01*
X154871Y96495D01*
X154896Y96414D01*
X154917Y96332D01*
X154935Y96249D01*
X154948Y96165D01*
X154958Y96081D01*
X154964Y95997D01*
X154966Y95912D01*
X154964Y95827D01*
X154958Y95743D01*
X154948Y95659D01*
X154935Y95575D01*
X154917Y95492D01*
X154896Y95410D01*
X154871Y95329D01*
X154842Y95249D01*
X154810Y95171D01*
X154774Y95095D01*
X154734Y95020D01*
X154691Y94947D01*
X154645Y94876D01*
X154596Y94807D01*
X154543Y94740D01*
X154487Y94676D01*
X154429Y94615D01*
X154368Y94557D01*
X154304Y94501D01*
X154237Y94448D01*
X154168Y94399D01*
X154097Y94353D01*
X154024Y94310D01*
X153949Y94270D01*
X153873Y94234D01*
X153795Y94202D01*
X153715Y94173D01*
X153634Y94148D01*
X153552Y94127D01*
X153469Y94109D01*
X153385Y94096D01*
X153301Y94086D01*
X153217Y94080D01*
X153132Y94078D01*
X153132Y94077D02*
X151297Y94077D01*
X153499Y94077D02*
X154966Y91142D01*
X158534Y92610D02*
X160001Y97746D01*
X158534Y92610D02*
X162203Y92610D01*
X161102Y94077D02*
X161102Y91142D01*
D10*
X147155Y64081D02*
X145518Y64081D01*
X145440Y64083D01*
X145362Y64088D01*
X145285Y64098D01*
X145208Y64111D01*
X145132Y64127D01*
X145057Y64147D01*
X144983Y64171D01*
X144910Y64198D01*
X144838Y64229D01*
X144768Y64263D01*
X144700Y64300D01*
X144633Y64341D01*
X144568Y64385D01*
X144506Y64431D01*
X144446Y64481D01*
X144388Y64533D01*
X144333Y64588D01*
X144281Y64646D01*
X144231Y64706D01*
X144185Y64768D01*
X144141Y64833D01*
X144100Y64900D01*
X144063Y64968D01*
X144029Y65038D01*
X143998Y65110D01*
X143971Y65183D01*
X143947Y65257D01*
X143927Y65332D01*
X143911Y65408D01*
X143898Y65485D01*
X143888Y65562D01*
X143883Y65640D01*
X143881Y65718D01*
X143881Y69810D01*
X143883Y69890D01*
X143889Y69970D01*
X143899Y70050D01*
X143912Y70129D01*
X143930Y70208D01*
X143951Y70285D01*
X143977Y70361D01*
X144006Y70436D01*
X144038Y70510D01*
X144074Y70582D01*
X144114Y70652D01*
X144157Y70719D01*
X144203Y70785D01*
X144253Y70848D01*
X144305Y70909D01*
X144360Y70968D01*
X144419Y71023D01*
X144479Y71075D01*
X144543Y71125D01*
X144609Y71171D01*
X144676Y71214D01*
X144746Y71254D01*
X144818Y71290D01*
X144892Y71322D01*
X144966Y71351D01*
X145043Y71377D01*
X145120Y71398D01*
X145199Y71416D01*
X145278Y71429D01*
X145358Y71439D01*
X145438Y71445D01*
X145518Y71447D01*
X147155Y71447D01*
X150000Y69810D02*
X152046Y71447D01*
X152046Y64081D01*
X150000Y64081D02*
X154092Y64081D01*
M02*
