G04 EAGLE Gerber RS-274X export*
G75*
%MOMM*%
%FSLAX34Y34*%
%LPD*%
%INSolderpaste Top*%
%IPPOS*%
%AMOC8*
5,1,8,0,0,1.08239X$1,22.5*%
G01*
%ADD10R,0.260000X0.560000*%
%ADD11R,0.560000X0.260000*%
%ADD12R,0.400000X0.400000*%
%ADD13R,1.450000X0.600000*%
%ADD14R,1.450000X0.300000*%
%ADD15R,1.200000X0.550000*%
%ADD16R,1.000000X1.100000*%
%ADD17R,1.100000X1.000000*%
%ADD18R,0.900000X0.850000*%
%ADD19R,0.711200X1.422400*%
%ADD20R,1.422400X0.711200*%
%ADD21C,0.247500*%
%ADD22C,0.147500*%
%ADD23R,0.850000X0.900000*%
%ADD24C,0.270000*%


D10*
X142096Y50504D03*
X137096Y50504D03*
X132096Y50504D03*
X127096Y50504D03*
X122096Y50504D03*
X117096Y50504D03*
X112096Y50504D03*
D11*
X104096Y42504D03*
X104096Y37504D03*
X104096Y32504D03*
X104096Y27504D03*
X104096Y22504D03*
X104096Y17504D03*
X104096Y12504D03*
D10*
X112096Y4504D03*
X117096Y4504D03*
X122096Y4504D03*
X127096Y4504D03*
X132096Y4504D03*
X137096Y4504D03*
X142096Y4504D03*
D11*
X150096Y12504D03*
X150096Y17504D03*
X150096Y22504D03*
X150096Y27504D03*
X150096Y32504D03*
X150096Y37504D03*
X150096Y42504D03*
D10*
X139596Y37504D03*
X139596Y27504D03*
X139596Y17504D03*
X134596Y37504D03*
X134596Y27504D03*
X134596Y17504D03*
X129596Y37504D03*
X129596Y27504D03*
X129596Y17504D03*
X124596Y37504D03*
X124596Y27504D03*
X124596Y17504D03*
X119596Y37504D03*
X119596Y27504D03*
X119596Y17504D03*
X114596Y37504D03*
X114596Y27504D03*
X114596Y17504D03*
D12*
X148096Y48504D03*
D13*
X72800Y106800D03*
X72800Y98800D03*
D14*
X72800Y76800D03*
X72800Y81800D03*
X72800Y86800D03*
X72800Y91800D03*
X72800Y71800D03*
X72800Y66800D03*
X72800Y61800D03*
X72800Y56800D03*
D13*
X72800Y49800D03*
X72800Y41800D03*
D15*
X113468Y126506D03*
X113468Y117006D03*
X113468Y107506D03*
X139470Y107506D03*
X139470Y126506D03*
D16*
X96288Y109188D03*
X96288Y126188D03*
D17*
X118306Y140944D03*
X135306Y140944D03*
D18*
X90969Y24413D03*
X90969Y36013D03*
D19*
X197959Y9191D03*
X210659Y9191D03*
X223359Y9191D03*
X236059Y9191D03*
X248759Y9191D03*
X261459Y9191D03*
X274159Y9191D03*
X286859Y9191D03*
D20*
X179169Y29041D03*
X179169Y41741D03*
X179169Y54441D03*
X179169Y67141D03*
X179169Y79841D03*
X179169Y92541D03*
X179169Y105241D03*
D19*
X197959Y139161D03*
X210659Y139161D03*
X223359Y139161D03*
X236059Y139161D03*
X248759Y139161D03*
X261459Y139161D03*
X274159Y139161D03*
X286859Y139161D03*
D20*
X179169Y117941D03*
D19*
X299559Y139161D03*
X299559Y9191D03*
D21*
X109637Y83337D02*
X109637Y93263D01*
X117063Y93263D01*
X117063Y83337D01*
X109637Y83337D01*
X109637Y85688D02*
X117063Y85688D01*
X117063Y88039D02*
X109637Y88039D01*
X109637Y90390D02*
X117063Y90390D01*
X117063Y92741D02*
X109637Y92741D01*
D22*
X93937Y93763D02*
X93937Y82837D01*
X93937Y93763D02*
X98363Y93763D01*
X98363Y82837D01*
X93937Y82837D01*
X93937Y84238D02*
X98363Y84238D01*
X98363Y85639D02*
X93937Y85639D01*
X93937Y87040D02*
X98363Y87040D01*
X98363Y88441D02*
X93937Y88441D01*
X93937Y89842D02*
X98363Y89842D01*
X98363Y91243D02*
X93937Y91243D01*
X93937Y92644D02*
X98363Y92644D01*
X93937Y72663D02*
X93937Y61737D01*
X93937Y72663D02*
X98363Y72663D01*
X98363Y61737D01*
X93937Y61737D01*
X93937Y63138D02*
X98363Y63138D01*
X98363Y64539D02*
X93937Y64539D01*
X93937Y65940D02*
X98363Y65940D01*
X98363Y67341D02*
X93937Y67341D01*
X93937Y68742D02*
X98363Y68742D01*
X98363Y70143D02*
X93937Y70143D01*
X93937Y71544D02*
X98363Y71544D01*
X113137Y72663D02*
X113137Y61737D01*
X113137Y72663D02*
X117563Y72663D01*
X117563Y61737D01*
X113137Y61737D01*
X113137Y63138D02*
X117563Y63138D01*
X117563Y64539D02*
X113137Y64539D01*
X113137Y65940D02*
X117563Y65940D01*
X117563Y67341D02*
X113137Y67341D01*
X113137Y68742D02*
X117563Y68742D01*
X117563Y70143D02*
X113137Y70143D01*
X113137Y71544D02*
X117563Y71544D01*
D23*
X142800Y80500D03*
X131200Y80500D03*
X142800Y94250D03*
X131200Y94250D03*
D24*
X136970Y68650D02*
X139670Y68650D01*
X139670Y65350D01*
X136970Y65350D01*
X136970Y68650D01*
X136970Y67915D02*
X139670Y67915D01*
X131030Y68650D02*
X128330Y68650D01*
X131030Y68650D02*
X131030Y65350D01*
X128330Y65350D01*
X128330Y68650D01*
X128330Y67915D02*
X131030Y67915D01*
M02*
