G04 EAGLE Gerber RS-274X export*
G75*
%MOMM*%
%FSLAX34Y34*%
%LPD*%
%INSoldermask Top*%
%IPPOS*%
%AMOC8*
5,1,8,0,0,1.08239X$1,22.5*%
G01*
%ADD10R,0.300000X0.600000*%
%ADD11R,0.600000X0.300000*%
%ADD12R,0.500000X0.500000*%
%ADD13R,1.551600X0.701600*%
%ADD14R,1.551600X0.401600*%
%ADD15C,1.259600*%
%ADD16C,0.801600*%
%ADD17R,1.301600X0.651600*%
%ADD18R,1.101600X1.201600*%
%ADD19R,1.201600X1.101600*%
%ADD20R,1.001600X0.951600*%
%ADD21R,0.812800X1.524000*%
%ADD22R,1.524000X0.812800*%
%ADD23C,0.349309*%
%ADD24C,0.248975*%
%ADD25R,0.951600X1.001600*%
%ADD26C,0.372125*%


D10*
X142096Y50504D03*
X137096Y50504D03*
X132096Y50504D03*
X127096Y50504D03*
X122096Y50504D03*
X117096Y50504D03*
X112096Y50504D03*
D11*
X104096Y42504D03*
X104096Y37504D03*
X104096Y32504D03*
X104096Y27504D03*
X104096Y22504D03*
X104096Y17504D03*
X104096Y12504D03*
D10*
X112096Y4504D03*
X117096Y4504D03*
X122096Y4504D03*
X127096Y4504D03*
X132096Y4504D03*
X137096Y4504D03*
X142096Y4504D03*
D11*
X150096Y12504D03*
X150096Y17504D03*
X150096Y22504D03*
X150096Y27504D03*
X150096Y32504D03*
X150096Y37504D03*
X150096Y42504D03*
D12*
X148121Y48529D03*
D10*
X139596Y37504D03*
X139596Y27504D03*
X139596Y17504D03*
X134596Y37504D03*
X134596Y27504D03*
X134596Y17504D03*
X129596Y37504D03*
X129596Y27504D03*
X129596Y17504D03*
X124596Y37504D03*
X124596Y27504D03*
X124596Y17504D03*
X119596Y37504D03*
X119596Y27504D03*
X119596Y17504D03*
X114596Y37504D03*
X114596Y27504D03*
X114596Y17504D03*
D13*
X72800Y106800D03*
X72800Y98800D03*
D14*
X72800Y76800D03*
X72800Y81800D03*
X72800Y86800D03*
X72800Y91800D03*
X72800Y71800D03*
X72800Y66800D03*
X72800Y61800D03*
X72800Y56800D03*
D13*
X72800Y49800D03*
X72800Y41800D03*
D15*
X69440Y117500D02*
X57860Y117500D01*
X57860Y31100D02*
X69440Y31100D01*
X27640Y117500D02*
X16060Y117500D01*
X16060Y31100D02*
X27640Y31100D01*
D16*
X58350Y103200D03*
X58350Y45400D03*
D17*
X113468Y126506D03*
X113468Y117006D03*
X113468Y107506D03*
X139470Y107506D03*
X139470Y126506D03*
D18*
X96288Y109188D03*
X96288Y126188D03*
D19*
X118306Y140944D03*
X135306Y140944D03*
D20*
X90969Y24413D03*
X90969Y36013D03*
D21*
X197959Y9191D03*
X210659Y9191D03*
X223359Y9191D03*
X236059Y9191D03*
X248759Y9191D03*
X261459Y9191D03*
X274159Y9191D03*
X286859Y9191D03*
D22*
X179169Y29041D03*
X179169Y41741D03*
X179169Y54441D03*
X179169Y67141D03*
X179169Y79841D03*
X179169Y92541D03*
X179169Y105241D03*
D21*
X197959Y139161D03*
X210659Y139161D03*
X223359Y139161D03*
X236059Y139161D03*
X248759Y139161D03*
X261459Y139161D03*
X274159Y139161D03*
X286859Y139161D03*
D22*
X179169Y117941D03*
D21*
X299559Y139161D03*
X299559Y9191D03*
D23*
X109638Y83338D02*
X109638Y93262D01*
X117062Y93262D01*
X117062Y83338D01*
X109638Y83338D01*
X109638Y86656D02*
X117062Y86656D01*
X117062Y89974D02*
X109638Y89974D01*
D24*
X93937Y93763D02*
X93937Y82837D01*
X93937Y93763D02*
X98363Y93763D01*
X98363Y82837D01*
X93937Y82837D01*
X93937Y85202D02*
X98363Y85202D01*
X98363Y87567D02*
X93937Y87567D01*
X93937Y89932D02*
X98363Y89932D01*
X98363Y92297D02*
X93937Y92297D01*
X93937Y72663D02*
X93937Y61737D01*
X93937Y72663D02*
X98363Y72663D01*
X98363Y61737D01*
X93937Y61737D01*
X93937Y64102D02*
X98363Y64102D01*
X98363Y66467D02*
X93937Y66467D01*
X93937Y68832D02*
X98363Y68832D01*
X98363Y71197D02*
X93937Y71197D01*
X113137Y72663D02*
X113137Y61737D01*
X113137Y72663D02*
X117563Y72663D01*
X117563Y61737D01*
X113137Y61737D01*
X113137Y64102D02*
X117563Y64102D01*
X117563Y66467D02*
X113137Y66467D01*
X113137Y68832D02*
X117563Y68832D01*
X117563Y71197D02*
X113137Y71197D01*
D25*
X142800Y80500D03*
X131200Y80500D03*
X142800Y94250D03*
X131200Y94250D03*
D26*
X136972Y68648D02*
X139668Y68648D01*
X139668Y65352D01*
X136972Y65352D01*
X136972Y68648D01*
X131028Y68648D02*
X128332Y68648D01*
X131028Y68648D02*
X131028Y65352D01*
X128332Y65352D01*
X128332Y68648D01*
X167972Y7648D02*
X170668Y7648D01*
X170668Y4352D01*
X167972Y4352D01*
X167972Y7648D01*
X162028Y7648D02*
X159332Y7648D01*
X162028Y7648D02*
X162028Y4352D01*
X159332Y4352D01*
X159332Y7648D01*
M02*
