M48
;GenerationSoftware,Autodesk,EAGLE,9.6.2*%
;CreationDate,2024-02-14T11:39:35Z*%
FMAT,2
ICI,OFF
METRIC,TZ,000.000
T3C0.250
T2C0.800
T1C1.100
%
G90
M71
T1
X18500Y12150
X18500Y7650
T2
X18430Y4050
X17630Y4050
X18830Y4050
X19230Y4050
X18030Y4050
X18830Y15750
X19230Y15750
X18030Y15750
X17630Y15750
X18430Y15750
T3
X29500Y8260
X29040Y3040
X26250Y12460
X24770Y12460
X29800Y9440
X26600Y14200
X24500Y11700
X24500Y8400
X28100Y14300
X35000Y4700
X24600Y7500
X23500Y3500
X43900Y9800
X42400Y15000
X31900Y16700
X41500Y15000
X31900Y15800
X38800Y14600
X35000Y15200
X42600Y4700
X33100Y14300
X33100Y13000
X23600Y4400
X26439Y9735
X33390Y6960
X33360Y8090
X33400Y9300
X43900Y12000
X43900Y10900
X21400Y3500
X43900Y8700
X43900Y7600
X43900Y6500
X33400Y10400
X33400Y11600
X32400Y3400
M30