M48
;GenerationSoftware,Autodesk,EAGLE,9.6.2*%
;CreationDate,2024-02-14T07:32:49Z*%
FMAT,2
ICI,OFF
METRIC,TZ,000.000
T3C0.250
T2C0.800
T1C1.100
%
G90
M71
T1
X10900Y9550
X10900Y5050
T2
X10830Y1450
X10030Y1450
X11230Y1450
X11630Y1450
X10430Y1450
X11230Y13150
X11630Y13150
X10430Y13150
X10030Y13150
X10830Y13150
T3
X22100Y5660
X21640Y440
X18850Y9860
X17370Y9860
X22400Y6840
X13990Y1360
X19200Y11600
X17100Y9100
X17100Y5800
X20700Y11700
X27600Y2100
X17200Y4900
X36500Y7200
X35000Y12400
X24500Y14100
X34100Y12400
X24500Y13200
X31400Y12000
X27600Y12600
X35200Y2100
X25700Y11700
X25700Y10400
X16200Y1800
X19039Y7135
X25990Y4360
X25960Y5490
X26000Y6700
X36500Y9400
X36500Y8300
X16100Y900
X36500Y6100
X36500Y5000
X36500Y3900
X26000Y7800
X26000Y9000
X25000Y800
M30