M48
;GenerationSoftware,Autodesk,EAGLE,9.6.2*%
;CreationDate,2024-02-15T18:56:00Z*%
FMAT,2
ICI,OFF
METRIC,TZ,000.000
T4C0.250
T3C0.300
T2C0.800
T1C1.100
%
G90
M71
T1
X18500Y12150
X18500Y7650
T2
X18430Y4050
X17630Y4050
X18830Y4050
X19230Y4050
X18030Y4050
X18830Y15750
X19230Y15750
X18030Y15750
X17630Y15750
X18430Y15750
T3
X40100Y14800
X38800Y14800
X37600Y15200
T4
X40200Y11600
X40200Y10300
X40200Y9000
X40200Y7600
X26380Y9680
X24500Y11700
X21300Y7400
X22600Y15100
X30400Y5800
X29900Y8400
X31200Y15100
X23600Y3300
X24400Y7600
X38800Y4600
X37500Y4600
X29900Y9400
X38200Y9000
X31200Y14100
X36300Y15200
X35000Y15200
X23200Y16700
X26900Y16600
X40200Y12900
X32700Y5600
X34100Y5600
X16300Y13700
X16300Y12400
X40200Y6000
X16300Y11100
X16300Y9700
X16300Y8100
X16300Y6700
X16300Y5300
X23440Y5040
M30