M48
;GenerationSoftware,Autodesk,EAGLE,9.6.2*%
;CreationDate,2024-02-16T06:10:04Z*%
FMAT,2
ICI,OFF
METRIC,TZ,000.000
T4C0.250
T3C0.300
T2C0.800
T1C1.100
%
G90
M71
T1
X18500Y7650
X18500Y12150
T2
X18430Y15750
X17630Y15750
X18830Y15750
X19230Y15750
X18030Y15750
X18830Y4050
X19230Y4050
X18030Y4050
X17630Y4050
X18430Y4050
T3
X38800Y14800
X40100Y14800
X37600Y15200
T4
X40200Y9000
X40200Y7600
X40200Y6000
X20700Y16660
X22460Y16660
X22600Y15100
X21280Y8000
X21280Y11760
X30400Y5800
X29900Y9400
X16300Y12400
X23600Y3300
X24400Y7600
X38800Y4600
X37500Y4600
X38200Y9000
X31200Y15100
X40200Y12900
X36300Y15200
X35000Y15200
X26880Y8640
X25840Y8640
X32700Y5600
X34100Y5600
X29900Y8400
X16300Y13700
X16300Y11100
X16300Y9700
X25180Y16660
X16300Y8100
X16300Y6700
X16300Y5300
X40200Y11600
X40200Y10300
X23440Y4720
M30