M48
;GenerationSoftware,Autodesk,EAGLE,9.6.2*%
;CreationDate,2024-01-29T19:14:27Z*%
FMAT,2
ICI,OFF
METRIC,TZ,000.000
T3C0.250
T2C0.650
T1C0.700
%
G90
M71
T1
X5835Y10320
X5835Y4540
T2
X2185Y3110
X6365Y11750
X6365Y3110
X2185Y11750
T3
X19500Y5600
X19500Y6800
X30000Y10600
X30000Y9500
X30000Y8400
X30000Y7300
X30000Y6200
X30000Y5100
X30000Y4000
X19500Y7900
X19500Y9100
X15600Y11300
X15600Y12700
X15900Y4800
X16000Y700
X17400Y700
X10539Y6735
X25800Y2300
X16400Y14300
X17900Y13000
X10339Y9735
X23842Y2264
X23000Y12700
X6100Y8700
X14000Y11800
X21100Y2200
X10500Y5000
X9639Y1499
X24900Y12700
X8600Y9200
X28700Y2200
X19200Y11800
X19200Y10500
X15200Y10200
X14900Y6600
X25800Y12100
X8700Y5800
X12339Y7235
X18700Y700
X15900Y5800
X19500Y4400
X5700Y6100
M30